<svg xmlns="http://www.w3.org/2000/svg" viewBox="0 0 293.64 319.93"><defs><style>.cls-1{fill:#bcdff5;}.cls-2{fill:#96ceea;}.cls-3,.cls-6{fill:#231f20;}.cls-4{fill:#fff;stroke:#fff;}.cls-4,.cls-6,.cls-7{stroke-miterlimit:10;}.cls-5{fill:#2e76bb;}.cls-6,.cls-7{stroke:#231f20;}.cls-7{fill:#9cd9e5;fill-opacity:0.43;stroke-width:8px;}.cls-8{opacity:0.75;}.cls-9{fill:#bde4ed;}</style></defs><g id="Layer_2" data-name="Layer 2"><g id="Layer_1-2" data-name="Layer 1"><path class="cls-1" d="M59.55,249.59,47.4,274.07c-1.34,2.71-2.7,5.48-3,8.48-.58,5.66,2.79,11.17,7.38,14.53S62,302,67.57,303.15c7.5,1.56,16.23,2.18,21.92-2.95,2.92-2.65,4.53-6.42,5.88-10.12A132.18,132.18,0,0,0,101.12,269Z"/><path class="cls-2" d="M58.47,249c-4.38,8.84-9,17.6-13.14,26.53-1.78,3.82-2.85,7.78-1.79,12A19,19,0,0,0,49.67,297c6.15,5.28,15,7.28,22.82,8.22,7.52.9,15.52-.27,20.22-6.81,2.81-3.92,4.27-8.87,5.7-13.41a130.64,130.64,0,0,0,3.91-15.71,1.27,1.27,0,0,0-.57-1.41l-14-6.53L65.37,250.93l-5.19-2.42c-1.45-.68-2.72,1.47-1.26,2.15l14,6.53,22.37,10.43,5.2,2.42-.58-1.42c-.8,4.3-1.79,8.55-3,12.75a85.65,85.65,0,0,1-4.14,11.88c-1.55,3.38-3.7,6.34-7.09,8A20.52,20.52,0,0,1,75.58,303a56.51,56.51,0,0,1-10.81-1.73,36.75,36.75,0,0,1-11-4.29,18.24,18.24,0,0,1-7.19-8.16c-1.59-3.76-1.12-7.55.49-11.23,2-4.52,4.37-8.9,6.56-13.33l7-14C61.34,248.78,59.19,247.51,58.47,249Z"/><path class="cls-1" d="M137.1,270.7l-2.45,27.22c-.27,3-.54,6.09.26,9,1.51,5.48,6.65,9.4,12.14,10.87s11.32.87,16.93-.07c7.56-1.27,15.92-3.84,19.36-10.69,1.76-3.53,1.9-7.62,1.81-11.57a130.3,130.3,0,0,0-2.29-21.76Z"/><path class="cls-2" d="M135.85,270.7c-.89,9.89-2,19.8-2.65,29.71-.25,4.08.29,8.09,2.75,11.45a19.33,19.33,0,0,0,8.52,6.38,29.05,29.05,0,0,0,12.85,1.57,65.42,65.42,0,0,0,12.28-2c6.91-1.84,13.73-5.59,15.89-12.87,1.45-4.87,1-10.3.66-15.3a137.06,137.06,0,0,0-2.08-16.27,1.27,1.27,0,0,0-1.21-.91l-15.42-1-24.62-1.62-5.72-.37c-1.61-.11-1.6,2.39,0,2.5l15.42,1,24.62,1.61,5.72.38-1.2-.92a134.58,134.58,0,0,1,1.83,13.41,77.94,77.94,0,0,1,.31,12.87,14.83,14.83,0,0,1-4.44,9.93,22.19,22.19,0,0,1-8.5,4.59A59.27,59.27,0,0,1,160.32,317a34.16,34.16,0,0,1-12.71-.38,17.81,17.81,0,0,1-8.67-5.05c-2.64-2.88-3.43-6.44-3.29-10.27.19-5,.85-10,1.3-15l1.4-15.59C138.49,269.1,136,269.11,135.85,270.7Z"/><path class="cls-1" d="M22.51,176.34c-1.71,2.49-19.25,28-20.27,30.72-1.92,5.15-.86,10,1.65,12.95s6.3,4.16,10.12,5c5.15,1.18,11.46,1.49,17-3.34,2.87-2.48,5-6,7-9.34a191.66,191.66,0,0,0,9.82-19.32"/><path class="cls-2" d="M21.43,175.71c-6.08,8.88-12.25,17.73-18,26.83A25.17,25.17,0,0,0,1,206.73c-1.71,4.39-1.39,9.85,1.55,13.65s8,5.34,12.57,6.18A20.3,20.3,0,0,0,28.47,225c5.44-2.87,8.67-8.47,11.61-13.64A193.08,193.08,0,0,0,49,193.68c.64-1.45-1.51-2.73-2.16-1.26q-3.32,7.54-7.26,14.77c-2.47,4.54-5,9.48-8.76,13.07a16,16,0,0,1-12.71,4.19c-4.18-.36-9.32-1.53-12.46-4.47-3.41-3.2-3.8-8.45-2.13-12.63-.19.46.11-.2.18-.33.16-.3.33-.59.5-.88.48-.82,1-1.62,1.49-2.42,3.12-4.94,6.41-9.78,9.68-14.63Q19.43,183,23.59,177c.91-1.34-1.26-2.59-2.16-1.27Z"/><path class="cls-1" d="M10.71,142.61c0,77.62,53.77,143.31,139.24,143.31s134.38-65.69,134.38-143.31S235.42,17.75,150,17.75,10.71,65,10.71,142.61Z"/><path class="cls-3" d="M170.09,4.86a88.48,88.48,0,0,0-6.32,11.7c-1.15,2.36-2.26,4.75-3.27,7.17a24.51,24.51,0,0,0-1.75,5.09c-.28,1.57,2.13,2.25,2.41.67a23.3,23.3,0,0,1,1.65-4.87c1-2.39,2.11-4.73,3.24-7.06a88.73,88.73,0,0,1,6.2-11.43c.92-1.33-1.25-2.58-2.16-1.27Z"/><path class="cls-3" d="M155.63,1.19c-1,9.23-1.79,18.47-2.78,27.69-.18,1.6,2.33,1.59,2.5,0,1-9.22,1.79-18.46,2.78-27.69.17-1.59-2.33-1.58-2.5,0Z"/><path class="cls-3" d="M148.93,28.87a14.65,14.65,0,0,0-.13-5.75,61.08,61.08,0,0,0-1.75-7.57,78.16,78.16,0,0,0-2.54-7.47,22.13,22.13,0,0,0-2.6-5.19c-.95-1.27-3.12,0-2.15,1.26a20.23,20.23,0,0,1,2.33,4.59c.95,2.35,1.75,4.75,2.46,7.18a66.56,66.56,0,0,1,1.76,7.35,13.15,13.15,0,0,1,.21,4.94,1.25,1.25,0,0,0,2.41.66Z"/><path class="cls-1" d="M177.51,37.34c0-1.25-.25-13.09.08-14.26a5.4,5.4,0,0,1,3.76-3.94A7.62,7.62,0,0,1,186,20a7.63,7.63,0,0,1,4.89,5.33,15.28,15.28,0,0,1,0,4.87,78.85,78.85,0,0,1-1.49,8.91"/><path class="cls-2" d="M178.76,37.34c.11-4-.14-8-.06-12,0-.39,0-.79,0-1.18l0-.51c0-.17.08-.44,0-.12a4.38,4.38,0,0,1,2.4-3c1.69-.7,3.8.24,5.29,1.06a6.22,6.22,0,0,1,3,3.14c.8,2.06.4,4.46.14,6.58q-.48,3.76-1.32,7.45c-.35,1.57,2.06,2.24,2.41.67.55-2.44,1-4.89,1.31-7.36a20.12,20.12,0,0,0,.14-7.09c-.86-3.82-4.55-6.32-8.23-7a6.39,6.39,0,0,0-7.57,5.52,62.93,62.93,0,0,0-.09,6.73c0,2.38.14,4.78.07,7.16,0,1.61,2.45,1.61,2.5,0Z"/><path class="cls-1" d="M115.51,32.34c-.05-1.25.08-14.14-.25-15.31a5.4,5.4,0,0,0-3.76-3.94,7.62,7.62,0,0,0-4.64.82A7.63,7.63,0,0,0,102,19.24a15.28,15.28,0,0,0,0,4.87A79.23,79.23,0,0,0,103.42,33"/><path class="cls-2" d="M116.76,32.34c-.15-4.65.1-9.31-.12-14-.14-2.85-1.76-5.7-4.7-6.45-2.23-.58-4.61.29-6.58,1.32a8.88,8.88,0,0,0-3.9,3.77c-1.2,2.41-1,5.08-.71,7.67a84.78,84.78,0,0,0,1.46,8.67c.36,1.57,2.77.91,2.42-.66-.5-2.2-.91-4.42-1.21-6.65a18.78,18.78,0,0,1-.24-6.47,5.9,5.9,0,0,1,2.79-3.8c1.49-.92,3.65-1.94,5.42-1.41a4.26,4.26,0,0,1,2.68,3.09c0,.06,0-.31,0,0l0,.45c0,.41,0,.82.06,1.22.07,2.4.07,4.81.08,7.21,0,2-.06,4,0,6,0,1.61,2.55,1.62,2.5,0Z"/><ellipse class="cls-4" cx="241.5" cy="107.21" rx="37.42" ry="47.09" transform="translate(-2.99 7) rotate(-1.65)"/><ellipse class="cls-5" cx="236.64" cy="114.83" rx="24.37" ry="30.67" transform="translate(-3.21 6.86) rotate(-1.65)"/><ellipse class="cls-6" cx="236.68" cy="115.38" rx="19.04" ry="23.97" transform="translate(-3.22 6.86) rotate(-1.65)"/><path class="cls-3" d="M198.62,113.39a173.4,173.4,0,0,0-24.16,4.2c-3.12.78-1.8,5.6,1.33,4.82a165,165,0,0,1,22.83-4,2.57,2.57,0,0,0,2.5-2.5,2.51,2.51,0,0,0-2.5-2.5Z"/><path class="cls-2" d="M106.82,231.19c.91,1,2.41,2.4,2.58,3.83s-1.47,2.73-2.19,3.72a36.85,36.85,0,0,0-2.83,4.86,20.14,20.14,0,0,0-2,5.29c-1.42,7.38,2.8,14.44,7,20.09.95,1.27,3.12,0,2.16-1.27-4.44-5.9-9-13.5-5.9-21a42.15,42.15,0,0,1,2.87-5.39c.8-1.37,2-2.52,2.71-3.9,1.68-3-.7-5.75-2.68-8-1.07-1.2-2.84.58-1.77,1.77Z"/><path class="cls-3" d="M226.93,213.38c2.42,1.23,5.22,1.66,7.84,2.29,2.26.55,4.43,1.41,6.71,1.89a58.14,58.14,0,0,0,10.61,1.19,20.31,20.31,0,0,0,10-2.05,28.44,28.44,0,0,0,6.21-4.59c2.39-2.17-1.15-5.69-3.53-3.53a20,20,0,0,1-6.12,4.24c-3.73,1.52-8.07,1-12,.55a53.26,53.26,0,0,1-8.37-2c-1.7-.47-3.42-.85-5.14-1.26-.74-.18-1.48-.36-2.21-.57l-1.06-.34-.45-.17q.39.17,0,0c-2.87-1.45-5.4,2.86-2.52,4.31Z"/><path class="cls-2" d="M112.55,237q.53-.47,1.08-.9l.27-.21s.18-.15,0,0,0,0,0,0l.58-.44c.76-.55,1.54-1.08,2.34-1.57a1.25,1.25,0,0,0-1.26-2.16,37.19,37.19,0,0,0-4.87,3.58,1.26,1.26,0,0,0,0,1.77,1.28,1.28,0,0,0,1.77,0Z"/><path class="cls-1" d="M177.05,204.54c.16,3,4.79,32.33,5.64,35.11,1.6,5.26,5.41,8.5,9.18,9.28s7.52-.52,11.09-2.15c4.81-2.19,10-5.78,11.49-13,.77-3.72.39-7.8-.11-11.69a191,191,0,0,0-3.94-21.3"/><path class="cls-2" d="M175.8,204.54c.26,4.52,1.21,9.08,1.91,13.56.94,6.09,1.9,12.18,3,18.24a24.7,24.7,0,0,0,1.52,5.68c1.68,3.81,5,7.15,9.14,8.09,5,1.11,10.21-1,14.49-3.4a19.47,19.47,0,0,0,8.39-8.48c2.66-5.64,1.9-11.94,1.09-17.91a194.09,194.09,0,0,0-3.76-19.86c-.38-1.56-2.79-.9-2.41.67q2,8.18,3.27,16.5c.81,5.23,1.91,11,.7,16.22a15.76,15.76,0,0,1-6.82,9.65c-3.57,2.39-8.3,4.61-12.66,4.4s-7.81-3.48-9.38-7.4a25.61,25.61,0,0,1-1.15-4.74c-1-5.56-1.91-11.15-2.78-16.74-.75-4.79-1.79-9.67-2.07-14.48-.1-1.6-2.6-1.61-2.5,0Z"/><path class="cls-7" d="M278.45,160.15,216,171.4c-7.2,1.3-14-5.06-15.13-14.13L191.1,78.55c-1.13-9.06,3.84-17.54,11-18.84l62.45-11.25c7.19-1.3,14,5.06,15.12,14.13l9.78,78.72C290.61,150.37,285.65,158.85,278.45,160.15Z"/><g class="cls-8"><path class="cls-9" d="M231.74,119.2A318.8,318.8,0,0,1,249,87.33c1.69-2.74-2.63-5.26-4.32-2.52a320.69,320.69,0,0,0-17.23,31.86,2.57,2.57,0,0,0,.9,3.42,2.52,2.52,0,0,0,3.42-.89Z"/></g><g class="cls-8"><path class="cls-9" d="M243.64,128.85c.24-.6.48-1.21.73-1.81.12-.31.25-.61.38-.92s.13-.31,0-.1l.2-.47c.52-1.21,1.06-2.42,1.62-3.62a60,60,0,0,1,3.62-6.75,2.52,2.52,0,0,0-.9-3.42,2.56,2.56,0,0,0-3.42.9,90.44,90.44,0,0,0-7.1,14.86,2.52,2.52,0,0,0,1.75,3.08,2.58,2.58,0,0,0,3.08-1.75Z"/></g></g></g></svg>