<svg xmlns="http://www.w3.org/2000/svg" xmlns:xlink="http://www.w3.org/1999/xlink" viewBox="0 0 286.86 314.54"><defs><style>.cls-1{fill:url(#radial-gradient);}.cls-2{fill:#bcdff5;}.cls-3,.cls-7{fill:#231f20;}.cls-4{fill:#00729e;}.cls-5{fill:#fff;stroke:#fff;}.cls-5,.cls-7,.cls-8{stroke-miterlimit:10;}.cls-6{fill:#2e76bb;}.cls-7,.cls-8{stroke:#231f20;}.cls-8{fill:#9cd9e5;fill-opacity:0.43;stroke-width:8px;}.cls-9{opacity:0.75;}.cls-10{fill:#bde4ed;}</style><radialGradient id="radial-gradient" cx="163.52" cy="150.08" r="136.45" gradientTransform="translate(-30.04 9.98) scale(1.04 0.95)" gradientUnits="userSpaceOnUse"><stop offset="0" stop-color="#a7dbda"/><stop offset="0.78" stop-color="#bcdff5"/></radialGradient></defs><title>0-stressed-1</title><g id="Layer_2" data-name="Layer 2"><g id="Layer_1-2" data-name="Layer 1"><path class="cls-1" d="M277.33,142.61c0,77.62-53.76,143.31-139.24,143.31S3.71,220.23,3.71,142.61,52.62,17.75,138.09,17.75,277.33,65,277.33,142.61Z"/><path class="cls-2" d="M62.79,258.59,50.65,283.07c-1.34,2.71-2.7,5.48-3,8.48-.59,5.66,2.79,11.17,7.38,14.53s10.23,4.92,15.8,6.07c7.5,1.56,16.23,2.18,21.91-2.95,2.93-2.65,4.53-6.42,5.88-10.12A131.14,131.14,0,0,0,104.36,278Z"/><path class="cls-2" d="M61.72,258c-4.39,8.84-9,17.6-13.14,26.53-1.78,3.82-2.85,7.78-1.8,12A19.15,19.15,0,0,0,52.91,306c6.15,5.28,15,7.28,22.83,8.22,7.52.9,15.51-.27,20.21-6.81,2.82-3.92,4.27-8.87,5.71-13.41a134.53,134.53,0,0,0,3.91-15.71,1.28,1.28,0,0,0-.57-1.41l-14-6.53L68.62,259.93l-5.19-2.42c-1.45-.68-2.72,1.47-1.27,2.15l14,6.53,22.37,10.43,5.19,2.42-.57-1.42q-1.2,6.45-3,12.75A85.65,85.65,0,0,1,96,302.25c-1.55,3.38-3.7,6.34-7.08,8A20.52,20.52,0,0,1,78.83,312,56.39,56.39,0,0,1,68,310.25a36.92,36.92,0,0,1-11-4.29,18.22,18.22,0,0,1-7.18-8.16c-1.59-3.76-1.12-7.55.49-11.23,2-4.52,4.36-8.9,6.56-13.33l6.95-14C64.59,257.78,62.43,256.51,61.72,258Z"/><path class="cls-2" d="M151.05,263.43l-5.27,26.83c-.58,3-1.16,6-.67,9,.93,5.61,5.63,10,10.95,12.07s11.16,2.05,16.84,1.7c7.64-.48,16.23-2.17,20.36-8.63,2.12-3.32,2.68-7.38,3-11.31a131.15,131.15,0,0,0,0-21.89Z"/><path class="cls-2" d="M149.84,263.1,146.92,278c-.95,4.83-2,9.67-2.82,14.53-.69,4.18-.56,8.3,1.68,12a19.24,19.24,0,0,0,8,7.12c7.43,3.65,16.7,3.24,24.68,2,7.1-1.09,14.28-4.13,17.2-11.18,1.86-4.51,2-9.71,2.21-14.52a132.53,132.53,0,0,0-.34-16.79,1.26,1.26,0,0,0-.92-1.2l-15.23-2.61L157,263.2l-5.65-1c-1.57-.27-2.25,2.14-.66,2.41L166,267.25l24.32,4.16,5.65,1-.92-1.21a131.87,131.87,0,0,1,.44,13.63,76,76,0,0,1-1,12.78,15.15,15.15,0,0,1-5,9.24,21.42,21.42,0,0,1-9,3.93A55.74,55.74,0,0,1,170,311.89a36.51,36.51,0,0,1-12.31-1.35,18.12,18.12,0,0,1-8.67-5.77,13.43,13.43,0,0,1-2.63-10.58c.65-5.05,1.9-10.07,2.88-15.06l3-15.36C152.56,262.2,150.15,261.52,149.84,263.1Z"/><path class="cls-3" d="M115.79,6.13A86.35,86.35,0,0,1,122,17.56c1.12,2.29,2.21,4.6,3.19,7a23.61,23.61,0,0,1,1.7,5c.28,1.58,2.69.91,2.41-.67a24.48,24.48,0,0,0-1.74-5.09c-1-2.42-2.12-4.81-3.27-7.17A88.54,88.54,0,0,0,118,4.86c-.91-1.31-3.08-.06-2.16,1.27Z"/><path class="cls-3" d="M129.92,1.19c1,9.23,1.79,18.47,2.78,27.69.17,1.58,2.67,1.6,2.5,0-1-9.22-1.79-18.46-2.78-27.69-.17-1.58-2.67-1.6-2.5,0Z"/><path class="cls-3" d="M141.52,28.21a12.94,12.94,0,0,1,.22-4.94,64.34,64.34,0,0,1,1.75-7.35c.71-2.43,1.52-4.83,2.46-7.18a19.87,19.87,0,0,1,2.34-4.59c1-1.29-1.21-2.54-2.16-1.26a22.48,22.48,0,0,0-2.59,5.19A78.16,78.16,0,0,0,141,15.55a63,63,0,0,0-1.76,7.57,14.65,14.65,0,0,0-.13,5.75,1.25,1.25,0,0,0,2.41-.66Z"/><path class="cls-2" d="M27.5,207.21,10.26,228.42a37.92,37.92,0,0,0-5.08,7.38c-2.34,5-1.69,9.94.58,13s5.93,4.65,9.67,5.84c5,1.6,11.3,2.42,17.24-1.93,3.06-2.24,5.52-5.52,7.76-8.74A192.27,192.27,0,0,0,51.8,225.57Z"/><path class="cls-2" d="M26.61,206.32,10.16,226.57c-2.48,3.06-5.12,6.1-6.58,9.81a14.6,14.6,0,0,0-.16,10.76c2.47,6.07,9.82,8.8,15.85,9.77a19,19,0,0,0,9.83-.79A22.14,22.14,0,0,0,38,249.31a109.55,109.55,0,0,0,7.7-11q3.81-5.94,7.15-12.15a1.3,1.3,0,0,0-.44-1.71L31.17,208.43l-3-2.3c-1.29-1-2.53,1.2-1.27,2.15l21.26,16.07,3,2.3-.44-1.71A188.56,188.56,0,0,1,38.85,244.1a31,31,0,0,1-7.2,7.86,15.4,15.4,0,0,1-9.08,2.77,26.67,26.67,0,0,1-8.66-1.88c-2.85-1-5.8-2.56-7.46-5.22a11.58,11.58,0,0,1-.79-9.69c1.14-3.42,3.56-6.26,5.8-9l16.92-20.83C29.38,206.85,27.63,205.07,26.61,206.32Z"/><path class="cls-2" d="M257.9,210.73l15.44,22.56a37.85,37.85,0,0,1,4.46,7.77c1.92,5.15.87,10-1.65,12.95s-6.29,4.16-10.12,5c-5.15,1.18-11.45,1.49-17-3.34-2.86-2.48-5-6-7-9.34a191.57,191.57,0,0,1-9.81-19.32Z"/><path class="cls-2" d="M256.82,211.37l13.75,20.09c3.8,5.55,9.09,12.17,6.14,19.28-1.22,2.94-3.85,4.79-6.74,5.87a29.84,29.84,0,0,1-8.69,1.89,16,16,0,0,1-8.8-1.86,22,22,0,0,1-7.35-7.52,158.55,158.55,0,0,1-11.88-22.7l-.44,1.71,22.49-14.27,3.23-2.05c1.35-.86.1-3-1.27-2.16l-22.49,14.28-3.23,2a1.29,1.29,0,0,0-.44,1.71,167.22,167.22,0,0,0,11.4,21.95A27.65,27.65,0,0,0,250,258a17.87,17.87,0,0,0,9.53,3,30.53,30.53,0,0,0,9.43-1.44c3.23-1,6.42-2.49,8.53-5.21a13.31,13.31,0,0,0,2.53-9.22c-.33-3.93-2.15-7.38-4.29-10.62-5.44-8.23-11.14-16.3-16.71-24.44C258.07,208.78,255.9,210,256.82,211.37Z"/><path class="cls-2" d="M88.28,35.18l-.4-11.39a15.19,15.19,0,0,0-.43-3.71,5.4,5.4,0,0,0-3.76-3.94,7.63,7.63,0,0,0-4.64.82,7.6,7.6,0,0,0-4.88,5.33,15,15,0,0,0,0,4.87,81.15,81.15,0,0,0,1.48,8.91Z"/><path class="cls-2" d="M89.53,35.18c-.14-3.91-.26-7.82-.41-11.73-.12-3-.74-6.25-3.58-7.9s-6.25-.4-8.75,1.18A8.7,8.7,0,0,0,72.71,24a35.12,35.12,0,0,0,.54,6.14q.45,3.17,1.16,6.28a1.24,1.24,0,0,0,1.2.91l12.67-.89c1.6-.11,1.61-2.61,0-2.5l-12.67.89,1.21.92q-.66-2.93-1.1-5.9A31,31,0,0,1,75.21,24c.13-3.34,2.41-5.29,5.4-6.31,1.52-.51,3.1-.63,4.33.53a6.43,6.43,0,0,1,1.65,4.55c.23,4.13.3,8.28.44,12.42C87.09,36.79,89.59,36.79,89.53,35.18Z"/><path class="cls-4" d="M86.23,36.51l-.3-8.42a11.74,11.74,0,0,0-.31-2.74,3.91,3.91,0,0,0-2.7-2.91,5.33,5.33,0,0,0-3.33.6A5.53,5.53,0,0,0,76.09,27a11.73,11.73,0,0,0,0,3.6,59.56,59.56,0,0,0,1.08,6.59Z"/><path class="cls-4" d="M87.48,36.51c-.1-2.89-.19-5.78-.31-8.67-.09-2.34-.57-4.82-2.75-6.12s-4.74-.36-6.63.86a6.8,6.8,0,0,0-3.1,5.65,26.54,26.54,0,0,0,.41,4.62c.22,1.56.5,3.1.83,4.64a1.28,1.28,0,0,0,1.21.92l9.09-.65c1.6-.12,1.61-2.62,0-2.5l-9.09.65,1.2.91a35.18,35.18,0,0,1-1.15-8.59c.09-2.27,1.57-3.63,3.62-4.34a2.5,2.5,0,0,1,2.76.31,4.47,4.47,0,0,1,1.08,3.13c.17,3.05.22,6.12.33,9.18C85,38.11,87.54,38.12,87.48,36.51Z"/><path class="cls-2" d="M182,37.13l.41-11.39a15.63,15.63,0,0,1,.42-3.71,5.41,5.41,0,0,1,3.76-3.94,7.61,7.61,0,0,1,4.64.82c2,.88,4.22,2.33,4.89,5.33a15.28,15.28,0,0,1,0,4.87A79.23,79.23,0,0,1,194.62,38Z"/><path class="cls-2" d="M183.2,37.13c.15-4.14.22-8.29.45-12.42a6.42,6.42,0,0,1,1.64-4.55c1.24-1.16,2.82-1,4.33-.53,3,1,5.27,3,5.41,6.31a31.89,31.89,0,0,1-.51,5.85q-.44,3-1.1,5.9l1.2-.92L182,35.88c-1.6-.11-1.59,2.39,0,2.5l12.67.89a1.25,1.25,0,0,0,1.21-.92,66.89,66.89,0,0,0,1.68-11c.16-3.12-.67-6.09-3.21-8.06-2.25-1.76-5.82-3.27-8.65-2.23s-4.2,4-4.45,7c-.38,4.34-.34,8.76-.5,13.11C180.65,38.74,183.15,38.74,183.2,37.13Z"/><path class="cls-4" d="M184,38.46,184.3,30a12.3,12.3,0,0,1,.31-2.74,3.94,3.94,0,0,1,2.7-2.91,5.17,5.17,0,0,1,3.33.6,5.54,5.54,0,0,1,3.51,3.93,11.73,11.73,0,0,1,0,3.6,61.39,61.39,0,0,1-1.07,6.58Z"/><path class="cls-4" d="M185.26,38.46c.1-3.06.15-6.13.32-9.18a4.52,4.52,0,0,1,1.08-3.13,2.5,2.5,0,0,1,2.77-.31c2,.71,3.53,2.07,3.62,4.34a35.19,35.19,0,0,1-1.16,8.59l1.21-.92L184,37.21c-1.61-.12-1.6,2.38,0,2.5l9.09.64a1.24,1.24,0,0,0,1.2-.91,50.81,50.81,0,0,0,1.23-8.22,7.11,7.11,0,0,0-2.38-6.17c-1.71-1.38-4.4-2.54-6.57-1.74s-3.27,3.17-3.46,5.46c-.28,3.21-.25,6.47-.36,9.69C182.7,40.06,185.2,40.06,185.26,38.46Z"/><circle class="cls-5" cx="83.43" cy="129.72" r="47.11"/><circle class="cls-6" cx="73.48" cy="118.42" r="30.68"/><circle class="cls-7" cx="73.48" cy="118.97" r="23.98"/><path class="cls-2" d="M35.59,116.2C33,100,50.66,83.81,75,80s46.07,6.14,48.63,22.3"/><circle class="cls-5" cx="203.43" cy="132.78" r="47.11"/><circle class="cls-6" cx="195.43" cy="119.1" r="30.68"/><circle class="cls-7" cx="195.43" cy="119.65" r="23.98"/><path class="cls-2" d="M162.37,103.44c2.56-16.17,24.33-26.15,48.63-22.3s41.92,20.07,39.36,36.23"/><path class="cls-3" d="M139.05,139.27a8.47,8.47,0,0,1,1.5-.69c-.19,0-.32.13-.05,0l.37-.14a7.58,7.58,0,0,1,.77-.24,7.84,7.84,0,0,1,.81-.18c-.23,0-.28,0,0,0h.4c.08,0,.29.06.36,0-.09,0-.52-.07-.14,0l1.35.18h.09c-.4,0,0,0,.07,0l.68.14a13.56,13.56,0,0,1,1.41.44l.14,0c-.32-.13.07,0,.13.06.22.1.43.21.64.33s.39.25.59.36-.32-.31-.12-.1l.29.26a2.5,2.5,0,0,0,3.53-3.54,12.74,12.74,0,0,0-7.26-3c-.07,0-.5-.06-.16,0s-.16,0-.23,0c-.43-.06-.85-.14-1.28-.16a8.89,8.89,0,0,0-2.41.29,22.51,22.51,0,0,0-4,1.61,2.5,2.5,0,0,0-.89,3.42,2.57,2.57,0,0,0,3.42.89Z"/><path class="cls-3" d="M267.13,138.57a169.07,169.07,0,0,1,18.5-14.6,2.56,2.56,0,0,0,.89-3.42,2.53,2.53,0,0,0-3.42-.9A177.49,177.49,0,0,0,263.6,135a2.5,2.5,0,1,0,3.53,3.53Z"/><path class="cls-3" d="M23.26,131a178.6,178.6,0,0,0-19.5-15.38,2.52,2.52,0,0,0-3.42.9,2.56,2.56,0,0,0,.89,3.42,169.07,169.07,0,0,1,18.5,14.6A2.5,2.5,0,0,0,23.26,131Z"/><rect class="cls-8" x="20.38" y="82.32" width="112.88" height="112.88" rx="16.66" transform="matrix(1, 0.04, -0.04, 1, 5.73, -3.02)"/><g class="cls-9"><path class="cls-10" d="M63.77,145.93a312.8,312.8,0,0,1,27.54-27.32,2.5,2.5,0,0,0-3.53-3.54A311.55,311.55,0,0,0,60.24,142.4c-2.13,2.39,1.39,5.94,3.53,3.53Z"/></g><g class="cls-9"><path class="cls-10" d="M76.18,158.66a82.55,82.55,0,0,1,11.26-12.43,2.52,2.52,0,0,0,0-3.54,2.57,2.57,0,0,0-3.54,0,82,82,0,0,0-11.25,12.44,2.69,2.69,0,0,0-.74,1.76,2.54,2.54,0,0,0,.74,1.77c.89.82,2.68,1.11,3.53,0Z"/></g><rect class="cls-8" x="151.2" y="85.06" width="112.88" height="112.88" rx="16.66" transform="translate(4.11 -5.84) rotate(1.63)"/><g class="cls-9"><path class="cls-10" d="M194.66,148.85a308.74,308.74,0,0,1,27.2-27.66c2.39-2.16-1.15-5.68-3.54-3.54a311.56,311.56,0,0,0-27.2,27.67,2.56,2.56,0,0,0,0,3.53,2.52,2.52,0,0,0,3.54,0Z"/></g><g class="cls-9"><path class="cls-10" d="M207.62,160.92c.21-.29.42-.57.64-.85l.26-.34.21-.27.21-.27.27-.35.63-.79q1.33-1.68,2.75-3.32a60.12,60.12,0,0,1,5.74-5.88,2.51,2.51,0,0,0,0-3.53,2.55,2.55,0,0,0-3.54,0,84.58,84.58,0,0,0-11.49,13.07,2.51,2.51,0,0,0,.9,3.42,2.57,2.57,0,0,0,3.42-.89Z"/></g><path class="cls-3" d="M126.21,247.69c.09-.21.56-.8.14-.3a10.59,10.59,0,0,1,.79-.85,14.44,14.44,0,0,1,2.19-1.76,15.28,15.28,0,0,1,7-2.75c4.62-.41,9.69,2.62,11.77,6.43,1.55,2.82,5.87.3,4.32-2.53-3-5.44-9.89-9.38-16.09-8.9a20.07,20.07,0,0,0-9.38,3.34c-1.73,1.14-4.18,2.79-5,4.79a2.59,2.59,0,0,0,.9,3.42,2.52,2.52,0,0,0,3.42-.89Z"/></g></g></svg>