<svg xmlns="http://www.w3.org/2000/svg" xmlns:xlink="http://www.w3.org/1999/xlink" viewBox="0 0 286.86 314.54"><defs><style>.cls-1{fill:url(#radial-gradient);}.cls-2{fill:#bcdff5;}.cls-3,.cls-8{fill:#231f20;}.cls-4{fill:#00729e;}.cls-5{fill:#6ecbd8;}.cls-6{fill:#fff;stroke:#fff;}.cls-6,.cls-8,.cls-9{stroke-miterlimit:10;}.cls-7{fill:#2e76bb;}.cls-8,.cls-9{stroke:#231f20;}.cls-9{fill:#9cd9e5;fill-opacity:0.43;stroke-width:8px;}.cls-10{opacity:0.75;}.cls-11{fill:#bde4ed;}</style><radialGradient id="radial-gradient" cx="165.19" cy="175.67" r="136.45" gradientTransform="translate(-29.82 -14.25) scale(1.04 0.95)" gradientUnits="userSpaceOnUse"><stop offset="0" stop-color="#a7dbda"/><stop offset="0.78" stop-color="#bcdff5"/></radialGradient></defs><title>0-verystressed-1</title><g id="Layer_2" data-name="Layer 2"><g id="Layer_1-2" data-name="Layer 1"><path class="cls-1" d="M279.29,142.61c0,77.62-53.76,143.31-139.24,143.31S5.67,220.23,5.67,142.61,54.58,17.75,140.05,17.75,279.29,65,279.29,142.61Z"/><path class="cls-2" d="M64.75,258.59,52.61,283.07c-1.34,2.71-2.7,5.48-3,8.48-.59,5.66,2.79,11.17,7.38,14.53s10.23,4.92,15.8,6.07c7.5,1.56,16.23,2.18,21.91-2.95,2.93-2.65,4.53-6.42,5.88-10.12A131.14,131.14,0,0,0,106.32,278Z"/><path class="cls-2" d="M63.67,258c-4.38,8.84-9,17.6-13.13,26.53-1.78,3.82-2.85,7.78-1.8,12A19.15,19.15,0,0,0,54.87,306c6.15,5.28,15,7.28,22.83,8.22,7.52.9,15.51-.27,20.21-6.81,2.81-3.92,4.27-8.87,5.71-13.41a134.53,134.53,0,0,0,3.91-15.71,1.27,1.27,0,0,0-.58-1.41l-14-6.53L70.58,259.93l-5.2-2.42c-1.44-.68-2.72,1.47-1.26,2.15l14,6.53,22.37,10.43,5.19,2.42-.57-1.42q-1.2,6.45-3,12.75A85.65,85.65,0,0,1,98,302.25c-1.55,3.38-3.7,6.34-7.08,8A20.54,20.54,0,0,1,80.79,312,56.39,56.39,0,0,1,70,310.25,36.81,36.81,0,0,1,59,306a18.22,18.22,0,0,1-7.18-8.16c-1.59-3.76-1.12-7.55.49-11.23,2-4.52,4.36-8.9,6.56-13.33l6.95-14C66.55,257.78,64.39,256.51,63.67,258Z"/><path class="cls-2" d="M153,263.43l-5.27,26.83c-.58,3-1.16,6-.67,9,.93,5.61,5.63,10,10.94,12.07s11.17,2.05,16.85,1.7c7.64-.48,16.23-2.17,20.36-8.63,2.12-3.32,2.68-7.38,3-11.31a131.15,131.15,0,0,0,0-21.89Z"/><path class="cls-2" d="M151.8,263.1,148.88,278c-.95,4.83-2,9.67-2.82,14.53-.69,4.18-.56,8.3,1.68,12a19.18,19.18,0,0,0,8,7.12c7.43,3.65,16.7,3.24,24.68,2,7.1-1.09,14.28-4.13,17.2-11.18,1.86-4.51,2-9.71,2.21-14.52a132.53,132.53,0,0,0-.34-16.79,1.26,1.26,0,0,0-.92-1.2l-15.23-2.61L159,263.2l-5.65-1c-1.57-.27-2.25,2.14-.66,2.41l15.23,2.61,24.32,4.16,5.65,1-.92-1.21a131.87,131.87,0,0,1,.44,13.63,76,76,0,0,1-1,12.78,15.15,15.15,0,0,1-5,9.24,21.42,21.42,0,0,1-9,3.93,55.74,55.74,0,0,1-10.47,1.14,36.6,36.6,0,0,1-12.32-1.35,18.21,18.21,0,0,1-8.67-5.77,13.46,13.46,0,0,1-2.62-10.58c.65-5.05,1.9-10.07,2.88-15.06l3-15.36C154.52,262.2,152.11,261.52,151.8,263.1Z"/><path class="cls-3" d="M117.75,6.13A86.35,86.35,0,0,1,124,17.56c1.12,2.29,2.21,4.6,3.19,7a23.61,23.61,0,0,1,1.7,5c.28,1.58,2.69.91,2.41-.67a23.94,23.94,0,0,0-1.75-5.09c-1-2.42-2.12-4.81-3.26-7.17a88.54,88.54,0,0,0-6.33-11.7c-.91-1.31-3.08-.06-2.16,1.27Z"/><path class="cls-3" d="M131.88,1.19c1,9.23,1.79,18.47,2.78,27.69.17,1.58,2.67,1.6,2.5,0-1-9.22-1.79-18.46-2.78-27.69-.17-1.58-2.68-1.6-2.5,0Z"/><path class="cls-3" d="M143.48,28.21a12.94,12.94,0,0,1,.22-4.94,64.34,64.34,0,0,1,1.75-7.35c.71-2.43,1.52-4.83,2.46-7.18a19.87,19.87,0,0,1,2.34-4.59c1-1.29-1.21-2.54-2.16-1.26a22.48,22.48,0,0,0-2.59,5.19A78.16,78.16,0,0,0,143,15.55a61.11,61.11,0,0,0-1.76,7.57,14.65,14.65,0,0,0-.13,5.75,1.25,1.25,0,0,0,2.41-.66Z"/><path class="cls-2" d="M29.45,207.21,12.22,228.42a37.92,37.92,0,0,0-5.08,7.38c-2.34,5-1.69,9.94.58,13s5.93,4.65,9.67,5.84c5,1.6,11.3,2.42,17.24-1.93,3.06-2.24,5.52-5.52,7.76-8.74a190.18,190.18,0,0,0,11.36-18.45Z"/><path class="cls-2" d="M28.57,206.32,12.12,226.57c-2.48,3.06-5.12,6.1-6.58,9.81a14.6,14.6,0,0,0-.16,10.76c2.47,6.07,9.82,8.8,15.85,9.77a19,19,0,0,0,9.83-.79A22.14,22.14,0,0,0,40,249.31a109.55,109.55,0,0,0,7.7-11q3.8-5.94,7.15-12.15a1.3,1.3,0,0,0-.44-1.71L33.13,208.43l-3-2.3c-1.29-1-2.54,1.2-1.27,2.15l21.26,16.07,3,2.3-.44-1.71A188.56,188.56,0,0,1,40.81,244.1a31,31,0,0,1-7.2,7.86,15.42,15.42,0,0,1-9.08,2.77,26.67,26.67,0,0,1-8.66-1.88c-2.85-1-5.81-2.56-7.46-5.22a11.58,11.58,0,0,1-.79-9.69c1.14-3.42,3.56-6.26,5.8-9l16.92-20.83C31.34,206.85,29.59,205.07,28.57,206.32Z"/><path class="cls-2" d="M259.85,210.73l15.45,22.56a37.85,37.85,0,0,1,4.46,7.77c1.92,5.15.87,10-1.65,12.95s-6.29,4.16-10.12,5c-5.15,1.18-11.46,1.49-17-3.34-2.86-2.48-5.05-6-7-9.34a191.66,191.66,0,0,1-9.82-19.32Z"/><path class="cls-2" d="M258.78,211.37l13.75,20.09c3.8,5.55,9.09,12.17,6.14,19.28-1.22,2.94-3.85,4.79-6.75,5.87a29.71,29.71,0,0,1-8.68,1.89,16,16,0,0,1-8.8-1.86,22,22,0,0,1-7.35-7.52,158.55,158.55,0,0,1-11.88-22.7l-.44,1.71,22.49-14.27,3.23-2.05c1.35-.86.1-3-1.27-2.16l-22.49,14.28-3.23,2a1.28,1.28,0,0,0-.44,1.71,166,166,0,0,0,11.4,21.95,27.65,27.65,0,0,0,7.46,8.39,17.87,17.87,0,0,0,9.53,3,30.53,30.53,0,0,0,9.43-1.44c3.23-1,6.42-2.49,8.53-5.21a13.31,13.31,0,0,0,2.53-9.22c-.33-3.93-2.15-7.38-4.29-10.62-5.44-8.23-11.14-16.3-16.72-24.44C260,208.78,257.86,210,258.78,211.37Z"/><path class="cls-2" d="M90.24,35.18l-.4-11.39a15.69,15.69,0,0,0-.43-3.71,5.4,5.4,0,0,0-3.76-3.94A7.62,7.62,0,0,0,81,17a7.6,7.6,0,0,0-4.88,5.33,15,15,0,0,0,0,4.87,78.84,78.84,0,0,0,1.48,8.91Z"/><path class="cls-2" d="M91.49,35.18c-.14-3.91-.26-7.82-.41-11.73-.12-3-.75-6.25-3.58-7.9s-6.25-.4-8.75,1.18A8.7,8.7,0,0,0,74.67,24a34.18,34.18,0,0,0,.54,6.14q.45,3.17,1.16,6.28a1.24,1.24,0,0,0,1.2.91l12.67-.89c1.6-.11,1.61-2.61,0-2.5l-12.67.89,1.21.92q-.66-2.93-1.1-5.9A31,31,0,0,1,77.17,24c.13-3.34,2.41-5.29,5.4-6.31,1.52-.51,3.1-.63,4.33.53a6.43,6.43,0,0,1,1.65,4.55c.23,4.13.3,8.28.44,12.42C89.05,36.79,91.55,36.79,91.49,35.18Z"/><path class="cls-4" d="M88.19,36.51l-.3-8.42a11.74,11.74,0,0,0-.31-2.74,3.91,3.91,0,0,0-2.7-2.91,5.33,5.33,0,0,0-3.33.6A5.53,5.53,0,0,0,78.05,27a11.42,11.42,0,0,0,0,3.6,59.56,59.56,0,0,0,1.08,6.59Z"/><path class="cls-4" d="M89.44,36.51c-.1-2.89-.19-5.78-.31-8.67C89,25.5,88.56,23,86.38,21.72s-4.74-.36-6.63.86a6.8,6.8,0,0,0-3.1,5.65,26.54,26.54,0,0,0,.41,4.62c.22,1.56.5,3.1.83,4.64a1.28,1.28,0,0,0,1.21.92l9.09-.65c1.6-.12,1.61-2.62,0-2.5l-9.09.65,1.2.91a35.18,35.18,0,0,1-1.15-8.59c.09-2.27,1.57-3.63,3.62-4.34a2.5,2.5,0,0,1,2.76.31,4.47,4.47,0,0,1,1.08,3.13c.17,3.05.22,6.12.33,9.18C87,38.11,89.5,38.12,89.44,36.51Z"/><path class="cls-2" d="M183.91,37.13l.41-11.39a15.63,15.63,0,0,1,.42-3.71,5.41,5.41,0,0,1,3.76-3.94,7.61,7.61,0,0,1,4.64.82c2,.88,4.22,2.33,4.89,5.33a15.28,15.28,0,0,1,0,4.87A79.23,79.23,0,0,1,196.58,38Z"/><path class="cls-2" d="M185.16,37.13c.15-4.14.22-8.29.45-12.42a6.42,6.42,0,0,1,1.64-4.55c1.24-1.16,2.81-1,4.33-.53,3,1,5.27,3,5.41,6.31a31.89,31.89,0,0,1-.51,5.85c-.29,2-.67,4-1.1,5.9l1.2-.92-12.67-.89c-1.6-.11-1.6,2.39,0,2.5l12.67.89a1.26,1.26,0,0,0,1.21-.92,66.89,66.89,0,0,0,1.68-11c.16-3.12-.68-6.09-3.21-8.06-2.25-1.76-5.82-3.27-8.65-2.23s-4.2,4-4.45,7c-.38,4.34-.34,8.76-.5,13.11C182.61,38.74,185.11,38.74,185.16,37.13Z"/><path class="cls-4" d="M186,38.46l.3-8.42a11.74,11.74,0,0,1,.31-2.74,3.92,3.92,0,0,1,2.7-2.91,5.17,5.17,0,0,1,3.33.6,5.54,5.54,0,0,1,3.51,3.93,11.73,11.73,0,0,1,0,3.6,61.39,61.39,0,0,1-1.07,6.58Z"/><path class="cls-4" d="M187.21,38.46c.11-3.06.16-6.13.33-9.18a4.52,4.52,0,0,1,1.08-3.13,2.5,2.5,0,0,1,2.77-.31c2.05.71,3.53,2.07,3.61,4.34a34.71,34.71,0,0,1-1.15,8.59l1.21-.92-9.1-.64c-1.6-.12-1.59,2.38,0,2.5l9.1.64a1.24,1.24,0,0,0,1.2-.91,50.81,50.81,0,0,0,1.23-8.22,7.11,7.11,0,0,0-2.38-6.17c-1.71-1.38-4.4-2.54-6.57-1.74s-3.27,3.17-3.46,5.46c-.28,3.21-.25,6.47-.37,9.69C184.66,40.06,187.16,40.06,187.21,38.46Z"/><path class="cls-3" d="M125,246.1c.41-2.76,2.57-4.62,4.86-6a10.38,10.38,0,0,1,6.88-1.54,11.45,11.45,0,0,1,9.64,8.4c.71,3.14,5.53,1.81,4.82-1.33-1.52-6.71-7.8-11.38-14.46-12.07a15.35,15.35,0,0,0-9.56,2.32c-3.23,1.93-6.42,5-7,8.86a2.57,2.57,0,0,0,1.75,3.07A2.52,2.52,0,0,0,125,246.1Z"/><path class="cls-5" d="M199.48,57.36a2.38,2.38,0,0,0,.85,1.92,5.82,5.82,0,0,0,2.15,1.15A3.91,3.91,0,0,0,206.2,59a5.93,5.93,0,0,0,1.05-2.19,2.41,2.41,0,0,0-.46-2.06c-1.59-1.88-3.9-3-5.62-4.79A44.36,44.36,0,0,0,199.48,57.36Z"/><path class="cls-5" d="M198.23,57.36A4.3,4.3,0,0,0,201,61.19a4.87,4.87,0,0,0,4.84-.22,6,6,0,0,0,2.61-3.79,3.83,3.83,0,0,0-.36-2.7,7.58,7.58,0,0,0-1.69-1.84c-1.41-1.22-3-2.19-4.35-3.52a1.27,1.27,0,0,0-2.09.55,34.52,34.52,0,0,0-1.73,7.69,1.26,1.26,0,0,0,1.25,1.25,1.28,1.28,0,0,0,1.25-1.25c0-.16,0-.32,0-.47s0-.25,0-.07l0-.24c.06-.38.14-.76.22-1.14.16-.81.36-1.61.57-2.41s.49-1.8.77-2.69l-2.09.55A43.29,43.29,0,0,0,204.17,54a8,8,0,0,1,1.72,1.66,1.58,1.58,0,0,1,0,1.49,2.66,2.66,0,0,1-4.33,1.44,1.42,1.42,0,0,1-.78-1.25A1.25,1.25,0,0,0,198.23,57.36Z"/><path class="cls-5" d="M232.68,70.34a.47.47,0,0,0,.08.38,1,1,0,0,0,.33.29.72.72,0,0,0,.72-.09,1,1,0,0,0,.27-.35.42.42,0,0,0,0-.38c-.2-.4-.57-.7-.8-1.08A8.76,8.76,0,0,0,232.68,70.34Z"/><path class="cls-5" d="M231.48,70a1.77,1.77,0,0,0,.56,1.77,2.13,2.13,0,0,0,.81.47,2,2,0,0,0,1,0,1.83,1.83,0,0,0,.46-.18,1.91,1.91,0,0,0,.4-.28l.12-.13a2.66,2.66,0,0,0,.28-.38,1.75,1.75,0,0,0,.19-.42l0-.09a1.93,1.93,0,0,0,0-.42,1.82,1.82,0,0,0-.29-.94c-.22-.34-.51-.64-.75-1l.19.25a1.88,1.88,0,0,1-.16-.23,1.25,1.25,0,0,0-2.16,0c-.09.15-.17.31-.25.47a5.9,5.9,0,0,0-.47,1.06,1.31,1.31,0,0,0,.12,1,1.3,1.3,0,0,0,.75.57,1.27,1.27,0,0,0,1-.13,1.33,1.33,0,0,0,.57-.74l.09-.26-.12.3a9,9,0,0,1,.5-1H232.2a10.6,10.6,0,0,0,.78,1l-.2-.25a2.25,2.25,0,0,1,.24.36l-.13-.29a.24.24,0,0,1,0,.08l0-.33a.48.48,0,0,1,0,.12l0-.33,0,.12.12-.3a.79.79,0,0,1-.14.23l.2-.26a.86.86,0,0,1-.13.14l.25-.2a.87.87,0,0,1-.18.11l.29-.13a.48.48,0,0,1-.17,0l.33,0h-.19l.34,0a.6.6,0,0,1-.19-.06l.3.13-.12-.08.25.19a1.19,1.19,0,0,1-.2-.19l.2.26a.54.54,0,0,1-.07-.13l.12.3s0-.06,0-.09l0,.33V70.4l0,.34a.13.13,0,0,1,0-.06,1.32,1.32,0,0,0-.13-1,1.24,1.24,0,0,0-1.71-.44A1.25,1.25,0,0,0,231.48,70Z"/><path class="cls-5" d="M180.17,78.74a.44.44,0,0,0-.08.37,1,1,0,0,0,.18.4.72.72,0,0,0,.7.21,1.35,1.35,0,0,0,.39-.21.41.41,0,0,0,.15-.35c0-.44-.23-.86-.29-1.3A8,8,0,0,0,180.17,78.74Z"/><path class="cls-5" d="M179.29,77.85a2,2,0,0,0-.39.68,1.41,1.41,0,0,0-.07.5,2.25,2.25,0,0,0,.26.94.6.6,0,0,0,.09.15,2,2,0,0,0,.56.56,2.11,2.11,0,0,0,.43.2,1,1,0,0,0,.35.07,1.23,1.23,0,0,0,.33,0l.4,0,.1,0a2.31,2.31,0,0,0,.61-.3,2,2,0,0,0,.54-.54l.06-.08a2.5,2.5,0,0,0,.15-.38,1.74,1.74,0,0,0,0-.39.4.4,0,0,0,0-.11,5,5,0,0,0-.07-.54c-.07-.36-.21-.69-.26-1a1.33,1.33,0,0,0-.32-.55,1.36,1.36,0,0,0-.89-.36,1.19,1.19,0,0,0-.63.17l-.66.5a5.79,5.79,0,0,0-.64.57,1.45,1.45,0,0,0-.37.89,1.25,1.25,0,0,0,2.14.88,5.65,5.65,0,0,1,.73-.65l-.25.2.31-.23L180,78.19c0,.4.22.77.28,1.17l-.05-.33a.81.81,0,0,1,0,.22l0-.33a.31.31,0,0,1,0,.08l.13-.3a.75.75,0,0,1-.07.12l.19-.25-.07.07.25-.19a1.35,1.35,0,0,1-.26.15l.3-.13a.55.55,0,0,1-.17,0l.33,0h-.23l.33,0-.18,0,.3.13-.14-.09.25.2a.94.94,0,0,1-.1-.1l.2.25a.72.72,0,0,1-.12-.21l.13.3a.76.76,0,0,1-.06-.2l0,.33v-.14l0,.33,0-.1-.13.29.05-.07-.2.25,0,0a1,1,0,0,0,.26-.4,1,1,0,0,0,.1-.48,1.29,1.29,0,0,0-.36-.89,1.27,1.27,0,0,0-.89-.36l-.33,0A1.33,1.33,0,0,0,179.29,77.85Z"/><path class="cls-5" d="M81.81,71.22A2.42,2.42,0,0,1,81,73.14a5.93,5.93,0,0,1-2.14,1.15,3.94,3.94,0,0,1-3.73-1.39,6.07,6.07,0,0,1-1-2.19,2.41,2.41,0,0,1,.46-2.06c1.58-1.88,3.89-3,5.62-4.79A45.44,45.44,0,0,1,81.81,71.22Z"/><path class="cls-5" d="M80.56,71.22a1.44,1.44,0,0,1-.79,1.25A2.66,2.66,0,0,1,75.44,71a1.61,1.61,0,0,1,0-1.49,7.56,7.56,0,0,1,1.72-1.66A44.62,44.62,0,0,0,81,64.75l-2.09-.55c.28.89.54,1.79.77,2.69s.4,1.56.57,2.34c.08.38.15.76.21,1.15,0,.08,0,.16,0,.24s0-.17,0,.07,0,.35,0,.53a1.28,1.28,0,0,0,1.25,1.25,1.26,1.26,0,0,0,1.25-1.25,34,34,0,0,0-1.74-7.69A1.26,1.26,0,0,0,79.23,63a41.69,41.69,0,0,1-3.81,3.08c-1.32,1.06-2.76,2.34-2.69,4.18.13,3.26,3.57,6.33,6.85,5.12,1.8-.66,3.53-2.06,3.48-4.14A1.25,1.25,0,0,0,80.56,71.22Z"/><path class="cls-5" d="M67.72,48.34a1.12,1.12,0,0,1-.32.92,2.81,2.81,0,0,1-1,.61,1.82,1.82,0,0,1-1.76-.5,2.77,2.77,0,0,1-.56-1,1.12,1.12,0,0,1,.13-1c.66-.93,1.68-1.54,2.41-2.41A20.38,20.38,0,0,1,67.72,48.34Z"/><path class="cls-5" d="M66.47,48.34c0,.12,0,.42,0,0,0,.24.14-.2,0,0s-.06.09.06-.06a.94.94,0,0,1-.1.1,1.49,1.49,0,0,0-.14.12l.09-.07a.57.57,0,0,1-.13.08l-.18.11a.34.34,0,0,1-.12.06c.2-.08.25-.1.13-.06l-.15,0,.17,0a3,3,0,0,0-.3,0c.21,0,.25,0,.11,0h-.07l-.14-.05q.27.12.09,0l-.2-.11c-.11-.08-.09-.06.06.05l-.12-.1c-.15-.15,0,0,0,.06-.06-.15-.2-.3-.27-.46s.07.24,0,0l0-.13c0-.1,0-.1,0,0s0,.12,0,0,0-.11,0,.1c0-.23-.15.23,0,0s-.14.15,0,0l.18-.21.39-.39a20.15,20.15,0,0,0,1.64-1.56l-2.09-.55a14.91,14.91,0,0,1,1.05,3.32,1.26,1.26,0,0,0,.58.74,1.24,1.24,0,0,0,1,.13A1.31,1.31,0,0,0,68.8,49a1.42,1.42,0,0,0,.12-1,15.07,15.07,0,0,0-1-3.32,1.31,1.31,0,0,0-.87-.87,1.23,1.23,0,0,0-1.21.32,19.44,19.44,0,0,1-1.62,1.53,3.34,3.34,0,0,0-1.34,2.46,3.42,3.42,0,0,0,1.44,2.5,3,3,0,0,0,3,.27A2.74,2.74,0,0,0,69,48.34a1.37,1.37,0,0,0-.37-.88,1.24,1.24,0,0,0-2.13.88Z"/><path class="cls-5" d="M110.07,49.84a.72.72,0,0,1,.15.62,2,2,0,0,1-.31.67,1.18,1.18,0,0,1-1.16.34,1.73,1.73,0,0,1-.66-.34.75.75,0,0,1-.26-.58c0-.75.39-1.45.49-2.19A13.2,13.2,0,0,1,110.07,49.84Z"/><path class="cls-5" d="M109.19,50.72l0,0-.2-.25a.47.47,0,0,1,.07.12l-.12-.3a1.21,1.21,0,0,1,0,.18l0-.33a1.77,1.77,0,0,1,0,.23l0-.33a1.8,1.8,0,0,1-.1.33l.12-.3a1.55,1.55,0,0,1-.19.36l.2-.25a1.29,1.29,0,0,1-.17.16l.25-.2a1.09,1.09,0,0,1-.23.14l.3-.12a1.09,1.09,0,0,1-.31.08l.33,0h-.37l.33,0a.89.89,0,0,1-.29-.08l.29.13a2.67,2.67,0,0,1-.43-.25l.26.19-.13-.12.2.25a1.06,1.06,0,0,1-.12-.2l.12.29s0-.08,0-.13l0,.33a1.45,1.45,0,0,1,0-.36l0,.33c.09-.67.37-1.3.47-2l-1.84.75.52.39-.25-.19a8.42,8.42,0,0,1,1.23,1.08,1.24,1.24,0,0,0,1.77,0,1.22,1.22,0,0,0,.36-.88A1.39,1.39,0,0,0,111,49a8.23,8.23,0,0,0-1.08-1c-.3-.24-.61-.48-.93-.71a1.21,1.21,0,0,0-1.11-.06,1.19,1.19,0,0,0-.73.81c-.07.52-.26,1-.38,1.53a3.82,3.82,0,0,0-.15,1.06,2.07,2.07,0,0,0,.58,1.35,2.69,2.69,0,0,0,1.9.78,2.39,2.39,0,0,0,2-1.12,2.81,2.81,0,0,0,.37-1.05,2,2,0,0,0,0-.8A2.33,2.33,0,0,0,111,49a1.26,1.26,0,0,0-2.14.89l.05.33A1.18,1.18,0,0,0,109.19,50.72Z"/><path class="cls-5" d="M250.19,183.33a2.38,2.38,0,0,1,.58,2,5.88,5.88,0,0,1-.93,2.25,3.92,3.92,0,0,1-3.75,1.32,5.92,5.92,0,0,1-2.2-1,2.38,2.38,0,0,1-1-1.87c0-2.47,1.07-4.82,1.27-7.28A44,44,0,0,1,250.19,183.33Z"/><path class="cls-5" d="M249.31,184.21c.63.72-.1,2.3-.66,2.85a2.82,2.82,0,0,1-3.15.35,4.9,4.9,0,0,1-.88-.53c.15.12-.23-.24-.19-.18l-.16-.26a4.58,4.58,0,0,1,.11-2.28c.35-1.82.9-3.57,1.07-5.42l-1.88,1.08c.78.51,1.55,1,2.31,1.58s1.26.92,1.78,1.34a15.33,15.33,0,0,1,1.65,1.47c1.11,1.17,2.88-.6,1.77-1.77a25.66,25.66,0,0,0-3.84-3.12c-.79-.57-1.59-1.13-2.41-1.66a1.27,1.27,0,0,0-1.88,1.08c-.16,1.71-.74,3.34-1,5s-.48,3.73,1.08,5a6,6,0,0,0,4.31,1.42,4.91,4.91,0,0,0,3.92-2.44c.91-1.71,1.21-3.74-.15-5.31a1.27,1.27,0,0,0-1.77,0A1.29,1.29,0,0,0,249.31,184.21Z"/><path class="cls-5" d="M30.26,135.56a2.43,2.43,0,0,1-.76,2,6.05,6.05,0,0,1-2.1,1.24,3.91,3.91,0,0,1-3.78-1.21,5.92,5.92,0,0,1-1.15-2.14,2.41,2.41,0,0,1,.37-2.08c1.49-2,3.75-3.2,5.39-5A44.92,44.92,0,0,1,30.26,135.56Z"/><path class="cls-5" d="M29,135.56a1.54,1.54,0,0,1-.8,1.4,2.71,2.71,0,0,1-1.61.66,3,3,0,0,1-2.75-2.05,1.5,1.5,0,0,1,0-1.48,8.09,8.09,0,0,1,1.55-1.6,47,47,0,0,0,3.73-3.32L27,128.62c.32.88.62,1.76.9,2.66s.47,1.53.67,2.31c.1.38.19.75.27,1.13,0,.18.07.35.1.53a1.7,1.7,0,0,0,0,.22c.06.36,0-.25,0,.09a1.29,1.29,0,0,0,1.25,1.25,1.26,1.26,0,0,0,1.25-1.25,33.44,33.44,0,0,0-2.08-7.6,1.26,1.26,0,0,0-2.08-.56,40.47,40.47,0,0,1-3.61,3.2c-1.26,1.1-2.7,2.45-2.6,4.27.17,3.26,3.73,6.24,7,5,1.78-.69,3.55-2.2,3.41-4.28a1.28,1.28,0,0,0-1.25-1.25A1.26,1.26,0,0,0,29,135.56Z"/><circle class="cls-6" cx="85.31" cy="132.51" r="47.11"/><circle class="cls-7" cx="75.37" cy="121.22" r="30.68"/><circle class="cls-8" cx="75.37" cy="121.77" r="23.98"/><path class="cls-2" d="M37.48,119c-2.56-16.17,15.06-32.39,39.36-36.24s46.08,6.14,48.64,22.3"/><circle class="cls-6" cx="205.32" cy="135.58" r="47.11"/><circle class="cls-7" cx="197.32" cy="121.89" r="30.68"/><circle class="cls-8" cx="197.32" cy="122.44" r="23.98"/><path class="cls-2" d="M164.25,106.23c2.56-16.16,24.34-26.15,48.64-22.3s41.92,20.08,39.36,36.24"/><path class="cls-3" d="M139.05,145.44a8.47,8.47,0,0,1,1.5-.69c-.19,0-.32.13-.05,0l.37-.14c.26-.09.51-.17.77-.24s.54-.12.81-.17c-.23,0-.28,0,0,0h.4a1.48,1.48,0,0,0,.36,0c-.09,0-.52-.08-.14,0s.9.14,1.35.19h.09c-.4-.05,0,0,.07,0l.68.14a13.56,13.56,0,0,1,1.41.44l.14.05c-.32-.13.07,0,.13.06.22.1.43.21.64.33s.39.24.59.36-.32-.31-.12-.1l.29.26a2.5,2.5,0,0,0,3.53-3.54,12.6,12.6,0,0,0-7.26-3l-.16,0c.36.06-.16,0-.23,0a11.19,11.19,0,0,0-1.28-.16,8.51,8.51,0,0,0-2.41.29,23.25,23.25,0,0,0-4,1.6,2.5,2.5,0,0,0-.89,3.42,2.57,2.57,0,0,0,3.42.9Z"/><path class="cls-3" d="M267.13,144.74a169.07,169.07,0,0,1,18.5-14.6,2.56,2.56,0,0,0,.89-3.42,2.52,2.52,0,0,0-3.42-.9,178.6,178.6,0,0,0-19.5,15.38,2.5,2.5,0,0,0,3.53,3.54Z"/><path class="cls-3" d="M23.26,137.16a177.4,177.4,0,0,0-19.5-15.38,2.52,2.52,0,0,0-3.42.9,2.56,2.56,0,0,0,.89,3.42,169.07,169.07,0,0,1,18.5,14.6,2.56,2.56,0,0,0,3.53,0,2.53,2.53,0,0,0,0-3.54Z"/><rect class="cls-9" x="20.38" y="88.49" width="112.88" height="112.88" rx="16.66" transform="matrix(1, 0.03, -0.03, 1, 4.15, -2.12)"/><g class="cls-10"><path class="cls-11" d="M63.84,152.28A312.8,312.8,0,0,1,91,124.62c2.4-2.15-1.15-5.68-3.54-3.54a311.44,311.44,0,0,0-27.19,27.67,2.54,2.54,0,0,0,0,3.53,2.5,2.5,0,0,0,3.53,0Z"/></g><g class="cls-10"><path class="cls-11" d="M76.8,164.35l.64-.85.27-.34s.39-.51.2-.27l.21-.27.27-.35.63-.78c.9-1.13,1.81-2.24,2.75-3.33a61.29,61.29,0,0,1,5.74-5.88,2.5,2.5,0,0,0,0-3.53,2.56,2.56,0,0,0-3.54,0,86.21,86.21,0,0,0-11.49,13.08,2.51,2.51,0,0,0,.9,3.42,2.58,2.58,0,0,0,3.42-.9Z"/></g><rect class="cls-9" x="151.2" y="91.22" width="112.88" height="112.88" rx="16.66" transform="translate(4.28 -5.84) rotate(1.63)"/><g class="cls-10"><path class="cls-11" d="M194.66,155a310.19,310.19,0,0,1,27.2-27.67c2.39-2.15-1.15-5.68-3.54-3.53a312.8,312.8,0,0,0-27.2,27.66,2.57,2.57,0,0,0,0,3.54,2.54,2.54,0,0,0,3.54,0Z"/></g><g class="cls-10"><path class="cls-11" d="M207.62,167.09c.21-.29.42-.57.64-.85l.26-.35s.4-.51.21-.26.21-.28.21-.27l.27-.35.63-.79q1.33-1.68,2.75-3.32a60.12,60.12,0,0,1,5.74-5.88,2.53,2.53,0,0,0,0-3.54,2.57,2.57,0,0,0-3.54,0,85.13,85.13,0,0,0-11.49,13.08,2.51,2.51,0,0,0,.9,3.42,2.58,2.58,0,0,0,3.42-.89Z"/></g></g></g></svg>