<svg xmlns="http://www.w3.org/2000/svg" xmlns:xlink="http://www.w3.org/1999/xlink" viewBox="0 0 286.86 314.54"><defs><style>.cls-1{fill:url(#radial-gradient);}.cls-2{fill:#bcdff5;}.cls-3,.cls-8{fill:#231f20;}.cls-4{fill:#00729e;}.cls-5{fill:#6ecbd8;}.cls-6{fill:#fff;stroke:#fff;}.cls-6,.cls-8,.cls-9{stroke-miterlimit:10;}.cls-7{fill:#2e76bb;}.cls-8,.cls-9{stroke:#231f20;}.cls-9{fill:#9cd9e5;fill-opacity:0.43;stroke-width:8px;}.cls-10{opacity:0.75;}.cls-11{fill:#bde4ed;}</style><radialGradient id="radial-gradient" cx="147.56" cy="177.31" r="136.45" gradientTransform="translate(-12.88 -15.8) scale(1.04 0.95)" gradientUnits="userSpaceOnUse"><stop offset="0" stop-color="#a7dbda"/><stop offset="0.78" stop-color="#bcdff5"/></radialGradient></defs><title>0-verystressed-2</title><g id="Layer_2" data-name="Layer 2"><g id="Layer_1-2" data-name="Layer 1"><path class="cls-1" d="M277.83,142.61c0,77.62-53.76,143.31-139.23,143.31S4.22,220.23,4.22,142.61,53.12,17.75,138.6,17.75,277.83,65,277.83,142.61Z"/><path class="cls-2" d="M63.3,258.59,51.15,283.07c-1.34,2.71-2.7,5.48-3,8.48-.58,5.66,2.79,11.17,7.38,14.53s10.23,4.92,15.8,6.07c7.5,1.56,16.23,2.18,21.92-2.95,2.92-2.65,4.53-6.42,5.88-10.12A131.14,131.14,0,0,0,104.87,278Z"/><path class="cls-2" d="M62.22,258c-4.38,8.84-9,17.6-13.14,26.53-1.78,3.82-2.85,7.78-1.79,12A19,19,0,0,0,53.42,306c6.15,5.28,15,7.28,22.82,8.22,7.53.9,15.52-.27,20.22-6.81,2.81-3.92,4.27-8.87,5.7-13.41a130.64,130.64,0,0,0,3.91-15.71,1.27,1.27,0,0,0-.57-1.41l-14-6.53L69.12,259.93l-5.19-2.42c-1.45-.68-2.72,1.47-1.26,2.15l14,6.53L99,276.62l5.2,2.42-.58-1.42c-.8,4.3-1.79,8.55-3,12.75a85.65,85.65,0,0,1-4.14,11.88c-1.55,3.38-3.7,6.34-7.09,8A20.52,20.52,0,0,1,79.33,312a56.51,56.51,0,0,1-10.81-1.73,36.86,36.86,0,0,1-11-4.29,18.3,18.3,0,0,1-7.19-8.16c-1.59-3.76-1.12-7.55.49-11.23,2-4.52,4.37-8.9,6.56-13.33l7-14C65.09,257.78,62.94,256.51,62.22,258Z"/><path class="cls-2" d="M151.55,263.43l-5.26,26.83c-.58,3-1.17,6-.68,9,.93,5.61,5.64,10,10.95,12.07s11.17,2.05,16.84,1.7c7.65-.48,16.23-2.17,20.36-8.63,2.13-3.32,2.69-7.38,3-11.31a131.15,131.15,0,0,0,0-21.89Z"/><path class="cls-2" d="M150.35,263.1,147.43,278c-1,4.83-2,9.67-2.83,14.53-.68,4.18-.55,8.3,1.69,12a19.18,19.18,0,0,0,8,7.12c7.42,3.65,16.69,3.24,24.67,2,7.11-1.09,14.29-4.13,17.2-11.18,1.87-4.51,2-9.71,2.22-14.52a134.42,134.42,0,0,0-.34-16.79,1.28,1.28,0,0,0-.92-1.2l-15.23-2.61-24.33-4.16-5.64-1c-1.58-.27-2.25,2.14-.67,2.41l15.23,2.61,24.33,4.16,5.64,1-.91-1.21A134.73,134.73,0,0,1,196,284.8a77.09,77.09,0,0,1-1,12.78,15.1,15.1,0,0,1-5,9.24,21.32,21.32,0,0,1-9,3.93,55.83,55.83,0,0,1-10.47,1.14,36.57,36.57,0,0,1-12.32-1.35,18.16,18.16,0,0,1-8.67-5.77,13.51,13.51,0,0,1-2.63-10.58c.65-5.05,1.9-10.07,2.88-15.06l3-15.36C153.07,262.2,150.66,261.52,150.35,263.1Z"/><path class="cls-3" d="M116.29,6.13a87.59,87.59,0,0,1,6.21,11.43c1.11,2.29,2.2,4.6,3.19,7a24.19,24.19,0,0,1,1.7,5c.28,1.58,2.69.91,2.41-.67a25.11,25.11,0,0,0-1.75-5.09c-1-2.42-2.12-4.81-3.27-7.17a88.54,88.54,0,0,0-6.33-11.7c-.91-1.31-3.07-.06-2.16,1.27Z"/><path class="cls-3" d="M130.42,1.19c1,9.23,1.79,18.47,2.78,27.69.17,1.58,2.67,1.6,2.5,0-1-9.22-1.79-18.46-2.78-27.69-.17-1.58-2.67-1.6-2.5,0Z"/><path class="cls-3" d="M142,28.21a13.15,13.15,0,0,1,.22-4.94A66.56,66.56,0,0,1,144,15.92c.71-2.43,1.51-4.83,2.45-7.18a20.69,20.69,0,0,1,2.34-4.59c1-1.29-1.2-2.54-2.16-1.26A22.48,22.48,0,0,0,144,8.08a78.16,78.16,0,0,0-2.54,7.47,61.08,61.08,0,0,0-1.75,7.57,14.66,14.66,0,0,0-.14,5.75,1.25,1.25,0,0,0,2.41-.66Z"/><path class="cls-2" d="M28,207.21,10.77,228.42a37.54,37.54,0,0,0-5.09,7.38c-2.33,5-1.68,9.94.59,13s5.93,4.65,9.67,5.84c5,1.6,11.3,2.42,17.24-1.93,3-2.24,5.51-5.52,7.76-8.74A192.17,192.17,0,0,0,52.3,225.57Z"/><path class="cls-2" d="M27.12,206.32,10.67,226.57c-2.48,3.06-5.12,6.1-6.58,9.81a14.6,14.6,0,0,0-.17,10.76c2.48,6.07,9.83,8.8,15.85,9.77a19,19,0,0,0,9.84-.79,22.27,22.27,0,0,0,8.92-6.81,109.55,109.55,0,0,0,7.7-11q3.8-5.94,7.15-12.15a1.29,1.29,0,0,0-.45-1.71L31.67,208.43l-3-2.3c-1.28-1-2.53,1.2-1.26,2.15l21.25,16.07,3.05,2.3-.45-1.71A190.27,190.27,0,0,1,39.36,244.1a31,31,0,0,1-7.2,7.86,15.42,15.42,0,0,1-9.08,2.77,26.68,26.68,0,0,1-8.67-1.88c-2.85-1-5.8-2.56-7.46-5.22a11.58,11.58,0,0,1-.78-9.69c1.13-3.42,3.55-6.26,5.79-9l16.92-20.83C29.89,206.85,28.13,205.07,27.12,206.32Z"/><path class="cls-2" d="M258.4,210.73l15.44,22.56a37.4,37.4,0,0,1,4.46,7.77c1.92,5.15.87,10-1.65,12.95s-6.29,4.16-10.11,5c-5.15,1.18-11.46,1.49-17-3.34-2.87-2.48-5.05-6-7-9.34a191.66,191.66,0,0,1-9.82-19.32Z"/><path class="cls-2" d="M257.32,211.37l13.76,20.09c3.8,5.55,9.08,12.17,6.13,19.28a11.1,11.1,0,0,1-6.74,5.87,29.77,29.77,0,0,1-8.69,1.89,16,16,0,0,1-8.8-1.86,22.1,22.1,0,0,1-7.34-7.52,157.54,157.54,0,0,1-11.88-22.7l-.45,1.71,22.5-14.27,3.22-2.05c1.36-.86.1-3-1.26-2.16l-22.5,14.28-3.22,2a1.29,1.29,0,0,0-.45,1.71A168.44,168.44,0,0,0,243,249.63a27.68,27.68,0,0,0,7.47,8.39,17.84,17.84,0,0,0,9.52,3,30.48,30.48,0,0,0,9.43-1.44c3.24-1,6.42-2.49,8.53-5.21a13.32,13.32,0,0,0,2.54-9.22c-.34-3.93-2.15-7.38-4.3-10.62-5.44-8.23-11.14-16.3-16.71-24.44C258.58,208.78,256.41,210,257.32,211.37Z"/><path class="cls-2" d="M88.79,35.18l-.41-11.39A15.69,15.69,0,0,0,88,20.08a5.41,5.41,0,0,0-3.76-3.94,7.61,7.61,0,0,0-4.64.82,7.63,7.63,0,0,0-4.89,5.33,15.28,15.28,0,0,0,0,4.87,78.85,78.85,0,0,0,1.49,8.91Z"/><path class="cls-2" d="M90,35.18c-.14-3.91-.26-7.82-.42-11.73-.12-3-.74-6.25-3.58-7.9s-6.25-.4-8.74,1.18A8.68,8.68,0,0,0,73.21,24a34.19,34.19,0,0,0,.55,6.14c.3,2.11.69,4.2,1.15,6.28a1.26,1.26,0,0,0,1.21.91l12.67-.89c1.59-.11,1.61-2.61,0-2.5l-12.67.89,1.2.92q-.64-2.93-1.1-5.9A31.89,31.89,0,0,1,75.71,24c.14-3.34,2.41-5.29,5.41-6.31,1.52-.51,3.09-.63,4.33.53a6.42,6.42,0,0,1,1.64,4.55c.23,4.13.3,8.28.45,12.42C87.59,36.79,90.09,36.79,90,35.18Z"/><path class="cls-4" d="M86.74,36.51l-.3-8.42a11.74,11.74,0,0,0-.31-2.74,3.92,3.92,0,0,0-2.7-2.91,5.31,5.31,0,0,0-3.33.6A5.53,5.53,0,0,0,76.6,27a11.42,11.42,0,0,0,0,3.6,62,62,0,0,0,1.07,6.59Z"/><path class="cls-4" d="M88,36.51c-.11-2.89-.2-5.78-.31-8.67-.09-2.34-.58-4.82-2.75-6.12s-4.74-.36-6.63.86a6.77,6.77,0,0,0-3.1,5.65,26.53,26.53,0,0,0,.4,4.62c.22,1.56.5,3.1.84,4.64a1.26,1.26,0,0,0,1.2.92l9.1-.65c1.59-.12,1.6-2.62,0-2.5l-9.1.65,1.21.91a35.18,35.18,0,0,1-1.15-8.59c.08-2.27,1.56-3.63,3.61-4.34a2.52,2.52,0,0,1,2.77.31,4.52,4.52,0,0,1,1.08,3.13c.17,3.05.22,6.12.33,9.18C85.54,38.11,88,38.12,88,36.51Z"/><path class="cls-2" d="M182.46,37.13l.4-11.39a15.63,15.63,0,0,1,.43-3.71,5.4,5.4,0,0,1,3.76-3.94,7.62,7.62,0,0,1,4.64.82,7.6,7.6,0,0,1,4.88,5.33,15,15,0,0,1,0,4.87A79.21,79.21,0,0,1,195.13,38Z"/><path class="cls-2" d="M183.71,37.13c.15-4.14.21-8.29.44-12.42a6.43,6.43,0,0,1,1.65-4.55c1.23-1.16,2.81-1,4.33-.53,3,1,5.27,3,5.4,6.31a31,31,0,0,1-.51,5.85q-.44,3-1.1,5.9l1.21-.92-12.67-.89c-1.61-.11-1.6,2.39,0,2.5l12.67.89a1.24,1.24,0,0,0,1.2-.92,65.86,65.86,0,0,0,1.69-11c.16-3.12-.68-6.09-3.22-8.06-2.25-1.76-5.82-3.27-8.64-2.23s-4.2,4-4.46,7c-.38,4.34-.34,8.76-.49,13.11C181.15,38.74,183.65,38.74,183.71,37.13Z"/><path class="cls-4" d="M184.51,38.46l.3-8.42a11.74,11.74,0,0,1,.31-2.74,3.91,3.91,0,0,1,2.7-2.91,5.19,5.19,0,0,1,3.33.6,5.53,5.53,0,0,1,3.5,3.93,11.42,11.42,0,0,1,0,3.6,59,59,0,0,1-1.08,6.58Z"/><path class="cls-4" d="M185.76,38.46c.11-3.06.16-6.13.33-9.18a4.47,4.47,0,0,1,1.08-3.13,2.5,2.5,0,0,1,2.77-.31c2,.71,3.52,2.07,3.61,4.34a35.18,35.18,0,0,1-1.15,8.59l1.2-.92-9.09-.64c-1.61-.12-1.6,2.38,0,2.5l9.09.64a1.25,1.25,0,0,0,1.21-.91A50.81,50.81,0,0,0,196,31.22a7.12,7.12,0,0,0-2.39-6.17c-1.7-1.38-4.4-2.54-6.56-1.74-2.31.85-3.27,3.17-3.47,5.46-.27,3.21-.25,6.47-.36,9.69C183.2,40.06,185.7,40.06,185.76,38.46Z"/><path class="cls-3" d="M123.56,246.1c.4-2.76,2.57-4.62,4.86-6a10.35,10.35,0,0,1,6.87-1.54,11.45,11.45,0,0,1,9.65,8.4c.7,3.14,5.53,1.81,4.82-1.33-1.52-6.71-7.81-11.38-14.47-12.07a15.33,15.33,0,0,0-9.55,2.32c-3.24,1.93-6.43,5-7,8.86a2.58,2.58,0,0,0,1.74,3.07,2.53,2.53,0,0,0,3.08-1.74Z"/><path class="cls-5" d="M192.35,59.3a2.4,2.4,0,0,0,.85,1.93,5.87,5.87,0,0,0,2.15,1.14A3.92,3.92,0,0,0,199.07,61a5.73,5.73,0,0,0,1-2.2,2.41,2.41,0,0,0-.45-2c-1.59-1.89-3.9-3-5.63-4.79A44.47,44.47,0,0,0,192.35,59.3Z"/><path class="cls-5" d="M191.1,59.3a4.29,4.29,0,0,0,2.76,3.84,4.91,4.91,0,0,0,4.85-.23,6,6,0,0,0,2.61-3.79,3.76,3.76,0,0,0-.37-2.69,7.36,7.36,0,0,0-1.68-1.84c-1.42-1.22-3-2.2-4.35-3.53a1.27,1.27,0,0,0-2.09.56,33.24,33.24,0,0,0-1.73,7.68,1.25,1.25,0,0,0,1.25,1.25,1.28,1.28,0,0,0,1.25-1.25c0-.15,0-.31,0-.47s0-.25,0-.07l0-.24q.09-.57.21-1.14c.17-.81.37-1.61.58-2.41s.49-1.8.77-2.69l-2.09.55A45.23,45.23,0,0,0,197,56a8,8,0,0,1,1.72,1.65,1.61,1.61,0,0,1,0,1.49A3,3,0,0,1,196,61.19a2.91,2.91,0,0,1-1.62-.64,1.4,1.4,0,0,1-.78-1.25A1.25,1.25,0,0,0,191.1,59.3Z"/><path class="cls-5" d="M225.55,72.29a.44.44,0,0,0,.07.37A1.17,1.17,0,0,0,226,73a.7.7,0,0,0,.71-.09,1.06,1.06,0,0,0,.28-.35.46.46,0,0,0,0-.38c-.21-.4-.57-.69-.8-1.07A8.21,8.21,0,0,0,225.55,72.29Z"/><path class="cls-5" d="M224.35,72a1.75,1.75,0,0,0,.55,1.76,2,2,0,0,0,.82.47,2,2,0,0,0,1,0,2.26,2.26,0,0,0,.86-.47l.11-.12a3.47,3.47,0,0,0,.29-.38,2.08,2.08,0,0,0,.19-.43.29.29,0,0,0,0-.09,1.47,1.47,0,0,0,.05-.42,1.87,1.87,0,0,0-.3-.94c-.22-.34-.5-.63-.75-.95l.2.25a1.88,1.88,0,0,1-.16-.23,1.29,1.29,0,0,0-1.08-.61,1.25,1.25,0,0,0-1.08.61c-.09.16-.18.31-.26.47a6,6,0,0,0-.46,1.07,1.25,1.25,0,0,0,1.83,1.41,1.36,1.36,0,0,0,.58-.75,1.84,1.84,0,0,1,.09-.25l-.13.3a8.26,8.26,0,0,1,.51-1h-2.16c.22.35.52.66.77,1l-.19-.26a2.06,2.06,0,0,1,.23.37l-.12-.3a.29.29,0,0,1,0,.09l0-.33v.12l0-.34a.24.24,0,0,1,0,.12l.13-.3a1.28,1.28,0,0,1-.14.23l.2-.25a.8.8,0,0,1-.13.13l.25-.19-.19.1.3-.12-.18,0,.34,0h-.19l.33,0-.18,0,.3.12a.57.57,0,0,1-.13-.08l.26.2a1.21,1.21,0,0,1-.2-.19l.2.25a.37.37,0,0,1-.07-.12l.12.29a.19.19,0,0,1,0-.08l0,.33v-.12l0,.33s0,0,0-.06a1.25,1.25,0,0,0-1.84-1.41A1.27,1.27,0,0,0,224.35,72Z"/><path class="cls-5" d="M173,80.68a.49.49,0,0,0-.09.37,1.06,1.06,0,0,0,.19.4.71.71,0,0,0,.69.21,1.11,1.11,0,0,0,.39-.2.44.44,0,0,0,.16-.35c0-.45-.23-.87-.29-1.31A8,8,0,0,0,173,80.68Z"/><path class="cls-5" d="M172.16,79.8a1.82,1.82,0,0,0-.39.67,1.42,1.42,0,0,0-.08.5,2.4,2.4,0,0,0,.26.94.86.86,0,0,0,.1.16,2.06,2.06,0,0,0,.55.55,1.86,1.86,0,0,0,.43.2,1.47,1.47,0,0,0,.35.08c.11,0,.22,0,.34,0l.4-.06.1,0a2.28,2.28,0,0,0,.61-.29,2.13,2.13,0,0,0,.54-.54.41.41,0,0,0,0-.09,2.54,2.54,0,0,0,.16-.38,2.44,2.44,0,0,0,0-.39v-.1a5.21,5.21,0,0,0-.08-.55c-.07-.35-.21-.69-.26-1a1.1,1.1,0,0,0-.32-.55.82.82,0,0,0-.4-.26.89.89,0,0,0-.48-.11,1.24,1.24,0,0,0-.63.17c-.23.16-.44.33-.66.5a4,4,0,0,0-.64.58,1,1,0,0,0-.26.4.89.89,0,0,0-.11.48,1.28,1.28,0,0,0,.37.89,1.27,1.27,0,0,0,.88.36,1.19,1.19,0,0,0,.88-.36,5.07,5.07,0,0,1,.74-.65l-.25.19a3.55,3.55,0,0,1,.31-.23l-1.84-.75c.06.4.23.78.28,1.18l0-.33a.74.74,0,0,1,0,.21l0-.33a.24.24,0,0,1,0,.08l.12-.3a.24.24,0,0,1-.07.12l.2-.25-.08.08.26-.2a1.35,1.35,0,0,1-.26.15l.3-.12-.18,0,.33,0a.81.81,0,0,1-.22,0l.33,0a1.27,1.27,0,0,1-.18-.06l.3.13a.42.42,0,0,1-.14-.09l.25.2a.47.47,0,0,1-.1-.1l.2.26a.94.94,0,0,1-.12-.22l.13.3a.66.66,0,0,1-.06-.2l0,.34a.33.33,0,0,1,0-.14l0,.33a.23.23,0,0,1,0-.11l-.13.3a.43.43,0,0,1,0-.07l-.19.25v0a.9.9,0,0,0,.26-.41.87.87,0,0,0,.11-.48,1.28,1.28,0,0,0-.37-.88,1.26,1.26,0,0,0-.88-.37l-.33,0A1.18,1.18,0,0,0,172.16,79.8Z"/><path class="cls-5" d="M74.67,73.16a2.4,2.4,0,0,1-.85,1.93,5.91,5.91,0,0,1-2.14,1.14A3.93,3.93,0,0,1,68,74.85a5.73,5.73,0,0,1-1-2.2,2.41,2.41,0,0,1,.45-2.05c1.59-1.89,3.9-3,5.63-4.79A44.47,44.47,0,0,1,74.67,73.16Z"/><path class="cls-5" d="M73.42,73.16a1.4,1.4,0,0,1-.78,1.25,2.89,2.89,0,0,1-1.62.64A2.94,2.94,0,0,1,68.31,73a1.61,1.61,0,0,1,0-1.49A8,8,0,0,1,70,69.83a45.23,45.23,0,0,0,3.89-3.14l-2.09-.55c.28.89.53,1.79.77,2.69s.4,1.56.56,2.35c.08.38.16.76.22,1.14a2,2,0,0,0,0,.24c0,.16,0-.17,0,.07s0,.36,0,.53a1.28,1.28,0,0,0,1.25,1.25,1.25,1.25,0,0,0,1.25-1.25,33.24,33.24,0,0,0-1.73-7.68,1.27,1.27,0,0,0-2.09-.56A43.69,43.69,0,0,1,68.28,68c-1.31,1-2.76,2.34-2.68,4.18.12,3.26,3.57,6.32,6.85,5.11,1.79-.66,3.52-2,3.47-4.14A1.25,1.25,0,0,0,73.42,73.16Z"/><path class="cls-5" d="M60.59,50.29a1.13,1.13,0,0,1-.32.91,2.67,2.67,0,0,1-1,.61,1.77,1.77,0,0,1-1.76-.5,2.62,2.62,0,0,1-.56-1,1.12,1.12,0,0,1,.13-1c.66-.93,1.68-1.54,2.41-2.41A21.32,21.32,0,0,1,60.59,50.29Z"/><path class="cls-5" d="M59.34,50.29c0,.12-.05.41,0,.05,0,.24.14-.21,0,0s0,.09.06-.07a.43.43,0,0,1-.09.1l-.14.12.08-.06-.12.08-.18.11-.12.06c.2-.08.25-.1.13-.06l-.16,0,.18,0h-.3c.21,0,.25,0,.11,0l-.07,0-.14,0,.09,0-.2-.12q-.16-.12.06.06l-.12-.11c-.15-.15,0,0,0,.07-.06-.16-.2-.31-.27-.46s.06.23,0,0a.56.56,0,0,1,0-.12c0-.11,0-.11,0,0s0,.12,0,0,0-.1,0,.1c0-.22-.15.24,0,0s-.15.16,0,0l.18-.2a4.89,4.89,0,0,1,.39-.4,18.57,18.57,0,0,0,1.64-1.56l-2.09-.55a15.07,15.07,0,0,1,1.05,3.32,1.25,1.25,0,0,0,1.54.87,1.26,1.26,0,0,0,.75-.57,1.51,1.51,0,0,0,.12-1,14.91,14.91,0,0,0-1-3.32,1.32,1.32,0,0,0-.87-.88,1.23,1.23,0,0,0-1.22.33A19.4,19.4,0,0,1,57,47.62a3.29,3.29,0,0,0-1.34,2.46,3.38,3.38,0,0,0,1.44,2.49,3,3,0,0,0,3,.27,2.74,2.74,0,0,0,1.75-2.55,1.35,1.35,0,0,0-.37-.88,1.28,1.28,0,0,0-.88-.37A1.26,1.26,0,0,0,59.34,50.29Z"/><path class="cls-5" d="M102.94,51.78a.73.73,0,0,1,.14.62,1.65,1.65,0,0,1-.31.67,1.19,1.19,0,0,1-1.15.35,1.89,1.89,0,0,1-.66-.34.75.75,0,0,1-.26-.59c0-.74.39-1.44.49-2.18A13.53,13.53,0,0,1,102.94,51.78Z"/><path class="cls-5" d="M102.06,52.67l0,0-.2-.25a.75.75,0,0,1,.07.12l-.13-.3a1.27,1.27,0,0,1,.06.18l0-.33a1,1,0,0,1,0,.24l0-.34a1.91,1.91,0,0,1-.1.34l.12-.3a1.7,1.7,0,0,1-.19.35l.19-.25a1.21,1.21,0,0,1-.16.16l.25-.19-.23.14.29-.13-.3.09.33,0a1.21,1.21,0,0,1-.38,0l.34,0a1.47,1.47,0,0,1-.3-.08l.3.12a1.86,1.86,0,0,1-.43-.25l.25.19a.68.68,0,0,1-.12-.12l.19.25a1.32,1.32,0,0,1-.12-.2l.13.3a.74.74,0,0,1,0-.14l0,.33a1.09,1.09,0,0,1,0-.36l0,.33c.1-.67.38-1.29.47-2l-1.83.75.52.38-.26-.19a8,8,0,0,1,1.24,1.09,1.26,1.26,0,0,0,1.76,0,1.3,1.3,0,0,0,.37-.89,1.39,1.39,0,0,0-.37-.88,7.62,7.62,0,0,0-1.07-1c-.31-.24-.61-.48-.93-.7A1.27,1.27,0,0,0,100,50a15.54,15.54,0,0,1-.38,1.53,3.82,3.82,0,0,0-.15,1.06,2.07,2.07,0,0,0,.58,1.35,2.7,2.7,0,0,0,1.9.79,2.41,2.41,0,0,0,2-1.13,2.81,2.81,0,0,0,.37-1,1.9,1.9,0,0,0-.5-1.62,1.22,1.22,0,0,0-.88-.37,1.26,1.26,0,0,0-.88.37,1.23,1.23,0,0,0-.37.88l0,.33A1.23,1.23,0,0,0,102.06,52.67Z"/><path class="cls-5" d="M243.06,185.27a2.4,2.4,0,0,1,.57,2,5.9,5.9,0,0,1-.92,2.26,3.94,3.94,0,0,1-3.75,1.31,5.81,5.81,0,0,1-2.21-1,2.38,2.38,0,0,1-.95-1.87c0-2.46,1.06-4.81,1.27-7.27A44.31,44.31,0,0,1,243.06,185.27Z"/><path class="cls-5" d="M242.18,186.15c.63.73-.1,2.31-.66,2.85a2.82,2.82,0,0,1-3.15.35,5.3,5.3,0,0,1-.89-.52c.15.12-.22-.24-.18-.19a2,2,0,0,1-.16-.25,4.5,4.5,0,0,1,.11-2.29c.35-1.81.9-3.57,1.07-5.41l-1.89,1.08c.79.5,1.56,1,2.32,1.58s1.25.91,1.78,1.33a17.68,17.68,0,0,1,1.65,1.47c1.11,1.17,2.88-.6,1.77-1.76a27.48,27.48,0,0,0-3.84-3.13c-.79-.57-1.59-1.12-2.41-1.65a1.26,1.26,0,0,0-1.88,1.08c-.16,1.7-.74,3.34-1,5s-.47,3.72,1.09,5a6,6,0,0,0,4.31,1.42,4.91,4.91,0,0,0,3.92-2.44c.91-1.72,1.21-3.75-.15-5.31a1.25,1.25,0,1,0-1.77,1.76Z"/><path class="cls-5" d="M23.13,137.5a2.43,2.43,0,0,1-.77,2,5.8,5.8,0,0,1-2.09,1.25,3.93,3.93,0,0,1-3.78-1.21,6,6,0,0,1-1.15-2.15,2.41,2.41,0,0,1,.36-2.07c1.5-2,3.76-3.21,5.4-5.05A44.92,44.92,0,0,1,23.13,137.5Z"/><path class="cls-5" d="M21.88,137.5a1.54,1.54,0,0,1-.8,1.4,2.74,2.74,0,0,1-1.62.66,3,3,0,0,1-2.74-2.05,1.51,1.51,0,0,1,0-1.47,8.75,8.75,0,0,1,1.55-1.61A45.34,45.34,0,0,0,22,131.12l-2.09-.55c.32.87.62,1.76.9,2.65s.47,1.54.67,2.31c.09.38.19.76.27,1.14,0,.17.07.35.1.52l0,.23c.07.35,0-.26,0,.08a1.28,1.28,0,0,0,1.25,1.25,1.26,1.26,0,0,0,1.25-1.25,33.59,33.59,0,0,0-2.08-7.6,1.26,1.26,0,0,0-2.09-.55,40.52,40.52,0,0,1-3.6,3.2c-1.26,1.1-2.7,2.45-2.6,4.26.17,3.26,3.72,6.24,7,5,1.78-.7,3.55-2.2,3.41-4.29a1.29,1.29,0,0,0-1.25-1.25A1.25,1.25,0,0,0,21.88,137.5Z"/><circle class="cls-6" cx="83.77" cy="132.93" r="47.11"/><circle class="cls-7" cx="83.77" cy="137.25" r="30.68"/><circle class="cls-8" cx="83.77" cy="137.8" r="23.98"/><path class="cls-2" d="M34.73,132.27C30.81,105,49.26,79.78,75.93,76s51.48,15.17,55.4,42.44"/><circle class="cls-6" cx="203.77" cy="136" r="47.11"/><circle class="cls-7" cx="203.77" cy="140.32" r="30.68"/><circle class="cls-8" cx="203.77" cy="140.86" r="23.98"/><path class="cls-2" d="M250.84,133.43c3.92-27.28-14.53-52.49-41.2-56.32s-51.48,15.17-55.4,42.44"/><path class="cls-3" d="M139.05,143.4a8.47,8.47,0,0,1,1.5-.69c-.19,0-.32.13-.05,0l.37-.14c.26-.09.51-.17.77-.24s.54-.12.81-.17c-.23,0-.28,0,0,0h.4a1.48,1.48,0,0,0,.36,0c-.09,0-.52-.08-.14,0s.9.14,1.35.19h.16l.68.15a13.56,13.56,0,0,1,1.41.44l.14,0c-.32-.13.07,0,.13.06.22.1.43.21.64.33s.39.24.59.36-.32-.31-.12-.1.2.17.29.25a2.5,2.5,0,0,0,3.53-3.53,12.6,12.6,0,0,0-7.26-3l-.16,0c.36.06-.16,0-.23,0a11.19,11.19,0,0,0-1.28-.16,8.51,8.51,0,0,0-2.41.29,23.25,23.25,0,0,0-4,1.6,2.5,2.5,0,0,0-.89,3.42,2.57,2.57,0,0,0,3.42.9Z"/><path class="cls-3" d="M267.13,142.7a169.07,169.07,0,0,1,18.5-14.6,2.56,2.56,0,0,0,.89-3.42,2.52,2.52,0,0,0-3.42-.9,178.6,178.6,0,0,0-19.5,15.38,2.5,2.5,0,1,0,3.53,3.54Z"/><path class="cls-3" d="M23.26,135.12a177.4,177.4,0,0,0-19.5-15.38,2.52,2.52,0,0,0-3.42.9,2.56,2.56,0,0,0,.89,3.42,167.87,167.87,0,0,1,18.5,14.6,2.56,2.56,0,0,0,3.53,0,2.53,2.53,0,0,0,0-3.54Z"/><rect class="cls-9" x="20.38" y="86.45" width="112.88" height="112.88" rx="16.66" transform="translate(4.09 -2.13) rotate(1.63)"/><g class="cls-10"><path class="cls-11" d="M63.84,150.24A312.8,312.8,0,0,1,91,122.58c2.4-2.16-1.15-5.68-3.54-3.54a311.44,311.44,0,0,0-27.19,27.67,2.54,2.54,0,0,0,0,3.53,2.5,2.5,0,0,0,3.53,0Z"/></g><g class="cls-10"><path class="cls-11" d="M76.8,162.31l.64-.85.27-.34c0-.05.39-.51.2-.27l.21-.27.27-.35.63-.78c.9-1.13,1.81-2.24,2.75-3.33a61.29,61.29,0,0,1,5.74-5.88,2.5,2.5,0,0,0,0-3.53,2.56,2.56,0,0,0-3.54,0,86.21,86.21,0,0,0-11.49,13.08,2.51,2.51,0,0,0,.9,3.42,2.58,2.58,0,0,0,3.42-.9Z"/></g><rect class="cls-9" x="151.2" y="89.18" width="112.88" height="112.88" rx="16.66" transform="translate(4.22 -5.84) rotate(1.63)"/><g class="cls-10"><path class="cls-11" d="M194.66,153a310.19,310.19,0,0,1,27.2-27.67c2.39-2.15-1.15-5.68-3.54-3.53a312.8,312.8,0,0,0-27.2,27.66,2.57,2.57,0,0,0,0,3.54,2.54,2.54,0,0,0,3.54,0Z"/></g><g class="cls-10"><path class="cls-11" d="M207.62,165.05c.21-.29.42-.57.64-.85l.26-.35s.4-.51.21-.26l.21-.27.27-.35.63-.79q1.33-1.68,2.75-3.32a60.12,60.12,0,0,1,5.74-5.88,2.53,2.53,0,0,0,0-3.54,2.57,2.57,0,0,0-3.54,0,85.13,85.13,0,0,0-11.49,13.08,2.51,2.51,0,0,0,.9,3.42,2.58,2.58,0,0,0,3.42-.89Z"/></g></g></g></svg>