<svg xmlns="http://www.w3.org/2000/svg" xmlns:xlink="http://www.w3.org/1999/xlink" viewBox="0 0 286.86 314.54"><defs><style>.cls-1{fill:url(#radial-gradient);}.cls-2{fill:#bcdff5;}.cls-3,.cls-6{fill:#231f20;}.cls-4{fill:#fff;stroke:#fff;}.cls-4,.cls-6,.cls-9{stroke-miterlimit:10;}.cls-5{fill:#2e76bb;}.cls-6,.cls-9{stroke:#231f20;}.cls-7{fill:#00729e;}.cls-8{fill:#6ecbd8;}.cls-9{fill:#9cd9e5;fill-opacity:0.43;stroke-width:8px;}.cls-10{opacity:0.75;}.cls-11{fill:#bde4ed;}</style><radialGradient id="radial-gradient" cx="181.69" cy="175.4" r="136.45" gradientTransform="translate(-47.62 -14) scale(1.04 0.95)" gradientUnits="userSpaceOnUse"><stop offset="0" stop-color="#a7dbda"/><stop offset="0.78" stop-color="#bcdff5"/></radialGradient></defs><title>0-verystressed-0</title><g id="Layer_2" data-name="Layer 2"><g id="Layer_1-2" data-name="Layer 1"><path class="cls-1" d="M278.7,142.61c0,77.62-53.77,143.31-139.24,143.31S5.08,220.23,5.08,142.61,54,17.75,139.46,17.75,278.7,65,278.7,142.61Z"/><path class="cls-2" d="M64.16,258.59,52,283.07c-1.34,2.71-2.7,5.48-3,8.48-.59,5.66,2.79,11.17,7.38,14.53s10.23,4.92,15.8,6.07c7.5,1.56,16.23,2.18,21.91-2.95,2.93-2.65,4.53-6.42,5.88-10.12A131.14,131.14,0,0,0,105.73,278Z"/><path class="cls-2" d="M63.08,258c-4.38,8.84-9,17.6-13.13,26.53-1.78,3.82-2.85,7.78-1.8,12A19.15,19.15,0,0,0,54.28,306c6.15,5.28,15,7.28,22.83,8.22,7.52.9,15.51-.27,20.21-6.81,2.81-3.92,4.27-8.87,5.71-13.41a134.53,134.53,0,0,0,3.91-15.71,1.27,1.27,0,0,0-.58-1.41l-14-6.53L70,259.93l-5.2-2.42c-1.44-.68-2.72,1.47-1.26,2.15l14,6.53,22.37,10.43L105.1,279l-.57-1.42q-1.2,6.45-3,12.75a85.65,85.65,0,0,1-4.14,11.88c-1.55,3.38-3.7,6.34-7.08,8A20.54,20.54,0,0,1,80.2,312a56.61,56.61,0,0,1-10.82-1.73,36.86,36.86,0,0,1-11-4.29,18.22,18.22,0,0,1-7.18-8.16c-1.59-3.76-1.12-7.55.49-11.23,2-4.52,4.36-8.9,6.56-13.33l6.95-14C66,257.78,63.8,256.51,63.08,258Z"/><path class="cls-2" d="M152.42,263.43l-5.27,26.83c-.58,3-1.16,6-.67,9,.93,5.61,5.63,10,10.94,12.07s11.17,2.05,16.85,1.7c7.64-.48,16.23-2.17,20.36-8.63,2.12-3.32,2.68-7.38,3-11.31a131.15,131.15,0,0,0,0-21.89Z"/><path class="cls-2" d="M151.21,263.1,148.29,278c-.95,4.83-2,9.67-2.82,14.53-.69,4.18-.56,8.3,1.68,12a19.18,19.18,0,0,0,8,7.12c7.43,3.65,16.7,3.24,24.68,2,7.1-1.09,14.28-4.13,17.2-11.18,1.86-4.51,2-9.71,2.21-14.52a132.53,132.53,0,0,0-.34-16.79A1.26,1.26,0,0,0,198,270l-15.23-2.61L158.4,263.2l-5.65-1c-1.57-.27-2.25,2.14-.66,2.41l15.23,2.61,24.32,4.16,5.65,1-.92-1.21a131.87,131.87,0,0,1,.44,13.63,76,76,0,0,1-1,12.78,15.15,15.15,0,0,1-5,9.24,21.42,21.42,0,0,1-9,3.93,55.74,55.74,0,0,1-10.47,1.14A36.6,36.6,0,0,1,159,310.54a18.21,18.21,0,0,1-8.67-5.77,13.46,13.46,0,0,1-2.62-10.58c.64-5.05,1.9-10.07,2.88-15.06l3-15.36C153.93,262.2,151.52,261.52,151.21,263.1Z"/><path class="cls-3" d="M117.16,6.13a86.35,86.35,0,0,1,6.2,11.43c1.12,2.29,2.21,4.6,3.19,7a23.61,23.61,0,0,1,1.7,5c.28,1.58,2.69.91,2.41-.67a23.94,23.94,0,0,0-1.75-5.09c-1-2.42-2.12-4.81-3.26-7.17a88.54,88.54,0,0,0-6.33-11.7c-.91-1.31-3.08-.06-2.16,1.27Z"/><path class="cls-3" d="M131.29,1.19c1,9.23,1.79,18.47,2.78,27.69.17,1.58,2.67,1.6,2.5,0-1-9.22-1.79-18.46-2.78-27.69-.17-1.58-2.68-1.6-2.5,0Z"/><path class="cls-3" d="M142.89,28.21a12.94,12.94,0,0,1,.22-4.94,64.34,64.34,0,0,1,1.75-7.35c.71-2.43,1.52-4.83,2.46-7.18a19.87,19.87,0,0,1,2.34-4.59c1-1.29-1.21-2.54-2.16-1.26a22.48,22.48,0,0,0-2.59,5.19,78.16,78.16,0,0,0-2.54,7.47,61.11,61.11,0,0,0-1.76,7.57,14.65,14.65,0,0,0-.13,5.75,1.25,1.25,0,0,0,2.41-.66Z"/><path class="cls-2" d="M28.86,207.21,11.63,228.42a37.92,37.92,0,0,0-5.08,7.38c-2.34,5-1.69,9.94.58,13s5.93,4.65,9.67,5.84c5,1.6,11.3,2.42,17.24-1.93,3.06-2.24,5.52-5.52,7.76-8.74a190.18,190.18,0,0,0,11.36-18.45Z"/><path class="cls-2" d="M28,206.32,11.53,226.57c-2.48,3.06-5.12,6.1-6.58,9.81a14.6,14.6,0,0,0-.16,10.76c2.47,6.07,9.82,8.8,15.85,9.77a19,19,0,0,0,9.83-.79,22.14,22.14,0,0,0,8.92-6.81,109.55,109.55,0,0,0,7.7-11q3.79-5.94,7.15-12.15a1.29,1.29,0,0,0-.45-1.71L32.54,208.43l-3-2.3c-1.29-1-2.54,1.2-1.27,2.15l21.26,16.07,3,2.3-.45-1.71A186.71,186.71,0,0,1,40.22,244.1,31,31,0,0,1,33,252a15.42,15.42,0,0,1-9.08,2.77,26.67,26.67,0,0,1-8.66-1.88c-2.85-1-5.81-2.56-7.46-5.22A11.58,11.58,0,0,1,7,237.94c1.14-3.42,3.56-6.26,5.8-9l16.92-20.83C30.75,206.85,29,205.07,28,206.32Z"/><path class="cls-2" d="M259.26,210.73l15.45,22.56a37.85,37.85,0,0,1,4.46,7.77c1.92,5.15.86,10-1.65,12.95s-6.29,4.16-10.12,5c-5.15,1.18-11.46,1.49-17-3.34-2.86-2.48-5-6-7-9.34a191.66,191.66,0,0,1-9.82-19.32Z"/><path class="cls-2" d="M258.19,211.37l13.75,20.09c3.8,5.55,9.09,12.17,6.14,19.28-1.22,2.94-3.85,4.79-6.75,5.87a29.71,29.71,0,0,1-8.68,1.89,16,16,0,0,1-8.8-1.86,22,22,0,0,1-7.35-7.52,158.55,158.55,0,0,1-11.88-22.7l-.45,1.71,22.5-14.27,3.23-2.05c1.35-.86.1-3-1.27-2.16l-22.49,14.28-3.23,2a1.29,1.29,0,0,0-.45,1.71,167.28,167.28,0,0,0,11.41,21.95,27.65,27.65,0,0,0,7.46,8.39,17.87,17.87,0,0,0,9.53,3,30.42,30.42,0,0,0,9.42-1.44c3.24-1,6.43-2.49,8.54-5.21a13.31,13.31,0,0,0,2.53-9.22c-.33-3.93-2.15-7.38-4.29-10.62-5.44-8.23-11.14-16.3-16.72-24.44C259.44,208.78,257.27,210,258.19,211.37Z"/><circle class="cls-4" cx="82.86" cy="130.68" r="47.11"/><circle class="cls-5" cx="88.86" cy="146" r="30.68"/><circle class="cls-6" cx="88.86" cy="146.55" r="23.98"/><path class="cls-2" d="M33.75,117.33c0-24.79,21.85-44.89,48.8-44.89s48.8,20.1,48.8,44.89"/><circle class="cls-4" cx="202.87" cy="133.75" r="47.11"/><circle class="cls-5" cx="194.87" cy="148.07" r="30.68"/><circle class="cls-6" cx="194.87" cy="148.61" r="23.98"/><path class="cls-2" d="M154.07,117.33c0-24.79,21.85-44.89,48.8-44.89s48.79,20.1,48.79,44.89"/><path class="cls-2" d="M89.65,35.18l-.4-11.39a15.69,15.69,0,0,0-.43-3.71,5.4,5.4,0,0,0-3.76-3.94,7.62,7.62,0,0,0-4.64.82,7.6,7.6,0,0,0-4.88,5.33,15,15,0,0,0,0,4.87A78.84,78.84,0,0,0,77,36.07Z"/><path class="cls-2" d="M90.9,35.18c-.14-3.91-.26-7.82-.41-11.73-.12-3-.75-6.25-3.58-7.9s-6.25-.4-8.75,1.18A8.7,8.7,0,0,0,74.08,24a34.18,34.18,0,0,0,.54,6.14q.45,3.17,1.16,6.28a1.24,1.24,0,0,0,1.2.91l12.67-.89c1.6-.11,1.61-2.61,0-2.5L77,34.82l1.21.92q-.66-2.93-1.1-5.9A31,31,0,0,1,76.58,24c.13-3.34,2.41-5.29,5.4-6.31,1.52-.51,3.1-.63,4.33.53A6.43,6.43,0,0,1,88,22.76c.23,4.13.3,8.28.44,12.42C88.46,36.79,91,36.79,90.9,35.18Z"/><path class="cls-7" d="M87.6,36.51l-.3-8.42A11.74,11.74,0,0,0,87,25.35a3.91,3.91,0,0,0-2.7-2.91A5.33,5.33,0,0,0,81,23,5.53,5.53,0,0,0,77.46,27a11.42,11.42,0,0,0,0,3.6,59.56,59.56,0,0,0,1.08,6.59Z"/><path class="cls-7" d="M88.85,36.51c-.1-2.89-.19-5.78-.31-8.67C88.45,25.5,88,23,85.79,21.72s-4.74-.36-6.63.86a6.8,6.8,0,0,0-3.1,5.65,26.54,26.54,0,0,0,.41,4.62c.22,1.56.5,3.1.83,4.64a1.28,1.28,0,0,0,1.21.92l9.09-.65c1.6-.12,1.61-2.62,0-2.5l-9.09.65,1.2.91a35.18,35.18,0,0,1-1.15-8.59c.09-2.27,1.57-3.63,3.62-4.34a2.5,2.5,0,0,1,2.76.31A4.47,4.47,0,0,1,86,27.33c.17,3.05.22,6.12.33,9.18C86.41,38.11,88.91,38.12,88.85,36.51Z"/><path class="cls-2" d="M183.32,37.13l.41-11.39a15.63,15.63,0,0,1,.42-3.71,5.41,5.41,0,0,1,3.76-3.94,7.61,7.61,0,0,1,4.64.82c2,.88,4.22,2.33,4.89,5.33a15.28,15.28,0,0,1,0,4.87A79.23,79.23,0,0,1,196,38Z"/><path class="cls-2" d="M184.57,37.13c.15-4.14.22-8.29.45-12.42a6.42,6.42,0,0,1,1.64-4.55c1.24-1.16,2.81-1,4.33-.53,3,1,5.27,3,5.41,6.31a31.89,31.89,0,0,1-.51,5.85c-.29,2-.67,4-1.1,5.9l1.2-.92-12.67-.89c-1.6-.11-1.6,2.39,0,2.5l12.67.89a1.26,1.26,0,0,0,1.21-.92,66.89,66.89,0,0,0,1.68-11c.16-3.12-.68-6.09-3.21-8.06-2.26-1.76-5.82-3.27-8.65-2.23s-4.2,4-4.45,7c-.38,4.34-.34,8.76-.5,13.11C182,38.74,184.52,38.74,184.57,37.13Z"/><path class="cls-7" d="M185.37,38.46l.3-8.42A11.74,11.74,0,0,1,186,27.3a3.92,3.92,0,0,1,2.7-2.91A5.17,5.17,0,0,1,192,25a5.56,5.56,0,0,1,3.51,3.93,11.73,11.73,0,0,1,0,3.6,61.39,61.39,0,0,1-1.07,6.58Z"/><path class="cls-7" d="M186.62,38.46c.11-3.06.16-6.13.33-9.18A4.52,4.52,0,0,1,188,26.15a2.5,2.5,0,0,1,2.77-.31c2,.71,3.53,2.07,3.61,4.34a34.71,34.71,0,0,1-1.15,8.59l1.21-.92-9.1-.64c-1.6-.12-1.59,2.38,0,2.5l9.1.64a1.25,1.25,0,0,0,1.2-.91,50.81,50.81,0,0,0,1.23-8.22,7.09,7.09,0,0,0-2.39-6.17c-1.7-1.38-4.39-2.54-6.56-1.74s-3.27,3.17-3.46,5.46c-.28,3.21-.25,6.47-.37,9.69C184.07,40.06,186.57,40.06,186.62,38.46Z"/><path class="cls-3" d="M124.42,246.1c.41-2.76,2.57-4.62,4.86-6a10.38,10.38,0,0,1,6.88-1.54,11.45,11.45,0,0,1,9.64,8.4c.71,3.14,5.53,1.81,4.82-1.33-1.52-6.71-7.8-11.38-14.46-12.07a15.35,15.35,0,0,0-9.56,2.32c-3.23,1.93-6.43,5-7,8.86a2.57,2.57,0,0,0,1.75,3.07,2.52,2.52,0,0,0,3.07-1.74Z"/><path class="cls-8" d="M198.39,62.19a2.37,2.37,0,0,0,.85,1.92,5.9,5.9,0,0,0,2.15,1.15,4,4,0,0,0,3.73-1.38,6,6,0,0,0,1-2.2,2.39,2.39,0,0,0-.46-2c-1.59-1.89-3.9-3-5.62-4.79A44.16,44.16,0,0,0,198.39,62.19Z"/><path class="cls-8" d="M197.14,62.19A4.3,4.3,0,0,0,199.91,66a4.87,4.87,0,0,0,4.84-.22A6,6,0,0,0,207.36,62a3.84,3.84,0,0,0-.36-2.7,7.58,7.58,0,0,0-1.69-1.84c-1.41-1.22-3-2.19-4.35-3.52a1.27,1.27,0,0,0-2.09.55,34.52,34.52,0,0,0-1.73,7.69,1.26,1.26,0,0,0,1.25,1.25,1.27,1.27,0,0,0,1.25-1.25c0-.16,0-.31,0-.47s0-.25,0-.07a2,2,0,0,1,0-.24q.09-.57.21-1.14c.17-.81.36-1.61.57-2.41s.5-1.8.77-2.69l-2.08.55a45.09,45.09,0,0,0,3.88,3.14,7.73,7.73,0,0,1,1.72,1.65,1.58,1.58,0,0,1-.05,1.49,2.66,2.66,0,0,1-4.33,1.44,1.45,1.45,0,0,1-.78-1.25A1.25,1.25,0,0,0,197.14,62.19Z"/><path class="cls-8" d="M231.6,75.18a.41.41,0,0,0,.07.37,1,1,0,0,0,.33.29.72.72,0,0,0,.72-.09,1,1,0,0,0,.27-.35.42.42,0,0,0,0-.38c-.2-.4-.56-.69-.8-1.08A7.77,7.77,0,0,0,231.6,75.18Z"/><path class="cls-8" d="M230.39,74.84a1.79,1.79,0,0,0,.56,1.77,2,2,0,0,0,.81.47,2.11,2.11,0,0,0,1,0,2.34,2.34,0,0,0,.46-.19,1.91,1.91,0,0,0,.4-.28l.12-.13a3.27,3.27,0,0,0,.28-.37,1.82,1.82,0,0,0,.19-.43l0-.09a2.84,2.84,0,0,0,0-.42,2,2,0,0,0-.3-.94c-.22-.34-.5-.63-.75-.95l.19.25-.16-.23a1.28,1.28,0,0,0-1.08-.62,1.26,1.26,0,0,0-1.08.62l-.25.47a6.23,6.23,0,0,0-.47,1.06,1.32,1.32,0,0,0,.13,1,1.26,1.26,0,0,0,1.71.45,1.39,1.39,0,0,0,.57-.75,2.77,2.77,0,0,1,.1-.26l-.13.3a10,10,0,0,1,.5-1h-2.16a12.58,12.58,0,0,0,.78,1l-.2-.25a2.12,2.12,0,0,1,.24.37l-.13-.3,0,.09-.05-.34a.24.24,0,0,1,0,.12l.05-.33,0,.12.12-.3a.79.79,0,0,1-.14.23l.2-.25a1.59,1.59,0,0,1-.13.13l.25-.2a.67.67,0,0,1-.18.11l.3-.12-.18,0,.33,0a.54.54,0,0,1-.18,0l.33,0-.19,0,.3.12-.12-.08.25.2a1.14,1.14,0,0,1-.19-.19l.19.25a.54.54,0,0,1-.07-.13l.13.3,0-.09.05.34a.49.49,0,0,1,0-.12l0,.33s0,0,0-.06a1.33,1.33,0,0,0-.12-1,1.31,1.31,0,0,0-.75-.58,1.26,1.26,0,0,0-1.54.87Z"/><path class="cls-8" d="M179.09,83.57a.41.41,0,0,0-.09.37,1,1,0,0,0,.19.4.7.7,0,0,0,.69.21,1,1,0,0,0,.39-.21.44.44,0,0,0,.16-.34c0-.45-.24-.87-.3-1.31A8.08,8.08,0,0,0,179.09,83.57Z"/><path class="cls-8" d="M178.2,82.69a2,2,0,0,0-.39.67,1.41,1.41,0,0,0-.07.5,2.25,2.25,0,0,0,.26.94,1.29,1.29,0,0,0,.09.16,2.25,2.25,0,0,0,.56.55,2.11,2.11,0,0,0,.43.2,1.28,1.28,0,0,0,.35.08,1.83,1.83,0,0,0,.33,0,2.87,2.87,0,0,0,.41,0l.1,0a2,2,0,0,0,.6-.3,2,2,0,0,0,.55-.54l.05-.08a1.77,1.77,0,0,0,.15-.38,1.67,1.67,0,0,0,0-.39.17.17,0,0,0,0-.1,4.86,4.86,0,0,0-.07-.55c-.07-.35-.21-.69-.26-1a1.31,1.31,0,0,0-.32-.56,1,1,0,0,0-.4-.25.91.91,0,0,0-.49-.11,1.29,1.29,0,0,0-.63.17l-.66.5a5,5,0,0,0-.64.58.9.9,0,0,0-.26.4.89.89,0,0,0-.1.48,1.25,1.25,0,0,0,1.25,1.25,1.23,1.23,0,0,0,.88-.37,5.14,5.14,0,0,1,.74-.65l-.26.2.31-.23L178.93,83c0,.4.22.78.28,1.18l-.05-.34a.83.83,0,0,1,0,.22l.05-.33,0,.08.13-.3a.47.47,0,0,1-.07.12l.19-.25a.23.23,0,0,1-.07.07l.25-.19a1.35,1.35,0,0,1-.26.15l.3-.12-.17,0,.33,0h-.23l.34,0a.59.59,0,0,1-.19,0l.3.13a.67.67,0,0,1-.14-.09l.25.2a.43.43,0,0,1-.09-.1l.19.26a1.55,1.55,0,0,1-.12-.22l.13.3a.66.66,0,0,1-.06-.2l0,.33v-.14l0,.34,0-.11-.12.3a.3.3,0,0,1,0-.08l-.2.26,0,0a.9.9,0,0,0,.26-.4,1,1,0,0,0,.11-.48,1.26,1.26,0,0,0-.37-.88,1.28,1.28,0,0,0-.88-.37l-.34.05A1.14,1.14,0,0,0,178.2,82.69Z"/><path class="cls-8" d="M80.72,76.05A2.4,2.4,0,0,1,79.87,78a5.9,5.9,0,0,1-2.15,1.15A4,4,0,0,1,74,77.74a6.11,6.11,0,0,1-1-2.2,2.39,2.39,0,0,1,.46-2.05c1.59-1.89,3.9-3,5.62-4.79A44.16,44.16,0,0,1,80.72,76.05Z"/><path class="cls-8" d="M79.47,76.05a1.43,1.43,0,0,1-.78,1.25,2.66,2.66,0,0,1-4.33-1.44,1.58,1.58,0,0,1,0-1.49A7.52,7.52,0,0,1,76,72.72a45.09,45.09,0,0,0,3.88-3.14L77.82,69c.28.89.54,1.79.78,2.69s.39,1.56.56,2.35q.12.57.21,1.14a2,2,0,0,1,0,.24c0,.15,0-.17,0,.07s0,.35,0,.53a1.28,1.28,0,0,0,1.25,1.25A1.26,1.26,0,0,0,82,76.05a34.52,34.52,0,0,0-1.73-7.69,1.27,1.27,0,0,0-2.09-.55,43.69,43.69,0,0,1-3.82,3.09c-1.32,1-2.76,2.34-2.69,4.17.13,3.27,3.57,6.33,6.85,5.12,1.8-.66,3.53-2.06,3.48-4.14A1.25,1.25,0,0,0,79.47,76.05Z"/><path class="cls-8" d="M66.63,53.18a1.08,1.08,0,0,1-.32.91,2.63,2.63,0,0,1-.94.61,1.84,1.84,0,0,1-1.77-.5,2.77,2.77,0,0,1-.56-1,1.12,1.12,0,0,1,.13-1c.66-.93,1.68-1.54,2.41-2.41A20.25,20.25,0,0,1,66.63,53.18Z"/><path class="cls-8" d="M65.38,53.18c0,.11,0,.41,0,0,0,.24.14-.21,0,0s0,.09.06-.06l-.09.1-.15.12c.17-.12.19-.14.09-.06l-.12.08L65,53.5l-.12.06c.21-.08.25-.11.13-.07l-.15,0,.18,0h-.31c.21,0,.25,0,.12,0l-.08,0-.14,0,.09,0-.2-.12.07.05a.63.63,0,0,1-.12-.1c-.16-.15,0,0,0,.07-.06-.16-.2-.31-.27-.47s.07.24,0,0a.93.93,0,0,0,0-.13c0-.1,0-.1,0,0s0,.11,0,0,0-.11,0,.1c0-.23-.15.23,0,0s-.14.16,0,0l.18-.21.39-.39a20.15,20.15,0,0,0,1.64-1.56l-2.08-.55a16,16,0,0,1,1.05,3.32,1.23,1.23,0,0,0,.57.75,1.29,1.29,0,0,0,1,.12,1.24,1.24,0,0,0,.75-.57,1.47,1.47,0,0,0,.13-1,15.54,15.54,0,0,0-1-3.31,1.34,1.34,0,0,0-.88-.88A1.23,1.23,0,0,0,64.7,49a18.17,18.17,0,0,1-1.62,1.54A3.32,3.32,0,0,0,61.74,53a3.38,3.38,0,0,0,1.45,2.5,2.93,2.93,0,0,0,2.94.27,2.72,2.72,0,0,0,1.75-2.55,1.35,1.35,0,0,0-.37-.89,1.25,1.25,0,0,0-2.13.89Z"/><path class="cls-8" d="M109,54.67a.74.74,0,0,1,.15.62,1.79,1.79,0,0,1-.31.67,1.21,1.21,0,0,1-1.16.35A1.78,1.78,0,0,1,107,56a.73.73,0,0,1-.27-.58c0-.75.4-1.44.49-2.19A13.2,13.2,0,0,1,109,54.67Z"/><path class="cls-8" d="M108.1,55.55l0,0-.2-.25a.75.75,0,0,1,.07.12l-.12-.3a1.21,1.21,0,0,1,.05.18l0-.33a.89.89,0,0,1,0,.23l0-.33a1.91,1.91,0,0,1-.1.34L108,55a2.43,2.43,0,0,1-.2.35l.2-.25a1.29,1.29,0,0,1-.17.16l.26-.2a1.58,1.58,0,0,1-.24.15l.3-.13a1.58,1.58,0,0,1-.31.09l.33,0a1.15,1.15,0,0,1-.37,0l.33,0a1.38,1.38,0,0,1-.29-.08l.3.12a2,2,0,0,1-.43-.25l.25.19-.13-.12.2.25a.82.82,0,0,1-.12-.2l.12.3,0-.14,0,.33a1.45,1.45,0,0,1,0-.36l0,.33c.09-.67.37-1.29.47-2l-1.84.74.52.39-.25-.19a8.42,8.42,0,0,1,1.23,1.08,1.24,1.24,0,0,0,1.77,0,1.22,1.22,0,0,0,.36-.88,1.36,1.36,0,0,0-.36-.88,7.64,7.64,0,0,0-1.08-1c-.3-.24-.61-.48-.93-.71a1.21,1.21,0,0,0-1.11-.06,1.17,1.17,0,0,0-.72.81c-.08.52-.26,1-.39,1.53a3.82,3.82,0,0,0-.15,1.06,2.07,2.07,0,0,0,.58,1.35,2.71,2.71,0,0,0,1.9.78,2.37,2.37,0,0,0,2-1.12,2.81,2.81,0,0,0,.37-1.05,2,2,0,0,0,0-.8,2.21,2.21,0,0,0-.46-.82,1.24,1.24,0,0,0-.89-.37,1.28,1.28,0,0,0-.88.37,1.26,1.26,0,0,0-.37.88l0,.33A1.27,1.27,0,0,0,108.1,55.55Z"/><path class="cls-8" d="M249.11,188.16a2.43,2.43,0,0,1,.57,2,5.79,5.79,0,0,1-.92,2.25,3.94,3.94,0,0,1-3.75,1.32,5.89,5.89,0,0,1-2.21-1,2.39,2.39,0,0,1-1-1.87c0-2.47,1.07-4.82,1.27-7.28A44.55,44.55,0,0,1,249.11,188.16Z"/><path class="cls-8" d="M248.22,189c.63.72-.09,2.31-.66,2.85a2.82,2.82,0,0,1-3.15.35,4.85,4.85,0,0,1-.88-.52c.15.11-.23-.25-.19-.19l-.16-.25a4.61,4.61,0,0,1,.11-2.29,55.23,55.23,0,0,0,1.07-5.42l-1.88,1.08q1.17.76,2.31,1.59c.66.46,1.26.91,1.78,1.33a16.49,16.49,0,0,1,1.65,1.47c1.11,1.17,2.88-.6,1.77-1.77a26.1,26.1,0,0,0-3.83-3.12c-.8-.57-1.6-1.12-2.42-1.65a1.26,1.26,0,0,0-1.88,1.07c-.15,1.71-.73,3.34-1,5s-.48,3.72,1.09,5a5.93,5.93,0,0,0,4.3,1.41,4.86,4.86,0,0,0,3.92-2.43c.92-1.72,1.22-3.75-.15-5.32a1.27,1.27,0,0,0-1.77,0A1.29,1.29,0,0,0,248.22,189Z"/><path class="cls-8" d="M29.17,140.39a2.43,2.43,0,0,1-.76,2,6,6,0,0,1-2.09,1.24,3.93,3.93,0,0,1-3.79-1.21,5.75,5.75,0,0,1-1.14-2.14,2.38,2.38,0,0,1,.36-2.07c1.5-2,3.75-3.21,5.39-5A44.92,44.92,0,0,1,29.17,140.39Z"/><path class="cls-8" d="M27.92,140.39a1.54,1.54,0,0,1-.8,1.4,2.71,2.71,0,0,1-1.61.66,3,3,0,0,1-2.75-2,1.5,1.5,0,0,1,0-1.48,8.38,8.38,0,0,1,1.55-1.6A43.55,43.55,0,0,0,28,134l-2.08-.55c.32.88.61,1.77.89,2.66s.47,1.53.67,2.31q.15.57.27,1.14c0,.17.07.35.1.52s0,.15,0,.22c.06.36,0-.25,0,.09a1.29,1.29,0,0,0,1.25,1.25,1.26,1.26,0,0,0,1.25-1.25,34.09,34.09,0,0,0-2.07-7.6,1.26,1.26,0,0,0-2.09-.55,43.89,43.89,0,0,1-3.61,3.2c-1.26,1.1-2.7,2.45-2.6,4.26.17,3.26,3.73,6.24,7,5,1.78-.69,3.55-2.2,3.41-4.28a1.28,1.28,0,0,0-1.25-1.25A1.26,1.26,0,0,0,27.92,140.39Z"/><path class="cls-3" d="M139.05,144.31a8.47,8.47,0,0,1,1.5-.69c-.19,0-.32.13-.05,0l.37-.14c.26-.09.51-.17.77-.24s.54-.12.81-.18c-.23,0-.28,0,0,0h.4c.08,0,.29.06.36,0-.09,0-.52-.07-.14,0s.9.13,1.35.18h.09c-.4-.05,0,0,.07,0l.68.14a13.56,13.56,0,0,1,1.41.44l.14,0c-.32-.13.07,0,.13.06.22.1.43.21.64.33s.39.25.59.36-.32-.31-.12-.1l.29.26a2.5,2.5,0,0,0,3.53-3.54,12.74,12.74,0,0,0-7.26-3c-.07,0-.5-.06-.16,0s-.16,0-.23,0c-.43-.06-.85-.14-1.28-.16a8.52,8.52,0,0,0-2.41.3,21.74,21.74,0,0,0-4,1.6,2.5,2.5,0,0,0-.89,3.42,2.57,2.57,0,0,0,3.42.89Z"/><path class="cls-3" d="M267.13,143.61a169.07,169.07,0,0,1,18.5-14.6,2.56,2.56,0,0,0,.89-3.42,2.52,2.52,0,0,0-3.42-.89,176.21,176.21,0,0,0-19.5,15.38,2.5,2.5,0,1,0,3.53,3.53Z"/><path class="cls-3" d="M23.26,136a178.6,178.6,0,0,0-19.5-15.38,2.52,2.52,0,0,0-3.42.9A2.56,2.56,0,0,0,1.23,125a169.07,169.07,0,0,1,18.5,14.6A2.5,2.5,0,1,0,23.26,136Z"/><rect class="cls-9" x="20.38" y="87.36" width="112.88" height="112.88" rx="16.66" transform="translate(4.12 -2.13) rotate(1.63)"/><g class="cls-10"><path class="cls-11" d="M63.84,151.16A311.56,311.56,0,0,1,91,123.49c2.4-2.15-1.15-5.68-3.54-3.53a310,310,0,0,0-27.19,27.66,2.55,2.55,0,0,0,0,3.54,2.52,2.52,0,0,0,3.53,0Z"/></g><g class="cls-10"><path class="cls-11" d="M76.8,163.22c.21-.28.43-.56.64-.85l.27-.34.2-.26.21-.27.27-.35.63-.79c.9-1.13,1.81-2.24,2.75-3.32a60.15,60.15,0,0,1,5.74-5.88,2.52,2.52,0,0,0,0-3.54,2.57,2.57,0,0,0-3.54,0A86.21,86.21,0,0,0,72.48,160.7a2.51,2.51,0,0,0,.9,3.42,2.57,2.57,0,0,0,3.42-.9Z"/></g><rect class="cls-9" x="151.2" y="90.1" width="112.88" height="112.88" rx="16.66" transform="translate(4.25 -5.84) rotate(1.63)"/><g class="cls-10"><path class="cls-11" d="M194.66,153.89a308.74,308.74,0,0,1,27.2-27.66c2.39-2.16-1.15-5.68-3.54-3.54a311.56,311.56,0,0,0-27.2,27.67,2.56,2.56,0,0,0,0,3.53,2.52,2.52,0,0,0,3.54,0Z"/></g><g class="cls-10"><path class="cls-11" d="M207.62,166c.21-.28.42-.57.64-.85l.26-.34.21-.27.21-.27.27-.35.63-.79q1.33-1.68,2.75-3.32a60.12,60.12,0,0,1,5.74-5.88,2.51,2.51,0,0,0,0-3.53,2.55,2.55,0,0,0-3.54,0,85.05,85.05,0,0,0-11.49,13.07,2.52,2.52,0,0,0,.9,3.43,2.58,2.58,0,0,0,3.42-.9Z"/></g></g></g></svg>