<svg xmlns="http://www.w3.org/2000/svg" xmlns:xlink="http://www.w3.org/1999/xlink" viewBox="0 0 286.86 314.54"><defs><style>.cls-1{fill:url(#radial-gradient);}.cls-2{fill:#bcdff5;}.cls-3,.cls-8{fill:#231f20;}.cls-4{fill:#be1e2d;}.cls-5{fill:#ac1f29;}.cls-6{fill:#fff;stroke:#fff;}.cls-10,.cls-6,.cls-8{stroke-miterlimit:10;}.cls-7{fill:#2e76bb;}.cls-10,.cls-8{stroke:#231f20;}.cls-9{fill:#00729e;}.cls-10{fill:#9cd9e5;fill-opacity:0.43;stroke-width:8px;}.cls-11{opacity:0.75;}.cls-12{fill:#bde4ed;}</style><radialGradient id="radial-gradient" cx="179.63" cy="74.75" r="136.45" gradientTransform="translate(-46.33 81.33) scale(1.04 0.95)" gradientUnits="userSpaceOnUse"><stop offset="0" stop-color="#a7dbda"/><stop offset="0.78" stop-color="#bcdff5"/></radialGradient></defs><title>0-veryhappy-0</title><g id="Layer_2" data-name="Layer 2"><g id="Layer_1-2" data-name="Layer 1"><path class="cls-1" d="M277.83,142.61c0,77.62-53.76,143.31-139.23,143.31S4.22,220.23,4.22,142.61,53.12,17.75,138.6,17.75,277.83,65,277.83,142.61Z"/><path class="cls-2" d="M63.3,258.59,51.15,283.07c-1.34,2.71-2.7,5.48-3,8.48-.58,5.66,2.79,11.17,7.38,14.53s10.23,4.92,15.8,6.07c7.5,1.56,16.23,2.18,21.92-2.95,2.92-2.65,4.53-6.42,5.88-10.12A131.14,131.14,0,0,0,104.87,278Z"/><path class="cls-2" d="M62.22,258c-4.38,8.84-9,17.6-13.14,26.53-1.78,3.82-2.85,7.78-1.79,12A19,19,0,0,0,53.42,306c6.15,5.28,15,7.28,22.82,8.22,7.53.9,15.52-.27,20.22-6.81,2.81-3.92,4.27-8.87,5.7-13.41a130.64,130.64,0,0,0,3.91-15.71,1.27,1.27,0,0,0-.57-1.41l-14-6.53L69.12,259.93l-5.19-2.42c-1.45-.68-2.72,1.47-1.26,2.15l14,6.53L99,276.62l5.2,2.42-.58-1.42c-.8,4.3-1.79,8.55-3,12.75a85.65,85.65,0,0,1-4.14,11.88c-1.55,3.38-3.7,6.34-7.09,8A20.52,20.52,0,0,1,79.33,312a56.51,56.51,0,0,1-10.81-1.73,36.86,36.86,0,0,1-11-4.29,18.3,18.3,0,0,1-7.19-8.16c-1.59-3.76-1.12-7.55.49-11.23,2-4.52,4.37-8.9,6.56-13.33l7-14C65.09,257.78,62.94,256.51,62.22,258Z"/><path class="cls-2" d="M151.55,263.43l-5.26,26.83c-.58,3-1.17,6-.68,9,.93,5.61,5.64,10,10.95,12.07s11.17,2.05,16.84,1.7c7.65-.48,16.23-2.17,20.36-8.63,2.13-3.32,2.69-7.38,3-11.31a131.15,131.15,0,0,0,0-21.89Z"/><path class="cls-2" d="M150.35,263.1,147.43,278c-1,4.83-2,9.67-2.83,14.53-.68,4.18-.55,8.3,1.69,12a19.18,19.18,0,0,0,8,7.12c7.42,3.65,16.69,3.24,24.67,2,7.11-1.09,14.29-4.13,17.2-11.18,1.87-4.51,2-9.71,2.22-14.52a134.42,134.42,0,0,0-.34-16.79,1.28,1.28,0,0,0-.92-1.2l-15.23-2.61-24.33-4.16-5.64-1c-1.58-.27-2.25,2.14-.67,2.41l15.23,2.61,24.33,4.16,5.64,1-.91-1.21A134.73,134.73,0,0,1,196,284.8a77.09,77.09,0,0,1-1,12.78,15.1,15.1,0,0,1-5,9.24,21.32,21.32,0,0,1-9,3.93,55.83,55.83,0,0,1-10.47,1.14,36.57,36.57,0,0,1-12.32-1.35,18.16,18.16,0,0,1-8.67-5.77,13.51,13.51,0,0,1-2.63-10.58c.65-5.05,1.9-10.07,2.88-15.06l3-15.36C153.07,262.2,150.66,261.52,150.35,263.1Z"/><path d="M127.14,221.33c2.83,4.12,7.93,9.08,12.69,9.7,6.06.79,15.72-4.61,15.72-4.61-1.48,5-1.75,11.44-4.53,16.1a16.81,16.81,0,0,1-6.07,6.19,15.3,15.3,0,0,1-10.35,1.86c-5.1-.89-8.76-6-9.75-11.52S127.14,221.33,127.14,221.33Z"/><path class="cls-3" d="M125,222.59c4.08,5.85,10.39,11.84,18.07,10.88a39.16,39.16,0,0,0,13.77-4.89l-3.68-2.83c-1.41,4.86-1.5,10.32-3.91,14.85-2.15,4-6,7.25-10.69,7.63a9.59,9.59,0,0,1-6.28-1.27,11.49,11.49,0,0,1-4-5.11,15.39,15.39,0,0,1-.94-3.1c0,.2-.16-.92-.1-.47s0-.4,0-.37c0-.48,0-.95,0-1.43a37.89,37.89,0,0,1,.53-5.73c.48-2.94,1.09-5.88,1.86-8.76.84-3.11-4-4.44-4.82-1.33a87.44,87.44,0,0,0-1.86,8.76c-.8,5-1.17,9.71.86,14.45,2.35,5.46,7,9.27,13.07,9.41a18.3,18.3,0,0,0,15-7.41c4.18-5.55,4.32-12.36,6.18-18.79a2.53,2.53,0,0,0-3.67-2.82,35.59,35.59,0,0,1-11,4.15,9.43,9.43,0,0,1-7.21-1.55,25.29,25.29,0,0,1-6.8-6.8,2.57,2.57,0,0,0-3.42-.89A2.52,2.52,0,0,0,125,222.59Z"/><path class="cls-4" d="M137.78,235.26c0-.77-.05-.61-.53-1.27a11,11,0,0,0-1.39-1.28,9.13,9.13,0,0,0-5.33-1.1,6.51,6.51,0,0,0-2.26,1.07,4.59,4.59,0,0,0-1.62,2,6.67,6.67,0,0,0-.41,2.77,10.22,10.22,0,0,0,.9,4,19.59,19.59,0,0,0,1.47,2.49,10.53,10.53,0,0,0,2,2.41,8.67,8.67,0,0,0,2.89,1.38,25.82,25.82,0,0,0,7.66,1.16,5.52,5.52,0,0,0,2-.28,5.61,5.61,0,0,0,1.88-1.4,22.86,22.86,0,0,0,2.67-3.37,6.52,6.52,0,0,0,1-3.39,17.75,17.75,0,0,0-1.31-4,7.53,7.53,0,0,0-2.46-2.08c-1.82-1.06-4.47-1.33-6-.33C137.76,234.73,137.78,235.26,137.78,235.26Z"/><path class="cls-5" d="M138,235.26c-.05-1.55-1.77-2.7-3.07-3.24a7.07,7.07,0,0,0-6-.07c-2.3,1.25-3.15,3.4-3,6a13.68,13.68,0,0,0,3.23,7.36c1.76,2.3,4.63,3,7.36,3.48,2.33.41,5.58,1.06,7.62-.45a12.61,12.61,0,0,0,4.54-6.34c.43-1.72-.22-3.52-.91-5.1-.9-2.08-3.49-3.41-5.66-3.67a5.47,5.47,0,0,0-3.19.46c-.56.3-1.44.89-1.47,1.61,0,.32.49.32.5,0,0-.74,1.4-1.31,2-1.46a6.21,6.21,0,0,1,3.2.1,6.41,6.41,0,0,1,4.29,3.39,7.63,7.63,0,0,1,.82,4.38,11.9,11.9,0,0,1-3.44,5.37,4.63,4.63,0,0,1-3.31,1.6,20.11,20.11,0,0,1-3.64-.2,16.68,16.68,0,0,1-6.61-1.89c-1.74-1.07-3.13-3.39-4-5.22-1-2.29-1.51-5.8.34-7.8a5.74,5.74,0,0,1,5.83-1.47c1.39.34,4,1.46,4,3.2C137.55,235.58,138.05,235.58,138,235.26Z"/><path class="cls-5" d="M137.53,235.26c0,1.32,0,2.65,0,4a9.14,9.14,0,0,1-.59,3.63c-.75,1.71-1.48,3.43-2.32,5.1-.14.29.29.54.43.25.88-1.74,1.68-3.56,2.44-5.36a9,9,0,0,0,.53-3.42c0-1.39,0-2.78,0-4.17a.25.25,0,0,0-.5,0Z"/><path class="cls-3" d="M116.29,6.13a87.59,87.59,0,0,1,6.21,11.43c1.11,2.29,2.2,4.6,3.19,7a24.19,24.19,0,0,1,1.7,5c.28,1.58,2.69.91,2.41-.67a25.11,25.11,0,0,0-1.75-5.09c-1-2.42-2.12-4.81-3.27-7.17a88.54,88.54,0,0,0-6.33-11.7c-.91-1.31-3.07-.06-2.16,1.27Z"/><path class="cls-3" d="M130.42,1.19c1,9.23,1.79,18.47,2.78,27.69.17,1.58,2.67,1.6,2.5,0-1-9.22-1.79-18.46-2.78-27.69-.17-1.58-2.67-1.6-2.5,0Z"/><path class="cls-3" d="M142,28.21a13.15,13.15,0,0,1,.22-4.94A66.56,66.56,0,0,1,144,15.92c.71-2.43,1.51-4.83,2.45-7.18a20.69,20.69,0,0,1,2.34-4.59c1-1.29-1.2-2.54-2.16-1.26A22.48,22.48,0,0,0,144,8.08a78.16,78.16,0,0,0-2.54,7.47,61.08,61.08,0,0,0-1.75,7.57,14.66,14.66,0,0,0-.14,5.75,1.25,1.25,0,0,0,2.41-.66Z"/><path class="cls-2" d="M28,207.21,10.77,228.42a37.54,37.54,0,0,0-5.09,7.38c-2.33,5-1.68,9.94.59,13s5.93,4.65,9.67,5.84c5,1.6,11.3,2.42,17.24-1.93,3-2.24,5.51-5.52,7.76-8.74A192.17,192.17,0,0,0,52.3,225.57Z"/><path class="cls-2" d="M27.12,206.32,10.67,226.57c-2.48,3.06-5.12,6.1-6.58,9.81a14.6,14.6,0,0,0-.17,10.76c2.48,6.07,9.83,8.8,15.85,9.77a19,19,0,0,0,9.84-.79,22.27,22.27,0,0,0,8.92-6.81,109.55,109.55,0,0,0,7.7-11q3.8-5.94,7.15-12.15a1.29,1.29,0,0,0-.45-1.71L31.67,208.43l-3-2.3c-1.28-1-2.53,1.2-1.26,2.15l21.25,16.07,3.05,2.3-.45-1.71A190.27,190.27,0,0,1,39.36,244.1a31,31,0,0,1-7.2,7.86,15.42,15.42,0,0,1-9.08,2.77,26.68,26.68,0,0,1-8.67-1.88c-2.85-1-5.8-2.56-7.46-5.22a11.58,11.58,0,0,1-.78-9.69c1.13-3.42,3.55-6.26,5.79-9l16.92-20.83C29.89,206.85,28.13,205.07,27.12,206.32Z"/><path class="cls-2" d="M258.4,210.73l15.44,22.56a37.4,37.4,0,0,1,4.46,7.77c1.92,5.15.87,10-1.65,12.95s-6.29,4.16-10.11,5c-5.15,1.18-11.46,1.49-17-3.34-2.87-2.48-5.05-6-7-9.34a191.66,191.66,0,0,1-9.82-19.32Z"/><path class="cls-2" d="M257.32,211.37l13.76,20.09c3.8,5.55,9.08,12.17,6.13,19.28a11.1,11.1,0,0,1-6.74,5.87,29.77,29.77,0,0,1-8.69,1.89,16,16,0,0,1-8.8-1.86,22.1,22.1,0,0,1-7.34-7.52,157.54,157.54,0,0,1-11.88-22.7l-.45,1.71,22.5-14.27,3.22-2.05c1.36-.86.1-3-1.26-2.16l-22.5,14.28-3.22,2a1.29,1.29,0,0,0-.45,1.71A168.44,168.44,0,0,0,243,249.63a27.68,27.68,0,0,0,7.47,8.39,17.84,17.84,0,0,0,9.52,3,30.48,30.48,0,0,0,9.43-1.44c3.24-1,6.42-2.49,8.53-5.21a13.32,13.32,0,0,0,2.54-9.22c-.34-3.93-2.15-7.38-4.3-10.62-5.44-8.23-11.14-16.3-16.71-24.44C258.58,208.78,256.41,210,257.32,211.37Z"/><circle class="cls-6" cx="81.99" cy="130.68" r="47.11"/><circle class="cls-7" cx="81.99" cy="135" r="30.68"/><circle class="cls-8" cx="81.99" cy="135.55" r="23.98"/><circle class="cls-6" cx="202" cy="133.75" r="47.11"/><circle class="cls-7" cx="202" cy="138.07" r="30.68"/><circle class="cls-8" cx="202" cy="138.61" r="23.98"/><path class="cls-2" d="M88.79,35.18l-.41-11.39A15.69,15.69,0,0,0,88,20.08a5.41,5.41,0,0,0-3.76-3.94,7.61,7.61,0,0,0-4.64.82,7.63,7.63,0,0,0-4.89,5.33,15.28,15.28,0,0,0,0,4.87,78.85,78.85,0,0,0,1.49,8.91Z"/><path class="cls-2" d="M90,35.18c-.14-3.91-.26-7.82-.42-11.73-.12-3-.74-6.25-3.58-7.9s-6.25-.4-8.74,1.18A8.68,8.68,0,0,0,73.21,24a34.19,34.19,0,0,0,.55,6.14c.3,2.11.69,4.2,1.15,6.28a1.26,1.26,0,0,0,1.21.91l12.67-.89c1.59-.11,1.61-2.61,0-2.5l-12.67.89,1.2.92q-.64-2.93-1.1-5.9A31.89,31.89,0,0,1,75.71,24c.14-3.34,2.41-5.29,5.41-6.31,1.52-.51,3.09-.63,4.33.53a6.42,6.42,0,0,1,1.64,4.55c.23,4.13.3,8.28.45,12.42C87.59,36.79,90.09,36.79,90,35.18Z"/><path class="cls-9" d="M86.74,36.51l-.3-8.42a11.74,11.74,0,0,0-.31-2.74,3.92,3.92,0,0,0-2.7-2.91,5.31,5.31,0,0,0-3.33.6A5.53,5.53,0,0,0,76.6,27a11.42,11.42,0,0,0,0,3.6,62,62,0,0,0,1.07,6.59Z"/><path class="cls-9" d="M88,36.51c-.11-2.89-.2-5.78-.31-8.67-.09-2.34-.58-4.82-2.75-6.12s-4.74-.36-6.63.86a6.77,6.77,0,0,0-3.1,5.65,26.53,26.53,0,0,0,.4,4.62c.22,1.56.5,3.1.84,4.64a1.26,1.26,0,0,0,1.2.92l9.1-.65c1.59-.12,1.6-2.62,0-2.5l-9.1.65,1.21.91a35.18,35.18,0,0,1-1.15-8.59c.08-2.27,1.56-3.63,3.61-4.34a2.52,2.52,0,0,1,2.77.31,4.52,4.52,0,0,1,1.08,3.13c.17,3.05.22,6.12.33,9.18C85.54,38.11,88,38.12,88,36.51Z"/><path class="cls-2" d="M182.46,37.13l.4-11.39a15.63,15.63,0,0,1,.43-3.71,5.4,5.4,0,0,1,3.76-3.94,7.62,7.62,0,0,1,4.64.82,7.6,7.6,0,0,1,4.88,5.33,15,15,0,0,1,0,4.87A79.21,79.21,0,0,1,195.13,38Z"/><path class="cls-2" d="M183.71,37.13c.15-4.14.21-8.29.44-12.42a6.43,6.43,0,0,1,1.65-4.55c1.23-1.16,2.81-1,4.33-.53,3,1,5.27,3,5.4,6.31a31,31,0,0,1-.51,5.85q-.44,3-1.1,5.9l1.21-.92-12.67-.89c-1.61-.11-1.6,2.39,0,2.5l12.67.89a1.24,1.24,0,0,0,1.2-.92,65.86,65.86,0,0,0,1.69-11c.16-3.12-.68-6.09-3.22-8.06-2.25-1.76-5.82-3.27-8.64-2.23s-4.2,4-4.46,7c-.38,4.34-.34,8.76-.49,13.11C181.15,38.74,183.65,38.74,183.71,37.13Z"/><path class="cls-9" d="M184.51,38.46l.3-8.42a11.74,11.74,0,0,1,.31-2.74,3.91,3.91,0,0,1,2.7-2.91,5.19,5.19,0,0,1,3.33.6,5.53,5.53,0,0,1,3.5,3.93,11.42,11.42,0,0,1,0,3.6,59,59,0,0,1-1.08,6.58Z"/><path class="cls-9" d="M185.76,38.46c.11-3.06.16-6.13.33-9.18a4.47,4.47,0,0,1,1.08-3.13,2.5,2.5,0,0,1,2.77-.31c2,.71,3.52,2.07,3.61,4.34a35.18,35.18,0,0,1-1.15,8.59l1.2-.92-9.09-.64c-1.61-.12-1.6,2.38,0,2.5l9.09.64a1.25,1.25,0,0,0,1.21-.91A50.81,50.81,0,0,0,196,31.22a7.12,7.12,0,0,0-2.39-6.17c-1.7-1.38-4.4-2.54-6.56-1.74-2.31.85-3.27,3.17-3.47,5.46-.27,3.21-.25,6.47-.36,9.69C183.2,40.06,185.7,40.06,185.76,38.46Z"/><path class="cls-3" d="M139.05,130.4a8.47,8.47,0,0,1,1.5-.69c-.19,0-.32.13-.05,0l.37-.14c.26-.09.51-.17.77-.24s.54-.12.81-.17c-.23,0-.28,0,0,0h.4a1.48,1.48,0,0,0,.36,0c-.09,0-.52-.08-.14,0s.9.14,1.35.19h.16l.68.15a13.56,13.56,0,0,1,1.41.44l.14,0c-.32-.13.07,0,.13.06.22.1.43.21.64.33s.39.24.59.36-.32-.31-.12-.1.2.17.29.25a2.5,2.5,0,0,0,3.53-3.53,12.6,12.6,0,0,0-7.26-3l-.16,0c.36.06-.16,0-.23,0a11.19,11.19,0,0,0-1.28-.16,8.51,8.51,0,0,0-2.41.29,23.25,23.25,0,0,0-4,1.6,2.5,2.5,0,0,0-.89,3.42,2.57,2.57,0,0,0,3.42.9Z"/><path class="cls-3" d="M267.13,129.7a169.07,169.07,0,0,1,18.5-14.6,2.56,2.56,0,0,0,.89-3.42,2.52,2.52,0,0,0-3.42-.9,178.6,178.6,0,0,0-19.5,15.38,2.5,2.5,0,0,0,3.53,3.54Z"/><path class="cls-3" d="M23.26,122.12a177.4,177.4,0,0,0-19.5-15.38,2.52,2.52,0,0,0-3.42.9,2.56,2.56,0,0,0,.89,3.42,167.87,167.87,0,0,1,18.5,14.6,2.56,2.56,0,0,0,3.53,0,2.53,2.53,0,0,0,0-3.54Z"/><rect class="cls-10" x="20.38" y="73.45" width="112.88" height="112.88" rx="16.66" transform="translate(3.72 -2.13) rotate(1.63)"/><g class="cls-11"><path class="cls-12" d="M63.84,137.24A312.8,312.8,0,0,1,91,109.58c2.4-2.16-1.15-5.68-3.54-3.54a311.44,311.44,0,0,0-27.19,27.67,2.54,2.54,0,0,0,0,3.53,2.5,2.5,0,0,0,3.53,0Z"/></g><g class="cls-11"><path class="cls-12" d="M76.8,149.31l.64-.85.27-.34c0-.05.39-.51.2-.27l.21-.27.27-.35.63-.78c.9-1.13,1.81-2.24,2.75-3.33a61.29,61.29,0,0,1,5.74-5.88,2.5,2.5,0,0,0,0-3.53,2.56,2.56,0,0,0-3.54,0,86.21,86.21,0,0,0-11.49,13.08,2.51,2.51,0,0,0,.9,3.42,2.58,2.58,0,0,0,3.42-.9Z"/></g><rect class="cls-10" x="151.2" y="76.18" width="112.88" height="112.88" rx="16.66" transform="translate(3.85 -5.85) rotate(1.63)"/><g class="cls-11"><path class="cls-12" d="M194.66,140a310.19,310.19,0,0,1,27.2-27.67c2.39-2.15-1.15-5.68-3.54-3.53a312.8,312.8,0,0,0-27.2,27.66,2.57,2.57,0,0,0,0,3.54,2.54,2.54,0,0,0,3.54,0Z"/></g><g class="cls-11"><path class="cls-12" d="M207.62,152.05c.21-.29.42-.57.64-.85l.26-.35s.4-.51.21-.26l.21-.27.27-.35.63-.79q1.33-1.68,2.75-3.32a60.12,60.12,0,0,1,5.74-5.88,2.53,2.53,0,0,0,0-3.54,2.57,2.57,0,0,0-3.54,0,85.13,85.13,0,0,0-11.49,13.08,2.51,2.51,0,0,0,.9,3.42,2.58,2.58,0,0,0,3.42-.89Z"/></g></g></g></svg>