<svg xmlns="http://www.w3.org/2000/svg" xmlns:xlink="http://www.w3.org/1999/xlink" viewBox="0 0 286.68 314.54"><defs><style>.cls-1{fill:url(#radial-gradient);}.cls-2{fill:#bcdff5;}.cls-3,.cls-7{fill:#231f20;}.cls-4{fill:#00729e;}.cls-5{fill:#fff;stroke:#fff;}.cls-13,.cls-5,.cls-7,.cls-8{stroke-miterlimit:10;}.cls-6{fill:#2e76bb;}.cls-7,.cls-8{stroke:#231f20;}.cls-8{fill:#9cd9e5;fill-opacity:0.43;stroke-width:8px;}.cls-9{opacity:0.75;}.cls-10{fill:#bde4ed;}.cls-11,.cls-13{fill:#763f97;}.cls-12{fill:#692c90;}.cls-13{stroke:#692c90;stroke-width:2px;}</style><radialGradient id="radial-gradient" cx="113.92" cy="149.74" r="136.45" gradientTransform="translate(22.56 10.3) scale(1.04 0.95)" gradientUnits="userSpaceOnUse"><stop offset="0" stop-color="#a7dbda"/><stop offset="0.78" stop-color="#bcdff5"/></radialGradient></defs><title>1-stressed-1</title><g id="Layer_2" data-name="Layer 2"><g id="Layer_1-2" data-name="Layer 1"><path class="cls-1" d="M278.19,142.61c0,77.62-53.77,143.31-139.24,143.31S4.57,220.23,4.57,142.61,53.48,17.75,139,17.75,278.19,65,278.19,142.61Z"/><path class="cls-2" d="M63.65,258.59,51.51,283.07c-1.34,2.71-2.71,5.48-3,8.48-.58,5.66,2.8,11.17,7.38,14.53s10.23,4.92,15.8,6.07c7.51,1.56,16.23,2.18,21.92-2.95,2.92-2.65,4.53-6.42,5.88-10.12A131.14,131.14,0,0,0,105.22,278Z"/><path class="cls-2" d="M62.57,258c-4.38,8.84-9,17.6-13.14,26.53-1.77,3.82-2.85,7.78-1.79,12A19.08,19.08,0,0,0,53.77,306c6.15,5.28,15,7.28,22.83,8.22,7.52.9,15.51-.27,20.21-6.81,2.81-3.92,4.27-8.87,5.7-13.41a132.59,132.59,0,0,0,3.92-15.71,1.29,1.29,0,0,0-.58-1.41l-14-6.53L69.48,259.93l-5.2-2.42c-1.45-.68-2.72,1.47-1.26,2.15l14,6.53L99.4,276.62l5.19,2.42-.57-1.42q-1.2,6.45-3,12.75a85.65,85.65,0,0,1-4.14,11.88c-1.55,3.38-3.7,6.34-7.09,8A20.5,20.5,0,0,1,79.68,312a56.64,56.64,0,0,1-10.81-1.73,36.86,36.86,0,0,1-11-4.29,18.3,18.3,0,0,1-7.19-8.16c-1.58-3.76-1.12-7.55.5-11.23,2-4.52,4.36-8.9,6.55-13.33l7-14C65.44,257.78,63.29,256.51,62.57,258Z"/><path class="cls-2" d="M151.91,263.43l-5.27,26.83c-.58,3-1.17,6-.67,9,.92,5.61,5.63,10,10.94,12.07s11.17,2.05,16.84,1.7c7.65-.48,16.24-2.17,20.37-8.63,2.12-3.32,2.68-7.38,3-11.31a131.15,131.15,0,0,0,0-21.89Z"/><path class="cls-2" d="M150.7,263.1,147.78,278c-.95,4.83-2,9.67-2.83,14.53-.68,4.18-.55,8.3,1.69,12a19.18,19.18,0,0,0,8,7.12c7.43,3.65,16.69,3.24,24.67,2,7.11-1.09,14.29-4.13,17.2-11.18,1.87-4.51,2-9.71,2.22-14.52a134.42,134.42,0,0,0-.34-16.79,1.28,1.28,0,0,0-.92-1.2l-15.23-2.61-24.32-4.16-5.65-1c-1.58-.27-2.25,2.14-.67,2.41l15.23,2.61,24.33,4.16,5.65,1-.92-1.21a134.73,134.73,0,0,1,.44,13.63,78.18,78.18,0,0,1-1,12.78,15.11,15.11,0,0,1-5.05,9.24,21.32,21.32,0,0,1-9,3.93,55.74,55.74,0,0,1-10.47,1.14,36.57,36.57,0,0,1-12.32-1.35,18.21,18.21,0,0,1-8.67-5.77,13.46,13.46,0,0,1-2.62-10.58c.64-5.05,1.89-10.07,2.87-15.06l3-15.36C153.42,262.2,151,261.52,150.7,263.1Z"/><path class="cls-3" d="M116.65,6.13a88.73,88.73,0,0,1,6.2,11.43c1.11,2.29,2.2,4.6,3.19,7a23.61,23.61,0,0,1,1.7,5c.28,1.58,2.69.91,2.41-.67a24.51,24.51,0,0,0-1.75-5.09c-1-2.42-2.12-4.81-3.27-7.17a88.48,88.48,0,0,0-6.32-11.7c-.91-1.31-3.08-.06-2.16,1.27Z"/><path class="cls-3" d="M130.77,1.19c1,9.23,1.79,18.47,2.78,27.69.17,1.58,2.68,1.6,2.5,0-1-9.22-1.79-18.46-2.78-27.69-.17-1.58-2.67-1.6-2.5,0Z"/><path class="cls-3" d="M142.38,28.21a13.14,13.14,0,0,1,.21-4.94,66.56,66.56,0,0,1,1.76-7.35c.71-2.43,1.51-4.83,2.46-7.18a20.23,20.23,0,0,1,2.33-4.59c1-1.29-1.2-2.54-2.16-1.26a22.48,22.48,0,0,0-2.59,5.19,78.16,78.16,0,0,0-2.54,7.47,61.08,61.08,0,0,0-1.75,7.57,14.47,14.47,0,0,0-.13,5.75,1.25,1.25,0,0,0,2.41-.66Z"/><path class="cls-2" d="M28.35,207.21,11.12,228.42A37.48,37.48,0,0,0,6,235.8c-2.34,5-1.69,9.94.58,13s5.93,4.65,9.67,5.84c5,1.6,11.3,2.42,17.24-1.93,3-2.24,5.51-5.52,7.76-8.74a190.18,190.18,0,0,0,11.36-18.45Z"/><path class="cls-2" d="M27.47,206.32,11,226.57c-2.48,3.06-5.12,6.1-6.58,9.81a14.65,14.65,0,0,0-.17,10.76c2.48,6.07,9.83,8.8,15.85,9.77a19,19,0,0,0,9.84-.79,22.14,22.14,0,0,0,8.92-6.81,109.55,109.55,0,0,0,7.7-11q3.8-5.94,7.15-12.15a1.29,1.29,0,0,0-.45-1.71L32,208.43,29,206.13c-1.28-1-2.53,1.2-1.26,2.15L49,224.35l3,2.3-.45-1.71A186.71,186.71,0,0,1,39.71,244.1a31,31,0,0,1-7.2,7.86,15.42,15.42,0,0,1-9.08,2.77,26.56,26.56,0,0,1-8.66-1.88c-2.85-1-5.81-2.56-7.46-5.22a11.54,11.54,0,0,1-.79-9.69c1.14-3.42,3.56-6.26,5.8-9l16.92-20.83C30.24,206.85,28.48,205.07,27.47,206.32Z"/><path class="cls-2" d="M258.75,210.73l15.44,22.56a37.45,37.45,0,0,1,4.47,7.77c1.92,5.15.86,10-1.65,12.95s-6.3,4.16-10.12,5c-5.15,1.18-11.46,1.49-17-3.34-2.87-2.48-5.05-6-7-9.34A191.66,191.66,0,0,1,233,227.05Z"/><path class="cls-2" d="M257.67,211.37l13.76,20.09c3.8,5.55,9.09,12.17,6.13,19.28-1.21,2.94-3.84,4.79-6.74,5.87a29.7,29.7,0,0,1-8.69,1.89,16,16,0,0,1-8.8-1.86,22.1,22.1,0,0,1-7.34-7.52,157.54,157.54,0,0,1-11.88-22.7l-.45,1.71,22.5-14.27,3.22-2.05c1.36-.86.11-3-1.26-2.16l-22.5,14.28-3.22,2a1.29,1.29,0,0,0-.45,1.71,168.44,168.44,0,0,0,11.4,21.95,27.68,27.68,0,0,0,7.47,8.39,17.87,17.87,0,0,0,9.53,3,30.46,30.46,0,0,0,9.42-1.44c3.24-1,6.42-2.49,8.54-5.21a13.31,13.31,0,0,0,2.53-9.22c-.34-3.93-2.15-7.38-4.29-10.62-5.45-8.23-11.15-16.3-16.72-24.44C258.93,208.78,256.76,210,257.67,211.37Z"/><path class="cls-2" d="M89.14,35.18l-.4-11.39a16.23,16.23,0,0,0-.43-3.71,5.4,5.4,0,0,0-3.76-3.94,7.62,7.62,0,0,0-4.64.82A7.63,7.63,0,0,0,75,22.29a15.28,15.28,0,0,0,0,4.87,78.85,78.85,0,0,0,1.49,8.91Z"/><path class="cls-2" d="M90.39,35.18c-.14-3.91-.26-7.82-.42-11.73-.12-3-.74-6.25-3.58-7.9s-6.24-.4-8.74,1.18A8.67,8.67,0,0,0,73.57,24a33.3,33.3,0,0,0,.54,6.14c.3,2.11.69,4.2,1.15,6.28a1.26,1.26,0,0,0,1.21.91l12.67-.89c1.6-.11,1.61-2.61,0-2.5l-12.67.89,1.21.92q-.66-2.93-1.11-5.9a31.88,31.88,0,0,1-.5-5.85c.13-3.34,2.4-5.29,5.4-6.31,1.52-.51,3.09-.63,4.33.53a6.42,6.42,0,0,1,1.64,4.55c.24,4.13.3,8.28.45,12.42C88,36.79,90.45,36.79,90.39,35.18Z"/><path class="cls-4" d="M87.09,36.51l-.3-8.42a11.74,11.74,0,0,0-.31-2.74,3.92,3.92,0,0,0-2.7-2.91,5.33,5.33,0,0,0-3.33.6A5.53,5.53,0,0,0,77,27a11.42,11.42,0,0,0,0,3.6A59.56,59.56,0,0,0,78,37.16Z"/><path class="cls-4" d="M88.34,36.51c-.1-2.89-.19-5.78-.31-8.67-.09-2.34-.58-4.82-2.75-6.12s-4.74-.36-6.63.86a6.8,6.8,0,0,0-3.1,5.65A25.6,25.6,0,0,0,76,32.85c.21,1.56.49,3.1.83,4.64a1.27,1.27,0,0,0,1.21.92l9.09-.65c1.59-.12,1.61-2.62,0-2.5L78,35.91l1.2.91a35.18,35.18,0,0,1-1.15-8.59c.09-2.27,1.57-3.63,3.61-4.34a2.51,2.51,0,0,1,2.77.31,4.47,4.47,0,0,1,1.08,3.13c.17,3.05.22,6.12.33,9.18C85.89,38.11,88.4,38.12,88.34,36.51Z"/><path class="cls-2" d="M182.81,37.13l.4-11.39a16.17,16.17,0,0,1,.43-3.71,5.4,5.4,0,0,1,3.76-3.94,7.62,7.62,0,0,1,4.64.82,7.63,7.63,0,0,1,4.89,5.33,15.28,15.28,0,0,1,0,4.87A79.23,79.23,0,0,1,195.48,38Z"/><path class="cls-2" d="M184.06,37.13c.15-4.14.21-8.29.45-12.42a6.38,6.38,0,0,1,1.64-4.55c1.24-1.16,2.81-1,4.33-.53,3,1,5.27,3,5.4,6.31a31.88,31.88,0,0,1-.5,5.85q-.45,3-1.11,5.9l1.21-.92-12.67-.89c-1.61-.11-1.6,2.39,0,2.5l12.67.89a1.24,1.24,0,0,0,1.2-.92,65.86,65.86,0,0,0,1.69-11c.16-3.12-.68-6.09-3.21-8.06-2.26-1.76-5.82-3.27-8.65-2.23s-4.2,4-4.46,7c-.37,4.34-.34,8.76-.49,13.11C181.5,38.74,184,38.74,184.06,37.13Z"/><path class="cls-4" d="M184.86,38.46l.3-8.42a11.74,11.74,0,0,1,.31-2.74,3.92,3.92,0,0,1,2.7-2.91,5.19,5.19,0,0,1,3.33.6,5.53,5.53,0,0,1,3.5,3.93,11.42,11.42,0,0,1,0,3.6A59,59,0,0,1,194,39.1Z"/><path class="cls-4" d="M186.11,38.46c.11-3.06.16-6.13.33-9.18a4.47,4.47,0,0,1,1.08-3.13,2.5,2.5,0,0,1,2.77-.31c2,.71,3.52,2.07,3.61,4.34a35.18,35.18,0,0,1-1.15,8.59l1.2-.92-9.09-.64c-1.6-.12-1.6,2.38,0,2.5l9.09.64a1.25,1.25,0,0,0,1.21-.91,50.81,50.81,0,0,0,1.23-8.22A7.12,7.12,0,0,0,194,25.05c-1.7-1.38-4.39-2.54-6.56-1.74s-3.27,3.17-3.46,5.46c-.28,3.21-.25,6.47-.37,9.69C183.55,40.06,186.05,40.06,186.11,38.46Z"/><circle class="cls-5" cx="84.28" cy="129.72" r="47.11"/><circle class="cls-6" cx="74.34" cy="118.42" r="30.68"/><circle class="cls-7" cx="74.34" cy="118.97" r="23.98"/><path class="cls-2" d="M36.45,116.2C33.89,100,51.51,83.81,75.81,80s46.08,6.14,48.64,22.3"/><circle class="cls-5" cx="204.29" cy="132.78" r="47.11"/><circle class="cls-6" cx="196.29" cy="119.1" r="30.68"/><circle class="cls-7" cx="196.29" cy="119.65" r="23.98"/><path class="cls-2" d="M163.22,103.44c2.56-16.17,24.34-26.15,48.64-22.3s41.92,20.07,39.36,36.23"/><path class="cls-3" d="M127.07,247.69c.09-.21.55-.8.13-.3a10.72,10.72,0,0,1,.8-.85,14.44,14.44,0,0,1,2.19-1.76,15.24,15.24,0,0,1,7-2.75c4.62-.41,9.68,2.62,11.77,6.43,1.55,2.82,5.87.3,4.32-2.53-3-5.44-9.89-9.38-16.09-8.9a20,20,0,0,0-9.38,3.34c-1.73,1.14-4.18,2.79-5,4.79a2.57,2.57,0,0,0,.9,3.42,2.52,2.52,0,0,0,3.42-.89Z"/><path class="cls-3" d="M139.77,139.55c.48-.26,1-.52,1.46-.76a7.79,7.79,0,0,1,.72-.34c-.51.18.17,0,.34-.1a8,8,0,0,1,.81-.21c.25-.07.21,0,0,0l.39,0c.53,0,1.06.08,1.59.12l.66.06c.33,0-.5-.1-.16,0l.35.06a14.29,14.29,0,0,1,1.43.37l.7.25c.33.11-.39-.19-.08,0l.32.15c.2.11.41.22.6.34a2.68,2.68,0,0,0,.28.18c.27.14-.47-.39-.08-.06A2.5,2.5,0,0,0,152.6,136a12.7,12.7,0,0,0-7.37-2.75c-.55,0-1.12-.13-1.67-.13a8.48,8.48,0,0,0-2.4.38,21.86,21.86,0,0,0-3.92,1.76,2.51,2.51,0,0,0-.89,3.42,2.57,2.57,0,0,0,3.42.9Z"/><path class="cls-3" d="M267.69,132.75a169.85,169.85,0,0,1,17.76-15.49,2.58,2.58,0,0,0,.89-3.42,2.51,2.51,0,0,0-3.42-.89,175.86,175.86,0,0,0-18.76,16.27c-2.28,2.27,1.25,5.81,3.53,3.53Z"/><path class="cls-3" d="M23.91,136.82a178.34,178.34,0,0,0-20.2-14.45C1,120.68-1.56,125,1.18,126.69a169,169,0,0,1,19.19,13.67,2.57,2.57,0,0,0,3.54,0,2.54,2.54,0,0,0,0-3.54Z"/><rect class="cls-8" x="21.25" y="85.5" width="112.88" height="112.88" rx="16.66" transform="translate(-2.73 1.53) rotate(-1.11)"/><g class="cls-9"><path class="cls-10" d="M65,150a312.48,312.48,0,0,1,25.85-28.94c2.29-2.26-1.25-5.8-3.54-3.53a310.82,310.82,0,0,0-25.84,28.93,2.57,2.57,0,0,0,0,3.54A2.52,2.52,0,0,0,65,150Z"/></g><g class="cls-9"><path class="cls-10" d="M78.54,161.45c.76-1.13,1.54-2.25,2.34-3.35q.62-.87,1.26-1.71c.21-.29.42-.57.64-.85,0,0,.3-.4.16-.22s.26-.32.25-.31a59.83,59.83,0,0,1,5.44-6.14,2.52,2.52,0,0,0,0-3.54,2.54,2.54,0,0,0-3.53,0,85.41,85.41,0,0,0-10.88,13.6,2.51,2.51,0,0,0,.9,3.42,2.56,2.56,0,0,0,3.42-.9Z"/></g><rect class="cls-8" x="152.05" y="81.99" width="112.88" height="112.88" rx="16.66" transform="translate(-2.64 4.06) rotate(-1.11)"/><g class="cls-9"><path class="cls-10" d="M195.79,146.48a312.36,312.36,0,0,1,25.85-28.93c2.29-2.27-1.25-5.8-3.54-3.54A310.94,310.94,0,0,0,192.26,143a2.56,2.56,0,0,0,0,3.53,2.5,2.5,0,0,0,3.53,0Z"/></g><g class="cls-9"><path class="cls-10" d="M209.33,157.93c.77-1.12,1.55-2.24,2.35-3.35l1.25-1.71.65-.85s.3-.4.16-.22.26-.32.24-.31a61.14,61.14,0,0,1,5.45-6.14,2.5,2.5,0,0,0,0-3.53,2.54,2.54,0,0,0-3.53,0A84.89,84.89,0,0,0,205,155.41a2.52,2.52,0,0,0,.89,3.42,2.56,2.56,0,0,0,3.42-.9Z"/></g><path class="cls-11" d="M136.4,32.91c1.48,2.64,3,5.71,5.58,7.06a15.93,15.93,0,0,0,6.42,1.35c7.06.41,21.7-.44,21.7-.44l-6.81-28.11,0,.12c-.37-1.59-1.87-3.15-3.66-2.78a16.67,16.67,0,0,0-4.86,2.26,46.08,46.08,0,0,1-7.16,2.91c-5.7,2.08-9,7.57-11.8,13l-2,2.36Z"/><path class="cls-12" d="M135.32,33.54c1.49,2.68,3,5.72,5.72,7.34s6.28,1.69,9.43,1.77c5.2.13,10.42-.08,15.62-.32,1.34-.06,2.68-.12,4-.2a1.26,1.26,0,0,0,1.21-1.58l-6.82-28.11-2.41.66,0,.13c.56,1.47,2.85.91,2.41-.67A5.07,5.07,0,0,0,161.35,9c-1.83-.56-3.78.4-5.36,1.27a43.15,43.15,0,0,1-6.1,2.91,27.77,27.77,0,0,0-5.53,2.35A24,24,0,0,0,137,23.6c-.79,1.3-1.41,2.81-2.27,4-.52.74-1.16,1.41-1.73,2.1a1.27,1.27,0,0,0,0,1.77l2.51,2.31c1.18,1.08,2.95-.68,1.77-1.77l-2.52-2.31v1.77l1.5-1.81A17.81,17.81,0,0,0,138,26.85,28.79,28.79,0,0,1,143.84,19c2.75-2.43,6.29-3.12,9.57-4.56,1.71-.75,3.23-1.85,4.93-2.6a3.45,3.45,0,0,1,2.35-.46,2.6,2.6,0,0,1,1.44,1.84l2.41-.67,0-.12a1.25,1.25,0,0,0-2.41.66l6.82,28.11,1.2-1.58q-7,.4-14,.53a75.09,75.09,0,0,1-9.72-.25,8.61,8.61,0,0,1-5.74-2.58,25.93,25.93,0,0,1-3.19-5C136.7,30.87,134.54,32.13,135.32,33.54Z"/><path class="cls-11" d="M130.81,33.21c-1.18,2.78-2.34,6-4.79,7.62a15.89,15.89,0,0,1-6.23,2c-7,1.16-21.63,1.89-21.63,1.89l3.76-28.68,0,.13c.2-1.63,1.52-3.34,3.35-3.17a17,17,0,0,1,5.07,1.73,47,47,0,0,0,7.42,2.13c5.9,1.46,9.73,6.57,13.13,11.62l2.2,2.14Z"/><path class="cls-12" d="M129.73,32.58a30.57,30.57,0,0,1-2.58,5.34,8.39,8.39,0,0,1-5.25,3.25,66.54,66.54,0,0,1-9.64,1.34c-4.69.43-9.4.75-14.1,1l1.25,1.25,3.76-28.68c.19-1.42-2.1-1.66-2.45-.33l0,.13,2.41.66a2.25,2.25,0,0,1,3.14-2.05c1.89.48,3.59,1.52,5.44,2.13,3.41,1.13,7,1.39,10,3.43a27.23,27.23,0,0,1,6.74,7.17,18.54,18.54,0,0,0,2.05,2.69l1.68,1.63V29.76l-2.25,2.57c-1.06,1.2.7,3,1.76,1.77l2.25-2.57a1.28,1.28,0,0,0,0-1.77c-.64-.63-1.33-1.23-1.95-1.89-1-1.13-1.83-2.59-2.77-3.81A23.56,23.56,0,0,0,121,16.77a28.39,28.39,0,0,0-5.63-1.72A41.8,41.8,0,0,1,109,12.82c-1.7-.72-3.83-1.53-5.64-.68a5,5,0,0,0-2.66,3.73c-.26,1.55,2,2.25,2.41.66l0-.13-2.46-.33L96.91,44.75A1.25,1.25,0,0,0,98.16,46c3.52-.18,7-.41,10.55-.69,2.73-.22,5.46-.46,8.18-.79,3-.37,6.15-.71,8.87-2.1,3.37-1.72,4.74-5.28,6.13-8.58C132.51,32.38,130.35,31.1,129.73,32.58Z"/><circle class="cls-13" cx="133.4" cy="30.55" r="7.62"/></g></g></svg>