<svg xmlns="http://www.w3.org/2000/svg" xmlns:xlink="http://www.w3.org/1999/xlink" viewBox="0 0 286.86 362.19"><defs><style>.cls-1{fill:url(#radial-gradient);}.cls-2{fill:#bcdff5;}.cls-3{fill:#00729e;}.cls-4,.cls-7{fill:#231f20;}.cls-5{fill:#fff;stroke:#fff;}.cls-13,.cls-5,.cls-7,.cls-8{stroke-miterlimit:10;}.cls-6{fill:#2e76bb;}.cls-7,.cls-8{stroke:#231f20;}.cls-8{fill:#9cd9e5;fill-opacity:0.43;stroke-width:8px;}.cls-9{opacity:0.75;}.cls-10{fill:#bde4ed;}.cls-11,.cls-13{fill:#1b191d;}.cls-12{fill:#150e1d;}.cls-13{stroke:#150e1d;}.cls-14{fill:#faaf40;}</style><radialGradient id="radial-gradient" cx="64.48" cy="120.7" r="136.45" gradientTransform="translate(73.77 85.46) scale(1.04 0.95)" gradientUnits="userSpaceOnUse"><stop offset="0" stop-color="#a7dbda"/><stop offset="0.78" stop-color="#bcdff5"/></radialGradient></defs><title>2-veryhappy-1</title><g id="Layer_2" data-name="Layer 2"><g id="Layer_1-2" data-name="Layer 1"><path class="cls-1" d="M277.83,190.27c0,77.61-53.76,143.31-139.23,143.31S4.22,267.88,4.22,190.27,53.12,65.41,138.6,65.41,277.83,112.65,277.83,190.27Z"/><path class="cls-2" d="M63.3,306.24,51.15,330.73c-1.34,2.7-2.7,5.48-3,8.48-.58,5.65,2.79,11.17,7.38,14.53s10.23,4.91,15.8,6.07c7.5,1.55,16.23,2.18,21.92-3,2.92-2.64,4.53-6.41,5.88-10.12a130.58,130.58,0,0,0,5.75-21.12Z"/><path class="cls-2" d="M62.22,305.61c-4.38,8.83-9,17.59-13.14,26.53-1.78,3.81-2.85,7.77-1.79,11.95a19,19,0,0,0,6.13,9.56c6.15,5.29,15,7.29,22.82,8.23,7.53.9,15.52-.27,20.22-6.82,2.81-3.91,4.27-8.86,5.7-13.41a130.64,130.64,0,0,0,3.91-15.71,1.28,1.28,0,0,0-.57-1.41l-14-6.53L69.12,307.58l-5.19-2.42c-1.45-.67-2.72,1.48-1.26,2.16l14,6.53L99,324.27l5.2,2.42-.58-1.41c-.8,4.29-1.79,8.55-3,12.74a85.78,85.78,0,0,1-4.14,11.89c-1.55,3.37-3.7,6.34-7.09,8a20.75,20.75,0,0,1-10.09,1.7,55.76,55.76,0,0,1-10.81-1.74,36.59,36.59,0,0,1-11-4.29,18.28,18.28,0,0,1-7.19-8.15c-1.59-3.77-1.12-7.56.49-11.23,2-4.53,4.37-8.91,6.56-13.33l7-14C65.09,305.43,62.94,304.17,62.22,305.61Z"/><path class="cls-2" d="M151.55,311.09l-5.26,26.82c-.58,3-1.17,6-.68,9,.93,5.61,5.64,10,10.95,12.08s11.17,2.05,16.84,1.69c7.65-.47,16.23-2.17,20.36-8.62,2.13-3.32,2.69-7.39,3-11.31a131.15,131.15,0,0,0,0-21.89Z"/><path class="cls-2" d="M150.35,310.76l-2.92,14.87c-1,4.84-2,9.67-2.83,14.54-.68,4.18-.55,8.3,1.69,12a19.14,19.14,0,0,0,8,7.13c7.42,3.65,16.69,3.23,24.67,2,7.11-1.09,14.29-4.13,17.2-11.19,1.87-4.51,2-9.7,2.22-14.52a134.26,134.26,0,0,0-.34-16.78,1.29,1.29,0,0,0-.92-1.21L181.86,315l-24.33-4.16-5.64-1c-1.58-.27-2.25,2.14-.67,2.41l15.23,2.61,24.33,4.17,5.64,1-.91-1.2a134.53,134.53,0,0,1,.44,13.62,76.93,76.93,0,0,1-1,12.78,15.1,15.1,0,0,1-5,9.24,21.34,21.34,0,0,1-9,3.94,56.67,56.67,0,0,1-10.47,1.13,36.57,36.57,0,0,1-12.32-1.34,18.24,18.24,0,0,1-8.67-5.77,13.53,13.53,0,0,1-2.63-10.58c.65-5.05,1.9-10.07,2.88-15.07l3-15.36C153.07,309.85,150.66,309.18,150.35,310.76Z"/><path class="cls-2" d="M28,254.86,10.77,276.08a37.24,37.24,0,0,0-5.09,7.38c-2.33,5-1.68,9.93.59,13s5.93,4.65,9.67,5.84c5,1.61,11.3,2.43,17.24-1.93,3-2.24,5.51-5.51,7.76-8.74A192,192,0,0,0,52.3,273.23Z"/><path class="cls-2" d="M27.12,254,10.67,274.23c-2.48,3-5.12,6.1-6.58,9.8a14.6,14.6,0,0,0-.17,10.76c2.48,6.08,9.83,8.81,15.85,9.78a19,19,0,0,0,9.84-.8A22.18,22.18,0,0,0,38.53,297a108.41,108.41,0,0,0,7.7-11q3.8-5.94,7.15-12.14a1.29,1.29,0,0,0-.45-1.71L31.67,256.08l-3-2.3c-1.28-1-2.53,1.2-1.26,2.16L48.62,272l3.05,2.3-.45-1.71a191.4,191.4,0,0,1-11.86,19.16,31.14,31.14,0,0,1-7.2,7.85,15.35,15.35,0,0,1-9.08,2.77,26.66,26.66,0,0,1-8.67-1.87c-2.85-1.05-5.8-2.57-7.46-5.23a11.56,11.56,0,0,1-.78-9.68c1.13-3.43,3.55-6.27,5.79-9l16.92-20.83C29.89,254.51,28.13,252.73,27.12,254Z"/><path class="cls-2" d="M258.4,258.39l15.44,22.55a37.47,37.47,0,0,1,4.46,7.78c1.92,5.14.87,10-1.65,12.95s-6.29,4.15-10.11,5c-5.15,1.18-11.46,1.49-17-3.33-2.87-2.49-5.05-5.95-7-9.35a190.45,190.45,0,0,1-9.82-19.31Z"/><path class="cls-2" d="M257.32,259l13.76,20.09c3.8,5.56,9.08,12.17,6.13,19.28a11.1,11.1,0,0,1-6.74,5.87,29.79,29.79,0,0,1-8.69,1.9,16.09,16.09,0,0,1-8.8-1.87,22,22,0,0,1-7.34-7.52,157.43,157.43,0,0,1-11.88-22.69l-.45,1.71,22.5-14.28,3.22-2c1.36-.86.1-3-1.26-2.16l-22.5,14.27-3.22,2.05a1.29,1.29,0,0,0-.45,1.71,169.08,169.08,0,0,0,11.4,22,27.65,27.65,0,0,0,7.47,8.38,17.67,17.67,0,0,0,9.52,3,30.19,30.19,0,0,0,9.43-1.44c3.24-1,6.42-2.48,8.53-5.21a13.28,13.28,0,0,0,2.54-9.21c-.34-3.94-2.15-7.38-4.3-10.63-5.44-8.22-11.14-16.29-16.71-24.43C258.58,256.44,256.41,257.69,257.32,259Z"/><path class="cls-2" d="M88.79,82.84l-.41-11.39A15.72,15.72,0,0,0,88,67.73,5.38,5.38,0,0,0,84.2,63.8a7.6,7.6,0,0,0-4.64.81A7.65,7.65,0,0,0,74.67,70a15.28,15.28,0,0,0,0,4.87,79.23,79.23,0,0,0,1.49,8.91Z"/><path class="cls-2" d="M90,82.84c-.14-3.91-.26-7.83-.42-11.74-.12-3-.74-6.24-3.58-7.89s-6.25-.4-8.74,1.17a8.69,8.69,0,0,0-4.09,7.27,34.08,34.08,0,0,0,.55,6.13c.3,2.11.69,4.2,1.15,6.28a1.27,1.27,0,0,0,1.21.92l12.67-.89c1.59-.12,1.61-2.62,0-2.5l-12.67.89,1.2.92q-.64-2.94-1.1-5.91a31.85,31.85,0,0,1-.51-5.84c.14-3.35,2.41-5.29,5.41-6.31,1.52-.52,3.09-.63,4.33.52a6.46,6.46,0,0,1,1.64,4.56c.23,4.13.3,8.28.45,12.42C87.59,84.44,90.09,84.45,90,82.84Z"/><path class="cls-3" d="M86.74,84.16l-.3-8.41A11.89,11.89,0,0,0,86.13,73a4,4,0,0,0-2.7-2.91,5.31,5.31,0,0,0-3.33.6,5.54,5.54,0,0,0-3.5,3.94,11.42,11.42,0,0,0,0,3.6,61.8,61.8,0,0,0,1.07,6.58Z"/><path class="cls-3" d="M88,84.16c-.11-2.89-.2-5.78-.31-8.67-.09-2.33-.58-4.82-2.75-6.12s-4.74-.36-6.63.87a6.77,6.77,0,0,0-3.1,5.64,26.44,26.44,0,0,0,.4,4.62c.22,1.56.5,3.11.84,4.64a1.25,1.25,0,0,0,1.2.92l9.1-.65c1.59-.11,1.6-2.61,0-2.5l-9.1.65,1.21.92a35.2,35.2,0,0,1-1.15-8.6c.08-2.27,1.56-3.62,3.61-4.34a2.53,2.53,0,0,1,2.77.31A4.53,4.53,0,0,1,85.16,75c.17,3.06.22,6.12.33,9.18C85.54,85.77,88,85.77,88,84.16Z"/><path class="cls-4" d="M162.73,266.46c-2,4-3.65,8.3-6.55,11.81a17,17,0,0,1-5.92,4.81,23.77,23.77,0,0,1-6.61,1.86,29.51,29.51,0,0,1-12-1,24.56,24.56,0,0,1-6.44-2.62,13.63,13.63,0,0,1-4-4.18c-2.53-3.93-4.16-8.33-5.82-12.67a2.58,2.58,0,0,0-3.08-1.75,2.52,2.52,0,0,0-1.74,3.08,80.12,80.12,0,0,0,5.8,13,20.64,20.64,0,0,0,4.5,5.55,23.26,23.26,0,0,0,7.29,3.75c9.59,3.25,22,3.19,29.67-4.24,4.35-4.18,6.61-9.59,9.22-14.88a2.56,2.56,0,0,0-.89-3.42,2.52,2.52,0,0,0-3.42.9Z"/><circle class="cls-5" cx="80.09" cy="176.98" r="47.11"/><circle class="cls-6" cx="70.14" cy="165.68" r="30.68"/><circle class="cls-7" cx="70.14" cy="166.23" r="23.98"/><circle class="cls-5" cx="200.1" cy="180.04" r="47.11"/><circle class="cls-6" cx="192.1" cy="166.36" r="30.68"/><circle class="cls-7" cx="192.1" cy="166.91" r="23.98"/><path class="cls-4" d="M139.05,177.05a7.77,7.77,0,0,1,1.5-.68c-.19,0-.32.12-.05,0l.37-.14c.26-.09.51-.17.77-.24l.81-.18c-.23,0-.28,0,0,0h.4c.08,0,.29.06.36,0-.09,0-.52-.08-.14,0l1.35.18h.09c-.4,0,0,0,.07,0s.46.09.68.15a11.47,11.47,0,0,1,1.41.43c.06,0,.46.18.14.05s.07,0,.13.06c.22.1.43.21.64.33s.39.25.59.36-.32-.31-.12-.1l.29.26a2.5,2.5,0,0,0,3.53-3.54,12.74,12.74,0,0,0-7.26-3c-.07,0-.5-.06-.16,0s-.16,0-.23,0c-.43-.06-.85-.13-1.28-.16a8.9,8.9,0,0,0-2.41.3,21.74,21.74,0,0,0-4,1.6,2.5,2.5,0,0,0-.89,3.42,2.56,2.56,0,0,0,3.42.89Z"/><path class="cls-4" d="M267.13,176.35a169.07,169.07,0,0,1,18.5-14.6,2.56,2.56,0,0,0,.89-3.42,2.52,2.52,0,0,0-3.42-.89,176.21,176.21,0,0,0-19.5,15.38,2.5,2.5,0,0,0,3.53,3.53Z"/><path class="cls-4" d="M23.26,168.78A176.21,176.21,0,0,0,3.76,153.4a2.52,2.52,0,0,0-3.42.89,2.56,2.56,0,0,0,.89,3.42,169.07,169.07,0,0,1,18.5,14.6,2.54,2.54,0,0,0,3.53,0,2.51,2.51,0,0,0,0-3.53Z"/><rect class="cls-8" x="20.38" y="120.1" width="112.88" height="112.88" rx="16.66" transform="translate(5.05 -2.11) rotate(1.63)"/><g class="cls-9"><path class="cls-10" d="M63.84,183.9A311.56,311.56,0,0,1,91,156.23c2.4-2.15-1.15-5.68-3.54-3.53a312.69,312.69,0,0,0-27.19,27.66,2.55,2.55,0,0,0,0,3.54,2.52,2.52,0,0,0,3.53,0Z"/></g><g class="cls-9"><path class="cls-10" d="M76.8,196c.21-.29.43-.57.64-.85l.27-.35.2-.26.21-.27.27-.35.63-.79c.9-1.12,1.81-2.23,2.75-3.32a61.29,61.29,0,0,1,5.74-5.88,2.52,2.52,0,0,0,0-3.54,2.57,2.57,0,0,0-3.54,0,86.21,86.21,0,0,0-11.49,13.08,2.51,2.51,0,0,0,.9,3.42A2.58,2.58,0,0,0,76.8,196Z"/></g><rect class="cls-8" x="151.2" y="122.84" width="112.88" height="112.88" rx="16.66" transform="translate(5.18 -5.83) rotate(1.63)"/><g class="cls-9"><path class="cls-10" d="M194.66,186.63A311.42,311.42,0,0,1,221.86,159c2.39-2.16-1.15-5.68-3.54-3.54a311.56,311.56,0,0,0-27.2,27.67,2.56,2.56,0,0,0,0,3.53,2.52,2.52,0,0,0,3.54,0Z"/></g><g class="cls-9"><path class="cls-10" d="M207.62,198.7c.21-.28.42-.57.64-.85l.26-.34.21-.27.21-.27.27-.35.63-.79q1.33-1.68,2.75-3.32a60.12,60.12,0,0,1,5.74-5.88,2.51,2.51,0,0,0,0-3.53,2.56,2.56,0,0,0-3.54,0,85.13,85.13,0,0,0-11.49,13.08,2.51,2.51,0,0,0,.9,3.42,2.58,2.58,0,0,0,3.42-.9Z"/></g><path class="cls-11" d="M141.79,39.35a87.84,87.84,0,0,0-17.11,28.59l-.13.29c6.72,9.3,14.2,18.36,23.9,24.49s21.14,9,32.43,11.28c5.38,1.08,10.87,2,16.34,1.61a62.06,62.06,0,0,0,11.56-2.42c7.21-2,14.67-4.3,20.2-9.35l.37.16a312.48,312.48,0,0,0,3.36-45.83"/><path class="cls-12" d="M140,37.58A92.43,92.43,0,0,0,129.6,51.75c-1.47,2.46-2.81,5-4,7.59s-2.12,5.38-3.18,7.63a2.52,2.52,0,0,0,0,2.52,121.62,121.62,0,0,0,15.12,17.85,65.24,65.24,0,0,0,20.09,12.78c7.57,3.08,15.57,4.91,23.56,6.48a69.54,69.54,0,0,0,13.17,1.62,49.91,49.91,0,0,0,13.06-2c8.28-2.24,16.84-4.71,23.36-10.57l-3,.39.37.17c1.29.59,3.42.26,3.67-1.49a321.71,321.71,0,0,0,3.45-46.5c0-3.22-5-3.23-5,0a311.76,311.76,0,0,1-3.27,45.17l3.67-1.49-.37-.17a2.6,2.6,0,0,0-3,.39c-5.21,4.68-12.11,6.74-18.71,8.6a58.57,58.57,0,0,1-11.77,2.48,49.67,49.67,0,0,1-12.1-1c-14.87-2.72-30-6.55-41.7-16.69-6.23-5.41-11.41-11.88-16.23-18.53v2.52c1.14-2.42,2-5,3.09-7.43s2.48-5,3.9-7.41a85,85,0,0,1,9.86-13.53c2.13-2.39-1.39-5.94-3.54-3.54Z"/><polygon class="cls-13" points="182.54 68.86 111.89 15.56 190.63 0.53 271.38 53.36 182.54 68.86"/><path class="cls-14" d="M189.39,33c16,1.09,31,7.81,44.29,16.44a201.93,201.93,0,0,1,17.45,12.76,33.31,33.31,0,0,1,6.65,6.66,11.08,11.08,0,0,1,1.8,3.78,7.27,7.27,0,0,1-.49,4.14c-3,9.27-3.27,19.13-3.54,28.78a1.25,1.25,0,0,0,2.5,0c.25-9.06.45-18.26,3.1-27a14.59,14.59,0,0,0,1.08-4.86,10.44,10.44,0,0,0-1.11-4.09,24.43,24.43,0,0,0-6.05-7.33c-2.32-2.08-4.83-3.94-7.3-5.85-3.25-2.51-6.56-4.94-10-7.25a127.93,127.93,0,0,0-21.66-12,83,83,0,0,0-26.76-6.66c-1.61-.11-1.6,2.39,0,2.5Z"/><path class="cls-14" d="M260.34,73.73c3.91,3.11,5.62,7.91,6.56,12.67a53.59,53.59,0,0,1,.39,18.39c-.24,1.58,2.17,2.26,2.41.67a57.35,57.35,0,0,0-.39-19.73c-1-5.13-3-10.41-7.2-13.77-1.25-1-3,.77-1.77,1.77Z"/><path class="cls-14" d="M260.63,75.18a171.49,171.49,0,0,1,1.29,28.65c-.07,1.61,2.43,1.6,2.5,0a171.49,171.49,0,0,0-1.29-28.65c-.2-1.57-2.7-1.59-2.5,0Z"/><path class="cls-14" d="M261.27,77.35c-3,8.3-5.85,18.11.14,25.81,1,1.27,2.74-.51,1.77-1.76-5.32-6.85-2.09-16.17.5-23.39.54-1.51-1.87-2.17-2.41-.66Z"/><path class="cls-14" d="M262.05,78.16c4.51,7.5,7.68,17.24,2.45,25.23-.88,1.35,1.28,2.61,2.16,1.27,5.72-8.75,2.51-19.52-2.46-27.76a1.25,1.25,0,0,0-2.15,1.26Z"/><path class="cls-14" d="M262.49,82.53a30.81,30.81,0,0,0,3.33,14.25c.73,1.44,2.89.17,2.16-1.26a28,28,0,0,1-3-13,1.25,1.25,0,0,0-2.5,0Z"/></g></g></svg>