<svg xmlns="http://www.w3.org/2000/svg" xmlns:xlink="http://www.w3.org/1999/xlink" viewBox="0 0 406.32 329.57"><defs><style>.cls-1{fill:url(#radial-gradient);}.cls-2{fill:#bcdff5;}.cls-3,.cls-6{fill:#231f20;}.cls-11,.cls-4{fill:#fff;}.cls-4{stroke:#fff;}.cls-14,.cls-4,.cls-6,.cls-8{stroke-miterlimit:10;}.cls-5{fill:#2e76bb;}.cls-6,.cls-8{stroke:#231f20;}.cls-7{fill:#00729e;}.cls-8{fill:#9cd9e5;fill-opacity:0.43;stroke-width:8px;}.cls-9{opacity:0.75;}.cls-10{fill:#bde4ed;}.cls-12,.cls-14{fill:#1b191d;}.cls-13{fill:#150e1d;}.cls-14{stroke:#150e1d;}.cls-15{fill:#faaf40;}</style><radialGradient id="radial-gradient" cx="-975.37" cy="912.49" r="136.45" gradientTransform="matrix(-1.04, -0.01, 0.01, -0.95, -877.79, 1022.19)" gradientUnits="userSpaceOnUse"><stop offset="0" stop-color="#a7dbda"/><stop offset="0.78" stop-color="#bcdff5"/></radialGradient></defs><title>2-veryhappy-2</title><g id="Layer_2" data-name="Layer 2"><g id="Layer_1-2" data-name="Layer 1"><path class="cls-1" d="M9.25,174.21C9.84,96.6,64.11,31.32,149.58,32S283.45,98.7,282.86,176.31,233,300.79,147.52,300.14,8.65,251.83,9.25,174.21Z"/><path class="cls-2" d="M236.61,67.12l12.33-24.39c1.36-2.7,2.75-5.46,3.08-8.46.63-5.65-2.71-11.19-7.27-14.59s-10.19-5-15.75-6.19c-7.49-1.61-16.21-2.3-21.94,2.79-2.94,2.62-4.58,6.38-6,10.07a131.94,131.94,0,0,0-5.91,21.08Z"/><path class="cls-2" d="M237.69,67.75C242.14,59,246.8,50.23,251,41.32c1.81-3.8,2.9-7.75,1.88-11.94a19.11,19.11,0,0,0-6.06-9.6c-6.11-5.33-14.91-7.4-22.77-8.4-7.51-1-15.51.15-20.26,6.67C201,22,199.49,26.88,198,31.42a130.65,130.65,0,0,0-4,15.68,1.27,1.27,0,0,0,.57,1.41l14,6.63,22.28,10.6L236,68.2c1.45.69,2.72-1.47,1.26-2.16l-14-6.63L201,48.81l-5.18-2.46.58,1.41q1.24-6.43,3.11-12.72a85.67,85.67,0,0,1,4.23-11.85c1.58-3.36,3.75-6.31,7.15-8A20.68,20.68,0,0,1,221,13.6a56.56,56.56,0,0,1,10.8,1.82,36.46,36.46,0,0,1,10.92,4.38A18.15,18.15,0,0,1,249.84,28c1.56,3.79,1.06,7.56-.58,11.22-2,4.52-4.44,8.88-6.67,13.29l-7.06,14C234.81,67.92,237,69.19,237.69,67.75Z"/><path class="cls-2" d="M125.05,40.66l-8.63-25.93c-1-2.87-1.94-5.8-3.83-8.14-3.57-4.43-9.85-6-15.48-5.12S86.39,5.19,81.62,8.29c-6.42,4.19-13.05,9.89-13.47,17.54-.21,3.94,1.31,7.75,3,11.33a131.3,131.3,0,0,0,10.79,19Z"/><path class="cls-2" d="M126.26,40.33c-3.13-9.39-6-18.88-9.4-28.19-1.36-3.75-3.28-7.15-6.7-9.37A18.74,18.74,0,0,0,99.84,0C91.56.11,83.62,5,77.23,9.86c-6,4.59-11.29,11-10.17,19,.7,5.07,3.3,9.87,5.63,14.36a135.29,135.29,0,0,0,8.13,13.6,1.28,1.28,0,0,0,1.42.57l14.53-5.23L120,43.81l5.4-1.94c1.5-.54.85-3-.67-2.41l-14.54,5.23L87,53.05,81.57,55l1.41.58c-2.4-3.54-4.65-7.18-6.7-10.93A86.52,86.52,0,0,1,70.71,33c-1.38-3.77-1.88-7.71-.3-11.5a22.52,22.52,0,0,1,6.38-8.12A59.47,59.47,0,0,1,86,7.06,32.91,32.91,0,0,1,97.23,2.71a17.59,17.59,0,0,1,10,1.26,13.76,13.76,0,0,1,7,8c1.79,4.63,3.2,9.43,4.77,14.14L123.85,41C124.35,42.51,126.77,41.86,126.26,40.33Z"/><path class="cls-3" d="M169.73,311.93a87,87,0,0,1-6.11-11.48c-1.1-2.3-2.17-4.62-3.14-7a24.36,24.36,0,0,1-1.66-5c-.27-1.58-2.68-.91-2.41.66a24.37,24.37,0,0,0,1.71,5.11c1,2.43,2.08,4.82,3.22,7.2a88.47,88.47,0,0,0,6.23,11.74c.9,1.32,3.07.07,2.16-1.26Z"/><path class="cls-3" d="M155.57,316.75c-.92-9.23-1.65-18.48-2.57-27.71-.15-1.59-2.66-1.6-2.5,0,.92,9.23,1.65,18.48,2.57,27.71.16,1.58,2.66,1.6,2.5,0Z"/><path class="cls-3" d="M144.18,289.66a13,13,0,0,1-.26,4.94,66.06,66.06,0,0,1-1.81,7.34c-.73,2.42-1.55,4.82-2.51,7.15a20.13,20.13,0,0,1-2.38,4.58c-1,1.28,1.2,2.53,2.16,1.26a23.09,23.09,0,0,0,2.63-5.17,78.16,78.16,0,0,0,2.6-7.45,65,65,0,0,0,1.81-7.56,14.66,14.66,0,0,0,.17-5.75c-.38-1.56-2.79-.9-2.41.66Z"/><path class="cls-2" d="M232.43,251.94l16.82,21.54a37.94,37.94,0,0,0,6.06,6.61c4.32,3.39,9.31,3.87,12.84,2.35s5.86-4.74,7.86-8.12c2.69-4.55,4.89-10.47,2-17.23-1.5-3.48-4.14-6.61-6.78-9.52a189.06,189.06,0,0,0-15.44-15.2Z"/><path class="cls-2" d="M231.55,252.82l16.21,20.76c2.37,3,4.73,6.21,8,8.36a14.79,14.79,0,0,0,9.44,2.51c6.66-.7,11-6.89,13.5-12.56a19.37,19.37,0,0,0,1.82-10.21A21.41,21.41,0,0,0,276,251.31a104,104,0,0,0-8.91-10q-5-5.13-10.4-9.86a1.3,1.3,0,0,0-1.77,0L234.47,248.6l-2.92,2.45c-1.24,1,.54,2.8,1.77,1.77l20.41-17.12,2.93-2.45h-1.77a185.86,185.86,0,0,1,16.31,16.18c2.35,2.65,4.69,5.53,5.94,8.89a15.42,15.42,0,0,1,.26,9.95,28.67,28.67,0,0,1-4.38,8.38c-1.75,2.4-4,4.52-7,5.16-7,1.5-12-4.32-15.85-9.21l-16.82-21.55C232.33,249.78,230.57,251.57,231.55,252.82Z"/><path class="cls-2" d="M54.06,247.79,40.69,271.63a38.31,38.31,0,0,1-5,7.45c-3.76,4-8.61,5.23-12.34,4.26s-6.51-3.8-9-6.84C11,272.41,8,266.9,9.81,259.77c.95-3.67,3.09-7.16,5.26-10.44A191.47,191.47,0,0,1,28,232Z"/><path class="cls-2" d="M53,247.16,41.07,268.4c-3.2,5.7-6.58,13-13.91,13.93-6.12.77-11-4.79-13.92-9.5A16.7,16.7,0,0,1,10.49,264a20.7,20.7,0,0,1,3.24-10.18,148.09,148.09,0,0,1,15.18-21l-1.51.19,22.77,13.84,3.26,2a1.25,1.25,0,0,0,1.26-2.16L31.92,232.87l-3.26-2a1.25,1.25,0,0,0-1.51.2,169.69,169.69,0,0,0-14.88,20.3,26.55,26.55,0,0,0-4.19,11A18,18,0,0,0,10,272.08a31.17,31.17,0,0,0,5.8,7.88,15.15,15.15,0,0,0,8.65,4.84,13.63,13.63,0,0,0,8.93-2.15c3.13-2,5.29-5,7.14-8.13,5.06-8.6,9.78-17.4,14.66-26.1A1.25,1.25,0,0,0,53,247.16Z"/><circle class="cls-4" cx="204.99" cy="187.64" r="47.11"/><circle class="cls-5" cx="205.02" cy="183.33" r="30.68"/><circle class="cls-6" cx="205.03" cy="182.78" r="23.98"/><circle class="cls-4" cx="85.01" cy="183.66" r="47.11"/><circle class="cls-5" cx="85.04" cy="179.34" r="30.68"/><circle class="cls-6" cx="85.05" cy="178.79" r="23.98"/><path class="cls-2" d="M197.47,283.09l.31,11.39a16.25,16.25,0,0,0,.4,3.72,5.38,5.38,0,0,0,3.73,4,9.31,9.31,0,0,0,9.57-6.07,15,15,0,0,0,.08-4.87,79.84,79.84,0,0,0-1.42-8.93Z"/><path class="cls-2" d="M196.22,283.09c.1,3.91.19,7.82.32,11.73.1,3.06.72,6.36,3.64,8,2.73,1.53,6.21.34,8.69-1.21a8.7,8.7,0,0,0,4.08-7.21,33.33,33.33,0,0,0-.5-6.14q-.42-3.17-1.1-6.29a1.28,1.28,0,0,0-1.21-.92l-12.67.8c-1.6.1-1.61,2.6,0,2.5l12.67-.8-1.2-.91c.42,1.95.78,3.93,1.05,5.91a31,31,0,0,1,.46,5.85c-.15,3.27-2.35,5.18-5.28,6.2-1.57.54-3.22.71-4.5-.51a6.41,6.41,0,0,1-1.6-4.57c-.2-4.13-.24-8.28-.35-12.42C198.67,281.48,196.17,281.48,196.22,283.09Z"/><path class="cls-7" d="M199.53,281.78l.23,8.42a11.74,11.74,0,0,0,.29,2.74,3.93,3.93,0,0,0,2.68,2.93,5.3,5.3,0,0,0,3.33-.57,5.53,5.53,0,0,0,3.53-3.91,11.4,11.4,0,0,0,.06-3.6,59.49,59.49,0,0,0-1-6.59Z"/><path class="cls-7" d="M198.28,281.78c.08,2.89.15,5.78.24,8.67.07,2.34.55,4.82,2.71,6.14s4.74.38,6.64-.83a6.76,6.76,0,0,0,3.13-5.62,25.92,25.92,0,0,0-.36-4.57c-.22-1.58-.48-3.14-.81-4.7a1.26,1.26,0,0,0-1.21-.92l-9.09.58c-1.6.1-1.61,2.6,0,2.5l9.09-.58-1.2-.92a35.27,35.27,0,0,1,1.08,8.61c-.1,2.27-1.6,3.6-3.65,4.3a2.52,2.52,0,0,1-2.77-.34,4.48,4.48,0,0,1-1-3.14c-.15-3.06-.18-6.12-.26-9.18C200.73,280.17,198.23,280.17,198.28,281.78Z"/><path class="cls-2" d="M103.81,280.42l-.49,11.39a15.64,15.64,0,0,1-.45,3.71,5.43,5.43,0,0,1-3.79,3.91,7.57,7.57,0,0,1-4.64-.86,7.6,7.6,0,0,1-4.84-5.36,15.07,15.07,0,0,1,0-4.88,81.92,81.92,0,0,1,1.56-8.9Z"/><path class="cls-2" d="M102.56,280.42c-.18,4.17-.26,8.36-.55,12.52a6.34,6.34,0,0,1-1.67,4.44c-1.31,1.19-3,1-4.52.42-2.92-1.08-5.06-3-5.17-6.3a31.91,31.91,0,0,1,.56-5.84q.47-3,1.15-5.89l-1.21.91,12.66,1c1.61.13,1.6-2.37,0-2.5l-12.66-1a1.27,1.27,0,0,0-1.21.92,69.5,69.5,0,0,0-1.75,10.82c-.21,3.09.52,6.14,3,8.16,2.23,1.8,5.79,3.38,8.65,2.43,3-1,4.33-4,4.61-7,.41-4.33.4-8.74.59-13.09C105.13,278.81,102.63,278.82,102.56,280.42Z"/><path class="cls-7" d="M101.77,279.08l-.36,8.41a11.9,11.9,0,0,1-.33,2.75,4,4,0,0,1-2.72,2.89A5.32,5.32,0,0,1,95,292.5a5.52,5.52,0,0,1-3.47-4,11.44,11.44,0,0,1,0-3.6,61.88,61.88,0,0,1,1.12-6.58Z"/><path class="cls-7" d="M100.52,279.08c-.13,3.08-.2,6.18-.4,9.25A4.43,4.43,0,0,1,99,291.38a2.61,2.61,0,0,1-2.9.23c-2-.76-3.37-2.1-3.44-4.33a34.64,34.64,0,0,1,1.22-8.58l-1.21.91,9.09.72c1.61.13,1.6-2.37,0-2.5l-9.09-.72a1.25,1.25,0,0,0-1.2.92,52.67,52.67,0,0,0-1.28,8.08,7.16,7.16,0,0,0,2.26,6.26c1.68,1.39,4.37,2.62,6.55,1.87,2.36-.82,3.36-3.17,3.57-5.49.3-3.2.3-6.45.44-9.67C103.09,277.47,100.59,277.48,100.52,279.08Z"/><path class="cls-3" d="M147.92,187.5l-.77.35c-.16.07-.8.39-.32.15a8.17,8.17,0,0,1-1.51.52c-.27.07-.54.12-.82.17.5-.08-.19,0-.37,0a1.45,1.45,0,0,0-.36,0c.11,0,.5.07.14,0a10.44,10.44,0,0,0-1.35-.19c-.42,0,.49.09.16,0l-.32-.05-.68-.16a13.56,13.56,0,0,1-1.41-.44c-.06,0-.44-.2-.13-.05s-.07,0-.13-.07c-.22-.1-.43-.21-.64-.33l-.59-.37c-.26-.16.31.32.12.1a3.45,3.45,0,0,0-.28-.26,2.5,2.5,0,1,0-3.54,3.54,11,11,0,0,0,3.51,2.12,14.23,14.23,0,0,0,1.67.56c.68.18,1.4.19,2.07.37.29.07-.42-.08-.07,0l.46.07c.42.06.85.13,1.28.16a8.93,8.93,0,0,0,2.41-.28,22.51,22.51,0,0,0,4-1.57,2.51,2.51,0,0,0,.9-3.42,2.57,2.57,0,0,0-3.42-.9Z"/><path class="cls-3" d="M19.84,187.22A167.52,167.52,0,0,1,1.23,201.67a2.56,2.56,0,0,0-.9,3.42,2.51,2.51,0,0,0,3.42.9,177.44,177.44,0,0,0,19.62-15.23,2.5,2.5,0,0,0-3.53-3.54Z"/><path class="cls-3" d="M263.67,196.67a176.47,176.47,0,0,0,19.39,15.52,2.52,2.52,0,0,0,3.42-.89,2.56,2.56,0,0,0-.9-3.42,169.07,169.07,0,0,1-18.38-14.75,2.55,2.55,0,0,0-3.53,0,2.53,2.53,0,0,0,0,3.54Z"/><rect class="cls-8" x="153.72" y="132.04" width="112.88" height="112.88" rx="16.66" transform="translate(413.38 384.42) rotate(-177.93)"/><g class="cls-9"><path class="cls-10" d="M223.18,181.24a311.43,311.43,0,0,1-27.41,27.45c-2.41,2.14,1.13,5.66,3.54,3.54a314.3,314.3,0,0,0,27.41-27.46,2.56,2.56,0,0,0,0-3.53,2.53,2.53,0,0,0-3.54,0Z"/></g><g class="cls-9"><path class="cls-10" d="M210.32,169.07l-.32.42-.07.09c-.2.26-.4.52-.61.77-.41.53-.83,1.05-1.25,1.57q-1.35,1.68-2.78,3.3a57.84,57.84,0,0,1-5.78,5.83,2.53,2.53,0,0,0,0,3.54,2.57,2.57,0,0,0,3.54,0,86.19,86.19,0,0,0,11.59-13,2.5,2.5,0,0,0-.9-3.42,2.58,2.58,0,0,0-3.42.89Z"/></g><rect class="cls-8" x="22.93" y="128.3" width="112.88" height="112.88" rx="16.66" transform="translate(152.01 372.22) rotate(-177.93)"/><g class="cls-9"><path class="cls-10" d="M92.39,177.5A311.43,311.43,0,0,1,65,205c-2.42,2.14,1.13,5.66,3.54,3.54A311.43,311.43,0,0,0,95.92,181a2.54,2.54,0,0,0,0-3.53,2.51,2.51,0,0,0-3.53,0Z"/></g><g class="cls-9"><path class="cls-10" d="M79.53,165.33l-.33.43c-.24.31.36-.46-.06.08l-.61.78-1.25,1.56q-1.35,1.68-2.78,3.3a60.12,60.12,0,0,1-5.78,5.84,2.5,2.5,0,0,0,0,3.53,2.56,2.56,0,0,0,3.54,0,85.58,85.58,0,0,0,11.58-13,2.5,2.5,0,0,0-.89-3.42,2.57,2.57,0,0,0-3.42.89Z"/></g><path class="cls-11" d="M184.68,92.93c-4.9-3.61-13.35-8.3-20.64-9.74-9.27-1.84-23.07.11-23.07.11,1.49-3.35.92-8,4.43-10.86,2.14-1.72,4.06-2.46,8.25-3.28s10.37-.3,15.36.78c7.83,1.71,14.15,6.26,16.47,10.47S184.68,92.93,184.68,92.93Z"/><path class="cls-3" d="M185.43,91.63a56.84,56.84,0,0,0-20-9.69c-6.39-1.48-13.21-1.2-19.71-.65-1.7.15-3.41.33-5.11.57l1.69,2.2c1.65-3.88,1.14-8.6,5-11.16s8.9-2.79,13.27-2.57a37,37,0,0,1,15.68,3.84c3.29,1.75,7.83,4.72,8.49,8.74.51,3.13-.41,6.69-1.51,9.62-.68,1.81,2.22,2.59,2.89.8a23.71,23.71,0,0,0,1.68-9.94c-.41-4.7-4.14-8.11-7.89-10.55-5-3.28-10.89-4.73-16.83-5.32-5.27-.53-11-.33-15.87,2a10.79,10.79,0,0,0-5.35,5.2c-1.13,2.5-1.12,5.33-2.19,7.84a1.52,1.52,0,0,0,1.7,2.2h-.08l.82-.1c.92-.11,1.85-.21,2.78-.3,2.88-.26,5.78-.43,8.68-.46a50.4,50.4,0,0,1,9.74.67,41.84,41.84,0,0,1,10.43,3.6,64.88,64.88,0,0,1,10.18,6C185.48,95.36,187,92.76,185.43,91.63Z"/><path class="cls-3" d="M152.36,81.85a69.28,69.28,0,0,1,.6-11.78c0-.31-.44-.45-.48-.13a69.78,69.78,0,0,0-.62,11.91c0,.32.51.32.5,0Z"/><path class="cls-3" d="M163.22,81.53a19.69,19.69,0,0,1,2.42-11.4c.15-.28-.28-.53-.43-.25a20.06,20.06,0,0,0-2.49,11.65c0,.31.53.32.5,0Z"/><path class="cls-3" d="M174.37,85.39A22.62,22.62,0,0,1,178.23,75c.18-.27-.25-.52-.43-.26a23.25,23.25,0,0,0-3.93,10.7c0,.32.47.32.5,0Z"/><path class="cls-12" d="M367,260.4a87.62,87.62,0,0,0-4.06-33.07l-.07-.31c-11-3.21-22.49-5.76-33.91-4.64s-22.22,5.88-32.51,11c-4.92,2.46-9.84,5.06-13.89,8.78a60.41,60.41,0,0,0-7.63,9c-4.45,6-8.93,12.4-10.2,19.79l-.39.09a311.53,311.53,0,0,0,25.51,38.23"/><path class="cls-13" d="M369.49,260.4A88.31,88.31,0,0,0,369,243c-.37-2.88-.85-5.74-1.49-8.57s-1.59-5.34-2.19-8a2.51,2.51,0,0,0-1.75-1.75,116,116,0,0,0-24.81-4.86A64.82,64.82,0,0,0,314.38,223a147.73,147.73,0,0,0-21.92,9.61,60.64,60.64,0,0,0-9.7,6.11,47.81,47.81,0,0,0-8.23,8.82c-5.19,6.82-10.67,14.13-12.22,22.76l1.75-1.74-.4.09a2.53,2.53,0,0,0-1.49,3.67,320.27,320.27,0,0,0,25.9,38.74,2.5,2.5,0,0,0,3.53,0,2.54,2.54,0,0,0,0-3.53,312.51,312.51,0,0,1-25.11-37.73l-1.5,3.67.4-.09a2.43,2.43,0,0,0,1.74-1.75c1.3-7.2,5.56-13.24,9.82-19a59.24,59.24,0,0,1,7.2-8.52,43.1,43.1,0,0,1,8.73-6c13.05-7.19,27.56-13.7,42.73-13.45,9.06.16,17.93,2.3,26.58,4.81l-1.74-1.74c.57,2.55,1.49,5,2.08,7.58a78,78,0,0,1,1.48,8.16,87.51,87.51,0,0,1,.48,17,2.5,2.5,0,0,0,5,0Z"/><polygon class="cls-14" points="316.71 262.15 405.2 260.8 352.31 321.04 256.13 328.96 316.71 262.15"/><path class="cls-15" d="M333.49,294.58c-14,9.43-30.73,13.31-47.35,14.51a189.75,189.75,0,0,1-20.93.43,29.44,29.44,0,0,1-8.39-1.3,9.9,9.9,0,0,1-3.29-1.77,7.12,7.12,0,0,1-2-3.3c-3.29-9.21-9.12-17.13-14.86-24.94-.95-1.29-3.12,0-2.16,1.26,5.34,7.26,10.87,14.64,14.15,23.11a16.56,16.56,0,0,0,2,4.45,9.43,9.43,0,0,0,3,2.52,21.86,21.86,0,0,0,8.47,2.26,78.86,78.86,0,0,0,8.42.26c4,0,8-.05,12-.26a134.1,134.1,0,0,0,25.62-3.58,83.4,83.4,0,0,0,26.6-11.49c1.32-.89.07-3.06-1.27-2.16Z"/><path class="cls-15" d="M252.18,306.1c-5.59-.07-10.34-3.6-14.25-7.26a54.36,54.36,0,0,1-10.24-13.13,1.25,1.25,0,0,0-2.16,1.27,56.71,56.71,0,0,0,11.26,14.2c4.28,3.89,9.4,7.34,15.39,7.42a1.25,1.25,0,0,0,0-2.5Z"/><path class="cls-15" d="M251.11,305a167.62,167.62,0,0,1-18.42-21.56c-.93-1.29-3.1,0-2.16,1.26a172.13,172.13,0,0,0,18.81,22.07,1.25,1.25,0,0,0,1.77-1.77Z"/><path class="cls-15" d="M249.43,304c-2.71-8.25-6.44-18.05-15.84-20.4a1.25,1.25,0,0,0-.67,2.41c8.47,2.12,11.68,11.28,14.1,18.65.5,1.52,2.91.87,2.41-.66Z"/><path class="cls-15" d="M248.14,303.61c-8-3.06-16.56-8.85-17.3-18.19-.13-1.59-2.63-1.61-2.5,0a20.55,20.55,0,0,0,6.22,12.83A36.44,36.44,0,0,0,247.47,306c1.5.57,2.15-1.84.67-2.42Z"/><path class="cls-15" d="M245.32,300.62A30.42,30.42,0,0,0,234,291.37a1.25,1.25,0,0,0-1.26,2.16,28,28,0,0,1,10.41,8.35,1.29,1.29,0,0,0,1.71.45,1.26,1.26,0,0,0,.45-1.71Z"/></g></g></svg>