<svg xmlns="http://www.w3.org/2000/svg" xmlns:xlink="http://www.w3.org/1999/xlink" viewBox="0 0 286.86 358.7"><defs><style>.cls-1{fill:url(#radial-gradient);}.cls-2{fill:#bcdff5;}.cls-3{fill:#fff;stroke:#fff;}.cls-13,.cls-3,.cls-5,.cls-8{stroke-miterlimit:10;}.cls-4{fill:#2e76bb;}.cls-5,.cls-7{fill:#231f20;}.cls-5,.cls-8{stroke:#231f20;}.cls-6{fill:#00729e;}.cls-8{fill:#9cd9e5;fill-opacity:0.43;stroke-width:8px;}.cls-9{opacity:0.75;}.cls-10{fill:#bde4ed;}.cls-11,.cls-13{fill:#1b191d;}.cls-12{fill:#150e1d;}.cls-13{stroke:#150e1d;}.cls-14{fill:#faaf40;}</style><radialGradient id="radial-gradient" cx="81.21" cy="143.07" r="136.45" gradientTransform="translate(56.32 60.79) scale(1.04 0.95)" gradientUnits="userSpaceOnUse"><stop offset="0" stop-color="#a7dbda"/><stop offset="0.78" stop-color="#bcdff5"/></radialGradient></defs><title>2-happy-0</title><g id="Layer_2" data-name="Layer 2"><g id="Layer_1-2" data-name="Layer 1"><path class="cls-1" d="M277.83,186.78c0,77.62-53.76,143.31-139.23,143.31S4.22,264.4,4.22,186.78,53.12,61.92,138.6,61.92,277.83,109.16,277.83,186.78Z"/><path class="cls-2" d="M63.3,302.75,51.15,327.24c-1.34,2.7-2.7,5.48-3,8.48-.58,5.66,2.79,11.17,7.38,14.53s10.23,4.92,15.8,6.07c7.5,1.56,16.23,2.18,21.92-2.95,2.92-2.65,4.53-6.42,5.88-10.12a131.14,131.14,0,0,0,5.75-21.12Z"/><path class="cls-2" d="M62.22,302.12c-4.38,8.84-9,17.6-13.14,26.53-1.78,3.82-2.85,7.78-1.79,12a19.06,19.06,0,0,0,6.13,9.56c6.15,5.28,15,7.28,22.82,8.22,7.53.9,15.52-.27,20.22-6.81,2.81-3.92,4.27-8.87,5.7-13.41a130.64,130.64,0,0,0,3.91-15.71,1.27,1.27,0,0,0-.57-1.41l-14-6.53L69.12,304.09l-5.19-2.42c-1.45-.67-2.72,1.48-1.26,2.16l14,6.53L99,320.78l5.2,2.42-.58-1.41c-.8,4.3-1.79,8.55-3,12.75a85.65,85.65,0,0,1-4.14,11.88c-1.55,3.38-3.7,6.34-7.09,8a20.52,20.52,0,0,1-10.09,1.7,56.51,56.51,0,0,1-10.81-1.73,36.86,36.86,0,0,1-11-4.29A18.3,18.3,0,0,1,50.37,342c-1.59-3.77-1.12-7.55.49-11.23,2-4.52,4.37-8.9,6.56-13.33l7-14C65.09,302,62.94,300.68,62.22,302.12Z"/><path class="cls-2" d="M151.55,307.6l-5.26,26.82c-.58,3-1.17,6-.68,9,.93,5.61,5.64,10,10.95,12.07s11.17,2,16.84,1.7c7.65-.48,16.23-2.17,20.36-8.63,2.13-3.32,2.69-7.38,3-11.31a131.15,131.15,0,0,0,0-21.89Z"/><path class="cls-2" d="M150.35,307.27l-2.92,14.87c-1,4.84-2,9.67-2.83,14.54-.68,4.18-.55,8.3,1.69,12a19.18,19.18,0,0,0,8,7.12c7.42,3.65,16.69,3.24,24.67,2,7.11-1.09,14.29-4.13,17.2-11.18,1.87-4.52,2-9.71,2.22-14.52a134.38,134.38,0,0,0-.34-16.79,1.27,1.27,0,0,0-.92-1.2l-15.23-2.61-24.33-4.17-5.64-1c-1.58-.27-2.25,2.14-.67,2.41l15.23,2.61,24.33,4.16,5.64,1-.91-1.21A134.63,134.63,0,0,1,196,329a77.13,77.13,0,0,1-1,12.79,15.1,15.1,0,0,1-5,9.24,21.32,21.32,0,0,1-9,3.93,55.83,55.83,0,0,1-10.47,1.14,36.57,36.57,0,0,1-12.32-1.35,18.24,18.24,0,0,1-8.67-5.77,13.51,13.51,0,0,1-2.63-10.58c.65-5.05,1.9-10.07,2.88-15.06l3-15.36C153.07,306.36,150.66,305.69,150.35,307.27Z"/><path class="cls-2" d="M28,251.37,10.77,272.59A37.54,37.54,0,0,0,5.68,280c-2.33,5-1.68,9.94.59,13s5.93,4.66,9.67,5.85c5,1.6,11.3,2.42,17.24-1.93,3-2.24,5.51-5.52,7.76-8.74A192.17,192.17,0,0,0,52.3,269.74Z"/><path class="cls-2" d="M27.12,250.49,10.67,270.74c-2.48,3.05-5.12,6.1-6.58,9.8a14.63,14.63,0,0,0-.17,10.77c2.48,6.07,9.83,8.8,15.85,9.77a18.94,18.94,0,0,0,9.84-.8,22.09,22.09,0,0,0,8.92-6.81,107.3,107.3,0,0,0,7.7-11c2.53-3.95,4.91-8,7.15-12.14a1.29,1.29,0,0,0-.45-1.71L31.67,252.6l-3-2.31c-1.28-1-2.53,1.2-1.26,2.16l21.25,16.07,3.05,2.3-.45-1.71a190.27,190.27,0,0,1-11.86,19.16,31,31,0,0,1-7.2,7.86,15.34,15.34,0,0,1-9.08,2.76A26.41,26.41,0,0,1,14.41,297c-2.85-1-5.8-2.57-7.46-5.22a11.58,11.58,0,0,1-.78-9.69c1.13-3.43,3.55-6.26,5.79-9l16.92-20.83C29.89,251,28.13,249.24,27.12,250.49Z"/><path class="cls-2" d="M258.4,254.9l15.44,22.56a37.4,37.4,0,0,1,4.46,7.77c1.92,5.15.87,10-1.65,12.95s-6.29,4.15-10.11,5c-5.15,1.19-11.46,1.5-17-3.33-2.87-2.48-5.05-5.95-7-9.35a190.45,190.45,0,0,1-9.82-19.31Z"/><path class="cls-2" d="M257.32,255.53l13.76,20.1c3.8,5.55,9.08,12.16,6.13,19.28a11.13,11.13,0,0,1-6.74,5.87,29.77,29.77,0,0,1-8.69,1.89,16,16,0,0,1-8.8-1.86,22.1,22.1,0,0,1-7.34-7.52,157.54,157.54,0,0,1-11.88-22.7l-.45,1.71L255.81,258l3.22-2c1.36-.86.1-3-1.26-2.16l-22.5,14.28-3.22,2a1.29,1.29,0,0,0-.45,1.71A168.44,168.44,0,0,0,243,293.8a27.53,27.53,0,0,0,7.47,8.38,17.67,17.67,0,0,0,9.52,3,30.18,30.18,0,0,0,9.43-1.43c3.24-1,6.42-2.49,8.53-5.21a13.32,13.32,0,0,0,2.54-9.22c-.34-3.93-2.15-7.38-4.3-10.62-5.44-8.23-11.14-16.3-16.71-24.44C258.58,253,256.41,254.2,257.32,255.53Z"/><circle class="cls-3" cx="81.99" cy="174.85" r="47.11"/><circle class="cls-4" cx="81.99" cy="179.17" r="30.68"/><circle class="cls-5" cx="81.99" cy="179.72" r="23.98"/><circle class="cls-3" cx="202" cy="177.92" r="47.11"/><circle class="cls-4" cx="202" cy="182.23" r="30.68"/><circle class="cls-5" cx="202" cy="182.78" r="23.98"/><path class="cls-2" d="M88.79,79.35,88.38,68A15.63,15.63,0,0,0,88,64.25a5.41,5.41,0,0,0-3.76-3.94,7.61,7.61,0,0,0-4.64.82,7.63,7.63,0,0,0-4.89,5.33,15.28,15.28,0,0,0,0,4.87,79.23,79.23,0,0,0,1.49,8.91Z"/><path class="cls-2" d="M90,79.35c-.14-3.91-.26-7.82-.42-11.73-.12-3-.74-6.25-3.58-7.9s-6.25-.4-8.74,1.18a8.67,8.67,0,0,0-4.09,7.26,34.28,34.28,0,0,0,.55,6.14c.3,2.1.69,4.2,1.15,6.28a1.26,1.26,0,0,0,1.21.91l12.67-.89c1.59-.11,1.61-2.61,0-2.5L76.12,79l1.2.92Q76.68,77,76.22,74a31.89,31.89,0,0,1-.51-5.85c.14-3.34,2.41-5.29,5.41-6.31,1.52-.51,3.09-.63,4.33.53a6.42,6.42,0,0,1,1.64,4.55c.23,4.13.3,8.28.45,12.42C87.59,81,90.09,81,90,79.35Z"/><path class="cls-6" d="M86.74,80.68l-.3-8.42a11.74,11.74,0,0,0-.31-2.74,3.92,3.92,0,0,0-2.7-2.91,5.31,5.31,0,0,0-3.33.6,5.53,5.53,0,0,0-3.5,3.93,11.42,11.42,0,0,0,0,3.6,62,62,0,0,0,1.07,6.59Z"/><path class="cls-6" d="M88,80.68c-.11-2.89-.2-5.78-.31-8.67-.09-2.34-.58-4.82-2.75-6.12s-4.74-.36-6.63.86a6.77,6.77,0,0,0-3.1,5.65A26.53,26.53,0,0,0,75.6,77c.22,1.55.5,3.1.84,4.64a1.26,1.26,0,0,0,1.2.92l9.1-.65c1.59-.12,1.6-2.62,0-2.5l-9.1.65,1.21.91A35.18,35.18,0,0,1,77.7,72.4c.08-2.27,1.56-3.63,3.61-4.34a2.5,2.5,0,0,1,2.77.31,4.52,4.52,0,0,1,1.08,3.13c.17,3,.22,6.12.33,9.18C85.54,82.28,88,82.29,88,80.68Z"/><path class="cls-7" d="M139.05,174.57a7.81,7.81,0,0,1,1.5-.69c-.19,0-.32.12-.05,0l.37-.14c.26-.09.51-.17.77-.24s.54-.12.81-.17c-.23,0-.28,0,0,0h.4a1.12,1.12,0,0,0,.36,0c-.09,0-.52-.08-.14,0s.9.14,1.35.19c.07,0,.5.06.09,0s0,0,.07,0,.46.09.68.15a11.51,11.51,0,0,1,1.41.44c.06,0,.46.17.14,0s.07,0,.13.06l.64.33.59.37c.27.15-.32-.32-.12-.1s.2.17.29.25a2.5,2.5,0,0,0,3.53-3.53,12.6,12.6,0,0,0-7.26-3l-.16,0-.23,0c-.43-.06-.85-.13-1.28-.15a8.51,8.51,0,0,0-2.41.29,22.47,22.47,0,0,0-4,1.6,2.5,2.5,0,0,0-.89,3.42,2.57,2.57,0,0,0,3.42.9Z"/><path class="cls-7" d="M267.13,173.87a169.07,169.07,0,0,1,18.5-14.6,2.56,2.56,0,0,0,.89-3.42,2.52,2.52,0,0,0-3.42-.9,177.4,177.4,0,0,0-19.5,15.38,2.5,2.5,0,1,0,3.53,3.54Z"/><path class="cls-7" d="M23.26,166.29a177.4,177.4,0,0,0-19.5-15.38,2.52,2.52,0,0,0-3.42.9,2.56,2.56,0,0,0,.89,3.42,167.78,167.78,0,0,1,18.5,14.59,2.54,2.54,0,0,0,3.53,0,2.51,2.51,0,0,0,0-3.53Z"/><rect class="cls-8" x="20.38" y="117.62" width="112.88" height="112.88" rx="16.66" transform="matrix(1, 0.03, -0.03, 1, 4.98, -2.11)"/><g class="cls-9"><path class="cls-10" d="M63.84,181.41A312.8,312.8,0,0,1,91,153.75c2.4-2.16-1.15-5.68-3.54-3.54a311.44,311.44,0,0,0-27.19,27.67,2.54,2.54,0,0,0,0,3.53,2.5,2.5,0,0,0,3.53,0Z"/></g><g class="cls-9"><path class="cls-10" d="M76.8,193.48l.64-.85.27-.34.2-.27.21-.27.27-.35.63-.79c.9-1.12,1.81-2.23,2.75-3.32a61.29,61.29,0,0,1,5.74-5.88,2.5,2.5,0,0,0,0-3.53,2.56,2.56,0,0,0-3.54,0A85.73,85.73,0,0,0,72.48,191a2.51,2.51,0,0,0,.9,3.42,2.58,2.58,0,0,0,3.42-.9Z"/></g><rect class="cls-8" x="151.2" y="120.35" width="112.88" height="112.88" rx="16.66" transform="translate(5.11 -5.83) rotate(1.63)"/><g class="cls-9"><path class="cls-10" d="M194.66,184.15a310.19,310.19,0,0,1,27.2-27.67c2.39-2.15-1.15-5.68-3.54-3.53a310.1,310.1,0,0,0-27.2,27.66,2.57,2.57,0,0,0,0,3.54,2.54,2.54,0,0,0,3.54,0Z"/></g><g class="cls-9"><path class="cls-10" d="M207.62,196.21l.64-.84.26-.35s.4-.51.21-.26.21-.28.21-.27l.27-.35.63-.79q1.33-1.69,2.75-3.32a59,59,0,0,1,5.74-5.88,2.53,2.53,0,0,0,0-3.54,2.57,2.57,0,0,0-3.54,0,85.13,85.13,0,0,0-11.49,13.08,2.51,2.51,0,0,0,.9,3.42,2.57,2.57,0,0,0,3.42-.9Z"/></g><path class="cls-7" d="M112,288.3c2.79,1.4,6,1.81,9,2.58,1.58.41,3.1,1.09,4.7,1.38,1.89.35,3.83.54,5.74.8,6.44.89,14.61,1.44,19.67-3.48,3.22-3.14,6.57-8.24,5-12.94-1-3-5.86-1.73-4.82,1.33s-1.85,6.31-3.83,8.21c-.13.12-1.06.91-.56.55a6,6,0,0,1-.6.37,7.83,7.83,0,0,1-1.4.56,25.49,25.49,0,0,1-3.88.91,33.29,33.29,0,0,1-8.82-.41c-1.71-.25-3.45-.41-5.14-.72-1.33-.24-2.58-.8-3.87-1.16-1.65-.45-3.33-.82-5-1.22-.78-.19-1.57-.38-2.35-.61l-.91-.29-.35-.13c-.39-.16.48.23-.08,0-2.86-1.44-5.4,2.87-2.52,4.32Z"/><path class="cls-11" d="M147.64,39.35a88,88,0,0,0-17.1,28.59l-.14.29c6.73,9.3,14.21,18.36,23.91,24.49s21.14,9,32.42,11.28c5.39,1.08,10.88,2,16.35,1.61a62.06,62.06,0,0,0,11.56-2.42c7.21-2,14.67-4.3,20.2-9.35l.37.16a313.86,313.86,0,0,0,3.36-45.83"/><path class="cls-12" d="M145.88,37.58a93.16,93.16,0,0,0-10.43,14.17c-1.46,2.46-2.81,5-4,7.59s-2.12,5.38-3.19,7.63a2.52,2.52,0,0,0,0,2.52,122.31,122.31,0,0,0,15.13,17.85,65,65,0,0,0,20.09,12.78C171,103.2,179,105,187,106.6a69.54,69.54,0,0,0,13.16,1.62,50,50,0,0,0,13.07-2c8.28-2.24,16.84-4.71,23.36-10.57l-3,.39.37.17c1.28.59,3.41.26,3.67-1.49a321.71,321.71,0,0,0,3.45-46.5c0-3.22-5-3.23-5,0a313.18,313.18,0,0,1-3.27,45.17l3.67-1.49-.37-.17a2.62,2.62,0,0,0-3,.39c-5.21,4.68-12.1,6.74-18.7,8.6a58.57,58.57,0,0,1-11.77,2.48,49.67,49.67,0,0,1-12.1-1c-14.87-2.72-30-6.55-41.71-16.69-6.22-5.41-11.41-11.88-16.23-18.53v2.52c1.15-2.42,2-5,3.09-7.43s2.49-5,3.9-7.41a85.6,85.6,0,0,1,9.86-13.53c2.14-2.39-1.39-5.94-3.53-3.54Z"/><polygon class="cls-13" points="188.39 68.86 117.75 15.56 196.49 0.53 277.24 53.36 188.39 68.86"/><path class="cls-14" d="M195.24,33c16,1.09,31,7.81,44.3,16.44A203.48,203.48,0,0,1,257,62.17a33.84,33.84,0,0,1,6.65,6.66,11.08,11.08,0,0,1,1.8,3.78,7.36,7.36,0,0,1-.49,4.14c-3,9.27-3.27,19.13-3.54,28.78-.05,1.61,2.45,1.61,2.5,0,.25-9.06.45-18.26,3.1-27a14.58,14.58,0,0,0,1.07-4.86,10.42,10.42,0,0,0-1.1-4.09,24.43,24.43,0,0,0-6.05-7.33c-2.33-2.08-4.84-3.94-7.3-5.85-3.25-2.51-6.56-4.94-10-7.25a128.41,128.41,0,0,0-21.67-12,82.87,82.87,0,0,0-26.76-6.66c-1.6-.11-1.59,2.39,0,2.5Z"/><path class="cls-14" d="M266.2,73.73c3.91,3.11,5.61,7.91,6.56,12.67a53.59,53.59,0,0,1,.39,18.39c-.24,1.58,2.17,2.26,2.41.67a57.35,57.35,0,0,0-.39-19.73c-1-5.13-3-10.41-7.2-13.77-1.25-1-3,.77-1.77,1.77Z"/><path class="cls-14" d="M266.49,75.18a170.42,170.42,0,0,1,1.28,28.65c-.06,1.61,2.44,1.6,2.5,0A170.42,170.42,0,0,0,269,75.18c-.2-1.57-2.71-1.59-2.5,0Z"/><path class="cls-14" d="M267.12,77.35c-3,8.3-5.85,18.11.15,25.81,1,1.27,2.74-.51,1.76-1.76-5.32-6.85-2.08-16.17.5-23.39.55-1.51-1.87-2.17-2.41-.66Z"/><path class="cls-14" d="M267.9,78.16c4.52,7.5,7.69,17.24,2.46,25.23-.89,1.35,1.28,2.61,2.16,1.27,5.72-8.75,2.51-19.52-2.46-27.76a1.25,1.25,0,0,0-2.16,1.26Z"/><path class="cls-14" d="M268.35,82.53a30.69,30.69,0,0,0,3.33,14.25c.72,1.44,2.88.17,2.16-1.26a27.9,27.9,0,0,1-3-13,1.25,1.25,0,0,0-2.5,0Z"/></g></g></svg>