<svg xmlns="http://www.w3.org/2000/svg" xmlns:xlink="http://www.w3.org/1999/xlink" viewBox="0 0 286.86 361.12"><defs><style>.cls-1{fill:url(#radial-gradient);}.cls-2{fill:#bcdff5;}.cls-3{fill:#00729e;}.cls-4,.cls-7{fill:#231f20;}.cls-4,.cls-8{stroke:#231f20;}.cls-13,.cls-4,.cls-5,.cls-8{stroke-miterlimit:10;}.cls-5{fill:#fff;stroke:#fff;}.cls-6{fill:#2e76bb;}.cls-8{fill:#9cd9e5;fill-opacity:0.43;stroke-width:8px;}.cls-9{opacity:0.75;}.cls-10{fill:#bde4ed;}.cls-11,.cls-13{fill:#1b191d;}.cls-12{fill:#150e1d;}.cls-13{stroke:#150e1d;}.cls-14{fill:#faaf40;}</style><radialGradient id="radial-gradient" cx="64.29" cy="146.07" r="136.45" gradientTransform="translate(73.47 60.37) scale(1.04 0.95)" gradientUnits="userSpaceOnUse"><stop offset="0" stop-color="#a7dbda"/><stop offset="0.78" stop-color="#bcdff5"/></radialGradient></defs><title>2-happy-1</title><g id="Layer_2" data-name="Layer 2"><g id="Layer_1-2" data-name="Layer 1"><path class="cls-1" d="M277.33,189.2c0,77.62-53.76,143.31-139.24,143.31S3.71,266.82,3.71,189.2,52.62,64.34,138.09,64.34,277.33,111.58,277.33,189.2Z"/><path class="cls-2" d="M62.79,305.17,50.65,329.66c-1.34,2.7-2.7,5.48-3,8.48-.59,5.66,2.79,11.17,7.38,14.53s10.23,4.92,15.8,6.07c7.5,1.55,16.23,2.18,21.91-3,2.93-2.64,4.53-6.41,5.88-10.12a130.58,130.58,0,0,0,5.75-21.12Z"/><path class="cls-2" d="M61.72,304.54c-4.39,8.83-9,17.6-13.14,26.53-1.78,3.82-2.85,7.77-1.8,12a19.12,19.12,0,0,0,6.13,9.55c6.15,5.29,15,7.29,22.83,8.23,7.52.9,15.51-.27,20.21-6.82,2.82-3.91,4.27-8.86,5.71-13.41a134.37,134.37,0,0,0,3.91-15.7,1.3,1.3,0,0,0-.57-1.42l-14-6.52L68.62,306.51l-5.19-2.42c-1.45-.67-2.72,1.48-1.27,2.16l14,6.53L98.54,323.2l5.19,2.42-.57-1.41q-1.2,6.45-3,12.75A86.11,86.11,0,0,1,96,348.84c-1.55,3.37-3.7,6.34-7.08,8a20.64,20.64,0,0,1-10.09,1.7A55.63,55.63,0,0,1,68,356.83a36.65,36.65,0,0,1-11-4.29,18.14,18.14,0,0,1-7.18-8.15c-1.59-3.77-1.12-7.56.49-11.23,2-4.52,4.36-8.91,6.56-13.33l6.95-14C64.59,304.37,62.43,303.1,61.72,304.54Z"/><path class="cls-2" d="M151.05,310l-5.27,26.82c-.58,3-1.16,6-.67,9,.93,5.61,5.63,10,10.95,12.07s11.16,2.05,16.84,1.7c7.64-.48,16.23-2.18,20.36-8.63,2.12-3.32,2.68-7.38,3-11.31a131.15,131.15,0,0,0,0-21.89Z"/><path class="cls-2" d="M149.84,309.69l-2.92,14.87c-.95,4.84-2,9.67-2.82,14.54-.69,4.18-.56,8.3,1.68,12a19.2,19.2,0,0,0,8,7.13c7.43,3.65,16.7,3.23,24.68,2,7.1-1.09,14.28-4.13,17.2-11.19,1.86-4.51,2-9.7,2.21-14.51a132.49,132.49,0,0,0-.34-16.79,1.28,1.28,0,0,0-.92-1.21L181.35,314,157,309.78l-5.65-1c-1.57-.27-2.25,2.14-.66,2.41l15.23,2.6L190.27,318l5.65,1-.92-1.2a131.77,131.77,0,0,1,.44,13.62,75.86,75.86,0,0,1-1,12.78,15.14,15.14,0,0,1-5,9.25,21.42,21.42,0,0,1-9,3.93A56.58,56.58,0,0,1,170,358.48a36.77,36.77,0,0,1-12.31-1.35,18.19,18.19,0,0,1-8.67-5.77,13.45,13.45,0,0,1-2.63-10.58c.65-5,1.9-10.07,2.88-15.06l3-15.37C152.56,308.78,150.15,308.11,149.84,309.69Z"/><path class="cls-2" d="M27.5,253.79,10.26,275a37.92,37.92,0,0,0-5.08,7.38c-2.34,5-1.69,9.94.58,13s5.93,4.66,9.67,5.85c5,1.6,11.3,2.42,17.24-1.93,3.06-2.24,5.52-5.52,7.76-8.74A193.52,193.52,0,0,0,51.8,272.16Z"/><path class="cls-2" d="M26.61,252.91,10.16,273.16c-2.48,3-5.12,6.1-6.58,9.8a14.63,14.63,0,0,0-.16,10.77c2.47,6.07,9.82,8.8,15.85,9.77a18.89,18.89,0,0,0,9.83-.8A22,22,0,0,0,38,295.89a107.3,107.3,0,0,0,7.7-11q3.81-5.94,7.15-12.14a1.29,1.29,0,0,0-.44-1.71L31.17,255l-3-2.3c-1.29-1-2.53,1.2-1.27,2.16l21.26,16.07,3,2.3-.44-1.71a189.67,189.67,0,0,1-11.87,19.16c-2,2.88-4.27,5.82-7.2,7.85a15.33,15.33,0,0,1-9.08,2.77,26.4,26.4,0,0,1-8.66-1.87c-2.85-1-5.8-2.57-7.46-5.22a11.58,11.58,0,0,1-.79-9.69c1.14-3.43,3.56-6.27,5.8-9l16.92-20.83C29.38,253.44,27.63,251.66,26.61,252.91Z"/><path class="cls-2" d="M257.9,257.32l15.44,22.56a37.85,37.85,0,0,1,4.46,7.77c1.92,5.14.87,10-1.65,13s-6.29,4.15-10.12,5c-5.15,1.19-11.45,1.5-17-3.33-2.86-2.48-5-5.95-7-9.35a190.36,190.36,0,0,1-9.81-19.31Z"/><path class="cls-2" d="M256.82,258l13.75,20.1c3.8,5.55,9.09,12.16,6.14,19.28-1.22,2.93-3.85,4.78-6.74,5.87a30.17,30.17,0,0,1-8.69,1.89,16.09,16.09,0,0,1-8.8-1.86,22.07,22.07,0,0,1-7.35-7.53A158.44,158.44,0,0,1,233.25,273l-.44,1.71,22.49-14.28,3.23-2c1.35-.86.1-3-1.27-2.16l-22.49,14.28-3.23,2a1.29,1.29,0,0,0-.44,1.71,167.22,167.22,0,0,0,11.4,22A27.61,27.61,0,0,0,250,304.6a17.7,17.7,0,0,0,9.53,3,30.22,30.22,0,0,0,9.43-1.43c3.23-1,6.42-2.49,8.53-5.22a13.27,13.27,0,0,0,2.53-9.21c-.33-3.94-2.15-7.38-4.29-10.62-5.44-8.23-11.14-16.3-16.71-24.44C258.07,255.37,255.9,256.62,256.82,258Z"/><path class="cls-2" d="M88.28,81.77l-.4-11.39a15.08,15.08,0,0,0-.43-3.71,5.38,5.38,0,0,0-3.76-3.94,7.56,7.56,0,0,0-4.64.82,7.58,7.58,0,0,0-4.88,5.33,15,15,0,0,0,0,4.87,81.55,81.55,0,0,0,1.48,8.91Z"/><path class="cls-2" d="M89.53,81.77c-.14-3.91-.26-7.82-.41-11.73-.12-3-.74-6.25-3.58-7.9s-6.25-.4-8.75,1.18a8.69,8.69,0,0,0-4.08,7.26,35,35,0,0,0,.54,6.13c.3,2.11.69,4.21,1.16,6.28a1.25,1.25,0,0,0,1.2.92L88.28,83c1.6-.11,1.61-2.61,0-2.5l-12.67.89,1.21.92c-.44-2-.81-3.92-1.1-5.91a30.86,30.86,0,0,1-.51-5.84c.13-3.35,2.41-5.29,5.4-6.31,1.52-.52,3.1-.63,4.33.53a6.43,6.43,0,0,1,1.65,4.55c.23,4.13.3,8.28.44,12.42C87.09,83.37,89.59,83.38,89.53,81.77Z"/><path class="cls-3" d="M86.23,83.09l-.3-8.41a11.74,11.74,0,0,0-.31-2.74A3.91,3.91,0,0,0,82.92,69a5.25,5.25,0,0,0-3.33.59,5.56,5.56,0,0,0-3.5,3.94,11.73,11.73,0,0,0,0,3.6,59.38,59.38,0,0,0,1.08,6.58Z"/><path class="cls-3" d="M87.48,83.09c-.1-2.88-.19-5.77-.31-8.66-.09-2.34-.57-4.82-2.75-6.12s-4.74-.36-6.63.86a6.8,6.8,0,0,0-3.1,5.65,26.54,26.54,0,0,0,.41,4.62c.22,1.55.5,3.1.83,4.64a1.25,1.25,0,0,0,1.21.91l9.09-.65c1.6-.11,1.61-2.61,0-2.5l-9.09.65,1.2.92a35.18,35.18,0,0,1-1.15-8.59c.09-2.28,1.57-3.63,3.62-4.35a2.52,2.52,0,0,1,2.76.31,4.49,4.49,0,0,1,1.08,3.14c.17,3,.22,6.12.33,9.17C85,84.7,87.54,84.71,87.48,83.09Z"/><ellipse class="cls-4" cx="133.95" cy="288.67" rx="10.18" ry="11.61"/><circle class="cls-5" cx="83.43" cy="176.3" r="47.11"/><circle class="cls-6" cx="73.48" cy="165.01" r="30.68"/><circle class="cls-4" cx="73.48" cy="165.56" r="23.98"/><circle class="cls-5" cx="203.43" cy="179.37" r="47.11"/><circle class="cls-6" cx="195.43" cy="165.69" r="30.68"/><circle class="cls-4" cx="195.43" cy="166.23" r="23.98"/><path class="cls-7" d="M139.05,176.86a8.47,8.47,0,0,1,1.5-.69c-.19,0-.32.13-.05,0l.37-.14c.26-.09.51-.17.77-.24s.54-.12.81-.17c-.23,0-.28,0,0,0s.26,0,.4,0a1.48,1.48,0,0,0,.36,0c-.09,0-.52-.08-.14,0s.9.14,1.35.19c.07,0,.5.06.09,0s0,0,.07,0l.68.15a13.56,13.56,0,0,1,1.41.44l.14.05c-.32-.13.07,0,.13.06.22.1.43.21.64.33s.39.24.59.36-.32-.31-.12-.1.2.17.29.25a2.5,2.5,0,0,0,3.53-3.53,12.6,12.6,0,0,0-7.26-3l-.16,0c.36.06-.16,0-.23,0a11.19,11.19,0,0,0-1.28-.16,8.51,8.51,0,0,0-2.41.29,23.25,23.25,0,0,0-4,1.6,2.5,2.5,0,0,0-.89,3.42,2.57,2.57,0,0,0,3.42.9Z"/><path class="cls-7" d="M267.13,176.16a169.07,169.07,0,0,1,18.5-14.6,2.56,2.56,0,0,0,.89-3.42,2.52,2.52,0,0,0-3.42-.9,177.4,177.4,0,0,0-19.5,15.38,2.5,2.5,0,0,0,3.53,3.54Z"/><path class="cls-7" d="M23.26,168.58A177.4,177.4,0,0,0,3.76,153.2a2.52,2.52,0,0,0-3.42.9,2.56,2.56,0,0,0,.89,3.42,167.87,167.87,0,0,1,18.5,14.6,2.56,2.56,0,0,0,3.53,0,2.53,2.53,0,0,0,0-3.54Z"/><rect class="cls-8" x="20.38" y="119.91" width="112.88" height="112.88" rx="16.66" transform="translate(5.04 -2.11) rotate(1.63)"/><g class="cls-9"><path class="cls-10" d="M63.84,183.7A312.8,312.8,0,0,1,91,156c2.4-2.16-1.15-5.68-3.54-3.54a311.44,311.44,0,0,0-27.19,27.67,2.54,2.54,0,0,0,0,3.53,2.5,2.5,0,0,0,3.53,0Z"/></g><g class="cls-9"><path class="cls-10" d="M76.8,195.77l.64-.85.27-.34c0-.05.39-.51.2-.27l.21-.27.27-.35.63-.79c.9-1.12,1.81-2.23,2.75-3.32a61.29,61.29,0,0,1,5.74-5.88,2.5,2.5,0,0,0,0-3.53,2.56,2.56,0,0,0-3.54,0,86.21,86.21,0,0,0-11.49,13.08,2.51,2.51,0,0,0,.9,3.42,2.58,2.58,0,0,0,3.42-.9Z"/></g><rect class="cls-8" x="151.2" y="122.64" width="112.88" height="112.88" rx="16.66" transform="translate(5.17 -5.83) rotate(1.63)"/><g class="cls-9"><path class="cls-10" d="M194.66,186.44a310.19,310.19,0,0,1,27.2-27.67c2.39-2.15-1.15-5.68-3.54-3.53a312.8,312.8,0,0,0-27.2,27.66,2.57,2.57,0,0,0,0,3.54,2.54,2.54,0,0,0,3.54,0Z"/></g><g class="cls-9"><path class="cls-10" d="M207.62,198.51c.21-.29.42-.57.64-.85l.26-.35s.4-.51.21-.26l.21-.27.27-.35.63-.79q1.33-1.68,2.75-3.32a60.12,60.12,0,0,1,5.74-5.88,2.53,2.53,0,0,0,0-3.54,2.57,2.57,0,0,0-3.54,0A85.13,85.13,0,0,0,203.3,196a2.51,2.51,0,0,0,.9,3.42,2.58,2.58,0,0,0,3.42-.89Z"/></g><path class="cls-11" d="M143.08,39.35A87.84,87.84,0,0,0,126,67.94l-.13.29c6.72,9.3,14.2,18.36,23.91,24.49s21.13,9,32.42,11.28c5.39,1.08,10.87,2,16.35,1.61a61.79,61.79,0,0,0,11.55-2.42c7.22-2,14.67-4.3,20.21-9.35l.37.16A315.26,315.26,0,0,0,234,48.17"/><path class="cls-12" d="M141.31,37.58a93.1,93.1,0,0,0-10.42,14.17c-1.46,2.46-2.81,5-4,7.59s-2.11,5.38-3.18,7.63a2.52,2.52,0,0,0,0,2.52,121.08,121.08,0,0,0,15.13,17.85,65.07,65.07,0,0,0,20.08,12.78c7.57,3.08,15.58,4.91,23.57,6.48a69.44,69.44,0,0,0,13.16,1.62,49.85,49.85,0,0,0,13.06-2c8.28-2.24,16.84-4.71,23.36-10.57L229,96l.37.17c1.29.59,3.42.26,3.68-1.49a321.71,321.71,0,0,0,3.45-46.5c0-3.22-5-3.23-5,0a311.77,311.77,0,0,1-3.28,45.17l3.68-1.49-.37-.17a2.61,2.61,0,0,0-3,.39c-5.21,4.68-12.11,6.74-18.71,8.6A58.57,58.57,0,0,1,198,103.15a49.67,49.67,0,0,1-12.1-1c-14.87-2.72-30-6.55-41.7-16.69C138,80.09,132.82,73.62,128,67v2.52c1.14-2.42,1.95-5,3.09-7.43s2.48-5,3.9-7.41a85,85,0,0,1,9.86-13.53c2.13-2.39-1.39-5.94-3.54-3.54Z"/><polygon class="cls-13" points="183.83 68.86 113.19 15.56 191.92 0.53 272.68 53.36 183.83 68.86"/><path class="cls-14" d="M190.68,33c16,1.09,31,7.81,44.3,16.44a201.77,201.77,0,0,1,17.44,12.76,33.31,33.31,0,0,1,6.65,6.66,10.9,10.9,0,0,1,1.8,3.78,7.35,7.35,0,0,1-.48,4.14c-3.05,9.27-3.28,19.13-3.55,28.78a1.25,1.25,0,0,0,2.5,0c.25-9.06.45-18.26,3.11-27a14.58,14.58,0,0,0,1.07-4.86,10.42,10.42,0,0,0-1.1-4.09,24.43,24.43,0,0,0-6.05-7.33c-2.33-2.08-4.84-3.94-7.3-5.85-3.25-2.51-6.56-4.94-10-7.25a128.41,128.41,0,0,0-21.67-12,82.87,82.87,0,0,0-26.76-6.66c-1.61-.11-1.6,2.39,0,2.5Z"/><path class="cls-14" d="M261.63,73.73c3.91,3.11,5.62,7.91,6.56,12.67a53.59,53.59,0,0,1,.39,18.39c-.23,1.58,2.17,2.26,2.41.67a56.86,56.86,0,0,0-.39-19.73c-1-5.13-3-10.41-7.2-13.77-1.24-1-3,.77-1.77,1.77Z"/><path class="cls-14" d="M261.93,75.18a170.42,170.42,0,0,1,1.28,28.65c-.06,1.61,2.44,1.6,2.5,0a170.42,170.42,0,0,0-1.28-28.65c-.21-1.57-2.71-1.59-2.5,0Z"/><path class="cls-14" d="M262.56,77.35c-3,8.3-5.85,18.11.14,25.81,1,1.27,2.74-.51,1.77-1.76-5.32-6.85-2.09-16.17.5-23.39.54-1.51-1.87-2.17-2.41-.66Z"/><path class="cls-14" d="M263.34,78.16c4.51,7.5,7.68,17.24,2.45,25.23-.88,1.35,1.28,2.61,2.16,1.27,5.72-8.75,2.51-19.52-2.45-27.76a1.25,1.25,0,0,0-2.16,1.26Z"/><path class="cls-14" d="M263.79,82.53a30.68,30.68,0,0,0,3.32,14.25c.73,1.44,2.89.17,2.16-1.26a28,28,0,0,1-3-13,1.25,1.25,0,0,0-2.5,0Z"/></g></g></svg>