<svg xmlns="http://www.w3.org/2000/svg" xmlns:xlink="http://www.w3.org/1999/xlink" viewBox="0 0 286.86 358.45"><defs><style>.cls-1{fill:url(#radial-gradient);}.cls-2{fill:#bcdff5;}.cls-3{fill:#fff;stroke:#fff;}.cls-13,.cls-3,.cls-5,.cls-8{stroke-miterlimit:10;}.cls-4{fill:#2e76bb;}.cls-5,.cls-7{fill:#231f20;}.cls-5,.cls-8{stroke:#231f20;}.cls-6{fill:#00729e;}.cls-8{fill:#9cd9e5;fill-opacity:0.43;stroke-width:8px;}.cls-9{opacity:0.75;}.cls-10{fill:#bde4ed;}.cls-11,.cls-13{fill:#1b191d;}.cls-12{fill:#150e1d;}.cls-13{stroke:#150e1d;}.cls-14{fill:#faaf40;}</style><radialGradient id="radial-gradient" cx="81.7" cy="168.48" r="136.45" gradientTransform="translate(55.82 36.47) scale(1.04 0.95)" gradientUnits="userSpaceOnUse"><stop offset="0" stop-color="#a7dbda"/><stop offset="0.78" stop-color="#bcdff5"/></radialGradient></defs><title>2-okay-0</title><g id="Layer_2" data-name="Layer 2"><g id="Layer_1-2" data-name="Layer 1"><path class="cls-1" d="M277.83,186.52c0,77.62-53.76,143.32-139.23,143.32S4.22,264.14,4.22,186.52,53.12,61.66,138.6,61.66,277.83,108.9,277.83,186.52Z"/><path class="cls-2" d="M63.3,302.5,51.15,327c-1.34,2.71-2.7,5.48-3,8.48-.58,5.66,2.79,11.17,7.38,14.53s10.23,4.92,15.8,6.08c7.5,1.55,16.23,2.18,21.92-3,2.92-2.64,4.53-6.42,5.88-10.12a130.86,130.86,0,0,0,5.75-21.12Z"/><path class="cls-2" d="M62.22,301.87c-4.38,8.83-9,17.59-13.14,26.53-1.78,3.81-2.85,7.77-1.79,12a19,19,0,0,0,6.13,9.56c6.15,5.29,15,7.28,22.82,8.23,7.53.9,15.52-.28,20.22-6.82,2.81-3.92,4.27-8.87,5.7-13.41a130.64,130.64,0,0,0,3.91-15.71,1.27,1.27,0,0,0-.57-1.41l-14-6.53L69.12,303.84l-5.19-2.42c-1.45-.68-2.72,1.48-1.26,2.16l14,6.52L99,320.53l5.2,2.42-.58-1.41c-.8,4.29-1.79,8.54-3,12.74a85.65,85.65,0,0,1-4.14,11.88c-1.55,3.38-3.7,6.34-7.09,8a20.52,20.52,0,0,1-10.09,1.7,56.51,56.51,0,0,1-10.81-1.73,36.59,36.59,0,0,1-11-4.29,18.3,18.3,0,0,1-7.19-8.16c-1.59-3.76-1.12-7.55.49-11.22,2-4.53,4.37-8.91,6.56-13.34l7-14C65.09,301.69,62.94,300.42,62.22,301.87Z"/><path class="cls-2" d="M151.55,307.35l-5.26,26.82c-.58,3-1.17,6-.68,9,.93,5.61,5.64,10,10.95,12.07s11.17,2.05,16.84,1.7c7.65-.48,16.23-2.17,20.36-8.62,2.13-3.33,2.69-7.39,3-11.32a131.15,131.15,0,0,0,0-21.89Z"/><path class="cls-2" d="M150.35,307l-2.92,14.88c-1,4.84-2,9.67-2.83,14.53-.68,4.18-.55,8.31,1.69,12a19.18,19.18,0,0,0,8,7.12c7.42,3.65,16.69,3.24,24.67,2,7.11-1.09,14.29-4.13,17.2-11.18,1.87-4.51,2-9.71,2.22-14.52a134.42,134.42,0,0,0-.34-16.79,1.28,1.28,0,0,0-.92-1.2l-15.23-2.61-24.33-4.16-5.64-1c-1.58-.27-2.25,2.14-.67,2.41l15.23,2.61,24.33,4.16,5.64,1-.91-1.21a134.82,134.82,0,0,1,.44,13.63,77,77,0,0,1-1,12.78,15.1,15.1,0,0,1-5,9.24,21.2,21.2,0,0,1-9,3.93,55.83,55.83,0,0,1-10.47,1.14,36.57,36.57,0,0,1-12.32-1.35,18.16,18.16,0,0,1-8.67-5.77,13.51,13.51,0,0,1-2.63-10.58c.65-5,1.9-10.07,2.88-15.06l3-15.36C153.07,306.11,150.66,305.43,150.35,307Z"/><path class="cls-2" d="M28,251.12,10.77,272.33a37.31,37.31,0,0,0-5.09,7.39c-2.33,5-1.68,9.93.59,13s5.93,4.65,9.67,5.84c5,1.6,11.3,2.43,17.24-1.93,3-2.24,5.51-5.52,7.76-8.74A190.94,190.94,0,0,0,52.3,269.48Z"/><path class="cls-2" d="M27.12,250.23,10.67,270.49c-2.48,3.05-5.12,6.1-6.58,9.8a14.6,14.6,0,0,0-.17,10.76c2.48,6.07,9.83,8.8,15.85,9.77a19,19,0,0,0,9.84-.79,22.27,22.27,0,0,0,8.92-6.81,108.41,108.41,0,0,0,7.7-11q3.8-5.94,7.15-12.14a1.28,1.28,0,0,0-.45-1.71L31.67,252.34l-3-2.3c-1.28-1-2.53,1.2-1.26,2.16l21.25,16.06,3.05,2.3-.45-1.71A191.54,191.54,0,0,1,39.36,288a31.14,31.14,0,0,1-7.2,7.85,15.35,15.35,0,0,1-9.08,2.77,26.68,26.68,0,0,1-8.67-1.88c-2.85-1-5.8-2.56-7.46-5.22a11.58,11.58,0,0,1-.78-9.69c1.13-3.42,3.55-6.26,5.79-9L28.88,252C29.89,250.76,28.13,249,27.12,250.23Z"/><path class="cls-2" d="M258.4,254.65l15.44,22.55A37.66,37.66,0,0,1,278.3,285c1.92,5.15.87,10-1.65,12.95s-6.29,4.16-10.11,5c-5.15,1.18-11.46,1.49-17-3.34-2.87-2.48-5.05-5.95-7-9.34A191.51,191.51,0,0,1,232.68,271Z"/><path class="cls-2" d="M257.32,255.28l13.76,20.09c3.8,5.55,9.08,12.17,6.13,19.28a11.1,11.1,0,0,1-6.74,5.87,29.77,29.77,0,0,1-8.69,1.89,16,16,0,0,1-8.8-1.86,22,22,0,0,1-7.34-7.52,157.54,157.54,0,0,1-11.88-22.7l-.45,1.71,22.5-14.27,3.22-2c1.36-.86.1-3-1.26-2.16l-22.5,14.27-3.22,2.05a1.29,1.29,0,0,0-.45,1.71A169.73,169.73,0,0,0,243,293.55a27.76,27.76,0,0,0,7.47,8.38,17.84,17.84,0,0,0,9.52,3,30.19,30.19,0,0,0,9.43-1.44c3.24-1,6.42-2.49,8.53-5.21a13.3,13.3,0,0,0,2.54-9.22c-.34-3.93-2.15-7.38-4.3-10.62-5.44-8.23-11.14-16.3-16.71-24.44C258.58,252.7,256.41,253.94,257.32,255.28Z"/><circle class="cls-3" cx="81.99" cy="174.6" r="47.11"/><circle class="cls-4" cx="81.99" cy="178.91" r="30.68"/><circle class="cls-5" cx="81.99" cy="179.46" r="23.98"/><circle class="cls-3" cx="202" cy="177.66" r="47.11"/><circle class="cls-4" cx="202" cy="181.98" r="30.68"/><circle class="cls-5" cx="202" cy="182.53" r="23.98"/><path class="cls-2" d="M88.79,79.09,88.38,67.7A15.69,15.69,0,0,0,88,64a5.38,5.38,0,0,0-3.76-3.93,7.53,7.53,0,0,0-4.64.81,7.65,7.65,0,0,0-4.89,5.33,15.34,15.34,0,0,0,0,4.88A79.61,79.61,0,0,0,76.12,80Z"/><path class="cls-2" d="M90,79.09c-.14-3.91-.26-7.82-.42-11.73-.12-3-.74-6.25-3.58-7.9s-6.25-.39-8.74,1.18a8.69,8.69,0,0,0-4.09,7.27A34.17,34.17,0,0,0,73.76,74c.3,2.11.69,4.2,1.15,6.28a1.28,1.28,0,0,0,1.21.92l12.67-.9c1.59-.11,1.61-2.61,0-2.5l-12.67.9,1.2.91q-.64-2.93-1.1-5.9a31.85,31.85,0,0,1-.51-5.84c.14-3.35,2.41-5.29,5.41-6.31,1.52-.52,3.09-.64,4.33.52a6.42,6.42,0,0,1,1.64,4.55c.23,4.14.3,8.29.45,12.42C87.59,80.7,90.09,80.71,90,79.09Z"/><path class="cls-6" d="M86.74,80.42,86.44,72a11.81,11.81,0,0,0-.31-2.74,3.92,3.92,0,0,0-2.7-2.91,5.31,5.31,0,0,0-3.33.6,5.54,5.54,0,0,0-3.5,3.93,11.42,11.42,0,0,0,0,3.6,62,62,0,0,0,1.07,6.59Z"/><path class="cls-6" d="M88,80.42c-.11-2.89-.2-5.78-.31-8.67-.09-2.34-.58-4.82-2.75-6.12s-4.74-.36-6.63.87a6.74,6.74,0,0,0-3.1,5.64,26.53,26.53,0,0,0,.4,4.62c.22,1.56.5,3.1.84,4.64a1.25,1.25,0,0,0,1.2.92l9.1-.65c1.59-.11,1.6-2.62,0-2.5l-9.1.65,1.21.92a35.33,35.33,0,0,1-1.15-8.6c.08-2.27,1.56-3.62,3.61-4.34a2.52,2.52,0,0,1,2.77.31,4.53,4.53,0,0,1,1.08,3.13c.17,3.06.22,6.12.33,9.18C85.54,82,88,82,88,80.42Z"/><path class="cls-7" d="M139.05,174.31a8.47,8.47,0,0,1,1.5-.69c-.19,0-.32.13-.05,0l.37-.14c.26-.08.51-.17.77-.23a7.84,7.84,0,0,1,.81-.18c-.23,0-.28,0,0,0h.4a1.48,1.48,0,0,0,.36,0c-.09,0-.52-.07-.14,0s.9.13,1.35.18h.09c-.4-.05,0,0,.07,0l.68.14a13.56,13.56,0,0,1,1.41.44l.14,0c-.32-.13.07,0,.13.06.22.1.43.21.64.33s.39.25.59.36-.32-.31-.12-.1l.29.26a2.5,2.5,0,0,0,3.53-3.54,12.74,12.74,0,0,0-7.26-3c-.07,0-.5-.06-.16,0s-.16,0-.23,0a11.19,11.19,0,0,0-1.28-.16,8.89,8.89,0,0,0-2.41.29,23.25,23.25,0,0,0-4,1.6,2.5,2.5,0,0,0-.89,3.42,2.57,2.57,0,0,0,3.42.9Z"/><path class="cls-7" d="M267.13,173.61a169.07,169.07,0,0,1,18.5-14.6,2.56,2.56,0,0,0,.89-3.42,2.53,2.53,0,0,0-3.42-.9,178.6,178.6,0,0,0-19.5,15.38,2.5,2.5,0,0,0,3.53,3.54Z"/><path class="cls-7" d="M23.26,166a178.6,178.6,0,0,0-19.5-15.38,2.52,2.52,0,0,0-3.42.9A2.56,2.56,0,0,0,1.23,155a169.07,169.07,0,0,1,18.5,14.6,2.55,2.55,0,0,0,3.53,0,2.53,2.53,0,0,0,0-3.54Z"/><rect class="cls-8" x="20.38" y="117.36" width="112.88" height="112.88" rx="16.66" transform="translate(4.97 -2.11) rotate(1.63)"/><g class="cls-9"><path class="cls-10" d="M63.84,181.16A311.56,311.56,0,0,1,91,153.49c2.4-2.15-1.15-5.68-3.54-3.53a310,310,0,0,0-27.19,27.66,2.55,2.55,0,0,0,0,3.54,2.52,2.52,0,0,0,3.53,0Z"/></g><g class="cls-9"><path class="cls-10" d="M76.8,193.22c.21-.28.43-.56.64-.85l.27-.34c0-.05.39-.51.2-.27s.22-.27.21-.26l.27-.35.63-.79c.9-1.13,1.81-2.24,2.75-3.32a59,59,0,0,1,5.74-5.88,2.52,2.52,0,0,0,0-3.54,2.56,2.56,0,0,0-3.54,0A86.21,86.21,0,0,0,72.48,190.7a2.51,2.51,0,0,0,.9,3.42,2.58,2.58,0,0,0,3.42-.9Z"/></g><rect class="cls-8" x="151.2" y="120.1" width="112.88" height="112.88" rx="16.66" transform="translate(5.1 -5.83) rotate(1.63)"/><g class="cls-9"><path class="cls-10" d="M194.66,183.89a308.74,308.74,0,0,1,27.2-27.66c2.39-2.16-1.15-5.69-3.54-3.54a311.56,311.56,0,0,0-27.2,27.67,2.56,2.56,0,0,0,0,3.53,2.54,2.54,0,0,0,3.54,0Z"/></g><g class="cls-9"><path class="cls-10" d="M207.62,196c.21-.29.42-.57.64-.85l.26-.35s.4-.51.21-.26l.21-.27.27-.35.63-.79q1.33-1.68,2.75-3.32a60.12,60.12,0,0,1,5.74-5.88,2.51,2.51,0,0,0,0-3.53,2.55,2.55,0,0,0-3.54,0,84.58,84.58,0,0,0-11.49,13.07,2.51,2.51,0,0,0,.9,3.42,2.57,2.57,0,0,0,3.42-.89Z"/></g><path class="cls-7" d="M122.87,290.34c10.79-.54,21,7.33,31.82,3.39a2.57,2.57,0,0,0,1.75-3.07,2.53,2.53,0,0,0-3.08-1.75c-4.83,1.76-9.79.59-14.58-.73-5.19-1.43-10.45-3.11-15.91-2.84-3.2.16-3.22,5.16,0,5Z"/><path class="cls-11" d="M143,39.35a87.84,87.84,0,0,0-17.11,28.59l-.13.29c6.72,9.3,14.2,18.36,23.91,24.49s21.13,9,32.42,11.28c5.39,1.08,10.87,2,16.35,1.61a61.79,61.79,0,0,0,11.55-2.42c7.22-2,14.67-4.3,20.2-9.35l.38.16a315.26,315.26,0,0,0,3.36-45.83"/><path class="cls-12" d="M141.18,37.58a93.1,93.1,0,0,0-10.42,14.17c-1.47,2.46-2.81,5-4,7.59s-2.11,5.38-3.18,7.63a2.52,2.52,0,0,0,0,2.52,121.08,121.08,0,0,0,15.13,17.85,65.07,65.07,0,0,0,20.08,12.78c7.57,3.08,15.58,4.91,23.57,6.48a69.44,69.44,0,0,0,13.16,1.62,49.91,49.91,0,0,0,13.06-2c8.28-2.24,16.84-4.71,23.36-10.57l-3,.39.37.17c1.29.59,3.42.26,3.68-1.49a321.71,321.71,0,0,0,3.45-46.5c0-3.22-5-3.23-5,0a311.77,311.77,0,0,1-3.28,45.17l3.68-1.49-.37-.17a2.61,2.61,0,0,0-3,.39c-5.21,4.68-12.11,6.74-18.71,8.6a58.57,58.57,0,0,1-11.77,2.48,49.67,49.67,0,0,1-12.1-1c-14.87-2.72-30-6.55-41.7-16.69-6.23-5.41-11.41-11.88-16.23-18.53v2.52c1.14-2.42,1.95-5,3.09-7.43s2.48-5,3.9-7.41a85,85,0,0,1,9.86-13.53c2.13-2.39-1.39-5.94-3.54-3.54Z"/><polygon class="cls-13" points="183.7 68.86 113.06 15.56 191.79 0.53 272.55 53.36 183.7 68.86"/><path class="cls-14" d="M190.55,33c16,1.09,31,7.81,44.3,16.44a201.77,201.77,0,0,1,17.44,12.76,33.31,33.31,0,0,1,6.65,6.66,10.9,10.9,0,0,1,1.8,3.78,7.35,7.35,0,0,1-.48,4.14c-3.05,9.27-3.28,19.13-3.55,28.78a1.25,1.25,0,0,0,2.5,0c.25-9.06.45-18.26,3.11-27a14.58,14.58,0,0,0,1.07-4.86,10.6,10.6,0,0,0-1.1-4.09,24.31,24.31,0,0,0-6.06-7.33c-2.32-2.08-4.83-3.94-7.29-5.85-3.25-2.51-6.56-4.94-10-7.25a127.93,127.93,0,0,0-21.66-12,82.94,82.94,0,0,0-26.76-6.66c-1.61-.11-1.6,2.39,0,2.5Z"/><path class="cls-14" d="M261.5,73.73c3.91,3.11,5.62,7.91,6.56,12.67a53.59,53.59,0,0,1,.39,18.39c-.24,1.58,2.17,2.26,2.41.67a56.86,56.86,0,0,0-.39-19.73c-1-5.13-3-10.41-7.2-13.77-1.24-1-3,.77-1.77,1.77Z"/><path class="cls-14" d="M261.79,75.18a169.38,169.38,0,0,1,1.29,28.65c-.06,1.61,2.44,1.6,2.5,0a169.38,169.38,0,0,0-1.29-28.65c-.2-1.57-2.7-1.59-2.5,0Z"/><path class="cls-14" d="M262.43,77.35c-3,8.3-5.85,18.11.14,25.81,1,1.27,2.74-.51,1.77-1.76-5.32-6.85-2.09-16.17.5-23.39.54-1.51-1.87-2.17-2.41-.66Z"/><path class="cls-14" d="M263.21,78.16c4.51,7.5,7.68,17.24,2.45,25.23-.88,1.35,1.28,2.61,2.16,1.27,5.72-8.75,2.51-19.52-2.45-27.76a1.25,1.25,0,0,0-2.16,1.26Z"/><path class="cls-14" d="M263.66,82.53A30.68,30.68,0,0,0,267,96.78c.73,1.44,2.89.17,2.16-1.26a28,28,0,0,1-3-13,1.25,1.25,0,0,0-2.5,0Z"/></g></g></svg>