<svg xmlns="http://www.w3.org/2000/svg" xmlns:xlink="http://www.w3.org/1999/xlink" viewBox="0 0 286.86 360.84"><defs><style>.cls-1{fill:url(#radial-gradient);}.cls-2{fill:#bcdff5;}.cls-3{fill:#00729e;}.cls-4{fill:#fff;stroke:#fff;}.cls-13,.cls-4,.cls-6,.cls-8{stroke-miterlimit:10;}.cls-5{fill:#2e76bb;}.cls-6,.cls-7{fill:#231f20;}.cls-6,.cls-8{stroke:#231f20;}.cls-8{fill:#9cd9e5;fill-opacity:0.43;stroke-width:8px;}.cls-9{opacity:0.75;}.cls-10{fill:#bde4ed;}.cls-11,.cls-13{fill:#1b191d;}.cls-12{fill:#150e1d;}.cls-13{stroke:#150e1d;}.cls-14{fill:#faaf40;}</style><radialGradient id="radial-gradient" cx="64.49" cy="170.57" r="136.45" gradientTransform="translate(73.26 36.88) scale(1.04 0.95)" gradientUnits="userSpaceOnUse"><stop offset="0" stop-color="#a7dbda"/><stop offset="0.78" stop-color="#bcdff5"/></radialGradient></defs><title>2-okay-1</title><g id="Layer_2" data-name="Layer 2"><g id="Layer_1-2" data-name="Layer 1"><path class="cls-1" d="M277.33,188.91c0,77.62-53.76,143.32-139.24,143.32S3.71,266.53,3.71,188.91,52.62,64.05,138.09,64.05,277.33,111.29,277.33,188.91Z"/><path class="cls-2" d="M62.79,304.89,50.65,329.37c-1.34,2.71-2.7,5.48-3,8.48-.59,5.66,2.79,11.17,7.38,14.53s10.23,4.92,15.8,6.08c7.5,1.55,16.23,2.18,21.91-3,2.93-2.64,4.53-6.42,5.88-10.12a130.86,130.86,0,0,0,5.75-21.12Z"/><path class="cls-2" d="M61.72,304.26c-4.39,8.83-9,17.59-13.14,26.53-1.78,3.81-2.85,7.77-1.8,11.95a19.1,19.1,0,0,0,6.13,9.56c6.15,5.29,15,7.28,22.83,8.23,7.52.9,15.51-.28,20.21-6.82,2.82-3.92,4.27-8.87,5.71-13.41a134.53,134.53,0,0,0,3.91-15.71,1.28,1.28,0,0,0-.57-1.41l-14-6.53L68.62,306.23l-5.19-2.42c-1.45-.68-2.72,1.48-1.27,2.16l14,6.52,22.37,10.43,5.19,2.42-.57-1.41q-1.2,6.44-3,12.74A85.65,85.65,0,0,1,96,348.55c-1.55,3.38-3.7,6.34-7.08,8a20.52,20.52,0,0,1-10.09,1.7A56.39,56.39,0,0,1,68,356.55a36.65,36.65,0,0,1-11-4.29,18.22,18.22,0,0,1-7.18-8.16c-1.59-3.76-1.12-7.55.49-11.22,2-4.53,4.36-8.91,6.56-13.34l6.95-14C64.59,304.08,62.43,302.81,61.72,304.26Z"/><path class="cls-2" d="M151.05,309.74l-5.27,26.82c-.58,3-1.16,6-.67,9,.93,5.61,5.63,10,10.95,12.07s11.16,2,16.84,1.7c7.64-.48,16.23-2.17,20.36-8.62,2.12-3.32,2.68-7.39,3-11.32a131.15,131.15,0,0,0,0-21.89Z"/><path class="cls-2" d="M149.84,309.4l-2.92,14.88c-.95,4.84-2,9.67-2.82,14.53-.69,4.18-.56,8.31,1.68,12a19.24,19.24,0,0,0,8,7.12c7.43,3.65,16.7,3.24,24.68,2,7.1-1.09,14.28-4.13,17.2-11.18,1.86-4.51,2-9.71,2.21-14.52a132.53,132.53,0,0,0-.34-16.79,1.27,1.27,0,0,0-.92-1.2l-15.23-2.61L157,309.5l-5.65-1c-1.57-.27-2.25,2.14-.66,2.41L166,313.55l24.32,4.16,5.65,1-.92-1.21a132,132,0,0,1,.44,13.63,75.94,75.94,0,0,1-1,12.78,15.15,15.15,0,0,1-5,9.24,21.29,21.29,0,0,1-9,3.93A55.74,55.74,0,0,1,170,358.19a36.51,36.51,0,0,1-12.31-1.35,18.12,18.12,0,0,1-8.67-5.77,13.43,13.43,0,0,1-2.63-10.58c.65-5,1.9-10.07,2.88-15.06l3-15.36C152.56,308.5,150.15,307.82,149.84,309.4Z"/><path class="cls-2" d="M27.5,253.51,10.26,274.72a37.68,37.68,0,0,0-5.08,7.39c-2.34,5-1.69,9.93.58,13s5.93,4.65,9.67,5.84c5,1.6,11.3,2.43,17.24-1.93,3.06-2.24,5.52-5.52,7.76-8.74A191,191,0,0,0,51.8,271.87Z"/><path class="cls-2" d="M26.61,252.62,10.16,272.88c-2.48,3.05-5.12,6.1-6.58,9.8a14.6,14.6,0,0,0-.16,10.76c2.47,6.07,9.82,8.8,15.85,9.77a19,19,0,0,0,9.83-.79A22.14,22.14,0,0,0,38,295.61a108.41,108.41,0,0,0,7.7-11q3.81-5.94,7.15-12.14a1.29,1.29,0,0,0-.44-1.71L31.17,254.73l-3-2.3c-1.29-1-2.53,1.2-1.27,2.16l21.26,16.06,3,2.3-.44-1.71a189.81,189.81,0,0,1-11.87,19.17,31.14,31.14,0,0,1-7.2,7.85A15.33,15.33,0,0,1,22.57,301a26.67,26.67,0,0,1-8.66-1.88c-2.85-1-5.8-2.56-7.46-5.22a11.58,11.58,0,0,1-.79-9.69c1.14-3.42,3.56-6.26,5.8-9l16.92-20.83C29.38,253.15,27.63,251.37,26.61,252.62Z"/><path class="cls-2" d="M257.9,257l15.44,22.55a37.92,37.92,0,0,1,4.46,7.78c1.92,5.14.87,10-1.65,12.94s-6.29,4.16-10.12,5c-5.15,1.18-11.45,1.49-17-3.34-2.86-2.48-5-5.95-7-9.34a191.42,191.42,0,0,1-9.81-19.31Z"/><path class="cls-2" d="M256.82,257.67l13.75,20.09c3.8,5.55,9.09,12.17,6.14,19.28-1.22,2.94-3.85,4.79-6.74,5.87a29.84,29.84,0,0,1-8.69,1.89,16,16,0,0,1-8.8-1.86,22,22,0,0,1-7.35-7.52,158.55,158.55,0,0,1-11.88-22.7l-.44,1.71,22.49-14.27,3.23-2c1.35-.86.1-3-1.27-2.16l-22.49,14.27-3.23,2a1.29,1.29,0,0,0-.44,1.71,168.49,168.49,0,0,0,11.4,21.95,27.73,27.73,0,0,0,7.46,8.38,17.87,17.87,0,0,0,9.53,3,30.23,30.23,0,0,0,9.43-1.44c3.23-1,6.42-2.49,8.53-5.21a13.3,13.3,0,0,0,2.53-9.22c-.33-3.93-2.15-7.38-4.29-10.62-5.44-8.23-11.14-16.29-16.71-24.43C258.07,255.09,255.9,256.33,256.82,257.67Z"/><path class="cls-2" d="M88.28,81.48l-.4-11.38a15.22,15.22,0,0,0-.43-3.72,5.36,5.36,0,0,0-3.76-3.93,7.55,7.55,0,0,0-4.64.81,7.62,7.62,0,0,0-4.88,5.33,15.06,15.06,0,0,0,0,4.88,82,82,0,0,0,1.48,8.91Z"/><path class="cls-2" d="M89.53,81.48c-.14-3.91-.26-7.82-.41-11.73-.12-3-.74-6.25-3.58-7.9s-6.25-.39-8.75,1.18a8.7,8.7,0,0,0-4.08,7.27,35.1,35.1,0,0,0,.54,6.13q.45,3.16,1.16,6.28a1.26,1.26,0,0,0,1.2.92l12.67-.9c1.6-.11,1.61-2.61,0-2.5l-12.67.9,1.21.91q-.66-2.92-1.1-5.9a31,31,0,0,1-.51-5.84C75.34,67,77.62,65,80.61,64c1.52-.52,3.1-.64,4.33.52a6.43,6.43,0,0,1,1.65,4.55c.23,4.14.3,8.29.44,12.42C87.09,83.09,89.59,83.1,89.53,81.48Z"/><path class="cls-3" d="M86.23,82.81l-.3-8.42a11.81,11.81,0,0,0-.31-2.74,3.91,3.91,0,0,0-2.7-2.91,5.33,5.33,0,0,0-3.33.6,5.54,5.54,0,0,0-3.5,3.93,11.73,11.73,0,0,0,0,3.6,59.56,59.56,0,0,0,1.08,6.59Z"/><path class="cls-3" d="M87.48,82.81c-.1-2.89-.19-5.78-.31-8.67-.09-2.34-.57-4.82-2.75-6.12s-4.74-.36-6.63.87a6.76,6.76,0,0,0-3.1,5.64,26.54,26.54,0,0,0,.41,4.62c.22,1.56.5,3.1.83,4.64a1.26,1.26,0,0,0,1.21.92l9.09-.65c1.6-.11,1.61-2.62,0-2.5l-9.09.65,1.2.92a35.33,35.33,0,0,1-1.15-8.6c.09-2.27,1.57-3.62,3.62-4.34a2.5,2.5,0,0,1,2.76.31,4.48,4.48,0,0,1,1.08,3.13c.17,3.06.22,6.12.33,9.18C85,84.41,87.54,84.42,87.48,82.81Z"/><circle class="cls-4" cx="83.43" cy="176.02" r="47.11"/><circle class="cls-5" cx="73.48" cy="164.72" r="30.68"/><circle class="cls-6" cx="73.48" cy="165.27" r="23.98"/><circle class="cls-4" cx="203.43" cy="179.08" r="47.11"/><circle class="cls-5" cx="195.43" cy="165.4" r="30.68"/><circle class="cls-6" cx="195.43" cy="165.95" r="23.98"/><path class="cls-7" d="M139.05,176.57a7.77,7.77,0,0,1,1.5-.68c-.19,0-.32.12-.05,0l.37-.14c.26-.09.51-.17.77-.24l.81-.18c-.23.05-.28,0,0,0h.4c.08,0,.29.06.36,0-.09,0-.52-.08-.14,0l1.35.18h.09c-.4-.05,0,0,.07,0s.46.09.68.15a11.47,11.47,0,0,1,1.41.43c.06,0,.46.18.14.05s.07,0,.13.06c.22.1.43.21.64.33s.39.25.59.36-.32-.31-.12-.1l.29.26a2.5,2.5,0,0,0,3.53-3.54,12.74,12.74,0,0,0-7.26-3c-.07,0-.5-.06-.16,0s-.16,0-.23,0c-.43-.06-.85-.13-1.28-.16a8.9,8.9,0,0,0-2.41.3,21.74,21.74,0,0,0-4,1.6,2.5,2.5,0,0,0-.89,3.42,2.56,2.56,0,0,0,3.42.89Z"/><path class="cls-7" d="M267.13,175.87a169.07,169.07,0,0,1,18.5-14.6,2.56,2.56,0,0,0,.89-3.42,2.52,2.52,0,0,0-3.42-.89,176.21,176.21,0,0,0-19.5,15.38,2.5,2.5,0,1,0,3.53,3.53Z"/><path class="cls-7" d="M23.26,168.3a176.21,176.21,0,0,0-19.5-15.38,2.52,2.52,0,0,0-3.42.89,2.56,2.56,0,0,0,.89,3.42,169.07,169.07,0,0,1,18.5,14.6,2.54,2.54,0,0,0,3.53,0,2.51,2.51,0,0,0,0-3.53Z"/><rect class="cls-8" x="20.38" y="119.62" width="112.88" height="112.88" rx="16.66" transform="translate(5.04 -2.11) rotate(1.63)"/><g class="cls-9"><path class="cls-10" d="M63.84,183.42A311.56,311.56,0,0,1,91,155.75c2.4-2.15-1.15-5.68-3.54-3.53a312.69,312.69,0,0,0-27.19,27.66,2.55,2.55,0,0,0,0,3.54,2.52,2.52,0,0,0,3.53,0Z"/></g><g class="cls-9"><path class="cls-10" d="M76.8,195.49c.21-.29.43-.57.64-.85l.27-.35.2-.26.21-.27.27-.35.63-.79c.9-1.12,1.81-2.23,2.75-3.32a61.29,61.29,0,0,1,5.74-5.88,2.52,2.52,0,0,0,0-3.54,2.57,2.57,0,0,0-3.54,0A86.21,86.21,0,0,0,72.48,193a2.51,2.51,0,0,0,.9,3.42,2.58,2.58,0,0,0,3.42-.89Z"/></g><rect class="cls-8" x="151.2" y="122.36" width="112.88" height="112.88" rx="16.66" transform="translate(5.17 -5.83) rotate(1.63)"/><g class="cls-9"><path class="cls-10" d="M194.66,186.15a311.42,311.42,0,0,1,27.2-27.66c2.39-2.16-1.15-5.68-3.54-3.54a311.56,311.56,0,0,0-27.2,27.67,2.56,2.56,0,0,0,0,3.53,2.52,2.52,0,0,0,3.54,0Z"/></g><g class="cls-9"><path class="cls-10" d="M207.62,198.22c.21-.28.42-.57.64-.85l.26-.34.21-.27c-.19.24.21-.28.21-.27l.27-.35.63-.79q1.33-1.68,2.75-3.32a60.12,60.12,0,0,1,5.74-5.88,2.51,2.51,0,0,0,0-3.53,2.56,2.56,0,0,0-3.54,0A85.13,85.13,0,0,0,203.3,195.7a2.51,2.51,0,0,0,.9,3.42,2.58,2.58,0,0,0,3.42-.9Z"/></g><path class="cls-7" d="M123.55,281a27.77,27.77,0,0,1,26.84,10,2.52,2.52,0,0,0,3.54,0,2.56,2.56,0,0,0,0-3.53,32.69,32.69,0,0,0-31.71-11.27,2.5,2.5,0,1,0,1.33,4.82Z"/><path class="cls-11" d="M142.59,39.35a87.81,87.81,0,0,0-17.1,28.59l-.14.29c6.73,9.3,14.2,18.36,23.91,24.49s21.14,9,32.42,11.28c5.39,1.08,10.87,2,16.35,1.61a61.79,61.79,0,0,0,11.55-2.42c7.22-2,14.67-4.3,20.21-9.35l.37.16a313.86,313.86,0,0,0,3.36-45.83"/><path class="cls-12" d="M140.82,37.58A93.1,93.1,0,0,0,130.4,51.75c-1.46,2.46-2.81,5-4,7.59s-2.12,5.38-3.19,7.63a2.52,2.52,0,0,0,0,2.52,122.31,122.31,0,0,0,15.13,17.85,65,65,0,0,0,20.09,12.78C166,103.2,174,105,182,106.6a69.44,69.44,0,0,0,13.16,1.62,50,50,0,0,0,13.07-2c8.27-2.24,16.84-4.71,23.36-10.57l-3,.39.37.17c1.28.59,3.41.26,3.67-1.49A321.71,321.71,0,0,0,236,48.17c0-3.22-5-3.23-5,0a313.18,313.18,0,0,1-3.27,45.17l3.67-1.49-.37-.17a2.62,2.62,0,0,0-3,.39c-5.21,4.68-12.11,6.74-18.71,8.6a58.48,58.48,0,0,1-11.76,2.48,49.63,49.63,0,0,1-12.1-1c-14.88-2.72-30-6.55-41.71-16.69-6.22-5.41-11.41-11.88-16.23-18.53v2.52c1.15-2.42,2-5,3.09-7.43s2.48-5,3.9-7.41a85.6,85.6,0,0,1,9.86-13.53c2.14-2.39-1.39-5.94-3.54-3.54Z"/><polygon class="cls-13" points="183.34 68.86 112.7 15.56 191.44 0.53 272.19 53.36 183.34 68.86"/><path class="cls-14" d="M190.19,33c16,1.09,31,7.81,44.3,16.44a203.48,203.48,0,0,1,17.45,12.76,33.84,33.84,0,0,1,6.65,6.66,10.87,10.87,0,0,1,1.79,3.78,7.27,7.27,0,0,1-.48,4.14c-3,9.27-3.28,19.13-3.54,28.78-.05,1.61,2.45,1.61,2.5,0,.25-9.06.45-18.26,3.1-27A14.58,14.58,0,0,0,263,73.67a10.42,10.42,0,0,0-1.1-4.09,24.43,24.43,0,0,0-6.05-7.33c-2.33-2.08-4.84-3.94-7.3-5.85-3.25-2.51-6.56-4.94-10-7.25a128.41,128.41,0,0,0-21.67-12,82.87,82.87,0,0,0-26.76-6.66c-1.6-.11-1.6,2.39,0,2.5Z"/><path class="cls-14" d="M261.15,73.73c3.9,3.11,5.61,7.91,6.56,12.67a53.59,53.59,0,0,1,.39,18.39c-.24,1.58,2.17,2.26,2.41.67a57.35,57.35,0,0,0-.39-19.73c-1-5.13-3-10.41-7.21-13.77-1.24-1-3,.77-1.76,1.77Z"/><path class="cls-14" d="M261.44,75.18a170.42,170.42,0,0,1,1.28,28.65c-.06,1.61,2.44,1.6,2.5,0a170.42,170.42,0,0,0-1.28-28.65c-.21-1.57-2.71-1.59-2.5,0Z"/><path class="cls-14" d="M262.07,77.35c-3,8.3-5.85,18.11.14,25.81,1,1.27,2.75-.51,1.77-1.76-5.32-6.85-2.09-16.17.5-23.39.55-1.51-1.87-2.17-2.41-.66Z"/><path class="cls-14" d="M262.85,78.16c4.52,7.5,7.69,17.24,2.46,25.23-.89,1.35,1.28,2.61,2.15,1.27C273.19,95.91,270,85.14,265,76.9a1.25,1.25,0,0,0-2.16,1.26Z"/><path class="cls-14" d="M263.3,82.53a30.69,30.69,0,0,0,3.33,14.25c.72,1.44,2.88.17,2.15-1.26a28,28,0,0,1-3-13,1.25,1.25,0,0,0-2.5,0Z"/></g></g></svg>