<svg xmlns="http://www.w3.org/2000/svg" xmlns:xlink="http://www.w3.org/1999/xlink" viewBox="0 0 286.86 359.85"><defs><style>.cls-1{fill:url(#radial-gradient);}.cls-2{fill:#bcdff5;}.cls-3{fill:#fff;stroke:#fff;}.cls-13,.cls-3,.cls-5,.cls-8{stroke-miterlimit:10;}.cls-4{fill:#2e76bb;}.cls-5,.cls-7{fill:#231f20;}.cls-5,.cls-8{stroke:#231f20;}.cls-6{fill:#00729e;}.cls-8{fill:#9cd9e5;fill-opacity:0.43;stroke-width:8px;}.cls-9{opacity:0.75;}.cls-10{fill:#bde4ed;}.cls-11,.cls-13{fill:#1b191d;}.cls-12{fill:#150e1d;}.cls-13{stroke:#150e1d;}.cls-14{fill:#faaf40;}</style><radialGradient id="radial-gradient" cx="49.24" cy="196.74" r="136.45" gradientTransform="translate(89.67 11.1) scale(1.04 0.95)" gradientUnits="userSpaceOnUse"><stop offset="0" stop-color="#a7dbda"/><stop offset="0.78" stop-color="#bcdff5"/></radialGradient></defs><title>2-stressed-2</title><g id="Layer_2" data-name="Layer 2"><g id="Layer_1-2" data-name="Layer 1"><path class="cls-1" d="M277.83,187.92c0,77.62-53.76,143.32-139.23,143.32S4.22,265.54,4.22,187.92,53.12,63.06,138.6,63.06,277.83,110.3,277.83,187.92Z"/><path class="cls-2" d="M63.3,303.9,51.15,328.38c-1.34,2.71-2.7,5.48-3,8.48-.58,5.66,2.79,11.17,7.38,14.53s10.23,4.92,15.8,6.07c7.5,1.56,16.23,2.19,21.92-2.95,2.92-2.65,4.53-6.42,5.88-10.12a131.14,131.14,0,0,0,5.75-21.12Z"/><path class="cls-2" d="M62.22,303.26c-4.38,8.84-9,17.6-13.14,26.54-1.78,3.81-2.85,7.77-1.79,11.95a19,19,0,0,0,6.13,9.56c6.15,5.28,15,7.28,22.82,8.22,7.53.91,15.52-.27,20.22-6.81,2.81-3.92,4.27-8.87,5.7-13.41a130.64,130.64,0,0,0,3.91-15.71,1.27,1.27,0,0,0-.57-1.41l-14-6.53L69.12,305.24l-5.19-2.42c-1.45-.68-2.72,1.48-1.26,2.15l14,6.53L99,321.93l5.2,2.42-.58-1.42c-.8,4.3-1.79,8.55-3,12.75a85.65,85.65,0,0,1-4.14,11.88c-1.55,3.38-3.7,6.34-7.09,8a20.52,20.52,0,0,1-10.09,1.7,56.51,56.51,0,0,1-10.81-1.73,36.86,36.86,0,0,1-11-4.29,18.3,18.3,0,0,1-7.19-8.16c-1.59-3.76-1.12-7.55.49-11.23,2-4.52,4.37-8.9,6.56-13.33l7-14C65.09,303.09,62.94,301.82,62.22,303.26Z"/><path class="cls-2" d="M151.55,308.74l-5.26,26.83c-.58,3-1.17,6-.68,9,.93,5.61,5.64,10,10.95,12.07s11.17,2.05,16.84,1.7c7.65-.48,16.23-2.17,20.36-8.63,2.13-3.32,2.69-7.38,3-11.31a131.15,131.15,0,0,0,0-21.89Z"/><path class="cls-2" d="M150.35,308.41l-2.92,14.88c-1,4.83-2,9.67-2.83,14.53-.68,4.18-.55,8.3,1.69,12a19.18,19.18,0,0,0,8,7.12c7.42,3.65,16.69,3.24,24.67,2,7.11-1.09,14.29-4.13,17.2-11.18,1.87-4.51,2-9.71,2.22-14.52a134.42,134.42,0,0,0-.34-16.79,1.28,1.28,0,0,0-.92-1.2l-15.23-2.61-24.33-4.16-5.64-1c-1.58-.27-2.25,2.14-.67,2.41l15.23,2.61,24.33,4.16,5.64,1-.91-1.21a134.73,134.73,0,0,1,.44,13.63,77.09,77.09,0,0,1-1,12.78,15.1,15.1,0,0,1-5,9.24,21.32,21.32,0,0,1-9,3.93,55.83,55.83,0,0,1-10.47,1.14,36.57,36.57,0,0,1-12.32-1.35,18.16,18.16,0,0,1-8.67-5.77,13.51,13.51,0,0,1-2.63-10.58c.65-5.05,1.9-10.07,2.88-15.06l3-15.36C153.07,307.51,150.66,306.83,150.35,308.41Z"/><path class="cls-2" d="M28,252.52,10.77,273.73a37.31,37.31,0,0,0-5.09,7.39c-2.33,5-1.68,9.93.59,13s5.93,4.65,9.67,5.84c5,1.6,11.3,2.42,17.24-1.93,3-2.24,5.51-5.52,7.76-8.74A192.17,192.17,0,0,0,52.3,270.88Z"/><path class="cls-2" d="M27.12,251.63,10.67,271.88c-2.48,3.06-5.12,6.1-6.58,9.81a14.6,14.6,0,0,0-.17,10.76c2.48,6.07,9.83,8.8,15.85,9.77a19,19,0,0,0,9.84-.79,22.27,22.27,0,0,0,8.92-6.81,109.55,109.55,0,0,0,7.7-11q3.8-5.94,7.15-12.15a1.29,1.29,0,0,0-.45-1.71L31.67,253.74l-3-2.3c-1.28-1-2.53,1.2-1.26,2.15l21.25,16.07,3.05,2.3-.45-1.71a190.27,190.27,0,0,1-11.86,19.16,31,31,0,0,1-7.2,7.86A15.42,15.42,0,0,1,23.08,300a26.68,26.68,0,0,1-8.67-1.88c-2.85-1-5.8-2.56-7.46-5.22a11.58,11.58,0,0,1-.78-9.69c1.13-3.42,3.55-6.26,5.79-9L28.88,253.4C29.89,252.16,28.13,250.38,27.12,251.63Z"/><path class="cls-2" d="M258.4,256l15.44,22.56a37.4,37.4,0,0,1,4.46,7.77c1.92,5.15.87,10-1.65,12.95s-6.29,4.16-10.11,5c-5.15,1.18-11.46,1.49-17-3.34-2.87-2.48-5.05-5.95-7-9.34a191.66,191.66,0,0,1-9.82-19.32Z"/><path class="cls-2" d="M257.32,256.68l13.76,20.09c3.8,5.55,9.08,12.17,6.13,19.28a11.1,11.1,0,0,1-6.74,5.87,29.77,29.77,0,0,1-8.69,1.89A16,16,0,0,1,253,302a22,22,0,0,1-7.34-7.52,157.54,157.54,0,0,1-11.88-22.7l-.45,1.71,22.5-14.27,3.22-2.05c1.36-.86.1-3-1.26-2.15l-22.5,14.27-3.22,2a1.3,1.3,0,0,0-.45,1.71A169.2,169.2,0,0,0,243,295a27.76,27.76,0,0,0,7.47,8.38,17.84,17.84,0,0,0,9.52,3,30.48,30.48,0,0,0,9.43-1.44c3.24-1,6.42-2.49,8.53-5.21a13.32,13.32,0,0,0,2.54-9.22c-.34-3.93-2.15-7.38-4.3-10.62-5.44-8.23-11.14-16.3-16.71-24.44C258.58,254.09,256.41,255.34,257.32,256.68Z"/><circle class="cls-3" cx="81.99" cy="175.99" r="47.11"/><circle class="cls-4" cx="81.99" cy="180.31" r="30.68"/><circle class="cls-5" cx="81.99" cy="180.86" r="23.98"/><path class="cls-2" d="M34.28,164.67c-2.56-16.17,15.07-32.39,39.37-36.24s46.07,6.14,48.63,22.3"/><circle class="cls-3" cx="202" cy="179.06" r="47.11"/><circle class="cls-4" cx="202" cy="183.38" r="30.68"/><circle class="cls-5" cx="202" cy="183.92" r="23.98"/><path class="cls-2" d="M160.69,151.37c2.56-16.16,24.33-26.15,48.63-22.3s41.92,20.07,39.36,36.24"/><path class="cls-2" d="M88.79,80.49,88.38,69.1A15.69,15.69,0,0,0,88,65.39a5.41,5.41,0,0,0-3.76-3.94,7.61,7.61,0,0,0-4.64.82,7.65,7.65,0,0,0-4.89,5.33,15.34,15.34,0,0,0,0,4.88,79.05,79.05,0,0,0,1.49,8.9Z"/><path class="cls-2" d="M90,80.49c-.14-3.91-.26-7.82-.42-11.73-.12-3-.74-6.25-3.58-7.9s-6.25-.4-8.74,1.18a8.68,8.68,0,0,0-4.09,7.26,34.19,34.19,0,0,0,.55,6.14c.3,2.11.69,4.2,1.15,6.28a1.26,1.26,0,0,0,1.21.91l12.67-.89c1.59-.11,1.61-2.61,0-2.5l-12.67.89,1.2.92q-.64-2.92-1.1-5.9a31.89,31.89,0,0,1-.51-5.85C75.85,66,78.12,64,81.12,63c1.52-.51,3.09-.63,4.33.53a6.42,6.42,0,0,1,1.64,4.55c.23,4.14.3,8.29.45,12.42C87.59,82.1,90.09,82.1,90,80.49Z"/><path class="cls-6" d="M86.74,81.82l-.3-8.42a11.74,11.74,0,0,0-.31-2.74,3.92,3.92,0,0,0-2.7-2.91,5.31,5.31,0,0,0-3.33.6,5.53,5.53,0,0,0-3.5,3.93,11.42,11.42,0,0,0,0,3.6,62,62,0,0,0,1.07,6.59Z"/><path class="cls-6" d="M88,81.82c-.11-2.89-.2-5.78-.31-8.67-.09-2.34-.58-4.82-2.75-6.12s-4.74-.36-6.63.86a6.77,6.77,0,0,0-3.1,5.65,26.53,26.53,0,0,0,.4,4.62c.22,1.56.5,3.1.84,4.64a1.26,1.26,0,0,0,1.2.92l9.1-.65c1.59-.12,1.6-2.62,0-2.5l-9.1.65,1.21.91a35.18,35.18,0,0,1-1.15-8.59c.08-2.27,1.56-3.63,3.61-4.34a2.52,2.52,0,0,1,2.77.31,4.52,4.52,0,0,1,1.08,3.13c.17,3.06.22,6.12.33,9.18C85.54,83.42,88,83.43,88,81.82Z"/><path class="cls-7" d="M139.05,185.71a8.47,8.47,0,0,1,1.5-.69c-.19,0-.32.13-.05,0l.37-.14c.26-.09.51-.17.77-.24s.54-.12.81-.17c-.23,0-.28,0,0,0h.4a1.48,1.48,0,0,0,.36,0c-.09,0-.52-.08-.14,0s.9.14,1.35.19h.09c-.4,0,0,0,.07,0l.68.14a13.56,13.56,0,0,1,1.41.44l.14,0c-.32-.13.07,0,.13.06.22.1.43.21.64.33s.39.24.59.36-.32-.31-.12-.1l.29.26a2.5,2.5,0,0,0,3.53-3.54,12.6,12.6,0,0,0-7.26-3l-.16,0c.36.06-.16,0-.23,0a11.19,11.19,0,0,0-1.28-.16,8.51,8.51,0,0,0-2.41.29,23.25,23.25,0,0,0-4,1.6,2.5,2.5,0,0,0-.89,3.42,2.57,2.57,0,0,0,3.42.9Z"/><path class="cls-7" d="M267.13,185a169.07,169.07,0,0,1,18.5-14.6,2.56,2.56,0,0,0,.89-3.42,2.52,2.52,0,0,0-3.42-.9,178.6,178.6,0,0,0-19.5,15.38,2.5,2.5,0,1,0,3.53,3.54Z"/><path class="cls-7" d="M23.26,177.43a177.4,177.4,0,0,0-19.5-15.38,2.52,2.52,0,0,0-3.42.9,2.56,2.56,0,0,0,.89,3.42A169.07,169.07,0,0,1,19.73,181a2.56,2.56,0,0,0,3.53,0,2.53,2.53,0,0,0,0-3.54Z"/><rect class="cls-8" x="20.38" y="128.76" width="112.88" height="112.88" rx="16.66" transform="translate(5.29 -2.11) rotate(1.63)"/><g class="cls-9"><path class="cls-10" d="M63.84,192.55A312.8,312.8,0,0,1,91,164.89c2.4-2.15-1.15-5.68-3.54-3.54A311.44,311.44,0,0,0,60.31,189a2.54,2.54,0,0,0,0,3.53,2.5,2.5,0,0,0,3.53,0Z"/></g><g class="cls-9"><path class="cls-10" d="M76.8,204.62l.64-.85.27-.34c0-.05.39-.51.2-.27l.21-.27.27-.35.63-.78c.9-1.13,1.81-2.24,2.75-3.33a61.29,61.29,0,0,1,5.74-5.88,2.5,2.5,0,0,0,0-3.53A2.56,2.56,0,0,0,84,189,86.21,86.21,0,0,0,72.48,202.1a2.51,2.51,0,0,0,.9,3.42,2.58,2.58,0,0,0,3.42-.9Z"/></g><rect class="cls-8" x="151.2" y="131.49" width="112.88" height="112.88" rx="16.66" transform="translate(5.43 -5.83) rotate(1.63)"/><g class="cls-9"><path class="cls-10" d="M194.66,195.29a310.19,310.19,0,0,1,27.2-27.67c2.39-2.15-1.15-5.68-3.54-3.53a312.8,312.8,0,0,0-27.2,27.66,2.57,2.57,0,0,0,0,3.54,2.54,2.54,0,0,0,3.54,0Z"/></g><g class="cls-9"><path class="cls-10" d="M207.62,207.36c.21-.29.42-.57.64-.85l.26-.35s.4-.51.21-.26l.21-.27.27-.35.63-.79q1.33-1.68,2.75-3.32a60.12,60.12,0,0,1,5.74-5.88,2.53,2.53,0,0,0,0-3.54,2.57,2.57,0,0,0-3.54,0,85.13,85.13,0,0,0-11.49,13.08,2.51,2.51,0,0,0,.9,3.42,2.58,2.58,0,0,0,3.42-.89Z"/></g><path class="cls-7" d="M122.94,291.46c.09-.21.56-.8.14-.3a10.59,10.59,0,0,1,.79-.85,15,15,0,0,1,2.19-1.76,15.28,15.28,0,0,1,7-2.75c4.63-.41,9.69,2.62,11.78,6.43,1.54,2.82,5.86.3,4.31-2.53-3-5.44-9.89-9.38-16.09-8.9a20,20,0,0,0-9.37,3.34c-1.74,1.14-4.19,2.79-5.05,4.79a2.58,2.58,0,0,0,.89,3.42,2.52,2.52,0,0,0,3.42-.89Z"/><path class="cls-11" d="M143,39.35a87.81,87.81,0,0,0-17.1,28.59l-.14.29c6.73,9.3,14.2,18.36,23.91,24.49s21.14,9,32.42,11.28c5.39,1.08,10.87,2,16.35,1.61A61.79,61.79,0,0,0,210,103.19c7.22-2,14.67-4.3,20.21-9.35l.37.16a313.86,313.86,0,0,0,3.36-45.83"/><path class="cls-12" d="M141.24,37.58a93.1,93.1,0,0,0-10.42,14.17c-1.46,2.46-2.81,5-4,7.59s-2.12,5.38-3.19,7.63a2.52,2.52,0,0,0,0,2.52,122.31,122.31,0,0,0,15.13,17.85,65,65,0,0,0,20.09,12.78c7.56,3.08,15.57,4.91,23.56,6.48a69.44,69.44,0,0,0,13.16,1.62,50,50,0,0,0,13.07-2c8.27-2.24,16.84-4.71,23.36-10.57L229,96l.37.17c1.28.59,3.41.26,3.67-1.49a321.71,321.71,0,0,0,3.45-46.5c0-3.22-5-3.23-5,0a313.18,313.18,0,0,1-3.27,45.17l3.67-1.49-.37-.17a2.62,2.62,0,0,0-3,.39c-5.21,4.68-12.11,6.74-18.71,8.6A58.48,58.48,0,0,1,198,103.15a49.63,49.63,0,0,1-12.1-1c-14.88-2.72-30-6.55-41.71-16.69-6.22-5.41-11.41-11.88-16.23-18.53v2.52c1.15-2.42,2-5,3.09-7.43s2.48-5,3.9-7.41a85.6,85.6,0,0,1,9.86-13.53c2.14-2.39-1.39-5.94-3.54-3.54Z"/><polygon class="cls-13" points="183.76 68.86 113.12 15.56 191.86 0.53 272.61 53.36 183.76 68.86"/><path class="cls-14" d="M190.61,33c16,1.09,31,7.81,44.3,16.44a203.48,203.48,0,0,1,17.45,12.76A33.84,33.84,0,0,1,259,68.83a10.87,10.87,0,0,1,1.79,3.78,7.35,7.35,0,0,1-.48,4.14c-3,9.27-3.28,19.13-3.54,28.78,0,1.61,2.45,1.61,2.5,0,.25-9.06.45-18.26,3.1-27a14.58,14.58,0,0,0,1.07-4.86,10.42,10.42,0,0,0-1.1-4.09,24.43,24.43,0,0,0-6.05-7.33c-2.33-2.08-4.84-3.94-7.3-5.85-3.25-2.51-6.56-4.94-10-7.25a128.41,128.41,0,0,0-21.67-12,82.87,82.87,0,0,0-26.76-6.66c-1.6-.11-1.6,2.39,0,2.5Z"/><path class="cls-14" d="M261.57,73.73c3.9,3.11,5.61,7.91,6.56,12.67a53.59,53.59,0,0,1,.39,18.39c-.24,1.58,2.17,2.26,2.41.67a57.35,57.35,0,0,0-.39-19.73c-1-5.13-3-10.41-7.21-13.77-1.24-1-3,.77-1.76,1.77Z"/><path class="cls-14" d="M261.86,75.18a170.42,170.42,0,0,1,1.28,28.65c-.06,1.61,2.44,1.6,2.5,0a170.42,170.42,0,0,0-1.28-28.65c-.21-1.57-2.71-1.59-2.5,0Z"/><path class="cls-14" d="M262.49,77.35c-3,8.3-5.85,18.11.14,25.81,1,1.27,2.75-.51,1.77-1.76-5.32-6.85-2.09-16.17.5-23.39.55-1.51-1.87-2.17-2.41-.66Z"/><path class="cls-14" d="M263.27,78.16c4.52,7.5,7.69,17.24,2.45,25.23-.88,1.35,1.29,2.61,2.16,1.27,5.72-8.75,2.52-19.52-2.45-27.76a1.25,1.25,0,0,0-2.16,1.26Z"/><path class="cls-14" d="M263.72,82.53a30.69,30.69,0,0,0,3.33,14.25c.72,1.44,2.88.17,2.15-1.26a28,28,0,0,1-3-13,1.25,1.25,0,0,0-2.5,0Z"/></g></g></svg>