<svg xmlns="http://www.w3.org/2000/svg" xmlns:xlink="http://www.w3.org/1999/xlink" viewBox="0 0 286.86 361.52"><defs><style>.cls-1{fill:url(#radial-gradient);}.cls-2{fill:#bcdff5;}.cls-3{fill:#fff;stroke:#fff;}.cls-13,.cls-3,.cls-5,.cls-8{stroke-miterlimit:10;}.cls-4{fill:#2e76bb;}.cls-5,.cls-7{fill:#231f20;}.cls-5,.cls-8{stroke:#231f20;}.cls-6{fill:#00729e;}.cls-8{fill:#9cd9e5;fill-opacity:0.43;stroke-width:8px;}.cls-9{opacity:0.75;}.cls-10{fill:#bde4ed;}.cls-11,.cls-13{fill:#1b191d;}.cls-12{fill:#150e1d;}.cls-13{stroke:#150e1d;}.cls-14{fill:#faaf40;}</style><radialGradient id="radial-gradient" cx="81.31" cy="197.78" r="136.45" gradientTransform="translate(56.22 11.8) scale(1.04 0.95)" gradientUnits="userSpaceOnUse"><stop offset="0" stop-color="#a7dbda"/><stop offset="0.78" stop-color="#bcdff5"/></radialGradient></defs><title>2-stressed-0</title><g id="Layer_2" data-name="Layer 2"><g id="Layer_1-2" data-name="Layer 1"><path class="cls-1" d="M277.83,189.6c0,77.62-53.76,143.31-139.23,143.31S4.22,267.22,4.22,189.6,53.12,64.74,138.6,64.74,277.83,112,277.83,189.6Z"/><path class="cls-2" d="M63.3,305.57,51.15,330.06c-1.34,2.7-2.7,5.48-3,8.48-.58,5.65,2.79,11.17,7.38,14.53s10.23,4.92,15.8,6.07c7.5,1.55,16.23,2.18,21.92-3,2.92-2.64,4.53-6.41,5.88-10.12a130.58,130.58,0,0,0,5.75-21.12Z"/><path class="cls-2" d="M62.22,304.94c-4.38,8.83-9,17.59-13.14,26.53-1.78,3.82-2.85,7.77-1.79,12A19,19,0,0,0,53.42,353c6.15,5.29,15,7.29,22.82,8.23,7.53.9,15.52-.27,20.22-6.82,2.81-3.91,4.27-8.86,5.7-13.41a131,131,0,0,0,3.91-15.7,1.29,1.29,0,0,0-.57-1.42l-14-6.52L69.12,306.91l-5.19-2.42c-1.45-.67-2.72,1.48-1.26,2.16l14,6.53L99,323.6l5.2,2.42-.58-1.41c-.8,4.29-1.79,8.55-3,12.74a85.78,85.78,0,0,1-4.14,11.89c-1.55,3.37-3.7,6.34-7.09,8A20.64,20.64,0,0,1,79.33,359a55.76,55.76,0,0,1-10.81-1.74,36.59,36.59,0,0,1-11-4.29,18.28,18.28,0,0,1-7.19-8.15c-1.59-3.77-1.12-7.56.49-11.23,2-4.52,4.37-8.91,6.56-13.33l7-14C65.09,304.77,62.94,303.5,62.22,304.94Z"/><path class="cls-2" d="M151.55,310.42l-5.26,26.82c-.58,3-1.17,6-.68,9,.93,5.61,5.64,10,10.95,12.07s11.17,2,16.84,1.69c7.65-.47,16.23-2.17,20.36-8.62,2.13-3.32,2.69-7.38,3-11.31a131.15,131.15,0,0,0,0-21.89Z"/><path class="cls-2" d="M150.35,310.09,147.43,325c-1,4.84-2,9.67-2.83,14.54-.68,4.18-.55,8.3,1.69,12a19.14,19.14,0,0,0,8,7.13c7.42,3.65,16.69,3.23,24.67,2,7.11-1.09,14.29-4.13,17.2-11.19,1.87-4.51,2-9.7,2.22-14.52a134.26,134.26,0,0,0-.34-16.78,1.29,1.29,0,0,0-.92-1.21l-15.23-2.6-24.33-4.17-5.64-1c-1.58-.27-2.25,2.13-.67,2.41l15.23,2.6,24.33,4.17,5.64,1-.91-1.2a134.63,134.63,0,0,1,.44,13.62,76.93,76.93,0,0,1-1,12.78,15,15,0,0,1-5,9.24,21.34,21.34,0,0,1-9,3.94,55.82,55.82,0,0,1-10.47,1.13,36.57,36.57,0,0,1-12.32-1.34,18.24,18.24,0,0,1-8.67-5.77,13.53,13.53,0,0,1-2.63-10.58c.65-5.05,1.9-10.07,2.88-15.07l3-15.36C153.07,309.18,150.66,308.51,150.35,310.09Z"/><path class="cls-2" d="M28,254.19,10.77,275.41a37.24,37.24,0,0,0-5.09,7.38c-2.33,5-1.68,9.94.59,13s5.93,4.66,9.67,5.84c5,1.61,11.3,2.43,17.24-1.92,3-2.24,5.51-5.52,7.76-8.75A192,192,0,0,0,52.3,272.56Z"/><path class="cls-2" d="M27.12,253.31,10.67,273.56c-2.48,3.05-5.12,6.1-6.58,9.8a14.63,14.63,0,0,0-.17,10.77c2.48,6.07,9.83,8.8,15.85,9.77a18.94,18.94,0,0,0,9.84-.8,22.09,22.09,0,0,0,8.92-6.81,108.41,108.41,0,0,0,7.7-11q3.8-5.94,7.15-12.14a1.29,1.29,0,0,0-.45-1.71L31.67,255.41l-3-2.3c-1.28-1-2.53,1.2-1.26,2.16l21.25,16.07,3.05,2.3-.45-1.71a191.4,191.4,0,0,1-11.86,19.16c-2,2.88-4.27,5.82-7.2,7.85a15.35,15.35,0,0,1-9.08,2.77,26.41,26.41,0,0,1-8.67-1.87c-2.85-1-5.8-2.57-7.46-5.22a11.58,11.58,0,0,1-.78-9.69c1.13-3.43,3.55-6.27,5.79-9l16.92-20.84C29.89,253.84,28.13,252.06,27.12,253.31Z"/><path class="cls-2" d="M258.4,257.72l15.44,22.56a37.14,37.14,0,0,1,4.46,7.77c1.92,5.14.87,10-1.65,12.95s-6.29,4.15-10.11,5c-5.15,1.19-11.46,1.49-17-3.33-2.87-2.48-5.05-5.95-7-9.35A190.45,190.45,0,0,1,232.68,274Z"/><path class="cls-2" d="M257.32,258.35l13.76,20.1c3.8,5.55,9.08,12.16,6.13,19.28-1.22,2.93-3.84,4.78-6.74,5.87a30.1,30.1,0,0,1-8.69,1.89,16,16,0,0,1-8.8-1.87,22,22,0,0,1-7.34-7.52,157.43,157.43,0,0,1-11.88-22.69l-.45,1.71,22.5-14.28,3.22-2c1.36-.86.1-3-1.26-2.16l-22.5,14.28-3.22,2a1.29,1.29,0,0,0-.45,1.71A168.44,168.44,0,0,0,243,296.62a27.65,27.65,0,0,0,7.47,8.38,17.67,17.67,0,0,0,9.52,3,30.19,30.19,0,0,0,9.43-1.44c3.24-1,6.42-2.48,8.53-5.21a13.28,13.28,0,0,0,2.54-9.21c-.34-3.94-2.15-7.38-4.3-10.62-5.44-8.23-11.14-16.3-16.71-24.44C258.58,255.77,256.41,257,257.32,258.35Z"/><circle class="cls-3" cx="81.99" cy="177.67" r="47.11"/><circle class="cls-4" cx="81.99" cy="181.99" r="30.68"/><circle class="cls-5" cx="81.99" cy="182.53" r="23.98"/><path class="cls-2" d="M37.42,158.56c0-16.37,19.94-29.64,44.54-29.64s44.55,13.27,44.55,29.64"/><circle class="cls-3" cx="202" cy="180.74" r="47.11"/><circle class="cls-4" cx="202" cy="185.05" r="30.68"/><circle class="cls-5" cx="202" cy="185.6" r="23.98"/><path class="cls-2" d="M157.46,159.2c0-16.37,19.94-29.64,44.54-29.64s44.55,13.27,44.55,29.64"/><path class="cls-2" d="M88.79,82.17l-.41-11.39A15.57,15.57,0,0,0,88,67.07a5.4,5.4,0,0,0-3.76-3.94,7.54,7.54,0,0,0-4.64.82,7.61,7.61,0,0,0-4.89,5.33,15.28,15.28,0,0,0,0,4.87,79.23,79.23,0,0,0,1.49,8.91Z"/><path class="cls-2" d="M90,82.17c-.14-3.91-.26-7.82-.42-11.73-.12-3-.74-6.25-3.58-7.9s-6.25-.4-8.74,1.18A8.67,8.67,0,0,0,73.21,71a34.08,34.08,0,0,0,.55,6.13c.3,2.11.69,4.2,1.15,6.28a1.27,1.27,0,0,0,1.21.92l12.67-.89c1.59-.11,1.61-2.61,0-2.5l-12.67.89,1.2.92q-.64-2.94-1.1-5.91A31.85,31.85,0,0,1,75.71,71c.14-3.35,2.41-5.29,5.41-6.31,1.52-.52,3.09-.63,4.33.53a6.42,6.42,0,0,1,1.64,4.55c.23,4.13.3,8.28.45,12.42C87.59,83.77,90.09,83.78,90,82.17Z"/><path class="cls-6" d="M86.74,83.49l-.3-8.41a11.74,11.74,0,0,0-.31-2.74,4,4,0,0,0-2.7-2.92,5.31,5.31,0,0,0-3.33.6A5.56,5.56,0,0,0,76.6,74a11.42,11.42,0,0,0,0,3.6,61.8,61.8,0,0,0,1.07,6.58Z"/><path class="cls-6" d="M88,83.49c-.11-2.89-.2-5.78-.31-8.66-.09-2.34-.58-4.82-2.75-6.12s-4.74-.37-6.63.86a6.77,6.77,0,0,0-3.1,5.65,26.61,26.61,0,0,0,.4,4.62c.22,1.55.5,3.1.84,4.63a1.24,1.24,0,0,0,1.2.92l9.1-.65c1.59-.11,1.6-2.61,0-2.5l-9.1.65,1.21.92a35.18,35.18,0,0,1-1.15-8.59c.08-2.28,1.56-3.63,3.61-4.35a2.53,2.53,0,0,1,2.77.31,4.54,4.54,0,0,1,1.08,3.14c.17,3.05.22,6.12.33,9.17C85.54,85.1,88,85.11,88,83.49Z"/><path class="cls-7" d="M139.05,183.39a7.25,7.25,0,0,1,1.5-.69c-.19,0-.32.12-.05,0l.37-.14c.26-.09.51-.17.77-.24s.54-.12.81-.17c-.23,0-.28,0,0,0h.4c.08,0,.29.06.36,0-.09,0-.52-.08-.14,0l1.35.19c.07,0,.5,0,.09,0s0,0,.07,0,.46.09.68.15a13.51,13.51,0,0,1,1.41.43c.06,0,.46.18.14.05s.07,0,.13.06c.22.1.43.21.64.33s.39.25.59.36-.32-.31-.12-.09.2.17.29.25a2.5,2.5,0,0,0,3.53-3.53,12.6,12.6,0,0,0-7.26-3l-.16,0-.23,0c-.43-.06-.85-.13-1.28-.15a8.51,8.51,0,0,0-2.41.29,21.74,21.74,0,0,0-4,1.6,2.5,2.5,0,0,0-.89,3.42,2.57,2.57,0,0,0,3.42.9Z"/><path class="cls-7" d="M267.13,182.68a167.78,167.78,0,0,1,18.5-14.59,2.56,2.56,0,0,0,.89-3.42,2.51,2.51,0,0,0-3.42-.9,177.4,177.4,0,0,0-19.5,15.38,2.5,2.5,0,1,0,3.53,3.53Z"/><path class="cls-7" d="M23.26,175.11a176.21,176.21,0,0,0-19.5-15.38,2.52,2.52,0,0,0-3.42.89A2.56,2.56,0,0,0,1.23,164a169.07,169.07,0,0,1,18.5,14.6,2.54,2.54,0,0,0,3.53,0,2.51,2.51,0,0,0,0-3.53Z"/><rect class="cls-8" x="20.38" y="126.44" width="112.88" height="112.88" rx="16.66" transform="translate(5.23 -2.11) rotate(1.63)"/><g class="cls-9"><path class="cls-10" d="M63.84,190.23A310.1,310.1,0,0,1,91,162.57c2.4-2.16-1.15-5.69-3.54-3.54a312.69,312.69,0,0,0-27.19,27.66,2.55,2.55,0,0,0,0,3.54,2.52,2.52,0,0,0,3.53,0Z"/></g><g class="cls-9"><path class="cls-10" d="M76.8,202.3c.21-.29.43-.57.64-.85l.27-.35.2-.26.21-.27.27-.35.63-.79c.9-1.12,1.81-2.23,2.75-3.32a61.29,61.29,0,0,1,5.74-5.88,2.52,2.52,0,0,0,0-3.54,2.57,2.57,0,0,0-3.54,0,86.21,86.21,0,0,0-11.49,13.08,2.51,2.51,0,0,0,.9,3.42,2.57,2.57,0,0,0,3.42-.89Z"/></g><rect class="cls-8" x="151.2" y="129.17" width="112.88" height="112.88" rx="16.66" transform="translate(5.36 -5.83) rotate(1.63)"/><g class="cls-9"><path class="cls-10" d="M194.66,193a311.42,311.42,0,0,1,27.2-27.66c2.39-2.15-1.15-5.68-3.54-3.54a311.56,311.56,0,0,0-27.2,27.67,2.56,2.56,0,0,0,0,3.53,2.52,2.52,0,0,0,3.54,0Z"/></g><g class="cls-9"><path class="cls-10" d="M207.62,205c.21-.28.42-.57.64-.85l.26-.34.21-.27c-.19.24.21-.28.21-.27l.27-.34.63-.79q1.33-1.69,2.75-3.33a60.12,60.12,0,0,1,5.74-5.88,2.51,2.51,0,0,0,0-3.53,2.56,2.56,0,0,0-3.54,0,85.13,85.13,0,0,0-11.49,13.08,2.51,2.51,0,0,0,.9,3.42,2.58,2.58,0,0,0,3.42-.9Z"/></g><path class="cls-7" d="M122.94,293.13c.09-.21.56-.79.14-.3.25-.29.51-.57.79-.84a15,15,0,0,1,2.19-1.77,15.39,15.39,0,0,1,7-2.75,13.16,13.16,0,0,1,11.78,6.43c1.54,2.83,5.86.31,4.31-2.52-3-5.44-9.89-9.39-16.09-8.91a20,20,0,0,0-9.37,3.35c-1.74,1.14-4.19,2.79-5.05,4.79a2.58,2.58,0,0,0,.89,3.42,2.51,2.51,0,0,0,3.42-.9Z"/><path class="cls-11" d="M142.92,39.35a88,88,0,0,0-17.1,28.59l-.14.29c6.73,9.3,14.21,18.36,23.91,24.49s21.14,9,32.42,11.28c5.39,1.08,10.88,2,16.35,1.61a62.06,62.06,0,0,0,11.56-2.42c7.21-2,14.67-4.3,20.2-9.35l.37.16a313.86,313.86,0,0,0,3.36-45.83"/><path class="cls-12" d="M141.16,37.58a93.16,93.16,0,0,0-10.43,14.17c-1.46,2.46-2.8,5-4,7.59s-2.12,5.38-3.19,7.63a2.52,2.52,0,0,0,0,2.52,122.31,122.31,0,0,0,15.13,17.85,65,65,0,0,0,20.09,12.78c7.56,3.08,15.57,4.91,23.56,6.48a69.54,69.54,0,0,0,13.16,1.62,50,50,0,0,0,13.07-2c8.28-2.24,16.84-4.71,23.36-10.57l-3,.39.37.17c1.28.59,3.41.26,3.67-1.49a321.71,321.71,0,0,0,3.45-46.5c0-3.22-5-3.23-5,0a313.18,313.18,0,0,1-3.27,45.17l3.67-1.49-.37-.17a2.62,2.62,0,0,0-3,.39c-5.21,4.68-12.1,6.74-18.7,8.6a58.57,58.57,0,0,1-11.77,2.48,49.67,49.67,0,0,1-12.1-1c-14.87-2.72-30-6.55-41.71-16.69-6.22-5.41-11.41-11.88-16.23-18.53v2.52c1.15-2.42,2-5,3.09-7.43s2.49-5,3.9-7.41a85.6,85.6,0,0,1,9.86-13.53c2.14-2.39-1.39-5.94-3.53-3.54Z"/><polygon class="cls-13" points="183.67 68.86 113.03 15.56 191.77 0.53 272.52 53.36 183.67 68.86"/><path class="cls-14" d="M190.52,33c16,1.09,31,7.81,44.3,16.44a203.48,203.48,0,0,1,17.45,12.76,33.84,33.84,0,0,1,6.65,6.66,11.08,11.08,0,0,1,1.8,3.78,7.36,7.36,0,0,1-.49,4.14c-3,9.27-3.27,19.13-3.54,28.78-.05,1.61,2.45,1.61,2.5,0,.25-9.06.45-18.26,3.1-27a14.58,14.58,0,0,0,1.07-4.86,10.42,10.42,0,0,0-1.1-4.09,24.43,24.43,0,0,0-6.05-7.33c-2.33-2.08-4.84-3.94-7.3-5.85-3.25-2.51-6.56-4.94-10-7.25a128.41,128.41,0,0,0-21.67-12,82.87,82.87,0,0,0-26.76-6.66c-1.6-.11-1.59,2.39,0,2.5Z"/><path class="cls-14" d="M261.48,73.73c3.91,3.11,5.61,7.91,6.56,12.67a53.59,53.59,0,0,1,.39,18.39c-.24,1.58,2.17,2.26,2.41.67a57.35,57.35,0,0,0-.39-19.73c-1-5.13-3-10.41-7.2-13.77-1.25-1-3,.77-1.77,1.77Z"/><path class="cls-14" d="M261.77,75.18a170.42,170.42,0,0,1,1.28,28.65c-.06,1.61,2.44,1.6,2.5,0a170.42,170.42,0,0,0-1.28-28.65c-.2-1.57-2.71-1.59-2.5,0Z"/><path class="cls-14" d="M262.4,77.35c-3,8.3-5.85,18.11.15,25.81,1,1.27,2.74-.51,1.76-1.76-5.31-6.85-2.08-16.17.5-23.39.55-1.51-1.87-2.17-2.41-.66Z"/><path class="cls-14" d="M263.18,78.16c4.52,7.5,7.69,17.24,2.46,25.23-.89,1.35,1.28,2.61,2.16,1.27,5.72-8.75,2.51-19.52-2.46-27.76a1.25,1.25,0,0,0-2.16,1.26Z"/><path class="cls-14" d="M263.63,82.53A30.69,30.69,0,0,0,267,96.78c.72,1.44,2.88.17,2.16-1.26a27.9,27.9,0,0,1-3-13,1.25,1.25,0,0,0-2.5,0Z"/></g></g></svg>