<svg xmlns="http://www.w3.org/2000/svg" xmlns:xlink="http://www.w3.org/1999/xlink" viewBox="0 0 286.86 359.09"><defs><style>.cls-1{fill:url(#radial-gradient);}.cls-2{fill:#bcdff5;}.cls-3,.cls-8{fill:#231f20;}.cls-4{fill:#be1e2d;}.cls-5{fill:#ac1f29;}.cls-6{fill:#fff;stroke:#fff;}.cls-10,.cls-15,.cls-6,.cls-8{stroke-miterlimit:10;}.cls-7{fill:#2e76bb;}.cls-10,.cls-8{stroke:#231f20;}.cls-9{fill:#00729e;}.cls-10{fill:#9cd9e5;fill-opacity:0.43;stroke-width:8px;}.cls-11{opacity:0.75;}.cls-12{fill:#bde4ed;}.cls-13,.cls-15{fill:#1b191d;}.cls-14{fill:#150e1d;}.cls-15{stroke:#150e1d;}.cls-16{fill:#faaf40;}</style><radialGradient id="radial-gradient" cx="80.88" cy="118.46" r="136.45" gradientTransform="translate(56.67 84.48) scale(1.04 0.95)" gradientUnits="userSpaceOnUse"><stop offset="0" stop-color="#a7dbda"/><stop offset="0.78" stop-color="#bcdff5"/></radialGradient></defs><title>2-veryhappy-0</title><g id="Layer_2" data-name="Layer 2"><g id="Layer_1-2" data-name="Layer 1"><path class="cls-1" d="M277.83,187.16c0,77.62-53.76,143.31-139.23,143.31S4.22,264.78,4.22,187.16,53.12,62.3,138.6,62.3,277.83,109.54,277.83,187.16Z"/><path class="cls-2" d="M63.3,303.13,51.15,327.62c-1.34,2.7-2.7,5.48-3,8.48-.58,5.66,2.79,11.17,7.38,14.53s10.23,4.92,15.8,6.07c7.5,1.56,16.23,2.18,21.92-2.95,2.92-2.65,4.53-6.42,5.88-10.12a131.14,131.14,0,0,0,5.75-21.12Z"/><path class="cls-2" d="M62.22,302.5c-4.38,8.84-9,17.6-13.14,26.53-1.78,3.82-2.85,7.78-1.79,12a19.06,19.06,0,0,0,6.13,9.56c6.15,5.28,15,7.28,22.82,8.22,7.53.9,15.52-.27,20.22-6.81,2.81-3.92,4.27-8.87,5.7-13.41a130.64,130.64,0,0,0,3.91-15.71,1.27,1.27,0,0,0-.57-1.41l-14-6.53L69.12,304.48l-5.19-2.43c-1.45-.67-2.72,1.48-1.26,2.16l14,6.53L99,321.16l5.2,2.43-.58-1.42c-.8,4.3-1.79,8.55-3,12.75a85.65,85.65,0,0,1-4.14,11.88c-1.55,3.38-3.7,6.34-7.09,8a20.52,20.52,0,0,1-10.09,1.7,56.51,56.51,0,0,1-10.81-1.73,36.86,36.86,0,0,1-11-4.29,18.3,18.3,0,0,1-7.19-8.16c-1.59-3.77-1.12-7.55.49-11.23,2-4.52,4.37-8.9,6.56-13.33l7-14C65.09,302.33,62.94,301.06,62.22,302.5Z"/><path class="cls-2" d="M151.55,308l-5.26,26.83c-.58,3-1.17,6-.68,9,.93,5.61,5.64,10,10.95,12.07s11.17,2,16.84,1.7c7.65-.48,16.23-2.17,20.36-8.63,2.13-3.32,2.69-7.38,3-11.31a131.15,131.15,0,0,0,0-21.89Z"/><path class="cls-2" d="M150.35,307.65l-2.92,14.88c-1,4.83-2,9.66-2.83,14.53-.68,4.18-.55,8.3,1.69,12a19.18,19.18,0,0,0,8,7.12c7.42,3.65,16.69,3.24,24.67,2,7.11-1.09,14.29-4.13,17.2-11.18,1.87-4.52,2-9.71,2.22-14.52a134.38,134.38,0,0,0-.34-16.79,1.28,1.28,0,0,0-.92-1.2l-15.23-2.61-24.33-4.17-5.64-1c-1.58-.27-2.25,2.14-.67,2.41l15.23,2.61L190.78,316l5.64,1-.91-1.21a134.63,134.63,0,0,1,.44,13.62,77.13,77.13,0,0,1-1,12.79,15.1,15.1,0,0,1-5,9.24,21.32,21.32,0,0,1-9,3.93,55.83,55.83,0,0,1-10.47,1.14,36.57,36.57,0,0,1-12.32-1.35,18.24,18.24,0,0,1-8.67-5.77,13.51,13.51,0,0,1-2.63-10.58c.65-5.05,1.9-10.07,2.88-15.06l3-15.36C153.07,306.74,150.66,306.07,150.35,307.65Z"/><path d="M127.14,265.88c2.83,4.12,7.93,9.07,12.69,9.7,6.06.79,15.72-4.61,15.72-4.61-1.48,5-1.75,11.44-4.53,16.1a16.81,16.81,0,0,1-6.07,6.19,15.3,15.3,0,0,1-10.35,1.86c-5.1-.89-8.76-6.06-9.75-11.52S127.14,265.88,127.14,265.88Z"/><path class="cls-3" d="M125,267.14C129.06,273,135.37,279,143.05,278a39.16,39.16,0,0,0,13.77-4.89l-3.68-2.83c-1.41,4.86-1.5,10.32-3.91,14.85-2.15,4-6,7.24-10.69,7.63a9.59,9.59,0,0,1-6.28-1.27,11.49,11.49,0,0,1-4-5.11,15.39,15.39,0,0,1-.94-3.1c0,.2-.16-.92-.1-.48s0-.39,0-.37c0-.47,0-.94,0-1.42a37.89,37.89,0,0,1,.53-5.73c.48-2.94,1.09-5.88,1.86-8.76.84-3.11-4-4.44-4.82-1.33a87.44,87.44,0,0,0-1.86,8.76c-.8,5-1.17,9.71.86,14.45,2.35,5.46,7,9.27,13.07,9.41a18.3,18.3,0,0,0,15-7.41c4.18-5.55,4.32-12.36,6.18-18.79a2.53,2.53,0,0,0-3.67-2.82,35.59,35.59,0,0,1-11,4.15,9.39,9.39,0,0,1-7.21-1.56,25.11,25.11,0,0,1-6.8-6.79,2.57,2.57,0,0,0-3.42-.89A2.52,2.52,0,0,0,125,267.14Z"/><path class="cls-4" d="M137.78,279.81c0-.77-.05-.61-.53-1.27a9.67,9.67,0,0,0-1.39-1.28,9.13,9.13,0,0,0-5.33-1.1,6.51,6.51,0,0,0-2.26,1.07,4.59,4.59,0,0,0-1.62,2,6.67,6.67,0,0,0-.41,2.77,10.22,10.22,0,0,0,.9,4,19.59,19.59,0,0,0,1.47,2.49,10.53,10.53,0,0,0,2,2.41,8.67,8.67,0,0,0,2.89,1.38,25.82,25.82,0,0,0,7.66,1.16,5.75,5.75,0,0,0,2-.28,5.61,5.61,0,0,0,1.88-1.4,23.39,23.39,0,0,0,2.67-3.37,6.55,6.55,0,0,0,1-3.4,17.85,17.85,0,0,0-1.31-4,7.53,7.53,0,0,0-2.46-2.08c-1.82-1.06-4.47-1.33-6-.33C137.76,279.28,137.78,279.81,137.78,279.81Z"/><path class="cls-5" d="M138,279.81c-.05-1.55-1.77-2.7-3.07-3.24a7,7,0,0,0-6-.07,5.79,5.79,0,0,0-3,5.95,13.68,13.68,0,0,0,3.23,7.37c1.76,2.3,4.63,3,7.36,3.48,2.33.41,5.58,1.06,7.62-.45a12.61,12.61,0,0,0,4.54-6.34c.43-1.72-.22-3.52-.91-5.1-.9-2.09-3.49-3.41-5.66-3.67a5.47,5.47,0,0,0-3.19.46c-.56.29-1.44.89-1.47,1.61,0,.32.49.32.5,0,0-.74,1.4-1.31,2-1.46a6.1,6.1,0,0,1,3.2.1,6.41,6.41,0,0,1,4.29,3.39,7.63,7.63,0,0,1,.82,4.38,11.9,11.9,0,0,1-3.44,5.37,4.63,4.63,0,0,1-3.31,1.6,20.11,20.11,0,0,1-3.64-.2,16.85,16.85,0,0,1-6.61-1.89c-1.74-1.07-3.13-3.39-4-5.22-1-2.29-1.51-5.8.34-7.81a5.76,5.76,0,0,1,5.83-1.46c1.39.34,4,1.46,4,3.2C137.55,280.13,138.05,280.13,138,279.81Z"/><path class="cls-5" d="M137.53,279.81c0,1.32,0,2.64,0,4a9.14,9.14,0,0,1-.59,3.63c-.75,1.71-1.48,3.43-2.32,5.1-.14.29.29.54.43.25.88-1.74,1.68-3.56,2.44-5.36A9,9,0,0,0,138,284c0-1.38,0-2.77,0-4.16a.25.25,0,0,0-.5,0Z"/><path class="cls-2" d="M28,251.75,10.77,273a37.54,37.54,0,0,0-5.09,7.38c-2.33,5-1.68,9.94.59,13s5.93,4.66,9.67,5.85c5,1.6,11.3,2.42,17.24-1.93,3-2.24,5.51-5.52,7.76-8.74A192.17,192.17,0,0,0,52.3,270.12Z"/><path class="cls-2" d="M27.12,250.87,10.67,271.12c-2.48,3.05-5.12,6.1-6.58,9.8a14.63,14.63,0,0,0-.17,10.77c2.48,6.07,9.83,8.8,15.85,9.77a19,19,0,0,0,9.84-.79,22.21,22.21,0,0,0,8.92-6.82,107.3,107.3,0,0,0,7.7-11Q50,277,53.38,270.75a1.29,1.29,0,0,0-.45-1.71L31.67,253l-3-2.31c-1.28-1-2.53,1.2-1.26,2.16L48.62,268.9l3.05,2.3-.45-1.71a190.27,190.27,0,0,1-11.86,19.16,31,31,0,0,1-7.2,7.86,15.34,15.34,0,0,1-9.08,2.76,26.41,26.41,0,0,1-8.67-1.87c-2.85-1-5.8-2.56-7.46-5.22a11.58,11.58,0,0,1-.78-9.69c1.13-3.43,3.55-6.26,5.79-9l16.92-20.83C29.89,251.4,28.13,249.62,27.12,250.87Z"/><path class="cls-2" d="M258.4,255.28l15.44,22.56a37.4,37.4,0,0,1,4.46,7.77c1.92,5.15.87,10-1.65,12.95s-6.29,4.15-10.11,5c-5.15,1.19-11.46,1.5-17-3.33-2.87-2.48-5.05-5.95-7-9.34a191.66,191.66,0,0,1-9.82-19.32Z"/><path class="cls-2" d="M257.32,255.91,271.08,276c3.8,5.55,9.08,12.16,6.13,19.28a11.13,11.13,0,0,1-6.74,5.87,29.77,29.77,0,0,1-8.69,1.89,16,16,0,0,1-8.8-1.86,22.1,22.1,0,0,1-7.34-7.52A157.54,157.54,0,0,1,233.76,271l-.45,1.71,22.5-14.27,3.22-2.05c1.36-.86.1-3-1.26-2.16l-22.5,14.28-3.22,2a1.29,1.29,0,0,0-.45,1.71A168.44,168.44,0,0,0,243,294.18a27.68,27.68,0,0,0,7.47,8.39,17.84,17.84,0,0,0,9.52,3,30.48,30.48,0,0,0,9.43-1.44c3.24-1,6.42-2.49,8.53-5.21a13.32,13.32,0,0,0,2.54-9.22c-.34-3.93-2.15-7.38-4.3-10.62-5.44-8.23-11.14-16.3-16.71-24.44C258.58,253.33,256.41,254.58,257.32,255.91Z"/><circle class="cls-6" cx="81.99" cy="175.23" r="47.11"/><circle class="cls-7" cx="81.99" cy="179.55" r="30.68"/><circle class="cls-8" cx="81.99" cy="180.1" r="23.98"/><circle class="cls-6" cx="202" cy="178.3" r="47.11"/><circle class="cls-7" cx="202" cy="182.62" r="30.68"/><circle class="cls-8" cx="202" cy="183.16" r="23.98"/><path class="cls-2" d="M88.79,79.73l-.41-11.39A15.69,15.69,0,0,0,88,64.63a5.41,5.41,0,0,0-3.76-3.94,7.61,7.61,0,0,0-4.64.82,7.63,7.63,0,0,0-4.89,5.33,15.28,15.28,0,0,0,0,4.87,78.85,78.85,0,0,0,1.49,8.91Z"/><path class="cls-2" d="M90,79.73c-.14-3.91-.26-7.82-.42-11.73-.12-3-.74-6.25-3.58-7.9s-6.25-.4-8.74,1.18a8.67,8.67,0,0,0-4.09,7.26,34.19,34.19,0,0,0,.55,6.14c.3,2.1.69,4.2,1.15,6.28a1.26,1.26,0,0,0,1.21.91L88.79,81c1.59-.11,1.61-2.61,0-2.5l-12.67.89,1.2.92q-.64-2.92-1.1-5.9a31.89,31.89,0,0,1-.51-5.85c.14-3.34,2.41-5.29,5.41-6.31,1.52-.51,3.09-.63,4.33.53a6.42,6.42,0,0,1,1.64,4.55c.23,4.13.3,8.28.45,12.42C87.59,81.34,90.09,81.34,90,79.73Z"/><path class="cls-9" d="M86.74,81.06l-.3-8.42a11.74,11.74,0,0,0-.31-2.74A3.92,3.92,0,0,0,83.43,67a5.31,5.31,0,0,0-3.33.6,5.53,5.53,0,0,0-3.5,3.93,11.42,11.42,0,0,0,0,3.6,62,62,0,0,0,1.07,6.59Z"/><path class="cls-9" d="M88,81.06c-.11-2.89-.2-5.78-.31-8.67-.09-2.34-.58-4.82-2.75-6.12s-4.74-.36-6.63.86a6.77,6.77,0,0,0-3.1,5.65,26.53,26.53,0,0,0,.4,4.62c.22,1.56.5,3.1.84,4.64a1.26,1.26,0,0,0,1.2.92l9.1-.65c1.59-.12,1.6-2.62,0-2.5l-9.1.65,1.21.91a35.18,35.18,0,0,1-1.15-8.59c.08-2.27,1.56-3.63,3.61-4.34a2.52,2.52,0,0,1,2.77.31,4.52,4.52,0,0,1,1.08,3.13c.17,3.05.22,6.12.33,9.18C85.54,82.66,88,82.67,88,81.06Z"/><path class="cls-3" d="M139.05,175a7.81,7.81,0,0,1,1.5-.69c-.19,0-.32.12-.05,0l.37-.14c.26-.09.51-.17.77-.24s.54-.12.81-.17c-.23,0-.28,0,0,0h.4a1.12,1.12,0,0,0,.36,0c-.09,0-.52-.08-.14,0s.9.14,1.35.19c.07,0,.5.06.09,0s0,0,.07,0,.46.09.68.15a13.56,13.56,0,0,1,1.41.44c.06,0,.46.17.14,0s.07,0,.13.07l.64.32.59.37c.27.15-.32-.32-.12-.1s.2.17.29.25a2.5,2.5,0,0,0,3.53-3.53,12.6,12.6,0,0,0-7.26-3l-.16,0-.23,0c-.43-.06-.85-.13-1.28-.15a8.51,8.51,0,0,0-2.41.29,23.25,23.25,0,0,0-4,1.6,2.5,2.5,0,0,0-.89,3.42,2.57,2.57,0,0,0,3.42.9Z"/><path class="cls-3" d="M267.13,174.25a169.07,169.07,0,0,1,18.5-14.6,2.56,2.56,0,0,0,.89-3.42,2.52,2.52,0,0,0-3.42-.9,177.4,177.4,0,0,0-19.5,15.38,2.5,2.5,0,1,0,3.53,3.54Z"/><path class="cls-3" d="M23.26,166.67a177.4,177.4,0,0,0-19.5-15.38,2.52,2.52,0,0,0-3.42.9,2.56,2.56,0,0,0,.89,3.42,166.69,166.69,0,0,1,18.5,14.6,2.56,2.56,0,0,0,3.53,0,2.53,2.53,0,0,0,0-3.54Z"/><rect class="cls-10" x="20.38" y="118" width="112.88" height="112.88" rx="16.66" transform="translate(4.99 -2.11) rotate(1.63)"/><g class="cls-11"><path class="cls-12" d="M63.84,181.79A312.8,312.8,0,0,1,91,154.13c2.4-2.16-1.15-5.68-3.54-3.54a311.44,311.44,0,0,0-27.19,27.67,2.54,2.54,0,0,0,0,3.53,2.5,2.5,0,0,0,3.53,0Z"/></g><g class="cls-11"><path class="cls-12" d="M76.8,193.86l.64-.85.27-.34s.39-.51.2-.27l.21-.27.27-.35L79,191c.9-1.12,1.81-2.23,2.75-3.32a61.29,61.29,0,0,1,5.74-5.88,2.5,2.5,0,0,0,0-3.53,2.56,2.56,0,0,0-3.54,0,86.21,86.21,0,0,0-11.49,13.08,2.51,2.51,0,0,0,.9,3.42,2.58,2.58,0,0,0,3.42-.9Z"/></g><rect class="cls-10" x="151.2" y="120.73" width="112.88" height="112.88" rx="16.66" transform="translate(5.12 -5.83) rotate(1.63)"/><g class="cls-11"><path class="cls-12" d="M194.66,184.53a310.19,310.19,0,0,1,27.2-27.67c2.39-2.15-1.15-5.68-3.54-3.53A311.44,311.44,0,0,0,191.12,181a2.57,2.57,0,0,0,0,3.54,2.54,2.54,0,0,0,3.54,0Z"/></g><g class="cls-11"><path class="cls-12" d="M207.62,196.59l.64-.84.26-.35s.4-.51.21-.26l.21-.27.27-.35.63-.79q1.33-1.69,2.75-3.32a59,59,0,0,1,5.74-5.88,2.53,2.53,0,0,0,0-3.54,2.57,2.57,0,0,0-3.54,0,85.13,85.13,0,0,0-11.49,13.08,2.51,2.51,0,0,0,.9,3.42,2.57,2.57,0,0,0,3.42-.9Z"/></g><path class="cls-13" d="M142.84,39.35a87.81,87.81,0,0,0-17.1,28.59l-.14.29c6.72,9.3,14.2,18.36,23.91,24.49s21.14,9,32.42,11.28c5.39,1.08,10.87,2,16.35,1.61a61.79,61.79,0,0,0,11.55-2.42c7.22-2,14.67-4.3,20.21-9.35l.37.16a313.86,313.86,0,0,0,3.36-45.83"/><path class="cls-14" d="M141.07,37.58a93.1,93.1,0,0,0-10.42,14.17c-1.46,2.46-2.81,5-4,7.59s-2.11,5.38-3.18,7.63a2.52,2.52,0,0,0,0,2.52,121.08,121.08,0,0,0,15.13,17.85,65,65,0,0,0,20.09,12.78c7.56,3.08,15.57,4.91,23.56,6.48a69.44,69.44,0,0,0,13.16,1.62,49.85,49.85,0,0,0,13.06-2c8.28-2.24,16.85-4.71,23.36-10.57l-3,.39.38.17c1.28.59,3.41.26,3.67-1.49a321.71,321.71,0,0,0,3.45-46.5c0-3.22-5-3.23-5,0A313.18,313.18,0,0,1,228,93.34l3.67-1.49-.37-.17a2.61,2.61,0,0,0-3,.39c-5.21,4.68-12.11,6.74-18.71,8.6a58.48,58.48,0,0,1-11.76,2.48,49.75,49.75,0,0,1-12.11-1c-14.87-2.72-30-6.55-41.7-16.69-6.23-5.41-11.41-11.88-16.23-18.53v2.52c1.14-2.42,2-5,3.09-7.43s2.48-5,3.9-7.41a85,85,0,0,1,9.86-13.53c2.13-2.39-1.39-5.94-3.54-3.54Z"/><polygon class="cls-15" points="183.59 68.86 112.95 15.56 191.69 0.53 272.44 53.36 183.59 68.86"/><path class="cls-16" d="M190.44,33c16,1.09,31,7.81,44.3,16.44a203.48,203.48,0,0,1,17.45,12.76,33.52,33.52,0,0,1,6.64,6.66,10.72,10.72,0,0,1,1.8,3.78,7.35,7.35,0,0,1-.48,4.14c-3,9.27-3.28,19.13-3.54,28.78-.05,1.61,2.45,1.61,2.5,0,.25-9.06.45-18.26,3.1-27a14.58,14.58,0,0,0,1.07-4.86,10.42,10.42,0,0,0-1.1-4.09,24.43,24.43,0,0,0-6.05-7.33c-2.33-2.08-4.84-3.94-7.3-5.85-3.25-2.51-6.56-4.94-10-7.25a128.41,128.41,0,0,0-21.67-12,82.87,82.87,0,0,0-26.76-6.66c-1.6-.11-1.6,2.39,0,2.5Z"/><path class="cls-16" d="M261.4,73.73c3.9,3.11,5.61,7.91,6.56,12.67a53.34,53.34,0,0,1,.38,18.39c-.23,1.58,2.18,2.26,2.42.67a57.35,57.35,0,0,0-.39-19.73c-1-5.13-3-10.41-7.21-13.77-1.24-1-3,.77-1.76,1.77Z"/><path class="cls-16" d="M261.69,75.18A170.42,170.42,0,0,1,263,103.83c-.06,1.61,2.44,1.6,2.5,0a170.42,170.42,0,0,0-1.28-28.65c-.21-1.57-2.71-1.59-2.5,0Z"/><path class="cls-16" d="M262.32,77.35c-3,8.3-5.85,18.11.14,25.81,1,1.27,2.75-.51,1.77-1.76-5.32-6.85-2.09-16.17.5-23.39.55-1.51-1.87-2.17-2.41-.66Z"/><path class="cls-16" d="M263.1,78.16c4.51,7.5,7.69,17.24,2.45,25.23-.88,1.35,1.28,2.61,2.16,1.27,5.72-8.75,2.51-19.52-2.45-27.76a1.25,1.25,0,0,0-2.16,1.26Z"/><path class="cls-16" d="M263.55,82.53a30.68,30.68,0,0,0,3.32,14.25c.73,1.44,2.89.17,2.16-1.26a28,28,0,0,1-3-13,1.25,1.25,0,0,0-2.5,0Z"/></g></g></svg>