<?xml version="1.0" encoding="utf-8"?>
<!-- Generator: Adobe Illustrator 24.1.2, SVG Export Plug-In . SVG Version: 6.00 Build 0)  -->
<svg version="1.1" id="Layer_1" xmlns="http://www.w3.org/2000/svg" xmlns:xlink="http://www.w3.org/1999/xlink" x="0px" y="0px"
	 viewBox="0 0 436.9 405.1" style="enable-background:new 0 0 436.9 405.1;" xml:space="preserve">
<style type="text/css">
	.st0{fill:url(#SVGID_1_);}
	.st1{fill:#BDDFF6;}
	.st2{fill:#010101;}
	.st3{fill:#231F20;}
	.st4{fill:#BE202E;}
	.st5{fill:#AC1F29;}
	.st6{fill:#FFFFFF;stroke:#FFFFFF;stroke-miterlimit:10;}
	.st7{fill:#3077BB;}
	.st8{fill:#231F20;stroke:#231F20;stroke-miterlimit:10;}
	.st9{fill:#00729F;}
	.st10{fill:#9EDAE6;fill-opacity:0.43;stroke:#231F20;stroke-width:8;stroke-miterlimit:10;}
	.st11{opacity:0.75;}
	.st12{fill:#BEE4ED;}
	.st13{fill:url(#SVGID_2_);}
	.st14{fill:url(#SVGID_3_);}
	.st15{fill:url(#SVGID_4_);}
	.st16{fill:url(#SVGID_5_);}
	.st17{fill:url(#SVGID_6_);}
	.st18{fill:url(#SVGID_7_);}
	.st19{fill:url(#SVGID_8_);}
	.st20{fill:#6FCCD8;}
	.st21{fill:url(#SVGID_9_);}
	.st22{fill:#FFFFFF;}
	.st23{fill:url(#SVGID_10_);}
	.st24{fill:url(#SVGID_11_);}
	.st25{fill:url(#SVGID_12_);}
	.st26{fill:url(#SVGID_13_);}
	.st27{fill:url(#SVGID_14_);}
	.st28{fill:url(#SVGID_15_);}
	.st29{fill:#774098;}
	.st30{fill:#6A2F8F;}
	.st31{fill:#774098;stroke:#6A2F8F;stroke-width:2;stroke-miterlimit:10;}
	.st32{opacity:0.15;}
	.st33{filter:url(#Adobe_OpacityMaskFilter);}
	.st34{mask:url(#SVGID_16_);}
	.st35{fill:#F15E6D;}
	.st36{filter:url(#Adobe_OpacityMaskFilter_1_);}
	.st37{mask:url(#SVGID_17_);}
	.st38{fill:url(#SVGID_18_);}
	.st39{filter:url(#Adobe_OpacityMaskFilter_2_);}
	.st40{mask:url(#SVGID_19_);}
	.st41{filter:url(#Adobe_OpacityMaskFilter_3_);}
	.st42{mask:url(#SVGID_20_);}
	.st43{fill:url(#SVGID_21_);}
	.st44{filter:url(#Adobe_OpacityMaskFilter_4_);}
	.st45{mask:url(#SVGID_22_);}
	.st46{filter:url(#Adobe_OpacityMaskFilter_5_);}
	.st47{mask:url(#SVGID_23_);}
	.st48{fill:url(#SVGID_24_);}
	.st49{filter:url(#Adobe_OpacityMaskFilter_6_);}
	.st50{mask:url(#SVGID_25_);}
	.st51{filter:url(#Adobe_OpacityMaskFilter_7_);}
	.st52{mask:url(#SVGID_26_);}
	.st53{fill:url(#SVGID_27_);}
	.st54{filter:url(#Adobe_OpacityMaskFilter_8_);}
	.st55{mask:url(#SVGID_28_);}
	.st56{filter:url(#Adobe_OpacityMaskFilter_9_);}
	.st57{mask:url(#SVGID_29_);}
	.st58{fill:url(#SVGID_30_);}
	.st59{filter:url(#Adobe_OpacityMaskFilter_10_);}
	.st60{mask:url(#SVGID_31_);}
	.st61{filter:url(#Adobe_OpacityMaskFilter_11_);}
	.st62{mask:url(#SVGID_32_);}
	.st63{fill:url(#SVGID_33_);}
	.st64{filter:url(#Adobe_OpacityMaskFilter_12_);}
	.st65{mask:url(#SVGID_34_);}
	.st66{filter:url(#Adobe_OpacityMaskFilter_13_);}
	.st67{mask:url(#SVGID_35_);}
	.st68{fill:url(#SVGID_36_);}
	.st69{filter:url(#Adobe_OpacityMaskFilter_14_);}
	.st70{mask:url(#SVGID_37_);}
	.st71{filter:url(#Adobe_OpacityMaskFilter_15_);}
	.st72{mask:url(#SVGID_38_);}
	.st73{fill:url(#SVGID_39_);}
	.st74{filter:url(#Adobe_OpacityMaskFilter_16_);}
	.st75{mask:url(#SVGID_40_);}
	.st76{filter:url(#Adobe_OpacityMaskFilter_17_);}
	.st77{mask:url(#SVGID_41_);}
	.st78{fill:url(#SVGID_42_);}
	.st79{filter:url(#Adobe_OpacityMaskFilter_18_);}
	.st80{mask:url(#SVGID_43_);}
	.st81{filter:url(#Adobe_OpacityMaskFilter_19_);}
	.st82{mask:url(#SVGID_44_);}
	.st83{fill:url(#SVGID_45_);}
	.st84{filter:url(#Adobe_OpacityMaskFilter_20_);}
	.st85{mask:url(#SVGID_46_);}
	.st86{filter:url(#Adobe_OpacityMaskFilter_21_);}
	.st87{mask:url(#SVGID_47_);}
	.st88{fill:url(#SVGID_48_);}
	.st89{filter:url(#Adobe_OpacityMaskFilter_22_);}
	.st90{mask:url(#SVGID_49_);}
	.st91{filter:url(#Adobe_OpacityMaskFilter_23_);}
	.st92{mask:url(#SVGID_50_);}
	.st93{fill:url(#SVGID_51_);}
	.st94{filter:url(#Adobe_OpacityMaskFilter_24_);}
	.st95{mask:url(#SVGID_52_);}
	.st96{filter:url(#Adobe_OpacityMaskFilter_25_);}
	.st97{mask:url(#SVGID_53_);}
	.st98{fill:url(#SVGID_54_);}
	.st99{filter:url(#Adobe_OpacityMaskFilter_26_);}
	.st100{mask:url(#SVGID_55_);}
	.st101{filter:url(#Adobe_OpacityMaskFilter_27_);}
	.st102{mask:url(#SVGID_56_);}
	.st103{fill:url(#SVGID_57_);}
	.st104{fill:#1B191D;}
	.st105{fill:#1B191D;stroke:#00729F;stroke-width:4;stroke-miterlimit:10;}
	.st106{fill:#FAAF43;}
	.st107{fill:url(#SVGID_58_);}
	.st108{fill:url(#SVGID_59_);}
	.st109{fill:url(#SVGID_60_);}
	.st110{fill:url(#SVGID_61_);}
	.st111{fill:url(#SVGID_62_);}
	.st112{fill:url(#SVGID_63_);}
	.st113{fill:url(#SVGID_64_);}
	.st114{fill:url(#SVGID_65_);}
	.st115{fill:url(#SVGID_66_);}
	.st116{fill:url(#SVGID_67_);}
	.st117{fill:url(#SVGID_68_);}
	.st118{fill:url(#SVGID_69_);}
	.st119{fill:url(#SVGID_70_);}
	.st120{fill:url(#SVGID_71_);}
	.st121{fill:url(#SVGID_72_);}
	.st122{filter:url(#Adobe_OpacityMaskFilter_28_);}
	.st123{mask:url(#SVGID_73_);}
	.st124{filter:url(#Adobe_OpacityMaskFilter_29_);}
	.st125{mask:url(#SVGID_74_);}
	.st126{fill:url(#SVGID_75_);}
</style>
<g>
	
		<radialGradient id="SVGID_1_" cx="306.5245" cy="253.296" r="136.4529" gradientTransform="matrix(1.043 0 0 0.9472 -104.8572 -10.9887)" gradientUnits="userSpaceOnUse">
		<stop  offset="0" style="stop-color:#A8DCDB"/>
		<stop  offset="0.7847" style="stop-color:#BDDFF6"/>
	</radialGradient>
	<path class="st0" d="M351.7,219.4c0,77.6-53.8,143.3-139.2,143.3S78,297,78,219.4S126.9,94.5,212.4,94.5S351.7,141.8,351.7,219.4z"
		/>
	<g>
		<path class="st1" d="M137.1,335.4c-4,8.2-8.1,16.3-12.1,24.5c-1.3,2.7-2.7,5.5-3,8.5c-0.6,5.7,2.8,11.2,7.4,14.5
			c4.6,3.4,10.2,4.9,15.8,6.1c7.5,1.6,16.2,2.2,21.9-3c2.9-2.6,4.5-6.4,5.9-10.1c2.5-6.9,4.4-13.9,5.8-21.1L137.1,335.4z"/>
		<g>
			<path class="st1" d="M136,334.7c-4.4,8.8-9,17.6-13.1,26.5c-1.8,3.8-2.9,7.8-1.8,12c0.9,3.7,3.2,7.1,6.1,9.6
				c6.2,5.3,15,7.3,22.8,8.2c7.5,0.9,15.5-0.3,20.2-6.8c2.8-3.9,4.3-8.9,5.7-13.4c1.6-5.2,2.9-10.4,3.9-15.7
				c0.1-0.5-0.1-1.2-0.6-1.4c-4.7-2.2-9.3-4.4-14-6.5c-7.5-3.5-14.9-6.9-22.4-10.4c-1.7-0.8-3.5-1.6-5.2-2.4
				c-1.4-0.7-2.7,1.5-1.3,2.2c4.7,2.2,9.3,4.4,14,6.5c7.5,3.5,14.9,6.9,22.4,10.4c1.7,0.8,3.5,1.6,5.2,2.4c-0.2-0.5-0.4-0.9-0.6-1.4
				c-0.8,4.3-1.8,8.5-3,12.7c-1.2,4-2.4,8.1-4.1,11.9c-1.5,3.4-3.7,6.3-7.1,8c-3.1,1.5-6.7,1.8-10.1,1.7c-3.7-0.2-7.3-0.9-10.8-1.7
				c-3.8-0.9-7.6-2.2-11-4.3c-3.1-2-5.8-4.7-7.2-8.2c-1.6-3.8-1.1-7.6,0.5-11.2c2-4.5,4.4-8.9,6.6-13.3c2.3-4.7,4.6-9.3,7-14
				C138.9,334.6,136.8,333.3,136,334.7z"/>
		</g>
	</g>
	<g>
		<path class="st1" d="M225.4,340.2c-1.8,8.9-3.5,17.9-5.3,26.8c-0.6,3-1.2,6-0.7,9c0.9,5.6,5.6,10,10.9,12.1
			c5.3,2,11.2,2.1,16.8,1.7c7.6-0.5,16.2-2.2,20.4-8.6c2.1-3.3,2.7-7.4,3-11.3c0.6-7.3,0.6-14.6,0-21.9L225.4,340.2z"/>
		<g>
			<path class="st1" d="M224.2,339.9c-1,5-1.9,9.9-2.9,14.9c-0.9,4.8-2,9.7-2.8,14.5c-0.7,4.2-0.6,8.3,1.7,12c1.9,3.1,4.8,5.5,8,7.1
				c7.4,3.6,16.7,3.2,24.7,2c7.1-1.1,14.3-4.1,17.2-11.2c1.9-4.5,2-9.7,2.2-14.5c0.2-5.6,0.1-11.2-0.3-16.8c0-0.5-0.4-1.1-0.9-1.2
				c-5.1-0.9-10.2-1.7-15.2-2.6c-8.1-1.4-16.2-2.8-24.3-4.2c-1.9-0.3-3.8-0.6-5.6-1c-1.6-0.3-2.2,2.1-0.7,2.4
				c5.1,0.9,10.2,1.7,15.2,2.6c8.1,1.4,16.2,2.8,24.3,4.2c1.9,0.3,3.8,0.6,5.6,1c-0.3-0.4-0.6-0.8-0.9-1.2c0.4,4.5,0.5,9.1,0.4,13.6
				c-0.1,4.2-0.2,8.6-1,12.8c-0.7,3.6-2.2,6.9-5,9.2c-2.6,2.1-5.8,3.2-9,3.9c-3.4,0.8-7,1-10.5,1.1c-4.1,0.1-8.3-0.1-12.3-1.3
				c-3.3-1.1-6.5-3-8.7-5.8c-2.5-3.1-3.1-6.7-2.6-10.6c0.6-5,1.9-10.1,2.9-15.1c1-5.1,2-10.2,3-15.4
				C226.9,339,224.5,338.3,224.2,339.9z"/>
		</g>
	</g>
	<g>
		<g>
			<g>
				<path class="st3" d="M190.1,82.9c2.4,3.5,4.3,7.6,6.2,11.4c1.1,2.3,2.2,4.6,3.2,7c0.7,1.6,1.4,3.3,1.7,5
					c0.3,1.6,2.7,0.9,2.4-0.7c-0.3-1.8-1.1-3.5-1.7-5.1c-1-2.4-2.1-4.8-3.3-7.2c-1.9-3.9-3.8-8.1-6.3-11.7
					C191.4,80.3,189.2,81.6,190.1,82.9L190.1,82.9z"/>
			</g>
		</g>
		<g>
			<g>
				<path class="st3" d="M204.2,78c1,9.2,1.8,18.5,2.8,27.7c0.2,1.6,2.7,1.6,2.5,0c-1-9.2-1.8-18.5-2.8-27.7
					C206.6,76.4,204.1,76.4,204.2,78L204.2,78z"/>
			</g>
		</g>
		<g>
			<g>
				<path class="st3" d="M215.8,105c-0.4-1.5,0-3.4,0.2-4.9c0.4-2.5,1-4.9,1.8-7.4c0.7-2.4,1.5-4.8,2.5-7.2c0.6-1.6,1.3-3.2,2.3-4.6
					c1-1.3-1.2-2.5-2.2-1.3c-1.2,1.5-1.9,3.4-2.6,5.2c-1,2.4-1.8,4.9-2.5,7.5c-0.7,2.5-1.4,5-1.8,7.6c-0.3,1.9-0.6,3.9-0.1,5.8
					C213.8,107.2,216.2,106.6,215.8,105L215.8,105z"/>
			</g>
		</g>
	</g>
	<g>
		<path class="st1" d="M101.8,284c-5.7,7.1-11.5,14.1-17.2,21.2c-1.9,2.3-3.8,4.7-5.1,7.4c-2.3,5-1.7,9.9,0.6,13
			c2.3,3.1,5.9,4.7,9.7,5.8c5,1.6,11.3,2.4,17.2-1.9c3.1-2.2,5.5-5.5,7.8-8.7c4.2-6,8-12.2,11.4-18.4L101.8,284z"/>
		<g>
			<path class="st1" d="M100.9,283.1c-5.5,6.8-11,13.5-16.5,20.3c-2.5,3.1-5.1,6.1-6.6,9.8c-1.3,3.4-1.6,7.3-0.2,10.8
				c2.5,6.1,9.8,8.8,15.8,9.8c3.3,0.5,6.7,0.4,9.8-0.8c3.6-1.4,6.5-3.9,8.9-6.8c2.8-3.4,5.3-7.2,7.7-11c2.5-4,4.9-8,7.2-12.1
				c0.4-0.6,0.1-1.3-0.4-1.7c-7.1-5.4-14.2-10.7-21.3-16.1c-1-0.8-2-1.5-3-2.3c-1.3-1-2.5,1.2-1.3,2.2c7.1,5.4,14.2,10.7,21.3,16.1
				c1,0.8,2,1.5,3,2.3c-0.1-0.6-0.3-1.1-0.4-1.7c-3.6,6.6-7.5,13-11.9,19.2c-2,2.9-4.3,5.8-7.2,7.9c-2.7,1.9-5.8,2.8-9.1,2.8
				c-3,0-5.9-0.9-8.7-1.9c-2.9-1-5.8-2.6-7.5-5.2c-1.8-2.9-1.8-6.5-0.8-9.7c1.1-3.4,3.6-6.3,5.8-9c5.6-6.9,11.3-13.9,16.9-20.8
				C103.7,283.6,102,281.9,100.9,283.1z"/>
		</g>
	</g>
	<g>
		<path class="st1" d="M332.2,287.5c5.1,7.5,10.3,15,15.4,22.6c1.7,2.5,3.4,5,4.5,7.8c1.9,5.1,0.9,10-1.7,12.9
			c-2.5,2.9-6.3,4.2-10.1,5c-5.2,1.2-11.5,1.5-17-3.3c-2.9-2.5-5-6-7-9.3c-3.7-6.3-6.9-12.8-9.8-19.3L332.2,287.5z"/>
		<g>
			<path class="st1" d="M331.1,288.2c4.6,6.7,9.2,13.4,13.8,20.1c3.8,5.6,9.1,12.2,6.1,19.3c-1.2,2.9-3.8,4.8-6.7,5.9
				c-2.7,1-5.8,1.7-8.7,1.9c-3.1,0.2-6.1-0.4-8.8-1.9c-3.1-1.8-5.4-4.6-7.3-7.5c-4.6-7.1-8.5-14.9-11.9-22.7
				c-0.1,0.6-0.3,1.1-0.4,1.7c7.5-4.8,15-9.5,22.5-14.3c1.1-0.7,2.1-1.4,3.2-2c1.4-0.9,0.1-3-1.3-2.2c-7.5,4.8-15,9.5-22.5,14.3
				c-1.1,0.7-2.1,1.4-3.2,2c-0.6,0.4-0.7,1.1-0.4,1.7c3.3,7.5,7,15,11.4,22c2,3.2,4.3,6.2,7.5,8.4c2.8,1.9,6.1,2.9,9.5,3
				c3.2,0.1,6.4-0.5,9.4-1.4c3.2-1,6.4-2.5,8.5-5.2c2-2.6,2.8-6,2.5-9.2c-0.3-3.9-2.2-7.4-4.3-10.6c-5.4-8.2-11.1-16.3-16.7-24.4
				C332.4,285.6,330.2,286.8,331.1,288.2z"/>
		</g>
	</g>
	<g>
		<circle class="st6" cx="155.8" cy="207.5" r="47.1"/>
		<circle class="st7" cx="161.8" cy="222.8" r="30.7"/>
		<circle class="st8" cx="161.8" cy="223.3" r="24"/>
		<path class="st1" d="M106.7,194.1c0-24.8,21.8-44.9,48.8-44.9s48.8,20.1,48.8,44.9"/>
	</g>
	<g>
		<circle class="st6" cx="275.8" cy="210.5" r="47.1"/>
		<circle class="st7" cx="267.8" cy="224.9" r="30.7"/>
		<circle class="st8" cx="267.8" cy="225.4" r="24"/>
		<path class="st1" d="M227,194.1c0-24.8,21.8-44.9,48.8-44.9s48.8,20.1,48.8,44.9"/>
	</g>
	<g>
		<g>
			<path class="st1" d="M162.6,112c-0.1-3.8-0.3-7.6-0.4-11.4c0-1.3-0.1-2.5-0.4-3.7c-0.6-2.2-2.2-3.6-3.8-3.9
				c-1.6-0.4-3.1,0.2-4.6,0.8c-2,0.9-4.2,2.3-4.9,5.3c-0.3,1.5-0.2,3.2,0,4.9c0.3,3,0.8,6,1.5,8.9L162.6,112z"/>
			<g>
				<path class="st1" d="M163.9,112c-0.1-3.9-0.3-7.8-0.4-11.7c-0.1-3-0.7-6.2-3.6-7.9c-2.7-1.6-6.2-0.4-8.7,1.2
					c-2.6,1.6-4,4.2-4.1,7.3c-0.1,2,0.3,4.1,0.5,6.1c0.3,2.1,0.7,4.2,1.2,6.3c0.1,0.5,0.7,1,1.2,0.9c4.2-0.3,8.4-0.6,12.7-0.9
					c1.6-0.1,1.6-2.6,0-2.5c-4.2,0.3-8.4,0.6-12.7,0.9c0.4,0.3,0.8,0.6,1.2,0.9c-0.4-2-0.8-3.9-1.1-5.9c-0.3-1.9-0.6-3.9-0.5-5.8
					c0.1-3.3,2.4-5.3,5.4-6.3c1.5-0.5,3.1-0.6,4.3,0.5c1.3,1.2,1.5,2.9,1.6,4.6c0.2,4.1,0.3,8.3,0.4,12.4
					C161.4,113.6,163.9,113.6,163.9,112z"/>
			</g>
		</g>
		<g>
			<path class="st9" d="M160.6,113.3c-0.1-2.8-0.2-5.6-0.3-8.4c0-0.9-0.1-1.9-0.3-2.7c-0.5-1.6-1.6-2.6-2.7-2.9
				c-1.1-0.3-2.3,0.1-3.3,0.6c-1.5,0.6-3,1.7-3.5,3.9c-0.2,1.1-0.2,2.4,0,3.6c0.2,2.2,0.6,4.4,1.1,6.6L160.6,113.3z"/>
			<g>
				<path class="st9" d="M161.8,113.3c-0.1-2.9-0.2-5.8-0.3-8.7c-0.1-2.3-0.6-4.8-2.8-6.1c-2.1-1.2-4.7-0.4-6.6,0.9
					c-2,1.3-3,3.3-3.1,5.6c-0.1,1.5,0.2,3.1,0.4,4.6c0.2,1.6,0.5,3.1,0.8,4.6c0.1,0.5,0.7,1,1.2,0.9c3-0.2,6.1-0.4,9.1-0.6
					c1.6-0.1,1.6-2.6,0-2.5c-3,0.2-6.1,0.4-9.1,0.6c0.4,0.3,0.8,0.6,1.2,0.9c-0.6-2.8-1.3-5.8-1.2-8.6c0.1-2.3,1.6-3.6,3.6-4.3
					c1-0.3,2-0.5,2.8,0.3c0.9,0.8,1,2,1.1,3.1c0.2,3.1,0.2,6.1,0.3,9.2C159.4,114.9,161.9,114.9,161.8,113.3z"/>
			</g>
		</g>
	</g>
	<g>
		<g>
			<path class="st1" d="M256.3,113.9c0.1-3.8,0.3-7.6,0.4-11.4c0-1.3,0.1-2.5,0.4-3.7c0.6-2.2,2.2-3.6,3.8-3.9
				c1.6-0.4,3.1,0.2,4.6,0.8c2,0.9,4.2,2.3,4.9,5.3c0.3,1.5,0.2,3.2,0,4.9c-0.3,3-0.8,6-1.5,8.9L256.3,113.9z"/>
			<g>
				<path class="st1" d="M257.5,113.9c0.1-4.1,0.2-8.3,0.4-12.4c0.1-1.7,0.4-3.4,1.6-4.6c1.2-1.2,2.8-1,4.3-0.5c3,1,5.3,3,5.4,6.3
					c0.1,1.9-0.2,3.9-0.5,5.8c-0.3,2-0.7,3.9-1.1,5.9c0.4-0.3,0.8-0.6,1.2-0.9c-4.2-0.3-8.4-0.6-12.7-0.9c-1.6-0.1-1.6,2.4,0,2.5
					c4.2,0.3,8.4,0.6,12.7,0.9c0.5,0,1.1-0.4,1.2-0.9c0.8-3.6,1.5-7.3,1.7-11c0.2-3.1-0.7-6.1-3.2-8.1c-2.3-1.8-5.8-3.3-8.6-2.2
					c-2.9,1.1-4.2,4-4.5,7c-0.4,4.3-0.3,8.8-0.5,13.1C255,115.5,257.5,115.5,257.5,113.9z"/>
			</g>
		</g>
		<g>
			<path class="st9" d="M258.3,115.2c0.1-2.8,0.2-5.6,0.3-8.4c0-0.9,0.1-1.9,0.3-2.7c0.5-1.6,1.6-2.6,2.7-2.9
				c1.1-0.3,2.3,0.1,3.3,0.6c1.5,0.6,3,1.7,3.5,3.9c0.2,1.1,0.2,2.4,0,3.6c-0.2,2.2-0.6,4.4-1.1,6.6L258.3,115.2z"/>
			<g>
				<path class="st9" d="M259.6,115.2c0.1-3.1,0.2-6.1,0.3-9.2c0.1-1.1,0.2-2.3,1.1-3.1c0.8-0.8,1.8-0.7,2.8-0.3
					c2,0.7,3.5,2.1,3.6,4.3c0.1,2.8-0.5,5.8-1.2,8.6c0.4-0.3,0.8-0.6,1.2-0.9c-3-0.2-6.1-0.4-9.1-0.6c-1.6-0.1-1.6,2.4,0,2.5
					c3,0.2,6.1,0.4,9.1,0.6c0.5,0,1.1-0.4,1.2-0.9c0.6-2.7,1.1-5.5,1.2-8.2c0.1-2.4-0.5-4.6-2.4-6.2c-1.7-1.4-4.4-2.5-6.6-1.7
					c-2.3,0.9-3.3,3.2-3.5,5.5c-0.3,3.2-0.2,6.5-0.4,9.7C257,116.9,259.5,116.8,259.6,115.2z"/>
			</g>
		</g>
	</g>
	<g>
		<g>
			<path class="st3" d="M197.4,322.9c0.4-2.8,2.6-4.6,4.9-6c2.2-1.3,4.3-1.9,6.9-1.5c4.4,0.6,8.6,3.9,9.6,8.4
				c0.7,3.1,5.5,1.8,4.8-1.3c-1.5-6.7-7.8-11.4-14.5-12.1c-3.4-0.4-6.7,0.6-9.6,2.3c-3.2,1.9-6.4,5-7,8.9c-0.2,1.3,0.3,2.7,1.7,3.1
				C195.5,325,197.2,324.2,197.4,322.9L197.4,322.9z"/>
		</g>
	</g>
	<g>
		<g>
			<path class="st20" d="M271.4,139c0,0.7,0.3,1.4,0.9,1.9c0.5,0.4,1.5,1,2.1,1.1c1.4,0.3,2.7-0.3,3.7-1.4c0.4-0.5,0.9-1.6,1-2.2
				c0.2-0.7,0-1.5-0.5-2.1c-1.6-1.9-3.9-3-5.6-4.8C273,131.6,271.5,136.5,271.4,139z"/>
			<g>
				<path class="st20" d="M270.1,139c0,1.8,1.2,3.1,2.8,3.8c1.6,0.8,3.4,0.7,4.8-0.2c1.3-0.9,2.3-2.2,2.6-3.8
					c0.2-0.9,0.1-1.9-0.4-2.7c-0.4-0.7-1.1-1.3-1.7-1.8c-1.4-1.2-3-2.2-4.3-3.5c-0.7-0.7-1.8-0.3-2.1,0.6
					C271.1,133.8,270.3,136.4,270.1,139c0,0.7,0.6,1.2,1.2,1.2c0.7,0,1.2-0.6,1.2-1.2c0-0.2,0-0.3,0-0.5c0-0.1,0-0.2,0-0.1
					c0-0.1,0-0.2,0-0.2c0.1-0.4,0.1-0.8,0.2-1.1c0.2-0.8,0.4-1.6,0.6-2.4c0.2-0.9,0.5-1.8,0.8-2.7c-0.7,0.2-1.4,0.4-2.1,0.6
					c1.2,1.2,2.6,2.1,3.9,3.1c0.6,0.5,1.4,1,1.7,1.7c0.3,0.5,0.2,0.9,0,1.5c-0.4,1.1-1.4,2.1-2.7,2.1c-0.6,0-1.1-0.3-1.6-0.6
					c-0.4-0.3-0.8-0.6-0.8-1.2C272.6,137.4,270.1,137.4,270.1,139z"/>
			</g>
		</g>
		<g>
			<path class="st20" d="M304.6,152c0,0.1,0,0.3,0.1,0.4c0.1,0.1,0.2,0.2,0.3,0.3c0.2,0.1,0.5,0.1,0.7-0.1c0.1-0.1,0.2-0.2,0.3-0.3
				c0.1-0.1,0.1-0.3,0-0.4c-0.2-0.4-0.6-0.7-0.8-1.1C305.2,150.7,304.7,151.5,304.6,152z"/>
			<g>
				<path class="st20" d="M303.4,151.6c-0.2,0.6,0.1,1.3,0.6,1.8c0.2,0.2,0.5,0.4,0.8,0.5c0.3,0.1,0.7,0.1,1,0
					c0.2,0,0.3-0.1,0.5-0.2c0.1-0.1,0.3-0.2,0.4-0.3c0,0,0.1-0.1,0.1-0.1c0.1-0.1,0.2-0.2,0.3-0.4c0.1-0.1,0.1-0.3,0.2-0.4
					c0,0,0-0.1,0-0.1c0-0.1,0.1-0.3,0-0.4c0-0.3-0.1-0.7-0.3-0.9c-0.2-0.3-0.5-0.6-0.7-0.9c0.1,0.1,0.1,0.2,0.2,0.3
					c-0.1-0.1-0.1-0.2-0.2-0.2c-0.2-0.4-0.6-0.6-1.1-0.6c-0.4,0-0.9,0.2-1.1,0.6c-0.1,0.2-0.2,0.3-0.3,0.5
					C303.6,150.9,303.5,151.3,303.4,151.6c-0.1,0.3,0,0.7,0.1,1c0.2,0.3,0.4,0.5,0.7,0.6c0.3,0.1,0.7,0.1,1-0.1
					c0.3-0.2,0.5-0.4,0.6-0.7c0-0.1,0.1-0.2,0.1-0.3c0,0.1-0.1,0.2-0.1,0.3c0.1-0.3,0.3-0.7,0.5-1c-0.7,0-1.4,0-2.2,0
					c0.2,0.4,0.5,0.7,0.8,1c-0.1-0.1-0.1-0.2-0.2-0.3c0.1,0.1,0.2,0.2,0.2,0.4c0-0.1-0.1-0.2-0.1-0.3c0,0,0,0.1,0,0.1
					c0-0.1,0-0.2,0-0.3c0,0,0,0.1,0,0.1c0-0.1,0-0.2,0-0.3c0,0,0,0.1,0,0.1c0-0.1,0.1-0.2,0.1-0.3c0,0.1-0.1,0.2-0.1,0.2
					c0.1-0.1,0.1-0.2,0.2-0.3c0,0-0.1,0.1-0.1,0.1c0.1-0.1,0.2-0.1,0.3-0.2c-0.1,0-0.1,0.1-0.2,0.1c0.1,0,0.2-0.1,0.3-0.1
					c-0.1,0-0.1,0-0.2,0.1c0.1,0,0.2,0,0.3,0c-0.1,0-0.1,0-0.2,0c0.1,0,0.2,0,0.3,0c-0.1,0-0.1,0-0.2-0.1c0.1,0,0.2,0.1,0.3,0.1
					c0,0-0.1-0.1-0.1-0.1c0.1,0.1,0.2,0.1,0.3,0.2c-0.1-0.1-0.1-0.1-0.2-0.2c0.1,0.1,0.1,0.2,0.2,0.3c0,0-0.1-0.1-0.1-0.1
					c0,0.1,0.1,0.2,0.1,0.3c0,0,0-0.1,0-0.1c0,0.1,0,0.2,0,0.3c0,0,0-0.1,0-0.1c0,0.1,0,0.2,0,0.3c0,0,0,0,0-0.1
					c0.1-0.3,0-0.7-0.1-1c-0.2-0.3-0.4-0.5-0.7-0.6c-0.3-0.1-0.7-0.1-1,0.1C303.7,151.1,303.4,151.3,303.4,151.6z"/>
			</g>
		</g>
		<g>
			<path class="st20" d="M252,160.4c-0.1,0.1-0.1,0.2-0.1,0.4c0,0.1,0.1,0.3,0.2,0.4c0.2,0.2,0.4,0.3,0.7,0.2c0.1,0,0.3-0.1,0.4-0.2
				c0.1-0.1,0.2-0.2,0.2-0.3c0-0.4-0.2-0.9-0.3-1.3C253.1,159.5,252.3,160,252,160.4z"/>
			<g>
				<path class="st20" d="M251.2,159.5c-0.2,0.2-0.3,0.4-0.4,0.7c-0.1,0.2-0.1,0.3-0.1,0.5c0,0.4,0.1,0.6,0.3,0.9
					c0,0.1,0.1,0.1,0.1,0.2c0.2,0.3,0.3,0.4,0.6,0.6c0.1,0.1,0.3,0.1,0.4,0.2c0.1,0,0.2,0.1,0.3,0.1c0.1,0,0.2,0,0.3,0
					c0.1,0,0.3,0,0.4-0.1c0,0,0.1,0,0.1,0c0.2-0.1,0.4-0.2,0.6-0.3c0.3-0.2,0.4-0.3,0.5-0.5c0,0,0-0.1,0.1-0.1
					c0.1-0.1,0.1-0.2,0.2-0.4c0-0.1,0-0.3,0.1-0.4c0,0,0-0.1,0-0.1c0-0.2,0-0.4-0.1-0.5c-0.1-0.4-0.2-0.7-0.3-1
					c-0.1-0.2-0.2-0.4-0.3-0.6c-0.1-0.1-0.2-0.2-0.4-0.3c-0.1-0.1-0.3-0.1-0.5-0.1c-0.2,0-0.4,0.1-0.6,0.2c-0.2,0.2-0.4,0.3-0.7,0.5
					C251.6,159.1,251.3,159.3,251.2,159.5c-0.1,0.1-0.2,0.2-0.3,0.4c-0.1,0.1-0.1,0.3-0.1,0.5c0,0.3,0.1,0.7,0.4,0.9
					c0.2,0.2,0.6,0.4,0.9,0.4c0.3,0,0.7-0.1,0.9-0.4c0.2-0.2,0.5-0.5,0.7-0.6c-0.1,0.1-0.2,0.1-0.3,0.2c0.1-0.1,0.2-0.2,0.3-0.2
					c-0.6-0.2-1.2-0.5-1.8-0.7c0.1,0.4,0.2,0.8,0.3,1.2c0-0.1,0-0.2,0-0.3c0,0.1,0,0.1,0,0.2c0-0.1,0-0.2,0-0.3c0,0,0,0.1,0,0.1
					c0-0.1,0.1-0.2,0.1-0.3c0,0,0,0.1-0.1,0.1c0.1-0.1,0.1-0.2,0.2-0.3c0,0,0,0.1-0.1,0.1c0.1-0.1,0.2-0.1,0.3-0.2
					c-0.1,0.1-0.2,0.1-0.3,0.2c0.1,0,0.2-0.1,0.3-0.1c-0.1,0-0.1,0-0.2,0c0.1,0,0.2,0,0.3,0c-0.1,0-0.1,0-0.2,0c0.1,0,0.2,0,0.3,0
					c-0.1,0-0.1,0-0.2-0.1c0.1,0,0.2,0.1,0.3,0.1c-0.1,0-0.1-0.1-0.1-0.1c0.1,0.1,0.2,0.1,0.3,0.2c0,0-0.1-0.1-0.1-0.1
					c0.1,0.1,0.1,0.2,0.2,0.3c0-0.1-0.1-0.1-0.1-0.2c0,0.1,0.1,0.2,0.1,0.3c0-0.1,0-0.1-0.1-0.2c0,0.1,0,0.2,0,0.3c0,0,0-0.1,0-0.1
					c0,0.1,0,0.2,0,0.3c0,0,0-0.1,0-0.1c0,0.1-0.1,0.2-0.1,0.3c0,0,0,0,0-0.1c-0.1,0.1-0.1,0.2-0.2,0.3c0,0,0,0,0,0
					c0.1-0.1,0.2-0.2,0.3-0.4c0.1-0.1,0.1-0.3,0.1-0.5c0-0.3-0.1-0.7-0.4-0.9c-0.2-0.2-0.6-0.4-0.9-0.4c-0.1,0-0.2,0-0.3,0
					C251.5,159.2,251.3,159.3,251.2,159.5z"/>
			</g>
		</g>
		<g>
			<path class="st20" d="M153.7,152.8c0,0.7-0.3,1.4-0.9,1.9c-0.5,0.4-1.5,1-2.1,1.1c-1.4,0.3-2.7-0.3-3.7-1.4
				c-0.4-0.5-0.9-1.6-1-2.2c-0.2-0.7,0-1.5,0.5-2.1c1.6-1.9,3.9-3,5.6-4.8C152,145.5,153.5,150.4,153.7,152.8z"/>
			<g>
				<path class="st20" d="M152.4,152.8c0,0.6-0.4,1-0.8,1.2c-0.5,0.4-1,0.6-1.6,0.6c-1.3,0-2.3-1-2.7-2.1c-0.2-0.5-0.3-1,0-1.5
					c0.4-0.6,1.1-1.2,1.7-1.7c1.3-1,2.7-1.9,3.9-3.1c-0.7-0.2-1.4-0.4-2.1-0.6c0.3,0.9,0.5,1.8,0.8,2.7c0.2,0.8,0.4,1.6,0.6,2.3
					c0.1,0.4,0.2,0.8,0.2,1.1c0,0.1,0,0.2,0,0.2c0,0.2,0-0.2,0,0.1C152.4,152.5,152.4,152.7,152.4,152.8c0,0.7,0.5,1.2,1.2,1.2
					c0.6,0,1.3-0.6,1.2-1.2c-0.2-2.6-1-5.2-1.7-7.7c-0.3-0.9-1.4-1.2-2.1-0.6c-1.2,1.2-2.5,2.1-3.8,3.1c-1.3,1.1-2.8,2.3-2.7,4.2
					c0.1,3.3,3.6,6.3,6.9,5.1c1.8-0.7,3.5-2.1,3.5-4.1C154.9,151.2,152.4,151.2,152.4,152.8z"/>
			</g>
		</g>
		<g>
			<path class="st20" d="M139.6,130c0,0.3-0.1,0.7-0.3,0.9c-0.2,0.2-0.6,0.5-0.9,0.6c-0.7,0.2-1.3,0-1.8-0.5c-0.2-0.2-0.5-0.7-0.6-1
				c-0.1-0.3-0.1-0.7,0.1-1c0.7-0.9,1.7-1.5,2.4-2.4C138.5,126.6,139.4,128.8,139.6,130z"/>
			<g>
				<path class="st20" d="M138.3,130C138.4,130.1,138.3,130.4,138.3,130C138.3,130.3,138.5,129.8,138.3,130
					C138.3,130.1,138.3,130.1,138.3,130C138.4,130,138.4,130,138.3,130c0,0.1-0.1,0.1-0.1,0.2c0.2-0.1,0.2-0.1,0.1-0.1
					c0,0-0.1,0.1-0.1,0.1c-0.1,0-0.1,0.1-0.2,0.1c0,0-0.1,0-0.1,0.1c0.2-0.1,0.2-0.1,0.1-0.1c-0.1,0-0.1,0-0.2,0c0.1,0,0.1,0,0.2,0
					c0,0-0.3,0-0.3,0c0.2,0,0.2,0,0.1,0c0,0,0,0-0.1,0c0,0-0.1,0-0.1,0c0.2,0.1,0.2,0.1,0.1,0c-0.1,0-0.1-0.1-0.2-0.1
					c-0.1-0.1-0.1-0.1,0.1,0.1c0,0-0.1-0.1-0.1-0.1c-0.2-0.1,0,0,0,0.1c-0.1-0.2-0.2-0.3-0.3-0.5c-0.1-0.3,0.1,0.2,0,0
					c0,0,0-0.1,0-0.1c0-0.1,0-0.1,0,0c0,0.1,0,0.1,0,0c0-0.1,0-0.1,0,0.1c0-0.2-0.2,0.2,0,0c0.2-0.3-0.1,0.2,0,0
					c0.1-0.1,0.1-0.1,0.2-0.2c0.1-0.1,0.3-0.3,0.4-0.4c0.6-0.5,1.2-1,1.6-1.6c-0.7-0.2-1.4-0.4-2.1-0.6c0.4,1.1,0.9,2.2,1.1,3.3
					c0,0.3,0.3,0.6,0.6,0.7c0.3,0.2,0.7,0.2,1,0.1c0.3-0.1,0.6-0.3,0.7-0.6c0.2-0.3,0.2-0.6,0.1-1c-0.2-1.1-0.6-2.3-1.1-3.3
					c-0.2-0.4-0.4-0.7-0.9-0.9c-0.4-0.1-0.9,0-1.2,0.3c-0.5,0.6-1.1,1-1.6,1.5c-0.7,0.7-1.4,1.4-1.3,2.5c0,1,0.7,1.9,1.4,2.5
					c0.9,0.6,2,0.7,2.9,0.3c1-0.4,1.9-1.4,1.7-2.6c0-0.3-0.1-0.6-0.4-0.9c-0.2-0.2-0.6-0.4-0.9-0.4C139,128.7,138.3,129.3,138.3,130
					z"/>
			</g>
		</g>
		<g>
			<path class="st20" d="M181.9,131.5c0.1,0.2,0.2,0.4,0.1,0.6c0,0.2-0.2,0.5-0.3,0.7c-0.3,0.3-0.7,0.4-1.2,0.3
				c-0.2,0-0.5-0.2-0.7-0.3c-0.2-0.1-0.3-0.4-0.3-0.6c0-0.7,0.4-1.4,0.5-2.2C180.2,130,181.5,130.9,181.9,131.5z"/>
			<g>
				<path class="st20" d="M181.1,132.3C181.1,132.4,181.1,132.4,181.1,132.3c0,0-0.1-0.1-0.2-0.2
					C180.9,132.2,180.9,132.2,181.1,132.3c-0.1-0.2-0.2-0.3-0.2-0.4c0,0.1,0,0.1,0.1,0.2c0-0.1,0-0.2,0-0.3c0,0.1,0,0.2,0,0.2
					c0-0.1,0-0.2,0-0.3c0,0.1-0.1,0.2-0.1,0.3c0-0.1,0.1-0.2,0.1-0.3c-0.1,0.1-0.1,0.2-0.2,0.4c0.1-0.1,0.1-0.2,0.2-0.3
					c0,0.1-0.1,0.1-0.2,0.2c0.1-0.1,0.2-0.1,0.3-0.2c-0.1,0.1-0.2,0.1-0.2,0.1c0.1,0,0.2-0.1,0.3-0.1c-0.1,0-0.2,0.1-0.3,0.1
					c0.1,0,0.2,0,0.3,0c-0.1,0-0.3,0-0.4,0c0.1,0,0.2,0,0.3,0c-0.1,0-0.2,0-0.3-0.1c0.1,0,0.2,0.1,0.3,0.1c-0.2-0.1-0.3-0.2-0.4-0.3
					c0.1,0.1,0.2,0.1,0.3,0.2c0,0-0.1-0.1-0.1-0.1c0.1,0.1,0.1,0.2,0.2,0.3c0-0.1-0.1-0.1-0.1-0.2c0,0.1,0.1,0.2,0.1,0.3
					c0,0,0-0.1,0-0.1C180.9,132.1,180.9,132.2,181.1,132.3c-0.1-0.2-0.1-0.3-0.1-0.4c0,0.1,0,0.2,0,0.3c0.1-0.7,0.4-1.3,0.5-2
					c-0.6,0.2-1.2,0.5-1.8,0.7c0.2,0.1,0.3,0.3,0.5,0.4c-0.1-0.1-0.2-0.1-0.3-0.2C180.3,131.6,180.7,131.9,181.1,132.3
					c0.2,0.2,0.6,0.4,0.9,0.4c0.3,0,0.7-0.1,0.9-0.4c0.2-0.2,0.4-0.6,0.4-0.9c0-0.3-0.1-0.6-0.4-0.9c-0.3-0.4-0.7-0.7-1.1-1
					c-0.3-0.2-0.6-0.5-0.9-0.7c-0.3-0.2-0.8-0.2-1.1-0.1c-0.3,0.1-0.7,0.4-0.7,0.8c-0.1,0.5-0.3,1-0.4,1.5c-0.1,0.3-0.2,0.7-0.1,1.1
					c0,0.5,0.2,1,0.6,1.3c0.5,0.5,1.2,0.8,1.9,0.8c0.8,0,1.6-0.4,2-1.1c0.2-0.3,0.3-0.7,0.4-1.1c0-0.3,0-0.5,0-0.8
					c-0.1-0.3-0.3-0.6-0.5-0.8c-0.2-0.2-0.6-0.4-0.9-0.4c-0.3,0-0.7,0.1-0.9,0.4c-0.2,0.2-0.4,0.6-0.4,0.9c0,0.1,0,0.2,0,0.3
					C180.8,132,180.9,132.2,181.1,132.3z"/>
			</g>
		</g>
		<g>
			<path class="st20" d="M322.1,264.9c0.5,0.5,0.7,1.3,0.6,2c-0.1,0.7-0.5,1.7-0.9,2.3c-0.9,1.1-2.3,1.5-3.8,1.3
				c-0.7-0.1-1.7-0.6-2.2-1c-0.6-0.4-1-1.1-1-1.9c0-2.5,1.1-4.8,1.3-7.3C316.1,260.4,320.4,263.1,322.1,264.9z"/>
			<g>
				<path class="st20" d="M321.2,265.8c0.6,0.7-0.1,2.3-0.7,2.8c-0.8,0.8-2.2,0.8-3.1,0.3c-0.3-0.1-0.6-0.3-0.9-0.5
					c0.1,0.1-0.2-0.2-0.2-0.2c0,0-0.2-0.2-0.2-0.3c-0.3-0.6,0-1.6,0.1-2.3c0.4-1.8,0.9-3.6,1.1-5.4c-0.6,0.4-1.3,0.7-1.9,1.1
					c0.8,0.5,1.6,1,2.3,1.6c0.7,0.5,1.3,0.9,1.8,1.3C320.1,264.8,320.7,265.3,321.2,265.8c1.1,1.2,2.9-0.6,1.8-1.8
					c-1.1-1.2-2.5-2.2-3.8-3.1c-0.8-0.6-1.6-1.1-2.4-1.7c-0.9-0.6-1.8,0.2-1.9,1.1c-0.2,1.7-0.7,3.3-1,5c-0.3,1.8-0.5,3.7,1.1,5
					c1.2,1,2.8,1.6,4.3,1.4c1.6-0.2,3.1-1,3.9-2.4c0.9-1.7,1.2-3.7-0.2-5.3c-0.4-0.5-1.3-0.5-1.8,0
					C320.7,264.6,320.7,265.3,321.2,265.8z"/>
			</g>
		</g>
		<g>
			<path class="st20" d="M102.1,217.2c0.1,0.7-0.2,1.5-0.8,2c-0.5,0.5-1.4,1.1-2.1,1.2c-1.4,0.4-2.7-0.2-3.8-1.2
				c-0.5-0.5-1-1.5-1.1-2.1c-0.2-0.7-0.1-1.5,0.4-2.1c1.5-2,3.8-3.2,5.4-5C100.1,209.9,101.9,214.7,102.1,217.2z"/>
			<g>
				<path class="st20" d="M100.9,217.2c0,0.7-0.3,1.1-0.8,1.4c-0.6,0.4-1,0.6-1.6,0.7c-1.3,0-2.3-0.9-2.7-2.1c-0.2-0.5-0.3-1,0-1.5
					c0.4-0.6,1-1.1,1.6-1.6c1.2-1.1,2.6-2.1,3.7-3.3c-0.7-0.2-1.4-0.4-2.1-0.6c0.3,0.9,0.6,1.8,0.9,2.7c0.2,0.8,0.5,1.5,0.7,2.3
					c0.1,0.4,0.2,0.8,0.3,1.1c0,0.2,0.1,0.4,0.1,0.5C100.8,216.9,100.9,217,100.9,217.2C100.9,217.4,100.8,216.8,100.9,217.2
					c0.1,0.7,0.5,1.2,1.2,1.2c0.6,0,1.3-0.6,1.2-1.2c-0.3-2.6-1.2-5.2-2.1-7.6c-0.3-0.8-1.4-1.3-2.1-0.6c-1.1,1.2-2.4,2.1-3.6,3.2
					c-1.3,1.1-2.7,2.4-2.6,4.3c0.2,3.3,3.7,6.2,7,5c1.8-0.7,3.5-2.2,3.4-4.3c0-0.7-0.5-1.2-1.2-1.2
					C101.5,215.9,100.8,216.5,100.9,217.2z"/>
			</g>
		</g>
	</g>
	<g>
		<g>
			<g>
				<path class="st3" d="M212,221.1c0.5-0.2,1-0.6,1.5-0.7c-0.2,0-0.3,0.1,0,0c0.1,0,0.2-0.1,0.4-0.1c0.3-0.1,0.5-0.2,0.8-0.2
					c0.3-0.1,0.5-0.1,0.8-0.2c-0.2,0-0.3,0,0,0c0.1,0,0.3,0,0.4,0c0.1,0,0.3,0.1,0.4,0c-0.1,0-0.5-0.1-0.1,0
					c0.4,0.1,0.9,0.1,1.4,0.2c0.1,0,0.5,0.1,0.1,0c-0.4-0.1,0,0,0.1,0c0.2,0,0.5,0.1,0.7,0.1c0.5,0.1,1,0.3,1.4,0.4
					c0.1,0,0.5,0.2,0.1,0c-0.3-0.1,0.1,0,0.1,0.1c0.2,0.1,0.4,0.2,0.6,0.3c0.2,0.1,0.4,0.2,0.6,0.4c0.3,0.2-0.3-0.3-0.1-0.1
					c0.1,0.1,0.2,0.2,0.3,0.3c1,0.9,2.6,1,3.5,0c0.9-1,1-2.6,0-3.5c-1.9-1.8-4.7-2.7-7.3-3c-0.1,0-0.5-0.1-0.2,0
					c0.4,0.1-0.2,0-0.2,0c-0.4-0.1-0.9-0.1-1.3-0.2c-0.8,0-1.6,0.1-2.4,0.3c-1.4,0.3-2.7,1-4,1.6c-1.2,0.5-1.6,2.4-0.9,3.4
					C209.4,221.4,210.7,221.7,212,221.1L212,221.1z"/>
			</g>
		</g>
		<g>
			<g>
				<path class="st3" d="M340.1,220.4c5.8-5.3,12-10.2,18.5-14.6c1.1-0.8,1.6-2.2,0.9-3.4c-0.6-1.1-2.3-1.7-3.4-0.9
					c-6.8,4.7-13.4,9.8-19.5,15.4c-1,0.9-0.9,2.6,0,3.5C337.6,221.4,339.1,221.3,340.1,220.4L340.1,220.4z"/>
			</g>
		</g>
		<g>
			<g>
				<path class="st3" d="M96.2,212.8c-6.1-5.6-12.7-10.7-19.5-15.4c-1.1-0.8-2.8-0.2-3.4,0.9c-0.7,1.2-0.2,2.7,0.9,3.4
					c6.5,4.4,12.7,9.3,18.5,14.6c1,0.9,2.5,1,3.5,0C97.1,215.4,97.2,213.7,96.2,212.8L96.2,212.8z"/>
			</g>
		</g>
		<g>
			<path class="st10" d="M187.9,278.1l-79.5-2.3c-9.2-0.3-16.4-8-16.2-17.1l2.3-79.5c0.3-9.2,8-16.4,17.1-16.2l79.5,2.3
				c9.2,0.3,16.4,8,16.2,17.1l-2.3,79.5C204.8,271.1,197.1,278.4,187.9,278.1z"/>
			<g class="st11">
				<g>
					<path class="st12" d="M136.8,227.9c8.5-9.8,17.6-19,27.2-27.7c2.4-2.2-1.1-5.7-3.5-3.5c-9.6,8.6-18.7,17.9-27.2,27.7
						c-0.9,1-1,2.5,0,3.5C134.2,228.8,135.9,229,136.8,227.9L136.8,227.9z"/>
				</g>
			</g>
			<g class="st11">
				<g>
					<path class="st12" d="M149.8,240c0.2-0.3,0.4-0.6,0.6-0.8c0.1-0.1,0.2-0.2,0.3-0.3c0,0,0.4-0.5,0.2-0.3
						c-0.2,0.2,0.2-0.3,0.2-0.3c0.1-0.1,0.2-0.2,0.3-0.3c0.2-0.3,0.4-0.5,0.6-0.8c0.9-1.1,1.8-2.2,2.8-3.3c1.8-2.1,3.7-4.1,5.7-5.9
						c1-0.9,1-2.7,0-3.5c-1.1-1-2.5-0.9-3.5,0c-4.4,3.8-8,8.5-11.5,13.1c-0.8,1-0.2,2.8,0.9,3.4C147.7,241.6,148.9,241.1,149.8,240
						L149.8,240z"/>
				</g>
			</g>
		</g>
		<g>
			<path class="st10" d="M318.8,280.9l-79.5-2.3c-9.2-0.3-16.4-8-16.2-17.1l2.3-79.5c0.3-9.2,8-16.4,17.1-16.2L322,168
				c9.2,0.3,16.4,8,16.2,17.1l-2.3,79.5C335.6,273.8,327.9,281.1,318.8,280.9z"/>
			<g class="st11">
				<g>
					<path class="st12" d="M267.6,230.7c8.5-9.8,17.6-19,27.2-27.7c2.4-2.2-1.1-5.7-3.5-3.5c-9.6,8.6-18.7,17.9-27.2,27.7
						c-0.9,1-1,2.5,0,3.5C265,231.6,266.7,231.7,267.6,230.7L267.6,230.7z"/>
				</g>
			</g>
			<g class="st11">
				<g>
					<path class="st12" d="M280.6,242.7c0.2-0.3,0.4-0.6,0.6-0.8c0.1-0.1,0.2-0.2,0.3-0.3c0,0,0.4-0.5,0.2-0.3
						c-0.2,0.2,0.2-0.3,0.2-0.3c0.1-0.1,0.2-0.2,0.3-0.3c0.2-0.3,0.4-0.5,0.6-0.8c0.9-1.1,1.8-2.2,2.8-3.3c1.8-2.1,3.7-4.1,5.7-5.9
						c1-0.9,1-2.7,0-3.5c-1.1-1-2.5-0.9-3.5,0c-4.4,3.8-8,8.5-11.5,13.1c-0.8,1-0.2,2.8,0.9,3.4
						C278.5,244.3,279.7,243.9,280.6,242.7L280.6,242.7z"/>
				</g>
			</g>
		</g>
	</g>
</g>
</svg>
