<?xml version="1.0" encoding="utf-8"?>
<!-- Generator: Adobe Illustrator 24.1.2, SVG Export Plug-In . SVG Version: 6.00 Build 0)  -->
<svg version="1.1" id="Layer_1" xmlns="http://www.w3.org/2000/svg" xmlns:xlink="http://www.w3.org/1999/xlink" x="0px" y="0px"
	 viewBox="0 0 436.9 405.1" style="enable-background:new 0 0 436.9 405.1;" xml:space="preserve">
<style type="text/css">
	.st0{fill:url(#SVGID_1_);}
	.st1{fill:#BDDFF6;}
	.st2{fill:#010101;}
	.st3{fill:#231F20;}
	.st4{fill:#BE202E;}
	.st5{fill:#AC1F29;}
	.st6{fill:#FFFFFF;stroke:#FFFFFF;stroke-miterlimit:10;}
	.st7{fill:#3077BB;}
	.st8{fill:#231F20;stroke:#231F20;stroke-miterlimit:10;}
	.st9{fill:#00729F;}
	.st10{fill:#9EDAE6;fill-opacity:0.43;stroke:#231F20;stroke-width:8;stroke-miterlimit:10;}
	.st11{opacity:0.75;}
	.st12{fill:#BEE4ED;}
	.st13{fill:url(#SVGID_2_);}
	.st14{fill:url(#SVGID_3_);}
	.st15{fill:url(#SVGID_4_);}
	.st16{fill:url(#SVGID_5_);}
	.st17{fill:url(#SVGID_6_);}
	.st18{fill:url(#SVGID_7_);}
	.st19{fill:url(#SVGID_8_);}
	.st20{fill:#6FCCD8;}
	.st21{fill:url(#SVGID_9_);}
	.st22{fill:#FFFFFF;}
	.st23{fill:url(#SVGID_10_);}
	.st24{fill:url(#SVGID_11_);}
	.st25{fill:url(#SVGID_12_);}
	.st26{fill:url(#SVGID_13_);}
	.st27{fill:url(#SVGID_14_);}
	.st28{fill:url(#SVGID_15_);}
	.st29{fill:#774098;}
	.st30{fill:#6A2F8F;}
	.st31{fill:#774098;stroke:#6A2F8F;stroke-width:2;stroke-miterlimit:10;}
	.st32{opacity:0.15;}
	.st33{filter:url(#Adobe_OpacityMaskFilter);}
	.st34{mask:url(#SVGID_16_);}
	.st35{fill:#F15E6D;}
	.st36{filter:url(#Adobe_OpacityMaskFilter_1_);}
	.st37{mask:url(#SVGID_17_);}
	.st38{fill:url(#SVGID_18_);}
	.st39{filter:url(#Adobe_OpacityMaskFilter_2_);}
	.st40{mask:url(#SVGID_19_);}
	.st41{filter:url(#Adobe_OpacityMaskFilter_3_);}
	.st42{mask:url(#SVGID_20_);}
	.st43{fill:url(#SVGID_21_);}
	.st44{filter:url(#Adobe_OpacityMaskFilter_4_);}
	.st45{mask:url(#SVGID_22_);}
	.st46{filter:url(#Adobe_OpacityMaskFilter_5_);}
	.st47{mask:url(#SVGID_23_);}
	.st48{fill:url(#SVGID_24_);}
	.st49{filter:url(#Adobe_OpacityMaskFilter_6_);}
	.st50{mask:url(#SVGID_25_);}
	.st51{filter:url(#Adobe_OpacityMaskFilter_7_);}
	.st52{mask:url(#SVGID_26_);}
	.st53{fill:url(#SVGID_27_);}
	.st54{filter:url(#Adobe_OpacityMaskFilter_8_);}
	.st55{mask:url(#SVGID_28_);}
	.st56{filter:url(#Adobe_OpacityMaskFilter_9_);}
	.st57{mask:url(#SVGID_29_);}
	.st58{fill:url(#SVGID_30_);}
	.st59{filter:url(#Adobe_OpacityMaskFilter_10_);}
	.st60{mask:url(#SVGID_31_);}
	.st61{filter:url(#Adobe_OpacityMaskFilter_11_);}
	.st62{mask:url(#SVGID_32_);}
	.st63{fill:url(#SVGID_33_);}
	.st64{filter:url(#Adobe_OpacityMaskFilter_12_);}
	.st65{mask:url(#SVGID_34_);}
	.st66{filter:url(#Adobe_OpacityMaskFilter_13_);}
	.st67{mask:url(#SVGID_35_);}
	.st68{fill:url(#SVGID_36_);}
	.st69{filter:url(#Adobe_OpacityMaskFilter_14_);}
	.st70{mask:url(#SVGID_37_);}
	.st71{filter:url(#Adobe_OpacityMaskFilter_15_);}
	.st72{mask:url(#SVGID_38_);}
	.st73{fill:url(#SVGID_39_);}
	.st74{filter:url(#Adobe_OpacityMaskFilter_16_);}
	.st75{mask:url(#SVGID_40_);}
	.st76{filter:url(#Adobe_OpacityMaskFilter_17_);}
	.st77{mask:url(#SVGID_41_);}
	.st78{fill:url(#SVGID_42_);}
	.st79{filter:url(#Adobe_OpacityMaskFilter_18_);}
	.st80{mask:url(#SVGID_43_);}
	.st81{filter:url(#Adobe_OpacityMaskFilter_19_);}
	.st82{mask:url(#SVGID_44_);}
	.st83{fill:url(#SVGID_45_);}
	.st84{filter:url(#Adobe_OpacityMaskFilter_20_);}
	.st85{mask:url(#SVGID_46_);}
	.st86{filter:url(#Adobe_OpacityMaskFilter_21_);}
	.st87{mask:url(#SVGID_47_);}
	.st88{fill:url(#SVGID_48_);}
	.st89{filter:url(#Adobe_OpacityMaskFilter_22_);}
	.st90{mask:url(#SVGID_49_);}
	.st91{filter:url(#Adobe_OpacityMaskFilter_23_);}
	.st92{mask:url(#SVGID_50_);}
	.st93{fill:url(#SVGID_51_);}
	.st94{filter:url(#Adobe_OpacityMaskFilter_24_);}
	.st95{mask:url(#SVGID_52_);}
	.st96{filter:url(#Adobe_OpacityMaskFilter_25_);}
	.st97{mask:url(#SVGID_53_);}
	.st98{fill:url(#SVGID_54_);}
	.st99{filter:url(#Adobe_OpacityMaskFilter_26_);}
	.st100{mask:url(#SVGID_55_);}
	.st101{filter:url(#Adobe_OpacityMaskFilter_27_);}
	.st102{mask:url(#SVGID_56_);}
	.st103{fill:url(#SVGID_57_);}
	.st104{fill:#1B191D;}
	.st105{fill:#1B191D;stroke:#00729F;stroke-width:4;stroke-miterlimit:10;}
	.st106{fill:#FAAF43;}
	.st107{fill:url(#SVGID_58_);}
	.st108{fill:url(#SVGID_59_);}
	.st109{fill:url(#SVGID_60_);}
	.st110{fill:url(#SVGID_61_);}
	.st111{fill:url(#SVGID_62_);}
	.st112{fill:url(#SVGID_63_);}
	.st113{fill:url(#SVGID_64_);}
	.st114{fill:url(#SVGID_65_);}
	.st115{fill:url(#SVGID_66_);}
	.st116{fill:url(#SVGID_67_);}
	.st117{fill:url(#SVGID_68_);}
	.st118{fill:url(#SVGID_69_);}
	.st119{fill:url(#SVGID_70_);}
	.st120{fill:url(#SVGID_71_);}
	.st121{fill:url(#SVGID_72_);}
	.st122{filter:url(#Adobe_OpacityMaskFilter_28_);}
	.st123{mask:url(#SVGID_73_);}
	.st124{filter:url(#Adobe_OpacityMaskFilter_29_);}
	.st125{mask:url(#SVGID_74_);}
	.st126{fill:url(#SVGID_75_);}
</style>
<g>
	
		<radialGradient id="SVGID_1_" cx="286.5934" cy="251.7683" r="136.4529" gradientTransform="matrix(1.043 0 0 0.9472 -85.205 -10.9887)" gradientUnits="userSpaceOnUse">
		<stop  offset="0" style="stop-color:#A8DCDB"/>
		<stop  offset="0.7847" style="stop-color:#BDDFF6"/>
	</radialGradient>
	<path class="st0" d="M350.5,218c0,77.6-53.8,143.3-139.2,143.3S76.9,295.6,76.9,218S125.8,93.1,211.3,93.1S350.5,140.3,350.5,218z"
		/>
	<g>
		<path class="st1" d="M136,333.9c-4,8.2-8.1,16.3-12.1,24.5c-1.3,2.7-2.7,5.5-3,8.5c-0.6,5.7,2.8,11.2,7.4,14.5
			c4.6,3.4,10.2,4.9,15.8,6.1c7.5,1.6,16.2,2.2,21.9-3c2.9-2.6,4.5-6.4,5.9-10.1c2.5-6.9,4.4-13.9,5.8-21.1L136,333.9z"/>
		<g>
			<path class="st1" d="M134.9,333.3c-4.4,8.8-9,17.6-13.1,26.5c-1.8,3.8-2.9,7.8-1.8,12c0.9,3.7,3.2,7.1,6.1,9.6
				c6.2,5.3,15,7.3,22.8,8.2c7.5,0.9,15.5-0.3,20.2-6.8c2.8-3.9,4.3-8.9,5.7-13.4c1.6-5.2,2.9-10.4,3.9-15.7
				c0.1-0.5-0.1-1.2-0.6-1.4c-4.7-2.2-9.3-4.4-14-6.5c-7.5-3.5-14.9-6.9-22.4-10.4c-1.7-0.8-3.5-1.6-5.2-2.4
				c-1.4-0.7-2.7,1.5-1.3,2.2c4.7,2.2,9.3,4.4,14,6.5c7.5,3.5,14.9,6.9,22.4,10.4c1.7,0.8,3.5,1.6,5.2,2.4c-0.2-0.5-0.4-0.9-0.6-1.4
				c-0.8,4.3-1.8,8.5-3,12.7c-1.2,4-2.4,8.1-4.1,11.9c-1.5,3.4-3.7,6.3-7.1,8c-3.1,1.5-6.7,1.8-10.1,1.7c-3.7-0.2-7.3-0.9-10.8-1.7
				c-3.8-0.9-7.6-2.2-11-4.3c-3.1-2-5.8-4.7-7.2-8.2c-1.6-3.8-1.1-7.6,0.5-11.2c2-4.5,4.4-8.9,6.6-13.3c2.3-4.7,4.6-9.3,7-14
				C137.8,333.1,135.6,331.9,134.9,333.3z"/>
		</g>
	</g>
	<g>
		<path class="st1" d="M224.2,338.8c-1.8,8.9-3.5,17.9-5.3,26.8c-0.6,3-1.2,6-0.7,9c0.9,5.6,5.6,10,10.9,12.1s11.2,2.1,16.8,1.7
			c7.6-0.5,16.2-2.2,20.4-8.6c2.1-3.3,2.7-7.4,3-11.3c0.6-7.3,0.6-14.6,0-21.9L224.2,338.8z"/>
		<g>
			<path class="st1" d="M223,338.4c-1,5-1.9,9.9-2.9,14.9c-0.9,4.8-2,9.7-2.8,14.5c-0.7,4.2-0.6,8.3,1.7,12c1.9,3.1,4.8,5.5,8,7.1
				c7.4,3.6,16.7,3.2,24.7,2c7.1-1.1,14.3-4.1,17.2-11.2c1.9-4.5,2-9.7,2.2-14.5c0.2-5.6,0.1-11.2-0.3-16.8c0-0.5-0.4-1.1-0.9-1.2
				c-5.1-0.9-10.2-1.7-15.2-2.6c-8.1-1.4-16.2-2.8-24.3-4.2c-1.9-0.3-3.8-0.6-5.6-1c-1.6-0.3-2.2,2.1-0.7,2.4
				c5.1,0.9,10.2,1.7,15.2,2.6c8.1,1.4,16.2,2.8,24.3,4.2c1.9,0.3,3.8,0.6,5.6,1c-0.3-0.4-0.6-0.8-0.9-1.2c0.4,4.5,0.5,9.1,0.4,13.6
				c-0.1,4.2-0.2,8.6-1,12.8c-0.7,3.6-2.2,6.9-5,9.2c-2.6,2.1-5.8,3.2-9,3.9c-3.4,0.8-7,1-10.5,1.1c-4.1,0.1-8.3-0.1-12.3-1.3
				c-3.3-1.1-6.5-3-8.7-5.8c-2.5-3.1-3.1-6.7-2.6-10.6c0.6-5,1.9-10.1,2.9-15.1c1-5.1,2-10.2,3-15.4
				C225.8,337.5,223.3,336.9,223,338.4z"/>
		</g>
	</g>
	<g>
		<g>
			<g>
				<path class="st3" d="M189,81.5c2.4,3.5,4.3,7.6,6.2,11.4c1.1,2.3,2.2,4.6,3.2,7c0.7,1.6,1.4,3.3,1.7,5c0.3,1.6,2.7,0.9,2.4-0.7
					c-0.3-1.8-1.1-3.5-1.7-5.1c-1-2.4-2.1-4.8-3.3-7.2c-1.9-3.9-3.8-8.1-6.3-11.7C190.2,78.9,188.1,80.1,189,81.5L189,81.5z"/>
			</g>
		</g>
		<g>
			<g>
				<path class="st3" d="M203.1,76.5c1,9.2,1.8,18.5,2.8,27.7c0.2,1.6,2.7,1.6,2.5,0c-1-9.2-1.8-18.5-2.8-27.7
					C205.4,75,202.9,74.9,203.1,76.5L203.1,76.5z"/>
			</g>
		</g>
		<g>
			<g>
				<path class="st3" d="M214.7,103.5c-0.4-1.5,0-3.4,0.2-4.9c0.4-2.5,1-4.9,1.8-7.4c0.7-2.4,1.5-4.8,2.5-7.2
					c0.6-1.6,1.3-3.2,2.3-4.6c1-1.3-1.2-2.5-2.2-1.3c-1.2,1.5-1.9,3.4-2.6,5.2c-1,2.4-1.8,4.9-2.5,7.5c-0.7,2.5-1.4,5-1.8,7.6
					c-0.3,1.9-0.6,3.9-0.1,5.8C212.7,105.8,215.1,105.1,214.7,103.5L214.7,103.5z"/>
			</g>
		</g>
	</g>
	<g>
		<path class="st1" d="M100.7,282.5c-5.7,7.1-11.5,14.1-17.2,21.2c-1.9,2.3-3.8,4.7-5.1,7.4c-2.3,5-1.7,9.9,0.6,13
			c2.3,3.1,5.9,4.7,9.7,5.8c5,1.6,11.3,2.4,17.2-1.9c3.1-2.2,5.5-5.5,7.8-8.7c4.2-6,8-12.2,11.4-18.4L100.7,282.5z"/>
		<g>
			<path class="st1" d="M99.8,281.7c-5.5,6.8-11,13.5-16.5,20.3c-2.5,3.1-5.1,6.1-6.6,9.8c-1.3,3.4-1.6,7.3-0.2,10.8
				c2.5,6.1,9.8,8.8,15.8,9.8c3.3,0.5,6.7,0.4,9.8-0.8c3.6-1.4,6.5-3.9,8.9-6.8c2.8-3.4,5.3-7.2,7.7-11c2.5-4,4.9-8,7.2-12.1
				c0.4-0.6,0.1-1.3-0.4-1.7c-7.1-5.4-14.2-10.7-21.3-16.1c-1-0.8-2-1.5-3-2.3c-1.3-1-2.5,1.2-1.3,2.2c7.1,5.4,14.2,10.7,21.3,16.1
				c1,0.8,2,1.5,3,2.3c-0.1-0.6-0.3-1.1-0.4-1.7c-3.6,6.6-7.5,13-11.9,19.2c-2,2.9-4.3,5.8-7.2,7.9c-2.7,1.9-5.8,2.8-9.1,2.8
				c-3,0-5.9-0.9-8.7-1.9c-2.9-1-5.8-2.6-7.5-5.2c-1.8-2.9-1.8-6.5-0.8-9.7c1.1-3.4,3.6-6.3,5.8-9c5.6-6.9,11.3-13.9,16.9-20.8
				C102.6,282.2,100.8,280.4,99.8,281.7z"/>
		</g>
	</g>
	<g>
		<path class="st1" d="M331.1,286.1c5.1,7.5,10.3,15,15.4,22.6c1.7,2.5,3.4,5,4.5,7.8c1.9,5.1,0.9,10-1.7,12.9s-6.3,4.2-10.1,5
			c-5.2,1.2-11.5,1.5-17-3.3c-2.9-2.5-5-6-7-9.3c-3.7-6.3-6.9-12.8-9.8-19.3L331.1,286.1z"/>
		<g>
			<path class="st1" d="M330,286.7c4.6,6.7,9.2,13.4,13.8,20.1c3.8,5.6,9.1,12.2,6.1,19.3c-1.2,2.9-3.8,4.8-6.7,5.9
				c-2.7,1-5.8,1.7-8.7,1.9c-3.1,0.2-6.1-0.4-8.8-1.9c-3.1-1.8-5.4-4.6-7.3-7.5c-4.6-7.1-8.5-14.9-11.9-22.7
				c-0.1,0.6-0.3,1.1-0.4,1.7c7.5-4.8,15-9.5,22.5-14.3c1.1-0.7,2.1-1.4,3.2-2c1.4-0.9,0.1-3-1.3-2.2c-7.5,4.8-15,9.5-22.5,14.3
				c-1.1,0.7-2.1,1.4-3.2,2c-0.6,0.4-0.7,1.1-0.4,1.7c3.3,7.5,7,15,11.4,22c2,3.2,4.3,6.2,7.5,8.4c2.8,1.9,6.1,2.9,9.5,3
				c3.2,0.1,6.4-0.5,9.4-1.4c3.2-1,6.4-2.5,8.5-5.2c2-2.6,2.8-6,2.5-9.2c-0.3-3.9-2.2-7.4-4.3-10.6c-5.4-8.2-11.1-16.3-16.7-24.4
				C331.3,284.1,329.1,285.4,330,286.7z"/>
		</g>
	</g>
	<g>
		<circle class="st6" cx="154.7" cy="206" r="47.1"/>
		<circle class="st7" cx="147.1" cy="202.5" r="30.7"/>
		<circle class="st8" cx="147.1" cy="203.1" r="24"/>
		<path class="st1" d="M105.6,192.7c0-24.8,21.8-44.9,48.8-44.9s48.8,20.1,48.8,44.9"/>
	</g>
	<g>
		<circle class="st6" cx="274.7" cy="209.1" r="47.1"/>
		<circle class="st7" cx="266.7" cy="200" r="30.7"/>
		<circle class="st8" cx="266.7" cy="200.5" r="24"/>
		<path class="st1" d="M225.9,192.7c0-24.8,21.8-44.9,48.8-44.9s48.8,20.1,48.8,44.9"/>
	</g>
	<g>
		<g>
			<path class="st1" d="M161.5,110.5c-0.1-3.8-0.3-7.6-0.4-11.4c0-1.3-0.1-2.5-0.4-3.7c-0.6-2.2-2.2-3.6-3.8-3.9
				c-1.6-0.4-3.1,0.2-4.6,0.8c-2,0.9-4.2,2.3-4.9,5.3c-0.3,1.5-0.2,3.2,0,4.9c0.3,3,0.8,6,1.5,8.9L161.5,110.5z"/>
			<g>
				<path class="st1" d="M162.7,110.5c-0.1-3.9-0.3-7.8-0.4-11.7c-0.1-3-0.7-6.2-3.6-7.9c-2.7-1.6-6.2-0.4-8.7,1.2
					c-2.6,1.6-4,4.2-4.1,7.3c-0.1,2,0.3,4.1,0.5,6.1c0.3,2.1,0.7,4.2,1.2,6.3c0.1,0.5,0.7,1,1.2,0.9c4.2-0.3,8.4-0.6,12.7-0.9
					c1.6-0.1,1.6-2.6,0-2.5c-4.2,0.3-8.4,0.6-12.7,0.9c0.4,0.3,0.8,0.6,1.2,0.9c-0.4-2-0.8-3.9-1.1-5.9c-0.3-1.9-0.6-3.9-0.5-5.8
					c0.1-3.3,2.4-5.3,5.4-6.3c1.5-0.5,3.1-0.6,4.3,0.5c1.3,1.2,1.5,2.9,1.6,4.6c0.2,4.1,0.3,8.3,0.4,12.4
					C160.3,112.1,162.8,112.1,162.7,110.5z"/>
			</g>
		</g>
		<g>
			<path class="st9" d="M159.4,111.8c-0.1-2.8-0.2-5.6-0.3-8.4c0-0.9-0.1-1.9-0.3-2.7c-0.5-1.6-1.6-2.6-2.7-2.9
				c-1.1-0.3-2.3,0.1-3.3,0.6c-1.5,0.6-3,1.7-3.5,3.9c-0.2,1.1-0.2,2.4,0,3.6c0.2,2.2,0.6,4.4,1.1,6.6L159.4,111.8z"/>
			<g>
				<path class="st9" d="M160.7,111.8c-0.1-2.9-0.2-5.8-0.3-8.7c-0.1-2.3-0.6-4.8-2.8-6.1c-2.1-1.2-4.7-0.4-6.6,0.9
					c-2,1.3-3,3.3-3.1,5.6c-0.1,1.5,0.2,3.1,0.4,4.6c0.2,1.6,0.5,3.1,0.8,4.6c0.1,0.5,0.7,1,1.2,0.9c3-0.2,6.1-0.4,9.1-0.6
					c1.6-0.1,1.6-2.6,0-2.5c-3,0.2-6.1,0.4-9.1,0.6c0.4,0.3,0.8,0.6,1.2,0.9c-0.6-2.8-1.3-5.8-1.2-8.6c0.1-2.3,1.6-3.6,3.6-4.3
					c1-0.3,2-0.5,2.8,0.3c0.9,0.8,1,2,1.1,3.1c0.2,3.1,0.2,6.1,0.3,9.2C158.2,113.5,160.7,113.5,160.7,111.8z"/>
			</g>
		</g>
	</g>
	<g>
		<g>
			<path class="st1" d="M255.1,112.5c0.1-3.8,0.3-7.6,0.4-11.4c0-1.3,0.1-2.5,0.4-3.7c0.6-2.2,2.2-3.6,3.8-3.9s3.1,0.2,4.6,0.8
				c2,0.9,4.2,2.3,4.9,5.3c0.3,1.5,0.2,3.2,0,4.9c-0.3,3-0.8,6-1.5,8.9L255.1,112.5z"/>
			<g>
				<path class="st1" d="M256.4,112.5c0.1-4.1,0.2-8.3,0.4-12.4c0.1-1.7,0.4-3.4,1.6-4.6c1.2-1.2,2.8-1,4.3-0.5c3,1,5.3,3,5.4,6.3
					c0.1,1.9-0.2,3.9-0.5,5.8c-0.3,2-0.7,3.9-1.1,5.9c0.4-0.3,0.8-0.6,1.2-0.9c-4.2-0.3-8.4-0.6-12.7-0.9c-1.6-0.1-1.6,2.4,0,2.5
					c4.2,0.3,8.4,0.6,12.7,0.9c0.5,0,1.1-0.4,1.2-0.9c0.8-3.6,1.5-7.3,1.7-11c0.2-3.1-0.7-6.1-3.2-8.1c-2.3-1.8-5.8-3.3-8.6-2.2
					c-2.9,1.1-4.2,4-4.5,7c-0.4,4.3-0.3,8.8-0.5,13.1C253.8,114.1,256.3,114.1,256.4,112.5z"/>
			</g>
		</g>
		<g>
			<path class="st9" d="M257.2,113.8c0.1-2.8,0.2-5.6,0.3-8.4c0-0.9,0.1-1.9,0.3-2.7c0.5-1.6,1.6-2.6,2.7-2.9
				c1.1-0.3,2.3,0.1,3.3,0.6c1.5,0.6,3,1.7,3.5,3.9c0.2,1.1,0.2,2.4,0,3.6c-0.2,2.2-0.6,4.4-1.1,6.6L257.2,113.8z"/>
			<g>
				<path class="st9" d="M258.4,113.8c0.1-3.1,0.2-6.1,0.3-9.2c0.1-1.1,0.2-2.3,1.1-3.1c0.8-0.8,1.8-0.7,2.8-0.3
					c2,0.7,3.5,2.1,3.6,4.3c0.1,2.8-0.5,5.8-1.2,8.6c0.4-0.3,0.8-0.6,1.2-0.9c-3-0.2-6.1-0.4-9.1-0.6c-1.6-0.1-1.6,2.4,0,2.5
					c3,0.2,6.1,0.4,9.1,0.6c0.5,0,1.1-0.4,1.2-0.9c0.6-2.7,1.1-5.5,1.2-8.2c0.1-2.4-0.5-4.6-2.4-6.2c-1.7-1.4-4.4-2.5-6.6-1.7
					c-2.3,0.9-3.3,3.2-3.5,5.5c-0.3,3.2-0.2,6.5-0.4,9.7C255.9,115.4,258.4,115.4,258.4,113.8z"/>
			</g>
		</g>
	</g>
	<g>
		<g>
			<path class="st3" d="M196.2,321.4c0.4-2.8,2.6-4.6,4.9-6c2.2-1.3,4.3-1.9,6.9-1.5c4.4,0.6,8.6,3.9,9.6,8.4
				c0.7,3.1,5.5,1.8,4.8-1.3c-1.5-6.7-7.8-11.4-14.5-12.1c-3.4-0.4-6.7,0.6-9.6,2.3c-3.2,1.9-6.4,5-7,8.9c-0.2,1.3,0.3,2.7,1.7,3.1
				C194.3,323.5,196,322.8,196.2,321.4L196.2,321.4z"/>
		</g>
	</g>
	<g>
		<g>
			<path class="st20" d="M270.2,137.5c0,0.7,0.3,1.4,0.9,1.9c0.5,0.4,1.5,1,2.1,1.1c1.4,0.3,2.7-0.3,3.7-1.4c0.4-0.5,0.9-1.6,1-2.2
				c0.2-0.7,0-1.5-0.5-2.1c-1.6-1.9-3.9-3-5.6-4.8C271.9,130.2,270.4,135.1,270.2,137.5z"/>
			<g>
				<path class="st20" d="M269,137.5c0,1.8,1.2,3.1,2.8,3.8c1.6,0.8,3.4,0.7,4.8-0.2c1.3-0.9,2.3-2.2,2.6-3.8
					c0.2-0.9,0.1-1.9-0.4-2.7c-0.4-0.7-1.1-1.3-1.7-1.8c-1.4-1.2-3-2.2-4.3-3.5c-0.7-0.7-1.8-0.3-2.1,0.6
					C269.9,132.3,269.1,134.9,269,137.5c0,0.7,0.6,1.2,1.2,1.2c0.7,0,1.2-0.6,1.2-1.2c0-0.2,0-0.3,0-0.5c0-0.1,0-0.2,0-0.1
					c0-0.1,0-0.2,0-0.2c0.1-0.4,0.1-0.8,0.2-1.1c0.2-0.8,0.4-1.6,0.6-2.4c0.2-0.9,0.5-1.8,0.8-2.7c-0.7,0.2-1.4,0.4-2.1,0.6
					c1.2,1.2,2.6,2.1,3.9,3.1c0.6,0.5,1.4,1,1.7,1.7c0.3,0.5,0.2,0.9,0,1.5c-0.4,1.1-1.4,2.1-2.7,2.1c-0.6,0-1.1-0.3-1.6-0.6
					c-0.4-0.3-0.8-0.6-0.8-1.2C271.5,135.9,269,135.9,269,137.5z"/>
			</g>
		</g>
		<g>
			<path class="st20" d="M303.4,150.5c0,0.1,0,0.3,0.1,0.4c0.1,0.1,0.2,0.2,0.3,0.3c0.2,0.1,0.5,0.1,0.7-0.1
				c0.1-0.1,0.2-0.2,0.3-0.3c0.1-0.1,0.1-0.3,0-0.4c-0.2-0.4-0.6-0.7-0.8-1.1C304,149.3,303.5,150.1,303.4,150.5z"/>
			<g>
				<path class="st20" d="M302.2,150.2c-0.2,0.6,0.1,1.3,0.6,1.8c0.2,0.2,0.5,0.4,0.8,0.5c0.3,0.1,0.7,0.1,1,0
					c0.2,0,0.3-0.1,0.5-0.2c0.1-0.1,0.3-0.2,0.4-0.3c0,0,0.1-0.1,0.1-0.1c0.1-0.1,0.2-0.2,0.3-0.4c0.1-0.1,0.1-0.3,0.2-0.4
					c0,0,0-0.1,0-0.1c0-0.1,0.1-0.3,0-0.4c0-0.3-0.1-0.7-0.3-0.9c-0.2-0.3-0.5-0.6-0.7-0.9c0.1,0.1,0.1,0.2,0.2,0.3
					c-0.1-0.1-0.1-0.2-0.2-0.2c-0.2-0.4-0.6-0.6-1.1-0.6c-0.4,0-0.9,0.2-1.1,0.6c-0.1,0.2-0.2,0.3-0.3,0.5
					C302.5,149.5,302.3,149.8,302.2,150.2c-0.1,0.3,0,0.7,0.1,1c0.2,0.3,0.4,0.5,0.7,0.6c0.3,0.1,0.7,0.1,1-0.1
					c0.3-0.2,0.5-0.4,0.6-0.7c0-0.1,0.1-0.2,0.1-0.3c0,0.1-0.1,0.2-0.1,0.3c0.1-0.3,0.3-0.7,0.5-1c-0.7,0-1.4,0-2.2,0
					c0.2,0.4,0.5,0.7,0.8,1c-0.1-0.1-0.1-0.2-0.2-0.3c0.1,0.1,0.2,0.2,0.2,0.4c0-0.1-0.1-0.2-0.1-0.3c0,0,0,0.1,0,0.1
					c0-0.1,0-0.2,0-0.3c0,0,0,0.1,0,0.1c0-0.1,0-0.2,0-0.3c0,0,0,0.1,0,0.1c0-0.1,0.1-0.2,0.1-0.3c0,0.1-0.1,0.2-0.1,0.2
					c0.1-0.1,0.1-0.2,0.2-0.3c0,0-0.1,0.1-0.1,0.1c0.1-0.1,0.2-0.1,0.3-0.2c-0.1,0-0.1,0.1-0.2,0.1c0.1,0,0.2-0.1,0.3-0.1
					c-0.1,0-0.1,0-0.2,0.1c0.1,0,0.2,0,0.3,0c-0.1,0-0.1,0-0.2,0c0.1,0,0.2,0,0.3,0c-0.1,0-0.1,0-0.2-0.1c0.1,0,0.2,0.1,0.3,0.1
					c0,0-0.1-0.1-0.1-0.1c0.1,0.1,0.2,0.1,0.3,0.2c-0.1-0.1-0.1-0.1-0.2-0.2c0.1,0.1,0.1,0.2,0.2,0.3c0,0-0.1-0.1-0.1-0.1
					c0,0.1,0.1,0.2,0.1,0.3c0,0,0-0.1,0-0.1c0,0.1,0,0.2,0,0.3c0,0,0-0.1,0-0.1c0,0.1,0,0.2,0,0.3c0,0,0,0,0-0.1
					c0.1-0.3,0-0.7-0.1-1c-0.2-0.3-0.4-0.5-0.7-0.6c-0.3-0.1-0.7-0.1-1,0.1C302.5,149.6,302.3,149.9,302.2,150.2z"/>
			</g>
		</g>
		<g>
			<path class="st20" d="M250.9,158.9c-0.1,0.1-0.1,0.2-0.1,0.4c0,0.1,0.1,0.3,0.2,0.4c0.2,0.2,0.4,0.3,0.7,0.2
				c0.1,0,0.3-0.1,0.4-0.2c0.1-0.1,0.2-0.2,0.2-0.3c0-0.4-0.2-0.9-0.3-1.3C252,158,251.2,158.6,250.9,158.9z"/>
			<g>
				<path class="st20" d="M250,158c-0.2,0.2-0.3,0.4-0.4,0.7c-0.1,0.2-0.1,0.3-0.1,0.5c0,0.4,0.1,0.6,0.3,0.9c0,0.1,0.1,0.1,0.1,0.2
					c0.2,0.3,0.3,0.4,0.6,0.6c0.1,0.1,0.3,0.1,0.4,0.2c0.1,0,0.2,0.1,0.3,0.1c0.1,0,0.2,0,0.3,0c0.1,0,0.3,0,0.4-0.1
					c0,0,0.1,0,0.1,0c0.2-0.1,0.4-0.2,0.6-0.3c0.3-0.2,0.4-0.3,0.5-0.5c0,0,0-0.1,0.1-0.1c0.1-0.1,0.1-0.2,0.2-0.4
					c0-0.1,0-0.3,0.1-0.4c0,0,0-0.1,0-0.1c0-0.2,0-0.4-0.1-0.5c-0.1-0.4-0.2-0.7-0.3-1c-0.1-0.2-0.2-0.4-0.3-0.6
					c-0.1-0.1-0.2-0.2-0.4-0.3c-0.1-0.1-0.3-0.1-0.5-0.1c-0.2,0-0.4,0.1-0.6,0.2c-0.2,0.2-0.4,0.3-0.7,0.5
					C250.4,157.6,250.2,157.8,250,158c-0.1,0.1-0.2,0.2-0.3,0.4c-0.1,0.1-0.1,0.3-0.1,0.5c0,0.3,0.1,0.7,0.4,0.9
					c0.2,0.2,0.6,0.4,0.9,0.4c0.3,0,0.7-0.1,0.9-0.4c0.2-0.2,0.5-0.5,0.7-0.6c-0.1,0.1-0.2,0.1-0.3,0.2c0.1-0.1,0.2-0.2,0.3-0.2
					c-0.6-0.2-1.2-0.5-1.8-0.7c0.1,0.4,0.2,0.8,0.3,1.2c0-0.1,0-0.2,0-0.3c0,0.1,0,0.1,0,0.2c0-0.1,0-0.2,0-0.3c0,0,0,0.1,0,0.1
					c0-0.1,0.1-0.2,0.1-0.3c0,0,0,0.1-0.1,0.1c0.1-0.1,0.1-0.2,0.2-0.3c0,0,0,0.1-0.1,0.1c0.1-0.1,0.2-0.1,0.3-0.2
					c-0.1,0.1-0.2,0.1-0.3,0.2c0.1,0,0.2-0.1,0.3-0.1c-0.1,0-0.1,0-0.2,0c0.1,0,0.2,0,0.3,0c-0.1,0-0.1,0-0.2,0c0.1,0,0.2,0,0.3,0
					c-0.1,0-0.1,0-0.2-0.1c0.1,0,0.2,0.1,0.3,0.1c-0.1,0-0.1-0.1-0.1-0.1c0.1,0.1,0.2,0.1,0.3,0.2c0,0-0.1-0.1-0.1-0.1
					c0.1,0.1,0.1,0.2,0.2,0.3c0-0.1-0.1-0.1-0.1-0.2c0,0.1,0.1,0.2,0.1,0.3c0-0.1,0-0.1-0.1-0.2c0,0.1,0,0.2,0,0.3c0,0,0-0.1,0-0.1
					c0,0.1,0,0.2,0,0.3c0,0,0-0.1,0-0.1c0,0.1-0.1,0.2-0.1,0.3c0,0,0,0,0-0.1c-0.1,0.1-0.1,0.2-0.2,0.3c0,0,0,0,0,0
					c0.1-0.1,0.2-0.2,0.3-0.4c0.1-0.1,0.1-0.3,0.1-0.5c0-0.3-0.1-0.7-0.4-0.9c-0.2-0.2-0.6-0.4-0.9-0.4c-0.1,0-0.2,0-0.3,0
					C250.4,157.8,250.2,157.9,250,158z"/>
			</g>
		</g>
		<g>
			<path class="st20" d="M152.5,151.4c0,0.7-0.3,1.4-0.9,1.9c-0.5,0.4-1.5,1-2.1,1.1c-1.4,0.3-2.7-0.3-3.7-1.4
				c-0.4-0.5-0.9-1.6-1-2.2c-0.2-0.7,0-1.5,0.5-2.1c1.6-1.9,3.9-3,5.6-4.8C150.9,144,152.4,148.9,152.5,151.4z"/>
			<g>
				<path class="st20" d="M151.3,151.4c0,0.6-0.4,1-0.8,1.2c-0.5,0.4-1,0.6-1.6,0.6c-1.3,0-2.3-1-2.7-2.1c-0.2-0.5-0.3-1,0-1.5
					c0.4-0.6,1.1-1.2,1.7-1.7c1.3-1,2.7-1.9,3.9-3.1c-0.7-0.2-1.4-0.4-2.1-0.6c0.3,0.9,0.5,1.8,0.8,2.7c0.2,0.8,0.4,1.6,0.6,2.3
					c0.1,0.4,0.2,0.8,0.2,1.1c0,0.1,0,0.2,0,0.2c0,0.2,0-0.2,0,0.1C151.3,151,151.3,151.2,151.3,151.4c0,0.7,0.5,1.2,1.2,1.2
					c0.6,0,1.3-0.6,1.2-1.2c-0.2-2.6-1-5.2-1.7-7.7c-0.3-0.9-1.4-1.2-2.1-0.6c-1.2,1.2-2.5,2.1-3.8,3.1c-1.3,1.1-2.8,2.3-2.7,4.2
					c0.1,3.3,3.6,6.3,6.9,5.1c1.8-0.7,3.5-2.1,3.5-4.1C153.8,149.8,151.3,149.8,151.3,151.4z"/>
			</g>
		</g>
		<g>
			<path class="st20" d="M138.5,128.5c0,0.3-0.1,0.7-0.3,0.9c-0.2,0.2-0.6,0.5-0.9,0.6c-0.7,0.2-1.3,0-1.8-0.5
				c-0.2-0.2-0.5-0.7-0.6-1c-0.1-0.3-0.1-0.7,0.1-1c0.7-0.9,1.7-1.5,2.4-2.4C137.4,125.2,138.3,127.4,138.5,128.5z"/>
			<g>
				<path class="st20" d="M137.2,128.5C137.2,128.6,137.2,128.9,137.2,128.5C137.2,128.8,137.4,128.4,137.2,128.5
					C137.2,128.7,137.2,128.6,137.2,128.5C137.3,128.5,137.2,128.6,137.2,128.5c0,0.1-0.1,0.1-0.1,0.2c0.2-0.1,0.2-0.1,0.1-0.1
					c0,0-0.1,0.1-0.1,0.1c-0.1,0-0.1,0.1-0.2,0.1c0,0-0.1,0-0.1,0.1c0.2-0.1,0.2-0.1,0.1-0.1c-0.1,0-0.1,0-0.2,0c0.1,0,0.1,0,0.2,0
					c0,0-0.3,0-0.3,0c0.2,0,0.2,0,0.1,0c0,0,0,0-0.1,0c0,0-0.1,0-0.1,0c0.2,0.1,0.2,0.1,0.1,0c-0.1,0-0.1-0.1-0.2-0.1
					c-0.1-0.1-0.1-0.1,0.1,0.1c0,0-0.1-0.1-0.1-0.1c-0.2-0.1,0,0,0,0.1c-0.1-0.2-0.2-0.3-0.3-0.5c-0.1-0.3,0.1,0.2,0,0
					c0,0,0-0.1,0-0.1c0-0.1,0-0.1,0,0c0,0.1,0,0.1,0,0c0-0.1,0-0.1,0,0.1c0-0.2-0.2,0.2,0,0c0.2-0.3-0.1,0.2,0,0
					c0.1-0.1,0.1-0.1,0.2-0.2c0.1-0.1,0.3-0.3,0.4-0.4c0.6-0.5,1.2-1,1.6-1.6c-0.7-0.2-1.4-0.4-2.1-0.6c0.4,1.1,0.9,2.2,1.1,3.3
					c0,0.3,0.3,0.6,0.6,0.7c0.3,0.2,0.7,0.2,1,0.1c0.3-0.1,0.6-0.3,0.7-0.6c0.2-0.3,0.2-0.6,0.1-1c-0.2-1.1-0.6-2.3-1.1-3.3
					c-0.2-0.4-0.4-0.7-0.9-0.9c-0.4-0.1-0.9,0-1.2,0.3c-0.5,0.6-1.1,1-1.6,1.5c-0.7,0.7-1.4,1.4-1.3,2.5c0,1,0.7,1.9,1.4,2.5
					c0.9,0.6,2,0.7,2.9,0.3c1-0.4,1.9-1.4,1.7-2.6c0-0.3-0.1-0.6-0.4-0.9c-0.2-0.2-0.6-0.4-0.9-0.4
					C137.8,127.3,137.1,127.8,137.2,128.5z"/>
			</g>
		</g>
		<g>
			<path class="st20" d="M180.8,130c0.1,0.2,0.2,0.4,0.1,0.6c0,0.2-0.2,0.5-0.3,0.7c-0.3,0.3-0.7,0.4-1.2,0.3
				c-0.2,0-0.5-0.2-0.7-0.3c-0.2-0.1-0.3-0.4-0.3-0.6c0-0.7,0.4-1.4,0.5-2.2C179.1,128.5,180.3,129.4,180.8,130z"/>
			<g>
				<path class="st20" d="M179.9,130.9C179.9,130.9,179.9,130.9,179.9,130.9c0,0-0.1-0.1-0.2-0.2
					C179.8,130.7,179.8,130.8,179.9,130.9c-0.1-0.2-0.2-0.3-0.2-0.4c0,0.1,0,0.1,0.1,0.2c0-0.1,0-0.2,0-0.3c0,0.1,0,0.2,0,0.2
					c0-0.1,0-0.2,0-0.3c0,0.1-0.1,0.2-0.1,0.3c0-0.1,0.1-0.2,0.1-0.3c-0.1,0.1-0.1,0.2-0.2,0.4c0.1-0.1,0.1-0.2,0.2-0.3
					c0,0.1-0.1,0.1-0.2,0.2c0.1-0.1,0.2-0.1,0.3-0.2c-0.1,0.1-0.2,0.1-0.2,0.1c0.1,0,0.2-0.1,0.3-0.1c-0.1,0-0.2,0.1-0.3,0.1
					c0.1,0,0.2,0,0.3,0c-0.1,0-0.3,0-0.4,0c0.1,0,0.2,0,0.3,0c-0.1,0-0.2,0-0.3-0.1c0.1,0,0.2,0.1,0.3,0.1c-0.2-0.1-0.3-0.2-0.4-0.3
					c0.1,0.1,0.2,0.1,0.3,0.2c0,0-0.1-0.1-0.1-0.1c0.1,0.1,0.1,0.2,0.2,0.3c0-0.1-0.1-0.1-0.1-0.2c0,0.1,0.1,0.2,0.1,0.3
					c0,0,0-0.1,0-0.1C179.8,130.6,179.8,130.8,179.9,130.9c-0.1-0.2-0.1-0.3-0.1-0.4c0,0.1,0,0.2,0,0.3c0.1-0.7,0.4-1.3,0.5-2
					c-0.6,0.2-1.2,0.5-1.8,0.7c0.2,0.1,0.3,0.3,0.5,0.4c-0.1-0.1-0.2-0.1-0.3-0.2C179.1,130.1,179.6,130.5,179.9,130.9
					c0.2,0.2,0.6,0.4,0.9,0.4c0.3,0,0.7-0.1,0.9-0.4c0.2-0.2,0.4-0.6,0.4-0.9c0-0.3-0.1-0.6-0.4-0.9c-0.3-0.4-0.7-0.7-1.1-1
					c-0.3-0.2-0.6-0.5-0.9-0.7c-0.3-0.2-0.8-0.2-1.1-0.1c-0.3,0.1-0.7,0.4-0.7,0.8c-0.1,0.5-0.3,1-0.4,1.5c-0.1,0.3-0.2,0.7-0.1,1.1
					c0,0.5,0.2,1,0.6,1.3c0.5,0.5,1.2,0.8,1.9,0.8c0.8,0,1.6-0.4,2-1.1c0.2-0.3,0.3-0.7,0.4-1.1c0-0.3,0-0.5,0-0.8
					c-0.1-0.3-0.3-0.6-0.5-0.8c-0.2-0.2-0.6-0.4-0.9-0.4c-0.3,0-0.7,0.1-0.9,0.4c-0.2,0.2-0.4,0.6-0.4,0.9c0,0.1,0,0.2,0,0.3
					C179.7,130.6,179.8,130.7,179.9,130.9z"/>
			</g>
		</g>
		<g>
			<path class="st20" d="M320.9,263.5c0.5,0.5,0.7,1.3,0.6,2c-0.1,0.7-0.5,1.7-0.9,2.3c-0.9,1.1-2.3,1.5-3.8,1.3
				c-0.7-0.1-1.7-0.6-2.2-1c-0.6-0.4-1-1.1-1-1.9c0-2.5,1.1-4.8,1.3-7.3C314.9,258.9,319.2,261.7,320.9,263.5z"/>
			<g>
				<path class="st20" d="M320,264.4c0.6,0.7-0.1,2.3-0.7,2.8c-0.8,0.8-2.2,0.8-3.1,0.3c-0.3-0.1-0.6-0.3-0.9-0.5
					c0.1,0.1-0.2-0.2-0.2-0.2c0,0-0.2-0.2-0.2-0.3c-0.3-0.6,0-1.6,0.1-2.3c0.4-1.8,0.9-3.6,1.1-5.4c-0.6,0.4-1.3,0.7-1.9,1.1
					c0.8,0.5,1.6,1,2.3,1.6c0.7,0.5,1.3,0.9,1.8,1.3C319,263.4,319.5,263.8,320,264.4c1.1,1.2,2.9-0.6,1.8-1.8
					c-1.1-1.2-2.5-2.2-3.8-3.1c-0.8-0.6-1.6-1.1-2.4-1.7c-0.9-0.6-1.8,0.2-1.9,1.1c-0.2,1.7-0.7,3.3-1,5c-0.3,1.8-0.5,3.7,1.1,5
					c1.2,1,2.8,1.6,4.3,1.4c1.6-0.2,3.1-1,3.9-2.4c0.9-1.7,1.2-3.7-0.2-5.3c-0.4-0.5-1.3-0.5-1.8,0
					C319.5,263.1,319.6,263.9,320,264.4z"/>
			</g>
		</g>
		<g>
			<path class="st20" d="M101,215.7c0.1,0.7-0.2,1.5-0.8,2c-0.5,0.5-1.4,1.1-2.1,1.2c-1.4,0.4-2.7-0.2-3.8-1.2
				c-0.5-0.5-1-1.5-1.1-2.1c-0.2-0.7-0.1-1.5,0.4-2.1c1.5-2,3.8-3.2,5.4-5C99,208.5,100.7,213.3,101,215.7z"/>
			<g>
				<path class="st20" d="M99.7,215.7c0,0.7-0.3,1.1-0.8,1.4c-0.6,0.4-1,0.6-1.6,0.7c-1.3,0-2.3-0.9-2.7-2.1c-0.2-0.5-0.3-1,0-1.5
					c0.4-0.6,1-1.1,1.6-1.6c1.2-1.1,2.6-2.1,3.7-3.3c-0.7-0.2-1.4-0.4-2.1-0.6c0.3,0.9,0.6,1.8,0.9,2.7c0.2,0.8,0.5,1.5,0.7,2.3
					c0.1,0.4,0.2,0.8,0.3,1.1c0,0.2,0.1,0.4,0.1,0.5C99.7,215.5,99.7,215.6,99.7,215.7C99.8,216,99.7,215.4,99.7,215.7
					c0.1,0.7,0.5,1.2,1.2,1.2c0.6,0,1.3-0.6,1.2-1.2c-0.3-2.6-1.2-5.2-2.1-7.6c-0.3-0.8-1.4-1.3-2.1-0.6c-1.1,1.2-2.4,2.1-3.6,3.2
					c-1.3,1.1-2.7,2.4-2.6,4.3c0.2,3.3,3.7,6.2,7,5c1.8-0.7,3.5-2.2,3.4-4.3c0-0.7-0.5-1.2-1.2-1.2
					C100.4,214.5,99.7,215.1,99.7,215.7z"/>
			</g>
		</g>
	</g>
</g>
<g>
	<g>
		<g>
			<path class="st3" d="M210.9,219.7c0.5-0.2,1-0.6,1.5-0.7c-0.2,0-0.3,0.1,0,0c0.1,0,0.2-0.1,0.4-0.1c0.3-0.1,0.5-0.2,0.8-0.2
				c0.3-0.1,0.5-0.1,0.8-0.2c-0.2,0-0.3,0,0,0c0.1,0,0.3,0,0.4,0c0.1,0,0.3,0.1,0.4,0c-0.1,0-0.5-0.1-0.1,0c0.4,0.1,0.9,0.1,1.4,0.2
				c0.1,0,0.5,0.1,0.1,0c-0.4-0.1,0,0,0.1,0c0.2,0,0.5,0.1,0.7,0.1c0.5,0.1,1,0.3,1.4,0.4c0.1,0,0.5,0.2,0.1,0
				c-0.3-0.1,0.1,0,0.1,0.1c0.2,0.1,0.4,0.2,0.6,0.3c0.2,0.1,0.4,0.2,0.6,0.4c0.3,0.2-0.3-0.3-0.1-0.1c0.1,0.1,0.2,0.2,0.3,0.3
				c1,0.9,2.6,1,3.5,0c0.9-1,1-2.6,0-3.5c-1.9-1.8-4.7-2.7-7.3-3c-0.1,0-0.5-0.1-0.2,0c0.4,0.1-0.2,0-0.2,0
				c-0.4-0.1-0.9-0.1-1.3-0.2c-0.8,0-1.6,0.1-2.4,0.3c-1.4,0.3-2.7,1-4,1.6c-1.2,0.5-1.6,2.4-0.9,3.4
				C208.2,220,209.6,220.2,210.9,219.7L210.9,219.7z"/>
		</g>
	</g>
	<g>
		<g>
			<path class="st3" d="M339,219c5.8-5.3,12-10.2,18.5-14.6c1.1-0.8,1.6-2.2,0.9-3.4c-0.6-1.1-2.3-1.7-3.4-0.9
				c-6.8,4.7-13.4,9.8-19.5,15.4c-1,0.9-0.9,2.6,0,3.5C336.4,219.9,338,219.9,339,219L339,219z"/>
		</g>
	</g>
	<g>
		<g>
			<path class="st3" d="M95.1,211.4c-6.1-5.6-12.7-10.7-19.5-15.4c-1.1-0.8-2.8-0.2-3.4,0.9c-0.7,1.2-0.2,2.7,0.9,3.4
				c6.5,4.4,12.7,9.3,18.5,14.6c1,0.9,2.5,1,3.5,0C96,214,96.1,212.3,95.1,211.4L95.1,211.4z"/>
		</g>
	</g>
	<g>
		<path class="st10" d="M186.8,276.7l-79.5-2.3c-9.2-0.3-16.4-8-16.2-17.1l2.3-79.5c0.3-9.2,8-16.4,17.1-16.2l79.5,2.3
			c9.2,0.3,16.4,8,16.2,17.1l-2.3,79.5C203.7,269.7,196,276.9,186.8,276.7z"/>
		<g class="st11">
			<g>
				<path class="st12" d="M135.7,226.5c8.5-9.8,17.6-19,27.2-27.7c2.4-2.2-1.1-5.7-3.5-3.5c-9.6,8.6-18.7,17.9-27.2,27.7
					c-0.9,1-1,2.5,0,3.5C133,227.4,134.8,227.5,135.7,226.5L135.7,226.5z"/>
			</g>
		</g>
		<g class="st11">
			<g>
				<path class="st12" d="M148.6,238.6c0.2-0.3,0.4-0.6,0.6-0.8c0.1-0.1,0.2-0.2,0.3-0.3c0,0,0.4-0.5,0.2-0.3
					c-0.2,0.2,0.2-0.3,0.2-0.3c0.1-0.1,0.2-0.2,0.3-0.3c0.2-0.3,0.4-0.5,0.6-0.8c0.9-1.1,1.8-2.2,2.8-3.3c1.8-2.1,3.7-4.1,5.7-5.9
					c1-0.9,1-2.7,0-3.5c-1.1-1-2.5-0.9-3.5,0c-4.4,3.8-8,8.5-11.5,13.1c-0.8,1-0.2,2.8,0.9,3.4C146.5,240.2,147.8,239.7,148.6,238.6
					L148.6,238.6z"/>
			</g>
		</g>
	</g>
	<g>
		<path class="st10" d="M317.6,279.4l-79.5-2.3c-9.2-0.3-16.4-8-16.2-17.1l2.3-79.5c0.3-9.2,8-16.4,17.1-16.2l79.5,2.3
			c9.2,0.3,16.4,8,16.2,17.1l-2.3,79.5C334.5,272.4,326.8,279.7,317.6,279.4z"/>
		<g class="st11">
			<g>
				<path class="st12" d="M266.5,229.2c8.5-9.8,17.6-19,27.2-27.7c2.4-2.2-1.1-5.7-3.5-3.5c-9.6,8.6-18.7,17.9-27.2,27.7
					c-0.9,1-1,2.5,0,3.5C263.9,230.1,265.6,230.3,266.5,229.2L266.5,229.2z"/>
			</g>
		</g>
		<g class="st11">
			<g>
				<path class="st12" d="M279.4,241.3c0.2-0.3,0.4-0.6,0.6-0.8c0.1-0.1,0.2-0.2,0.3-0.3c0,0,0.4-0.5,0.2-0.3
					c-0.2,0.2,0.2-0.3,0.2-0.3c0.1-0.1,0.2-0.2,0.3-0.3c0.2-0.3,0.4-0.5,0.6-0.8c0.9-1.1,1.8-2.2,2.8-3.3c1.8-2.1,3.7-4.1,5.7-5.9
					c1-0.9,1-2.7,0-3.5c-1.1-1-2.5-0.9-3.5,0c-4.4,3.8-8,8.5-11.5,13.1c-0.8,1-0.2,2.8,0.9,3.4C277.3,242.9,278.6,242.4,279.4,241.3
					L279.4,241.3z"/>
			</g>
		</g>
	</g>
</g>
</svg>
