<?xml version="1.0" encoding="utf-8"?>
<!-- Generator: Adobe Illustrator 24.1.2, SVG Export Plug-In . SVG Version: 6.00 Build 0)  -->
<svg version="1.1" id="Layer_1" xmlns="http://www.w3.org/2000/svg" xmlns:xlink="http://www.w3.org/1999/xlink" x="0px" y="0px"
	 viewBox="0 0 436.9 405.1" style="enable-background:new 0 0 436.9 405.1;" xml:space="preserve">
<style type="text/css">
	.st0{fill:url(#SVGID_1_);}
	.st1{fill:#BDDFF6;}
	.st2{fill:#010101;}
	.st3{fill:#231F20;}
	.st4{fill:#BE202E;}
	.st5{fill:#AC1F29;}
	.st6{fill:#FFFFFF;stroke:#FFFFFF;stroke-miterlimit:10;}
	.st7{fill:#3077BB;}
	.st8{fill:#231F20;stroke:#231F20;stroke-miterlimit:10;}
	.st9{fill:#00729F;}
	.st10{fill:#9EDAE6;fill-opacity:0.43;stroke:#231F20;stroke-width:8;stroke-miterlimit:10;}
	.st11{opacity:0.75;}
	.st12{fill:#BEE4ED;}
	.st13{fill:url(#SVGID_2_);}
	.st14{fill:url(#SVGID_3_);}
	.st15{fill:url(#SVGID_4_);}
	.st16{fill:url(#SVGID_5_);}
	.st17{fill:url(#SVGID_6_);}
	.st18{fill:url(#SVGID_7_);}
	.st19{fill:url(#SVGID_8_);}
	.st20{fill:#6FCCD8;}
	.st21{fill:url(#SVGID_9_);}
	.st22{fill:url(#SVGID_10_);}
	.st23{fill:#FFFFFF;}
	.st24{fill:url(#SVGID_11_);}
	.st25{fill:url(#SVGID_12_);}
	.st26{fill:url(#SVGID_13_);}
	.st27{fill:url(#SVGID_14_);}
	.st28{fill:url(#SVGID_15_);}
	.st29{fill:url(#SVGID_16_);}
	.st30{fill:#774098;}
	.st31{fill:#6A2F8F;}
	.st32{fill:#774098;stroke:#6A2F8F;stroke-width:2;stroke-miterlimit:10;}
	.st33{opacity:0.15;}
	.st34{filter:url(#Adobe_OpacityMaskFilter);}
	.st35{mask:url(#SVGID_17_);}
	.st36{fill:#F15E6D;}
	.st37{filter:url(#Adobe_OpacityMaskFilter_1_);}
	.st38{mask:url(#SVGID_18_);}
	.st39{fill:url(#SVGID_19_);}
	.st40{filter:url(#Adobe_OpacityMaskFilter_2_);}
	.st41{mask:url(#SVGID_20_);}
	.st42{filter:url(#Adobe_OpacityMaskFilter_3_);}
	.st43{mask:url(#SVGID_21_);}
	.st44{fill:url(#SVGID_22_);}
	.st45{filter:url(#Adobe_OpacityMaskFilter_4_);}
	.st46{mask:url(#SVGID_23_);}
	.st47{filter:url(#Adobe_OpacityMaskFilter_5_);}
	.st48{mask:url(#SVGID_24_);}
	.st49{fill:url(#SVGID_25_);}
	.st50{filter:url(#Adobe_OpacityMaskFilter_6_);}
	.st51{mask:url(#SVGID_26_);}
	.st52{filter:url(#Adobe_OpacityMaskFilter_7_);}
	.st53{mask:url(#SVGID_27_);}
	.st54{fill:url(#SVGID_28_);}
	.st55{filter:url(#Adobe_OpacityMaskFilter_8_);}
	.st56{mask:url(#SVGID_29_);}
	.st57{filter:url(#Adobe_OpacityMaskFilter_9_);}
	.st58{mask:url(#SVGID_30_);}
	.st59{fill:url(#SVGID_31_);}
	.st60{filter:url(#Adobe_OpacityMaskFilter_10_);}
	.st61{mask:url(#SVGID_32_);}
	.st62{filter:url(#Adobe_OpacityMaskFilter_11_);}
	.st63{mask:url(#SVGID_33_);}
	.st64{fill:url(#SVGID_34_);}
	.st65{filter:url(#Adobe_OpacityMaskFilter_12_);}
	.st66{mask:url(#SVGID_35_);}
	.st67{filter:url(#Adobe_OpacityMaskFilter_13_);}
	.st68{mask:url(#SVGID_36_);}
	.st69{fill:url(#SVGID_37_);}
	.st70{filter:url(#Adobe_OpacityMaskFilter_14_);}
	.st71{mask:url(#SVGID_38_);}
	.st72{filter:url(#Adobe_OpacityMaskFilter_15_);}
	.st73{mask:url(#SVGID_39_);}
	.st74{fill:url(#SVGID_40_);}
	.st75{filter:url(#Adobe_OpacityMaskFilter_16_);}
	.st76{mask:url(#SVGID_41_);}
	.st77{filter:url(#Adobe_OpacityMaskFilter_17_);}
	.st78{mask:url(#SVGID_42_);}
	.st79{fill:url(#SVGID_43_);}
	.st80{filter:url(#Adobe_OpacityMaskFilter_18_);}
	.st81{mask:url(#SVGID_44_);}
	.st82{filter:url(#Adobe_OpacityMaskFilter_19_);}
	.st83{mask:url(#SVGID_45_);}
	.st84{fill:url(#SVGID_46_);}
	.st85{filter:url(#Adobe_OpacityMaskFilter_20_);}
	.st86{mask:url(#SVGID_47_);}
	.st87{filter:url(#Adobe_OpacityMaskFilter_21_);}
	.st88{mask:url(#SVGID_48_);}
	.st89{fill:url(#SVGID_49_);}
	.st90{filter:url(#Adobe_OpacityMaskFilter_22_);}
	.st91{mask:url(#SVGID_50_);}
	.st92{filter:url(#Adobe_OpacityMaskFilter_23_);}
	.st93{mask:url(#SVGID_51_);}
	.st94{fill:url(#SVGID_52_);}
	.st95{filter:url(#Adobe_OpacityMaskFilter_24_);}
	.st96{mask:url(#SVGID_53_);}
	.st97{filter:url(#Adobe_OpacityMaskFilter_25_);}
	.st98{mask:url(#SVGID_54_);}
	.st99{fill:url(#SVGID_55_);}
	.st100{filter:url(#Adobe_OpacityMaskFilter_26_);}
	.st101{mask:url(#SVGID_56_);}
	.st102{filter:url(#Adobe_OpacityMaskFilter_27_);}
	.st103{mask:url(#SVGID_57_);}
	.st104{fill:url(#SVGID_58_);}
	.st105{filter:url(#Adobe_OpacityMaskFilter_28_);}
	.st106{mask:url(#SVGID_59_);}
	.st107{filter:url(#Adobe_OpacityMaskFilter_29_);}
	.st108{mask:url(#SVGID_60_);}
	.st109{fill:url(#SVGID_61_);}
	.st110{fill:#1B191D;}
	.st111{fill:#1B191D;stroke:#00729F;stroke-width:4;stroke-miterlimit:10;}
	.st112{fill:#FAAF43;}
	.st113{fill:url(#SVGID_62_);}
	.st114{fill:url(#SVGID_63_);}
	.st115{fill:url(#SVGID_64_);}
	.st116{fill:url(#SVGID_65_);}
	.st117{fill:url(#SVGID_66_);}
	.st118{fill:url(#SVGID_67_);}
	.st119{fill:url(#SVGID_68_);}
	.st120{fill:url(#SVGID_69_);}
	.st121{fill:url(#SVGID_70_);}
	.st122{fill:url(#SVGID_71_);}
	.st123{fill:url(#SVGID_72_);}
	.st124{fill:url(#SVGID_73_);}
	.st125{fill:url(#SVGID_74_);}
	.st126{fill:url(#SVGID_75_);}
</style>
<g>
	
		<radialGradient id="SVGID_1_" cx="3389.0054" cy="719.3436" r="136.4529" gradientTransform="matrix(-1.043 -7.998330e-03 7.263267e-03 -0.9471 3751.9644 947.1723)" gradientUnits="userSpaceOnUse">
		<stop  offset="0" style="stop-color:#A8DCDB"/>
		<stop  offset="0.7847" style="stop-color:#BDDFF6"/>
	</radialGradient>
	<path class="st0" d="M85.6,247.2C86.2,169.6,140.5,104.3,226,105c85.5,0.7,133.9,66.7,133.3,144.3s-49.9,124.5-135.3,123.8
		S85.1,324.8,85.6,247.2z"/>
	<g>
		<path class="st1" d="M313,140.1c4.1-8.1,8.2-16.3,12.3-24.4c1.4-2.7,2.7-5.5,3.1-8.5c0.6-5.7-2.7-11.2-7.3-14.6
			c-4.6-3.4-10.2-5-15.8-6.2c-7.5-1.6-16.2-2.3-21.9,2.8c-2.9,2.6-4.6,6.4-6,10.1c-2.6,6.8-4.5,13.9-5.9,21.1L313,140.1z"/>
		<g>
			<path class="st1" d="M314.1,140.8c4.4-8.8,9.1-17.5,13.3-26.4c1.8-3.8,2.9-7.8,1.9-11.9c-0.9-3.7-3.2-7.1-6.1-9.6
				c-6.1-5.3-14.9-7.4-22.8-8.4c-7.5-1-15.5,0.2-20.3,6.7c-2.8,3.9-4.3,8.8-5.8,13.4c-1.7,5.1-3,10.4-4,15.7
				c-0.1,0.5,0.1,1.2,0.6,1.4c4.7,2.2,9.3,4.4,14,6.6c7.4,3.5,14.9,7.1,22.3,10.6c1.7,0.8,3.5,1.6,5.2,2.5c1.4,0.7,2.7-1.5,1.3-2.2
				c-4.7-2.2-9.3-4.4-14-6.6c-7.4-3.5-14.9-7.1-22.3-10.6c-1.7-0.8-3.5-1.6-5.2-2.5c0.2,0.5,0.4,0.9,0.6,1.4
				c0.8-4.3,1.9-8.5,3.1-12.7c1.2-4,2.5-8.1,4.2-11.9c1.6-3.4,3.7-6.3,7.2-8c3.1-1.5,6.7-1.8,10.1-1.6c3.6,0.2,7.3,0.9,10.8,1.8
				c3.8,1,7.6,2.2,10.9,4.4c3.1,2,5.7,4.8,7.1,8.2c1.6,3.8,1.1,7.6-0.6,11.2c-2,4.5-4.4,8.9-6.7,13.3c-2.4,4.7-4.7,9.3-7.1,14
				C311.2,140.9,313.4,142.2,314.1,140.8z"/>
		</g>
	</g>
	<g>
		<path class="st1" d="M201.5,113.7c-2.9-8.6-5.8-17.3-8.6-25.9c-1-2.9-1.9-5.8-3.8-8.1c-3.6-4.4-9.8-6-15.5-5.1s-10.7,3.7-15.5,6.8
			c-6.4,4.2-13.1,9.9-13.5,17.5c-0.2,3.9,1.3,7.7,3,11.3c3.1,6.6,6.7,13,10.8,19L201.5,113.7z"/>
		<g>
			<path class="st1" d="M202.7,113.3c-3.1-9.4-6-18.9-9.4-28.2c-1.4-3.8-3.3-7.2-6.7-9.4c-3-2-6.7-2.8-10.3-2.8
				c-8.3,0.1-16.2,5-22.6,9.9c-6,4.6-11.3,11-10.2,19c0.7,5.1,3.3,9.9,5.6,14.4c2.4,4.7,5.2,9.2,8.1,13.6c0.3,0.4,0.9,0.8,1.4,0.6
				c4.8-1.7,9.7-3.5,14.5-5.2c7.7-2.8,15.5-5.6,23.2-8.4c1.8-0.6,3.6-1.3,5.4-1.9c1.5-0.5,0.9-3-0.7-2.4c-4.8,1.7-9.7,3.5-14.5,5.2
				c-7.7,2.8-15.5,5.6-23.2,8.4c-1.8,0.6-3.6,1.3-5.4,1.9c0.5,0.2,0.9,0.4,1.4,0.6c-2.4-3.5-4.6-7.2-6.7-10.9
				c-2.1-3.7-4.1-7.6-5.6-11.6c-1.4-3.8-1.9-7.7-0.3-11.5c1.3-3.2,3.8-5.9,6.4-8.1c2.8-2.4,6-4.5,9.2-6.4c3.5-2,7.2-3.7,11.2-4.3
				c3.3-0.5,6.9-0.2,9.9,1.3c3.5,1.6,5.6,4.5,7,8c1.8,4.6,3.2,9.4,4.8,14.1c1.6,5,3.3,9.9,4.9,14.9
				C200.8,115.5,203.2,114.9,202.7,113.3z"/>
		</g>
	</g>
	<g>
		<g>
			<g>
				<path class="st3" d="M246.1,384.9c-2.4-3.6-4.3-7.6-6.1-11.5c-1.1-2.3-2.2-4.6-3.1-7c-0.7-1.6-1.4-3.3-1.7-5
					c-0.3-1.6-2.7-0.9-2.4,0.7c0.3,1.8,1,3.5,1.7,5.1c1,2.4,2.1,4.8,3.2,7.2c1.9,4,3.8,8.1,6.2,11.7
					C244.9,387.5,247,386.3,246.1,384.9L246.1,384.9z"/>
			</g>
		</g>
		<g>
			<g>
				<path class="st3" d="M232,389.8c-0.9-9.2-1.6-18.5-2.6-27.7c-0.2-1.6-2.7-1.6-2.5,0c0.9,9.2,1.6,18.5,2.6,27.7
					C229.6,391.3,232.1,391.4,232,389.8L232,389.8z"/>
			</g>
		</g>
		<g>
			<g>
				<path class="st3" d="M220.6,362.7c0.4,1.5,0,3.4-0.3,4.9c-0.4,2.5-1.1,4.9-1.8,7.3c-0.7,2.4-1.5,4.8-2.5,7.2
					c-0.6,1.6-1.3,3.2-2.4,4.6c-1,1.3,1.2,2.5,2.2,1.3c1.2-1.5,1.9-3.4,2.6-5.2c1-2.4,1.8-4.9,2.6-7.4c0.7-2.5,1.4-5,1.8-7.6
					c0.3-1.9,0.6-3.9,0.2-5.8C222.6,360.5,220.2,361.1,220.6,362.7L220.6,362.7z"/>
			</g>
		</g>
	</g>
	<g>
		<path class="st1" d="M308.8,325c5.6,7.2,11.2,14.4,16.8,21.5c1.9,2.4,3.8,4.8,6.1,6.6c4.3,3.4,9.3,3.9,12.8,2.3
			c3.5-1.5,5.9-4.7,7.9-8.1c2.7-4.6,4.9-10.5,2-17.2c-1.5-3.5-4.1-6.6-6.8-9.5c-4.9-5.4-10.1-10.5-15.4-15.2L308.8,325z"/>
		<g>
			<path class="st1" d="M307.9,325.8c5.4,6.9,10.8,13.8,16.2,20.8c2.4,3,4.7,6.2,8,8.4c2.7,1.8,6.1,2.9,9.4,2.5
				c6.7-0.7,11-6.9,13.5-12.6c1.4-3.2,2.2-6.7,1.8-10.2c-0.5-3.9-2.2-7.3-4.5-10.4c-2.7-3.6-5.8-6.8-8.9-10
				c-3.3-3.4-6.8-6.7-10.4-9.9c-0.5-0.5-1.2-0.5-1.8,0c-6.8,5.7-13.6,11.4-20.4,17.1c-1,0.8-1.9,1.6-2.9,2.5c-1.2,1,0.5,2.8,1.8,1.8
				c6.8-5.7,13.6-11.4,20.4-17.1c1-0.8,1.9-1.6,2.9-2.5c-0.6,0-1.2,0-1.8,0c5.7,5.1,11.2,10.4,16.3,16.2c2.4,2.7,4.7,5.5,5.9,8.9
				c1.2,3.2,1.2,6.7,0.3,10c-0.9,3-2.5,5.8-4.4,8.4c-1.7,2.4-4,4.5-7,5.2c-7,1.5-12-4.3-15.9-9.2c-5.6-7.2-11.2-14.4-16.8-21.5
				C308.7,322.8,307,324.6,307.9,325.8z"/>
		</g>
	</g>
	<g>
		<path class="st1" d="M130.5,320.8c-4.5,7.9-8.9,15.9-13.4,23.8c-1.5,2.6-3,5.3-5,7.4c-3.8,4-8.6,5.2-12.3,4.3
			c-3.7-1-6.5-3.8-9-6.8c-3.3-4.1-6.4-9.6-4.6-16.7c1-3.7,3.1-7.2,5.3-10.4c4-6.1,8.4-11.9,13-17.4L130.5,320.8z"/>
		<g>
			<path class="st1" d="M129.4,320.2c-4,7.1-7.9,14.2-11.9,21.2c-3.2,5.7-6.6,13-13.9,13.9c-6.1,0.8-11-4.8-13.9-9.5
				c-1.7-2.7-2.8-5.6-2.8-8.8c0-3.7,1.4-7.1,3.2-10.2c4.3-7.4,9.7-14.4,15.2-21c-0.5,0.1-1,0.1-1.5,0.2c7.6,4.6,15.2,9.2,22.8,13.8
				c1.1,0.7,2.2,1.3,3.3,2c1.4,0.8,2.6-1.3,1.3-2.2c-7.6-4.6-15.2-9.2-22.8-13.8c-1.1-0.7-2.2-1.3-3.3-2c-0.4-0.3-1.2-0.2-1.5,0.2
				c-5.4,6.4-10.5,13.2-14.9,20.3c-2.1,3.4-3.8,7-4.2,11c-0.3,3.4,0.4,6.7,1.9,9.7c1.4,2.9,3.5,5.6,5.8,7.9c2.4,2.4,5.2,4.4,8.6,4.8
				c3.1,0.4,6.3-0.5,8.9-2.2c3.1-2,5.3-5,7.1-8.1c5.1-8.6,9.8-17.4,14.7-26.1C132.3,320,130.2,318.8,129.4,320.2z"/>
		</g>
	</g>
	<g>
		<circle class="st6" cx="281.4" cy="260.7" r="47.1"/>
		<circle class="st7" cx="281.4" cy="256.3" r="30.7"/>
		<circle class="st8" cx="281.4" cy="255.8" r="24"/>
	</g>
	<g>
		<circle class="st6" cx="161.4" cy="256.7" r="47.1"/>
		<circle class="st7" cx="161.4" cy="252.4" r="30.7"/>
		<circle class="st8" cx="161.4" cy="251.8" r="24"/>
	</g>
	<g>
		<g>
			<path class="st1" d="M273.9,356.1c0.1,3.8,0.2,7.6,0.3,11.4c0,1.3,0.1,2.5,0.4,3.7c0.6,2.2,2.2,3.6,3.7,4s3.1-0.1,4.6-0.8
				c2-0.9,4.2-2.3,4.9-5.3c0.4-1.5,0.2-3.2,0.1-4.9c-0.3-3-0.8-6-1.4-8.9L273.9,356.1z"/>
			<g>
				<path class="st1" d="M272.6,356.1c0.1,3.9,0.2,7.8,0.3,11.7c0.1,3.1,0.7,6.4,3.6,8c2.7,1.5,6.2,0.3,8.7-1.2
					c2.6-1.6,3.9-4.2,4.1-7.2c0.1-2-0.2-4.1-0.5-6.1c-0.3-2.1-0.7-4.2-1.1-6.3c-0.1-0.5-0.7-1-1.2-0.9c-4.2,0.3-8.5,0.5-12.7,0.8
					c-1.6,0.1-1.6,2.6,0,2.5c4.2-0.3,8.5-0.5,12.7-0.8c-0.4-0.3-0.8-0.6-1.2-0.9c0.4,2,0.8,3.9,1.1,5.9c0.3,1.9,0.6,3.9,0.5,5.8
					c-0.2,3.3-2.4,5.2-5.3,6.2c-1.6,0.5-3.2,0.7-4.5-0.5c-1.3-1.2-1.5-2.9-1.6-4.6c-0.2-4.1-0.2-8.3-0.4-12.4
					C275.1,354.5,272.6,354.5,272.6,356.1z"/>
			</g>
		</g>
		<g>
			<path class="st9" d="M275.9,354.8c0.1,2.8,0.2,5.6,0.2,8.4c0,0.9,0.1,1.9,0.3,2.7c0.4,1.6,1.6,2.7,2.7,2.9
				c1.1,0.3,2.3-0.1,3.3-0.6c1.5-0.6,3-1.7,3.5-3.9c0.3-1.1,0.2-2.4,0.1-3.6c-0.2-2.2-0.6-4.4-1-6.6L275.9,354.8z"/>
			<g>
				<path class="st9" d="M274.7,354.8c0.1,2.9,0.1,5.8,0.2,8.7c0.1,2.3,0.5,4.8,2.7,6.1c2.1,1.3,4.7,0.4,6.6-0.8
					c2-1.3,3-3.3,3.1-5.6c0.1-1.5-0.2-3.1-0.4-4.6c-0.2-1.6-0.5-3.1-0.8-4.7c-0.1-0.5-0.7-1-1.2-0.9c-3,0.2-6.1,0.4-9.1,0.6
					c-1.6,0.1-1.6,2.6,0,2.5c3-0.2,6.1-0.4,9.1-0.6c-0.4-0.3-0.8-0.6-1.2-0.9c0.6,2.8,1.2,5.8,1.1,8.6c-0.1,2.3-1.6,3.6-3.7,4.3
					c-1,0.3-2,0.4-2.8-0.3c-0.8-0.8-1-2-1-3.1c-0.1-3.1-0.2-6.1-0.3-9.2C277.1,353.2,274.6,353.2,274.7,354.8z"/>
			</g>
		</g>
	</g>
	<g>
		<g>
			<path class="st1" d="M180.2,353.4c-0.2,3.8-0.3,7.6-0.5,11.4c-0.1,1.3-0.1,2.5-0.5,3.7c-0.6,2.2-2.2,3.6-3.8,3.9
				c-1.6,0.3-3.1-0.2-4.6-0.9c-2-0.9-4.2-2.4-4.8-5.4c-0.3-1.5-0.2-3.2,0-4.9c0.4-3,0.9-6,1.6-8.9L180.2,353.4z"/>
			<g>
				<path class="st1" d="M179,353.4c-0.2,4.2-0.3,8.4-0.5,12.5c-0.1,1.6-0.4,3.3-1.7,4.4c-1.3,1.2-3,1-4.5,0.4
					c-2.9-1.1-5.1-3-5.2-6.3c-0.1-1.9,0.3-3.9,0.6-5.8c0.3-2,0.7-3.9,1.1-5.9c-0.4,0.3-0.8,0.6-1.2,0.9c4.2,0.3,8.4,0.7,12.7,1
					c1.6,0.1,1.6-2.4,0-2.5c-4.2-0.3-8.4-0.7-12.7-1c-0.5,0-1.1,0.4-1.2,0.9c-0.8,3.5-1.5,7.2-1.8,10.8c-0.2,3.1,0.5,6.1,3,8.2
					c2.2,1.8,5.8,3.4,8.6,2.4c3-1,4.3-4,4.6-7c0.4-4.3,0.4-8.7,0.6-13.1C181.5,351.8,179,351.8,179,353.4z"/>
			</g>
		</g>
		<g>
			<path class="st9" d="M178.2,352.1c-0.1,2.8-0.2,5.6-0.4,8.4c0,0.9-0.1,1.9-0.3,2.7c-0.5,1.6-1.6,2.6-2.7,2.9
				c-1.1,0.3-2.3-0.1-3.3-0.6c-1.4-0.7-3-1.7-3.5-4c-0.2-1.1-0.1-2.4,0-3.6c0.3-2.2,0.6-4.4,1.1-6.6L178.2,352.1z"/>
			<g>
				<path class="st9" d="M176.9,352.1c-0.1,3.1-0.2,6.2-0.4,9.3c-0.1,1.1-0.3,2.3-1.1,3c-0.8,0.8-1.9,0.6-2.9,0.2
					c-2-0.8-3.4-2.1-3.4-4.3c-0.1-2.8,0.6-5.8,1.2-8.6c-0.4,0.3-0.8,0.6-1.2,0.9c3,0.2,6.1,0.5,9.1,0.7c1.6,0.1,1.6-2.4,0-2.5
					c-3-0.2-6.1-0.5-9.1-0.7c-0.5,0-1.1,0.4-1.2,0.9c-0.6,2.6-1.1,5.4-1.3,8.1c-0.2,2.3,0.4,4.7,2.3,6.3c1.7,1.4,4.4,2.6,6.5,1.9
					c2.4-0.8,3.4-3.2,3.6-5.5c0.3-3.2,0.3-6.5,0.4-9.7C179.5,350.5,177,350.5,176.9,352.1z"/>
			</g>
		</g>
	</g>
	<g>
		<g>
			<g>
				<path class="st23" d="M261.1,165.9c-4.9-3.6-13.3-8.3-20.6-9.7c-9.3-1.8-23.1,0.1-23.1,0.1c1.5-3.4,0.9-8,4.4-10.9
					c2.1-1.7,4.1-2.5,8.2-3.3c4.1-0.8,10.4-0.3,15.4,0.8c7.8,1.7,14.2,6.3,16.5,10.5C264.2,157.6,261.1,165.9,261.1,165.9z"/>
				<g>
					<path class="st3" d="M261.8,164.6c-5.9-4.3-12.9-8-20-9.7c-6.4-1.5-13.2-1.2-19.7-0.7c-1.7,0.1-3.4,0.3-5.1,0.6
						c0.6,0.7,1.1,1.5,1.7,2.2c1.6-3.9,1.1-8.6,5-11.2c3.8-2.5,8.9-2.8,13.3-2.6c5.4,0.3,10.9,1.3,15.7,3.8c3.3,1.8,7.8,4.7,8.5,8.7
						c0.5,3.1-0.4,6.7-1.5,9.6c-0.7,1.8,2.2,2.6,2.9,0.8c1.2-3.1,2-6.6,1.7-9.9c-0.4-4.7-4.1-8.1-7.9-10.5
						c-5.1-3.3-10.9-4.7-16.8-5.3c-5.3-0.5-11-0.3-15.9,2c-2.3,1.1-4.3,2.9-5.4,5.2c-1.1,2.5-1.1,5.3-2.2,7.8
						c-0.5,1.3,0.3,2.4,1.7,2.2c0.3,0-0.4,0.1-0.1,0c0.3,0,0.5-0.1,0.8-0.1c0.9-0.1,1.9-0.2,2.8-0.3c2.9-0.3,5.8-0.4,8.7-0.5
						c3.2,0,6.5,0.1,9.7,0.7c3.6,0.7,7.1,2,10.4,3.6c3.6,1.7,7,3.7,10.2,6.1C261.9,168.4,263.4,165.8,261.8,164.6z"/>
				</g>
			</g>
		</g>
		<g>
			<g>
				<path class="st3" d="M228.8,154.9c-0.1-3.9,0.1-7.9,0.6-11.8c0-0.3-0.4-0.5-0.5-0.1c-0.5,3.9-0.7,7.9-0.6,11.9
					C228.3,155.2,228.8,155.2,228.8,154.9L228.8,154.9z"/>
			</g>
		</g>
		<g>
			<g>
				<path class="st3" d="M239.6,154.5c-0.4-4,0.5-7.9,2.4-11.4c0.2-0.3-0.3-0.5-0.4-0.3c-2,3.6-2.9,7.6-2.5,11.6
					C239.2,154.9,239.7,154.9,239.6,154.5L239.6,154.5z"/>
			</g>
		</g>
		<g>
			<g>
				<path class="st3" d="M250.8,158.4c0.4-3.8,1.8-7.3,3.9-10.4c0.2-0.3-0.3-0.5-0.4-0.3c-2.1,3.2-3.6,6.8-3.9,10.7
					C250.2,158.7,250.7,158.7,250.8,158.4L250.8,158.4z"/>
			</g>
		</g>
	</g>
	<g>
		<g>
			<path class="st30" d="M224,360.3c-1.5-2.6-3-5.7-5.6-7.1c-2-1-4.2-1.2-6.4-1.3c-7.1-0.4-21.7,0.4-21.7,0.4
				c2.3,9.4,4.5,18.7,6.8,28.1l0-0.1c0.4,1.6,1.9,3.2,3.7,2.8c1.8-0.4,3.3-1.4,4.9-2.3c2.2-1.3,4.8-2,7.2-2.9c5.7-2.1,9-7.6,11.8-13
				l2-2.4L224,360.3z"/>
			<g>
				<path class="st31" d="M225.1,359.6c-1.5-2.7-3-5.7-5.7-7.3c-2.8-1.6-6.3-1.7-9.4-1.8c-5.2-0.1-10.4,0.1-15.6,0.3
					c-1.3,0.1-2.7,0.1-4,0.2c-0.8,0-1.4,0.8-1.2,1.6c2.3,9.4,4.5,18.7,6.8,28.1c0.8-0.2,1.6-0.4,2.4-0.7c0,0,0-0.1,0-0.1
					c-0.6-1.5-2.9-0.9-2.4,0.7c0.4,1.6,1.6,3.1,3.2,3.6c1.8,0.6,3.8-0.4,5.4-1.3c2-1.1,3.9-2.1,6.1-2.9c1.9-0.7,3.8-1.3,5.5-2.3
					c3.1-2,5.5-5,7.4-8.1c0.8-1.3,1.4-2.8,2.3-4c0.5-0.7,1.2-1.4,1.7-2.1c0.4-0.5,0.5-1.3,0-1.8c-0.8-0.8-1.7-1.5-2.5-2.3
					c-1.2-1.1-3,0.7-1.8,1.8c0.8,0.8,1.7,1.5,2.5,2.3c0-0.6,0-1.2,0-1.8c-0.5,0.6-1,1.2-1.5,1.8c-0.7,0.9-1.2,1.8-1.7,2.8
					c-1.6,2.9-3.4,5.7-5.8,7.8c-2.8,2.4-6.3,3.1-9.6,4.6c-1.7,0.7-3.2,1.9-4.9,2.6c-0.7,0.3-1.6,0.7-2.3,0.5
					c-0.8-0.3-1.2-1.1-1.4-1.8c-0.8,0.2-1.6,0.4-2.4,0.7c0,0,0,0.1,0,0.1c0.6,1.5,2.8,0.9,2.4-0.7c-2.3-9.4-4.5-18.7-6.8-28.1
					c-0.4,0.5-0.8,1.1-1.2,1.6c4.7-0.3,9.3-0.4,14-0.5c3.2-0.1,6.5-0.1,9.7,0.2c2.2,0.3,4.2,0.9,5.7,2.6c1.3,1.5,2.2,3.3,3.2,5
					C223.7,362.3,225.9,361,225.1,359.6z"/>
			</g>
		</g>
		<g>
			<path class="st30" d="M229.6,360c1.2-2.8,2.3-6,4.8-7.6c1.8-1.2,4.1-1.7,6.2-2c7-1.2,21.6-1.9,21.6-1.9
				c-1.3,9.6-2.5,19.1-3.8,28.7l0-0.1c-0.2,1.6-1.5,3.3-3.3,3.2c-1.8-0.2-3.4-1-5.1-1.7c-2.3-1-4.9-1.5-7.4-2.1
				c-5.9-1.5-9.7-6.6-13.1-11.6l-2.2-2.1L229.6,360z"/>
			<g>
				<path class="st31" d="M230.7,360.6c0.8-1.8,1.5-3.7,2.6-5.3c1.3-1.8,3.1-2.7,5.3-3.3c3.1-0.8,6.4-1,9.6-1.3
					c4.7-0.4,9.4-0.8,14.1-1c-0.4-0.4-0.8-0.8-1.2-1.2c-1.3,9.6-2.5,19.1-3.8,28.7c-0.2,1.4,2.1,1.7,2.5,0.3c0,0,0-0.1,0-0.1
					c-0.8-0.2-1.6-0.4-2.4-0.7c-0.3,1.8-1.4,2.5-3.1,2.1c-1.9-0.5-3.6-1.5-5.4-2.1c-3.4-1.1-7-1.4-10-3.4c-2.7-1.8-4.9-4.5-6.7-7.2
					c-0.7-0.9-1.2-1.9-2-2.7c-0.6-0.5-1.1-1.1-1.7-1.6c0,0.6,0,1.2,0,1.8c0.8-0.9,1.5-1.7,2.3-2.6c1.1-1.2-0.7-3-1.8-1.8
					c-0.8,0.9-1.5,1.7-2.3,2.6c-0.4,0.5-0.5,1.3,0,1.8c0.6,0.6,1.3,1.2,1.9,1.9c1,1.1,1.8,2.6,2.8,3.8c2.2,2.9,4.8,5.7,8.2,7.3
					c1.8,0.9,3.7,1.3,5.6,1.7c2.3,0.5,4.3,1.3,6.4,2.2c1.7,0.7,3.8,1.5,5.6,0.7c1.5-0.7,2.4-2.2,2.7-3.7c0.3-1.6-2-2.3-2.4-0.7
					c0,0,0,0.1,0,0.1c0.8,0.1,1.6,0.2,2.5,0.3c1.3-9.6,2.5-19.1,3.8-28.7c0.1-0.6-0.6-1.3-1.2-1.2c-3.5,0.2-7,0.4-10.6,0.7
					c-2.7,0.2-5.5,0.5-8.2,0.8c-3,0.4-6.2,0.7-8.9,2.1c-3.4,1.7-4.7,5.3-6.1,8.6C227.9,360.8,230.1,362.1,230.7,360.6z"/>
			</g>
		</g>
		<circle class="st32" cx="227" cy="362.6" r="7.6"/>
	</g>
	<g class="st33">
		<defs>
			<filter id="Adobe_OpacityMaskFilter" filterUnits="userSpaceOnUse" x="112.2" y="162.3" width="50.8" height="50.8">
				<feFlood  style="flood-color:white;flood-opacity:1" result="back"/>
				<feBlend  in="SourceGraphic" in2="back" mode="normal"/>
			</filter>
		</defs>
		<mask maskUnits="userSpaceOnUse" x="112.2" y="162.3" width="50.8" height="50.8" id="SVGID_2_">
			<g class="st34">
				
					<image style="overflow:visible;" width="229" height="229" xlink:href="1F44A71C972C437D.jpg"  transform="matrix(0.24 0 0 0.24 110.0163 160.0893)">
				</image>
			</g>
		</mask>
		<g style="mask:url(#SVGID_2_);">
			<circle class="st36" cx="137.6" cy="187.6" r="25.4"/>
		</g>
	</g>
	<g class="st33">
		<defs>
			<filter id="Adobe_OpacityMaskFilter_1_" filterUnits="userSpaceOnUse" x="281.9" y="165.1" width="50.8" height="50.8">
				<feFlood  style="flood-color:white;flood-opacity:1" result="back"/>
				<feBlend  in="SourceGraphic" in2="back" mode="normal"/>
			</filter>
		</defs>
		<mask maskUnits="userSpaceOnUse" x="281.9" y="165.1" width="50.8" height="50.8" id="SVGID_3_">
			<g class="st37">
				
					<image style="overflow:visible;" width="230" height="229" xlink:href="1F44A71C972C437F.jpg"  transform="matrix(0.24 0 0 0.24 279.6963 162.9693)">
				</image>
			</g>
		</mask>
		<g style="mask:url(#SVGID_3_);">
			<circle class="st36" cx="307.3" cy="190.5" r="25.4"/>
		</g>
	</g>
	<g>
		<g>
			<g>
				<path class="st3" d="M224.3,260.5c-0.3,0.1-0.5,0.2-0.8,0.3c-0.2,0.1-0.8,0.4-0.3,0.2c-0.5,0.2-1,0.4-1.5,0.5
					c-0.3,0.1-0.5,0.1-0.8,0.2c0.5-0.1-0.2,0-0.4,0c-0.1,0-0.3-0.1-0.4,0c0.1,0,0.5,0.1,0.1,0c-0.4-0.1-0.9-0.2-1.4-0.2
					c-0.4,0,0.5,0.1,0.2,0c-0.1,0-0.2,0-0.3-0.1c-0.2,0-0.5-0.1-0.7-0.2c-0.5-0.1-0.9-0.3-1.4-0.4c-0.1,0-0.4-0.2-0.1-0.1
					c0.3,0.1-0.1,0-0.1-0.1c-0.2-0.1-0.4-0.2-0.6-0.3c-0.2-0.1-0.4-0.2-0.6-0.4c-0.3-0.2,0.3,0.3,0.1,0.1c-0.1-0.1-0.2-0.2-0.3-0.3
					c-0.9-0.9-2.6-1-3.5,0c-0.9,1-1,2.6,0,3.5c1,1,2.2,1.6,3.5,2.1c0.5,0.2,1.1,0.4,1.7,0.6c0.7,0.2,1.4,0.2,2.1,0.4
					c0.3,0.1-0.4-0.1-0.1,0c0.2,0,0.3,0.1,0.5,0.1c0.4,0.1,0.9,0.1,1.3,0.2c0.8,0,1.6-0.1,2.4-0.3c1.4-0.3,2.7-1,4-1.6
					c1.2-0.5,1.6-2.4,0.9-3.4C226.9,260.2,225.6,259.9,224.3,260.5L224.3,260.5z"/>
			</g>
		</g>
		<g>
			<g>
				<path class="st3" d="M96.2,260.2c-5.9,5.2-12.1,10.1-18.6,14.5c-1.1,0.8-1.6,2.2-0.9,3.4c0.7,1.1,2.3,1.7,3.4,0.9
					c6.9-4.6,13.4-9.7,19.6-15.2c1-0.9,0.9-2.6,0-3.5C98.8,259.2,97.2,259.3,96.2,260.2L96.2,260.2z"/>
			</g>
		</g>
		<g>
			<g>
				<path class="st3" d="M340.1,269.7c6.1,5.6,12.6,10.8,19.4,15.5c1.1,0.8,2.8,0.2,3.4-0.9c0.7-1.2,0.2-2.7-0.9-3.4
					c-6.5-4.5-12.6-9.4-18.4-14.7c-1-0.9-2.6-1-3.5,0C339.1,267.1,339.1,268.8,340.1,269.7L340.1,269.7z"/>
			</g>
		</g>
		<g>
			<path class="st10" d="M248.8,203.7l79.5,2.9c9.2,0.3,16.4,8.1,16,17.3l-2.9,79.5c-0.3,9.2-8.1,16.4-17.3,16l-79.5-2.9
				c-9.2-0.3-16.4-8.1-16-17.3l2.9-79.5C231.9,210.5,239.7,203.3,248.8,203.7z"/>
			<g class="st11">
				<g>
					<path class="st12" d="M299.6,254.3c-8.6,9.7-17.7,18.9-27.4,27.5c-2.4,2.1,1.1,5.7,3.5,3.5c9.7-8.6,18.9-17.7,27.4-27.5
						c0.9-1,1-2.5,0-3.5C302.2,253.3,300.5,253.2,299.6,254.3L299.6,254.3z"/>
				</g>
			</g>
			<g class="st11">
				<g>
					<path class="st12" d="M286.7,242.1c-0.1,0.1-0.2,0.3-0.3,0.4c-0.2,0.3,0.4-0.5-0.1,0.1c-0.2,0.3-0.4,0.5-0.6,0.8
						c-0.4,0.5-0.8,1-1.2,1.6c-0.9,1.1-1.8,2.2-2.8,3.3c-1.8,2.1-3.7,4-5.8,5.8c-1,0.9-0.9,2.7,0,3.5c1.1,1,2.5,0.9,3.5,0
						c4.4-3.8,8.1-8.4,11.6-13c0.8-1,0.2-2.8-0.9-3.4C288.8,240.5,287.6,241,286.7,242.1L286.7,242.1z"/>
				</g>
			</g>
		</g>
		<g>
			<path class="st10" d="M118,199.9l79.5,2.9c9.2,0.3,16.4,8.1,16,17.3l-2.9,79.5c-0.3,9.2-8.1,16.4-17.3,16l-79.5-2.9
				c-9.2-0.3-16.4-8.1-16-17.3l2.9-79.5C101.1,206.8,108.9,199.6,118,199.9z"/>
			<g class="st11">
				<g>
					<path class="st12" d="M168.8,250.5c-8.6,9.7-17.7,18.9-27.4,27.5c-2.4,2.1,1.1,5.7,3.5,3.5c9.7-8.6,18.9-17.7,27.4-27.5
						c0.9-1,1-2.5,0-3.5C171.4,249.6,169.7,249.5,168.8,250.5L168.8,250.5z"/>
				</g>
			</g>
			<g class="st11">
				<g>
					<path class="st12" d="M155.9,238.4c-0.1,0.1-0.2,0.3-0.3,0.4c-0.2,0.3,0.4-0.5-0.1,0.1c-0.2,0.3-0.4,0.5-0.6,0.8
						c-0.4,0.5-0.8,1-1.2,1.6c-0.9,1.1-1.8,2.2-2.8,3.3c-1.8,2.1-3.7,4-5.8,5.8c-1,0.9-0.9,2.7,0,3.5c1.1,1,2.5,0.9,3.5,0
						c4.4-3.8,8.1-8.4,11.6-13c0.8-1,0.2-2.8-0.9-3.4C158,236.8,156.8,237.2,155.9,238.4L155.9,238.4z"/>
				</g>
			</g>
		</g>
	</g>
</g>
</svg>
