<?xml version="1.0" encoding="utf-8"?>
<!-- Generator: Adobe Illustrator 24.1.2, SVG Export Plug-In . SVG Version: 6.00 Build 0)  -->
<svg version="1.1" id="Layer_1" xmlns="http://www.w3.org/2000/svg" xmlns:xlink="http://www.w3.org/1999/xlink" x="0px" y="0px"
	 viewBox="0 0 436.9 405.1" style="enable-background:new 0 0 436.9 405.1;" xml:space="preserve">
<style type="text/css">
	.st0{fill:url(#SVGID_1_);}
	.st1{fill:#BDDFF6;}
	.st2{fill:#010101;}
	.st3{fill:#231F20;}
	.st4{fill:#BE202E;}
	.st5{fill:#AC1F29;}
	.st6{fill:#FFFFFF;stroke:#FFFFFF;stroke-miterlimit:10;}
	.st7{fill:#3077BB;}
	.st8{fill:#231F20;stroke:#231F20;stroke-miterlimit:10;}
	.st9{fill:#00729F;}
	.st10{fill:#9EDAE6;fill-opacity:0.43;stroke:#231F20;stroke-width:8;stroke-miterlimit:10;}
	.st11{opacity:0.75;}
	.st12{fill:#BEE4ED;}
	.st13{fill:url(#SVGID_2_);}
	.st14{fill:url(#SVGID_3_);}
	.st15{fill:url(#SVGID_4_);}
	.st16{fill:url(#SVGID_5_);}
	.st17{fill:url(#SVGID_6_);}
	.st18{fill:url(#SVGID_7_);}
	.st19{fill:url(#SVGID_8_);}
	.st20{fill:#6FCCD8;}
	.st21{fill:url(#SVGID_9_);}
	.st22{fill:url(#SVGID_10_);}
	.st23{fill:#FFFFFF;}
	.st24{fill:url(#SVGID_11_);}
	.st25{fill:url(#SVGID_12_);}
	.st26{fill:url(#SVGID_13_);}
	.st27{fill:url(#SVGID_14_);}
	.st28{fill:url(#SVGID_15_);}
	.st29{fill:url(#SVGID_16_);}
	.st30{fill:#774098;}
	.st31{fill:#6A2F8F;}
	.st32{fill:#774098;stroke:#6A2F8F;stroke-width:2;stroke-miterlimit:10;}
	.st33{opacity:0.15;}
	.st34{filter:url(#Adobe_OpacityMaskFilter);}
	.st35{mask:url(#SVGID_17_);}
	.st36{fill:#F15E6D;}
	.st37{filter:url(#Adobe_OpacityMaskFilter_1_);}
	.st38{mask:url(#SVGID_18_);}
	.st39{fill:url(#SVGID_19_);}
	.st40{filter:url(#Adobe_OpacityMaskFilter_2_);}
	.st41{mask:url(#SVGID_20_);}
	.st42{filter:url(#Adobe_OpacityMaskFilter_3_);}
	.st43{mask:url(#SVGID_21_);}
	.st44{fill:url(#SVGID_22_);}
	.st45{filter:url(#Adobe_OpacityMaskFilter_4_);}
	.st46{mask:url(#SVGID_23_);}
	.st47{filter:url(#Adobe_OpacityMaskFilter_5_);}
	.st48{mask:url(#SVGID_24_);}
	.st49{fill:url(#SVGID_25_);}
	.st50{filter:url(#Adobe_OpacityMaskFilter_6_);}
	.st51{mask:url(#SVGID_26_);}
	.st52{filter:url(#Adobe_OpacityMaskFilter_7_);}
	.st53{mask:url(#SVGID_27_);}
	.st54{fill:url(#SVGID_28_);}
	.st55{filter:url(#Adobe_OpacityMaskFilter_8_);}
	.st56{mask:url(#SVGID_29_);}
	.st57{filter:url(#Adobe_OpacityMaskFilter_9_);}
	.st58{mask:url(#SVGID_30_);}
	.st59{fill:url(#SVGID_31_);}
	.st60{filter:url(#Adobe_OpacityMaskFilter_10_);}
	.st61{mask:url(#SVGID_32_);}
	.st62{filter:url(#Adobe_OpacityMaskFilter_11_);}
	.st63{mask:url(#SVGID_33_);}
	.st64{fill:url(#SVGID_34_);}
	.st65{filter:url(#Adobe_OpacityMaskFilter_12_);}
	.st66{mask:url(#SVGID_35_);}
	.st67{filter:url(#Adobe_OpacityMaskFilter_13_);}
	.st68{mask:url(#SVGID_36_);}
	.st69{fill:url(#SVGID_37_);}
	.st70{filter:url(#Adobe_OpacityMaskFilter_14_);}
	.st71{mask:url(#SVGID_38_);}
	.st72{filter:url(#Adobe_OpacityMaskFilter_15_);}
	.st73{mask:url(#SVGID_39_);}
	.st74{fill:url(#SVGID_40_);}
	.st75{filter:url(#Adobe_OpacityMaskFilter_16_);}
	.st76{mask:url(#SVGID_41_);}
	.st77{filter:url(#Adobe_OpacityMaskFilter_17_);}
	.st78{mask:url(#SVGID_42_);}
	.st79{fill:url(#SVGID_43_);}
	.st80{filter:url(#Adobe_OpacityMaskFilter_18_);}
	.st81{mask:url(#SVGID_44_);}
	.st82{filter:url(#Adobe_OpacityMaskFilter_19_);}
	.st83{mask:url(#SVGID_45_);}
	.st84{fill:url(#SVGID_46_);}
	.st85{filter:url(#Adobe_OpacityMaskFilter_20_);}
	.st86{mask:url(#SVGID_47_);}
	.st87{filter:url(#Adobe_OpacityMaskFilter_21_);}
	.st88{mask:url(#SVGID_48_);}
	.st89{fill:url(#SVGID_49_);}
	.st90{filter:url(#Adobe_OpacityMaskFilter_22_);}
	.st91{mask:url(#SVGID_50_);}
	.st92{filter:url(#Adobe_OpacityMaskFilter_23_);}
	.st93{mask:url(#SVGID_51_);}
	.st94{fill:url(#SVGID_52_);}
	.st95{filter:url(#Adobe_OpacityMaskFilter_24_);}
	.st96{mask:url(#SVGID_53_);}
	.st97{filter:url(#Adobe_OpacityMaskFilter_25_);}
	.st98{mask:url(#SVGID_54_);}
	.st99{fill:url(#SVGID_55_);}
	.st100{filter:url(#Adobe_OpacityMaskFilter_26_);}
	.st101{mask:url(#SVGID_56_);}
	.st102{filter:url(#Adobe_OpacityMaskFilter_27_);}
	.st103{mask:url(#SVGID_57_);}
	.st104{fill:url(#SVGID_58_);}
	.st105{filter:url(#Adobe_OpacityMaskFilter_28_);}
	.st106{mask:url(#SVGID_59_);}
	.st107{filter:url(#Adobe_OpacityMaskFilter_29_);}
	.st108{mask:url(#SVGID_60_);}
	.st109{fill:url(#SVGID_61_);}
	.st110{fill:#1B191D;}
	.st111{fill:#1B191D;stroke:#00729F;stroke-width:4;stroke-miterlimit:10;}
	.st112{fill:#FAAF43;}
	.st113{fill:url(#SVGID_62_);}
	.st114{fill:url(#SVGID_63_);}
	.st115{fill:url(#SVGID_64_);}
	.st116{fill:url(#SVGID_65_);}
	.st117{fill:url(#SVGID_66_);}
	.st118{fill:url(#SVGID_67_);}
	.st119{fill:url(#SVGID_68_);}
	.st120{fill:url(#SVGID_69_);}
	.st121{fill:url(#SVGID_70_);}
	.st122{fill:url(#SVGID_71_);}
	.st123{fill:url(#SVGID_72_);}
	.st124{fill:url(#SVGID_73_);}
	.st125{fill:url(#SVGID_74_);}
	.st126{fill:url(#SVGID_75_);}
</style>
<g>
	
		<radialGradient id="SVGID_1_" cx="260.2443" cy="156.3512" r="136.4529" gradientTransform="matrix(1.043 0 0 0.9472 -45.9006 80.2802)" gradientUnits="userSpaceOnUse">
		<stop  offset="0" style="stop-color:#A8DCDB"/>
		<stop  offset="0.7847" style="stop-color:#BDDFF6"/>
	</radialGradient>
	<path class="st0" d="M362.3,218.8c0,77.6-53.8,143.3-139.2,143.3S88.7,296.5,88.7,218.8S137.6,94,223.1,94S362.3,141.2,362.3,218.8
		z"/>
	<g>
		<path class="st1" d="M147.8,334.8c-4,8.2-8.1,16.3-12.1,24.5c-1.3,2.7-2.7,5.5-3,8.5c-0.6,5.7,2.8,11.2,7.4,14.5
			c4.6,3.4,10.2,4.9,15.8,6.1c7.5,1.6,16.2,2.2,21.9-3c2.9-2.6,4.5-6.4,5.9-10.1c2.5-6.9,4.4-13.9,5.8-21.1L147.8,334.8z"/>
		<g>
			<path class="st1" d="M146.7,334.2c-4.4,8.8-9,17.6-13.1,26.5c-1.8,3.8-2.9,7.8-1.8,12c0.9,3.7,3.2,7.1,6.1,9.6
				c6.2,5.3,15,7.3,22.8,8.2c7.5,0.9,15.5-0.3,20.2-6.8c2.8-3.9,4.3-8.9,5.7-13.4c1.6-5.2,2.9-10.4,3.9-15.7
				c0.1-0.5-0.1-1.2-0.6-1.4c-4.7-2.2-9.3-4.4-14-6.5c-7.5-3.5-14.9-6.9-22.4-10.4c-1.7-0.8-3.5-1.6-5.2-2.4
				c-1.4-0.7-2.7,1.5-1.3,2.2c4.7,2.2,9.3,4.4,14,6.5c7.5,3.5,14.9,6.9,22.4,10.4c1.7,0.8,3.5,1.6,5.2,2.4c-0.2-0.5-0.4-0.9-0.6-1.4
				c-0.8,4.3-1.8,8.5-3,12.7c-1.2,4-2.4,8.1-4.1,11.9c-1.5,3.4-3.7,6.3-7.1,8c-3.1,1.5-6.7,1.8-10.1,1.7c-3.7-0.2-7.3-0.9-10.8-1.7
				c-3.8-0.9-7.6-2.2-11-4.3c-3.1-2-5.8-4.7-7.2-8.2c-1.6-3.8-1.1-7.6,0.5-11.2c2-4.5,4.4-8.9,6.6-13.3c2.3-4.7,4.6-9.3,7-14
				C149.6,334,147.4,332.7,146.7,334.2z"/>
		</g>
	</g>
	<g>
		<path class="st1" d="M236.1,339.7c-1.8,8.9-3.5,17.9-5.3,26.8c-0.6,3-1.2,6-0.7,9c0.9,5.6,5.6,10,10.9,12.1
			c5.3,2,11.2,2.1,16.8,1.7c7.6-0.5,16.2-2.2,20.4-8.6c2.1-3.3,2.7-7.4,3-11.3c0.6-7.3,0.6-14.6,0-21.9L236.1,339.7z"/>
		<g>
			<path class="st1" d="M234.9,339.3c-1,5-1.9,9.9-2.9,14.9c-0.9,4.8-2,9.7-2.8,14.5c-0.7,4.2-0.6,8.3,1.7,12c1.9,3.1,4.8,5.5,8,7.1
				c7.4,3.6,16.7,3.2,24.7,2c7.1-1.1,14.3-4.1,17.2-11.2c1.9-4.5,2-9.7,2.2-14.5c0.2-5.6,0.1-11.2-0.3-16.8c0-0.5-0.4-1.1-0.9-1.2
				c-5.1-0.9-10.2-1.7-15.2-2.6c-8.1-1.4-16.2-2.8-24.3-4.2c-1.9-0.3-3.8-0.6-5.6-1c-1.6-0.3-2.2,2.1-0.7,2.4
				c5.1,0.9,10.2,1.7,15.2,2.6c8.1,1.4,16.2,2.8,24.3,4.2c1.9,0.3,3.8,0.6,5.6,1c-0.3-0.4-0.6-0.8-0.9-1.2c0.4,4.5,0.5,9.1,0.4,13.6
				c-0.1,4.2-0.2,8.6-1,12.8c-0.7,3.6-2.2,6.9-5,9.2c-2.6,2.1-5.8,3.2-9,3.9c-3.4,0.8-7,1-10.5,1.1c-4.1,0.1-8.3-0.1-12.3-1.3
				c-3.3-1.1-6.5-3-8.7-5.8c-2.5-3.1-3.1-6.7-2.6-10.6c0.6-5,1.9-10.1,2.9-15.1c1-5.1,2-10.2,3-15.4
				C237.6,338.4,235.2,337.8,234.9,339.3z"/>
		</g>
	</g>
	<g>
		<g>
			<path class="st2" d="M211.7,297.6c2.8,4.1,7.9,9.1,12.7,9.7c6.1,0.8,15.7-4.6,15.7-4.6c-1.5,5-1.7,11.4-4.5,16.1
				c-1.7,2.8-3.1,4.2-6.1,6.2c-2.9,1.9-7.1,2.4-10.3,1.9c-5.1-0.9-8.8-6.1-9.8-11.5S211.7,297.6,211.7,297.6z"/>
			<g>
				<path class="st3" d="M209.5,298.8c4.1,5.9,10.4,11.8,18.1,10.9c4.8-0.6,9.6-2.5,13.8-4.9c-1.2-0.9-2.4-1.9-3.7-2.8
					c-1.4,4.9-1.5,10.3-3.9,14.8c-2.2,4-6,7.2-10.7,7.6c-2.2,0.2-4.4,0-6.3-1.3c-1.8-1.2-3.1-3.1-4-5.1c-0.4-1-0.7-2-0.9-3.1
					c0,0.2-0.2-0.9-0.1-0.5c0.1,0.4,0-0.4,0-0.4c0-0.5,0-0.9,0-1.4c0-2,0.2-3.9,0.5-5.7c0.5-2.9,1.1-5.9,1.9-8.8
					c0.8-3.1-4-4.4-4.8-1.3c-0.8,2.9-1.4,5.8-1.9,8.8c-0.8,5-1.2,9.7,0.9,14.4c2.3,5.5,7,9.3,13.1,9.4c5.9,0.1,11.4-2.7,15-7.4
					c4.2-5.5,4.3-12.4,6.2-18.8c0.6-2.1-1.8-3.9-3.7-2.8c-3.5,1.9-7,3.4-11,4.1c-2.6,0.5-4.8,0-7.2-1.6c-2.7-1.7-5-4.2-6.8-6.8
					c-0.8-1.1-2.2-1.6-3.4-0.9C209.3,296,208.7,297.7,209.5,298.8z"/>
			</g>
		</g>
		<g>
			<g>
				<path class="st4" d="M222.3,311.5c0-0.8-0.1-0.6-0.5-1.3c-0.2-0.2-1.2-1.2-1.4-1.3c-1.9-1-3.2-1.2-5.3-1.1
					c-0.6,0-1.8,0.7-2.3,1.1c-0.8,0.6-1.3,1.2-1.6,2.1c-0.4,0.9-0.4,1.8-0.4,2.8c0,1.4,0.3,2.7,0.9,4c0.4,0.9,0.9,1.7,1.5,2.5
					c0.6,0.9,1.2,1.8,2,2.4c0.8,0.7,1.9,1.1,2.9,1.4c2.5,0.8,5.1,1.2,7.7,1.2c0.7,0,1.4,0,2-0.3c0.7-0.3,1.3-0.8,1.9-1.4
					c1-1,1.9-2.2,2.7-3.4c0.5-0.8,1.1-2.4,1-3.4c-0.1-0.6-0.8-3.1-1.3-4c-0.4-0.8-1.7-1.6-2.5-2.1c-1.8-1.1-4.5-1.3-6-0.3
					C222.3,311,222.3,311.5,222.3,311.5z"/>
				<g>
					<path class="st5" d="M222.5,311.5c-0.1-1.5-1.8-2.7-3.1-3.2c-1.9-0.8-4.2-1.1-6-0.1c-2.3,1.3-3.1,3.4-3,6
						c0.2,2.8,1.6,5.2,3.2,7.4c1.8,2.3,4.6,3,7.4,3.5c2.3,0.4,5.6,1.1,7.6-0.4c1.9-1.4,4-4,4.5-6.3c0.4-1.7-0.2-3.5-0.9-5.1
						c-0.9-2.1-3.5-3.4-5.7-3.7c-1.1-0.1-2.2-0.1-3.2,0.5c-0.6,0.3-1.4,0.9-1.5,1.6C222,311.8,222.5,311.8,222.5,311.5
						c0-0.7,1.4-1.3,2-1.5c1-0.3,2.2-0.2,3.2,0.1c1.7,0.5,3.6,1.7,4.3,3.4c0.5,1.4,1.1,2.9,0.8,4.4c-0.5,2.1-2,3.9-3.4,5.4
						c-1,1-1.9,1.5-3.3,1.6c-1.2,0.1-2.4,0-3.6-0.2c-2.2-0.3-4.7-0.7-6.6-1.9c-1.7-1.1-3.1-3.4-4-5.2c-1-2.3-1.5-5.8,0.3-7.8
						c1.5-1.7,3.7-2,5.8-1.5c1.4,0.3,4,1.5,4,3.2C222.1,311.8,222.6,311.8,222.5,311.5z"/>
				</g>
			</g>
			<g>
				<g>
					<path class="st5" d="M222,311.5c0,1.3,0,2.6,0,4c0,1.3-0.1,2.4-0.6,3.6c-0.8,1.7-1.5,3.4-2.3,5.1c-0.1,0.3,0.3,0.5,0.4,0.3
						c0.9-1.7,1.7-3.6,2.4-5.4c0.5-1.1,0.5-2.2,0.5-3.4c0-1.4,0-2.8,0-4.2C222.5,311.2,222,311.2,222,311.5L222,311.5z"/>
				</g>
			</g>
		</g>
	</g>
	<g>
		<g>
			<g>
				<path class="st3" d="M200.8,82.4c2.4,3.5,4.3,7.6,6.2,11.4c1.1,2.3,2.2,4.6,3.2,7c0.7,1.6,1.4,3.3,1.7,5
					c0.3,1.6,2.7,0.9,2.4-0.7c-0.3-1.8-1.1-3.5-1.7-5.1c-1-2.4-2.1-4.8-3.3-7.2c-1.9-3.9-3.8-8.1-6.3-11.7
					C202.1,79.8,199.9,81,200.8,82.4L200.8,82.4z"/>
			</g>
		</g>
		<g>
			<g>
				<path class="st3" d="M214.9,77.4c1,9.2,1.8,18.5,2.8,27.7c0.2,1.6,2.7,1.6,2.5,0c-1-9.2-1.8-18.5-2.8-27.7
					C217.3,75.8,214.8,75.8,214.9,77.4L214.9,77.4z"/>
			</g>
		</g>
		<g>
			<g>
				<path class="st3" d="M226.5,104.4c-0.4-1.5,0-3.4,0.2-4.9c0.4-2.5,1-4.9,1.8-7.4c0.7-2.4,1.5-4.8,2.5-7.2
					c0.6-1.6,1.3-3.2,2.3-4.6c1-1.3-1.2-2.5-2.2-1.3c-1.2,1.5-1.9,3.4-2.6,5.2c-1,2.4-1.8,4.9-2.5,7.5c-0.7,2.5-1.4,5-1.8,7.6
					c-0.3,1.9-0.6,3.9-0.1,5.8C224.5,106.7,226.9,106,226.5,104.4L226.5,104.4z"/>
			</g>
		</g>
	</g>
	<g>
		<path class="st1" d="M112.5,283.4c-5.7,7.1-11.5,14.1-17.2,21.2c-1.9,2.3-3.8,4.7-5.1,7.4c-2.3,5-1.7,9.9,0.6,13
			c2.3,3.1,5.9,4.7,9.7,5.8c5,1.6,11.3,2.4,17.2-1.9c3.1-2.2,5.5-5.5,7.8-8.7c4.2-6,8-12.2,11.4-18.4L112.5,283.4z"/>
		<g>
			<path class="st1" d="M111.6,282.6c-5.5,6.8-11,13.5-16.5,20.3c-2.5,3.1-5.1,6.1-6.6,9.8c-1.3,3.4-1.6,7.3-0.2,10.8
				c2.5,6.1,9.8,8.8,15.8,9.8c3.3,0.5,6.7,0.4,9.8-0.8c3.6-1.4,6.5-3.9,8.9-6.8c2.8-3.4,5.3-7.2,7.7-11c2.5-4,4.9-8,7.2-12.1
				c0.4-0.6,0.1-1.3-0.4-1.7c-7.1-5.4-14.2-10.7-21.3-16.1c-1-0.8-2-1.5-3-2.3c-1.3-1-2.5,1.2-1.3,2.2c7.1,5.4,14.2,10.7,21.3,16.1
				c1,0.8,2,1.5,3,2.3c-0.1-0.6-0.3-1.1-0.4-1.7c-3.6,6.6-7.5,13-11.9,19.2c-2,2.9-4.3,5.8-7.2,7.9c-2.7,1.9-5.8,2.8-9.1,2.8
				c-3,0-5.9-0.9-8.7-1.9c-2.9-1-5.8-2.6-7.5-5.2c-1.8-2.9-1.8-6.5-0.8-9.7c1.1-3.4,3.6-6.3,5.8-9c5.6-6.9,11.3-13.9,16.9-20.8
				C114.4,283.1,112.6,281.3,111.6,282.6z"/>
		</g>
	</g>
	<g>
		<path class="st1" d="M342.9,287c5.1,7.5,10.3,15,15.4,22.6c1.7,2.5,3.4,5,4.5,7.8c1.9,5.1,0.9,10-1.7,12.9
			c-2.5,2.9-6.3,4.2-10.1,5c-5.2,1.2-11.5,1.5-17-3.3c-2.9-2.5-5-6-7-9.3c-3.7-6.3-6.9-12.8-9.8-19.3L342.9,287z"/>
		<g>
			<path class="st1" d="M341.8,287.6c4.6,6.7,9.2,13.4,13.8,20.1c3.8,5.6,9.1,12.2,6.1,19.3c-1.2,2.9-3.8,4.8-6.7,5.9
				c-2.7,1-5.8,1.7-8.7,1.9c-3.1,0.2-6.1-0.4-8.8-1.9c-3.1-1.8-5.4-4.6-7.3-7.5c-4.6-7.1-8.5-14.9-11.9-22.7
				c-0.1,0.6-0.3,1.1-0.4,1.7c7.5-4.8,15-9.5,22.5-14.3c1.1-0.7,2.1-1.4,3.2-2c1.4-0.9,0.1-3-1.3-2.2c-7.5,4.8-15,9.5-22.5,14.3
				c-1.1,0.7-2.1,1.4-3.2,2c-0.6,0.4-0.7,1.1-0.4,1.7c3.3,7.5,7,15,11.4,22c2,3.2,4.3,6.2,7.5,8.4c2.8,1.9,6.1,2.9,9.5,3
				c3.2,0.1,6.4-0.5,9.4-1.4c3.2-1,6.4-2.5,8.5-5.2c2-2.6,2.8-6,2.5-9.2c-0.3-3.9-2.2-7.4-4.3-10.6c-5.4-8.2-11.1-16.3-16.7-24.4
				C343.1,285,340.9,286.3,341.8,287.6z"/>
		</g>
	</g>
	<g>
		<circle class="st6" cx="166.5" cy="206.9" r="47.1"/>
		<circle class="st7" cx="166.5" cy="211.2" r="30.7"/>
		<circle class="st8" cx="166.5" cy="211.8" r="24"/>
	</g>
	<g>
		<circle class="st6" cx="286.5" cy="210" r="47.1"/>
		<circle class="st7" cx="286.5" cy="214.3" r="30.7"/>
		<circle class="st8" cx="286.5" cy="214.8" r="24"/>
	</g>
	<g>
		<g>
			<path class="st1" d="M173.3,111.4c-0.1-3.8-0.3-7.6-0.4-11.4c0-1.3-0.1-2.5-0.4-3.7c-0.6-2.2-2.2-3.6-3.8-3.9
				c-1.6-0.4-3.1,0.2-4.6,0.8c-2,0.9-4.2,2.3-4.9,5.3c-0.3,1.5-0.2,3.2,0,4.9c0.3,3,0.8,6,1.5,8.9L173.3,111.4z"/>
			<g>
				<path class="st1" d="M174.5,111.4c-0.1-3.9-0.3-7.8-0.4-11.7c-0.1-3-0.7-6.2-3.6-7.9c-2.7-1.6-6.2-0.4-8.7,1.2
					c-2.6,1.6-4,4.2-4.1,7.3c-0.1,2,0.3,4.1,0.5,6.1c0.3,2.1,0.7,4.2,1.2,6.3c0.1,0.5,0.7,1,1.2,0.9c4.2-0.3,8.4-0.6,12.7-0.9
					c1.6-0.1,1.6-2.6,0-2.5c-4.2,0.3-8.4,0.6-12.7,0.9c0.4,0.3,0.8,0.6,1.2,0.9c-0.4-2-0.8-3.9-1.1-5.9c-0.3-1.9-0.6-3.9-0.5-5.8
					c0.1-3.3,2.4-5.3,5.4-6.3c1.5-0.5,3.1-0.6,4.3,0.5c1.3,1.2,1.5,2.9,1.6,4.6c0.2,4.1,0.3,8.3,0.4,12.4
					C172.1,113,174.6,113,174.5,111.4z"/>
			</g>
		</g>
		<g>
			<path class="st9" d="M171.2,112.7c-0.1-2.8-0.2-5.6-0.3-8.4c0-0.9-0.1-1.9-0.3-2.7c-0.5-1.6-1.6-2.6-2.7-2.9s-2.3,0.1-3.3,0.6
				c-1.5,0.6-3,1.7-3.5,3.9c-0.2,1.1-0.2,2.4,0,3.6c0.2,2.2,0.6,4.4,1.1,6.6L171.2,112.7z"/>
			<g>
				<path class="st9" d="M172.5,112.7c-0.1-2.9-0.2-5.8-0.3-8.7c-0.1-2.3-0.6-4.8-2.8-6.1c-2.1-1.2-4.7-0.4-6.6,0.9
					c-2,1.3-3,3.3-3.1,5.6c-0.1,1.5,0.2,3.1,0.4,4.6c0.2,1.6,0.5,3.1,0.8,4.6c0.1,0.5,0.7,1,1.2,0.9c3-0.2,6.1-0.4,9.1-0.6
					c1.6-0.1,1.6-2.6,0-2.5c-3,0.2-6.1,0.4-9.1,0.6c0.4,0.3,0.8,0.6,1.2,0.9c-0.6-2.8-1.3-5.8-1.2-8.6c0.1-2.3,1.6-3.6,3.6-4.3
					c1-0.3,2-0.5,2.8,0.3c0.9,0.8,1,2,1.1,3.1c0.2,3.1,0.2,6.1,0.3,9.2C170.1,114.3,172.6,114.4,172.5,112.7z"/>
			</g>
		</g>
	</g>
	<g>
		<g>
			<path class="st1" d="M267,113.4c0.1-3.8,0.3-7.6,0.4-11.4c0-1.3,0.1-2.5,0.4-3.7c0.6-2.2,2.2-3.6,3.8-3.9s3.1,0.2,4.6,0.8
				c2,0.9,4.2,2.3,4.9,5.3c0.3,1.5,0.2,3.2,0,4.9c-0.3,3-0.8,6-1.5,8.9L267,113.4z"/>
			<g>
				<path class="st1" d="M268.2,113.4c0.1-4.1,0.2-8.3,0.4-12.4c0.1-1.7,0.4-3.4,1.6-4.6c1.2-1.2,2.8-1,4.3-0.5c3,1,5.3,3,5.4,6.3
					c0.1,1.9-0.2,3.9-0.5,5.8c-0.3,2-0.7,3.9-1.1,5.9c0.4-0.3,0.8-0.6,1.2-0.9c-4.2-0.3-8.4-0.6-12.7-0.9c-1.6-0.1-1.6,2.4,0,2.5
					c4.2,0.3,8.4,0.6,12.7,0.9c0.5,0,1.1-0.4,1.2-0.9c0.8-3.6,1.5-7.3,1.7-11c0.2-3.1-0.7-6.1-3.2-8.1c-2.3-1.8-5.8-3.3-8.6-2.2
					c-2.9,1.1-4.2,4-4.5,7c-0.4,4.3-0.3,8.8-0.5,13.1C265.7,115,268.2,115,268.2,113.4z"/>
			</g>
		</g>
		<g>
			<path class="st9" d="M269,114.7c0.1-2.8,0.2-5.6,0.3-8.4c0-0.9,0.1-1.9,0.3-2.7c0.5-1.6,1.6-2.6,2.7-2.9c1.1-0.3,2.3,0.1,3.3,0.6
				c1.5,0.6,3,1.7,3.5,3.9c0.2,1.1,0.2,2.4,0,3.6c-0.2,2.2-0.6,4.4-1.1,6.6L269,114.7z"/>
			<g>
				<path class="st9" d="M270.3,114.7c0.1-3.1,0.2-6.1,0.3-9.2c0.1-1.1,0.2-2.3,1.1-3.1c0.8-0.8,1.8-0.7,2.8-0.3
					c2,0.7,3.5,2.1,3.6,4.3c0.1,2.8-0.5,5.8-1.2,8.6c0.4-0.3,0.8-0.6,1.2-0.9c-3-0.2-6.1-0.4-9.1-0.6c-1.6-0.1-1.6,2.4,0,2.5
					c3,0.2,6.1,0.4,9.1,0.6c0.5,0,1.1-0.4,1.2-0.9c0.6-2.7,1.1-5.5,1.2-8.2c0.1-2.4-0.5-4.6-2.4-6.2c-1.7-1.4-4.4-2.5-6.6-1.7
					c-2.3,0.9-3.3,3.2-3.5,5.5c-0.3,3.2-0.2,6.5-0.4,9.7C267.7,116.3,270.2,116.3,270.3,114.7z"/>
			</g>
		</g>
	</g>
	<g>
		<g>
			<path class="st30" d="M220.1,108.6c1.5,2.6,3,5.7,5.6,7.1c2,1,4.2,1.2,6.4,1.3c7.1,0.4,21.7-0.4,21.7-0.4
				c-2.3-9.4-4.5-18.7-6.8-28.1l0,0.1c-0.4-1.6-1.9-3.2-3.7-2.8s-3.3,1.4-4.9,2.3c-2.2,1.3-4.8,2-7.2,2.9c-5.7,2.1-9,7.6-11.8,13
				l-2,2.4L220.1,108.6z"/>
			<g>
				<path class="st31" d="M219.1,109.3c1.5,2.7,3,5.7,5.7,7.3c2.8,1.6,6.3,1.7,9.4,1.8c5.2,0.1,10.4-0.1,15.6-0.3
					c1.3-0.1,2.7-0.1,4-0.2c0.8,0,1.4-0.8,1.2-1.6c-2.3-9.4-4.5-18.7-6.8-28.1c-0.8,0.2-1.6,0.4-2.4,0.7c0,0,0,0.1,0,0.1
					c0.6,1.5,2.9,0.9,2.4-0.7c-0.4-1.6-1.6-3.1-3.2-3.6c-1.8-0.6-3.8,0.4-5.4,1.3c-2,1.1-3.9,2.1-6.1,2.9c-1.9,0.7-3.8,1.3-5.5,2.3
					c-3.1,2-5.5,5-7.4,8.1c-0.8,1.3-1.4,2.8-2.3,4c-0.5,0.7-1.2,1.4-1.7,2.1c-0.4,0.5-0.5,1.3,0,1.8c0.8,0.8,1.7,1.5,2.5,2.3
					c1.2,1.1,3-0.7,1.8-1.8c-0.8-0.8-1.7-1.5-2.5-2.3c0,0.6,0,1.2,0,1.8c0.5-0.6,1-1.2,1.5-1.8c0.7-0.9,1.2-1.8,1.7-2.8
					c1.6-2.9,3.4-5.7,5.8-7.8c2.8-2.4,6.3-3.1,9.6-4.6c1.7-0.7,3.2-1.9,4.9-2.6c0.7-0.3,1.6-0.7,2.3-0.5c0.8,0.3,1.2,1.1,1.4,1.8
					c0.8-0.2,1.6-0.4,2.4-0.7c0,0,0-0.1,0-0.1c-0.6-1.5-2.8-0.9-2.4,0.7c2.3,9.4,4.5,18.7,6.8,28.1c0.4-0.5,0.8-1.1,1.2-1.6
					c-4.7,0.3-9.3,0.4-14,0.5c-3.2,0.1-6.5,0.1-9.7-0.2c-2.2-0.3-4.2-0.9-5.7-2.6c-1.3-1.5-2.2-3.3-3.2-5
					C220.4,106.6,218.3,107.9,219.1,109.3z"/>
			</g>
		</g>
		<g>
			<path class="st30" d="M214.6,108.9c-1.2,2.8-2.3,6-4.8,7.6c-1.8,1.2-4.1,1.7-6.2,2c-7,1.2-21.6,1.9-21.6,1.9
				c1.3-9.6,2.5-19.1,3.8-28.7l0,0.1c0.2-1.6,1.5-3.3,3.3-3.2c1.8,0.2,3.4,1,5.1,1.7c2.3,1,4.9,1.5,7.4,2.1
				c5.9,1.5,9.7,6.6,13.1,11.6l2.2,2.1L214.6,108.9z"/>
			<g>
				<path class="st31" d="M213.5,108.3c-0.8,1.8-1.5,3.7-2.6,5.3c-1.3,1.8-3.1,2.7-5.3,3.3c-3.1,0.8-6.4,1-9.6,1.3
					c-4.7,0.4-9.4,0.8-14.1,1c0.4,0.4,0.8,0.8,1.2,1.2c1.3-9.6,2.5-19.1,3.8-28.7c0.2-1.4-2.1-1.7-2.5-0.3c0,0,0,0.1,0,0.1
					c0.8,0.2,1.6,0.4,2.4,0.7c0.3-1.8,1.4-2.5,3.1-2.1c1.9,0.5,3.6,1.5,5.4,2.1c3.4,1.1,7,1.4,10,3.4c2.7,1.8,4.9,4.5,6.7,7.2
					c0.7,0.9,1.2,1.9,2,2.7c0.6,0.5,1.1,1.1,1.7,1.6c0-0.6,0-1.2,0-1.8c-0.8,0.9-1.5,1.7-2.3,2.6c-1.1,1.2,0.7,3,1.8,1.8
					c0.8-0.9,1.5-1.7,2.3-2.6c0.4-0.5,0.5-1.3,0-1.8c-0.6-0.6-1.3-1.2-1.9-1.9c-1-1.1-1.8-2.6-2.8-3.8c-2.2-2.9-4.8-5.7-8.2-7.3
					c-1.8-0.9-3.7-1.3-5.6-1.7c-2.3-0.5-4.3-1.3-6.4-2.2c-1.7-0.7-3.8-1.5-5.6-0.7c-1.5,0.7-2.4,2.2-2.7,3.7c-0.3,1.6,2,2.3,2.4,0.7
					c0,0,0-0.1,0-0.1c-0.8-0.1-1.6-0.2-2.5-0.3c-1.3,9.6-2.5,19.1-3.8,28.7c-0.1,0.6,0.6,1.3,1.2,1.2c3.5-0.2,7-0.4,10.6-0.7
					c2.7-0.2,5.5-0.5,8.2-0.8c3-0.4,6.2-0.7,8.9-2.1c3.4-1.7,4.7-5.3,6.1-8.6C216.2,108.1,214.1,106.8,213.5,108.3z"/>
			</g>
		</g>
		<circle class="st32" cx="217.1" cy="106.3" r="7.6"/>
	</g>
	<g class="st33">
		<defs>
			<filter id="Adobe_OpacityMaskFilter" filterUnits="userSpaceOnUse" x="281.2" y="255.9" width="50.8" height="50.8">
				<feFlood  style="flood-color:white;flood-opacity:1" result="back"/>
				<feBlend  in="SourceGraphic" in2="back" mode="normal"/>
			</filter>
		</defs>
		<mask maskUnits="userSpaceOnUse" x="281.2" y="255.9" width="50.8" height="50.8" id="SVGID_2_">
			<g class="st34">
				
					<image style="overflow:visible;" width="229" height="230" xlink:href="1F33D103230F9AEB.jpg"  transform="matrix(0.24 0 0 0.24 279.1989 253.6644)">
				</image>
			</g>
		</mask>
		<g style="mask:url(#SVGID_2_);">
			<circle class="st36" cx="306.6" cy="281.3" r="25.4"/>
		</g>
	</g>
	<g class="st33">
		<defs>
			<filter id="Adobe_OpacityMaskFilter_1_" filterUnits="userSpaceOnUse" x="111.5" y="253" width="50.8" height="50.8">
				<feFlood  style="flood-color:white;flood-opacity:1" result="back"/>
				<feBlend  in="SourceGraphic" in2="back" mode="normal"/>
			</filter>
		</defs>
		<mask maskUnits="userSpaceOnUse" x="111.5" y="253" width="50.8" height="50.8" id="SVGID_3_">
			<g class="st37">
				
					<image style="overflow:visible;" width="230" height="230" xlink:href="1F33D103230F9AE9.jpg"  transform="matrix(0.24 0 0 0.24 109.2789 250.7844)">
				</image>
			</g>
		</mask>
		<g style="mask:url(#SVGID_3_);">
			<circle class="st36" cx="136.9" cy="278.4" r="25.4"/>
		</g>
	</g>
	<g>
		<g>
			<g>
				<path class="st3" d="M223.6,206.6c0.5-0.2,1-0.6,1.5-0.7c-0.2,0-0.3,0.1,0,0c0.1,0,0.2-0.1,0.4-0.1c0.3-0.1,0.5-0.2,0.8-0.2
					c0.3-0.1,0.5-0.1,0.8-0.2c-0.2,0-0.3,0,0,0c0.1,0,0.3,0,0.4,0c0.1,0,0.3,0.1,0.4,0c-0.1,0-0.5-0.1-0.1,0
					c0.4,0.1,0.9,0.1,1.4,0.2c0.1,0,0.5,0.1,0.1,0c-0.4-0.1,0,0,0.1,0c0.2,0,0.5,0.1,0.7,0.1c0.5,0.1,1,0.3,1.4,0.4
					c0.1,0,0.5,0.2,0.1,0c-0.3-0.1,0.1,0,0.1,0.1c0.2,0.1,0.4,0.2,0.6,0.3c0.2,0.1,0.4,0.2,0.6,0.4c0.3,0.2-0.3-0.3-0.1-0.1
					c0.1,0.1,0.2,0.2,0.3,0.3c1,0.9,2.6,1,3.5,0c0.9-1,1-2.6,0-3.5c-1.9-1.8-4.7-2.7-7.3-3c-0.1,0-0.5-0.1-0.2,0
					c0.4,0.1-0.2,0-0.2,0c-0.4-0.1-0.9-0.1-1.3-0.2c-0.8,0-1.6,0.1-2.4,0.3c-1.4,0.3-2.7,1-4,1.6c-1.2,0.5-1.6,2.4-0.9,3.4
					C220.9,207,222.3,207.2,223.6,206.6L223.6,206.6z"/>
			</g>
		</g>
		<g>
			<g>
				<path class="st3" d="M351.6,205.9c5.8-5.3,12-10.2,18.5-14.6c1.1-0.8,1.6-2.2,0.9-3.4c-0.6-1.1-2.3-1.7-3.4-0.9
					c-6.8,4.7-13.4,9.8-19.5,15.4c-1,0.9-0.9,2.6,0,3.5C349.1,206.9,350.6,206.8,351.6,205.9L351.6,205.9z"/>
			</g>
		</g>
		<g>
			<g>
				<path class="st3" d="M107.8,198.4c-6.1-5.6-12.7-10.7-19.5-15.4c-1.1-0.8-2.8-0.2-3.4,0.9c-0.7,1.2-0.2,2.7,0.9,3.4
					c6.5,4.4,12.7,9.3,18.5,14.6c1,0.9,2.5,1,3.5,0C108.7,201,108.8,199.3,107.8,198.4L107.8,198.4z"/>
			</g>
		</g>
		<g>
			<path class="st10" d="M199.5,263.7l-79.5-2.3c-9.2-0.3-16.4-8-16.2-17.1l2.3-79.5c0.3-9.2,8-16.4,17.1-16.2l79.5,2.3
				c9.2,0.3,16.4,8,16.2,17.1l-2.3,79.5C216.4,256.6,208.6,263.9,199.5,263.7z"/>
			<g class="st11">
				<g>
					<path class="st12" d="M148.4,213.5c8.5-9.8,17.6-19,27.2-27.7c2.4-2.2-1.1-5.7-3.5-3.5c-9.6,8.6-18.7,17.9-27.2,27.7
						c-0.9,1-1,2.5,0,3.5C145.7,214.4,147.5,214.5,148.4,213.5L148.4,213.5z"/>
				</g>
			</g>
			<g class="st11">
				<g>
					<path class="st12" d="M161.3,225.5c0.2-0.3,0.4-0.6,0.6-0.8c0.1-0.1,0.2-0.2,0.3-0.3c0,0,0.4-0.5,0.2-0.3
						c-0.2,0.2,0.2-0.3,0.2-0.3c0.1-0.1,0.2-0.2,0.3-0.3c0.2-0.3,0.4-0.5,0.6-0.8c0.9-1.1,1.8-2.2,2.8-3.3c1.8-2.1,3.7-4.1,5.7-5.9
						c1-0.9,1-2.7,0-3.5c-1.1-1-2.5-0.9-3.5,0c-4.4,3.8-8,8.5-11.5,13.1c-0.8,1-0.2,2.8,0.9,3.4
						C159.2,227.1,160.5,226.7,161.3,225.5L161.3,225.5z"/>
				</g>
			</g>
		</g>
		<g>
			<path class="st10" d="M330.3,266.4l-79.5-2.3c-9.2-0.3-16.4-8-16.2-17.1l2.3-79.5c0.3-9.2,8-16.4,17.1-16.2l79.5,2.3
				c9.2,0.3,16.4,8,16.2,17.1l-2.3,79.5C347.2,259.4,339.5,266.7,330.3,266.4z"/>
			<g class="st11">
				<g>
					<path class="st12" d="M279.2,216.2c8.5-9.8,17.6-19,27.2-27.7c2.4-2.2-1.1-5.7-3.5-3.5c-9.6,8.6-18.7,17.9-27.2,27.7
						c-0.9,1-1,2.5,0,3.5C276.5,217.1,278.3,217.2,279.2,216.2L279.2,216.2z"/>
				</g>
			</g>
			<g class="st11">
				<g>
					<path class="st12" d="M292.1,228.3c0.2-0.3,0.4-0.6,0.6-0.8c0.1-0.1,0.2-0.2,0.3-0.3c0,0,0.4-0.5,0.2-0.3
						c-0.2,0.2,0.2-0.3,0.2-0.3c0.1-0.1,0.2-0.2,0.3-0.3c0.2-0.3,0.4-0.5,0.6-0.8c0.9-1.1,1.8-2.2,2.8-3.3c1.8-2.1,3.7-4.1,5.7-5.9
						c1-0.9,1-2.7,0-3.5c-1.1-1-2.5-0.9-3.5,0c-4.4,3.8-8,8.5-11.5,13.1c-0.8,1-0.2,2.8,0.9,3.4C290,229.9,291.3,229.4,292.1,228.3
						L292.1,228.3z"/>
				</g>
			</g>
		</g>
	</g>
</g>
</svg>
