<?xml version="1.0" encoding="utf-8"?>
<!-- Generator: Adobe Illustrator 24.1.2, SVG Export Plug-In . SVG Version: 6.00 Build 0)  -->
<svg version="1.1" id="Layer_1" xmlns="http://www.w3.org/2000/svg" xmlns:xlink="http://www.w3.org/1999/xlink" x="0px" y="0px"
	 viewBox="0 0 436.9 405.1" style="enable-background:new 0 0 436.9 405.1;" xml:space="preserve">
<style type="text/css">
	.st0{fill:url(#SVGID_1_);}
	.st1{fill:#BDDFF6;}
	.st2{fill:#010101;}
	.st3{fill:#231F20;}
	.st4{fill:#BE202E;}
	.st5{fill:#AC1F29;}
	.st6{fill:#FFFFFF;stroke:#FFFFFF;stroke-miterlimit:10;}
	.st7{fill:#3077BB;}
	.st8{fill:#231F20;stroke:#231F20;stroke-miterlimit:10;}
	.st9{fill:#00729F;}
	.st10{fill:#9EDAE6;fill-opacity:0.43;stroke:#231F20;stroke-width:8;stroke-miterlimit:10;}
	.st11{opacity:0.75;}
	.st12{fill:#BEE4ED;}
	.st13{fill:url(#SVGID_2_);}
	.st14{fill:url(#SVGID_3_);}
	.st15{fill:url(#SVGID_4_);}
	.st16{fill:url(#SVGID_5_);}
	.st17{fill:url(#SVGID_6_);}
	.st18{fill:url(#SVGID_7_);}
	.st19{fill:url(#SVGID_8_);}
	.st20{fill:#6FCCD8;}
	.st21{fill:url(#SVGID_9_);}
	.st22{fill:#FFFFFF;}
	.st23{fill:url(#SVGID_10_);}
	.st24{fill:url(#SVGID_11_);}
	.st25{fill:url(#SVGID_12_);}
	.st26{fill:url(#SVGID_13_);}
	.st27{fill:url(#SVGID_14_);}
	.st28{fill:url(#SVGID_15_);}
	.st29{fill:#774098;}
	.st30{fill:#6A2F8F;}
	.st31{fill:#774098;stroke:#6A2F8F;stroke-width:2;stroke-miterlimit:10;}
	.st32{opacity:0.15;}
	.st33{filter:url(#Adobe_OpacityMaskFilter);}
	.st34{mask:url(#SVGID_16_);}
	.st35{fill:#F15E6D;}
	.st36{filter:url(#Adobe_OpacityMaskFilter_1_);}
	.st37{mask:url(#SVGID_17_);}
	.st38{fill:url(#SVGID_18_);}
	.st39{filter:url(#Adobe_OpacityMaskFilter_2_);}
	.st40{mask:url(#SVGID_19_);}
	.st41{filter:url(#Adobe_OpacityMaskFilter_3_);}
	.st42{mask:url(#SVGID_20_);}
	.st43{fill:url(#SVGID_21_);}
	.st44{filter:url(#Adobe_OpacityMaskFilter_4_);}
	.st45{mask:url(#SVGID_22_);}
	.st46{filter:url(#Adobe_OpacityMaskFilter_5_);}
	.st47{mask:url(#SVGID_23_);}
	.st48{fill:url(#SVGID_24_);}
	.st49{filter:url(#Adobe_OpacityMaskFilter_6_);}
	.st50{mask:url(#SVGID_25_);}
	.st51{filter:url(#Adobe_OpacityMaskFilter_7_);}
	.st52{mask:url(#SVGID_26_);}
	.st53{fill:url(#SVGID_27_);}
	.st54{filter:url(#Adobe_OpacityMaskFilter_8_);}
	.st55{mask:url(#SVGID_28_);}
	.st56{filter:url(#Adobe_OpacityMaskFilter_9_);}
	.st57{mask:url(#SVGID_29_);}
	.st58{fill:url(#SVGID_30_);}
	.st59{filter:url(#Adobe_OpacityMaskFilter_10_);}
	.st60{mask:url(#SVGID_31_);}
	.st61{filter:url(#Adobe_OpacityMaskFilter_11_);}
	.st62{mask:url(#SVGID_32_);}
	.st63{fill:url(#SVGID_33_);}
	.st64{filter:url(#Adobe_OpacityMaskFilter_12_);}
	.st65{mask:url(#SVGID_34_);}
	.st66{filter:url(#Adobe_OpacityMaskFilter_13_);}
	.st67{mask:url(#SVGID_35_);}
	.st68{fill:url(#SVGID_36_);}
	.st69{filter:url(#Adobe_OpacityMaskFilter_14_);}
	.st70{mask:url(#SVGID_37_);}
	.st71{filter:url(#Adobe_OpacityMaskFilter_15_);}
	.st72{mask:url(#SVGID_38_);}
	.st73{fill:url(#SVGID_39_);}
	.st74{filter:url(#Adobe_OpacityMaskFilter_16_);}
	.st75{mask:url(#SVGID_40_);}
	.st76{filter:url(#Adobe_OpacityMaskFilter_17_);}
	.st77{mask:url(#SVGID_41_);}
	.st78{fill:url(#SVGID_42_);}
	.st79{filter:url(#Adobe_OpacityMaskFilter_18_);}
	.st80{mask:url(#SVGID_43_);}
	.st81{filter:url(#Adobe_OpacityMaskFilter_19_);}
	.st82{mask:url(#SVGID_44_);}
	.st83{fill:url(#SVGID_45_);}
	.st84{filter:url(#Adobe_OpacityMaskFilter_20_);}
	.st85{mask:url(#SVGID_46_);}
	.st86{filter:url(#Adobe_OpacityMaskFilter_21_);}
	.st87{mask:url(#SVGID_47_);}
	.st88{fill:url(#SVGID_48_);}
	.st89{filter:url(#Adobe_OpacityMaskFilter_22_);}
	.st90{mask:url(#SVGID_49_);}
	.st91{filter:url(#Adobe_OpacityMaskFilter_23_);}
	.st92{mask:url(#SVGID_50_);}
	.st93{fill:url(#SVGID_51_);}
	.st94{filter:url(#Adobe_OpacityMaskFilter_24_);}
	.st95{mask:url(#SVGID_52_);}
	.st96{filter:url(#Adobe_OpacityMaskFilter_25_);}
	.st97{mask:url(#SVGID_53_);}
	.st98{fill:url(#SVGID_54_);}
	.st99{filter:url(#Adobe_OpacityMaskFilter_26_);}
	.st100{mask:url(#SVGID_55_);}
	.st101{filter:url(#Adobe_OpacityMaskFilter_27_);}
	.st102{mask:url(#SVGID_56_);}
	.st103{fill:url(#SVGID_57_);}
	.st104{fill:#1B191D;}
	.st105{fill:#1B191D;stroke:#00729F;stroke-width:4;stroke-miterlimit:10;}
	.st106{fill:#FAAF43;}
	.st107{fill:url(#SVGID_58_);}
	.st108{fill:url(#SVGID_59_);}
	.st109{fill:url(#SVGID_60_);}
	.st110{fill:url(#SVGID_61_);}
	.st111{fill:url(#SVGID_62_);}
	.st112{fill:url(#SVGID_63_);}
	.st113{fill:url(#SVGID_64_);}
	.st114{fill:url(#SVGID_65_);}
	.st115{fill:url(#SVGID_66_);}
	.st116{fill:url(#SVGID_67_);}
	.st117{fill:url(#SVGID_68_);}
	.st118{fill:url(#SVGID_69_);}
	.st119{fill:url(#SVGID_70_);}
	.st120{fill:url(#SVGID_71_);}
	.st121{fill:url(#SVGID_72_);}
	.st122{filter:url(#Adobe_OpacityMaskFilter_28_);}
	.st123{mask:url(#SVGID_73_);}
	.st124{filter:url(#Adobe_OpacityMaskFilter_29_);}
	.st125{mask:url(#SVGID_74_);}
	.st126{fill:url(#SVGID_75_);}
</style>
<g>
	
		<radialGradient id="SVGID_1_" cx="138.5423" cy="228.8224" r="136.4529" gradientTransform="matrix(1.043 0 0 0.9472 52.3603 -10.9887)" gradientUnits="userSpaceOnUse">
		<stop  offset="0" style="stop-color:#A8DCDB"/>
		<stop  offset="0.7847" style="stop-color:#BDDFF6"/>
	</radialGradient>
	<path class="st0" d="M333.7,196.2c0,77.6-53.8,143.3-139.2,143.3S60.1,273.8,60.1,196.2S109,71.4,194.4,71.4
		S333.7,118.6,333.7,196.2z"/>
	<g>
		<path class="st1" d="M119.1,312.2c-4,8.2-8.1,16.3-12.1,24.5c-1.3,2.7-2.7,5.5-3,8.5c-0.6,5.7,2.8,11.2,7.4,14.5
			c4.6,3.4,10.2,4.9,15.8,6.1c7.5,1.6,16.2,2.2,21.9-3c2.9-2.6,4.5-6.4,5.9-10.1c2.5-6.9,4.4-13.9,5.8-21.1L119.1,312.2z"/>
		<g>
			<path class="st1" d="M118.1,311.6c-4.4,8.8-9,17.6-13.1,26.5c-1.8,3.8-2.9,7.8-1.8,12c0.9,3.7,3.2,7.1,6.1,9.6
				c6.2,5.3,15,7.3,22.8,8.2c7.5,0.9,15.5-0.3,20.2-6.8c2.8-3.9,4.3-8.9,5.7-13.4c1.6-5.2,2.9-10.4,3.9-15.7
				c0.1-0.5-0.1-1.2-0.6-1.4c-4.7-2.2-9.3-4.4-14-6.5c-7.5-3.5-14.9-6.9-22.4-10.4c-1.7-0.8-3.5-1.6-5.2-2.4
				c-1.4-0.7-2.7,1.5-1.3,2.2c4.7,2.2,9.3,4.4,14,6.5c7.5,3.5,14.9,6.9,22.4,10.4c1.7,0.8,3.5,1.6,5.2,2.4c-0.2-0.5-0.4-0.9-0.6-1.4
				c-0.8,4.3-1.8,8.5-3,12.7c-1.2,4-2.4,8.1-4.1,11.9c-1.5,3.4-3.7,6.3-7.1,8c-3.1,1.5-6.7,1.8-10.1,1.7c-3.7-0.2-7.3-0.9-10.8-1.7
				c-3.8-0.9-7.6-2.2-11-4.3c-3.1-2-5.8-4.7-7.2-8.2c-1.6-3.8-1.1-7.6,0.5-11.2c2-4.5,4.4-8.9,6.6-13.3c2.3-4.7,4.6-9.3,7-14
				C120.9,311.4,118.8,310.1,118.1,311.6z"/>
		</g>
	</g>
	<g>
		<path class="st1" d="M207.4,317c-1.8,8.9-3.5,17.9-5.3,26.8c-0.6,3-1.2,6-0.7,9c0.9,5.6,5.6,10,10.9,12.1c5.3,2,11.2,2.1,16.8,1.7
			c7.6-0.5,16.2-2.2,20.4-8.6c2.1-3.3,2.7-7.4,3-11.3c0.6-7.3,0.6-14.6,0-21.9L207.4,317z"/>
		<g>
			<path class="st1" d="M206.2,316.7c-1,5-1.9,9.9-2.9,14.9c-0.9,4.8-2,9.7-2.8,14.5c-0.7,4.2-0.6,8.3,1.7,12c1.9,3.1,4.8,5.5,8,7.1
				c7.4,3.6,16.7,3.2,24.7,2c7.1-1.1,14.3-4.1,17.2-11.2c1.9-4.5,2-9.7,2.2-14.5c0.2-5.6,0.1-11.2-0.3-16.8c0-0.5-0.4-1.1-0.9-1.2
				c-5.1-0.9-10.2-1.7-15.2-2.6c-8.1-1.4-16.2-2.8-24.3-4.2c-1.9-0.3-3.8-0.6-5.6-1c-1.6-0.3-2.2,2.1-0.7,2.4
				c5.1,0.9,10.2,1.7,15.2,2.6c8.1,1.4,16.2,2.8,24.3,4.2c1.9,0.3,3.8,0.6,5.6,1c-0.3-0.4-0.6-0.8-0.9-1.2c0.4,4.5,0.5,9.1,0.4,13.6
				c-0.1,4.2-0.2,8.6-1,12.8c-0.7,3.6-2.2,6.9-5,9.2c-2.6,2.1-5.8,3.2-9,3.9c-3.4,0.8-7,1-10.5,1.1c-4.1,0.1-8.3-0.1-12.3-1.3
				c-3.3-1.1-6.5-3-8.7-5.8c-2.5-3.1-3.1-6.7-2.6-10.6c0.6-5,1.9-10.1,2.9-15.1c1-5.1,2-10.2,3-15.4
				C208.9,315.8,206.5,315.1,206.2,316.7z"/>
		</g>
	</g>
	<g>
		<g>
			<g>
				<path class="st3" d="M172.1,59.7c2.4,3.5,4.3,7.6,6.2,11.4c1.1,2.3,2.2,4.6,3.2,7c0.7,1.6,1.4,3.3,1.7,5
					c0.3,1.6,2.7,0.9,2.4-0.7c-0.3-1.8-1.1-3.5-1.7-5.1c-1-2.4-2.1-4.8-3.3-7.2c-1.9-3.9-3.8-8.1-6.3-11.7
					C173.4,57.2,171.2,58.4,172.1,59.7L172.1,59.7z"/>
			</g>
		</g>
		<g>
			<g>
				<path class="st3" d="M186.3,54.8c1,9.2,1.8,18.5,2.8,27.7c0.2,1.6,2.7,1.6,2.5,0c-1-9.2-1.8-18.5-2.8-27.7
					C188.6,53.2,186.1,53.2,186.3,54.8L186.3,54.8z"/>
			</g>
		</g>
		<g>
			<g>
				<path class="st3" d="M197.9,81.8c-0.4-1.5,0-3.4,0.2-4.9c0.4-2.5,1-4.9,1.8-7.4c0.7-2.4,1.5-4.8,2.5-7.2
					c0.6-1.6,1.3-3.2,2.3-4.6c1-1.3-1.2-2.5-2.2-1.3c-1.2,1.5-1.9,3.4-2.6,5.2c-1,2.4-1.8,4.9-2.5,7.5c-0.7,2.5-1.4,5-1.8,7.6
					c-0.3,1.9-0.6,3.9-0.1,5.8C195.8,84,198.3,83.4,197.9,81.8L197.9,81.8z"/>
			</g>
		</g>
	</g>
	<g>
		<path class="st1" d="M83.8,260.8c-5.7,7.1-11.5,14.1-17.2,21.2c-1.9,2.3-3.8,4.7-5.1,7.4c-2.3,5-1.7,9.9,0.6,13
			c2.3,3.1,5.9,4.7,9.7,5.8c5,1.6,11.3,2.4,17.2-1.9c3.1-2.2,5.5-5.5,7.8-8.7c4.2-6,8-12.2,11.4-18.4L83.8,260.8z"/>
		<g>
			<path class="st1" d="M83,259.9c-5.5,6.8-11,13.5-16.5,20.3c-2.5,3.1-5.1,6.1-6.6,9.8c-1.3,3.4-1.6,7.3-0.2,10.8
				c2.5,6.1,9.8,8.8,15.8,9.8c3.3,0.5,6.7,0.4,9.8-0.8c3.6-1.4,6.5-3.9,8.9-6.8c2.8-3.4,5.3-7.2,7.7-11c2.5-4,4.9-8,7.2-12.1
				c0.4-0.6,0.1-1.3-0.4-1.7c-7.1-5.4-14.2-10.7-21.3-16.1c-1-0.8-2-1.5-3-2.3c-1.3-1-2.5,1.2-1.3,2.2c7.1,5.4,14.2,10.7,21.3,16.1
				c1,0.8,2,1.5,3,2.3c-0.1-0.6-0.3-1.1-0.4-1.7c-3.6,6.6-7.5,13-11.9,19.2c-2,2.9-4.3,5.8-7.2,7.9c-2.7,1.9-5.8,2.8-9.1,2.8
				c-3,0-5.9-0.9-8.7-1.9c-2.9-1-5.8-2.6-7.5-5.2c-1.8-2.9-1.8-6.5-0.8-9.7c1.1-3.4,3.6-6.3,5.8-9c5.6-6.9,11.3-13.9,16.9-20.8
				C85.7,260.5,84,258.7,83,259.9z"/>
		</g>
	</g>
	<g>
		<g>
			<path class="st1" d="M144.6,88.8c-0.1-3.8-0.3-7.6-0.4-11.4c0-1.3-0.1-2.5-0.4-3.7c-0.6-2.2-2.2-3.6-3.8-3.9
				c-1.6-0.4-3.1,0.2-4.6,0.8c-2,0.9-4.2,2.3-4.9,5.3c-0.3,1.5-0.2,3.2,0,4.9c0.3,3,0.8,6,1.5,8.9L144.6,88.8z"/>
			<g>
				<path class="st1" d="M145.9,88.8c-0.1-3.9-0.3-7.8-0.4-11.7c-0.1-3-0.7-6.2-3.6-7.9c-2.7-1.6-6.2-0.4-8.7,1.2
					c-2.6,1.6-4,4.2-4.1,7.3c-0.1,2,0.3,4.1,0.5,6.1c0.3,2.1,0.7,4.2,1.2,6.3c0.1,0.5,0.7,1,1.2,0.9c4.2-0.3,8.4-0.6,12.7-0.9
					c1.6-0.1,1.6-2.6,0-2.5c-4.2,0.3-8.4,0.6-12.7,0.9c0.4,0.3,0.8,0.6,1.2,0.9c-0.4-2-0.8-3.9-1.1-5.9c-0.3-1.9-0.6-3.9-0.5-5.8
					c0.1-3.3,2.4-5.3,5.4-6.3c1.5-0.5,3.1-0.6,4.3,0.5c1.3,1.2,1.5,2.9,1.6,4.6c0.2,4.1,0.3,8.3,0.4,12.4
					C143.4,90.4,145.9,90.4,145.9,88.8z"/>
			</g>
		</g>
		<g>
			<path class="st9" d="M142.6,90.1c-0.1-2.8-0.2-5.6-0.3-8.4c0-0.9-0.1-1.9-0.3-2.7c-0.5-1.6-1.6-2.6-2.7-2.9
				c-1.1-0.3-2.3,0.1-3.3,0.6c-1.5,0.6-3,1.7-3.5,3.9c-0.2,1.1-0.2,2.4,0,3.6c0.2,2.2,0.6,4.4,1.1,6.6L142.6,90.1z"/>
			<g>
				<path class="st9" d="M143.8,90.1c-0.1-2.9-0.2-5.8-0.3-8.7c-0.1-2.3-0.6-4.8-2.8-6.1c-2.1-1.2-4.7-0.4-6.6,0.9
					c-2,1.3-3,3.3-3.1,5.6c-0.1,1.5,0.2,3.1,0.4,4.6c0.2,1.6,0.5,3.1,0.8,4.6c0.1,0.5,0.7,1,1.2,0.9c3-0.2,6.1-0.4,9.1-0.6
					c1.6-0.1,1.6-2.6,0-2.5c-3,0.2-6.1,0.4-9.1,0.6c0.4,0.3,0.8,0.6,1.2,0.9c-0.6-2.8-1.3-5.8-1.2-8.6c0.1-2.3,1.6-3.6,3.6-4.3
					c1-0.3,2-0.5,2.8,0.3c0.9,0.8,1,2,1.1,3.1c0.2,3.1,0.2,6.1,0.3,9.2C141.4,91.7,143.9,91.7,143.8,90.1z"/>
			</g>
		</g>
	</g>
	<g>
		<g>
			<path class="st1" d="M238.3,90.7c0.1-3.8,0.3-7.6,0.4-11.4c0-1.3,0.1-2.5,0.4-3.7c0.6-2.2,2.2-3.6,3.8-3.9
				c1.6-0.4,3.1,0.2,4.6,0.8c2,0.9,4.2,2.3,4.9,5.3c0.3,1.5,0.2,3.2,0,4.9c-0.3,3-0.8,6-1.5,8.9L238.3,90.7z"/>
			<g>
				<path class="st1" d="M239.5,90.7c0.1-4.1,0.2-8.3,0.4-12.4c0.1-1.7,0.4-3.4,1.6-4.6c1.2-1.2,2.8-1,4.3-0.5c3,1,5.3,3,5.4,6.3
					c0.1,1.9-0.2,3.9-0.5,5.8c-0.3,2-0.7,3.9-1.1,5.9c0.4-0.3,0.8-0.6,1.2-0.9c-4.2-0.3-8.4-0.6-12.7-0.9c-1.6-0.1-1.6,2.4,0,2.5
					c4.2,0.3,8.4,0.6,12.7,0.9c0.5,0,1.1-0.4,1.2-0.9c0.8-3.6,1.5-7.3,1.7-11c0.2-3.1-0.7-6.1-3.2-8.1c-2.3-1.8-5.8-3.3-8.6-2.2
					c-2.9,1.1-4.2,4-4.5,7c-0.4,4.3-0.3,8.8-0.5,13.1C237,92.3,239.5,92.3,239.5,90.7z"/>
			</g>
		</g>
		<g>
			<path class="st9" d="M240.3,92.1c0.1-2.8,0.2-5.6,0.3-8.4c0-0.9,0.1-1.9,0.3-2.7c0.5-1.6,1.6-2.6,2.7-2.9
				c1.1-0.3,2.3,0.1,3.3,0.6c1.5,0.6,3,1.7,3.5,3.9c0.2,1.1,0.2,2.4,0,3.6c-0.2,2.2-0.6,4.4-1.1,6.6L240.3,92.1z"/>
			<g>
				<path class="st9" d="M241.6,92.1c0.1-3.1,0.2-6.1,0.3-9.2c0.1-1.1,0.2-2.3,1.1-3.1c0.8-0.8,1.8-0.7,2.8-0.3
					c2,0.7,3.5,2.1,3.6,4.3c0.1,2.8-0.5,5.8-1.2,8.6c0.4-0.3,0.8-0.6,1.2-0.9c-3-0.2-6.1-0.4-9.1-0.6c-1.6-0.1-1.6,2.4,0,2.5
					c3,0.2,6.1,0.4,9.1,0.6c0.5,0,1.1-0.4,1.2-0.9c0.6-2.7,1.1-5.5,1.2-8.2c0.1-2.4-0.5-4.6-2.4-6.2c-1.7-1.4-4.4-2.5-6.6-1.7
					c-2.3,0.9-3.3,3.2-3.5,5.5c-0.3,3.2-0.2,6.5-0.4,9.7C239,93.7,241.5,93.7,241.6,92.1z"/>
			</g>
		</g>
	</g>
	<g>
		<g>
			<path class="st3" d="M179.4,299.7c0.4-2.8,2.6-4.6,4.9-6c2.2-1.3,4.3-1.9,6.9-1.5c4.4,0.6,8.6,3.9,9.6,8.4
				c0.7,3.1,5.5,1.8,4.8-1.3c-1.5-6.7-7.8-11.4-14.5-12.1c-3.4-0.4-6.7,0.6-9.6,2.3c-3.2,1.9-6.4,5-7,8.9c-0.2,1.3,0.3,2.7,1.7,3.1
				C177.5,301.8,179.2,301,179.4,299.7L179.4,299.7z"/>
		</g>
	</g>
	<g>
		<g>
			<path class="st20" d="M248.2,112.9c0,0.7,0.3,1.4,0.9,1.9c0.5,0.4,1.5,1,2.1,1.1c1.4,0.3,2.7-0.3,3.7-1.4c0.4-0.5,0.9-1.6,1-2.2
				c0.2-0.7,0-1.5-0.5-2.1c-1.6-1.9-3.9-3-5.6-4.8C249.9,105.6,248.3,110.4,248.2,112.9z"/>
			<g>
				<path class="st20" d="M246.9,112.9c0,1.8,1.2,3.1,2.8,3.8c1.6,0.8,3.4,0.7,4.8-0.2c1.3-0.9,2.3-2.2,2.6-3.8
					c0.2-0.9,0.1-1.9-0.4-2.7c-0.4-0.7-1.1-1.3-1.7-1.8c-1.4-1.2-3-2.2-4.3-3.5c-0.7-0.7-1.8-0.3-2.1,0.6
					C247.9,107.7,247.1,110.3,246.9,112.9c0,0.7,0.6,1.2,1.2,1.2c0.7,0,1.2-0.6,1.2-1.2c0-0.2,0-0.3,0-0.5c0-0.1,0-0.2,0-0.1
					c0-0.1,0-0.2,0-0.2c0.1-0.4,0.1-0.8,0.2-1.1c0.2-0.8,0.4-1.6,0.6-2.4c0.2-0.9,0.5-1.8,0.8-2.7c-0.7,0.2-1.4,0.4-2.1,0.6
					c1.2,1.2,2.6,2.1,3.9,3.1c0.6,0.5,1.4,1,1.7,1.7c0.3,0.5,0.2,0.9,0,1.5c-0.4,1.1-1.4,2.1-2.7,2.1c-0.6,0-1.1-0.3-1.6-0.6
					c-0.4-0.3-0.8-0.6-0.8-1.2C249.5,111.3,247,111.3,246.9,112.9z"/>
			</g>
		</g>
		<g>
			<path class="st20" d="M281.4,125.9c0,0.1,0,0.3,0.1,0.4c0.1,0.1,0.2,0.2,0.3,0.3c0.2,0.1,0.5,0.1,0.7-0.1
				c0.1-0.1,0.2-0.2,0.3-0.3c0.1-0.1,0.1-0.3,0-0.4c-0.2-0.4-0.6-0.7-0.8-1.1C282,124.7,281.5,125.5,281.4,125.9z"/>
			<g>
				<path class="st20" d="M280.2,125.6c-0.2,0.6,0.1,1.3,0.6,1.8c0.2,0.2,0.5,0.4,0.8,0.5c0.3,0.1,0.7,0.1,1,0
					c0.2,0,0.3-0.1,0.5-0.2c0.1-0.1,0.3-0.2,0.4-0.3c0,0,0.1-0.1,0.1-0.1c0.1-0.1,0.2-0.2,0.3-0.4c0.1-0.1,0.1-0.3,0.2-0.4
					c0,0,0-0.1,0-0.1c0-0.1,0.1-0.3,0-0.4c0-0.3-0.1-0.7-0.3-0.9c-0.2-0.3-0.5-0.6-0.7-0.9c0.1,0.1,0.1,0.2,0.2,0.3
					c-0.1-0.1-0.1-0.2-0.2-0.2c-0.2-0.4-0.6-0.6-1.1-0.6c-0.4,0-0.9,0.2-1.1,0.6c-0.1,0.2-0.2,0.3-0.3,0.5
					C280.5,124.8,280.3,125.2,280.2,125.6c-0.1,0.3,0,0.7,0.1,1c0.2,0.3,0.4,0.5,0.7,0.6c0.3,0.1,0.7,0.1,1-0.1
					c0.3-0.2,0.5-0.4,0.6-0.7c0-0.1,0.1-0.2,0.1-0.3c0,0.1-0.1,0.2-0.1,0.3c0.1-0.3,0.3-0.7,0.5-1c-0.7,0-1.4,0-2.2,0
					c0.2,0.4,0.5,0.7,0.8,1c-0.1-0.1-0.1-0.2-0.2-0.3c0.1,0.1,0.2,0.2,0.2,0.4c0-0.1-0.1-0.2-0.1-0.3c0,0,0,0.1,0,0.1
					c0-0.1,0-0.2,0-0.3c0,0,0,0.1,0,0.1c0-0.1,0-0.2,0-0.3c0,0,0,0.1,0,0.1c0-0.1,0.1-0.2,0.1-0.3c0,0.1-0.1,0.2-0.1,0.2
					c0.1-0.1,0.1-0.2,0.2-0.3c0,0-0.1,0.1-0.1,0.1c0.1-0.1,0.2-0.1,0.3-0.2c-0.1,0-0.1,0.1-0.2,0.1c0.1,0,0.2-0.1,0.3-0.1
					c-0.1,0-0.1,0-0.2,0.1c0.1,0,0.2,0,0.3,0c-0.1,0-0.1,0-0.2,0c0.1,0,0.2,0,0.3,0c-0.1,0-0.1,0-0.2-0.1c0.1,0,0.2,0.1,0.3,0.1
					c0,0-0.1-0.1-0.1-0.1c0.1,0.1,0.2,0.1,0.3,0.2c-0.1-0.1-0.1-0.1-0.2-0.2c0.1,0.1,0.1,0.2,0.2,0.3c0,0-0.1-0.1-0.1-0.1
					c0,0.1,0.1,0.2,0.1,0.3c0,0,0-0.1,0-0.1c0,0.1,0,0.2,0,0.3c0,0,0-0.1,0-0.1c0,0.1,0,0.2,0,0.3c0,0,0,0,0-0.1
					c0.1-0.3,0-0.7-0.1-1c-0.2-0.3-0.4-0.5-0.7-0.6c-0.3-0.1-0.7-0.1-1,0.1C280.5,125,280.3,125.2,280.2,125.6z"/>
			</g>
		</g>
		<g>
			<path class="st20" d="M228.9,134.3c-0.1,0.1-0.1,0.2-0.1,0.4c0,0.1,0.1,0.3,0.2,0.4c0.2,0.2,0.4,0.3,0.7,0.2
				c0.1,0,0.3-0.1,0.4-0.2c0.1-0.1,0.2-0.2,0.2-0.3c0-0.4-0.2-0.9-0.3-1.3C229.9,133.4,229.2,133.9,228.9,134.3z"/>
			<g>
				<path class="st20" d="M228,133.4c-0.2,0.2-0.3,0.4-0.4,0.7c-0.1,0.2-0.1,0.3-0.1,0.5c0,0.4,0.1,0.6,0.3,0.9
					c0,0.1,0.1,0.1,0.1,0.2c0.2,0.3,0.3,0.4,0.6,0.6c0.1,0.1,0.3,0.1,0.4,0.2c0.1,0,0.2,0.1,0.3,0.1c0.1,0,0.2,0,0.3,0
					c0.1,0,0.3,0,0.4-0.1c0,0,0.1,0,0.1,0c0.2-0.1,0.4-0.2,0.6-0.3c0.3-0.2,0.4-0.3,0.5-0.5c0,0,0-0.1,0.1-0.1
					c0.1-0.1,0.1-0.2,0.2-0.4c0-0.1,0-0.3,0.1-0.4c0,0,0-0.1,0-0.1c0-0.2,0-0.4-0.1-0.5c-0.1-0.4-0.2-0.7-0.3-1
					c-0.1-0.2-0.2-0.4-0.3-0.6c-0.1-0.1-0.2-0.2-0.4-0.3c-0.1-0.1-0.3-0.1-0.5-0.1c-0.2,0-0.4,0.1-0.6,0.2c-0.2,0.2-0.4,0.3-0.7,0.5
					C228.4,133,228.2,133.2,228,133.4c-0.1,0.1-0.2,0.2-0.3,0.4c-0.1,0.1-0.1,0.3-0.1,0.5c0,0.3,0.1,0.7,0.4,0.9
					c0.2,0.2,0.6,0.4,0.9,0.4c0.3,0,0.7-0.1,0.9-0.4c0.2-0.2,0.5-0.5,0.7-0.6c-0.1,0.1-0.2,0.1-0.3,0.2c0.1-0.1,0.2-0.2,0.3-0.2
					c-0.6-0.2-1.2-0.5-1.8-0.7c0.1,0.4,0.2,0.8,0.3,1.2c0-0.1,0-0.2,0-0.3c0,0.1,0,0.1,0,0.2c0-0.1,0-0.2,0-0.3c0,0,0,0.1,0,0.1
					c0-0.1,0.1-0.2,0.1-0.3c0,0,0,0.1-0.1,0.1c0.1-0.1,0.1-0.2,0.2-0.3c0,0,0,0.1-0.1,0.1c0.1-0.1,0.2-0.1,0.3-0.2
					c-0.1,0.1-0.2,0.1-0.3,0.2c0.1,0,0.2-0.1,0.3-0.1c-0.1,0-0.1,0-0.2,0c0.1,0,0.2,0,0.3,0c-0.1,0-0.1,0-0.2,0c0.1,0,0.2,0,0.3,0
					c-0.1,0-0.1,0-0.2-0.1c0.1,0,0.2,0.1,0.3,0.1c-0.1,0-0.1-0.1-0.1-0.1c0.1,0.1,0.2,0.1,0.3,0.2c0,0-0.1-0.1-0.1-0.1
					c0.1,0.1,0.1,0.2,0.2,0.3c0-0.1-0.1-0.1-0.1-0.2c0,0.1,0.1,0.2,0.1,0.3c0-0.1,0-0.1-0.1-0.2c0,0.1,0,0.2,0,0.3c0,0,0-0.1,0-0.1
					c0,0.1,0,0.2,0,0.3c0,0,0-0.1,0-0.1c0,0.1-0.1,0.2-0.1,0.3c0,0,0,0,0-0.1c-0.1,0.1-0.1,0.2-0.2,0.3c0,0,0,0,0,0
					c0.1-0.1,0.2-0.2,0.3-0.4c0.1-0.1,0.1-0.3,0.1-0.5c0-0.3-0.1-0.7-0.4-0.9c-0.2-0.2-0.6-0.4-0.9-0.4c-0.1,0-0.2,0-0.3,0
					C228.3,133.1,228.1,133.3,228,133.4z"/>
			</g>
		</g>
		<g>
			<path class="st20" d="M130.5,126.8c0,0.7-0.3,1.4-0.9,1.9c-0.5,0.4-1.5,1-2.1,1.1c-1.4,0.3-2.7-0.3-3.7-1.4
				c-0.4-0.5-0.9-1.6-1-2.2c-0.2-0.7,0-1.5,0.5-2.1c1.6-1.9,3.9-3,5.6-4.8C128.8,119.4,130.4,124.3,130.5,126.8z"/>
			<g>
				<path class="st20" d="M129.3,126.8c0,0.6-0.4,1-0.8,1.2c-0.5,0.4-1,0.6-1.6,0.6c-1.3,0-2.3-1-2.7-2.1c-0.2-0.5-0.3-1,0-1.5
					c0.4-0.6,1.1-1.2,1.7-1.7c1.3-1,2.7-1.9,3.9-3.1c-0.7-0.2-1.4-0.4-2.1-0.6c0.3,0.9,0.5,1.8,0.8,2.7c0.2,0.8,0.4,1.6,0.6,2.3
					c0.1,0.4,0.2,0.8,0.2,1.1c0,0.1,0,0.2,0,0.2c0,0.2,0-0.2,0,0.1C129.2,126.4,129.2,126.6,129.3,126.8c0,0.7,0.5,1.2,1.2,1.2
					c0.6,0,1.3-0.6,1.2-1.2c-0.2-2.6-1-5.2-1.7-7.7c-0.3-0.9-1.4-1.2-2.1-0.6c-1.2,1.2-2.5,2.1-3.8,3.1c-1.3,1.1-2.8,2.3-2.7,4.2
					c0.1,3.3,3.6,6.3,6.9,5.1c1.8-0.7,3.5-2.1,3.5-4.1C131.7,125.2,129.2,125.2,129.3,126.8z"/>
			</g>
		</g>
		<g>
			<path class="st20" d="M116.4,103.9c0,0.3-0.1,0.7-0.3,0.9c-0.2,0.2-0.6,0.5-0.9,0.6c-0.7,0.2-1.3,0-1.8-0.5
				c-0.2-0.2-0.5-0.7-0.6-1c-0.1-0.3-0.1-0.7,0.1-1c0.7-0.9,1.7-1.5,2.4-2.4C115.4,100.6,116.3,102.8,116.4,103.9z"/>
			<g>
				<path class="st20" d="M115.2,103.9C115.2,104,115.1,104.3,115.2,103.9C115.2,104.2,115.3,103.7,115.2,103.9
					C115.1,104,115.2,104,115.2,103.9C115.2,103.9,115.2,103.9,115.2,103.9c0,0.1-0.1,0.1-0.1,0.2c0.2-0.1,0.2-0.1,0.1-0.1
					c0,0-0.1,0.1-0.1,0.1c-0.1,0-0.1,0.1-0.2,0.1c0,0-0.1,0-0.1,0.1c0.2-0.1,0.2-0.1,0.1-0.1c-0.1,0-0.1,0-0.2,0c0.1,0,0.1,0,0.2,0
					c0,0-0.3,0-0.3,0c0.2,0,0.2,0,0.1,0c0,0,0,0-0.1,0c0,0-0.1,0-0.1,0c0.2,0.1,0.2,0.1,0.1,0c-0.1,0-0.1-0.1-0.2-0.1
					c-0.1-0.1-0.1-0.1,0.1,0.1c0,0-0.1-0.1-0.1-0.1c-0.2-0.1,0,0,0,0.1c-0.1-0.2-0.2-0.3-0.3-0.5c-0.1-0.3,0.1,0.2,0,0
					c0,0,0-0.1,0-0.1c0-0.1,0-0.1,0,0c0,0.1,0,0.1,0,0c0-0.1,0-0.1,0,0.1c0-0.2-0.2,0.2,0,0c0.2-0.3-0.1,0.2,0,0
					c0.1-0.1,0.1-0.1,0.2-0.2c0.1-0.1,0.3-0.3,0.4-0.4c0.6-0.5,1.2-1,1.6-1.6c-0.7-0.2-1.4-0.4-2.1-0.6c0.4,1.1,0.9,2.2,1.1,3.3
					c0,0.3,0.3,0.6,0.6,0.7c0.3,0.2,0.7,0.2,1,0.1c0.3-0.1,0.6-0.3,0.7-0.6c0.2-0.3,0.2-0.6,0.1-1c-0.2-1.1-0.6-2.3-1.1-3.3
					c-0.2-0.4-0.4-0.7-0.9-0.9c-0.4-0.1-0.9,0-1.2,0.3c-0.5,0.6-1.1,1-1.6,1.5c-0.7,0.7-1.4,1.4-1.3,2.5c0,1,0.7,1.9,1.4,2.5
					c0.9,0.6,2,0.7,2.9,0.3c1-0.4,1.9-1.4,1.7-2.6c0-0.3-0.1-0.6-0.4-0.9c-0.2-0.2-0.6-0.4-0.9-0.4
					C115.8,102.7,115.1,103.2,115.2,103.9z"/>
			</g>
		</g>
		<g>
			<path class="st20" d="M158.8,105.4c0.1,0.2,0.2,0.4,0.1,0.6c0,0.2-0.2,0.5-0.3,0.7c-0.3,0.3-0.7,0.4-1.2,0.3
				c-0.2,0-0.5-0.2-0.7-0.3c-0.2-0.1-0.3-0.4-0.3-0.6c0-0.7,0.4-1.4,0.5-2.2C157,103.9,158.3,104.8,158.8,105.4z"/>
			<g>
				<path class="st20" d="M157.9,106.3C157.9,106.3,157.9,106.3,157.9,106.3c0,0-0.1-0.1-0.2-0.2
					C157.8,106.1,157.8,106.1,157.9,106.3c-0.1-0.2-0.2-0.3-0.2-0.4c0,0.1,0,0.1,0.1,0.2c0-0.1,0-0.2,0-0.3c0,0.1,0,0.2,0,0.2
					c0-0.1,0-0.2,0-0.3c0,0.1-0.1,0.2-0.1,0.3c0-0.1,0.1-0.2,0.1-0.3c-0.1,0.1-0.1,0.2-0.2,0.4c0.1-0.1,0.1-0.2,0.2-0.3
					c0,0.1-0.1,0.1-0.2,0.2c0.1-0.1,0.2-0.1,0.3-0.2c-0.1,0.1-0.2,0.1-0.2,0.1c0.1,0,0.2-0.1,0.3-0.1c-0.1,0-0.2,0.1-0.3,0.1
					c0.1,0,0.2,0,0.3,0c-0.1,0-0.3,0-0.4,0c0.1,0,0.2,0,0.3,0c-0.1,0-0.2,0-0.3-0.1c0.1,0,0.2,0.1,0.3,0.1c-0.2-0.1-0.3-0.2-0.4-0.3
					c0.1,0.1,0.2,0.1,0.3,0.2c0,0-0.1-0.1-0.1-0.1c0.1,0.1,0.1,0.2,0.2,0.3c0-0.1-0.1-0.1-0.1-0.2c0,0.1,0.1,0.2,0.1,0.3
					c0,0,0-0.1,0-0.1C157.8,106,157.8,106.1,157.9,106.3c-0.1-0.2-0.1-0.3-0.1-0.4c0,0.1,0,0.2,0,0.3c0.1-0.7,0.4-1.3,0.5-2
					c-0.6,0.2-1.2,0.5-1.8,0.7c0.2,0.1,0.3,0.3,0.5,0.4c-0.1-0.1-0.2-0.1-0.3-0.2C157.1,105.5,157.5,105.9,157.9,106.3
					c0.2,0.2,0.6,0.4,0.9,0.4c0.3,0,0.7-0.1,0.9-0.4c0.2-0.2,0.4-0.6,0.4-0.9c0-0.3-0.1-0.6-0.4-0.9c-0.3-0.4-0.7-0.7-1.1-1
					c-0.3-0.2-0.6-0.5-0.9-0.7c-0.3-0.2-0.8-0.2-1.1-0.1c-0.3,0.1-0.7,0.4-0.7,0.8c-0.1,0.5-0.3,1-0.4,1.5c-0.1,0.3-0.2,0.7-0.1,1.1
					c0,0.5,0.2,1,0.6,1.3c0.5,0.5,1.2,0.8,1.9,0.8c0.8,0,1.6-0.4,2-1.1c0.2-0.3,0.3-0.7,0.4-1.1c0-0.3,0-0.5,0-0.8
					c-0.1-0.3-0.3-0.6-0.5-0.8c-0.2-0.2-0.6-0.4-0.9-0.4c-0.3,0-0.7,0.1-0.9,0.4c-0.2,0.2-0.4,0.6-0.4,0.9c0,0.1,0,0.2,0,0.3
					C157.6,105.9,157.7,106.1,157.9,106.3z"/>
			</g>
		</g>
		<g>
			<path class="st20" d="M298.9,238.9c0.5,0.5,0.7,1.3,0.6,2c-0.1,0.7-0.5,1.7-0.9,2.3c-0.9,1.1-2.3,1.5-3.8,1.3
				c-0.7-0.1-1.7-0.6-2.2-1c-0.6-0.4-1-1.1-1-1.9c0-2.5,1.1-4.8,1.3-7.3C292.9,234.3,297.2,237.1,298.9,238.9z"/>
			<g>
				<path class="st20" d="M298,239.8c0.6,0.7-0.1,2.3-0.7,2.8c-0.8,0.8-2.2,0.8-3.1,0.3c-0.3-0.1-0.6-0.3-0.9-0.5
					c0.1,0.1-0.2-0.2-0.2-0.2c0,0-0.2-0.2-0.2-0.3c-0.3-0.6,0-1.6,0.1-2.3c0.4-1.8,0.9-3.6,1.1-5.4c-0.6,0.4-1.3,0.7-1.9,1.1
					c0.8,0.5,1.6,1,2.3,1.6c0.7,0.5,1.3,0.9,1.8,1.3C296.9,238.7,297.5,239.2,298,239.8c1.1,1.2,2.9-0.6,1.8-1.8
					c-1.1-1.2-2.5-2.2-3.8-3.1c-0.8-0.6-1.6-1.1-2.4-1.7c-0.9-0.6-1.8,0.2-1.9,1.1c-0.2,1.7-0.7,3.3-1,5c-0.3,1.8-0.5,3.7,1.1,5
					c1.2,1,2.8,1.6,4.3,1.4c1.6-0.2,3.1-1,3.9-2.4c0.9-1.7,1.2-3.7-0.2-5.3c-0.4-0.5-1.3-0.5-1.8,0
					C297.5,238.5,297.6,239.2,298,239.8z"/>
			</g>
		</g>
		<g>
			<path class="st20" d="M79,191.1c0.1,0.7-0.2,1.5-0.8,2c-0.5,0.5-1.4,1.1-2.1,1.2c-1.4,0.4-2.7-0.2-3.8-1.2
				c-0.5-0.5-1-1.5-1.1-2.1c-0.2-0.7-0.1-1.5,0.4-2.1c1.5-2,3.8-3.2,5.4-5C76.9,183.8,78.7,188.7,79,191.1z"/>
			<g>
				<path class="st20" d="M77.7,191.1c0,0.7-0.3,1.1-0.8,1.4c-0.6,0.4-1,0.6-1.6,0.7c-1.3,0-2.3-0.9-2.7-2.1c-0.2-0.5-0.3-1,0-1.5
					c0.4-0.6,1-1.1,1.6-1.6c1.2-1.1,2.6-2.1,3.7-3.3c-0.7-0.2-1.4-0.4-2.1-0.6c0.3,0.9,0.6,1.8,0.9,2.7c0.2,0.8,0.5,1.5,0.7,2.3
					c0.1,0.4,0.2,0.8,0.3,1.1c0,0.2,0.1,0.4,0.1,0.5C77.7,190.9,77.7,190.9,77.7,191.1C77.8,191.4,77.7,190.8,77.7,191.1
					c0.1,0.7,0.5,1.2,1.2,1.2c0.6,0,1.3-0.6,1.2-1.2c-0.3-2.6-1.2-5.2-2.1-7.6c-0.3-0.8-1.4-1.3-2.1-0.6c-1.1,1.2-2.4,2.1-3.6,3.2
					c-1.3,1.1-2.7,2.4-2.6,4.3c0.2,3.3,3.7,6.2,7,5c1.8-0.7,3.5-2.2,3.4-4.3c0-0.7-0.5-1.2-1.2-1.2
					C78.3,189.9,77.7,190.4,77.7,191.1z"/>
			</g>
		</g>
	</g>
	<g>
		<circle class="st6" cx="139.6" cy="186.5" r="47.1"/>
		<circle class="st7" cx="139.6" cy="190.9" r="30.7"/>
		<circle class="st8" cx="139.6" cy="191.4" r="24"/>
		<path class="st1" d="M90.6,185.9c-3.9-27.3,14.5-52.5,41.2-56.3c26.7-3.8,51.5,15.2,55.4,42.4"/>
	</g>
	<g>
		<circle class="st6" cx="259.6" cy="189.6" r="47.1"/>
		<circle class="st7" cx="259.6" cy="193.9" r="30.7"/>
		<circle class="st8" cx="259.6" cy="194.5" r="24"/>
		<path class="st1" d="M306.7,187c3.9-27.3-14.5-52.5-41.2-56.3c-26.7-3.8-51.5,15.2-55.4,42.4"/>
	</g>
	<g>
		<g>
			<g>
				<path class="st3" d="M194.9,197c0.5-0.2,1-0.6,1.5-0.7c-0.2,0-0.3,0.1,0,0c0.1,0,0.2-0.1,0.4-0.1c0.3-0.1,0.5-0.2,0.8-0.2
					c0.3-0.1,0.5-0.1,0.8-0.2c-0.2,0-0.3,0,0,0c0.1,0,0.3,0,0.4,0c0.1,0,0.3,0.1,0.4,0c-0.1,0-0.5-0.1-0.1,0
					c0.4,0.1,0.9,0.1,1.4,0.2c0.1,0,0.5,0.1,0.1,0c-0.4-0.1,0,0,0.1,0c0.2,0,0.5,0.1,0.7,0.1c0.5,0.1,1,0.3,1.4,0.4
					c0.1,0,0.5,0.2,0.1,0c-0.3-0.1,0.1,0,0.1,0.1c0.2,0.1,0.4,0.2,0.6,0.3c0.2,0.1,0.4,0.2,0.6,0.4c0.3,0.2-0.3-0.3-0.1-0.1
					c0.1,0.1,0.2,0.2,0.3,0.3c1,0.9,2.6,1,3.5,0c0.9-1,1-2.6,0-3.5c-1.9-1.8-4.7-2.7-7.3-3c-0.1,0-0.5-0.1-0.2,0
					c0.4,0.1-0.2,0-0.2,0c-0.4-0.1-0.9-0.1-1.3-0.2c-0.8,0-1.6,0.1-2.4,0.3c-1.4,0.3-2.7,1-4,1.6c-1.2,0.5-1.6,2.4-0.9,3.4
					C192.3,197.3,193.6,197.6,194.9,197L194.9,197z"/>
			</g>
		</g>
		<g>
			<g>
				<path class="st3" d="M323,196.3c5.8-5.3,12-10.2,18.5-14.6c1.1-0.8,1.6-2.2,0.9-3.4c-0.6-1.1-2.3-1.7-3.4-0.9
					c-6.8,4.7-13.4,9.8-19.5,15.4c-1,0.9-0.9,2.6,0,3.5C320.4,197.3,322,197.2,323,196.3L323,196.3z"/>
			</g>
		</g>
		<g>
			<g>
				<path class="st3" d="M79.1,188.7c-6.1-5.6-12.7-10.7-19.5-15.4c-1.1-0.8-2.8-0.2-3.4,0.9c-0.7,1.2-0.2,2.7,0.9,3.4
					c6.5,4.4,12.7,9.3,18.5,14.6c1,0.9,2.5,1,3.5,0C80,191.3,80.1,189.6,79.1,188.7L79.1,188.7z"/>
			</g>
		</g>
		<g>
			<path class="st10" d="M170.8,254l-79.5-2.3c-9.2-0.3-16.4-8-16.2-17.1l2.3-79.5c0.3-9.2,8-16.4,17.1-16.2l79.5,2.3
				c9.2,0.3,16.4,8,16.2,17.1l-2.3,79.5C187.7,247,180,254.3,170.8,254z"/>
			<g class="st11">
				<g>
					<path class="st12" d="M119.7,203.9c8.5-9.8,17.6-19,27.2-27.7c2.4-2.2-1.1-5.7-3.5-3.5c-9.6,8.6-18.7,17.9-27.2,27.7
						c-0.9,1-1,2.5,0,3.5C117,204.8,118.8,204.9,119.7,203.9L119.7,203.9z"/>
				</g>
			</g>
			<g class="st11">
				<g>
					<path class="st12" d="M132.6,215.9c0.2-0.3,0.4-0.6,0.6-0.8c0.1-0.1,0.2-0.2,0.3-0.3c0,0,0.4-0.5,0.2-0.3
						c-0.2,0.2,0.2-0.3,0.2-0.3c0.1-0.1,0.2-0.2,0.3-0.3c0.2-0.3,0.4-0.5,0.6-0.8c0.9-1.1,1.8-2.2,2.8-3.3c1.8-2.1,3.7-4.1,5.7-5.9
						c1-0.9,1-2.7,0-3.5c-1.1-1-2.5-0.9-3.5,0c-4.4,3.8-8,8.5-11.5,13.1c-0.8,1-0.2,2.8,0.9,3.4C130.5,217.5,131.8,217,132.6,215.9
						L132.6,215.9z"/>
				</g>
			</g>
		</g>
		<g>
			<path class="st10" d="M301.6,256.8l-79.5-2.3c-9.2-0.3-16.4-8-16.2-17.1l2.3-79.5c0.3-9.2,8-16.4,17.1-16.2l79.5,2.3
				c9.2,0.3,16.4,8,16.2,17.1l-2.3,79.5C318.5,249.8,310.8,257,301.6,256.8z"/>
			<g class="st11">
				<g>
					<path class="st12" d="M250.5,206.6c8.5-9.8,17.6-19,27.2-27.7c2.4-2.2-1.1-5.7-3.5-3.5c-9.6,8.6-18.7,17.9-27.2,27.7
						c-0.9,1-1,2.5,0,3.5C247.9,207.5,249.6,207.6,250.5,206.6L250.5,206.6z"/>
				</g>
			</g>
			<g class="st11">
				<g>
					<path class="st12" d="M263.5,218.7c0.2-0.3,0.4-0.6,0.6-0.8c0.1-0.1,0.2-0.2,0.3-0.3c0,0,0.4-0.5,0.2-0.3
						c-0.2,0.2,0.2-0.3,0.2-0.3c0.1-0.1,0.2-0.2,0.3-0.3c0.2-0.3,0.4-0.5,0.6-0.8c0.9-1.1,1.8-2.2,2.8-3.3c1.8-2.1,3.7-4.1,5.7-5.9
						c1-0.9,1-2.7,0-3.5c-1.1-1-2.5-0.9-3.5,0c-4.4,3.8-8,8.5-11.5,13.1c-0.8,1-0.2,2.8,0.9,3.4
						C261.3,220.2,262.6,219.8,263.5,218.7L263.5,218.7z"/>
				</g>
			</g>
		</g>
	</g>
	<g>
		<g>
			<g>
				<path class="st104" d="M250.6,321c-7.5,8.3-13.3,18.1-17.1,28.6l-0.1,0.3c6.7,9.3,14.2,18.4,23.9,24.5c9.7,6.1,21.1,9,32.4,11.3
					c5.4,1.1,10.9,2.1,16.3,1.6c3.9-0.3,7.8-1.4,11.6-2.4c7.2-2,14.7-4.3,20.2-9.4l0.4,0.2c2.2-15.2,3.4-30.5,3.4-45.8"/>
				<g>
					<path class="st9" d="M248.9,319.3c-3.9,4.4-7.4,9.1-10.4,14.2c-1.5,2.5-2.8,5-4,7.6c-1.2,2.5-2.1,5.4-3.2,7.6
						c-0.4,0.8-0.5,1.8,0,2.5c4.6,6.3,9.4,12.5,15.1,17.8c5.9,5.5,12.6,9.7,20.1,12.8c7.6,3.1,15.6,4.9,23.6,6.5
						c4.3,0.9,8.7,1.6,13.2,1.6c4.4,0,8.8-0.9,13.1-2.1c8.3-2.2,16.8-4.7,23.4-10.6c-1,0.1-2,0.3-3,0.4c0.1,0.1,0.2,0.1,0.4,0.2
						c1.3,0.6,3.4,0.3,3.7-1.5c2.3-15.4,3.4-30.9,3.5-46.5c0-3.2-5-3.2-5,0c0,15.1-1.1,30.2-3.3,45.2c1.2-0.5,2.4-1,3.7-1.5
						c-0.1-0.1-0.2-0.1-0.4-0.2c-1.1-0.5-2.1-0.4-3,0.4c-5.2,4.7-12.1,6.7-18.7,8.6c-3.8,1.1-7.8,2.2-11.8,2.5
						c-4.1,0.3-8.1-0.2-12.1-1c-14.9-2.7-30-6.5-41.7-16.7c-6.2-5.4-11.4-11.9-16.2-18.5c0,0.8,0,1.7,0,2.5c1.1-2.4,2-5,3.1-7.4
						c1.2-2.5,2.5-5,3.9-7.4c2.8-4.8,6.1-9.3,9.9-13.5C254.5,320.4,251,316.9,248.9,319.3L248.9,319.3z"/>
				</g>
			</g>
			<polygon class="st105" points="291.4,350.5 220.8,297.3 299.5,282.2 380.2,335 			"/>
		</g>
		<g>
			<g>
				<g>
					<path class="st106" d="M298.2,314.7c16,1.1,31,7.8,44.3,16.4c6,3.9,11.9,8.2,17.4,12.8c2.4,2,4.9,4.1,6.6,6.7
						c0.8,1.2,1.5,2.4,1.8,3.8c0.3,1.5,0,2.7-0.5,4.1c-3,9.3-3.3,19.1-3.5,28.8c0,1.6,2.5,1.6,2.5,0c0.3-9.1,0.4-18.3,3.1-27
						c0.5-1.6,1.1-3.1,1.1-4.9c-0.1-1.4-0.5-2.8-1.1-4.1c-1.4-2.9-3.7-5.2-6.1-7.3c-2.3-2.1-4.8-3.9-7.3-5.8
						c-3.2-2.5-6.6-4.9-10-7.2c-6.8-4.6-14-8.8-21.7-12c-8.5-3.6-17.5-6-26.8-6.7C296.6,312.1,296.6,314.6,298.2,314.7L298.2,314.7z
						"/>
				</g>
			</g>
			<g>
				<g>
					<path class="st106" d="M369.2,355.4c3.9,3.1,5.6,7.9,6.6,12.7c1.2,6,1.3,12.3,0.4,18.4c-0.2,1.6,2.2,2.3,2.4,0.7
						c1-6.6,0.9-13.2-0.4-19.7c-1-5.1-3-10.4-7.2-13.8C369.7,352.7,367.9,354.4,369.2,355.4L369.2,355.4z"/>
				</g>
			</g>
			<g>
				<g>
					<path class="st106" d="M369.5,356.9c1.2,9.5,1.7,19.1,1.3,28.6c-0.1,1.6,2.4,1.6,2.5,0c0.4-9.6-0.1-19.1-1.3-28.6
						C371.8,355.3,369.3,355.3,369.5,356.9L369.5,356.9z"/>
				</g>
			</g>
			<g>
				<g>
					<path class="st106" d="M370.1,359c-3,8.3-5.8,18.1,0.1,25.8c1,1.3,2.7-0.5,1.8-1.8c-5.3-6.8-2.1-16.2,0.5-23.4
						C373.1,358.2,370.7,357.5,370.1,359L370.1,359z"/>
				</g>
			</g>
			<g>
				<g>
					<path class="st106" d="M370.9,359.8c4.5,7.5,7.7,17.2,2.5,25.2c-0.9,1.4,1.3,2.6,2.2,1.3c5.7-8.7,2.5-19.5-2.5-27.8
						C372.2,357.2,370.1,358.5,370.9,359.8L370.9,359.8z"/>
				</g>
			</g>
			<g>
				<g>
					<path class="st106" d="M371.4,364.2c-0.1,5,1.1,9.8,3.3,14.2c0.7,1.4,2.9,0.2,2.2-1.3c-2-4-3-8.5-3-13
						C373.9,362.6,371.4,362.6,371.4,364.2L371.4,364.2z"/>
				</g>
			</g>
		</g>
	</g>
	<g>
		<path class="st1" d="M312.9,263.2c5.1,7.5,10.3,15,15.4,22.6c1.7,2.5,3.4,5,4.5,7.8c1.9,5.1,0.9,10-1.7,12.9
			c-2.5,2.9-6.3,4.2-10.1,5c-5.2,1.2-11.5,1.5-17-3.3c-2.9-2.5-5-6-7-9.3c-3.7-6.3-6.9-12.8-9.8-19.3L312.9,263.2z"/>
		<g>
			<path class="st1" d="M311.8,263.8c4.6,6.7,9.2,13.4,13.8,20.1c3.8,5.6,9.1,12.2,6.1,19.3c-1.2,2.9-3.8,4.8-6.7,5.9
				c-2.7,1-5.8,1.7-8.7,1.9c-3.1,0.2-6.1-0.4-8.8-1.9c-3.1-1.8-5.4-4.6-7.3-7.5c-4.6-7.1-8.5-14.9-11.9-22.7
				c-0.1,0.6-0.3,1.1-0.4,1.7c7.5-4.8,15-9.5,22.5-14.3c1.1-0.7,2.1-1.4,3.2-2c1.4-0.9,0.1-3-1.3-2.2c-7.5,4.8-15,9.5-22.5,14.3
				c-1.1,0.7-2.1,1.4-3.2,2c-0.6,0.4-0.7,1.1-0.4,1.7c3.3,7.5,7,15,11.4,22c2,3.2,4.3,6.2,7.5,8.4c2.8,1.9,6.1,2.9,9.5,3
				c3.2,0.1,6.4-0.5,9.4-1.4c3.2-1,6.4-2.5,8.5-5.2c2-2.6,2.8-6,2.5-9.2c-0.3-3.9-2.2-7.4-4.3-10.6c-5.4-8.2-11.1-16.3-16.7-24.4
				C313,261.3,310.9,262.5,311.8,263.8z"/>
		</g>
	</g>
</g>
</svg>
