<?xml version="1.0" encoding="utf-8"?>
<!-- Generator: Adobe Illustrator 24.1.2, SVG Export Plug-In . SVG Version: 6.00 Build 0)  -->
<svg version="1.1" id="Layer_1" xmlns="http://www.w3.org/2000/svg" xmlns:xlink="http://www.w3.org/1999/xlink" x="0px" y="0px"
	 viewBox="0 0 436.9 405.1" style="enable-background:new 0 0 436.9 405.1;" xml:space="preserve">
<style type="text/css">
	.st0{fill:url(#SVGID_1_);}
	.st1{fill:#BDDFF6;}
	.st2{fill:#010101;}
	.st3{fill:#231F20;}
	.st4{fill:#BE202E;}
	.st5{fill:#AC1F29;}
	.st6{fill:#FFFFFF;stroke:#FFFFFF;stroke-miterlimit:10;}
	.st7{fill:#3077BB;}
	.st8{fill:#231F20;stroke:#231F20;stroke-miterlimit:10;}
	.st9{fill:#00729F;}
	.st10{fill:#9EDAE6;fill-opacity:0.43;stroke:#231F20;stroke-width:8;stroke-miterlimit:10;}
	.st11{opacity:0.75;}
	.st12{fill:#BEE4ED;}
	.st13{fill:url(#SVGID_2_);}
	.st14{fill:url(#SVGID_3_);}
	.st15{fill:url(#SVGID_4_);}
	.st16{fill:url(#SVGID_5_);}
	.st17{fill:url(#SVGID_6_);}
	.st18{fill:url(#SVGID_7_);}
	.st19{fill:url(#SVGID_8_);}
	.st20{fill:#6FCCD8;}
	.st21{fill:url(#SVGID_9_);}
	.st22{fill:url(#SVGID_10_);}
	.st23{fill:#FFFFFF;}
	.st24{fill:url(#SVGID_11_);}
	.st25{fill:url(#SVGID_12_);}
	.st26{fill:url(#SVGID_13_);}
	.st27{fill:url(#SVGID_14_);}
	.st28{fill:url(#SVGID_15_);}
	.st29{fill:url(#SVGID_16_);}
	.st30{fill:#774098;}
	.st31{fill:#6A2F8F;}
	.st32{fill:#774098;stroke:#6A2F8F;stroke-width:2;stroke-miterlimit:10;}
	.st33{opacity:0.15;}
	.st34{filter:url(#Adobe_OpacityMaskFilter);}
	.st35{mask:url(#SVGID_17_);}
	.st36{fill:#F15E6D;}
	.st37{filter:url(#Adobe_OpacityMaskFilter_1_);}
	.st38{mask:url(#SVGID_18_);}
	.st39{fill:url(#SVGID_19_);}
	.st40{filter:url(#Adobe_OpacityMaskFilter_2_);}
	.st41{mask:url(#SVGID_20_);}
	.st42{filter:url(#Adobe_OpacityMaskFilter_3_);}
	.st43{mask:url(#SVGID_21_);}
	.st44{fill:url(#SVGID_22_);}
	.st45{filter:url(#Adobe_OpacityMaskFilter_4_);}
	.st46{mask:url(#SVGID_23_);}
	.st47{filter:url(#Adobe_OpacityMaskFilter_5_);}
	.st48{mask:url(#SVGID_24_);}
	.st49{fill:url(#SVGID_25_);}
	.st50{filter:url(#Adobe_OpacityMaskFilter_6_);}
	.st51{mask:url(#SVGID_26_);}
	.st52{filter:url(#Adobe_OpacityMaskFilter_7_);}
	.st53{mask:url(#SVGID_27_);}
	.st54{fill:url(#SVGID_28_);}
	.st55{filter:url(#Adobe_OpacityMaskFilter_8_);}
	.st56{mask:url(#SVGID_29_);}
	.st57{filter:url(#Adobe_OpacityMaskFilter_9_);}
	.st58{mask:url(#SVGID_30_);}
	.st59{fill:url(#SVGID_31_);}
	.st60{filter:url(#Adobe_OpacityMaskFilter_10_);}
	.st61{mask:url(#SVGID_32_);}
	.st62{filter:url(#Adobe_OpacityMaskFilter_11_);}
	.st63{mask:url(#SVGID_33_);}
	.st64{fill:url(#SVGID_34_);}
	.st65{filter:url(#Adobe_OpacityMaskFilter_12_);}
	.st66{mask:url(#SVGID_35_);}
	.st67{filter:url(#Adobe_OpacityMaskFilter_13_);}
	.st68{mask:url(#SVGID_36_);}
	.st69{fill:url(#SVGID_37_);}
	.st70{filter:url(#Adobe_OpacityMaskFilter_14_);}
	.st71{mask:url(#SVGID_38_);}
	.st72{filter:url(#Adobe_OpacityMaskFilter_15_);}
	.st73{mask:url(#SVGID_39_);}
	.st74{fill:url(#SVGID_40_);}
	.st75{filter:url(#Adobe_OpacityMaskFilter_16_);}
	.st76{mask:url(#SVGID_41_);}
	.st77{filter:url(#Adobe_OpacityMaskFilter_17_);}
	.st78{mask:url(#SVGID_42_);}
	.st79{fill:url(#SVGID_43_);}
	.st80{filter:url(#Adobe_OpacityMaskFilter_18_);}
	.st81{mask:url(#SVGID_44_);}
	.st82{filter:url(#Adobe_OpacityMaskFilter_19_);}
	.st83{mask:url(#SVGID_45_);}
	.st84{fill:url(#SVGID_46_);}
	.st85{filter:url(#Adobe_OpacityMaskFilter_20_);}
	.st86{mask:url(#SVGID_47_);}
	.st87{filter:url(#Adobe_OpacityMaskFilter_21_);}
	.st88{mask:url(#SVGID_48_);}
	.st89{fill:url(#SVGID_49_);}
	.st90{filter:url(#Adobe_OpacityMaskFilter_22_);}
	.st91{mask:url(#SVGID_50_);}
	.st92{filter:url(#Adobe_OpacityMaskFilter_23_);}
	.st93{mask:url(#SVGID_51_);}
	.st94{fill:url(#SVGID_52_);}
	.st95{filter:url(#Adobe_OpacityMaskFilter_24_);}
	.st96{mask:url(#SVGID_53_);}
	.st97{filter:url(#Adobe_OpacityMaskFilter_25_);}
	.st98{mask:url(#SVGID_54_);}
	.st99{fill:url(#SVGID_55_);}
	.st100{filter:url(#Adobe_OpacityMaskFilter_26_);}
	.st101{mask:url(#SVGID_56_);}
	.st102{filter:url(#Adobe_OpacityMaskFilter_27_);}
	.st103{mask:url(#SVGID_57_);}
	.st104{fill:url(#SVGID_58_);}
	.st105{filter:url(#Adobe_OpacityMaskFilter_28_);}
	.st106{mask:url(#SVGID_59_);}
	.st107{filter:url(#Adobe_OpacityMaskFilter_29_);}
	.st108{mask:url(#SVGID_60_);}
	.st109{fill:url(#SVGID_61_);}
	.st110{fill:#1B191D;}
	.st111{fill:#1B191D;stroke:#00729F;stroke-width:4;stroke-miterlimit:10;}
	.st112{fill:#FAAF43;}
	.st113{fill:url(#SVGID_62_);}
	.st114{fill:url(#SVGID_63_);}
	.st115{fill:url(#SVGID_64_);}
	.st116{fill:url(#SVGID_65_);}
	.st117{fill:url(#SVGID_66_);}
	.st118{fill:url(#SVGID_67_);}
	.st119{fill:url(#SVGID_68_);}
	.st120{fill:url(#SVGID_69_);}
	.st121{fill:url(#SVGID_70_);}
	.st122{fill:url(#SVGID_71_);}
	.st123{fill:url(#SVGID_72_);}
	.st124{fill:url(#SVGID_73_);}
	.st125{fill:url(#SVGID_74_);}
	.st126{fill:url(#SVGID_75_);}
</style>
<g>
	
		<radialGradient id="SVGID_1_" cx="756.0128" cy="743.3129" r="136.4529" gradientTransform="matrix(-1.043 -7.998330e-03 7.263267e-03 -0.9471 951.5693 936.2087)" gradientUnits="userSpaceOnUse">
		<stop  offset="0" style="stop-color:#A8DCDB"/>
		<stop  offset="0.7847" style="stop-color:#BDDFF6"/>
	</radialGradient>
	<path class="st0" d="M31.6,234.6C32.2,157,86.4,91.7,171.9,92.4c85.5,0.7,133.9,66.7,133.3,144.3c-0.6,77.6-49.9,124.5-135.3,123.8
		S31,312.2,31.6,234.6z"/>
	<g>
		<path class="st1" d="M258.9,127.5c4.1-8.1,8.2-16.3,12.3-24.4c1.4-2.7,2.7-5.5,3.1-8.5c0.6-5.7-2.7-11.2-7.3-14.6
			c-4.6-3.4-10.2-5-15.8-6.2c-7.5-1.6-16.2-2.3-21.9,2.8c-2.9,2.6-4.6,6.4-6,10.1c-2.6,6.8-4.5,13.9-5.9,21.1L258.9,127.5z"/>
		<g>
			<path class="st1" d="M260,128.2c4.4-8.8,9.1-17.5,13.3-26.4c1.8-3.8,2.9-7.8,1.9-11.9c-0.9-3.7-3.2-7.1-6.1-9.6
				c-6.1-5.3-14.9-7.4-22.8-8.4c-7.5-1-15.5,0.2-20.3,6.7c-2.8,3.9-4.3,8.8-5.8,13.4c-1.7,5.1-3,10.4-4,15.7
				c-0.1,0.5,0.1,1.2,0.6,1.4c4.7,2.2,9.3,4.4,14,6.6c7.4,3.5,14.9,7.1,22.3,10.6c1.7,0.8,3.5,1.6,5.2,2.5c1.4,0.7,2.7-1.5,1.3-2.2
				c-4.7-2.2-9.3-4.4-14-6.6c-7.4-3.5-14.9-7.1-22.3-10.6c-1.7-0.8-3.5-1.6-5.2-2.5c0.2,0.5,0.4,0.9,0.6,1.4
				c0.8-4.3,1.9-8.5,3.1-12.7c1.2-4,2.5-8.1,4.2-11.9c1.6-3.4,3.7-6.3,7.2-8c3.1-1.5,6.7-1.8,10.1-1.6c3.6,0.2,7.3,0.9,10.8,1.8
				c3.8,1,7.6,2.2,10.9,4.4c3.1,2,5.7,4.8,7.1,8.2c1.6,3.8,1.1,7.6-0.6,11.2c-2,4.5-4.4,8.9-6.7,13.3c-2.4,4.7-4.7,9.3-7.1,14
				C257.1,128.3,259.3,129.6,260,128.2z"/>
		</g>
	</g>
	<g>
		<path class="st1" d="M147.4,101.1c-2.9-8.6-5.8-17.3-8.6-25.9c-1-2.9-1.9-5.8-3.8-8.1c-3.6-4.4-9.8-6-15.5-5.1
			c-5.6,0.8-10.7,3.7-15.5,6.8c-6.4,4.2-13.1,9.9-13.5,17.5c-0.2,3.9,1.3,7.7,3,11.3c3.1,6.6,6.7,13,10.8,19L147.4,101.1z"/>
		<g>
			<path class="st1" d="M148.6,100.7c-3.1-9.4-6-18.9-9.4-28.2c-1.4-3.8-3.3-7.2-6.7-9.4c-3-2-6.7-2.8-10.3-2.8
				c-8.3,0.1-16.2,5-22.6,9.9c-6,4.6-11.3,11-10.2,19c0.7,5.1,3.3,9.9,5.6,14.4c2.4,4.7,5.2,9.2,8.1,13.6c0.3,0.4,0.9,0.8,1.4,0.6
				c4.8-1.7,9.7-3.5,14.5-5.2c7.7-2.8,15.5-5.6,23.2-8.4c1.8-0.6,3.6-1.3,5.4-1.9c1.5-0.5,0.9-3-0.7-2.4c-4.8,1.7-9.7,3.5-14.5,5.2
				c-7.7,2.8-15.5,5.6-23.2,8.4c-1.8,0.6-3.6,1.3-5.4,1.9c0.5,0.2,0.9,0.4,1.4,0.6c-2.4-3.5-4.6-7.2-6.7-10.9
				c-2.1-3.7-4.1-7.6-5.6-11.6c-1.4-3.8-1.9-7.7-0.3-11.5c1.3-3.2,3.8-5.9,6.4-8.1c2.8-2.4,6-4.5,9.2-6.4c3.5-2,7.2-3.7,11.2-4.3
				c3.3-0.5,6.9-0.2,9.9,1.3c3.5,1.6,5.6,4.5,7,8c1.8,4.6,3.2,9.4,4.8,14.1c1.6,5,3.3,9.9,4.9,14.9
				C146.7,102.9,149.1,102.3,148.6,100.7z"/>
		</g>
	</g>
	<g>
		<g>
			<g>
				<path class="st3" d="M192.1,372.3c-2.4-3.6-4.3-7.6-6.1-11.5c-1.1-2.3-2.2-4.6-3.1-7c-0.7-1.6-1.4-3.3-1.7-5
					c-0.3-1.6-2.7-0.9-2.4,0.7c0.3,1.8,1,3.5,1.7,5.1c1,2.4,2.1,4.8,3.2,7.2c1.9,4,3.8,8.1,6.2,11.7
					C190.8,374.9,193,373.7,192.1,372.3L192.1,372.3z"/>
			</g>
		</g>
		<g>
			<g>
				<path class="st3" d="M177.9,377.2c-0.9-9.2-1.6-18.5-2.6-27.7c-0.2-1.6-2.7-1.6-2.5,0c0.9,9.2,1.6,18.5,2.6,27.7
					C175.6,378.7,178.1,378.8,177.9,377.2L177.9,377.2z"/>
			</g>
		</g>
		<g>
			<g>
				<path class="st3" d="M166.5,350.1c0.4,1.5,0,3.4-0.3,4.9c-0.4,2.5-1.1,4.9-1.8,7.3c-0.7,2.4-1.5,4.8-2.5,7.2
					c-0.6,1.6-1.3,3.2-2.4,4.6c-1,1.3,1.2,2.5,2.2,1.3c1.2-1.5,1.9-3.4,2.6-5.2c1-2.4,1.8-4.9,2.6-7.4c0.7-2.5,1.4-5,1.8-7.6
					c0.3-1.9,0.6-3.9,0.2-5.8C168.5,347.8,166.1,348.5,166.5,350.1L166.5,350.1z"/>
			</g>
		</g>
	</g>
	<g>
		<path class="st1" d="M254.8,312.3c5.6,7.2,11.2,14.4,16.8,21.5c1.9,2.4,3.8,4.8,6.1,6.6c4.3,3.4,9.3,3.9,12.8,2.3
			c3.5-1.5,5.9-4.7,7.9-8.1c2.7-4.6,4.9-10.5,2-17.2c-1.5-3.5-4.1-6.6-6.8-9.5c-4.9-5.4-10.1-10.5-15.4-15.2L254.8,312.3z"/>
		<g>
			<path class="st1" d="M253.9,313.2c5.4,6.9,10.8,13.8,16.2,20.8c2.4,3,4.7,6.2,8,8.4c2.7,1.8,6.1,2.9,9.4,2.5
				c6.7-0.7,11-6.9,13.5-12.6c1.4-3.2,2.2-6.7,1.8-10.2c-0.5-3.9-2.2-7.3-4.5-10.4c-2.7-3.6-5.8-6.8-8.9-10
				c-3.3-3.4-6.8-6.7-10.4-9.9c-0.5-0.5-1.2-0.5-1.8,0c-6.8,5.7-13.6,11.4-20.4,17.1c-1,0.8-1.9,1.6-2.9,2.5c-1.2,1,0.5,2.8,1.8,1.8
				c6.8-5.7,13.6-11.4,20.4-17.1c1-0.8,1.9-1.6,2.9-2.5c-0.6,0-1.2,0-1.8,0c5.7,5.1,11.2,10.4,16.3,16.2c2.4,2.7,4.7,5.5,5.9,8.9
				c1.2,3.2,1.2,6.7,0.3,10c-0.9,3-2.5,5.8-4.4,8.4c-1.7,2.4-4,4.5-7,5.2c-7,1.5-12-4.3-15.9-9.2c-5.6-7.2-11.2-14.4-16.8-21.5
				C254.7,310.2,252.9,312,253.9,313.2z"/>
		</g>
	</g>
	<g>
		<path class="st1" d="M76.4,308.2c-4.5,7.9-8.9,15.9-13.4,23.8c-1.5,2.6-3,5.3-5,7.4c-3.8,4-8.6,5.2-12.3,4.3c-3.7-1-6.5-3.8-9-6.8
			c-3.3-4.1-6.4-9.6-4.6-16.7c1-3.7,3.1-7.2,5.3-10.4c4-6.1,8.4-11.9,13-17.4L76.4,308.2z"/>
		<g>
			<path class="st1" d="M75.3,307.6c-4,7.1-7.9,14.2-11.9,21.2c-3.2,5.7-6.6,13-13.9,13.9c-6.1,0.8-11-4.8-13.9-9.5
				c-1.7-2.7-2.8-5.6-2.8-8.8c0-3.7,1.4-7.1,3.2-10.2c4.3-7.4,9.7-14.4,15.2-21c-0.5,0.1-1,0.1-1.5,0.2c7.6,4.6,15.2,9.2,22.8,13.8
				c1.1,0.7,2.2,1.3,3.3,2c1.4,0.8,2.6-1.3,1.3-2.2c-7.6-4.6-15.2-9.2-22.8-13.8c-1.1-0.7-2.2-1.3-3.3-2c-0.4-0.3-1.2-0.2-1.5,0.2
				c-5.4,6.4-10.5,13.2-14.9,20.3c-2.1,3.4-3.8,7-4.2,11c-0.3,3.4,0.4,6.7,1.9,9.7c1.4,2.9,3.5,5.6,5.8,7.9c2.4,2.4,5.2,4.4,8.6,4.8
				c3.1,0.4,6.3-0.5,8.9-2.2c3.1-2,5.3-5,7.1-8.1c5.1-8.6,9.8-17.4,14.7-26.1C78.3,307.4,76.1,306.2,75.3,307.6z"/>
		</g>
	</g>
	<g>
		<circle class="st6" cx="227.3" cy="248.1" r="47.1"/>
		<circle class="st7" cx="227.4" cy="243.7" r="30.7"/>
		<circle class="st8" cx="227.4" cy="243.2" r="24"/>
	</g>
	<g>
		<circle class="st6" cx="107.3" cy="244.1" r="47.1"/>
		<circle class="st7" cx="107.4" cy="239.8" r="30.7"/>
		<circle class="st8" cx="107.4" cy="239.2" r="24"/>
	</g>
	<g>
		<g>
			<path class="st1" d="M219.8,343.5c0.1,3.8,0.2,7.6,0.3,11.4c0,1.3,0.1,2.5,0.4,3.7c0.6,2.2,2.2,3.6,3.7,4
				c1.6,0.4,3.1-0.1,4.6-0.8c2-0.9,4.2-2.3,4.9-5.3c0.4-1.5,0.2-3.2,0.1-4.9c-0.3-3-0.8-6-1.4-8.9L219.8,343.5z"/>
			<g>
				<path class="st1" d="M218.6,343.5c0.1,3.9,0.2,7.8,0.3,11.7c0.1,3.1,0.7,6.4,3.6,8c2.7,1.5,6.2,0.3,8.7-1.2
					c2.6-1.6,3.9-4.2,4.1-7.2c0.1-2-0.2-4.1-0.5-6.1c-0.3-2.1-0.7-4.2-1.1-6.3c-0.1-0.5-0.7-1-1.2-0.9c-4.2,0.3-8.5,0.5-12.7,0.8
					c-1.6,0.1-1.6,2.6,0,2.5c4.2-0.3,8.5-0.5,12.7-0.8c-0.4-0.3-0.8-0.6-1.2-0.9c0.4,2,0.8,3.9,1.1,5.9c0.3,1.9,0.6,3.9,0.5,5.8
					c-0.2,3.3-2.4,5.2-5.3,6.2c-1.6,0.5-3.2,0.7-4.5-0.5c-1.3-1.2-1.5-2.9-1.6-4.6c-0.2-4.1-0.2-8.3-0.4-12.4
					C221,341.9,218.5,341.9,218.6,343.5z"/>
			</g>
		</g>
		<g>
			<path class="st9" d="M221.9,342.2c0.1,2.8,0.2,5.6,0.2,8.4c0,0.9,0.1,1.9,0.3,2.7c0.4,1.6,1.6,2.7,2.7,2.9s2.3-0.1,3.3-0.6
				c1.5-0.6,3-1.7,3.5-3.9c0.3-1.1,0.2-2.4,0.1-3.6c-0.2-2.2-0.6-4.4-1-6.6L221.9,342.2z"/>
			<g>
				<path class="st9" d="M220.6,342.2c0.1,2.9,0.1,5.8,0.2,8.7c0.1,2.3,0.5,4.8,2.7,6.1c2.1,1.3,4.7,0.4,6.6-0.8
					c2-1.3,3-3.3,3.1-5.6c0.1-1.5-0.2-3.1-0.4-4.6c-0.2-1.6-0.5-3.1-0.8-4.7c-0.1-0.5-0.7-1-1.2-0.9c-3,0.2-6.1,0.4-9.1,0.6
					c-1.6,0.1-1.6,2.6,0,2.5c3-0.2,6.1-0.4,9.1-0.6c-0.4-0.3-0.8-0.6-1.2-0.9c0.6,2.8,1.2,5.8,1.1,8.6c-0.1,2.3-1.6,3.6-3.7,4.3
					c-1,0.3-2,0.4-2.8-0.3c-0.8-0.8-1-2-1-3.1c-0.1-3.1-0.2-6.1-0.3-9.2C223.1,340.6,220.6,340.6,220.6,342.2z"/>
			</g>
		</g>
	</g>
	<g>
		<g>
			<path class="st1" d="M126.1,340.8c-0.2,3.8-0.3,7.6-0.5,11.4c-0.1,1.3-0.1,2.5-0.5,3.7c-0.6,2.2-2.2,3.6-3.8,3.9
				c-1.6,0.3-3.1-0.2-4.6-0.9c-2-0.9-4.2-2.4-4.8-5.4c-0.3-1.5-0.2-3.2,0-4.9c0.4-3,0.9-6,1.6-8.9L126.1,340.8z"/>
			<g>
				<path class="st1" d="M124.9,340.8c-0.2,4.2-0.3,8.4-0.5,12.5c-0.1,1.6-0.4,3.3-1.7,4.4c-1.3,1.2-3,1-4.5,0.4
					c-2.9-1.1-5.1-3-5.2-6.3c-0.1-1.9,0.3-3.9,0.6-5.8c0.3-2,0.7-3.9,1.1-5.9c-0.4,0.3-0.8,0.6-1.2,0.9c4.2,0.3,8.4,0.7,12.7,1
					c1.6,0.1,1.6-2.4,0-2.5c-4.2-0.3-8.4-0.7-12.7-1c-0.5,0-1.1,0.4-1.2,0.9c-0.8,3.5-1.5,7.2-1.8,10.8c-0.2,3.1,0.5,6.1,3,8.2
					c2.2,1.8,5.8,3.4,8.6,2.4c3-1,4.3-4,4.6-7c0.4-4.3,0.4-8.7,0.6-13.1C127.5,339.2,125,339.2,124.9,340.8z"/>
			</g>
		</g>
		<g>
			<path class="st9" d="M124.1,339.5c-0.1,2.8-0.2,5.6-0.4,8.4c0,0.9-0.1,1.9-0.3,2.7c-0.5,1.6-1.6,2.6-2.7,2.9
				c-1.1,0.3-2.3-0.1-3.3-0.6c-1.4-0.7-3-1.7-3.5-4c-0.2-1.1-0.1-2.4,0-3.6c0.3-2.2,0.6-4.4,1.1-6.6L124.1,339.5z"/>
			<g>
				<path class="st9" d="M122.9,339.5c-0.1,3.1-0.2,6.2-0.4,9.3c-0.1,1.1-0.3,2.3-1.1,3c-0.8,0.8-1.9,0.6-2.9,0.2
					c-2-0.8-3.4-2.1-3.4-4.3c-0.1-2.8,0.6-5.8,1.2-8.6c-0.4,0.3-0.8,0.6-1.2,0.9c3,0.2,6.1,0.5,9.1,0.7c1.6,0.1,1.6-2.4,0-2.5
					c-3-0.2-6.1-0.5-9.1-0.7c-0.5,0-1.1,0.4-1.2,0.9c-0.6,2.6-1.1,5.4-1.3,8.1c-0.2,2.3,0.4,4.7,2.3,6.3c1.7,1.4,4.4,2.6,6.5,1.9
					c2.4-0.8,3.4-3.2,3.6-5.5c0.3-3.2,0.3-6.5,0.4-9.7C125.4,337.9,122.9,337.9,122.9,339.5z"/>
			</g>
		</g>
	</g>
	<g>
		<g>
			<g>
				<path class="st3" d="M170.3,247.9c-0.3,0.1-0.5,0.2-0.8,0.3c-0.2,0.1-0.8,0.4-0.3,0.2c-0.5,0.2-1,0.4-1.5,0.5
					c-0.3,0.1-0.5,0.1-0.8,0.2c0.5-0.1-0.2,0-0.4,0c-0.1,0-0.3-0.1-0.4,0c0.1,0,0.5,0.1,0.1,0c-0.4-0.1-0.9-0.2-1.4-0.2
					c-0.4,0,0.5,0.1,0.2,0c-0.1,0-0.2,0-0.3-0.1c-0.2,0-0.5-0.1-0.7-0.2c-0.5-0.1-0.9-0.3-1.4-0.4c-0.1,0-0.4-0.2-0.1-0.1
					c0.3,0.1-0.1,0-0.1-0.1c-0.2-0.1-0.4-0.2-0.6-0.3c-0.2-0.1-0.4-0.2-0.6-0.4c-0.3-0.2,0.3,0.3,0.1,0.1c-0.1-0.1-0.2-0.2-0.3-0.3
					c-0.9-0.9-2.6-1-3.5,0c-0.9,1-1,2.6,0,3.5c1,1,2.2,1.6,3.5,2.1c0.5,0.2,1.1,0.4,1.7,0.6c0.7,0.2,1.4,0.2,2.1,0.4
					c0.3,0.1-0.4-0.1-0.1,0c0.2,0,0.3,0.1,0.5,0.1c0.4,0.1,0.9,0.1,1.3,0.2c0.8,0,1.6-0.1,2.4-0.3c1.4-0.3,2.7-1,4-1.6
					c1.2-0.5,1.6-2.4,0.9-3.4C172.9,247.6,171.5,247.3,170.3,247.9L170.3,247.9z"/>
			</g>
		</g>
		<g>
			<g>
				<path class="st3" d="M42.2,247.6c-5.9,5.2-12.1,10.1-18.6,14.5c-1.1,0.8-1.6,2.2-0.9,3.4c0.7,1.1,2.3,1.7,3.4,0.9
					c6.9-4.6,13.4-9.7,19.6-15.2c1-0.9,0.9-2.6,0-3.5C44.7,246.6,43.2,246.7,42.2,247.6L42.2,247.6z"/>
			</g>
		</g>
		<g>
			<g>
				<path class="st3" d="M286,257.1c6.1,5.6,12.6,10.8,19.4,15.5c1.1,0.8,2.8,0.2,3.4-0.9c0.7-1.2,0.2-2.7-0.9-3.4
					c-6.5-4.5-12.6-9.4-18.4-14.7c-1-0.9-2.6-1-3.5,0C285.1,254.5,285,256.2,286,257.1L286,257.1z"/>
			</g>
		</g>
		<g>
			<path class="st10" d="M194.8,191l79.5,2.9c9.2,0.3,16.4,8.1,16,17.3l-2.9,79.5c-0.3,9.2-8.1,16.4-17.3,16l-79.5-2.9
				c-9.2-0.3-16.4-8.1-16-17.3l2.9-79.5C177.9,197.9,185.6,190.7,194.8,191z"/>
			<g class="st11">
				<g>
					<path class="st12" d="M245.5,241.6c-8.6,9.7-17.7,18.9-27.4,27.5c-2.4,2.1,1.1,5.7,3.5,3.5c9.7-8.6,18.9-17.7,27.4-27.5
						c0.9-1,1-2.5,0-3.5C248.1,240.7,246.4,240.6,245.5,241.6L245.5,241.6z"/>
				</g>
			</g>
			<g class="st11">
				<g>
					<path class="st12" d="M232.7,229.5c-0.1,0.1-0.2,0.3-0.3,0.4c-0.2,0.3,0.4-0.5-0.1,0.1c-0.2,0.3-0.4,0.5-0.6,0.8
						c-0.4,0.5-0.8,1-1.2,1.6c-0.9,1.1-1.8,2.2-2.8,3.3c-1.8,2.1-3.7,4-5.8,5.8c-1,0.9-0.9,2.7,0,3.5c1.1,1,2.5,0.9,3.5,0
						c4.4-3.8,8.1-8.4,11.6-13c0.8-1,0.2-2.8-0.9-3.4C234.8,227.9,233.5,228.4,232.7,229.5L232.7,229.5z"/>
				</g>
			</g>
		</g>
		<g>
			<path class="st10" d="M64,187.3l79.5,2.9c9.2,0.3,16.4,8.1,16,17.3l-2.9,79.5c-0.3,9.2-8.1,16.4-17.3,16l-79.5-2.9
				c-9.2-0.3-16.4-8.1-16-17.3l2.9-79.5C47.1,194.2,54.8,187,64,187.3z"/>
			<g class="st11">
				<g>
					<path class="st12" d="M114.7,237.9c-8.6,9.7-17.7,18.9-27.4,27.5c-2.4,2.1,1.1,5.7,3.5,3.5c9.7-8.6,18.9-17.7,27.4-27.5
						c0.9-1,1-2.5,0-3.5C117.4,237,115.6,236.9,114.7,237.9L114.7,237.9z"/>
				</g>
			</g>
			<g class="st11">
				<g>
					<path class="st12" d="M101.9,225.7c-0.1,0.1-0.2,0.3-0.3,0.4c-0.2,0.3,0.4-0.5-0.1,0.1c-0.2,0.3-0.4,0.5-0.6,0.8
						c-0.4,0.5-0.8,1-1.2,1.6c-0.9,1.1-1.8,2.2-2.8,3.3c-1.8,2.1-3.7,4-5.8,5.8c-1,0.9-0.9,2.7,0,3.5c1.1,1,2.5,0.9,3.5,0
						c4.4-3.8,8.1-8.4,11.6-13c0.8-1,0.2-2.8-0.9-3.4C104,224.1,102.7,224.6,101.9,225.7L101.9,225.7z"/>
				</g>
			</g>
		</g>
	</g>
	<g>
		<g>
			<g>
				<path class="st23" d="M207,153.3c-4.9-3.6-13.3-8.3-20.6-9.7c-9.3-1.8-23.1,0.1-23.1,0.1c1.5-3.4,0.9-8,4.4-10.9
					c2.1-1.7,4.1-2.5,8.2-3.3c4.1-0.8,10.4-0.3,15.4,0.8c7.8,1.7,14.2,6.3,16.5,10.5C210.1,145,207,153.3,207,153.3z"/>
				<g>
					<path class="st3" d="M207.8,152c-5.9-4.3-12.9-8-20-9.7c-6.4-1.5-13.2-1.2-19.7-0.7c-1.7,0.1-3.4,0.3-5.1,0.6
						c0.6,0.7,1.1,1.5,1.7,2.2c1.6-3.9,1.1-8.6,5-11.2c3.8-2.5,8.9-2.8,13.3-2.6c5.4,0.3,10.9,1.3,15.7,3.8c3.3,1.8,7.8,4.7,8.5,8.7
						c0.5,3.1-0.4,6.7-1.5,9.6c-0.7,1.8,2.2,2.6,2.9,0.8c1.2-3.1,2-6.6,1.7-9.9c-0.4-4.7-4.1-8.1-7.9-10.5
						c-5.1-3.3-10.9-4.7-16.8-5.3c-5.3-0.5-11-0.3-15.9,2c-2.3,1.1-4.3,2.9-5.4,5.2c-1.1,2.5-1.1,5.3-2.2,7.8
						c-0.5,1.3,0.3,2.4,1.7,2.2c0.3,0-0.4,0.1-0.1,0c0.3,0,0.5-0.1,0.8-0.1c0.9-0.1,1.9-0.2,2.8-0.3c2.9-0.3,5.8-0.4,8.7-0.5
						c3.2,0,6.5,0.1,9.7,0.7c3.6,0.7,7.1,2,10.4,3.6c3.6,1.7,7,3.7,10.2,6.1C207.8,155.8,209.3,153.2,207.8,152z"/>
				</g>
			</g>
		</g>
		<g>
			<g>
				<path class="st3" d="M174.7,142.3c-0.1-3.9,0.1-7.9,0.6-11.8c0-0.3-0.4-0.5-0.5-0.1c-0.5,3.9-0.7,7.9-0.6,11.9
					C174.2,142.6,174.7,142.6,174.7,142.3L174.7,142.3z"/>
			</g>
		</g>
		<g>
			<g>
				<path class="st3" d="M185.6,141.9c-0.4-4,0.5-7.9,2.4-11.4c0.2-0.3-0.3-0.5-0.4-0.3c-2,3.6-2.9,7.6-2.5,11.6
					C185.1,142.3,185.6,142.3,185.6,141.9L185.6,141.9z"/>
			</g>
		</g>
		<g>
			<g>
				<path class="st3" d="M196.7,145.8c0.4-3.8,1.8-7.3,3.9-10.4c0.2-0.3-0.3-0.5-0.4-0.3c-2.1,3.2-3.6,6.8-3.9,10.7
					C196.2,146.1,196.7,146.1,196.7,145.8L196.7,145.8z"/>
			</g>
		</g>
	</g>
	<g>
		<g>
			<g>
				<path class="st110" d="M385.5,320.8c0.9-11.1-0.4-22.4-3.8-33.1l-0.1-0.3c-11-3.3-22.4-6-33.9-5c-11.5,1-22.3,5.7-32.6,10.7
					c-4.9,2.4-9.9,5-14,8.6c-2.9,2.6-5.3,5.8-7.7,8.9c-4.5,6-9,12.3-10.4,19.7l-0.4,0.1c7.4,13.4,15.8,26.3,25.2,38.5"/>
				<g>
					<path class="st9" d="M388,320.8c0.4-5.8,0.3-11.7-0.4-17.4c-0.4-2.9-0.8-5.7-1.4-8.6c-0.6-2.7-1.5-5.4-2.1-8.1
						c-0.2-0.9-0.9-1.5-1.7-1.7c-8.1-2.4-16.3-4.5-24.8-5.1c-8.2-0.6-16.3,0.5-24.1,3c-7.6,2.4-15,5.8-22.1,9.4
						c-3.5,1.8-6.9,3.7-10,6.2c-3.2,2.5-5.8,5.6-8.3,8.8c-5.2,6.7-10.7,13.9-12.3,22.5c0.6-0.6,1.2-1.2,1.7-1.7
						c-0.1,0-0.3,0.1-0.4,0.1c-1.6,0.4-2.2,2.3-1.5,3.7c7.4,13.4,15.8,26.3,25.2,38.5c0.8,1.1,2.2,1.6,3.4,0.9
						c1.1-0.6,1.7-2.3,0.9-3.4c-9.3-12.2-17.7-25.1-25.2-38.5c-0.5,1.2-1,2.4-1.5,3.7c0.1,0,0.3-0.1,0.4-0.1
						c0.8-0.2,1.6-0.9,1.7-1.7c1.3-7.1,5.6-13.1,9.9-18.8c2.2-3,4.5-5.9,7.2-8.5c2.7-2.5,5.8-4.4,9-6.1c13.2-7.1,27.8-13.4,43-13
						c9,0.3,17.7,2.5,26.3,5.1c-0.6-0.6-1.2-1.2-1.7-1.7c0.5,2.6,1.4,5,2,7.6c0.6,2.7,1.1,5.4,1.4,8.2c0.7,5.6,0.8,11.3,0.3,17
						c-0.1,1.3,1.2,2.5,2.5,2.5C386.9,323.3,387.9,322.2,388,320.8L388,320.8z"/>
				</g>
			</g>
			<polygon class="st111" points="335.2,322.1 423.7,321.6 370.2,381.3 274,388.4 			"/>
		</g>
		<g>
			<g>
				<g>
					<path class="st112" d="M351.7,354.7c-14.1,9.3-30.9,13-47.5,14.1c-6.9,0.4-14,0.6-20.9,0.2c-2.8-0.1-5.7-0.4-8.4-1.4
						c-1.2-0.4-2.3-1-3.3-1.8c-1.1-0.9-1.5-2-2-3.3c-3.2-9.2-9-17.2-14.6-25.1c-0.9-1.3-3.1,0-2.2,1.3c5.3,7.3,10.7,14.7,13.9,23.2
						c0.6,1.5,1,3.1,2,4.5c0.8,1.1,1.8,1.9,3,2.5c2.6,1.5,5.6,2,8.5,2.3c2.8,0.3,5.6,0.3,8.4,0.3c4,0,8,0,12-0.1
						c8.6-0.4,17.3-1.3,25.7-3.3c9.4-2.3,18.6-5.9,26.7-11.2C354.3,356,353,353.8,351.7,354.7L351.7,354.7z"/>
				</g>
			</g>
			<g>
				<g>
					<path class="st112" d="M270.2,365.5c-5.6-0.1-10.3-3.7-14.2-7.4c-4-3.9-7.4-8.3-10.1-13.2c-0.8-1.4-2.9-0.2-2.2,1.3
						c2.9,5.3,6.7,10.2,11.1,14.3c4.2,3.9,9.3,7.4,15.3,7.5C271.8,368,271.8,365.5,270.2,365.5L270.2,365.5z"/>
				</g>
			</g>
			<g>
				<g>
					<path class="st112" d="M269.2,364.4c-6.7-6.7-12.8-14-18.2-21.7c-0.9-1.3-3.1-0.1-2.2,1.3c5.6,7.9,11.8,15.4,18.6,22.2
						C268.5,367.3,270.3,365.5,269.2,364.4L269.2,364.4z"/>
				</g>
			</g>
			<g>
				<g>
					<path class="st112" d="M267.5,363.3c-2.6-8.3-6.3-18.1-15.7-20.5c-1.6-0.4-2.2,2-0.7,2.4c8.4,2.2,11.6,11.4,13.9,18.8
						C265.6,365.5,268,364.8,267.5,363.3L267.5,363.3z"/>
				</g>
			</g>
			<g>
				<g>
					<path class="st112" d="M266.2,362.9c-8-3.1-16.5-9-17.1-18.4c-0.1-1.6-2.6-1.6-2.5,0c0.3,4.9,2.6,9.3,6,12.8
						c3.6,3.7,8.2,6.1,13,8C267,365.9,267.7,363.5,266.2,362.9L266.2,362.9z"/>
				</g>
			</g>
			<g>
				<g>
					<path class="st112" d="M263.4,359.9c-2.9-4-6.8-7.2-11.2-9.4c-0.6-0.3-1.4-0.2-1.7,0.4c-0.3,0.5-0.2,1.4,0.4,1.7
						c4.1,2,7.6,4.8,10.3,8.5c0.4,0.5,1.1,0.8,1.7,0.4C263.5,361.3,263.8,360.5,263.4,359.9L263.4,359.9z"/>
				</g>
			</g>
		</g>
	</g>
</g>
</svg>
