<?xml version="1.0" encoding="utf-8"?>
<!-- Generator: Adobe Illustrator 24.1.2, SVG Export Plug-In . SVG Version: 6.00 Build 0)  -->
<svg version="1.1" id="Layer_1" xmlns="http://www.w3.org/2000/svg" xmlns:xlink="http://www.w3.org/1999/xlink" x="0px" y="0px"
	 viewBox="0 0 436.9 405.1" style="enable-background:new 0 0 436.9 405.1;" xml:space="preserve">
<style type="text/css">
	.st0{fill:url(#SVGID_1_);}
	.st1{fill:#BDDFF6;}
	.st2{fill:#010101;}
	.st3{fill:#231F20;}
	.st4{fill:#BE202E;}
	.st5{fill:#AC1F29;}
	.st6{fill:#FFFFFF;stroke:#FFFFFF;stroke-miterlimit:10;}
	.st7{fill:#3077BB;}
	.st8{fill:#231F20;stroke:#231F20;stroke-miterlimit:10;}
	.st9{fill:#00729F;}
	.st10{fill:#9EDAE6;fill-opacity:0.43;stroke:#231F20;stroke-width:8;stroke-miterlimit:10;}
	.st11{opacity:0.75;}
	.st12{fill:#BEE4ED;}
	.st13{fill:url(#SVGID_2_);}
	.st14{fill:url(#SVGID_3_);}
	.st15{fill:url(#SVGID_4_);}
	.st16{fill:url(#SVGID_5_);}
	.st17{fill:url(#SVGID_6_);}
	.st18{fill:url(#SVGID_7_);}
	.st19{fill:url(#SVGID_8_);}
	.st20{fill:#6FCCD8;}
	.st21{fill:url(#SVGID_9_);}
	.st22{fill:#FFFFFF;}
	.st23{fill:url(#SVGID_10_);}
	.st24{fill:url(#SVGID_11_);}
	.st25{fill:url(#SVGID_12_);}
	.st26{fill:url(#SVGID_13_);}
	.st27{fill:url(#SVGID_14_);}
	.st28{fill:url(#SVGID_15_);}
	.st29{fill:#774098;}
	.st30{fill:#6A2F8F;}
	.st31{fill:#774098;stroke:#6A2F8F;stroke-width:2;stroke-miterlimit:10;}
	.st32{opacity:0.15;}
	.st33{filter:url(#Adobe_OpacityMaskFilter);}
	.st34{mask:url(#SVGID_16_);}
	.st35{fill:#F15E6D;}
	.st36{filter:url(#Adobe_OpacityMaskFilter_1_);}
	.st37{mask:url(#SVGID_17_);}
	.st38{fill:url(#SVGID_18_);}
	.st39{filter:url(#Adobe_OpacityMaskFilter_2_);}
	.st40{mask:url(#SVGID_19_);}
	.st41{filter:url(#Adobe_OpacityMaskFilter_3_);}
	.st42{mask:url(#SVGID_20_);}
	.st43{fill:url(#SVGID_21_);}
	.st44{filter:url(#Adobe_OpacityMaskFilter_4_);}
	.st45{mask:url(#SVGID_22_);}
	.st46{filter:url(#Adobe_OpacityMaskFilter_5_);}
	.st47{mask:url(#SVGID_23_);}
	.st48{fill:url(#SVGID_24_);}
	.st49{filter:url(#Adobe_OpacityMaskFilter_6_);}
	.st50{mask:url(#SVGID_25_);}
	.st51{filter:url(#Adobe_OpacityMaskFilter_7_);}
	.st52{mask:url(#SVGID_26_);}
	.st53{fill:url(#SVGID_27_);}
	.st54{filter:url(#Adobe_OpacityMaskFilter_8_);}
	.st55{mask:url(#SVGID_28_);}
	.st56{filter:url(#Adobe_OpacityMaskFilter_9_);}
	.st57{mask:url(#SVGID_29_);}
	.st58{fill:url(#SVGID_30_);}
	.st59{filter:url(#Adobe_OpacityMaskFilter_10_);}
	.st60{mask:url(#SVGID_31_);}
	.st61{filter:url(#Adobe_OpacityMaskFilter_11_);}
	.st62{mask:url(#SVGID_32_);}
	.st63{fill:url(#SVGID_33_);}
	.st64{filter:url(#Adobe_OpacityMaskFilter_12_);}
	.st65{mask:url(#SVGID_34_);}
	.st66{filter:url(#Adobe_OpacityMaskFilter_13_);}
	.st67{mask:url(#SVGID_35_);}
	.st68{fill:url(#SVGID_36_);}
	.st69{filter:url(#Adobe_OpacityMaskFilter_14_);}
	.st70{mask:url(#SVGID_37_);}
	.st71{filter:url(#Adobe_OpacityMaskFilter_15_);}
	.st72{mask:url(#SVGID_38_);}
	.st73{fill:url(#SVGID_39_);}
	.st74{filter:url(#Adobe_OpacityMaskFilter_16_);}
	.st75{mask:url(#SVGID_40_);}
	.st76{filter:url(#Adobe_OpacityMaskFilter_17_);}
	.st77{mask:url(#SVGID_41_);}
	.st78{fill:url(#SVGID_42_);}
	.st79{filter:url(#Adobe_OpacityMaskFilter_18_);}
	.st80{mask:url(#SVGID_43_);}
	.st81{filter:url(#Adobe_OpacityMaskFilter_19_);}
	.st82{mask:url(#SVGID_44_);}
	.st83{fill:url(#SVGID_45_);}
	.st84{filter:url(#Adobe_OpacityMaskFilter_20_);}
	.st85{mask:url(#SVGID_46_);}
	.st86{filter:url(#Adobe_OpacityMaskFilter_21_);}
	.st87{mask:url(#SVGID_47_);}
	.st88{fill:url(#SVGID_48_);}
	.st89{filter:url(#Adobe_OpacityMaskFilter_22_);}
	.st90{mask:url(#SVGID_49_);}
	.st91{filter:url(#Adobe_OpacityMaskFilter_23_);}
	.st92{mask:url(#SVGID_50_);}
	.st93{fill:url(#SVGID_51_);}
	.st94{filter:url(#Adobe_OpacityMaskFilter_24_);}
	.st95{mask:url(#SVGID_52_);}
	.st96{filter:url(#Adobe_OpacityMaskFilter_25_);}
	.st97{mask:url(#SVGID_53_);}
	.st98{fill:url(#SVGID_54_);}
	.st99{filter:url(#Adobe_OpacityMaskFilter_26_);}
	.st100{mask:url(#SVGID_55_);}
	.st101{filter:url(#Adobe_OpacityMaskFilter_27_);}
	.st102{mask:url(#SVGID_56_);}
	.st103{fill:url(#SVGID_57_);}
	.st104{fill:#1B191D;}
	.st105{fill:#1B191D;stroke:#00729F;stroke-width:4;stroke-miterlimit:10;}
	.st106{fill:#FAAF43;}
	.st107{fill:url(#SVGID_58_);}
	.st108{fill:url(#SVGID_59_);}
	.st109{fill:url(#SVGID_60_);}
	.st110{fill:url(#SVGID_61_);}
	.st111{fill:url(#SVGID_62_);}
	.st112{fill:url(#SVGID_63_);}
	.st113{fill:url(#SVGID_64_);}
	.st114{fill:url(#SVGID_65_);}
	.st115{fill:url(#SVGID_66_);}
	.st116{fill:url(#SVGID_67_);}
	.st117{fill:url(#SVGID_68_);}
	.st118{fill:url(#SVGID_69_);}
	.st119{fill:url(#SVGID_70_);}
	.st120{fill:url(#SVGID_71_);}
	.st121{fill:url(#SVGID_72_);}
	.st122{filter:url(#Adobe_OpacityMaskFilter_28_);}
	.st123{mask:url(#SVGID_73_);}
	.st124{filter:url(#Adobe_OpacityMaskFilter_29_);}
	.st125{mask:url(#SVGID_74_);}
	.st126{fill:url(#SVGID_75_);}
</style>
<g>
	
		<radialGradient id="SVGID_1_" cx="174.6142" cy="229.4932" r="136.4529" gradientTransform="matrix(1.043 0 0 0.9472 13.056 -10.9887)" gradientUnits="userSpaceOnUse">
		<stop  offset="0" style="stop-color:#A8DCDB"/>
		<stop  offset="0.7847" style="stop-color:#BDDFF6"/>
	</radialGradient>
	<path class="st0" d="M332,196.9c0,77.6-53.8,143.3-139.2,143.3S58.4,274.5,58.4,196.9S107.3,72,192.8,72S332,119.2,332,196.9z"/>
	<g>
		<path class="st1" d="M117.5,312.8c-4,8.2-8.1,16.3-12.1,24.5c-1.3,2.7-2.7,5.5-3,8.5c-0.6,5.7,2.8,11.2,7.4,14.5
			c4.6,3.4,10.2,4.9,15.8,6.1c7.5,1.6,16.2,2.2,21.9-3c2.9-2.6,4.5-6.4,5.9-10.1c2.5-6.9,4.4-13.9,5.8-21.1L117.5,312.8z"/>
		<g>
			<path class="st1" d="M116.4,312.2c-4.4,8.8-9,17.6-13.1,26.5c-1.8,3.8-2.9,7.8-1.8,12c0.9,3.7,3.2,7.1,6.1,9.6
				c6.2,5.3,15,7.3,22.8,8.2c7.5,0.9,15.5-0.3,20.2-6.8c2.8-3.9,4.3-8.9,5.7-13.4c1.6-5.2,2.9-10.4,3.9-15.7
				c0.1-0.5-0.1-1.2-0.6-1.4c-4.7-2.2-9.3-4.4-14-6.5c-7.5-3.5-14.9-6.9-22.4-10.4c-1.7-0.8-3.5-1.6-5.2-2.4
				c-1.4-0.7-2.7,1.5-1.3,2.2c4.7,2.2,9.3,4.4,14,6.5c7.5,3.5,14.9,6.9,22.4,10.4c1.7,0.8,3.5,1.6,5.2,2.4c-0.2-0.5-0.4-0.9-0.6-1.4
				c-0.8,4.3-1.8,8.5-3,12.7c-1.2,4-2.4,8.1-4.1,11.9c-1.5,3.4-3.7,6.3-7.1,8c-3.1,1.5-6.7,1.8-10.1,1.7c-3.7-0.2-7.3-0.9-10.8-1.7
				c-3.8-0.9-7.6-2.2-11-4.3c-3.1-2-5.8-4.7-7.2-8.2c-1.6-3.8-1.1-7.6,0.5-11.2c2-4.5,4.4-8.9,6.6-13.3c2.3-4.7,4.6-9.3,7-14
				C119.2,312,117.1,310.8,116.4,312.2z"/>
		</g>
	</g>
	<g>
		<path class="st1" d="M205.7,317.7c-1.8,8.9-3.5,17.9-5.3,26.8c-0.6,3-1.2,6-0.7,9c0.9,5.6,5.6,10,10.9,12.1s11.2,2.1,16.8,1.7
			c7.6-0.5,16.2-2.2,20.4-8.6c2.1-3.3,2.7-7.4,3-11.3c0.6-7.3,0.6-14.6,0-21.9L205.7,317.7z"/>
		<g>
			<path class="st1" d="M204.5,317.3c-1,5-1.9,9.9-2.9,14.9c-0.9,4.8-2,9.7-2.8,14.5c-0.7,4.2-0.6,8.3,1.7,12c1.9,3.1,4.8,5.5,8,7.1
				c7.4,3.6,16.7,3.2,24.7,2c7.1-1.1,14.3-4.1,17.2-11.2c1.9-4.5,2-9.7,2.2-14.5c0.2-5.6,0.1-11.2-0.3-16.8c0-0.5-0.4-1.1-0.9-1.2
				c-5.1-0.9-10.2-1.7-15.2-2.6c-8.1-1.4-16.2-2.8-24.3-4.2c-1.9-0.3-3.8-0.6-5.6-1c-1.6-0.3-2.2,2.1-0.7,2.4
				c5.1,0.9,10.2,1.7,15.2,2.6c8.1,1.4,16.2,2.8,24.3,4.2c1.9,0.3,3.8,0.6,5.6,1c-0.3-0.4-0.6-0.8-0.9-1.2c0.4,4.5,0.5,9.1,0.4,13.6
				c-0.1,4.2-0.2,8.6-1,12.8c-0.7,3.6-2.2,6.9-5,9.2c-2.6,2.1-5.8,3.2-9,3.9c-3.4,0.8-7,1-10.5,1.1c-4.1,0.1-8.3-0.1-12.3-1.3
				c-3.3-1.1-6.5-3-8.7-5.8c-2.5-3.1-3.1-6.7-2.6-10.6c0.6-5,1.9-10.1,2.9-15.1c1-5.1,2-10.2,3-15.4
				C207.2,316.4,204.8,315.8,204.5,317.3z"/>
		</g>
	</g>
	<g>
		<g>
			<g>
				<path class="st3" d="M170.4,60.4c2.4,3.5,4.3,7.6,6.2,11.4c1.1,2.3,2.2,4.6,3.2,7c0.7,1.6,1.4,3.3,1.7,5
					c0.3,1.6,2.7,0.9,2.4-0.7c-0.3-1.8-1.1-3.5-1.7-5.1c-1-2.4-2.1-4.8-3.3-7.2c-1.9-3.9-3.8-8.1-6.3-11.7
					C171.7,57.8,169.5,59,170.4,60.4L170.4,60.4z"/>
			</g>
		</g>
		<g>
			<g>
				<path class="st3" d="M184.6,55.4c1,9.2,1.8,18.5,2.8,27.7c0.2,1.6,2.7,1.6,2.5,0c-1-9.2-1.8-18.5-2.8-27.7
					C186.9,53.9,184.4,53.8,184.6,55.4L184.6,55.4z"/>
			</g>
		</g>
		<g>
			<g>
				<path class="st3" d="M196.2,82.5c-0.4-1.5,0-3.4,0.2-4.9c0.4-2.5,1-4.9,1.8-7.4c0.7-2.4,1.5-4.8,2.5-7.2
					c0.6-1.6,1.3-3.2,2.3-4.6c1-1.3-1.2-2.5-2.2-1.3c-1.2,1.5-1.9,3.4-2.6,5.2c-1,2.4-1.8,4.9-2.5,7.5c-0.7,2.5-1.4,5-1.8,7.6
					c-0.3,1.9-0.6,3.9-0.1,5.8C194.2,84.7,196.6,84,196.2,82.5L196.2,82.5z"/>
			</g>
		</g>
	</g>
	<g>
		<path class="st1" d="M82.2,261.4c-5.7,7.1-11.5,14.1-17.2,21.2c-1.9,2.3-3.8,4.7-5.1,7.4c-2.3,5-1.7,9.9,0.6,13
			c2.3,3.1,5.9,4.7,9.7,5.8c5,1.6,11.3,2.4,17.2-1.9c3.1-2.2,5.5-5.5,7.8-8.7c4.2-6,8-12.2,11.4-18.4L82.2,261.4z"/>
		<g>
			<path class="st1" d="M81.3,260.6c-5.5,6.8-11,13.5-16.5,20.3c-2.5,3.1-5.1,6.1-6.6,9.8c-1.3,3.4-1.6,7.3-0.2,10.8
				c2.5,6.1,9.8,8.8,15.8,9.8c3.3,0.5,6.7,0.4,9.8-0.8c3.6-1.4,6.5-3.9,8.9-6.8c2.8-3.4,5.3-7.2,7.7-11c2.5-4,4.9-8,7.2-12.1
				c0.4-0.6,0.1-1.3-0.4-1.7c-7.1-5.4-14.2-10.7-21.3-16.1c-1-0.8-2-1.5-3-2.3c-1.3-1-2.5,1.2-1.3,2.2c7.1,5.4,14.2,10.7,21.3,16.1
				c1,0.8,2,1.5,3,2.3c-0.1-0.6-0.3-1.1-0.4-1.7c-3.6,6.6-7.5,13-11.9,19.2c-2,2.9-4.3,5.8-7.2,7.9c-2.7,1.9-5.8,2.8-9.1,2.8
				c-3,0-5.9-0.9-8.7-1.9c-2.9-1-5.8-2.6-7.5-5.2c-1.8-2.9-1.8-6.5-0.8-9.7c1.1-3.4,3.6-6.3,5.8-9c5.6-6.9,11.3-13.9,16.9-20.8
				C84,261.1,82.3,259.3,81.3,260.6z"/>
		</g>
	</g>
	<g>
		<circle class="st6" cx="136.1" cy="184.9" r="47.1"/>
		<circle class="st7" cx="142.1" cy="200.2" r="30.7"/>
		<circle class="st8" cx="142.1" cy="200.8" r="24"/>
		<path class="st1" d="M87,171.6c0-24.8,21.8-44.9,48.8-44.9s48.8,20.1,48.8,44.9"/>
	</g>
	<g>
		<circle class="st6" cx="256.2" cy="188" r="47.1"/>
		<circle class="st7" cx="248.2" cy="202.3" r="30.7"/>
		<circle class="st8" cx="248.2" cy="202.9" r="24"/>
		<path class="st1" d="M207.4,171.6c0-24.8,21.8-44.9,48.8-44.9s48.8,20.1,48.8,44.9"/>
	</g>
	<g>
		<g>
			<path class="st1" d="M142.9,89.4c-0.1-3.8-0.3-7.6-0.4-11.4c0-1.3-0.1-2.5-0.4-3.7c-0.6-2.2-2.2-3.6-3.8-3.9
				c-1.6-0.4-3.1,0.2-4.6,0.8c-2,0.9-4.2,2.3-4.9,5.3c-0.3,1.5-0.2,3.2,0,4.9c0.3,3,0.8,6,1.5,8.9L142.9,89.4z"/>
			<g>
				<path class="st1" d="M144.2,89.4c-0.1-3.9-0.3-7.8-0.4-11.7c-0.1-3-0.7-6.2-3.6-7.9c-2.7-1.6-6.2-0.4-8.7,1.2
					c-2.6,1.6-4,4.2-4.1,7.3c-0.1,2,0.3,4.1,0.5,6.1c0.3,2.1,0.7,4.2,1.2,6.3c0.1,0.5,0.7,1,1.2,0.9c4.2-0.3,8.4-0.6,12.7-0.9
					c1.6-0.1,1.6-2.6,0-2.5c-4.2,0.3-8.4,0.6-12.7,0.9c0.4,0.3,0.8,0.6,1.2,0.9c-0.4-2-0.8-3.9-1.1-5.9c-0.3-1.9-0.6-3.9-0.5-5.8
					c0.1-3.3,2.4-5.3,5.4-6.3c1.5-0.5,3.1-0.6,4.3,0.5c1.3,1.2,1.5,2.9,1.6,4.6c0.2,4.1,0.3,8.3,0.4,12.4
					C141.7,91,144.2,91,144.2,89.4z"/>
			</g>
		</g>
		<g>
			<path class="st9" d="M140.9,90.8c-0.1-2.8-0.2-5.6-0.3-8.4c0-0.9-0.1-1.9-0.3-2.7c-0.5-1.6-1.6-2.6-2.7-2.9
				c-1.1-0.3-2.3,0.1-3.3,0.6c-1.5,0.6-3,1.7-3.5,3.9c-0.2,1.1-0.2,2.4,0,3.6c0.2,2.2,0.6,4.4,1.1,6.6L140.9,90.8z"/>
			<g>
				<path class="st9" d="M142.1,90.8c-0.1-2.9-0.2-5.8-0.3-8.7c-0.1-2.3-0.6-4.8-2.8-6.1c-2.1-1.2-4.7-0.4-6.6,0.9
					c-2,1.3-3,3.3-3.1,5.6c-0.1,1.5,0.2,3.1,0.4,4.6c0.2,1.6,0.5,3.1,0.8,4.6c0.1,0.5,0.7,1,1.2,0.9c3-0.2,6.1-0.4,9.1-0.6
					c1.6-0.1,1.6-2.6,0-2.5c-3,0.2-6.1,0.4-9.1,0.6c0.4,0.3,0.8,0.6,1.2,0.9c-0.6-2.8-1.3-5.8-1.2-8.6c0.1-2.3,1.6-3.6,3.6-4.3
					c1-0.3,2-0.5,2.8,0.3c0.9,0.8,1,2,1.1,3.1c0.2,3.1,0.2,6.1,0.3,9.2C139.7,92.4,142.2,92.4,142.1,90.8z"/>
			</g>
		</g>
	</g>
	<g>
		<g>
			<path class="st1" d="M236.6,91.4c0.1-3.8,0.3-7.6,0.4-11.4c0-1.3,0.1-2.5,0.4-3.7c0.6-2.2,2.2-3.6,3.8-3.9
				c1.6-0.4,3.1,0.2,4.6,0.8c2,0.9,4.2,2.3,4.9,5.3c0.3,1.5,0.2,3.2,0,4.9c-0.3,3-0.8,6-1.5,8.9L236.6,91.4z"/>
			<g>
				<path class="st1" d="M237.9,91.4c0.1-4.1,0.2-8.3,0.4-12.4c0.1-1.7,0.4-3.4,1.6-4.6c1.2-1.2,2.8-1,4.3-0.5c3,1,5.3,3,5.4,6.3
					c0.1,1.9-0.2,3.9-0.5,5.8c-0.3,2-0.7,3.9-1.1,5.9c0.4-0.3,0.8-0.6,1.2-0.9c-4.2-0.3-8.4-0.6-12.7-0.9c-1.6-0.1-1.6,2.4,0,2.5
					c4.2,0.3,8.4,0.6,12.7,0.9c0.5,0,1.1-0.4,1.2-0.9c0.8-3.6,1.5-7.3,1.7-11c0.2-3.1-0.7-6.1-3.2-8.1c-2.3-1.8-5.8-3.3-8.6-2.2
					c-2.9,1.1-4.2,4-4.5,7c-0.4,4.3-0.3,8.8-0.5,13.1C235.3,93,237.8,93,237.9,91.4z"/>
			</g>
		</g>
		<g>
			<path class="st9" d="M238.7,92.7c0.1-2.8,0.2-5.6,0.3-8.4c0-0.9,0.1-1.9,0.3-2.7c0.5-1.6,1.6-2.6,2.7-2.9
				c1.1-0.3,2.3,0.1,3.3,0.6c1.5,0.6,3,1.7,3.5,3.9c0.2,1.1,0.2,2.4,0,3.6c-0.2,2.2-0.6,4.4-1.1,6.6L238.7,92.7z"/>
			<g>
				<path class="st9" d="M239.9,92.7c0.1-3.1,0.2-6.1,0.3-9.2c0.1-1.1,0.2-2.3,1.1-3.1c0.8-0.8,1.8-0.7,2.8-0.3
					c2,0.7,3.5,2.1,3.6,4.3c0.1,2.8-0.5,5.8-1.2,8.6c0.4-0.3,0.8-0.6,1.2-0.9c-3-0.2-6.1-0.4-9.1-0.6c-1.6-0.1-1.6,2.4,0,2.5
					c3,0.2,6.1,0.4,9.1,0.6c0.5,0,1.1-0.4,1.2-0.9c0.6-2.7,1.1-5.5,1.2-8.2c0.1-2.4-0.5-4.6-2.4-6.2c-1.7-1.4-4.4-2.5-6.6-1.7
					c-2.3,0.9-3.3,3.2-3.5,5.5c-0.3,3.2-0.2,6.5-0.4,9.7C237.4,94.3,239.9,94.3,239.9,92.7z"/>
			</g>
		</g>
	</g>
	<g>
		<g>
			<path class="st3" d="M177.7,300.3c0.4-2.8,2.6-4.6,4.9-6c2.2-1.3,4.3-1.9,6.9-1.5c4.4,0.6,8.6,3.9,9.6,8.4
				c0.7,3.1,5.5,1.8,4.8-1.3c-1.5-6.7-7.8-11.4-14.5-12.1c-3.4-0.4-6.7,0.6-9.6,2.3c-3.2,1.9-6.4,5-7,8.9c-0.2,1.3,0.3,2.7,1.7,3.1
				C175.8,302.4,177.5,301.7,177.7,300.3L177.7,300.3z"/>
		</g>
	</g>
	<g>
		<g>
			<path class="st20" d="M251.7,116.4c0,0.7,0.3,1.4,0.9,1.9c0.5,0.4,1.5,1,2.1,1.1c1.4,0.3,2.7-0.3,3.7-1.4c0.4-0.5,0.9-1.6,1-2.2
				c0.2-0.7,0-1.5-0.5-2.1c-1.6-1.9-3.9-3-5.6-4.8C253.4,109.1,251.8,114,251.7,116.4z"/>
			<g>
				<path class="st20" d="M250.4,116.4c0,1.8,1.2,3.1,2.8,3.8c1.6,0.8,3.4,0.7,4.8-0.2c1.3-0.9,2.3-2.2,2.6-3.8
					c0.2-0.9,0.1-1.9-0.4-2.7c-0.4-0.7-1.1-1.3-1.7-1.8c-1.4-1.2-3-2.2-4.3-3.5c-0.7-0.7-1.8-0.3-2.1,0.6
					C251.4,111.2,250.6,113.8,250.4,116.4c0,0.7,0.6,1.2,1.2,1.2c0.7,0,1.2-0.6,1.2-1.2c0-0.2,0-0.3,0-0.5c0-0.1,0-0.2,0-0.1
					c0-0.1,0-0.2,0-0.2c0.1-0.4,0.1-0.8,0.2-1.1c0.2-0.8,0.4-1.6,0.6-2.4c0.2-0.9,0.5-1.8,0.8-2.7c-0.7,0.2-1.4,0.4-2.1,0.6
					c1.2,1.2,2.6,2.1,3.9,3.1c0.6,0.5,1.4,1,1.7,1.7c0.3,0.5,0.2,0.9,0,1.5c-0.4,1.1-1.4,2.1-2.7,2.1c-0.6,0-1.1-0.3-1.6-0.6
					c-0.4-0.3-0.8-0.6-0.8-1.2C253,114.8,250.5,114.8,250.4,116.4z"/>
			</g>
		</g>
		<g>
			<path class="st20" d="M284.9,129.4c0,0.1,0,0.3,0.1,0.4c0.1,0.1,0.2,0.2,0.3,0.3c0.2,0.1,0.5,0.1,0.7-0.1
				c0.1-0.1,0.2-0.2,0.3-0.3c0.1-0.1,0.1-0.3,0-0.4c-0.2-0.4-0.6-0.7-0.8-1.1C285.5,128.2,285,129,284.9,129.4z"/>
			<g>
				<path class="st20" d="M283.7,129.1c-0.2,0.6,0.1,1.3,0.6,1.8c0.2,0.2,0.5,0.4,0.8,0.5c0.3,0.1,0.7,0.1,1,0
					c0.2,0,0.3-0.1,0.5-0.2c0.1-0.1,0.3-0.2,0.4-0.3c0,0,0.1-0.1,0.1-0.1c0.1-0.1,0.2-0.2,0.3-0.4c0.1-0.1,0.1-0.3,0.2-0.4
					c0,0,0-0.1,0-0.1c0-0.1,0.1-0.3,0-0.4c0-0.3-0.1-0.7-0.3-0.9c-0.2-0.3-0.5-0.6-0.7-0.9c0.1,0.1,0.1,0.2,0.2,0.3
					c-0.1-0.1-0.1-0.2-0.2-0.2c-0.2-0.4-0.6-0.6-1.1-0.6c-0.4,0-0.9,0.2-1.1,0.6c-0.1,0.2-0.2,0.3-0.3,0.5
					C284,128.4,283.8,128.7,283.7,129.1c-0.1,0.3,0,0.7,0.1,1c0.2,0.3,0.4,0.5,0.7,0.6c0.3,0.1,0.7,0.1,1-0.1
					c0.3-0.2,0.5-0.4,0.6-0.7c0-0.1,0.1-0.2,0.1-0.3c0,0.1-0.1,0.2-0.1,0.3c0.1-0.3,0.3-0.7,0.5-1c-0.7,0-1.4,0-2.2,0
					c0.2,0.4,0.5,0.7,0.8,1c-0.1-0.1-0.1-0.2-0.2-0.3c0.1,0.1,0.2,0.2,0.2,0.4c0-0.1-0.1-0.2-0.1-0.3c0,0,0,0.1,0,0.1
					c0-0.1,0-0.2,0-0.3c0,0,0,0.1,0,0.1c0-0.1,0-0.2,0-0.3c0,0,0,0.1,0,0.1c0-0.1,0.1-0.2,0.1-0.3c0,0.1-0.1,0.2-0.1,0.2
					c0.1-0.1,0.1-0.2,0.2-0.3c0,0-0.1,0.1-0.1,0.1c0.1-0.1,0.2-0.1,0.3-0.2c-0.1,0-0.1,0.1-0.2,0.1c0.1,0,0.2-0.1,0.3-0.1
					c-0.1,0-0.1,0-0.2,0.1c0.1,0,0.2,0,0.3,0c-0.1,0-0.1,0-0.2,0c0.1,0,0.2,0,0.3,0c-0.1,0-0.1,0-0.2-0.1c0.1,0,0.2,0.1,0.3,0.1
					c0,0-0.1-0.1-0.1-0.1c0.1,0.1,0.2,0.1,0.3,0.2c-0.1-0.1-0.1-0.1-0.2-0.2c0.1,0.1,0.1,0.2,0.2,0.3c0,0-0.1-0.1-0.1-0.1
					c0,0.1,0.1,0.2,0.1,0.3c0,0,0-0.1,0-0.1c0,0.1,0,0.2,0,0.3c0,0,0-0.1,0-0.1c0,0.1,0,0.2,0,0.3c0,0,0,0,0-0.1
					c0.1-0.3,0-0.7-0.1-1c-0.2-0.3-0.4-0.5-0.7-0.6c-0.3-0.1-0.7-0.1-1,0.1C284,128.5,283.8,128.8,283.7,129.1z"/>
			</g>
		</g>
		<g>
			<path class="st20" d="M232.4,137.8c-0.1,0.1-0.1,0.2-0.1,0.4c0,0.1,0.1,0.3,0.2,0.4c0.2,0.2,0.4,0.3,0.7,0.2
				c0.1,0,0.3-0.1,0.4-0.2c0.1-0.1,0.2-0.2,0.2-0.3c0-0.4-0.2-0.9-0.3-1.3C233.4,136.9,232.7,137.5,232.4,137.8z"/>
			<g>
				<path class="st20" d="M231.5,136.9c-0.2,0.2-0.3,0.4-0.4,0.7c-0.1,0.2-0.1,0.3-0.1,0.5c0,0.4,0.1,0.6,0.3,0.9
					c0,0.1,0.1,0.1,0.1,0.2c0.2,0.3,0.3,0.4,0.6,0.6c0.1,0.1,0.3,0.1,0.4,0.2c0.1,0,0.2,0.1,0.3,0.1c0.1,0,0.2,0,0.3,0
					c0.1,0,0.3,0,0.4-0.1c0,0,0.1,0,0.1,0c0.2-0.1,0.4-0.2,0.6-0.3c0.3-0.2,0.4-0.3,0.5-0.5c0,0,0-0.1,0.1-0.1
					c0.1-0.1,0.1-0.2,0.2-0.4c0-0.1,0-0.3,0.1-0.4c0,0,0-0.1,0-0.1c0-0.2,0-0.4-0.1-0.5c-0.1-0.4-0.2-0.7-0.3-1
					c-0.1-0.2-0.2-0.4-0.3-0.6c-0.1-0.1-0.2-0.2-0.4-0.3c-0.1-0.1-0.3-0.1-0.5-0.1c-0.2,0-0.4,0.1-0.6,0.2c-0.2,0.2-0.4,0.3-0.7,0.5
					C231.9,136.5,231.7,136.7,231.5,136.9c-0.1,0.1-0.2,0.2-0.3,0.4c-0.1,0.1-0.1,0.3-0.1,0.5c0,0.3,0.1,0.7,0.4,0.9
					c0.2,0.2,0.6,0.4,0.9,0.4c0.3,0,0.7-0.1,0.9-0.4c0.2-0.2,0.5-0.5,0.7-0.6c-0.1,0.1-0.2,0.1-0.3,0.2c0.1-0.1,0.2-0.2,0.3-0.2
					c-0.6-0.2-1.2-0.5-1.8-0.7c0.1,0.4,0.2,0.8,0.3,1.2c0-0.1,0-0.2,0-0.3c0,0.1,0,0.1,0,0.2c0-0.1,0-0.2,0-0.3c0,0,0,0.1,0,0.1
					c0-0.1,0.1-0.2,0.1-0.3c0,0,0,0.1-0.1,0.1c0.1-0.1,0.1-0.2,0.2-0.3c0,0,0,0.1-0.1,0.1c0.1-0.1,0.2-0.1,0.3-0.2
					c-0.1,0.1-0.2,0.1-0.3,0.2c0.1,0,0.2-0.1,0.3-0.1c-0.1,0-0.1,0-0.2,0c0.1,0,0.2,0,0.3,0c-0.1,0-0.1,0-0.2,0c0.1,0,0.2,0,0.3,0
					c-0.1,0-0.1,0-0.2-0.1c0.1,0,0.2,0.1,0.3,0.1c-0.1,0-0.1-0.1-0.1-0.1c0.1,0.1,0.2,0.1,0.3,0.2c0,0-0.1-0.1-0.1-0.1
					c0.1,0.1,0.1,0.2,0.2,0.3c0-0.1-0.1-0.1-0.1-0.2c0,0.1,0.1,0.2,0.1,0.3c0-0.1,0-0.1-0.1-0.2c0,0.1,0,0.2,0,0.3c0,0,0-0.1,0-0.1
					c0,0.1,0,0.2,0,0.3c0,0,0-0.1,0-0.1c0,0.1-0.1,0.2-0.1,0.3c0,0,0,0,0-0.1c-0.1,0.1-0.1,0.2-0.2,0.3c0,0,0,0,0,0
					c0.1-0.1,0.2-0.2,0.3-0.4c0.1-0.1,0.1-0.3,0.1-0.5c0-0.3-0.1-0.7-0.4-0.9c-0.2-0.2-0.6-0.4-0.9-0.4c-0.1,0-0.2,0-0.3,0
					C231.8,136.7,231.6,136.8,231.5,136.9z"/>
			</g>
		</g>
		<g>
			<path class="st20" d="M134,130.3c0,0.7-0.3,1.4-0.9,1.9c-0.5,0.4-1.5,1-2.1,1.1c-1.4,0.3-2.7-0.3-3.7-1.4c-0.4-0.5-0.9-1.6-1-2.2
				c-0.2-0.7,0-1.5,0.5-2.1c1.6-1.9,3.9-3,5.6-4.8C132.3,122.9,133.9,127.8,134,130.3z"/>
			<g>
				<path class="st20" d="M132.8,130.3c0,0.6-0.4,1-0.8,1.2c-0.5,0.4-1,0.6-1.6,0.6c-1.3,0-2.3-1-2.7-2.1c-0.2-0.5-0.3-1,0-1.5
					c0.4-0.6,1.1-1.2,1.7-1.7c1.3-1,2.7-1.9,3.9-3.1c-0.7-0.2-1.4-0.4-2.1-0.6c0.3,0.9,0.5,1.8,0.8,2.7c0.2,0.8,0.4,1.6,0.6,2.3
					c0.1,0.4,0.2,0.8,0.2,1.1c0,0.1,0,0.2,0,0.2c0,0.2,0-0.2,0,0.1C132.7,129.9,132.7,130.1,132.8,130.3c0,0.7,0.5,1.2,1.2,1.2
					c0.6,0,1.3-0.6,1.2-1.2c-0.2-2.6-1-5.2-1.7-7.7c-0.3-0.9-1.4-1.2-2.1-0.6c-1.2,1.2-2.5,2.1-3.8,3.1c-1.3,1.1-2.8,2.3-2.7,4.2
					c0.1,3.3,3.6,6.3,6.9,5.1c1.8-0.7,3.5-2.1,3.5-4.1C135.2,128.7,132.7,128.7,132.8,130.3z"/>
			</g>
		</g>
		<g>
			<path class="st20" d="M119.9,107.4c0,0.3-0.1,0.7-0.3,0.9c-0.2,0.2-0.6,0.5-0.9,0.6c-0.7,0.2-1.3,0-1.8-0.5
				c-0.2-0.2-0.5-0.7-0.6-1c-0.1-0.3-0.1-0.7,0.1-1c0.7-0.9,1.7-1.5,2.4-2.4C118.9,104.1,119.8,106.3,119.9,107.4z"/>
			<g>
				<path class="st20" d="M118.7,107.4C118.7,107.5,118.6,107.8,118.7,107.4C118.6,107.7,118.8,107.3,118.7,107.4
					C118.6,107.6,118.7,107.5,118.7,107.4C118.7,107.4,118.7,107.5,118.7,107.4c0,0.1-0.1,0.1-0.1,0.2c0.2-0.1,0.2-0.1,0.1-0.1
					c0,0-0.1,0.1-0.1,0.1c-0.1,0-0.1,0.1-0.2,0.1c0,0-0.1,0-0.1,0.1c0.2-0.1,0.2-0.1,0.1-0.1c-0.1,0-0.1,0-0.2,0c0.1,0,0.1,0,0.2,0
					c0,0-0.3,0-0.3,0c0.2,0,0.2,0,0.1,0c0,0,0,0-0.1,0c0,0-0.1,0-0.1,0c0.2,0.1,0.2,0.1,0.1,0c-0.1,0-0.1-0.1-0.2-0.1
					c-0.1-0.1-0.1-0.1,0.1,0.1c0,0-0.1-0.1-0.1-0.1c-0.2-0.1,0,0,0,0.1c-0.1-0.2-0.2-0.3-0.3-0.5c-0.1-0.3,0.1,0.2,0,0
					c0,0,0-0.1,0-0.1c0-0.1,0-0.1,0,0c0,0.1,0,0.1,0,0c0-0.1,0-0.1,0,0.1c0-0.2-0.2,0.2,0,0c0.2-0.3-0.1,0.2,0,0
					c0.1-0.1,0.1-0.1,0.2-0.2c0.1-0.1,0.3-0.3,0.4-0.4c0.6-0.5,1.2-1,1.6-1.6c-0.7-0.2-1.4-0.4-2.1-0.6c0.4,1.1,0.9,2.2,1.1,3.3
					c0,0.3,0.3,0.6,0.6,0.7c0.3,0.2,0.7,0.2,1,0.1c0.3-0.1,0.6-0.3,0.7-0.6c0.2-0.3,0.2-0.6,0.1-1c-0.2-1.1-0.6-2.3-1.1-3.3
					c-0.2-0.4-0.4-0.7-0.9-0.9c-0.4-0.1-0.9,0-1.2,0.3c-0.5,0.6-1.1,1-1.6,1.5c-0.7,0.7-1.4,1.4-1.3,2.5c0,1,0.7,1.9,1.4,2.5
					c0.9,0.6,2,0.7,2.9,0.3c1-0.4,1.9-1.4,1.7-2.6c0-0.3-0.1-0.6-0.4-0.9c-0.2-0.2-0.6-0.4-0.9-0.4
					C119.3,106.2,118.6,106.7,118.7,107.4z"/>
			</g>
		</g>
		<g>
			<path class="st20" d="M162.3,108.9c0.1,0.2,0.2,0.4,0.1,0.6c0,0.2-0.2,0.5-0.3,0.7c-0.3,0.3-0.7,0.4-1.2,0.3
				c-0.2,0-0.5-0.2-0.7-0.3c-0.2-0.1-0.3-0.4-0.3-0.6c0-0.7,0.4-1.4,0.5-2.2C160.5,107.4,161.8,108.3,162.3,108.9z"/>
			<g>
				<path class="st20" d="M161.4,109.8C161.4,109.8,161.4,109.8,161.4,109.8c0,0-0.1-0.1-0.2-0.2
					C161.3,109.6,161.3,109.7,161.4,109.8c-0.1-0.2-0.2-0.3-0.2-0.4c0,0.1,0,0.1,0.1,0.2c0-0.1,0-0.2,0-0.3c0,0.1,0,0.2,0,0.2
					c0-0.1,0-0.2,0-0.3c0,0.1-0.1,0.2-0.1,0.3c0-0.1,0.1-0.2,0.1-0.3c-0.1,0.1-0.1,0.2-0.2,0.4c0.1-0.1,0.1-0.2,0.2-0.3
					c0,0.1-0.1,0.1-0.2,0.2c0.1-0.1,0.2-0.1,0.3-0.2c-0.1,0.1-0.2,0.1-0.2,0.1c0.1,0,0.2-0.1,0.3-0.1c-0.1,0-0.2,0.1-0.3,0.1
					c0.1,0,0.2,0,0.3,0c-0.1,0-0.3,0-0.4,0c0.1,0,0.2,0,0.3,0c-0.1,0-0.2,0-0.3-0.1c0.1,0,0.2,0.1,0.3,0.1c-0.2-0.1-0.3-0.2-0.4-0.3
					c0.1,0.1,0.2,0.1,0.3,0.2c0,0-0.1-0.1-0.1-0.1c0.1,0.1,0.1,0.2,0.2,0.3c0-0.1-0.1-0.1-0.1-0.2c0,0.1,0.1,0.2,0.1,0.3
					c0,0,0-0.1,0-0.1C161.3,109.5,161.3,109.7,161.4,109.8c-0.1-0.2-0.1-0.3-0.1-0.4c0,0.1,0,0.2,0,0.3c0.1-0.7,0.4-1.3,0.5-2
					c-0.6,0.2-1.2,0.5-1.8,0.7c0.2,0.1,0.3,0.3,0.5,0.4c-0.1-0.1-0.2-0.1-0.3-0.2C160.6,109,161,109.4,161.4,109.8
					c0.2,0.2,0.6,0.4,0.9,0.4c0.3,0,0.7-0.1,0.9-0.4c0.2-0.2,0.4-0.6,0.4-0.9c0-0.3-0.1-0.6-0.4-0.9c-0.3-0.4-0.7-0.7-1.1-1
					c-0.3-0.2-0.6-0.5-0.9-0.7c-0.3-0.2-0.8-0.2-1.1-0.1c-0.3,0.1-0.7,0.4-0.7,0.8c-0.1,0.5-0.3,1-0.4,1.5c-0.1,0.3-0.2,0.7-0.1,1.1
					c0,0.5,0.2,1,0.6,1.3c0.5,0.5,1.2,0.8,1.9,0.8c0.8,0,1.6-0.4,2-1.1c0.2-0.3,0.3-0.7,0.4-1.1c0-0.3,0-0.5,0-0.8
					c-0.1-0.3-0.3-0.6-0.5-0.8c-0.2-0.2-0.6-0.4-0.9-0.4c-0.3,0-0.7,0.1-0.9,0.4c-0.2,0.2-0.4,0.6-0.4,0.9c0,0.1,0,0.2,0,0.3
					C161.1,109.5,161.2,109.6,161.4,109.8z"/>
			</g>
		</g>
		<g>
			<path class="st20" d="M302.4,242.4c0.5,0.5,0.7,1.3,0.6,2c-0.1,0.7-0.5,1.7-0.9,2.3c-0.9,1.1-2.3,1.5-3.8,1.3
				c-0.7-0.1-1.7-0.6-2.2-1c-0.6-0.4-1-1.1-1-1.9c0-2.5,1.1-4.8,1.3-7.3C296.4,237.8,300.7,240.6,302.4,242.4z"/>
			<g>
				<path class="st20" d="M301.5,243.3c0.6,0.7-0.1,2.3-0.7,2.8c-0.8,0.8-2.2,0.8-3.1,0.3c-0.3-0.1-0.6-0.3-0.9-0.5
					c0.1,0.1-0.2-0.2-0.2-0.2c0,0-0.2-0.2-0.2-0.3c-0.3-0.6,0-1.6,0.1-2.3c0.4-1.8,0.9-3.6,1.1-5.4c-0.6,0.4-1.3,0.7-1.9,1.1
					c0.8,0.5,1.6,1,2.3,1.6c0.7,0.5,1.3,0.9,1.8,1.3C300.4,242.3,301,242.7,301.5,243.3c1.1,1.2,2.9-0.6,1.8-1.8
					c-1.1-1.2-2.5-2.2-3.8-3.1c-0.8-0.6-1.6-1.1-2.4-1.7c-0.9-0.6-1.8,0.2-1.9,1.1c-0.2,1.7-0.7,3.3-1,5c-0.3,1.8-0.5,3.7,1.1,5
					c1.2,1,2.8,1.6,4.3,1.4c1.6-0.2,3.1-1,3.9-2.4c0.9-1.7,1.2-3.7-0.2-5.3c-0.4-0.5-1.3-0.5-1.8,0C301,242,301.1,242.8,301.5,243.3
					z"/>
			</g>
		</g>
		<g>
			<path class="st20" d="M82.5,194.6c0.1,0.7-0.2,1.5-0.8,2c-0.5,0.5-1.4,1.1-2.1,1.2c-1.4,0.4-2.7-0.2-3.8-1.2
				c-0.5-0.5-1-1.5-1.1-2.1c-0.2-0.7-0.1-1.5,0.4-2.1c1.5-2,3.8-3.2,5.4-5C80.4,187.4,82.2,192.2,82.5,194.6z"/>
			<g>
				<path class="st20" d="M81.2,194.6c0,0.7-0.3,1.1-0.8,1.4c-0.6,0.4-1,0.6-1.6,0.7c-1.3,0-2.3-0.9-2.7-2.1c-0.2-0.5-0.3-1,0-1.5
					c0.4-0.6,1-1.1,1.6-1.6c1.2-1.1,2.6-2.1,3.7-3.3c-0.7-0.2-1.4-0.4-2.1-0.6c0.3,0.9,0.6,1.8,0.9,2.7c0.2,0.8,0.5,1.5,0.7,2.3
					c0.1,0.4,0.2,0.8,0.3,1.1c0,0.2,0.1,0.4,0.1,0.5C81.2,194.4,81.2,194.5,81.2,194.6C81.3,194.9,81.2,194.3,81.2,194.6
					c0.1,0.7,0.5,1.2,1.2,1.2c0.6,0,1.3-0.6,1.2-1.2c-0.3-2.6-1.2-5.2-2.1-7.6c-0.3-0.8-1.4-1.3-2.1-0.6c-1.1,1.2-2.4,2.1-3.6,3.2
					c-1.3,1.1-2.7,2.4-2.6,4.3c0.2,3.3,3.7,6.2,7,5c1.8-0.7,3.5-2.2,3.4-4.3c0-0.7-0.5-1.2-1.2-1.2C81.8,193.4,81.2,194,81.2,194.6z
					"/>
			</g>
		</g>
	</g>
	<g>
		<g>
			<g>
				<path class="st3" d="M192.3,198.6c0.5-0.2,1-0.6,1.5-0.7c-0.2,0-0.3,0.1,0,0c0.1,0,0.2-0.1,0.4-0.1c0.3-0.1,0.5-0.2,0.8-0.2
					c0.3-0.1,0.5-0.1,0.8-0.2c-0.2,0-0.3,0,0,0c0.1,0,0.3,0,0.4,0c0.1,0,0.3,0.1,0.4,0c-0.1,0-0.5-0.1-0.1,0
					c0.4,0.1,0.9,0.1,1.4,0.2c0.1,0,0.5,0.1,0.1,0c-0.4-0.1,0,0,0.1,0c0.2,0,0.5,0.1,0.7,0.1c0.5,0.1,1,0.3,1.4,0.4
					c0.1,0,0.5,0.2,0.1,0c-0.3-0.1,0.1,0,0.1,0.1c0.2,0.1,0.4,0.2,0.6,0.3c0.2,0.1,0.4,0.2,0.6,0.4c0.3,0.2-0.3-0.3-0.1-0.1
					c0.1,0.1,0.2,0.2,0.3,0.3c1,0.9,2.6,1,3.5,0c0.9-1,1-2.6,0-3.5c-1.9-1.8-4.7-2.7-7.3-3c-0.1,0-0.5-0.1-0.2,0
					c0.4,0.1-0.2,0-0.2,0c-0.4-0.1-0.9-0.1-1.3-0.2c-0.8,0-1.6,0.1-2.4,0.3c-1.4,0.3-2.7,1-4,1.6c-1.2,0.5-1.6,2.4-0.9,3.4
					C189.7,198.9,191.1,199.1,192.3,198.6L192.3,198.6z"/>
			</g>
		</g>
		<g>
			<g>
				<path class="st3" d="M320.4,197.9c5.8-5.3,12-10.2,18.5-14.6c1.1-0.8,1.6-2.2,0.9-3.4c-0.6-1.1-2.3-1.7-3.4-0.9
					c-6.8,4.7-13.4,9.8-19.5,15.4c-1,0.9-0.9,2.6,0,3.5C317.9,198.8,319.4,198.8,320.4,197.9L320.4,197.9z"/>
			</g>
		</g>
		<g>
			<g>
				<path class="st3" d="M76.6,190.3c-6.1-5.6-12.7-10.7-19.5-15.4c-1.1-0.8-2.8-0.2-3.4,0.9c-0.7,1.2-0.2,2.7,0.9,3.4
					c6.5,4.4,12.7,9.3,18.5,14.6c1,0.9,2.5,1,3.5,0C77.5,192.9,77.6,191.2,76.6,190.3L76.6,190.3z"/>
			</g>
		</g>
		<g>
			<path class="st10" d="M168.3,255.6l-79.5-2.3c-9.2-0.3-16.4-8-16.2-17.1l2.3-79.5c0.3-9.2,8-16.4,17.1-16.2l79.5,2.3
				c9.2,0.3,16.4,8,16.2,17.1l-2.3,79.5C185.1,248.6,177.4,255.9,168.3,255.6z"/>
			<g class="st11">
				<g>
					<path class="st12" d="M117.1,205.4c8.5-9.8,17.6-19,27.2-27.7c2.4-2.2-1.1-5.7-3.5-3.5c-9.6,8.6-18.7,17.9-27.2,27.7
						c-0.9,1-1,2.5,0,3.5C114.5,206.3,116.2,206.4,117.1,205.4L117.1,205.4z"/>
				</g>
			</g>
			<g class="st11">
				<g>
					<path class="st12" d="M130.1,217.5c0.2-0.3,0.4-0.6,0.6-0.8c0.1-0.1,0.2-0.2,0.3-0.3c0,0,0.4-0.5,0.2-0.3
						c-0.2,0.2,0.2-0.3,0.2-0.3c0.1-0.1,0.2-0.2,0.3-0.3c0.2-0.3,0.4-0.5,0.6-0.8c0.9-1.1,1.8-2.2,2.8-3.3c1.8-2.1,3.7-4.1,5.7-5.9
						c1-0.9,1-2.7,0-3.5c-1.1-1-2.5-0.9-3.5,0c-4.4,3.8-8,8.5-11.5,13.1c-0.8,1-0.2,2.8,0.9,3.4C128,219.1,129.2,218.6,130.1,217.5
						L130.1,217.5z"/>
				</g>
			</g>
		</g>
		<g>
			<path class="st10" d="M299.1,258.3l-79.5-2.3c-9.2-0.3-16.4-8-16.2-17.1l2.3-79.5c0.3-9.2,8-16.4,17.1-16.2l79.5,2.3
				c9.2,0.3,16.4,8,16.2,17.1l-2.3,79.5C316,251.3,308.2,258.6,299.1,258.3z"/>
			<g class="st11">
				<g>
					<path class="st12" d="M247.9,208.1c8.5-9.8,17.6-19,27.2-27.7c2.4-2.2-1.1-5.7-3.5-3.5c-9.6,8.6-18.7,17.9-27.2,27.7
						c-0.9,1-1,2.5,0,3.5C245.3,209,247.1,209.2,247.9,208.1L247.9,208.1z"/>
				</g>
			</g>
			<g class="st11">
				<g>
					<path class="st12" d="M260.9,220.2c0.2-0.3,0.4-0.6,0.6-0.8c0.1-0.1,0.2-0.2,0.3-0.3c0,0,0.4-0.5,0.2-0.3
						c-0.2,0.2,0.2-0.3,0.2-0.3c0.1-0.1,0.2-0.2,0.3-0.3c0.2-0.3,0.4-0.5,0.6-0.8c0.9-1.1,1.8-2.2,2.8-3.3c1.8-2.1,3.7-4.1,5.7-5.9
						c1-0.9,1-2.7,0-3.5c-1.1-1-2.5-0.9-3.5,0c-4.4,3.8-8,8.5-11.5,13.1c-0.8,1-0.2,2.8,0.9,3.4
						C258.8,221.8,260.1,221.3,260.9,220.2L260.9,220.2z"/>
				</g>
			</g>
		</g>
	</g>
	<g>
		<g>
			<g>
				<path class="st104" d="M250.1,321.3c-7.5,8.3-13.3,18.1-17.1,28.6l-0.1,0.3c6.7,9.3,14.2,18.4,23.9,24.5
					c9.7,6.1,21.1,9,32.4,11.3c5.4,1.1,10.9,2.1,16.3,1.6c3.9-0.3,7.8-1.4,11.6-2.4c7.2-2,14.7-4.3,20.2-9.4l0.4,0.2
					c2.2-15.2,3.4-30.5,3.4-45.8"/>
				<g>
					<path class="st9" d="M248.4,319.5c-3.9,4.4-7.4,9.1-10.4,14.2c-1.5,2.5-2.8,5-4,7.6c-1.2,2.5-2.1,5.4-3.2,7.6
						c-0.4,0.8-0.5,1.8,0,2.5c4.6,6.3,9.4,12.5,15.1,17.8c5.9,5.5,12.6,9.7,20.1,12.8c7.6,3.1,15.6,4.9,23.6,6.5
						c4.3,0.9,8.7,1.6,13.2,1.6c4.4,0,8.8-0.9,13.1-2.1c8.3-2.2,16.8-4.7,23.4-10.6c-1,0.1-2,0.3-3,0.4c0.1,0.1,0.2,0.1,0.4,0.2
						c1.3,0.6,3.4,0.3,3.7-1.5c2.3-15.4,3.4-30.9,3.5-46.5c0-3.2-5-3.2-5,0c0,15.1-1.1,30.2-3.3,45.2c1.2-0.5,2.4-1,3.7-1.5
						c-0.1-0.1-0.2-0.1-0.4-0.2c-1.1-0.5-2.1-0.4-3,0.4c-5.2,4.7-12.1,6.7-18.7,8.6c-3.8,1.1-7.8,2.2-11.8,2.5
						c-4.1,0.3-8.1-0.2-12.1-1c-14.9-2.7-30-6.5-41.7-16.7c-6.2-5.4-11.4-11.9-16.2-18.5c0,0.8,0,1.7,0,2.5c1.1-2.4,2-5,3.1-7.4
						c1.2-2.5,2.5-5,3.9-7.4c2.8-4.8,6.1-9.3,9.9-13.5C254,320.6,250.5,317.1,248.4,319.5L248.4,319.5z"/>
				</g>
			</g>
			<polygon class="st105" points="290.9,350.8 220.2,297.5 299,282.4 379.7,335.3 			"/>
		</g>
		<g>
			<g>
				<g>
					<path class="st106" d="M297.7,314.9c16,1.1,31,7.8,44.3,16.4c6,3.9,11.9,8.2,17.4,12.8c2.4,2,4.9,4.1,6.6,6.7
						c0.8,1.2,1.5,2.4,1.8,3.8c0.3,1.5,0,2.7-0.5,4.1c-3,9.3-3.3,19.1-3.5,28.8c0,1.6,2.5,1.6,2.5,0c0.3-9.1,0.4-18.3,3.1-27
						c0.5-1.6,1.1-3.1,1.1-4.9c-0.1-1.4-0.5-2.8-1.1-4.1c-1.4-2.9-3.7-5.2-6.1-7.3c-2.3-2.1-4.8-3.9-7.3-5.8
						c-3.2-2.5-6.6-4.9-10-7.2c-6.8-4.6-14-8.8-21.7-12c-8.5-3.6-17.5-6-26.8-6.7C296.1,312.3,296.1,314.8,297.7,314.9L297.7,314.9z
						"/>
				</g>
			</g>
			<g>
				<g>
					<path class="st106" d="M368.7,355.6c3.9,3.1,5.6,7.9,6.6,12.7c1.2,6,1.3,12.3,0.4,18.4c-0.2,1.6,2.2,2.3,2.4,0.7
						c1-6.6,0.9-13.2-0.4-19.7c-1-5.1-3-10.4-7.2-13.8C369.2,352.9,367.4,354.6,368.7,355.6L368.7,355.6z"/>
				</g>
			</g>
			<g>
				<g>
					<path class="st106" d="M369,357.1c1.2,9.5,1.7,19.1,1.3,28.6c-0.1,1.6,2.4,1.6,2.5,0c0.4-9.6-0.1-19.1-1.3-28.6
						C371.3,355.5,368.8,355.5,369,357.1L369,357.1z"/>
				</g>
			</g>
			<g>
				<g>
					<path class="st106" d="M369.6,359.3c-3,8.3-5.8,18.1,0.1,25.8c1,1.3,2.7-0.5,1.8-1.8c-5.3-6.8-2.1-16.2,0.5-23.4
						C372.6,358.4,370.2,357.8,369.6,359.3L369.6,359.3z"/>
				</g>
			</g>
			<g>
				<g>
					<path class="st106" d="M370.4,360.1c4.5,7.5,7.7,17.2,2.5,25.2c-0.9,1.4,1.3,2.6,2.2,1.3c5.7-8.7,2.5-19.5-2.5-27.8
						C371.7,357.4,369.6,358.7,370.4,360.1L370.4,360.1z"/>
				</g>
			</g>
			<g>
				<g>
					<path class="st106" d="M370.8,364.4c-0.1,5,1.1,9.8,3.3,14.2c0.7,1.4,2.9,0.2,2.2-1.3c-2-4-3-8.5-3-13
						C373.4,362.8,370.9,362.8,370.8,364.4L370.8,364.4z"/>
				</g>
			</g>
		</g>
	</g>
	<g>
		<path class="st1" d="M312.6,265c5.1,7.5,10.3,15,15.4,22.6c1.7,2.5,3.4,5,4.5,7.8c1.9,5.1,0.9,10-1.7,12.9
			c-2.5,2.9-6.3,4.2-10.1,5c-5.2,1.2-11.5,1.5-17-3.3c-2.9-2.5-5-6-7-9.3c-3.7-6.3-6.9-12.8-9.8-19.3L312.6,265z"/>
		<g>
			<path class="st1" d="M311.5,265.6c4.6,6.7,9.2,13.4,13.8,20.1c3.8,5.6,9.1,12.2,6.1,19.3c-1.2,2.9-3.8,4.8-6.7,5.9
				c-2.7,1-5.8,1.7-8.7,1.9c-3.1,0.2-6.1-0.4-8.8-1.9c-3.1-1.8-5.4-4.6-7.3-7.5c-4.6-7.1-8.5-14.9-11.9-22.7
				c-0.1,0.6-0.3,1.1-0.4,1.7c7.5-4.8,15-9.5,22.5-14.3c1.1-0.7,2.1-1.4,3.2-2c1.4-0.9,0.1-3-1.3-2.2c-7.5,4.8-15,9.5-22.5,14.3
				c-1.1,0.7-2.1,1.4-3.2,2c-0.6,0.4-0.7,1.1-0.4,1.7c3.3,7.5,7,15,11.4,22c2,3.2,4.3,6.2,7.5,8.4c2.8,1.9,6.1,2.9,9.5,3
				c3.2,0.1,6.4-0.5,9.4-1.4c3.2-1,6.4-2.5,8.5-5.2c2-2.6,2.8-6,2.5-9.2c-0.3-3.9-2.2-7.4-4.3-10.6c-5.4-8.2-11.1-16.3-16.7-24.4
				C312.7,263,310.6,264.3,311.5,265.6z"/>
		</g>
	</g>
</g>
</svg>
