<?xml version="1.0" encoding="utf-8"?>
<!-- Generator: Adobe Illustrator 24.1.2, SVG Export Plug-In . SVG Version: 6.00 Build 0)  -->
<svg version="1.1" id="Layer_1" xmlns="http://www.w3.org/2000/svg" xmlns:xlink="http://www.w3.org/1999/xlink" x="0px" y="0px"
	 viewBox="0 0 436.9 405.1" style="enable-background:new 0 0 436.9 405.1;" xml:space="preserve">
<style type="text/css">
	.st0{fill:url(#SVGID_1_);}
	.st1{fill:#BDDFF6;}
	.st2{fill:#010101;}
	.st3{fill:#231F20;}
	.st4{fill:#BE202E;}
	.st5{fill:#AC1F29;}
	.st6{fill:#FFFFFF;stroke:#FFFFFF;stroke-miterlimit:10;}
	.st7{fill:#3077BB;}
	.st8{fill:#231F20;stroke:#231F20;stroke-miterlimit:10;}
	.st9{fill:#00729F;}
	.st10{fill:#9EDAE6;fill-opacity:0.43;stroke:#231F20;stroke-width:8;stroke-miterlimit:10;}
	.st11{opacity:0.75;}
	.st12{fill:#BEE4ED;}
	.st13{fill:url(#SVGID_2_);}
	.st14{fill:url(#SVGID_3_);}
	.st15{fill:url(#SVGID_4_);}
	.st16{fill:url(#SVGID_5_);}
	.st17{fill:url(#SVGID_6_);}
	.st18{fill:url(#SVGID_7_);}
	.st19{fill:url(#SVGID_8_);}
	.st20{fill:#6FCCD8;}
	.st21{fill:url(#SVGID_9_);}
	.st22{fill:url(#SVGID_10_);}
	.st23{fill:#FFFFFF;}
	.st24{fill:url(#SVGID_11_);}
	.st25{fill:url(#SVGID_12_);}
	.st26{fill:url(#SVGID_13_);}
	.st27{fill:url(#SVGID_14_);}
	.st28{fill:url(#SVGID_15_);}
	.st29{fill:url(#SVGID_16_);}
	.st30{fill:#774098;}
	.st31{fill:#6A2F8F;}
	.st32{fill:#774098;stroke:#6A2F8F;stroke-width:2;stroke-miterlimit:10;}
	.st33{opacity:0.15;}
	.st34{filter:url(#Adobe_OpacityMaskFilter);}
	.st35{mask:url(#SVGID_17_);}
	.st36{fill:#F15E6D;}
	.st37{filter:url(#Adobe_OpacityMaskFilter_1_);}
	.st38{mask:url(#SVGID_18_);}
	.st39{fill:url(#SVGID_19_);}
	.st40{filter:url(#Adobe_OpacityMaskFilter_2_);}
	.st41{mask:url(#SVGID_20_);}
	.st42{filter:url(#Adobe_OpacityMaskFilter_3_);}
	.st43{mask:url(#SVGID_21_);}
	.st44{fill:url(#SVGID_22_);}
	.st45{filter:url(#Adobe_OpacityMaskFilter_4_);}
	.st46{mask:url(#SVGID_23_);}
	.st47{filter:url(#Adobe_OpacityMaskFilter_5_);}
	.st48{mask:url(#SVGID_24_);}
	.st49{fill:url(#SVGID_25_);}
	.st50{filter:url(#Adobe_OpacityMaskFilter_6_);}
	.st51{mask:url(#SVGID_26_);}
	.st52{filter:url(#Adobe_OpacityMaskFilter_7_);}
	.st53{mask:url(#SVGID_27_);}
	.st54{fill:url(#SVGID_28_);}
	.st55{filter:url(#Adobe_OpacityMaskFilter_8_);}
	.st56{mask:url(#SVGID_29_);}
	.st57{filter:url(#Adobe_OpacityMaskFilter_9_);}
	.st58{mask:url(#SVGID_30_);}
	.st59{fill:url(#SVGID_31_);}
	.st60{filter:url(#Adobe_OpacityMaskFilter_10_);}
	.st61{mask:url(#SVGID_32_);}
	.st62{filter:url(#Adobe_OpacityMaskFilter_11_);}
	.st63{mask:url(#SVGID_33_);}
	.st64{fill:url(#SVGID_34_);}
	.st65{filter:url(#Adobe_OpacityMaskFilter_12_);}
	.st66{mask:url(#SVGID_35_);}
	.st67{filter:url(#Adobe_OpacityMaskFilter_13_);}
	.st68{mask:url(#SVGID_36_);}
	.st69{fill:url(#SVGID_37_);}
	.st70{filter:url(#Adobe_OpacityMaskFilter_14_);}
	.st71{mask:url(#SVGID_38_);}
	.st72{filter:url(#Adobe_OpacityMaskFilter_15_);}
	.st73{mask:url(#SVGID_39_);}
	.st74{fill:url(#SVGID_40_);}
	.st75{filter:url(#Adobe_OpacityMaskFilter_16_);}
	.st76{mask:url(#SVGID_41_);}
	.st77{filter:url(#Adobe_OpacityMaskFilter_17_);}
	.st78{mask:url(#SVGID_42_);}
	.st79{fill:url(#SVGID_43_);}
	.st80{filter:url(#Adobe_OpacityMaskFilter_18_);}
	.st81{mask:url(#SVGID_44_);}
	.st82{filter:url(#Adobe_OpacityMaskFilter_19_);}
	.st83{mask:url(#SVGID_45_);}
	.st84{fill:url(#SVGID_46_);}
	.st85{filter:url(#Adobe_OpacityMaskFilter_20_);}
	.st86{mask:url(#SVGID_47_);}
	.st87{filter:url(#Adobe_OpacityMaskFilter_21_);}
	.st88{mask:url(#SVGID_48_);}
	.st89{fill:url(#SVGID_49_);}
	.st90{filter:url(#Adobe_OpacityMaskFilter_22_);}
	.st91{mask:url(#SVGID_50_);}
	.st92{filter:url(#Adobe_OpacityMaskFilter_23_);}
	.st93{mask:url(#SVGID_51_);}
	.st94{fill:url(#SVGID_52_);}
	.st95{filter:url(#Adobe_OpacityMaskFilter_24_);}
	.st96{mask:url(#SVGID_53_);}
	.st97{filter:url(#Adobe_OpacityMaskFilter_25_);}
	.st98{mask:url(#SVGID_54_);}
	.st99{fill:url(#SVGID_55_);}
	.st100{filter:url(#Adobe_OpacityMaskFilter_26_);}
	.st101{mask:url(#SVGID_56_);}
	.st102{filter:url(#Adobe_OpacityMaskFilter_27_);}
	.st103{mask:url(#SVGID_57_);}
	.st104{fill:url(#SVGID_58_);}
	.st105{filter:url(#Adobe_OpacityMaskFilter_28_);}
	.st106{mask:url(#SVGID_59_);}
	.st107{filter:url(#Adobe_OpacityMaskFilter_29_);}
	.st108{mask:url(#SVGID_60_);}
	.st109{fill:url(#SVGID_61_);}
	.st110{fill:#1B191D;}
	.st111{fill:#1B191D;stroke:#00729F;stroke-width:4;stroke-miterlimit:10;}
	.st112{fill:#FAAF43;}
	.st113{fill:url(#SVGID_62_);}
	.st114{fill:url(#SVGID_63_);}
	.st115{fill:url(#SVGID_64_);}
	.st116{fill:url(#SVGID_65_);}
	.st117{fill:url(#SVGID_66_);}
	.st118{fill:url(#SVGID_67_);}
	.st119{fill:url(#SVGID_68_);}
	.st120{fill:url(#SVGID_69_);}
	.st121{fill:url(#SVGID_70_);}
	.st122{fill:url(#SVGID_71_);}
	.st123{fill:url(#SVGID_72_);}
	.st124{fill:url(#SVGID_73_);}
	.st125{fill:url(#SVGID_74_);}
	.st126{fill:url(#SVGID_75_);}
</style>
<g>
	
		<radialGradient id="SVGID_1_" cx="174.6655" cy="156.4255" r="136.4529" gradientTransform="matrix(1.043 0 0 0.9472 32.7081 80.2802)" gradientUnits="userSpaceOnUse">
		<stop  offset="0" style="stop-color:#A8DCDB"/>
		<stop  offset="0.7847" style="stop-color:#BDDFF6"/>
	</radialGradient>
	<path class="st0" d="M351.7,218.9c0,77.6-53.8,143.3-139.2,143.3S78.1,296.5,78.1,218.9S127,94.1,212.5,94.1
		S351.7,141.3,351.7,218.9z"/>
	<g>
		<path class="st1" d="M137.2,334.9c-4,8.2-8.1,16.3-12.1,24.5c-1.3,2.7-2.7,5.5-3,8.5c-0.6,5.7,2.8,11.2,7.4,14.5
			c4.6,3.4,10.2,4.9,15.8,6.1c7.5,1.6,16.2,2.2,21.9-3c2.9-2.6,4.5-6.4,5.9-10.1c2.5-6.9,4.4-13.9,5.8-21.1L137.2,334.9z"/>
		<g>
			<path class="st1" d="M136.1,334.3c-4.4,8.8-9,17.6-13.1,26.5c-1.8,3.8-2.9,7.8-1.8,12c0.9,3.7,3.2,7.1,6.1,9.6
				c6.2,5.3,15,7.3,22.8,8.2c7.5,0.9,15.5-0.3,20.2-6.8c2.8-3.9,4.3-8.9,5.7-13.4c1.6-5.2,2.9-10.4,3.9-15.7
				c0.1-0.5-0.1-1.2-0.6-1.4c-4.7-2.2-9.3-4.4-14-6.5c-7.5-3.5-14.9-6.9-22.4-10.4c-1.7-0.8-3.5-1.6-5.2-2.4
				c-1.4-0.7-2.7,1.5-1.3,2.2c4.7,2.2,9.3,4.4,14,6.5c7.5,3.5,14.9,6.9,22.4,10.4c1.7,0.8,3.5,1.6,5.2,2.4c-0.2-0.5-0.4-0.9-0.6-1.4
				c-0.8,4.3-1.8,8.5-3,12.7c-1.2,4-2.4,8.1-4.1,11.9c-1.5,3.4-3.7,6.3-7.1,8c-3.1,1.5-6.7,1.8-10.1,1.7c-3.7-0.2-7.3-0.9-10.8-1.7
				c-3.8-0.9-7.6-2.2-11-4.3c-3.1-2-5.8-4.7-7.2-8.2c-1.6-3.8-1.1-7.6,0.5-11.2c2-4.5,4.4-8.9,6.6-13.3c2.3-4.7,4.6-9.3,7-14
				C139,334.1,136.8,332.8,136.1,334.3z"/>
		</g>
	</g>
	<g>
		<path class="st1" d="M225.4,339.7c-1.8,8.9-3.5,17.9-5.3,26.8c-0.6,3-1.2,6-0.7,9c0.9,5.6,5.6,10,10.9,12.1
			c5.3,2,11.2,2.1,16.8,1.7c7.6-0.5,16.2-2.2,20.4-8.6c2.1-3.3,2.7-7.4,3-11.3c0.6-7.3,0.6-14.6,0-21.9L225.4,339.7z"/>
		<g>
			<path class="st1" d="M224.2,339.4c-1,5-1.9,9.9-2.9,14.9c-0.9,4.8-2,9.7-2.8,14.5c-0.7,4.2-0.6,8.3,1.7,12c1.9,3.1,4.8,5.5,8,7.1
				c7.4,3.6,16.7,3.2,24.7,2c7.1-1.1,14.3-4.1,17.2-11.2c1.9-4.5,2-9.7,2.2-14.5c0.2-5.6,0.1-11.2-0.3-16.8c0-0.5-0.4-1.1-0.9-1.2
				c-5.1-0.9-10.2-1.7-15.2-2.6c-8.1-1.4-16.2-2.8-24.3-4.2c-1.9-0.3-3.8-0.6-5.6-1c-1.6-0.3-2.2,2.1-0.7,2.4
				c5.1,0.9,10.2,1.7,15.2,2.6c8.1,1.4,16.2,2.8,24.3,4.2c1.9,0.3,3.8,0.6,5.6,1c-0.3-0.4-0.6-0.8-0.9-1.2c0.4,4.5,0.5,9.1,0.4,13.6
				c-0.1,4.2-0.2,8.6-1,12.8c-0.7,3.6-2.2,6.9-5,9.2c-2.6,2.1-5.8,3.2-9,3.9c-3.4,0.8-7,1-10.5,1.1c-4.1,0.1-8.3-0.1-12.3-1.3
				c-3.3-1.1-6.5-3-8.7-5.8c-2.5-3.1-3.1-6.7-2.6-10.6c0.6-5,1.9-10.1,2.9-15.1c1-5.1,2-10.2,3-15.4
				C226.9,338.5,224.5,337.8,224.2,339.4z"/>
		</g>
	</g>
	<g>
		<path class="st1" d="M101.9,283.5c-5.7,7.1-11.5,14.1-17.2,21.2c-1.9,2.3-3.8,4.7-5.1,7.4c-2.3,5-1.7,9.9,0.6,13
			c2.3,3.1,5.9,4.7,9.7,5.8c5,1.6,11.3,2.4,17.2-1.9c3.1-2.2,5.5-5.5,7.8-8.7c4.2-6,8-12.2,11.4-18.4L101.9,283.5z"/>
		<g>
			<path class="st1" d="M101,282.6c-5.5,6.8-11,13.5-16.5,20.3c-2.5,3.1-5.1,6.1-6.6,9.8c-1.3,3.4-1.6,7.3-0.2,10.8
				c2.5,6.1,9.8,8.8,15.8,9.8c3.3,0.5,6.7,0.4,9.8-0.8c3.6-1.4,6.5-3.9,8.9-6.8c2.8-3.4,5.3-7.2,7.7-11c2.5-4,4.9-8,7.2-12.1
				c0.4-0.6,0.1-1.3-0.4-1.7c-7.1-5.4-14.2-10.7-21.3-16.1c-1-0.8-2-1.5-3-2.3c-1.3-1-2.5,1.2-1.3,2.2c7.1,5.4,14.2,10.7,21.3,16.1
				c1,0.8,2,1.5,3,2.3c-0.1-0.6-0.3-1.1-0.4-1.7c-3.6,6.6-7.5,13-11.9,19.2c-2,2.9-4.3,5.8-7.2,7.9c-2.7,1.9-5.8,2.8-9.1,2.8
				c-3,0-5.9-0.9-8.7-1.9c-2.9-1-5.8-2.6-7.5-5.2c-1.8-2.9-1.8-6.5-0.8-9.7c1.1-3.4,3.6-6.3,5.8-9c5.6-6.9,11.3-13.9,16.9-20.8
				C103.7,283.2,102,281.4,101,282.6z"/>
		</g>
	</g>
	<g>
		<path class="st1" d="M332.3,287c5.1,7.5,10.3,15,15.4,22.6c1.7,2.5,3.4,5,4.5,7.8c1.9,5.1,0.9,10-1.7,12.9
			c-2.5,2.9-6.3,4.2-10.1,5c-5.2,1.2-11.5,1.5-17-3.3c-2.9-2.5-5-6-7-9.3c-3.7-6.3-6.9-12.8-9.8-19.3L332.3,287z"/>
		<g>
			<path class="st1" d="M331.2,287.7c4.6,6.7,9.2,13.4,13.8,20.1c3.8,5.6,9.1,12.2,6.1,19.3c-1.2,2.9-3.8,4.8-6.7,5.9
				c-2.7,1-5.8,1.7-8.7,1.9c-3.1,0.2-6.1-0.4-8.8-1.9c-3.1-1.8-5.4-4.6-7.3-7.5c-4.6-7.1-8.5-14.9-11.9-22.7
				c-0.1,0.6-0.3,1.1-0.4,1.7c7.5-4.8,15-9.5,22.5-14.3c1.1-0.7,2.1-1.4,3.2-2c1.4-0.9,0.1-3-1.3-2.2c-7.5,4.8-15,9.5-22.5,14.3
				c-1.1,0.7-2.1,1.4-3.2,2c-0.6,0.4-0.7,1.1-0.4,1.7c3.3,7.5,7,15,11.4,22c2,3.2,4.3,6.2,7.5,8.4c2.8,1.9,6.1,2.9,9.5,3
				c3.2,0.1,6.4-0.5,9.4-1.4c3.2-1,6.4-2.5,8.5-5.2c2-2.6,2.8-6,2.5-9.2c-0.3-3.9-2.2-7.4-4.3-10.6c-5.4-8.2-11.1-16.3-16.7-24.4
				C332.4,285.1,330.3,286.3,331.2,287.7z"/>
		</g>
	</g>
	<g>
		<g>
			<path class="st1" d="M162.6,111.5c-0.1-3.8-0.3-7.6-0.4-11.4c0-1.3-0.1-2.5-0.4-3.7c-0.6-2.2-2.2-3.6-3.8-3.9
				c-1.6-0.4-3.1,0.2-4.6,0.8c-2,0.9-4.2,2.3-4.9,5.3c-0.3,1.5-0.2,3.2,0,4.9c0.3,3,0.8,6,1.5,8.9L162.6,111.5z"/>
			<g>
				<path class="st1" d="M163.9,111.5c-0.1-3.9-0.3-7.8-0.4-11.7c-0.1-3-0.7-6.2-3.6-7.9c-2.7-1.6-6.2-0.4-8.7,1.2
					c-2.6,1.6-4,4.2-4.1,7.3c-0.1,2,0.3,4.1,0.5,6.1c0.3,2.1,0.7,4.2,1.2,6.3c0.1,0.5,0.7,1,1.2,0.9c4.2-0.3,8.4-0.6,12.7-0.9
					c1.6-0.1,1.6-2.6,0-2.5c-4.2,0.3-8.4,0.6-12.7,0.9c0.4,0.3,0.8,0.6,1.2,0.9c-0.4-2-0.8-3.9-1.1-5.9c-0.3-1.9-0.6-3.9-0.5-5.8
					C149.7,97,152,95,155,94c1.5-0.5,3.1-0.6,4.3,0.5c1.3,1.2,1.5,2.9,1.6,4.6c0.2,4.1,0.3,8.3,0.4,12.4
					C161.5,113.1,164,113.1,163.9,111.5z"/>
			</g>
		</g>
		<g>
			<path class="st9" d="M160.6,112.8c-0.1-2.8-0.2-5.6-0.3-8.4c0-0.9-0.1-1.9-0.3-2.7c-0.5-1.6-1.6-2.6-2.7-2.9
				c-1.1-0.3-2.3,0.1-3.3,0.6c-1.5,0.6-3,1.7-3.5,3.9c-0.2,1.1-0.2,2.4,0,3.6c0.2,2.2,0.6,4.4,1.1,6.6L160.6,112.8z"/>
			<g>
				<path class="st9" d="M161.8,112.8c-0.1-2.9-0.2-5.8-0.3-8.7c-0.1-2.3-0.6-4.8-2.8-6.1c-2.1-1.2-4.7-0.4-6.6,0.9
					c-2,1.3-3,3.3-3.1,5.6c-0.1,1.5,0.2,3.1,0.4,4.6c0.2,1.6,0.5,3.1,0.8,4.6c0.1,0.5,0.7,1,1.2,0.9c3-0.2,6.1-0.4,9.1-0.6
					c1.6-0.1,1.6-2.6,0-2.5c-3,0.2-6.1,0.4-9.1,0.6c0.4,0.3,0.8,0.6,1.2,0.9c-0.6-2.8-1.3-5.8-1.2-8.6c0.1-2.3,1.6-3.6,3.6-4.3
					c1-0.3,2-0.5,2.8,0.3c0.9,0.8,1,2,1.1,3.1c0.2,3.1,0.2,6.1,0.3,9.2C159.4,114.4,161.9,114.4,161.8,112.8z"/>
			</g>
		</g>
	</g>
	<g>
		<g>
			<path class="st3" d="M236.6,295.1c-2,4-3.6,8.3-6.5,11.8c-1.7,2-3.5,3.7-5.9,4.8c-2.1,1-4.4,1.5-6.6,1.9c-4.1,0.6-8.1,0.1-12-1
				c-2.2-0.6-4.5-1.4-6.4-2.6c-1.5-0.9-2.9-2.5-4-4.2c-2.5-3.9-4.2-8.3-5.8-12.7c-0.5-1.3-1.7-2.1-3.1-1.7c-1.2,0.3-2.2,1.8-1.7,3.1
				c1.7,4.4,3.3,8.9,5.8,13c1.2,2,2.7,4.1,4.5,5.6c2.1,1.7,4.7,2.9,7.3,3.7c9.6,3.3,22,3.2,29.7-4.2c4.3-4.2,6.6-9.6,9.2-14.9
				c0.6-1.2,0.3-2.7-0.9-3.4C238.9,293.6,237.2,293.9,236.6,295.1L236.6,295.1z"/>
		</g>
	</g>
	<g>
		<circle class="st6" cx="153.9" cy="205.6" r="47.1"/>
		<circle class="st7" cx="144" cy="194.3" r="30.7"/>
		<circle class="st8" cx="144" cy="194.9" r="24"/>
	</g>
	<g>
		<circle class="st6" cx="274" cy="208.7" r="47.1"/>
		<circle class="st7" cx="266" cy="195" r="30.7"/>
		<circle class="st8" cx="266" cy="195.6" r="24"/>
	</g>
	<g>
		<g>
			<g>
				<path class="st3" d="M212.9,205.7c0.5-0.2,1-0.6,1.5-0.7c-0.2,0-0.3,0.1,0,0c0.1,0,0.2-0.1,0.4-0.1c0.3-0.1,0.5-0.2,0.8-0.2
					c0.3-0.1,0.5-0.1,0.8-0.2c-0.2,0-0.3,0,0,0c0.1,0,0.3,0,0.4,0c0.1,0,0.3,0.1,0.4,0c-0.1,0-0.5-0.1-0.1,0
					c0.4,0.1,0.9,0.1,1.4,0.2c0.1,0,0.5,0.1,0.1,0c-0.4-0.1,0,0,0.1,0c0.2,0,0.5,0.1,0.7,0.1c0.5,0.1,1,0.3,1.4,0.4
					c0.1,0,0.5,0.2,0.1,0c-0.3-0.1,0.1,0,0.1,0.1c0.2,0.1,0.4,0.2,0.6,0.3c0.2,0.1,0.4,0.2,0.6,0.4c0.3,0.2-0.3-0.3-0.1-0.1
					c0.1,0.1,0.2,0.2,0.3,0.3c1,0.9,2.6,1,3.5,0c0.9-1,1-2.6,0-3.5c-1.9-1.8-4.7-2.7-7.3-3c-0.1,0-0.5-0.1-0.2,0
					c0.4,0.1-0.2,0-0.2,0c-0.4-0.1-0.9-0.1-1.3-0.2c-0.8,0-1.6,0.1-2.4,0.3c-1.4,0.3-2.7,1-4,1.6c-1.2,0.5-1.6,2.4-0.9,3.4
					C210.3,206,211.6,206.3,212.9,205.7L212.9,205.7z"/>
			</g>
		</g>
		<g>
			<g>
				<path class="st3" d="M341,205c5.8-5.3,12-10.2,18.5-14.6c1.1-0.8,1.6-2.2,0.9-3.4c-0.6-1.1-2.3-1.7-3.4-0.9
					c-6.8,4.7-13.4,9.8-19.5,15.4c-1,0.9-0.9,2.6,0,3.5C338.5,206,340,205.9,341,205L341,205z"/>
			</g>
		</g>
		<g>
			<g>
				<path class="st3" d="M97.1,197.4c-6.1-5.6-12.7-10.7-19.5-15.4c-1.1-0.8-2.8-0.2-3.4,0.9c-0.7,1.2-0.2,2.7,0.9,3.4
					c6.5,4.4,12.7,9.3,18.5,14.6c1,0.9,2.5,1,3.5,0C98,200,98.1,198.3,97.1,197.4L97.1,197.4z"/>
			</g>
		</g>
		<g>
			<path class="st10" d="M188.8,262.7l-79.5-2.3c-9.2-0.3-16.4-8-16.2-17.1l2.3-79.5c0.3-9.2,8-16.4,17.1-16.2l79.5,2.3
				c9.2,0.3,16.4,8,16.2,17.1l-2.3,79.5C205.7,255.7,198,263,188.8,262.7z"/>
			<g class="st11">
				<g>
					<path class="st12" d="M137.7,212.5c8.5-9.8,17.6-19,27.2-27.7c2.4-2.2-1.1-5.7-3.5-3.5c-9.6,8.6-18.7,17.9-27.2,27.7
						c-0.9,1-1,2.5,0,3.5C135.1,213.5,136.8,213.6,137.7,212.5L137.7,212.5z"/>
				</g>
			</g>
			<g class="st11">
				<g>
					<path class="st12" d="M150.7,224.6c0.2-0.3,0.4-0.6,0.6-0.8c0.1-0.1,0.2-0.2,0.3-0.3c0,0,0.4-0.5,0.2-0.3
						c-0.2,0.2,0.2-0.3,0.2-0.3c0.1-0.1,0.2-0.2,0.3-0.3c0.2-0.3,0.4-0.5,0.6-0.8c0.9-1.1,1.8-2.2,2.8-3.3c1.8-2.1,3.7-4.1,5.7-5.9
						c1-0.9,1-2.7,0-3.5c-1.1-1-2.5-0.9-3.5,0c-4.4,3.8-8,8.5-11.5,13.1c-0.8,1-0.2,2.8,0.9,3.4
						C148.6,226.2,149.8,225.7,150.7,224.6L150.7,224.6z"/>
				</g>
			</g>
		</g>
		<g>
			<path class="st10" d="M319.7,265.5l-79.5-2.3c-9.2-0.3-16.4-8-16.2-17.1l2.3-79.5c0.3-9.2,8-16.4,17.1-16.2l79.5,2.3
				c9.2,0.3,16.4,8,16.2,17.1l-2.3,79.5C336.5,258.5,328.8,265.7,319.7,265.5z"/>
			<g class="st11">
				<g>
					<path class="st12" d="M268.5,215.3c8.5-9.8,17.6-19,27.2-27.7c2.4-2.2-1.1-5.7-3.5-3.5c-9.6,8.6-18.7,17.9-27.2,27.7
						c-0.9,1-1,2.5,0,3.5C265.9,216.2,267.6,216.3,268.5,215.3L268.5,215.3z"/>
				</g>
			</g>
			<g class="st11">
				<g>
					<path class="st12" d="M281.5,227.4c0.2-0.3,0.4-0.6,0.6-0.8c0.1-0.1,0.2-0.2,0.3-0.3c0,0,0.4-0.5,0.2-0.3
						c-0.2,0.2,0.2-0.3,0.2-0.3c0.1-0.1,0.2-0.2,0.3-0.3c0.2-0.3,0.4-0.5,0.6-0.8c0.9-1.1,1.8-2.2,2.8-3.3c1.8-2.1,3.7-4.1,5.7-5.9
						c1-0.9,1-2.7,0-3.5c-1.1-1-2.5-0.9-3.5,0c-4.4,3.8-8,8.5-11.5,13.1c-0.8,1-0.2,2.8,0.9,3.4
						C279.4,228.9,280.6,228.5,281.5,227.4L281.5,227.4z"/>
				</g>
			</g>
		</g>
	</g>
	<g>
		<g>
			<g>
				<path class="st110" d="M215.8,66.8c-7.5,8.3-13.3,18.1-17.1,28.6l-0.1,0.3c6.7,9.3,14.2,18.4,23.9,24.5
					c9.7,6.1,21.1,9,32.4,11.3c5.4,1.1,10.9,2.1,16.3,1.6c3.9-0.3,7.8-1.4,11.6-2.4c7.2-2,14.7-4.3,20.2-9.4l0.4,0.2
					c2.2-15.2,3.4-30.5,3.4-45.8"/>
				<g>
					<path class="st9" d="M214,65c-3.9,4.4-7.4,9.1-10.4,14.2c-1.5,2.5-2.8,5-4,7.6c-1.2,2.5-2.1,5.4-3.2,7.6
						c-0.4,0.8-0.5,1.8,0,2.5c4.6,6.3,9.4,12.5,15.1,17.8c5.9,5.5,12.6,9.7,20.1,12.8c7.6,3.1,15.6,4.9,23.6,6.5
						c4.3,0.9,8.7,1.6,13.2,1.6c4.4,0,8.8-0.9,13.1-2.1c8.3-2.2,16.8-4.7,23.4-10.6c-1,0.1-2,0.3-3,0.4c0.1,0.1,0.2,0.1,0.4,0.2
						c1.3,0.6,3.4,0.3,3.7-1.5c2.3-15.4,3.4-30.9,3.5-46.5c0-3.2-5-3.2-5,0c0,15.1-1.1,30.2-3.3,45.2c1.2-0.5,2.4-1,3.7-1.5
						c-0.1-0.1-0.2-0.1-0.4-0.2c-1.1-0.5-2.1-0.4-3,0.4c-5.2,4.7-12.1,6.7-18.7,8.6c-3.8,1.1-7.8,2.2-11.8,2.5
						c-4.1,0.3-8.1-0.2-12.1-1c-14.9-2.7-30-6.5-41.7-16.7c-6.2-5.4-11.4-11.9-16.2-18.5c0,0.8,0,1.7,0,2.5c1.1-2.4,2-5,3.1-7.4
						c1.2-2.5,2.5-5,3.9-7.4c2.8-4.8,6.1-9.3,9.9-13.5C219.7,66.2,216.2,62.6,214,65L214,65z"/>
				</g>
			</g>
			<polygon class="st111" points="256.5,96.3 185.9,43 264.6,28 345.4,80.8 			"/>
		</g>
		<g>
			<g>
				<g>
					<path class="st112" d="M263.4,60.4c16,1.1,31,7.8,44.3,16.4c6,3.9,11.9,8.2,17.4,12.8c2.4,2,4.9,4.1,6.6,6.7
						c0.8,1.2,1.5,2.4,1.8,3.8c0.3,1.5,0,2.7-0.5,4.1c-3,9.3-3.3,19.1-3.5,28.8c0,1.6,2.5,1.6,2.5,0c0.3-9.1,0.4-18.3,3.1-27
						c0.5-1.6,1.1-3.1,1.1-4.9c-0.1-1.4-0.5-2.8-1.1-4.1c-1.4-2.9-3.7-5.2-6.1-7.3c-2.3-2.1-4.8-3.9-7.3-5.8
						c-3.2-2.5-6.6-4.9-10-7.2c-6.8-4.6-14-8.8-21.7-12c-8.5-3.6-17.5-6-26.8-6.7C261.8,57.8,261.8,60.3,263.4,60.4L263.4,60.4z"/>
				</g>
			</g>
			<g>
				<g>
					<path class="st112" d="M334.3,101.2c3.9,3.1,5.6,7.9,6.6,12.7c1.2,6,1.3,12.3,0.4,18.4c-0.2,1.6,2.2,2.3,2.4,0.7
						c1-6.6,0.9-13.2-0.4-19.7c-1-5.1-3-10.4-7.2-13.8C334.9,98.4,333.1,100.2,334.3,101.2L334.3,101.2z"/>
				</g>
			</g>
			<g>
				<g>
					<path class="st112" d="M334.6,102.6c1.2,9.5,1.7,19.1,1.3,28.6c-0.1,1.6,2.4,1.6,2.5,0c0.4-9.6-0.1-19.1-1.3-28.6
						C336.9,101.1,334.4,101,334.6,102.6L334.6,102.6z"/>
				</g>
			</g>
			<g>
				<g>
					<path class="st112" d="M335.3,104.8c-3,8.3-5.8,18.1,0.1,25.8c1,1.3,2.7-0.5,1.8-1.8c-5.3-6.8-2.1-16.2,0.5-23.4
						C338.2,103.9,335.8,103.3,335.3,104.8L335.3,104.8z"/>
				</g>
			</g>
			<g>
				<g>
					<path class="st112" d="M336.1,105.6c4.5,7.5,7.7,17.2,2.5,25.2c-0.9,1.4,1.3,2.6,2.2,1.3c5.7-8.7,2.5-19.5-2.5-27.8
						C337.4,103,335.2,104.2,336.1,105.6L336.1,105.6z"/>
				</g>
			</g>
			<g>
				<g>
					<path class="st112" d="M336.5,110c-0.1,5,1.1,9.8,3.3,14.2c0.7,1.4,2.9,0.2,2.2-1.3c-2-4-3-8.5-3-13
						C339,108.4,336.5,108.4,336.5,110L336.5,110z"/>
				</g>
			</g>
		</g>
	</g>
</g>
</svg>
