<svg xmlns="http://www.w3.org/2000/svg" viewBox="0 0 547.44 750.08"><defs><radialGradient id="radial-gradient" cx="1580.34" cy="-311.3" r="155.34" gradientTransform="matrix(.91 .51 -.47 .82 -1401.02 -38.83)" gradientUnits="userSpaceOnUse"><stop offset="0" stop-color="#a8dcdb"/><stop offset=".78" stop-color="#bddff6"/></radialGradient><style>.cls-2{fill:#bddff6}.cls-4,.cls-9{fill:#231f20}.cls-6{fill:#ac1f29}.cls-7{fill:#fff;stroke:#fff}.cls-11,.cls-7,.cls-9{stroke-miterlimit:10}.cls-8{fill:#3077bb}.cls-11,.cls-9{stroke:#231f20}.cls-10{fill:#00729f}.cls-11{fill:#9edae6;fill-opacity:.43;stroke-width:9px}.cls-12{opacity:.75}.cls-13{fill:#bee4ed}.cls-14{fill:#e9d189}.cls-15{fill:#bc984c}.cls-16{fill:#a57c52}.cls-17{fill:#030303}.cls-18{fill:#be956c}</style></defs><g id="Layer_2" data-name="Layer 2"><g id="Layer_1-2" data-name="Layer 1"><path d="M319.79 583.15c-43.5 76.91-133.59 111.88-218.28 64S5.16 506.73 48.66 429.82s118.43-96.32 203.13-48.42 111.5 124.84 68 201.75z" fill="url(#radial-gradient)"/><path class="cls-2" d="M42.21 577.85l-25.75 17.46c-2.85 1.92-5.75 3.91-7.74 6.71-3.72 5.28-3.49 12.63-.83 18.53s7.38 10.61 12.25 14.87c6.57 5.75 14.87 11.26 23.38 9.36C47.9 643.8 51.6 641 55 638a149.52 149.52 0 0017.53-17.7z"/><path class="cls-2" d="M41.58 576.77c-9.09 6.16-18.27 12.23-27.29 18.51-3.67 2.56-7 5.49-8.56 9.8A20.77 20.77 0 005.6 618c2.61 8.85 10.12 15.81 17.22 21.28a34.49 34.49 0 0012.44 6.56 18.55 18.55 0 0013.18-1.54c4.86-2.51 9-6.55 13-10.27a148.16 148.16 0 0012-12.77 1.26 1.26 0 00.2-1.51l-10.26-14.4L47 582.47l-3.75-5.25c-.92-1.3-3.09-.05-2.16 1.26l10.25 14.35 16.34 22.89 3.79 5.28.2-1.52a128.82 128.82 0 01-20.24 19.92c-3.59 2.71-7.61 4.74-12.21 4.52-4.41-.21-8.53-2.25-12.15-4.66a68.8 68.8 0 01-10.24-8.58 36.56 36.56 0 01-7.77-10.54 19.72 19.72 0 01-1.56-12.2c.94-4.31 3.71-7.38 7.21-9.9 4.44-3.22 9.08-6.2 13.62-9.27l14.52-9.84c1.32-.93.07-3.07-1.27-2.16zM127 632.11l-20.3 23.63c-2.24 2.6-4.52 5.29-5.7 8.51-2.22 6.08 0 13.11 4.08 18.1s9.92 8.29 15.74 11.12c7.85 3.81 17.3 6.94 25 2.86 4-2.1 6.8-5.81 9.32-9.52a148.46 148.46 0 0012.25-21.7z"/><path class="cls-2" d="M126.06 631.23c-7.16 8.36-14.45 16.64-21.5 25.1-3 3.55-5.39 7.39-5.67 12.12a21.16 21.16 0 003.69 12.61c5 7.6 14 12.21 22.22 15.54a33.34 33.34 0 0013.76 2.88 18.49 18.49 0 0012.07-5.12c3.92-3.69 6.82-8.57 9.61-13.13a151 151 0 008.24-15.49 1.26 1.26 0 00-.19-1.51l-13.67-11.15-21.79-17.77-5-4.08c-1.23-1-3 .75-1.77 1.76l13.67 11.15 21.79 17.77 5 4.08-.19-1.51a133.13 133.13 0 01-14.16 24.37c-2.65 3.53-5.94 6.58-10.32 7.67s-8.79.26-12.92-1.07a67.87 67.87 0 01-12.08-5.45 38.39 38.39 0 01-10.21-7.76 20.17 20.17 0 01-5.21-11.45c-.39-4.55 1.43-8.38 4.21-11.87 3.46-4.31 7.19-8.43 10.78-12.62l11.41-13.3c1.04-1.22-.72-3-1.77-1.77z"/><path d="M126.36 576.7c.49 5.68 2.76 13.44 7.13 16.73 5.56 4.18 18.17 4.24 18.17 4.24-4.28 4.13-8.15 10.36-13.52 13.41a18.88 18.88 0 01-9.48 2.73 17.44 17.44 0 01-11.3-3.94c-4.56-3.74-5.29-10.92-3.21-16.89s12.21-16.28 12.21-16.28z" fill="#010101"/><path class="cls-4" d="M123.86 576.7a36.89 36.89 0 002.14 9.75 20.2 20.2 0 005.13 8.26c4.26 3.75 10.54 4.67 16 5.2 1.51.14 3 .25 4.54.26l-1.77-4.27c-4.1 4-7.22 9.26-12.06 12.44-4.55 3-10.38 4-15.44 1.71a11.21 11.21 0 01-5.63-4.9 13.56 13.56 0 01-1.14-7.44 18.09 18.09 0 01.82-3.71c.09-.26.17-.52.27-.77-.15.39 0 0 0-.06.25-.55.54-1.08.84-1.61a42.89 42.89 0 013.67-5.29 99.76 99.76 0 016.87-7.8c2.26-2.3-1.27-5.83-3.53-3.53a99.93 99.93 0 00-6.69 7.55c-3.42 4.27-6.41 8.59-7.15 14.14-.88 6.62 1.35 13.12 7.19 16.7a20.59 20.59 0 0019.41 1c6.94-3.19 10.8-9.72 16.07-14.87a2.53 2.53 0 00-1.76-4.27A39.34 39.34 0 01137.9 593a11.17 11.17 0 01-6.26-6 29.31 29.31 0 01-2.78-10.31 2.57 2.57 0 00-2.5-2.5 2.51 2.51 0 00-2.5 2.51z"/><path d="M129.09 596.48c.42-.78.29-.64.19-1.57a11.9 11.9 0 00-.67-2 10.31 10.31 0 00-4.61-4.11 7.09 7.09 0 00-2.84-.21 5.26 5.26 0 00-2.76 1.12 7.6 7.6 0 00-1.95 2.51 11.73 11.73 0 00-1.33 4.43 21.24 21.24 0 00.07 3.29 11.55 11.55 0 00.61 3.51 10 10 0 002.09 3 29.7 29.7 0 006.94 5.43 6.24 6.24 0 002.17.86 6.14 6.14 0 002.64-.34 25.51 25.51 0 004.54-1.83 7.59 7.59 0 002.85-2.83 20.2 20.2 0 001-4.74 8.56 8.56 0 00-1.27-3.43c-1.21-2.07-3.68-3.82-5.78-3.71-1.61.08-1.89.62-1.89.62z" fill="#be202e"/><path class="cls-6" d="M129.31 596.6c.79-1.52-.2-3.56-1.15-4.8-1.36-1.78-3.44-3.43-5.75-3.5a6.47 6.47 0 00-6.23 3.8c-1.55 2.95-1.59 6.18-1.15 9.43s2.72 5.41 5.08 7.4a30.15 30.15 0 003.82 2.73 6.48 6.48 0 004.35 1.3 14.66 14.66 0 007.77-3.57c1.49-1.51 1.88-3.68 2.09-5.72.28-2.63-1.68-5.47-3.75-6.9a5.74 5.74 0 00-3.89-1.13c-.52.06-1.32.2-1.62.71a.25.25 0 00.43.25c.37-.63 1.87-.54 2.43-.45a6.64 6.64 0 013.18 1.68c1.49 1.32 2.93 3.66 2.74 5.71-.15 1.62-.45 3.71-1.51 5-1.62 2-4.25 2.92-6.63 3.61a5.32 5.32 0 01-4.44-.4 26.88 26.88 0 01-3.34-2.17c-2-1.51-4.35-3.42-5.51-5.7a10.06 10.06 0 01-.84-3.94 16 16 0 01.11-4.48c.55-2.67 2.07-5.75 4.91-6.49a6.68 6.68 0 016.35 2c1.18 1.14 3 3.64 2.12 5.39-.15.27.28.53.43.24z"/><path class="cls-6" d="M128.88 596.35c-.76 1.34-1.5 2.7-2.29 4-.35.6-.71 1.19-1.1 1.76a6.28 6.28 0 01-1.47 1.44c-1.71 1.27-3.4 2.57-5.16 3.75-.27.18 0 .61.25.43 1.84-1.23 3.63-2.57 5.39-3.93a9.9 9.9 0 002.43-3.05c.83-1.37 1.6-2.77 2.38-4.17a.25.25 0 00-.43-.25z"/><path class="cls-4" d="M236.38 357.36a99.12 99.12 0 01-.27 14.82c-.17 2.9-.4 5.81-.73 8.71a27.15 27.15 0 01-1.1 5.87c-.54 1.52 1.88 2.17 2.41.66a28.55 28.55 0 001.13-6c.36-3 .59-5.94.78-8.92a101.77 101.77 0 00.28-15.12c-.15-1.59-2.65-1.6-2.5 0zM253.13 360.48c-3.48 8-7.08 16-10.61 24.08-.72 1.64-1.45 3.27-2.15 4.92-.64 1.46 1.52 2.73 2.15 1.26 3.48-8.05 7.08-16.06 10.61-24.08.72-1.64 1.45-3.28 2.16-4.92.63-1.46-1.53-2.73-2.16-1.26zM249.15 393.67a11.57 11.57 0 012-3.57 51.24 51.24 0 014.07-4.77 85.24 85.24 0 019.91-9.09 21.42 21.42 0 014.28-2.76c1.47-.64.2-2.79-1.26-2.15a19.68 19.68 0 00-3.91 2.47 77.59 77.59 0 00-5.13 4.25 75.68 75.68 0 00-9.7 10.23 14.32 14.32 0 00-2.69 4.72 1.25 1.25 0 002.41.67z"/><path class="cls-2" d="M56.25 433L31.7 413.83a42.93 42.93 0 00-8.52-5.61c-5.71-2.54-5.73-2.68-9.21 0s-5.16 6.85-6.43 11.14c-1.71 5.77-2.5 12.91 2.59 19.57a30.44 30.44 0 008.51 7.62c6.9 4.6 10 10.79 17.26 14.51z"/><path class="cls-2" d="M57.13 432.08l-23.76-18.52A52.78 52.78 0 0022 406.34c-2.42-1.06-4.63-2-7-.41-6.28 4.05-9.06 11.8-9.84 19A20.62 20.62 0 007 436.31a26.05 26.05 0 007.54 8.86c1.79 1.39 3.76 2.55 5.53 4a58.92 58.92 0 015 4.65c3.11 3.16 6.23 6.25 10.2 8.33a1.29 1.29 0 001.71-.45l17.82-24.6 2.53-3.48c.94-1.3-1.23-2.55-2.16-1.26l-17.83 24.6-2.52 3.48 1.71-.45c-6.53-3.43-10.61-9.82-16.55-14a39.73 39.73 0 01-8-6.65 18.23 18.23 0 01-4.46-10.74 28 28 0 011.57-10.06c1.09-3.43 2.59-6.9 5.46-9.22a7.63 7.63 0 012.82-1.78 5.44 5.44 0 012.87.73 46.62 46.62 0 0110.58 6.45l24.54 19.12c1.26.98 3.04-.77 1.77-1.76zM296 580.59l31 2.33a42.86 42.86 0 0110.08 1.57c5.94 2 9.54 6.37 10.33 10.68s-.78 8.54-2.72 12.57c-2.62 5.42-6.83 11.24-15.07 12.75-4.25.78-8.88.25-13.31-.41a218.36 218.36 0 01-24.14-5z"/><path class="cls-2" d="M296 581.84l27.58 2.07c7.53.57 16.82.6 21.24 7.91 2 3.24 1.87 7 .77 10.49a33.91 33.91 0 01-4.56 9.32 18.72 18.72 0 01-6.95 6.12c-3.63 1.8-7.73 2.06-11.71 1.78a121.17 121.17 0 01-14.8-2.21q-7.57-1.47-15-3.46l.92 1.2 3.33-30.19.47-4.28c.17-1.59-2.33-1.58-2.5 0l-3.33 30.2-.47 4.27a1.25 1.25 0 00.92 1.21 184.91 184.91 0 0028.64 5.6c4.35.45 8.9.43 13-1.17a20.27 20.27 0 008.28-6 34.87 34.87 0 005.14-8.91c1.62-3.87 2.66-8.26 1.31-12.36a15.45 15.45 0 00-6.14-7.85c-3.64-2.47-8-3.25-12.3-3.65-11.26-1.06-22.57-1.71-33.84-2.56-1.59-.15-1.58 2.35 0 2.47z"/><circle class="cls-7" cx="132.41" cy="461.59" r="53.62"/><circle class="cls-8" cx="130" cy="465.86" r="34.92"/><circle class="cls-9" cx="129.69" cy="466.41" r="27.29"/><circle class="cls-7" cx="249.61" cy="531.88" r="53.62"/><circle class="cls-8" cx="247.2" cy="536.15" r="34.92"/><circle class="cls-9" cx="246.89" cy="536.7" r="27.29"/><path class="cls-2" d="M192.66 370.76l6-11.51a18.3 18.3 0 001.66-3.92 6.14 6.14 0 00-1.52-6 8.74 8.74 0 00-5.06-1.79c-2.49-.26-5.48 0-7.83 2.55a17.51 17.51 0 00-2.77 4.8 92.55 92.55 0 00-3.52 9.66z"/><path class="cls-2" d="M193.74 371.39c2.06-4 4.15-7.92 6.19-11.89 1.59-3.12 2.82-6.86.62-10-1.89-2.72-5.66-3.38-8.76-3.27a9.74 9.74 0 00-8.13 4.81 38.6 38.6 0 00-2.85 6.24q-1.34 3.44-2.4 7a1.26 1.26 0 00.57 1.41l13.02 6.15c1.45.69 2.72-1.47 1.27-2.16l-13.06-6.22.58 1.42q1-3.42 2.32-6.75a35.18 35.18 0 012.68-5.85c2-3.29 5.45-4 9.05-3.34 1.73.33 3.36 1 4 2.75.78 1.95.11 4-.76 5.77-2.09 4.27-4.38 8.45-6.58 12.67-.66 1.42 1.5 2.69 2.24 1.26z"/><path class="cls-10" d="M189.89 370.92l4.42-8.5a13.22 13.22 0 001.23-2.89 4.5 4.5 0 00-1-4.4 6 6 0 00-3.64-1.27 6.3 6.3 0 00-5.68 1.93 13.36 13.36 0 00-2 3.55 68.73 68.73 0 00-2.62 7.13z"/><path class="cls-10" d="M191 371.55q2.21-4.24 4.42-8.5c1.26-2.44 2.37-5.34.73-7.9-1.36-2.13-4.18-2.67-6.55-2.59a7.57 7.57 0 00-6.32 3.76 29 29 0 00-2.08 4.53q-1 2.61-1.86 5.29a1.26 1.26 0 00.57 1.41l9.38 4.45c1.44.69 2.71-1.47 1.26-2.16l-9.37-4.45.57 1.41a40.4 40.4 0 013.69-9.21c1.42-2.31 3.76-2.86 6.31-2.37a3 3 0 012.6 1.95 5.54 5.54 0 01-.8 4.05c-1.53 3-3.14 6-4.71 9.07-.77 1.43 1.39 2.71 2.16 1.26z"/><path class="cls-2" d="M284.39 425.18l6.78-11.06a17.78 17.78 0 012.51-3.44 6.11 6.11 0 015.93-1.79 8.61 8.61 0 014.14 3.41c1.51 2 2.87 4.67 1.85 8a17.19 17.19 0 01-2.69 4.85 91.74 91.74 0 01-6.46 8z"/><path class="cls-2" d="M285.47 425.81c2.41-3.93 4.77-7.89 7.24-11.79 1.08-1.72 2.38-3.46 4.47-3.95a4.48 4.48 0 014.37 1.55 11.74 11.74 0 012.81 4.34 7.25 7.25 0 01-.76 5.86 57 57 0 01-8 10.46l1.52-.19-12.06-8c-1.34-.89-2.6 1.28-1.26 2.16l12.06 8a1.26 1.26 0 001.51-.2 78.31 78.31 0 007.65-9.67c2-3.16 2.93-6.67 1.35-10.22-1.24-2.76-3.72-5.91-6.81-6.58-3.51-.75-6.51 1.54-8.38 4.28-2.8 4.08-5.24 8.47-7.83 12.69-.88 1.38 1.28 2.63 2.12 1.26z"/><path class="cls-10" d="M285.68 427.65l5-8.18a14 14 0 011.85-2.54 4.46 4.46 0 014.3-1.37 6.06 6.06 0 013 2.46 6.3 6.3 0 011.26 5.86 12.79 12.79 0 01-2 3.58 67.22 67.22 0 01-4.75 5.92z"/><path class="cls-10" d="M286.76 428.28c1.78-2.91 3.53-5.84 5.35-8.72a5.56 5.56 0 013.07-2.79 2.81 2.81 0 012.84 1 7.88 7.88 0 011.87 3 5.2 5.2 0 01-.66 4.18 44.44 44.44 0 01-5.79 7.54l1.52-.2-8.65-5.73c-1.34-.9-2.59 1.27-1.26 2.15l8.65 5.74a1.25 1.25 0 001.51-.19 62.78 62.78 0 005.59-7.1c1.61-2.42 2.37-5.17 1.16-7.94-.92-2.11-2.8-4.54-5.19-5-2.71-.48-4.94 1.26-6.39 3.37-2.06 3-3.86 6.26-5.78 9.38a1.25 1.25 0 002.16 1.31z"/><path class="cls-4" d="M189.07 492.93l1.89.16c.32 0 .33 0 0 0l.47.08c.29 0 .58.11.86.18s.64.2 1 .31-.15-.11.06 0 .26.14.39.21l.27.18c.46.3-.31-.25 0-.05s.7.56 1.06.83l.3.21c.39.29 0-.07-.07-.05.11 0 .56.48.65.56a14.22 14.22 0 011.2 1.26c.06.07.3.29.3.36 0-.09-.26-.36-.05-.06s.34.49.5.75.28.5.41.75-.09-.1-.06-.15.14.4.15.43a2.5 2.5 0 004.82-1.32 14.25 14.25 0 00-5.47-6.95c-.27-.19-.22-.22 0 0a3.68 3.68 0 00-.39-.3 11.07 11.07 0 00-1-.76 9.84 9.84 0 00-2.41-1 25.36 25.36 0 00-4.75-.64 2.51 2.51 0 00-2.5 2.5 2.56 2.56 0 002.5 2.5zM316.33 564a193.48 193.48 0 0126.56-4.12 2.57 2.57 0 002.5-2.5 2.53 2.53 0 00-2.5-2.5 201.83 201.83 0 00-27.89 4.3c-3.14.71-1.81 5.53 1.33 4.82zM78.68 420.28A201.12 201.12 0 0068 394.19a2.5 2.5 0 10-4.32 2.52 192.91 192.91 0 0110.17 24.9c1 3 5.84 1.74 4.82-1.33z"/><rect class="cls-11" x="63.48" y="393.65" width="128.5" height="128.5" rx="16.66" transform="matrix(.86 .52 -.52 .86 255.03 -.12)"/><g class="cls-12"><path class="cls-13" d="M110.65 457.58a355.78 355.78 0 0142.46-12.17c3.14-.69 1.81-5.51-1.33-4.82a353.92 353.92 0 00-42.46 12.17 2.56 2.56 0 00-1.74 3.08 2.51 2.51 0 003.07 1.74z"/></g><g class="cls-12"><path class="cls-13" d="M116.66 476.83a90.78 90.78 0 0117.45-6 2.5 2.5 0 00-1.33-4.83c-6.45 1.35-12.62 3.88-18.65 6.49a2.52 2.52 0 00-.89 3.42 2.56 2.56 0 003.42.9z"/></g><rect class="cls-11" x="191.58" y="469.67" width="128.5" height="128.5" rx="16.66" transform="rotate(31.12 255.817 533.896)"/><g class="cls-12"><path class="cls-13" d="M238.75 533.6a355.09 355.09 0 0142.45-12.17c3.14-.69 1.81-5.52-1.33-4.82a353.24 353.24 0 00-42.45 12.17 2.58 2.58 0 00-1.75 3.08 2.52 2.52 0 003.08 1.74z"/></g><g class="cls-12"><path class="cls-13" d="M244.75 552.85a91 91 0 0117.45-6 2.53 2.53 0 001.75-3.08 2.56 2.56 0 00-3.08-1.75c-6.45 1.35-12.62 3.88-18.64 6.49a2.52 2.52 0 00-.9 3.42 2.57 2.57 0 003.42.9z"/></g><path class="cls-14" d="M20.53 432.78s-1.45 4.46-2.68 8.54L22.68 413c.83 2.72 1.71 5.91 1.15 8.41-.15.69-.35 1.47-.57 2.31-.9 3.37-2.26 7.53-2.73 9.06zM19.82 397.24c1 3 3.36 7.06 2.69 10.11-.22 1-.45 2.2-.68 3.45-.58 3.09-1.18 6.51-1.62 7.87 0 0-1.2 3.71-2.35 7.45l1.41-22.2a.09.09 0 000-.05c.19-1.87.3-4.4.55-6.63z"/><path class="cls-14" d="M20.2 418.67c.44-1.36 1-4.78 1.62-7.87l.18.2c.19.64.41 1.35.64 2.08l-4.83 28.29c-.25.81-.49 1.61-.7 2.36l-.39-.37 1.09-17.19c1.19-3.79 2.39-7.5 2.39-7.5zM22.35 453.07L18 473.23c-.79 1.34-3.24 5.52-5 9.09l6.82-26.66c.7-1.08 1.52-2.32 2.29-3.56.09.31.17.63.24.97zM17.85 441.32c1.23-4.08 2.68-8.54 2.68-8.54.49-1.53 1.83-5.69 2.73-9l.17.16-5.3 27.57c-1 2.14-2.07 4.51-2.76 6.34l-.28-.35z"/><path class="cls-14" d="M22.13 452.1c-.77 1.24-1.59 2.48-2.29 3.56l4.38-17.1a21.54 21.54 0 01.3 8.54 14.67 14.67 0 01-1.73 3.9c-.21.36-.43.72-.66 1.1zM19.71 396.88c0 .12.07.24.11.36-.25 2.23-.36 4.75-.55 6.63zM20.92 445.77s-1.34 2.63-2.79 5.71l5.3-27.57c.89 3 1.49 7.34.8 10.51-.14.64-.33 1.38-.54 2.15-.9 3.43-2.27 7.63-2.77 9.2zM17.06 371.39c.9 3 2.45 7.24 1.76 10.37-.15.72-.32 1.54-.49 2.41-.61 3.18-1.26 7-1.74 8.69l.41-21.24c0-.08.05-.16.06-.23z"/><path class="cls-14" d="M18.91 406s-.86 3.68-1.72 7.42l1.23-29.21c.89 3 2.5 7.32 1.79 10.5-.16.74-.28 1.61-.39 2.52 0-.12-.07-.24-.11-.36l-.44 7a.09.09 0 010 .05 11.75 11.75 0 01-.36 2.08zM22 463.49c-1.14 3.4-3.2 7.72-3.7 9.3l-.27.44 4.31-20.16a21.3 21.3 0 01.26 8.35 20.24 20.24 0 01-.6 2.07zM20.5 476.62a5.45 5.45 0 01.14.58c-.11.19-.22.4-.34.6z"/><path class="cls-14" d="M18.42 384.22l-1.23 29.21-1 4.3-.13-.1.51-24.77c.48-1.67 1.13-5.51 1.74-8.69zM18.44 480.81l3.67-17.22c.89 3 .5 7.37-.2 10.54a12.78 12.78 0 01-1.27 3.07 5.45 5.45 0 00-.14-.58l-.2 1.18c-.57 1-1.23 2.04-1.86 3.01zM17.19 413.43c.86-3.74 1.72-7.42 1.72-7.42a11.75 11.75 0 00.35-2.09l-1.41 22.2c-.49 1.6-1 3.22-1.33 4.55l-.05-.05z"/><path class="cls-14" d="M18.31 472.79c.5-1.58 2.56-5.9 3.7-9.3l.1.1-3.67 17.22a33.9 33.9 0 00-2.83 4.74s-.22.67-.55 1.72l3-14zM13.64 350.52l1.62-19.07c.89 3 1.5 7.34.8 10.52-.14.63-.32 1.37-.53 2.14-.53 2.08-1.29 4.5-1.89 6.41zM17 371.26v.36zM11.75 186.25c-.9 3.37-2.28 7.64-2.78 9.21l-.47 1.47 3-23.34c.89 3 1.5 7.34.79 10.52-.16.64-.29 1.36-.54 2.14zM14.87 318.46c.89 3 1.5 7.36.8 10.52-.15.69-.35 1.47-.58 2.32-.76 2.85-1.85 6.29-2.46 8.2zM5.15 36.52l3-23.35c.89 3 1.5 7.35.8 10.53-.14.63-.32 1.36-.53 2.13-.9 3.38-2.28 7.64-2.78 9.21zM14.2 365.42l1.36-21.29c.89 3 1.5 7.35.8 10.53-.24 1.09-.51 2.46-.77 3.86-.49 2.61-.99 5.38-1.39 6.9zM7.24 128.94l3-23.37c.88 3 1.49 7.35.79 10.52-.14.64-.32 1.36-.53 2.14-.9 3.37-2.27 7.64-2.77 9.21-.01 0-.2.56-.49 1.5zM8.25 168.7l3-23.34c.88 3 1.49 7.34.8 10.52-.15.63-.33 1.36-.54 2.14-.9 3.37-2.27 7.64-2.77 9.2-.01 0-.2.57-.49 1.48zM19.3 487.19c-.14.64-.32 1.36-.53 2.14-.33 1.22-.71 2.56-1.1 3.84l2.63-15.37c.12-.2.23-.41.34-.6.58 2.98-.64 7.02-1.34 9.99zM9.42 65.63c-.9 3.37-2.28 7.63-2.78 9.19l-.47 1.48L9.15 53c.89 3 1.5 7.34.8 10.51-.14.61-.32 1.33-.53 2.12zM8.4 39.65c-.88 3.14-2 6.67-2.47 8.07 0 0-.19.57-.48 1.49l3-23.35c.89 3 1.49 7.34.8 10.52-.25.94-.52 2.08-.85 3.27zM8 13c-.89 3.34-2.24 7.5-2.73 9l-.47 1.46L7.75.19c.89 3 1.5 7.34.8 10.52-.16.69-.35 1.47-.55 2.29zM9.27 79.92c-.86 3-1.91 6.27-2.33 7.59L6.47 89l3-23.34c.89 3 1.49 7.34.8 10.51-.27 1.06-.61 2.38-1 3.75zM9 52.81c-.9 3.34-2.24 7.5-2.73 9 0 0-.19.56-.48 1.48L8.77 40c.88 3 1.49 7.34.79 10.52-.16.66-.35 1.48-.56 2.29zM15.26 380.27l.47-21.67c.89 3 2.5 7.33 1.8 10.5-.15.68-.31 1.46-.47 2.29v-.13.36c-.66 3.2-1.32 7.05-1.8 8.65zM4.94 9.38C5.45 7.8 6.82 3.53 7.72.16l-3 23.33C4 25.94 2.45 30.81 1.55 34 .62 31 0 26.66.71 23.48c.75-3.42 4.23-14.1 4.23-14.1zM16 432.78c.13-.54.31-1.28.55-2.11.37-1.33.84-2.95 1.33-4.55l-1.09 17.19c-.91-3.03-1.52-7.31-.79-10.53zM6.55 103.26L9.52 80v-.12c.89 3 1.5 7.34.79 10.51-.14.65-.32 1.38-.53 2.16C8.9 96 7.53 100.21 7 101.77c0 0-.16.57-.45 1.49zM10.48 132c-.87 3.15-2 6.7-2.47 8.1l-.47 1.48 3-23.35c.89 3 1.5 7.35.8 10.52-.22.97-.52 2.09-.86 3.25zM16.59 392.86l-.51 24.77c-.89-3-2.49-7.31-1.8-10.49.16-.76.37-1.85.58-3.11.76-4.47 1.66-10.95 1.66-10.95s.05-.14.07-.22zM10.06 105.42c-.9 3.34-2.24 7.5-2.74 9l-.47 1.47 3-23.33c.89 3 1.5 7.34.8 10.51-.17.72-.37 1.51-.59 2.35zM11.1 173.22c-.81 2.74-1.69 5.5-2.08 6.69l-.47 1.48 3-23.35c.9 3 1.5 7.35.8 10.53-.3 1.3-.76 2.98-1.25 4.65zM11.07 145.2c-.9 3.35-2.24 7.5-2.74 9.05 0 0-.18.55-.46 1.46l3-23.34c.89 3 1.49 7.36.79 10.53-.17.68-.37 1.47-.59 2.3zM15.67 420.1c.13-.6.32-1.42.54-2.37l1-4.3-.72 17.19c-.91-3.03-1.49-7.35-.82-10.52zM16.77 568l3-23.35c.89 3 1.49 7.35.79 10.52-.14.64-.32 1.36-.52 2.14-.91 3.37-2.28 7.64-2.78 9.21-.01.04-.19.61-.49 1.48zM12.43 211.93c-.9 3.38-2.27 7.63-2.77 9.19l-.48 1.47 3-23.33c.89 3 1.49 7.35.79 10.51-.15.65-.33 1.38-.54 2.16zM10.19 262.38l3-23.34c.89 3 1.5 7.35.8 10.52-.15.64-.33 1.37-.53 2.15-.91 3.37-2.28 7.64-2.78 9.2-.01 0-.2.57-.49 1.47zM12.42 225.72c-.88 3.15-2 6.69-2.47 8.09l-.47 1.45 3-23.31c.9 3 1.5 7.34.8 10.51-.23.94-.52 2.08-.86 3.26zM12 199.12c-.9 3.34-2.24 7.49-2.73 9l-.48 1.49 3-23.36c.89 3 1.49 7.34.8 10.52-.17.71-.37 1.5-.59 2.35zM10.49 275.06l3-23.33c.9 3 1.5 7.35.8 10.52-.23 1.07-.59 2.39-1 3.76-.85 3-1.9 6.27-2.33 7.59.04 0-.17.55-.47 1.46zM13 238.89c-.9 3.35-2.24 7.49-2.73 9l-.48 1.48 3-23.35c.89 3 1.49 7.35.8 10.53-.16.72-.35 1.51-.59 2.34zM19.78 529.12c-.9 3.37-2.28 7.64-2.78 9.21l-.47 1.47 3-23.34c.89 3 1.5 7.34.8 10.52-.16.64-.33 1.36-.55 2.14zM14.52 304.33c-.91 3.37-2.28 7.64-2.78 9.2l-.47 1.47 3-23.33c.89 3 1.5 7.35.8 10.52-.17.63-.35 1.36-.55 2.14z"/><path class="cls-14" d="M16.52 393.08s-.9 6.48-1.66 10.95l-.1-.06.5-23.7c.48-1.6 1.14-5.45 1.76-8.65l-.43 21.24c-.02.08-.05.14-.07.22zM10.58 289.32l3-23.2V266c.88 3 1.49 7.34.79 10.51-.14.65-.33 1.37-.53 2.16-.9 3.37-2.27 7.63-2.78 9.19zM14.51 318.12c-.88 3.15-2 6.7-2.47 8.1l-.48 1.46 3-23.33c.89 3 1.5 7.35.79 10.52-.21.93-.5 2.06-.84 3.25zM10.88 302l3-23.34c.89 3 1.5 7.35.8 10.52-.15.68-.36 1.47-.58 2.31-.9 3.35-2.23 7.49-2.73 9zM12.84 390.73c1-4.43 2.38-10.31 2.38-10.31a.83.83 0 000-.15l-.5 23.7c-.89-3-3.47-6.29-2.77-9.47.23-.87.54-2.24.89-3.77zM18.76 503.13c-.88 3.15-2 6.7-2.47 8.1 0 0-.19.57-.47 1.47l3-23.34c.89 3 1.49 7.35.8 10.52-.23.94-.52 2.06-.86 3.25zM19.37 544.32c-.8 2.74-1.68 5.51-2.07 6.7l-.47 1.46 3-23.34c.89 3 1.49 7.35.8 10.53-.31 1.33-.76 2.98-1.26 4.65zM19.35 516.3c-.9 3.35-2.24 7.5-2.74 9.05l-.47 1.47 3-23.35c.88 3 1.49 7.36.79 10.53-.17.68-.36 1.47-.58 2.3zM11.32 377.82l2.32-27.3c.6-1.91 1.33-4.33 1.89-6.41l-1.33 21.31c0 .21-.1.39-.15.55 0 .03-1.72 7.41-2.73 11.85zM20.72 583c-.91 3.37-2.29 7.63-2.79 9.19l-.47 1.48 3-23.34c.9 3 1.5 7.35.8 10.53-.16.66-.34 1.39-.54 2.14zM21.72 622.82c-.9 3.37-2.27 7.63-2.77 9.19 0 0-.19.57-.48 1.47l3-23.33c.89 3 1.5 7.34.79 10.51-.15.65-.33 1.34-.54 2.16zM20.7 596.83c-.88 3.15-2 6.68-2.47 8.08 0 0-.19.57-.47 1.48l3-23.34c.89 3 1.5 7.34.8 10.51-.23.95-.56 2.09-.86 3.27zM20.28 570.22c-.91 3.34-2.24 7.49-2.73 9 0 0-.19.57-.48 1.47l3-23.34c.88 3 1.49 7.34.79 10.52-.16.72-.36 1.5-.58 2.35zM21.57 637.11c-.85 3-1.9 6.27-2.33 7.59l-.47 1.48 3-23.34c.89 3 1.5 7.34.8 10.51-.26 1.07-.57 2.38-1 3.76zM5.15 36.52l-3 23.15c-.88-3-1.49-7.35-.79-10.52.13-.58.34-1.37.59-2.28.94-3.23 2.44-7.97 3.2-10.35zM21.29 610c-.91 3.35-2.24 7.49-2.73 9 0 0-.19.56-.48 1.48l3-23.34c.88 3 1.49 7.34.79 10.52-.16.71-.35 1.5-.58 2.34zM6.17 76.3l-3 23.15c-.89-3-1.5-7.34-.8-10.51.13-.59.34-1.37.59-2.29.94-3.22 2.45-7.97 3.21-10.35zM5.45 49.21l-3 23.15C1.6 69.33 1 65 1.7 61.84c.12-.55.31-1.28.54-2.12.89-3.22 2.44-8.09 3.21-10.51zM4.77 23.52l-3 23.17C.92 43.66.31 39.35 1 36.17c.12-.55.31-1.28.54-2.13.91-3.23 2.46-8.1 3.23-10.52zM6.47 89l-3 23.15c-.9-3-1.5-7.35-.8-10.52.12-.55.31-1.28.55-2.13.93-3.23 2.47-8.09 3.25-10.5zM5.78 63.32l-3 23.16c-.89-3-1.5-7.35-.8-10.53.17-.77.48-1.92.86-3.23.95-3.14 2.25-7.24 2.94-9.4z"/><path class="cls-14" d="M11.32 377.82c1-4.44 2.73-11.85 2.73-11.85 0-.16.1-.34.15-.55l-1.59 25.14c-.89-3-2.49-7.32-1.79-10.5.12-.57.29-1.32.49-2.19v-.05zM22.8 675.43c-.91 3.37-2.28 7.64-2.78 9.2 0 0-.19.57-.48 1.48l3-23.35c.88 3 1.49 7.35.79 10.52-.15.64-.33 1.37-.53 2.15zM22.1 649.77c-.9 3.37-2.27 7.63-2.77 9.19 0 0-.19.57-.47 1.47l3-23.21v-.12c.89 3 1.5 7.34.79 10.51-.16.65-.34 1.39-.55 2.16zM20.56 725.88l3-23.33c.89 3 1.49 7.34.8 10.52-.15.63-.33 1.37-.53 2.14-.91 3.38-2.28 7.64-2.78 9.2-.05 0-.21.59-.49 1.47zM19.84 698.8l3-23.35c.9 3 1.5 7.35.8 10.52-.2.93-.5 2.06-.84 3.25-.87 3.15-2 6.7-2.47 8.1zM22.36 662.61c-.9 3.35-2.24 7.49-2.73 9l-.48 1.46 3-23.32c.89 3 1.49 7.34.8 10.51-.17.74-.36 1.51-.59 2.35zM24.63 725.76c-.75 3.42-2.69 9.42-3.31 11.34l-.47 1.48 3-23.35c.88 3.03 1.48 7.35.78 10.53zM7.24 128.94l-3 23.13c-.89-3-1.5-7.34-.79-10.51.12-.59.33-1.37.58-2.29.97-3.21 2.44-7.95 3.21-10.33zM23.37 702.4c-.9 3.35-2.23 7.49-2.73 9 0 0-.18.57-.48 1.48l3-23.35c.89 3 1.49 7.36.8 10.53-.17.71-.36 1.49-.59 2.34zM6.55 103.26l-3 23.15c-.89-3-1.49-7.35-.79-10.52.18-.86.54-2.17 1-3.65.91-3.08 2.13-6.92 2.79-8.98zM8.25 168.7l-3 23.16c-.89-3-1.5-7.35-.79-10.52.12-.59.33-1.37.59-2.29.95-3.23 2.44-7.97 3.2-10.35zM7.54 141.61l-3 23.15c-.89-3-1.5-7.35-.8-10.52.12-.55.31-1.28.54-2.12.94-3.23 2.48-8.12 3.26-10.51zM15.22 380.42s-1.37 5.88-2.38 10.31l-.23-.17 1.59-25.14c.4-1.52.9-4.29 1.39-6.9l.14.08-.47 21.67a.83.83 0 01-.04.15zM6.85 115.93l-3 23.17c-.89-3-1.5-7.36-.8-10.53.12-.54.31-1.27.54-2.12.94-3.24 2.48-8.1 3.26-10.52zM8.55 181.39l-3 23.15c-.89-3-1.5-7.34-.8-10.52.12-.54.31-1.28.54-2.11.94-3.23 2.48-8.1 3.26-10.52zM7.87 155.71l-3 23.16c-.89-3-1.49-7.34-.8-10.51.18-.77.49-1.92.86-3.23.94-3.13 2.25-7.27 2.94-9.42z"/><path class="cls-14" d="M10.05 365c1-4.46 2.7-11.72 2.7-11.72.2-.6.52-1.6.89-2.79l-2.32 27.3v.05c-.89-3-2.49-7.3-1.79-10.47.12-.57.31-1.37.52-2.37zM18.21 458.53s-2.45 7.55-3.69 12l3.65-19c1.45-3.08 2.79-5.71 2.79-5.71.5-1.57 1.87-5.82 2.77-9.2.18.62.34 1.27.49 2l-4.38 17.1a16.28 16.28 0 00-1.63 2.81zM9.18 222.59l-3 23.17c-.89-3-1.5-7.35-.79-10.52.12-.58.33-1.38.58-2.3.95-3.23 2.45-7.94 3.21-10.35zM8.5 196.93l-3 23.16c-.88-3-1.49-7.34-.79-10.52.24-1.07.74-2.85 1.32-4.79.87-2.85 1.89-6.05 2.47-7.85zM10.19 262.38l-3 23.16c-.89-3-1.5-7.34-.79-10.51.12-.59.33-1.38.59-2.3.94-3.22 2.44-7.96 3.2-10.35zM9.48 235.26l-3 23.19c-.89-3-1.5-7.35-.8-10.52.12-.55.31-1.28.54-2.13.94-3.24 2.49-8.13 3.26-10.54zM10.49 275.06l-3 23.17c-.89-3-1.49-7.35-.8-10.52.13-.55.32-1.29.55-2.13.94-3.24 2.48-8.11 3.25-10.52zM8.79 209.64l-3 23.14c-.89-3-1.5-7.35-.79-10.52.12-.55.31-1.28.54-2.12.93-3.22 2.46-8.08 3.25-10.5zM9.8 249.41l-3 23.16c-.89-3-1.49-7.36-.79-10.53.17-.77.48-1.91.85-3.22.95-3.15 2.25-7.25 2.94-9.41zM11.27 315l-3 23.17c-.9-3-1.5-7.34-.8-10.52.13-.59.33-1.38.59-2.3.94-3.24 2.45-7.98 3.21-10.35zM18.13 451.48l-3.65 19c-.89-3-.5-7.38.21-10.55a16 16 0 01.68-2.11c.69-1.82 1.75-4.2 2.76-6.34zM10.58 289.32l-3 23.17c-.89-3-1.5-7.35-.8-10.51.19-.86.55-2.17 1-3.65.92-3.1 2.14-6.95 2.8-9.01zM11.56 327.68l-3 23.17c-.89-3-1.5-7.35-.79-10.53.12-.54.3-1.28.54-2.12.94-3.2 2.48-8.11 3.25-10.52zM10.88 302l-3 23.16c-.88-3-1.49-7.35-.79-10.52.12-.54.31-1.28.54-2.12.93-3.22 2.47-8.08 3.25-10.52zM12.63 339.5l-2.71 25.44c-.88-3-2.49-7.32-1.79-10.49.17-.78.48-1.91.86-3.23 1.29-4.48 3.37-10.89 3.37-10.89.08-.22.17-.5.27-.83zM1.8 46.69l3-23.17.47-1.46c.49-1.54 1.84-5.7 2.73-9l.17.15-3 23.35C4.39 38.9 2.89 43.64 2 46.87zM2.82 86.48l3-23.16c.29-.92.48-1.48.48-1.48.49-1.53 1.83-5.69 2.73-9l.16.15-3 23.34C5.41 78.68 3.9 83.43 3 86.65zM5.45 49.21c-.77 2.42-2.32 7.29-3.21 10.51h-.05l3-23.15.44-1.57c.5-1.57 1.88-5.83 2.78-9.21zM6.47 89c-.78 2.42-2.32 7.28-3.21 10.5l3-23.15.47-1.48c.5-1.56 1.88-5.82 2.78-9.19zM5.78 63.32c-.69 2.16-2 6.26-2.9 9.4l-.39-.36 3-23.15c.29-.92.48-1.49.48-1.49.45-1.4 1.59-4.93 2.47-8.07l.37.33zM12.35 510.36C13.6 505.9 16 498.54 16 498.54c.32-1 1-3.1 1.68-5.37l-5.12 30c-.88-3-1.49-7.34-.79-10.51.12-.59.33-1.38.58-2.3zM16.53 539.8l-3 23.16c-.88-3-1.49-7.35-.79-10.52.13-.59.34-1.38.59-2.3.94-3.23 2.44-7.97 3.2-10.34zM15.82 512.7l-3 23.16c-.89-3-1.5-7.35-.79-10.51.12-.55.31-1.28.54-2.13.93-3.22 2.43-8.1 3.25-10.52zM16.83 552.48l-3 23.17c-.9-3-1.5-7.35-.8-10.53.12-.54.31-1.28.54-2.12.94-3.24 2.48-8.11 3.26-10.52zM16.14 526.82l-3 23.15c-.89-3-1.5-7.34-.8-10.51.17-.77.48-1.92.87-3.24.94-3.15 2.24-7.22 2.93-9.4zM7.24 128.94c-.77 2.38-2.27 7.12-3.17 10.33l-.18-.17 3-23.17.47-1.47c.5-1.54 1.84-5.7 2.74-9l.17.15zM4.9 178.87l3-23.16c.28-.91.46-1.46.46-1.46.5-1.55 1.84-5.7 2.74-9.05l.17.16-3 23.34c-.76 2.38-2.26 7.12-3.16 10.35zM4.28 152.07l3-23.13c.29-.92.48-1.5.48-1.5.5-1.57 1.87-5.84 2.77-9.21l-3 23.35c-.78 2.42-2.32 7.28-3.22 10.51zM11.91 497.55c.87-3.12 2.34-7.77 3.14-10.27.33-1 .55-1.72.55-1.72a33.9 33.9 0 012.83-4.74l-6.27 29.38c-.88-3-1.49-7.36-.79-10.53.12-.54.31-1.27.54-2.12zM6.85 115.93c-.78 2.42-2.32 7.28-3.22 10.52l3-23.15c.29-.92.48-1.49.48-1.49.5-1.56 1.87-5.82 2.77-9.19zM5.29 191.86l3-23.16c.29-.91.48-1.48.48-1.48.5-1.56 1.87-5.83 2.77-9.2l-3 23.35c-.78 2.42-2.32 7.29-3.22 10.52zM4.58 164.76l3-23.15.42-1.48c.45-1.4 1.6-4.95 2.47-8.1l.37.34-3 23.34c-.69 2.15-2 6.26-2.91 9.42z"/><path class="cls-14" d="M12.75 353.31s-1.68 7.26-2.7 11.72l-.13-.09 2.71-25.44c.61-1.91 1.7-5.35 2.46-8.2l.17.15-1.62 19.07c-.37 1.19-.64 2.19-.89 2.79zM17.46 593.7l-3 23.16c-.89-3-1.5-7.35-.8-10.52.13-.58.34-1.37.59-2.29.94-3.22 2.45-7.97 3.21-10.35zM16.77 568l-3 23.15c-.89-3-1.49-7.34-.8-10.52.24-1.07.74-2.85 1.32-4.79.89-2.84 1.9-6 2.48-7.84zM18.47 633.48l-3 23.16c-.89-3-1.5-7.34-.8-10.51.13-.59.34-1.37.59-2.29.94-3.22 2.45-7.97 3.21-10.36zM17.76 606.39l-3 23.16c-.9-3-1.5-7.35-.8-10.52.12-.55.31-1.28.54-2.13.94-3.22 2.5-8.08 3.26-10.51zM17.07 580.72l-3 23.16c-.89-3-1.5-7.35-.8-10.52.13-.55.31-1.28.55-2.13.94-3.23 2.48-8.1 3.25-10.51zM18.77 646.18l-3 23.15c-.9-3-1.5-7.35-.8-10.52.12-.55.31-1.29.55-2.13.93-3.23 2.48-8.08 3.25-10.5zM18.08 620.51l-3 23.16c-.89-3-1.5-7.36-.79-10.53.16-.77.48-1.91.85-3.22.95-3.15 2.25-7.25 2.94-9.41zM5.83 232.78l3-23.14.48-1.49c.49-1.54 1.83-5.69 2.73-9l.17.14-3 23.33C8.42 225 6.92 229.71 6 232.94zM10.19 262.38c-.76 2.39-2.26 7.13-3.16 10.35l-.19-.16 3-23.16.48-1.48c.49-1.55 1.83-5.69 2.73-9l.17.15zM9.48 235.26c-.77 2.41-2.32 7.3-3.22 10.54l3-23.17.48-1.47c.5-1.56 1.87-5.81 2.77-9.19zM8.79 209.64c-.78 2.42-2.32 7.28-3.21 10.5l3-23.16.42-1.52c.5-1.57 1.88-5.84 2.78-9.21zM10.49 275.06c-.77 2.41-2.31 7.28-3.21 10.52l3-23.16c.29-.9.48-1.47.48-1.47.5-1.56 1.87-5.83 2.78-9.2zM9.8 249.41c-.69 2.16-2 6.26-2.9 9.41l-.38-.37 3-23.19.47-1.45c.45-1.4 1.59-4.94 2.47-8.09l.37.34zM19.54 686.11l-3 23.15c-.89-3-1.5-7.34-.79-10.52.12-.59.33-1.37.59-2.28.93-3.22 2.44-7.96 3.2-10.35zM18.86 660.43l-3 23.17c-.88-3-1.49-7.35-.79-10.52.18-.86.54-2.17 1-3.65.93-3.1 2.13-6.94 2.79-9zM20.56 725.88l-3 23.17c-.9-3-1.5-7.35-.8-10.53.13-.58.33-1.37.59-2.28.94-3.24 2.44-7.98 3.21-10.36zM19.84 698.8l-3 23.15c-.89-3-1.5-7.35-.8-10.53.12-.54.31-1.28.54-2.12.94-3.23 2.48-8.08 3.26-10.5zM19.15 673.11l-3 23.18c-.89-3-1.5-7.36-.8-10.53.12-.54.32-1.28.55-2.12.94-3.24 2.48-8.12 3.25-10.53zM20.16 712.91l-3 23.15c-.89-3-1.49-7.34-.79-10.51.17-.78.48-1.92.85-3.23.96-3.16 2.26-7.26 2.94-9.41zM11.27 315c-.76 2.38-2.27 7.12-3.17 10.35l-.19-.16 3-23.16.47-1.47c.5-1.55 1.83-5.69 2.73-9l.17.15zM8.31 338.16l3-23.17.47-1.46c.5-1.56 1.87-5.83 2.78-9.2l-3 23.33c-.77 2.41-2.31 7.28-3.21 10.52zM10.88 302c-.78 2.42-2.32 7.28-3.22 10.52v-.05l3-23.17.47-1.46c.51-1.56 1.88-5.82 2.78-9.19z"/><path class="cls-14" d="M12.36 340.33s-2.08 6.41-3.36 10.89l-.39-.37 3-23.17.48-1.46c.44-1.4 1.59-5 2.47-8.1l.36.34-2.24 21c-.15.37-.24.65-.32.87zM11.31 377.87v-.05.05zM16 498.54s-2.39 7.36-3.64 11.82l-.19-.16 6.27-29.38c.63-1 1.29-2 1.86-3l-2.63 15.37c-.67 2.25-1.36 4.36-1.67 5.35zM16.53 539.8c-.76 2.37-2.26 7.11-3.17 10.34l-.18-.17 3-23.15.47-1.47c.5-1.55 1.84-5.7 2.74-9.05l.16.16zM15.82 512.7c-.82 2.42-2.32 7.3-3.22 10.52v-.05l5.12-30c.39-1.28.77-2.62 1.1-3.84zM16.83 552.48c-.78 2.41-2.32 7.28-3.22 10.52l3-23.16.47-1.47c.5-1.57 1.88-5.84 2.78-9.21zM12.85 535.86l3-23.16c.28-.9.47-1.47.47-1.47.45-1.4 1.59-5 2.47-8.1l.37.34-3 23.35c-.69 2.15-2 6.25-2.89 9.4zM5.59 204.54l3-23.15.41-1.48c.39-1.19 1.27-3.95 2.08-6.69l.38.37-3 23.34c-.58 1.8-1.6 5-2.44 7.85zM3.78 112.24l-.27-.1L6.47 89l.47-1.48c.42-1.32 1.47-4.58 2.33-7.59l.25.11-3 23.23c-.63 2.05-1.85 5.89-2.74 8.97zM17.46 593.7c-.76 2.38-2.27 7.13-3.17 10.35l-.18-.17 3-23.16c.29-.9.48-1.47.48-1.47.49-1.54 1.82-5.69 2.73-9l.16.14zM18.47 633.48c-.76 2.39-2.27 7.14-3.17 10.36l-.18-.17 3-23.16c.29-.92.48-1.48.48-1.48.49-1.54 1.82-5.68 2.73-9l.17.15zM17.07 580.72c-.77 2.41-2.31 7.29-3.21 10.51l3-23.15c.3-.91.48-1.48.48-1.48.5-1.57 1.87-5.84 2.78-9.21zM18.77 646.18c-.78 2.42-2.32 7.27-3.21 10.5h-.05l3-23.16c.29-.9.48-1.47.48-1.47.5-1.56 1.87-5.82 2.77-9.19zM15.05 487.28c-.8 2.5-2.27 7.15-3.14 10.27-.89-3-1.5-7.35-.8-10.52a17.29 17.29 0 011.19-3.11c.23-.5.49-1 .76-1.56 1.78-3.57 4.23-7.75 5-9.09zM18.08 620.51c-.69 2.16-2 6.26-2.9 9.41l-.38-.37 3-23.16c.28-.91.47-1.48.47-1.48.45-1.4 1.59-4.93 2.47-8.08l.37.34zM19.54 686.11c-.76 2.39-2.27 7.13-3.16 10.35l-.19-.17 3-23.18.48-1.46c.49-1.55 1.83-5.69 2.73-9l.17.15zM17.2 736.06l3-23.15c.3-.91.48-1.48.48-1.48.5-1.54 1.83-5.68 2.73-9l.17.15-3 23.33c-.77 2.38-2.27 7.13-3.17 10.36zM19.15 673.11c-.77 2.41-2.31 7.29-3.21 10.53l3-23.17c.28-.9.47-1.47.47-1.47.5-1.56 1.87-5.82 2.77-9.19zM20.16 712.91c-.68 2.15-2 6.25-2.9 9.41l-.38-.37 3-23.15.47-1.48c.45-1.4 1.6-5 2.47-8.1l.37.34zM19.84 455.66L13 482.32c-.27.53-.53 1.06-.76 1.56l-.48-.63c-.89-3 1.51-7.43 2.2-10.6.13-.55.32-1.28.54-2.13 1.24-4.44 3.69-12 3.69-12a16.28 16.28 0 011.65-2.86zM7.8 298.33l-.27-.1 3-23.17c.3-.91.47-1.46.47-1.46.43-1.32 1.48-4.58 2.33-7.59l.26.11-3 23.2c-.67 2.06-1.89 5.91-2.79 9.01zM13.87 575.65l3-23.17.43-1.48c.39-1.19 1.27-4 2.07-6.7l.39.37-3 23.35c-.58 1.8-1.59 5-2.44 7.84zM17.76 606.39c-.78 2.43-2.32 7.29-3.22 10.51l3-23.16.47-1.48c.5-1.56 1.88-5.82 2.79-9.19zM19.84 698.8c-.78 2.42-2.32 7.27-3.22 10.5l3-23.15c.29-.91.48-1.48.48-1.48.5-1.56 1.87-5.83 2.78-9.2zM20.85 738.58c-.78 2.42-2.32 7.28-3.21 10.51l3-23.17c.28-.91.47-1.47.47-1.47.5-1.56 1.87-5.82 2.78-9.2zM16.08 669.43l-.27-.1 3-23.15.47-1.48c.43-1.32 1.48-4.58 2.33-7.59l.26.11-3 23.21c-.67 2.06-1.87 5.9-2.79 9z"/><path class="cls-15" d="M8.39 40.56a22.27 22.27 0 01.36 12c-.83 3.17-1.83 6.32-2.84 9.44-1.39 4.31-2.83 8.63-4 13a22.94 22.94 0 00.51 12 .63.63 0 001.21-.33 21.51 21.51 0 01-.54-11.25c.72-2.77 1.58-5.49 2.44-8.22C7 62.53 8.65 57.83 9.91 53a23.69 23.69 0 00-.31-12.8.63.63 0 00-1.21.33zM9.08 66.23a22.24 22.24 0 01.36 12c-.84 3.2-1.84 6.35-2.85 9.48-1.39 4.32-2.82 8.64-4 13a22.84 22.84 0 00.51 12 .63.63 0 001.21-.33 21.41 21.41 0 01-.54-11.25c.72-2.77 1.58-5.5 2.43-8.22 1.52-4.71 3.14-9.41 4.4-14.21a23.69 23.69 0 00-.32-12.8.62.62 0 00-1.2.33z"/><path class="cls-15" d="M8.78 53.54a22.28 22.28 0 01.36 12C8.31 68.71 7.31 71.86 6.3 75c-1.39 4.31-2.83 8.64-4 13a22.74 22.74 0 00.51 12A.62.62 0 004 99.71a21.51 21.51 0 01-.5-11.25c.72-2.76 1.58-5.46 2.44-8.22C7.42 75.51 9 70.81 10.3 66a23.6 23.6 0 00-.3-12.79.63.63 0 00-1.21.33zM2.34 34.26a21.44 21.44 0 01-.72-10.51c.52-2.24 1.22-4.44 1.9-6.63 1.05-3.44 2.18-6.86 3.23-10.31q.93-3 1.83-6h-1.2a22.24 22.24 0 01.36 12C6.9 16 5.91 19.15 4.89 22.29c-1.39 4.32-2.82 8.64-4 13a22.94 22.94 0 00.51 12 .63.63 0 001.21-.34 21.4 21.4 0 01-.51-11.26c.72-2.76 1.58-5.49 2.43-8.21C6 22.74 7.64 18.05 8.9 13.25A23.69 23.69 0 008.58.45a.63.63 0 00-1.2 0C6.4 3.7 5.43 7 4.38 10.2 3 14.54 1.48 18.9.43 23.33a22.67 22.67 0 00.71 11.26.62.62 0 001.2-.33zM8.07 26.45a22.33 22.33 0 01.36 12c-.84 3.19-1.84 6.34-2.85 9.48-1.39 4.32-2.82 8.64-4 13a22.7 22.7 0 00.51 12 .63.63 0 001.21-.33 21.41 21.41 0 01-.54-11.25c.71-2.76 1.58-5.49 2.43-8.22 1.48-4.73 3.1-9.43 4.37-14.23a23.7 23.7 0 00-.32-12.8.62.62 0 00-1.2.34z"/><path class="cls-15" d="M7.77 13.76a22.24 22.24 0 01.36 12c-.83 3.2-1.83 6.34-2.85 9.48-1.39 4.32-2.82 8.64-4 13a22.94 22.94 0 00.51 12A.63.63 0 003 59.93a21.55 21.55 0 01-.54-11.26c.72-2.76 1.58-5.49 2.43-8.21C6.41 35.72 8 31 9.29 26.23A23.69 23.69 0 009 13.43a.62.62 0 00-1.2.33zM10.47 133a22.18 22.18 0 01.36 12C10 148.13 9 151.28 8 154.42c-1.39 4.32-2.82 8.64-4 13a22.7 22.7 0 00.51 12 .62.62 0 001.2-.33 21.41 21.41 0 01-.53-11.25c.71-2.76 1.58-5.49 2.43-8.22 1.48-4.73 3.1-9.43 4.37-14.23a23.7 23.7 0 00-.32-12.8.63.63 0 00-1.21.33zM11.16 158.63a22.27 22.27 0 01.36 12c-.83 3.19-1.83 6.34-2.84 9.48-1.39 4.31-2.83 8.63-4 13a22.84 22.84 0 00.52 12 .62.62 0 001.2-.33 21.51 21.51 0 01-.54-11.25c.72-2.77 1.58-5.5 2.44-8.22 1.48-4.73 3.1-9.43 4.36-14.23a23.6 23.6 0 00-.31-12.8.63.63 0 00-1.21.33z"/><path class="cls-15" d="M10.86 146a22.24 22.24 0 01.37 12c-.84 3.19-1.84 6.34-2.85 9.48-1.39 4.32-2.82 8.64-4 13a22.7 22.7 0 00.51 12 .62.62 0 001.2-.33 21.51 21.51 0 01-.53-11.25c.71-2.76 1.58-5.49 2.43-8.22 1.48-4.73 3.1-9.43 4.37-14.23a23.7 23.7 0 00-.32-12.8.63.63 0 00-1.21.34zM9.46 93.18a22.27 22.27 0 01.36 12C9 108.35 8 111.5 7 114.63c-1.39 4.32-2.83 8.64-4 13a22.74 22.74 0 00.51 12 .62.62 0 001.2-.33 21.51 21.51 0 01-.54-11.25c.72-2.77 1.58-5.5 2.44-8.22 1.48-4.73 3.1-9.43 4.36-14.23a23.6 23.6 0 00-.31-12.8.63.63 0 00-1.21.33z"/><path class="cls-15" d="M9.17 80.49a22.37 22.37 0 01.36 12c-.84 3.19-1.84 6.34-2.85 9.48-1.39 4.32-2.82 8.64-4 13a22.74 22.74 0 00.51 12 .62.62 0 001.2-.33 21.51 21.51 0 01-.53-11.25c.71-2.76 1.58-5.49 2.43-8.22 1.48-4.73 3.1-9.43 4.37-14.23a23.7 23.7 0 00-.32-12.8.62.62 0 00-1.2.33zM10.15 118.85a22.24 22.24 0 01.36 12c-.84 3.19-1.83 6.34-2.85 9.48-1.39 4.32-2.82 8.64-4 13a22.94 22.94 0 00.51 12 .63.63 0 001.24-.33 21.51 21.51 0 01-.54-11.25c.72-2.76 1.58-5.49 2.43-8.21 1.49-4.74 3.11-9.43 4.37-14.23a23.69 23.69 0 00-.32-12.8.62.62 0 00-1.2.33z"/><path class="cls-15" d="M9.85 106.16a22.27 22.27 0 01.36 12c-.83 3.19-1.83 6.34-2.84 9.48-1.39 4.31-2.83 8.63-4 13a22.74 22.74 0 00.51 12 .62.62 0 001.2-.33 21.51 21.51 0 01-.54-11.25c.72-2.77 1.58-5.5 2.44-8.22 1.48-4.73 3.1-9.43 4.37-14.23a23.69 23.69 0 00-.32-12.8.63.63 0 00-1.21.33zM12.42 226.65a22.34 22.34 0 01.36 12c-.84 3.2-1.84 6.35-2.85 9.48-1.39 4.32-2.82 8.64-4 13a22.74 22.74 0 00.51 12 .63.63 0 001.21-.33 21.41 21.41 0 01-.54-11.25c.71-2.77 1.58-5.5 2.43-8.22 1.48-4.73 3.1-9.43 4.37-14.23a23.69 23.69 0 00-.32-12.8.62.62 0 00-1.2.33zM13.1 252.32a22.14 22.14 0 01.36 12c-.83 3.19-1.83 6.34-2.84 9.48-1.39 4.32-2.82 8.64-4 13a22.74 22.74 0 00.51 12 .62.62 0 001.2-.34 21.4 21.4 0 01-.53-11.25c.71-2.76 1.58-5.49 2.43-8.21 1.48-4.74 3.1-9.44 4.37-14.23a23.73 23.73 0 00-.29-12.77.63.63 0 00-1.21.34z"/><path class="cls-15" d="M12.81 239.63a22.27 22.27 0 01.36 12c-.84 3.19-1.84 6.34-2.85 9.47-1.39 4.32-2.82 8.64-4 13a22.74 22.74 0 00.51 12 .63.63 0 001.21-.33 21.41 21.41 0 01-.54-11.25c.72-2.77 1.58-5.5 2.43-8.22 1.49-4.73 3.11-9.43 4.37-14.23a23.69 23.69 0 00-.3-12.77.62.62 0 00-1.2.33zM11.4 186.87a22.14 22.14 0 01.36 12c-.83 3.19-1.83 6.34-2.84 9.48-1.39 4.32-2.82 8.64-4 13a22.7 22.7 0 00.51 12 .62.62 0 001.2-.33 21.51 21.51 0 01-.53-11.25c.71-2.76 1.58-5.49 2.43-8.22 1.48-4.73 3.1-9.43 4.37-14.23a23.7 23.7 0 00-.32-12.8.63.63 0 00-1.21.34z"/><path class="cls-15" d="M11.11 174.18a22.24 22.24 0 01.36 12c-.84 3.2-1.84 6.34-2.85 9.48-1.39 4.32-2.82 8.64-4 13a22.84 22.84 0 00.51 12 .63.63 0 001.21-.33 21.45 21.45 0 01-.54-11.26c.72-2.76 1.58-5.49 2.43-8.21 1.49-4.74 3.11-9.43 4.37-14.23a23.69 23.69 0 00-.32-12.8.62.62 0 00-1.2.33zM12.09 212.53a22.27 22.27 0 01.36 12c-.83 3.19-1.83 6.34-2.84 9.48-1.39 4.31-2.83 8.63-4 13a22.74 22.74 0 00.51 12 .62.62 0 001.2-.33 21.51 21.51 0 01-.54-11.25c.72-2.77 1.58-5.49 2.44-8.22 1.48-4.73 3.1-9.43 4.36-14.23a23.6 23.6 0 00-.31-12.8.63.63 0 00-1.21.33z"/><path class="cls-15" d="M11.8 199.85a22.33 22.33 0 01.36 12c-.84 3.19-1.84 6.34-2.85 9.48-1.39 4.32-2.82 8.64-4 13a22.74 22.74 0 00.51 12 .62.62 0 001.2-.34 21.51 21.51 0 01-.53-11.25c.74-2.74 1.61-5.47 2.51-8.19 1.48-4.74 3.1-9.44 4.37-14.23a23.73 23.73 0 00-.37-12.81.62.62 0 00-1.2.34zM14.5 319.05a22.47 22.47 0 01.32 12.14c-.84 3.16-1.83 6.28-2.83 9.4-1.4 4.35-2.86 8.71-4 13.14-1 4.06.41 7.92 1.56 11.79a.63.63 0 001.21-.33c-1.08-3.63-2.54-7.31-1.56-11.12.7-2.76 1.57-5.47 2.41-8.19 1.5-4.78 3.14-9.52 4.41-14.36a23.69 23.69 0 00-.31-12.8.63.63 0 00-1.21.33zM15.19 344.72a27.23 27.23 0 011 6.27 23.64 23.64 0 01-.64 5.75c-.61 3.14-1.09 6.31-1.9 9.41-1.14 4.38-2.06 8.85-3.06 13.27-.91 4.08.44 7.83 1.6 11.72.23.77 1.44.44 1.2-.33-1.08-3.65-2.45-7.23-1.59-11.06q.92-4.06 1.86-8.12c1.12-4.85 2.14-9.68 3.1-14.55a25.34 25.34 0 00.69-5.88 28.58 28.58 0 00-1.11-6.81.62.62 0 00-1.2.33z"/><path class="cls-15" d="M14.89 332a22.28 22.28 0 01.36 12c-.83 3.17-1.92 6.25-2.82 9.4-1.25 4.37-2.09 8.91-3.08 13.35-.92 4.08.44 7.83 1.59 11.72a.63.63 0 001.21-.33c-1.09-3.65-2.46-7.23-1.6-11.06.62-2.76 1.26-5.51 1.89-8.26.39-1.69.72-3.42 1.2-5.09.9-3.15 2-6.23 2.82-9.4a23.7 23.7 0 00-.36-12.64.63.63 0 00-1.21.33zM13.49 279.27a22.24 22.24 0 01.36 12c-.85 3.16-1.85 6.31-2.85 9.45-1.39 4.32-2.82 8.64-4 13a22.74 22.74 0 00.51 12 .63.63 0 001.21-.34 21.4 21.4 0 01-.54-11.25c.72-2.76 1.58-5.49 2.43-8.21 1.49-4.74 3.11-9.43 4.37-14.23a23.69 23.69 0 00-.32-12.8.62.62 0 00-1.2.33z"/><path class="cls-15" d="M13.19 266.58a22.27 22.27 0 01.36 12c-.83 3.19-1.83 6.34-2.84 9.48-1.39 4.31-2.83 8.63-4 13a22.94 22.94 0 00.51 12 .63.63 0 001.21-.33 21.51 21.51 0 01-.54-11.25c.72-2.77 1.58-5.5 2.44-8.22 1.48-4.73 3.1-9.43 4.36-14.23a23.69 23.69 0 00-.31-12.8.63.63 0 00-1.21.33zM14.17 304.93a22.28 22.28 0 01.37 12c-.84 3.19-1.84 6.34-2.85 9.48-1.39 4.32-2.82 8.64-4 13a22.7 22.7 0 00.51 12 .62.62 0 001.2-.33 21.51 21.51 0 01-.53-11.25c.71-2.76 1.58-5.49 2.43-8.22 1.48-4.73 3.1-9.43 4.37-14.23a23.7 23.7 0 00-.32-12.8.63.63 0 00-1.21.33z"/><path class="cls-15" d="M13.88 292.25a22.24 22.24 0 01.36 12c-.84 3.19-1.84 6.34-2.85 9.48-1.39 4.32-2.82 8.64-4 13a22.84 22.84 0 00.51 12 .63.63 0 001.21-.33 21.45 21.45 0 01-.54-11.26c.72-2.76 1.58-5.49 2.43-8.21 1.49-4.74 3.11-9.43 4.37-14.23a23.69 23.69 0 00-.32-12.8.62.62 0 00-1.2.33zM21.67 411.53c.57 1.92 1.22 3.82 1.62 5.79a12.53 12.53 0 01-.18 5.84c-.83 3.25-1.85 6.45-2.87 9.63-1.39 4.31-2.81 8.62-4 13-1 3.81-2.07 8.23-1 12.12a.63.63 0 001.21-.33c-1-3.64.06-7.79 1-11.35.73-2.78 1.6-5.53 2.46-8.28 1.49-4.75 3.13-9.46 4.37-14.28a13.47 13.47 0 00.4-5.68 51.3 51.3 0 00-1.8-6.78.62.62 0 00-1.2.33zM23.35 437.17c2 7.46-1.74 14.74-4.57 21.39a104.73 104.73 0 00-5 13.55c-.51 1.89-1.12 3.73-1.72 5.6a11 11 0 00-.68 6.12.62.62 0 001.2-.33c-.51-2 .23-4.11.86-6 .56-1.68 1.08-3.35 1.54-5.06a89 89 0 013.06-8.71c1.85-4.77 4.13-9.38 5.76-14.22a22.71 22.71 0 00.73-12.67.63.63 0 00-1.21.33z"/><path class="cls-15" d="M23.06 424.49a22.56 22.56 0 01.27 12.3 74.86 74.86 0 01-2.74 9.12c-.74 1.79-1.75 3.51-2.57 5.26a72.6 72.6 0 00-3.33 7.75 21.86 21.86 0 00-.58 12.15.63.63 0 001.21-.34c-1.87-6.83 1.14-13.42 4-19.43.76-1.6 1.66-3.17 2.36-4.79.51-1.2.82-2.53 1.21-3.77.56-1.81 1.1-3.63 1.59-5.46a23.89 23.89 0 00-.23-13.12.62.62 0 00-1.2.33zM16.66 371.85c.57 1.92 1.22 3.82 1.62 5.79a14.21 14.21 0 01-.14 5.88c-.64 3.19-1.15 6.4-1.92 9.56-.41 1.67-.53 3.46-.78 5.16-.41 2.75-.81 5.51-1.34 8.25a13.78 13.78 0 00-.19 5 50 50 0 001.8 6.77.62.62 0 001.2-.33c-1.1-3.7-2.36-7.18-1.61-11.07.53-2.73.93-5.49 1.34-8.25.74-4.94 1.72-9.81 2.7-14.71a15.36 15.36 0 00.32-5.57 51.57 51.57 0 00-1.8-6.77.62.62 0 00-1.2.33z"/><path class="cls-15" d="M15.36 359.19c.57 1.92 1.22 3.82 1.62 5.79a13.62 13.62 0 01-.11 5.72c-.64 3.21-1.08 6.47-1.92 9.63-1.16 4.33-2.06 8.75-3 13.12a9.08 9.08 0 00-.09 4.77c.63 2.21 1.91 4.16 2.59 6.34.24.77 1.45.44 1.21-.33-.61-1.94-1.67-3.69-2.36-5.6a7.91 7.91 0 01-.17-4.74q.93-4.12 1.88-8.23c1.12-4.81 2.11-9.62 3.08-14.46a15.51 15.51 0 00.28-5.76 51.5 51.5 0 00-1.77-6.58.62.62 0 00-1.2.33zM19.37 398.47c.63 2 1.75 3.83 2.42 5.83s.25 3.67-.13 5.64a87.81 87.81 0 01-1.83 9c-1.33 4.35-2.83 8.64-4 13a22.77 22.77 0 00.53 11.92.63.63 0 001.21-.33 21.35 21.35 0 01-.57-11.12c.68-2.67 1.51-5.3 2.33-7.92.55-1.75 1.13-3.48 1.66-5.23a82.35 82.35 0 001.8-8.81c.38-1.95.89-3.74.39-5.72-.59-2.31-1.94-4.33-2.65-6.59-.24-.77-1.44-.44-1.2.33z"/><path class="cls-15" d="M18.05 384.81c.57 1.92 1.22 3.82 1.62 5.78a15.76 15.76 0 01-.08 5.77c-.47 3.21-.26 6.57-1 9.73q-1.54 6.59-3 13.16a23.86 23.86 0 00.55 11.95.62.62 0 001.2-.33 22.44 22.44 0 01-.57-11.18c.61-2.73 1.24-5.45 1.87-8.16.39-1.71.79-3.4 1.19-5.1.72-3.06.56-6.3 1-9.4a19.67 19.67 0 00.27-6 53.53 53.53 0 00-1.77-6.57.62.62 0 00-1.2.33zM18.75 504.07a22.24 22.24 0 01.36 12c-.83 3.19-1.83 6.34-2.84 9.48-1.39 4.32-2.83 8.64-4 13a22.9 22.9 0 00.51 12 .63.63 0 001.21-.33 21.51 21.51 0 01-.52-11.22c.72-2.76 1.58-5.49 2.44-8.22 1.48-4.73 3.1-9.43 4.36-14.23a23.7 23.7 0 00-.31-12.8.63.63 0 00-1.21.34zM19.44 529.73a22.27 22.27 0 01.36 12c-.8 3.17-1.8 6.32-2.8 9.46-1.39 4.31-2.82 8.63-4 13a22.84 22.84 0 00.51 12 .63.63 0 001.21-.33 21.41 21.41 0 01-.54-11.25c.72-2.77 1.58-5.49 2.43-8.22C18.08 551.7 19.7 547 21 542.2a23.69 23.69 0 00-.32-12.8.62.62 0 00-1.2.33z"/><path class="cls-15" d="M19.14 517.05a22.24 22.24 0 01.36 12c-.83 3.19-1.83 6.34-2.84 9.48-1.39 4.32-2.83 8.64-4 13a22.74 22.74 0 00.51 12 .62.62 0 001.2-.34 21.51 21.51 0 01-.51-11.19c.72-2.76 1.58-5.49 2.44-8.22 1.48-4.73 3.1-9.43 4.36-14.22a23.63 23.63 0 00-.31-12.81.63.63 0 00-1.21.34zM21.74 464.18a20.33 20.33 0 01-.74 11.9 92.39 92.39 0 01-4.38 8.92 78.82 78.82 0 00-5.16 13.26 22.23 22.23 0 00.33 12.57.63.63 0 001.21-.33 20.89 20.89 0 01-.33-11.9c.88-2.9 2-5.74 3.08-8.56 1.84-4.67 4.64-8.89 6.45-13.58a21.42 21.42 0 00.74-12.57.62.62 0 00-1.2.34z"/><path class="cls-15" d="M21.47 452.49a21.16 21.16 0 011 7.53A20.49 20.49 0 0121 465.5c-1 2.5-1.92 5.19-3.11 7.57-2.2 4.36-5.1 8.35-6.82 13-1.4 3.76-.66 8.31.42 12.06a.62.62 0 001.2-.33c-1-3.51-1.74-7.77-.45-11.3a54.35 54.35 0 013.83-7.72c1-1.72 2.08-3.38 3-5.14 1.2-2.41 2.15-5.09 3.12-7.6a21.79 21.79 0 001.56-5.75 22 22 0 00-1-8.09.62.62 0 00-1.2.33zM18.43 490a22.33 22.33 0 01.36 12c-.84 3.19-1.84 6.34-2.85 9.48-1.39 4.32-2.82 8.64-4 13a22.74 22.74 0 00.51 12 .63.63 0 001.21-.33 21.45 21.45 0 01-.54-11.26c.71-2.76 1.58-5.49 2.43-8.21 1.48-4.74 3.1-9.43 4.37-14.23a23.69 23.69 0 00-.32-12.8.62.62 0 00-1.2.33z"/><path class="cls-15" d="M20.15 478.21c.62 2.38-.06 4.75-.67 7.05-.47 1.76-.86 3.55-1.35 5.3-.77 2.78-1.64 5.54-2.53 8.28-1.41 4.37-2.87 8.75-4 13.2a22.66 22.66 0 00.58 11.72.63.63 0 001.21-.33 21.4 21.4 0 01-.59-11c.68-2.66 1.5-5.27 2.32-7.89 1.41-4.53 2.94-9 4.22-13.59.55-2 1-4 1.52-6a13.87 13.87 0 00.5-7.05.63.63 0 00-1.21.33zM20.69 597.75a22.18 22.18 0 01.36 12c-.83 3.19-1.83 6.34-2.84 9.47-1.39 4.32-2.82 8.64-4 13a22.74 22.74 0 00.51 12 .62.62 0 001.2-.33 21.41 21.41 0 01-.53-11.25c.71-2.77 1.58-5.5 2.43-8.22 1.48-4.73 3.1-9.43 4.37-14.23a23.69 23.69 0 00-.32-12.8.63.63 0 00-1.21.33zM21.38 623.42a22.24 22.24 0 01.36 12c-.83 3.19-1.83 6.34-2.84 9.48-1.4 4.32-2.83 8.64-4 13a22.94 22.94 0 00.51 12 .63.63 0 001.21-.34 21.51 21.51 0 01-.54-11.25c.72-2.76 1.58-5.49 2.44-8.21 1.48-4.74 3.1-9.43 4.36-14.23a23.69 23.69 0 00-.31-12.8.63.63 0 00-1.21.33z"/><path class="cls-15" d="M21.08 610.73a22.18 22.18 0 01.36 12c-.83 3.19-1.83 6.34-2.84 9.48-1.39 4.31-2.82 8.63-4 13a22.74 22.74 0 00.51 12 .62.62 0 001.2-.33 21.41 21.41 0 01-.53-11.25c.71-2.77 1.58-5.5 2.43-8.22 1.48-4.73 3.1-9.43 4.37-14.23a23.69 23.69 0 00-.32-12.8.63.63 0 00-1.21.33zM19.68 558a22.24 22.24 0 01.36 12c-.83 3.19-1.83 6.34-2.84 9.48-1.39 4.32-2.83 8.64-4 13a22.84 22.84 0 00.52 12 .62.62 0 001.2-.34 21.51 21.51 0 01-.54-11.25c.72-2.76 1.58-5.49 2.44-8.21 1.48-4.74 3.1-9.44 4.36-14.23a23.63 23.63 0 00-.31-12.81.63.63 0 00-1.21.34z"/><path class="cls-15" d="M19.38 545.28a22.24 22.24 0 01.37 12c-.84 3.2-1.84 6.35-2.85 9.48-1.39 4.32-2.82 8.64-4 13a22.74 22.74 0 00.51 12 .62.62 0 001.2-.33 21.51 21.51 0 01-.53-11.25c.71-2.77 1.58-5.5 2.43-8.22 1.48-4.74 3.1-9.43 4.37-14.23a23.69 23.69 0 00-.32-12.8.63.63 0 00-1.21.33zM20.37 583.63a22.28 22.28 0 01.36 12c-.84 3.19-1.83 6.34-2.85 9.48-1.39 4.31-2.82 8.64-4 13a22.84 22.84 0 00.51 12 .63.63 0 001.21-.33 21.41 21.41 0 01-.54-11.25c.72-2.76 1.58-5.49 2.43-8.22 1.49-4.73 3.11-9.43 4.37-14.23a23.7 23.7 0 00-.32-12.8.62.62 0 00-1.2.33z"/><path class="cls-15" d="M20.07 571a22.24 22.24 0 01.36 12c-.83 3.19-1.83 6.34-2.84 9.48-1.39 4.32-2.83 8.64-4 13a22.74 22.74 0 00.51 12 .62.62 0 001.2-.34 21.51 21.51 0 01-.54-11.25c.72-2.76 1.58-5.49 2.44-8.21 1.48-4.74 3.1-9.44 4.36-14.23a23.63 23.63 0 00-.31-12.81.63.63 0 00-1.21.34zM22.78 690.15a22.37 22.37 0 01.36 12c-.84 3.19-1.84 6.34-2.85 9.48-1.39 4.31-2.82 8.63-4 13a22.74 22.74 0 00.51 12 .63.63 0 001.21-.33 21.41 21.41 0 01-.54-11.25c.71-2.77 1.58-5.49 2.43-8.22 1.48-4.73 3.1-9.43 4.37-14.23a23.69 23.69 0 00-.32-12.8.62.62 0 00-1.2.33z"/><path class="cls-15" d="M23.17 703.13a22.28 22.28 0 01.36 12c-.84 3.19-1.84 6.34-2.85 9.48-1.39 4.31-2.82 8.64-4 13a22.74 22.74 0 00.51 12 .63.63 0 001.21 0c2.33-7.47 5-15 6.87-22.58a22.92 22.92 0 00-.63-11.56.63.63 0 00-1.21.33 21.46 21.46 0 01.67 10.75c-.7 3-1.63 5.9-2.55 8.82q-1.51 4.79-3 9.57l-1.36 4.34h1.21a21.41 21.41 0 01-.54-11.25c.72-2.76 1.58-5.49 2.43-8.22 1.49-4.73 3.11-9.43 4.37-14.23a23.7 23.7 0 00-.32-12.8.62.62 0 00-1.2.33zM21.76 650.37a22.14 22.14 0 01.36 12c-.83 3.19-1.83 6.34-2.84 9.48-1.39 4.32-2.82 8.64-4 13a22.74 22.74 0 00.51 12 .62.62 0 001.2-.34 21.5 21.5 0 01-.53-11.25c.71-2.76 1.58-5.49 2.43-8.21 1.48-4.74 3.1-9.43 4.37-14.23A23.69 23.69 0 0023 650a.63.63 0 00-1.21.33z"/><path class="cls-15" d="M21.47 637.68a22.27 22.27 0 01.36 12C21 652.85 20 656 19 659.14c-1.39 4.31-2.82 8.63-4 13a22.84 22.84 0 00.51 12 .63.63 0 001.21-.33 21.41 21.41 0 01-.54-11.25c.72-2.77 1.58-5.5 2.43-8.22 1.49-4.73 3.11-9.43 4.37-14.23a23.69 23.69 0 00-.32-12.8.62.62 0 00-1.2.33zM22.45 676a22.24 22.24 0 01.36 12c-.81 3.2-1.81 6.35-2.81 9.49-1.39 4.32-2.83 8.64-4 13a22.7 22.7 0 00.51 12 .62.62 0 001.2-.33 21.51 21.51 0 01-.54-11.16c.72-2.76 1.58-5.49 2.44-8.22 1.48-4.73 3.1-9.43 4.36-14.23a23.6 23.6 0 00-.31-12.8.63.63 0 00-1.21.34z"/><path class="cls-15" d="M22.16 663.35a22.34 22.34 0 01.36 12c-.84 3.2-1.84 6.34-2.85 9.48-1.39 4.32-2.82 8.64-4 13a22.74 22.74 0 00.51 12 .62.62 0 001.2-.33 21.55 21.55 0 01-.53-11.26c.71-2.76 1.58-5.49 2.43-8.21 1.48-4.74 3.1-9.43 4.37-14.23a23.69 23.69 0 00-.32-12.8.62.62 0 00-1.2.33z"/><path class="cls-16" d="M317.1 649.37c1.63.84 5.47 3.66 7.54 4.58 37.69-43.29 89.6-85.63 130.54-125.88 11-10.79 20.05-20.15 29.13-30.64a90.11 90.11 0 01-4.5-8.19l-89.36 75.59z"/><path class="cls-17" d="M315.84 651.53c2.6 1.38 4.86 3.34 7.54 4.58a2.58 2.58 0 003-.39c19-21.86 40.09-41.92 61.36-61.59 21.44-19.83 43.3-39.21 64.29-59.52 11.76-11.39 23.3-23 34-35.41a2.57 2.57 0 00.39-3A73.9 73.9 0 01482 488a2.54 2.54 0 00-3.93-.51l-8.56 7.25-20.59 17.41-25.28 21.38-22.33 18.9-12.09 10.17a51.18 51.18 0 00-5.14 5.76l-16.26 18.74-21.52 24.81-19.63 22.63L315.85 647l-.52.6a2.56 2.56 0 000 3.53 2.52 2.52 0 003.54 0l7.64-8.8 18.13-20.9 21.73-25.05 18.16-20.93 5.59-6.44c.69-.8 1.34-1.68 2.1-2.42s1.5-1.28 2.24-1.91l6.2-5.24 20.52-17.36 25.28-21.38 22.38-18.93L481 491.49l.57-.48-3.92-.51a73 73 0 004.5 8.19l.39-3c-19 21.92-40.33 41.75-61.66 61.35-21.81 20-43.92 39.77-65.06 60.52-11.37 11.17-22.47 22.63-32.94 34.64l3-.39c-2.68-1.24-5-3.2-7.55-4.58-2.81-1.52-5.33 2.77-2.49 4.3z"/><path class="cls-16" d="M317.1 649.37c38.09-43.79 91.95-88.38 133.28-129.12 11.08-10.93 20.26-20.4 29.43-31A233.73 233.73 0 00451.89 466c-49.13 54.5-101.41 113.12-150.54 167.58 4.71 6 8.41 8.58 15.75 15.79z"/><path class="cls-17" d="M318.87 651.14c9.47-10.88 19.45-21.32 29.66-31.51 10.66-10.63 21.58-21 32.59-31.25s22.34-20.61 33.52-30.91c10.7-9.87 21.37-19.77 31.82-29.9 10.81-10.47 21.45-21.13 31.45-32.38q1.84-2.08 3.66-4.18a2.55 2.55 0 000-3.54 239.26 239.26 0 00-28.41-23.59 2.53 2.53 0 00-3 .39q-29.33 32.5-58.53 65.1-29.57 33-59.15 65.93-16.48 18.27-32.9 36.51a2.6 2.6 0 000 3.54c4.63 5.86 10.44 10.59 15.75 15.79 2.3 2.26 5.84-1.28 3.54-3.53-5.31-5.21-11.13-9.94-15.75-15.8v3.54q29.31-32.51 58.52-65.1 29.58-33 59.15-65.92 16.43-18.29 32.87-36.52l-3 .39A229.92 229.92 0 01478 491v-3.54c-9.92 11.47-20.53 22.3-31.36 32.91-10.31 10.1-20.86 20-31.47 29.76-11.13 10.29-22.33 20.52-33.45 30.83S359.7 601.58 349 612.17c-10.36 10.21-20.51 20.65-30.17 31.52q-1.74 1.95-3.45 3.92a2.56 2.56 0 000 3.53 2.53 2.53 0 003.49 0z"/><path class="cls-18" d="M470.36 481.49c-11 8.43-20.33 18.67-29.15 29.29-9 10.88-17.57 22.19-27 32.78a180.93 180.93 0 01-14.53 14.78 154.84 154.84 0 01-18.36 13.78c-6.63 4.37-13.25 8.71-19.42 13.71a190.12 190.12 0 00-16.75 15.48c-10.85 11.23-20.58 23.46-30.15 35.77l-3.52 4.55c-1 1.26.78 3 1.77 1.77 9.5-12.28 19.05-24.57 29.59-36a211.65 211.65 0 0116.21-15.91 173.09 173.09 0 0118.85-14.13 228.17 228.17 0 0019.4-13.69 155.59 155.59 0 0014.94-14.22c9.54-10.25 18.06-21.38 26.88-32.24s17.84-21.39 28.48-30.34c1.3-1.11 2.63-2.18 4-3.23s0-3.14-1.26-2.15zM306.61 638.35c8.27-9 16.68-17.91 25.11-26.78q16.3-17.15 32.74-34.15 17.78-18.45 35.61-36.83 16.86-17.4 33.72-34.78 13.57-14 27.09-28l2.63-2.74c1.11-1.16-.65-2.93-1.77-1.77q-12.93 13.49-25.94 26.87l-33.17 34.21Q384.8 552.75 367 571.19q-16.72 17.32-33.35 34.73c-8.82 9.26-17.63 18.54-26.3 27.94-.84.91-1.67 1.82-2.51 2.72-1.08 1.19.68 3 1.77 1.77z"/><path class="cls-17" d="M318.87 651.14c9.47-10.88 19.45-21.32 29.66-31.51 10.66-10.63 21.58-21 32.59-31.25s22.34-20.61 33.52-30.91c10.7-9.87 21.37-19.77 31.82-29.9 10.81-10.47 21.45-21.13 31.45-32.38q1.84-2.08 3.66-4.18a2.55 2.55 0 000-3.54 239.26 239.26 0 00-28.41-23.59 2.53 2.53 0 00-3 .39q-29.33 32.5-58.53 65.1-29.57 33-59.15 65.93-16.48 18.27-32.9 36.51a2.6 2.6 0 000 3.54c4.63 5.86 10.44 10.59 15.75 15.79 2.3 2.26 5.84-1.28 3.54-3.53-5.31-5.21-11.13-9.94-15.75-15.8v3.54q29.31-32.51 58.52-65.1 29.58-33 59.15-65.92 16.43-18.29 32.87-36.52l-3 .39A229.92 229.92 0 01478 491v-3.54c-9.92 11.47-20.53 22.3-31.36 32.91-10.31 10.1-20.86 20-31.47 29.76-11.13 10.29-22.33 20.52-33.45 30.83S359.7 601.58 349 612.17c-10.36 10.21-20.51 20.65-30.17 31.52q-1.74 1.95-3.45 3.92a2.56 2.56 0 000 3.53 2.53 2.53 0 003.49 0z"/><path class="cls-16" d="M312.27 502.93c-.83 1.81-2.6 6.21-2.44 8.19l.27.48a563.51 563.51 0 01135 125.24s8.05-1.74 10.12-3.05l-66.61-84.31z"/><path class="cls-17" d="M310.11 501.67a33.6 33.6 0 00-2.51 7 5.6 5.6 0 00.11 3.79c.74 1.39 2.38 2.13 3.66 3q8.11 5.41 16.05 11.12 15.76 11.34 30.71 23.77a565.13 565.13 0 0156.73 54.31q14.92 16.41 28.52 34a2.47 2.47 0 002.44.64c1.48-.32 2.95-.68 4.41-1.07a24.49 24.49 0 006.3-2.23 2.55 2.55 0 00.47-4l-5.65-7.14-13.87-17.55L420 585.17l-16.55-20.95-11-13.93c-.65-.82-1.26-1.75-2-2.51a10 10 0 00-2.21-1.46l-15.09-9.2-23.45-14.31L327 509l-12.85-7.83-.6-.37c-2.75-1.68-5.27 2.65-2.52 4.32l9.08 5.53 21.06 12.84 24.13 14.7 18 11c1.29.79 2.57 1.65 3.9 2.38.64.35-.28-.38-.19-.16a5.24 5.24 0 00.69.88l9.05 11.45 15.59 19.73 17.62 22.3 15.18 19.21 8.06 10.2.36.46.51-3.93c-.15.09-1.07.51-.59.32-.46.18-.93.35-1.4.5-1.12.37-2.25.68-3.39 1-1.37.36-2.75.7-4.14 1l2.43.65a563.7 563.7 0 00-48-54.39 568.41 568.41 0 00-54.33-47.57q-16.17-12.43-33.2-23.68l.9.9-.27-.48.34 1.26a11.43 11.43 0 01.76-3.5 33.64 33.64 0 011.34-3.43 2.57 2.57 0 00-.9-3.42 2.52 2.52 0 00-3.51.8z"/><path class="cls-16" d="M373.26 418.35l-45.46 66c-4.83 7-9.74 14.12-16.27 19.59A623.59 623.59 0 01454.34 635l89.1-75 .77-.6c-59.81-43-118.69-87.26-169.78-140.38z"/><path class="cls-17" d="M371.1 417.09c-15.9 23.08-31.66 46.28-47.72 69.25-4 5.73-8.26 11.29-13.61 15.82-1.31 1.1-.73 3.1.5 3.93a617 617 0 0160.36 45.67 624.72 624.72 0 0154.19 52.51q14.43 15.78 27.75 32.54c.89 1.12 2.6.78 3.54 0l71.13-59.9c6.22-5.25 12.32-10.74 18.74-15.74 1.39-1.08.64-3.1-.51-3.93-23.72-17.07-47.33-34.33-70.38-52.31s-45.55-36.66-67-56.5q-8.94-8.25-17.63-16.78-4.43-4.36-8.78-8.78c-2.25-2.29-4.35-5.08-7.14-6.68s-5.32 2.72-2.53 4.32a9.34 9.34 0 01.87.5 10.65 10.65 0 011.08 1.11q1.92 2 3.86 3.95 3.87 3.94 7.79 7.82 7.85 7.75 15.91 15.27 15.94 14.86 32.61 28.93c22.37 19 45.54 36.93 69.06 54.43q19.76 14.7 39.78 29l-.51-3.93c-5.63 4.4-11 9.2-16.44 13.81l-17.6 14.81-35.56 30-20.27 17.07h3.54A624 624 0 00405 576.56a629.36 629.36 0 00-57.44-49.91q-17-13-34.79-24.88l.51 3.92a78.07 78.07 0 0012.61-14.3c4-5.54 7.8-11.23 11.67-16.85l24.14-35.05 13.69-19.88a2.52 2.52 0 00-.89-3.42 2.55 2.55 0 00-3.4.9z"/><path class="cls-18" d="M521.82 578.49c-8.22-10.25-18.33-18.72-28.76-26.64-10.7-8.12-21.84-15.67-32.23-24.2a151.61 151.61 0 01-14.4-13.24A135.3 135.3 0 01432.9 497a208 208 0 00-13.49-18.42 161.92 161.92 0 00-15.2-15.46c-11-9.92-23.11-18.62-35.23-27.15l-4.47-3.14c-1.32-.92-2.58 1.24-1.27 2.16 12.16 8.52 24.34 17.07 35.61 26.75a177.44 177.44 0 0115.69 15.09 155.94 155.94 0 0113.74 17.8 186.83 186.83 0 0013.28 18.1 136.41 136.41 0 0014.06 13.77c10.06 8.62 21 16.17 31.6 24s21 16.08 29.75 26q1.57 1.8 3.08 3.67c1 1.26 2.76-.52 1.77-1.77zM323.09 491.89a264.4 264.4 0 0172.68 34.3 252.29 252.29 0 0129.55 23.51A297.7 297.7 0 01451 577.08c9.79 11.66 19.73 23.62 32.95 31.54a1.25 1.25 0 001.26-2.16c-11.8-7.08-21-17.52-29.75-27.94-8.26-9.8-16.59-19.44-25.89-28.28a256.23 256.23 0 00-62.63-43.79 272.84 272.84 0 00-43.15-17 1.25 1.25 0 00-.67 2.41zM509.4 589.39c-9.65-6.21-19-12.93-28.18-19.75C469.5 561 458 552.07 446.55 543Q428.1 528.41 410 513.32q-17.11-14.28-33.83-29c-8.91-7.91-17.74-15.94-26.19-24.34-.83-.82-1.66-1.65-2.47-2.48-1.13-1.15-2.9.62-1.77 1.77 8.05 8.18 16.52 15.95 25.06 23.6 10.89 9.76 22 19.29 33.18 28.7q18.09 15.18 36.57 29.91 17.44 13.89 35.26 27.29c9.59 7.17 19.28 14.24 29.28 20.84l3 2c1.36.87 2.61-1.29 1.26-2.16zM473.51 617.66a232.44 232.44 0 00-51.94-35.72q-8-4-16.21-7.37c-1.48-.62-2.13 1.8-.66 2.41a229.65 229.65 0 0153.72 31.2q6.87 5.37 13.32 11.25c1.19 1.08 3-.68 1.77-1.77zM377.25 550.89c-2.08-10.27-9.26-18.06-17.29-24.3-8.75-6.81-18.52-12.22-27.11-19.25a53.23 53.23 0 01-12.06-13.21 1.25 1.25 0 00-2.16 1.27c5.66 9.25 14.63 15.78 23.47 21.77s18.24 11.55 25.26 19.65a32.26 32.26 0 017.48 14.74c.32 1.57 2.73.91 2.41-.67z"/><path class="cls-17" d="M371.21 416.51c-15.81 23.15-31.46 46.42-47.42 69.46-4 5.74-8.21 11.32-13.55 15.87-1.29 1.1-.74 3.11.51 3.93a618.51 618.51 0 0160.51 45.38 626.16 626.16 0 0154.54 52.4q14.44 15.69 27.8 32.33c.89 1.11 2.6.8 3.54 0l70.86-60.2c6.21-5.27 12.28-10.79 18.68-15.82 1.38-1.08.65-3.1-.51-3.93-23.8-17-47.47-34.13-70.6-52s-45.71-36.47-67.27-56.21q-9-8.22-17.7-16.71-4.44-4.33-8.82-8.74c-2.25-2.28-4.36-5.06-7.16-6.65s-5.33 2.73-2.52 4.32c.28.16.59.31.87.5a9.43 9.43 0 011.08 1.1l3.87 3.94q3.88 3.91 7.83 7.78 7.88 7.71 16 15.2 16 14.81 32.73 28.8c22.45 18.85 45.69 36.73 69.28 54.13q19.82 14.63 39.91 28.87l-.51-3.92c-5.61 4.41-10.94 9.24-16.39 13.87l-17.53 14.89-35.43 30.1-20.2 17.16h3.54A624.15 624.15 0 00406 576a629.3 629.3 0 00-57.77-49.79q-17-13-35-24.79l.51 3.93A78.83 78.83 0 00326.33 491c4-5.56 7.74-11.26 11.59-16.9l24-35.15L375.53 419a2.5 2.5 0 10-4.32-2.52z"/><path d="M390 480.45c.11 0 .26-.21.45-.52a8.67 8.67 0 011.58-1.88 21.49 21.49 0 011.94-2.4c.23-.19.4-.25.52-.19a7.17 7.17 0 011.14-1.87 12.64 12.64 0 011.59-1.93 2.94 2.94 0 01.6-.75 2.17 2.17 0 01.61-.47c0-.1.11-.31.37-.65l1.45-1.66.91-.9.71-.81 1.23-.95c0-.19.28-.35.76-.5.21-.73 1-1.15 2.45-1.24a5.53 5.53 0 011.27.26 7.45 7.45 0 01.9.79c.14.17.37.41.68.72a5.73 5.73 0 01.66.77 1.44 1.44 0 01-.37 1.76l-.55.63c-.73.93-1.28 1.61-1.67 2.06l-.71.81c-.28.32-.46.48-.56.49a3.9 3.9 0 01-.61.7l-.55.62a9.92 9.92 0 00-1.23 1.27l-2 1.73a14.21 14.21 0 002 2l1.85 1.61c1.08 1 1.77 1.54 2.06 1.77a.82.82 0 00.76.25 2.51 2.51 0 00.72-.42 8.82 8.82 0 00.86-.75 3.84 3.84 0 01.59-.52c.25 0 .75-.49 1.49-1.49a3.35 3.35 0 01.64-.43 7.45 7.45 0 011.18-1.05 3.83 3.83 0 011.32-1 9.7 9.7 0 001.14-.59 2.57 2.57 0 011.82-.3 6.52 6.52 0 012.51.7l.66.58c.56.71.23 1.53-1 2.47a6.63 6.63 0 01-1.55 1.18 21.81 21.81 0 00-2.3 2 14 14 0 01-1.94 1.63 4.47 4.47 0 01-.79.94 2.68 2.68 0 00-.54.5c-.52.5-.87.85-1 1q-1 1.05-1.62 1.71a14.61 14.61 0 01-1.37 1.34 6.74 6.74 0 01-1.65 1.36L405.2 493q-.22.27-3.07 4c0 .27-.18.61-.61 1a2.55 2.55 0 01-1 .68.84.84 0 01-.64 0 5 5 0 01-.64-.5 2.75 2.75 0 01-1.69-.82 2.35 2.35 0 01-.66-1.1 2.64 2.64 0 01-.13-1.87 3.8 3.8 0 00.46-.71 2.55 2.55 0 01.67-.81 5.69 5.69 0 00.85-.85c.27-.33.58-.71.95-1.12l.42-.41c0-.15.2-.28.5-.42s.45-.3.48-.49l.87-1 1.83-1.72c-.09-.39.25-.8 1-1.25l.33-.23a3.91 3.91 0 01-.9-.6 12.69 12.69 0 01-2.52-1.74l-3.22-3-.35.4a15.25 15.25 0 00-1.59 1.74l-.61.7c-.54.66-1.32 1.58-2.35 2.76-1 1.37-1.78 2.33-2.27 2.9l-.27.22a2.09 2.09 0 01-.52.45 1.51 1.51 0 01-1.19.66 3.08 3.08 0 01-1.42-.66 2.5 2.5 0 01-1-1.63c-.34-.81-.43-1.32-.28-1.54a4.67 4.67 0 00.46-1 2.49 2.49 0 01.35-.93 13.19 13.19 0 001.12-1.36 1.26 1.26 0 01.35-.61 12.37 12.37 0 001.09-1.69zM418.4 491q.53.14 1.41 1.89a2.22 2.22 0 00.18.68l.17 1a.81.81 0 01-.27.61l-2.84 3.25a14.91 14.91 0 01-1.23 1.26l-.2.22c-.95.95-2.88 3.27-5.78 7-.53.75-1 1-1.57.83-.42-.37-.64-.66-.65-.89a.71.71 0 00-.2-.3l-.26-.23-.28-.12a1.32 1.32 0 01-.26-.52 1.18 1.18 0 01-.08-.69.55.55 0 00-.12-.49.79.79 0 010-.94 8.16 8.16 0 01.49-1.65 1.46 1.46 0 00.23-.52l2.66-3.39a5.19 5.19 0 01.82-.79l.77-.88c.26-.25.72-.72 1.38-1.43s1.21-1.25 1.65-1.65c.51-.69.86-1.14 1.05-1.36a3.59 3.59 0 01.46-.45c0-.5.3-.86 1-1.07a2 2 0 011.25.44zm7.91-8.45c1.64 1.45 2.51 2.79 2.59 4a11.18 11.18 0 01-3.07 1.81 3 3 0 01-1.35.57l-.9.06a.92.92 0 01-.47-.21 2.56 2.56 0 01-1.61-2.32 1.34 1.34 0 00-.06-.64c-.07-.19 0-.51.27-.94a2 2 0 01.31-1c1.28-1.56 2.68-2 4.18-1.42zM419.57 511.11a.86.86 0 010 1.18c-.3.41-.73.94-1.3 1.59a12 12 0 01-2.86 2.16 2.1 2.1 0 01-1.11.45 7.09 7.09 0 01-1.21.64 3.68 3.68 0 01-3.27.39 1.7 1.7 0 01-.75-.19 2.22 2.22 0 01-1.2-1.45c-.09-.2-.05-.32.11-.35a2.53 2.53 0 011.18-.5 10.13 10.13 0 001.28-.38 9.64 9.64 0 001.12-.68l1.22-1.41a3 3 0 001-2.3 2.24 2.24 0 01.79-1.95s.1-.16.31-.35a3.05 3.05 0 01.9-.51 2.25 2.25 0 011.12-.16l.52.52a4 4 0 011.23 1.34l.46.67a12.86 12.86 0 01.46 1.29zM457 515.54a1.75 1.75 0 01-.76-.37c-.21-.18-.77-.64-1.7-1.36a20.67 20.67 0 00-2.12-1 10.24 10.24 0 01-2.07 1.63 11.67 11.67 0 01-1.45 1.28 2.14 2.14 0 01-.62.49 3.74 3.74 0 00-.92.83 15.57 15.57 0 00-1.67 1.46 1.56 1.56 0 01-.36.41c-.17.15-.45.37-.82.65a7.52 7.52 0 00-1.18 1.12 5.51 5.51 0 01-1.28 1.09l-.35.4a8.29 8.29 0 01-1.74 1.8 4.37 4.37 0 00-1 .8 8.82 8.82 0 01-1.23 1 8.61 8.61 0 00-1.79 1.82l.22.19a10.91 10.91 0 011 .8 2.35 2.35 0 00.58.34l.56.56.37.32a1.88 1.88 0 01.24.7 2.6 2.6 0 01.05 1 .63.63 0 01-.27.65 3.9 3.9 0 01-1.53.06l-.89-.39a2 2 0 01-.74-.19 2.75 2.75 0 01-.83-.47c-.68-.37-1.19-.45-1.55-.24s-.92-.33-2-1.33l-1.26-1.1-.89-.39a3.42 3.42 0 01-1.78-1.23c-.36-.54-.6-.9-.7-1.1a2.76 2.76 0 01-.25-.87.87.87 0 01.27-.87 12.48 12.48 0 011.13-.8 9.09 9.09 0 011.46.11c1.51.66 2.47 1.07 2.9 1.23a9.45 9.45 0 001.18-1.51c.1 0 .65-.41 1.65-1.36a2.16 2.16 0 00.43-.86l.19-.22a8.94 8.94 0 001.61-1.91s.45-.42 1.28-1.16c.25 0 .59-.44 1-1.18.5-.39.91-.68 1.22-.88l.49-.49a12.93 12.93 0 011.39-1.13l.32-.37.33-.23q3-2.16 4.37-3.21a2.37 2.37 0 01-.43-.25l-1.38-.88a3.33 3.33 0 01-1.93-2.79c.12-1.37.73-2.1 1.84-2.17a4.44 4.44 0 012.28.82 16.63 16.63 0 001.71.65 7 7 0 002.44.7c1 .68 1.6 1.08 1.75 1.21l1.92 1.29a4.59 4.59 0 01.84.83c.31.39.47.66.45.82a8.08 8.08 0 01.8 1.48l.17 1.58a12.61 12.61 0 01-.26 1.72c-.18.37-.43.53-.69.47zM460.06 520a2.77 2.77 0 00.49-.48l.61-.7a4.37 4.37 0 00.5-1.09c.23-.61.4-1 .52-1.34l.79-2.76a1.28 1.28 0 011-.35 2.93 2.93 0 011.38.39l.91.53a4.66 4.66 0 00.72.37 5.53 5.53 0 011.31.77 2.81 2.81 0 01.58 1.61s-.31.57-.88 1.63a13.69 13.69 0 01-1.65 2.53 8.53 8.53 0 01-1.31 1.27l-.86.61c-.24.18-.37.27-.38.29l-.25.13a2 2 0 01-.36.15 4.59 4.59 0 00-.6.25 10.06 10.06 0 01-1.17.44 9.12 9.12 0 01-1.18.31 4.86 4.86 0 01-1.57-.14 4 4 0 01-1.8-.85 2.68 2.68 0 01-.85-1.11c-.09-.32-.08-.54 0-.68s.21-.21.28-.21a.5.5 0 01.21 0c.31.2 1.5-.33 3.56-1.57zM464.25 529.69l.07.06a4.31 4.31 0 011.46 1.47c.18.28-.29 1.11-1.4 2.49-.78 1.09-1.34 1.83-1.68 2.21a5 5 0 00-.56.71L460 539.1l.15.2.47-.38a11.15 11.15 0 011.79-1.23.74.74 0 00.49-.22 1.24 1.24 0 01.62-.3 14.63 14.63 0 013.46-1.73 6.86 6.86 0 011.49-.55 1.09 1.09 0 011.06.5 2.9 2.9 0 01.59 1.23c.17.2.37.44.6.73l.88 1.15a1.74 1.74 0 01.19.6.7.7 0 01-.21.69c-.2.17-.73.73-1.59 1.67l-.52.59-1.4 1.31a2.25 2.25 0 00-.54.76l.05.24 1.78-1.44a.89.89 0 01.64-.28l1.37-.68a1.81 1.81 0 01.65-.29 4.71 4.71 0 011-.43 5.54 5.54 0 011.53-.29c.17-.2.51-.14 1 .17.66-.07 1.24.42 1.72 1.45a1.41 1.41 0 01.35.43c-.05 0 0 .16.18.35a1.78 1.78 0 01.26 1.08l-.36.4a4 4 0 00-.44.59 2.81 2.81 0 00-.55.69l-.38.44-1.43 2-.36.41a1.13 1.13 0 01-.31.54q-.23.22-.45.48a1.74 1.74 0 01-.35.77 2.89 2.89 0 01-.93.91l-.22.4-.9 1a.71.71 0 01-.2.61l-.44.72a6.63 6.63 0 00-1 1.49l-.35.4-.66 1.12-.19.23-.36.33a.82.82 0 01-1 .2l-.3-.06a1.3 1.3 0 01-.49-.3l-.55-.94-.14-.58a1.36 1.36 0 01-.55-.93 1.07 1.07 0 00.26-.82.59.59 0 01.19-.88s.1-.19.17-.56c.09 0 .29-.31.59-.91a3.79 3.79 0 00.51-.7c.15-.24.31-.47.49-.71a2.14 2.14 0 00.39-.7s.11-.05.26-.22a2 2 0 00.35-.55l.74-.85 1.11-1.63-2 1.21a20.3 20.3 0 00-1.91 1.06l-4.4 2.66a2.68 2.68 0 01-.86.13 1.2 1.2 0 01-.78-.2c0-.11-.08-.26-.29-.44a2.54 2.54 0 00-.92-.48c-.92-.63-1.17-1.31-.76-2l.67-.92.78-.81a1.37 1.37 0 01.38-.58l.41-.55 1.39-1.59 1.57-1.94 1.58-1.81q-3.61 2-4.65 2.64l-5.2 3.19a2.13 2.13 0 01-2.48-.15l-.47-.28c-.65-.35-.93-.75-.84-1.19l.18-.95a2.73 2.73 0 00.51-1.18 4.5 4.5 0 00.57-1.39l.59-1a1.53 1.53 0 00.21-.4l.58-.66a7.44 7.44 0 01.87-1.36 14.56 14.56 0 011.23-1.49 3.47 3.47 0 01.9-1.17l.58-.66a17.28 17.28 0 012.07-2.75l.45-.51a17 17 0 001.5-1.33 1.06 1.06 0 01.7-.43 8.91 8.91 0 011.88.2zM374.88 538.61c-.32 0-.93-.35-1.81-1.13a5.17 5.17 0 01-1.92-2.2l-.55-.93-.66-1.55a.86.86 0 00-.2-.15s-.07-.09-.1-.25a2.48 2.48 0 00-.26-.75 5.91 5.91 0 01-.23-1.82 8.37 8.37 0 011.56-4.17 1.6 1.6 0 01.86-.23 3 3 0 012.61.73 1.44 1.44 0 01.45.9l-.17 2.66a10.87 10.87 0 00.14 1.17v.93l.19 1.27a.93.93 0 00.23.34 5.75 5.75 0 00.65.89 10.62 10.62 0 001.61.69 6 6 0 011 0l1-.14a3.28 3.28 0 00.77-.36c.28-.32.47-.53.58-.63a5.81 5.81 0 00.66-1 3.92 3.92 0 000-1 8.38 8.38 0 00.22-1.51 20.33 20.33 0 00-1.11-3l-.35-1-.14-1.17a5.49 5.49 0 01-.5-2.19c-.09-.38-.16-.68-.2-.89a8.52 8.52 0 01-.12-2.32 15.89 15.89 0 00.6-1.95l.93-1.72 1-.83a5.73 5.73 0 011.12-1.57A6.12 6.12 0 00384 513c.25-.44 1.21-.87 2.9-1.31a10.51 10.51 0 013.17-.35l1.83.43.82.26c.24.17.57.4 1 .68a14.25 14.25 0 011.71 1.5 4.19 4.19 0 011.18 1.55 18 18 0 01.61 2.29c.24 1.91.08 3.28-.49 4.13a9.34 9.34 0 01-3.44 4.09c-.09.09-.6 0-1.55-.32l-.89-.84a5.18 5.18 0 01-1.19-3.19c-.09-.29.07-.76.47-1.42s.68-1.07.56-1.39a8 8 0 01.29-.92c.05-.91 0-1.42-.12-1.54a1.63 1.63 0 00-.56-.29 4.41 4.41 0 00-3.5 1.17 4.84 4.84 0 00-1.63 3.2c-.07.63-.07 1 0 1a6.1 6.1 0 00.05 1.67v1l.55 2.5.08 1.18.31 1.05a6.89 6.89 0 01.53 1.7 12.75 12.75 0 010 3.65 11.22 11.22 0 01-1.15 2.5l-1.26 1.44-.93.69a3.21 3.21 0 00-1.05.38s-.44.24-1.27.65a7.37 7.37 0 01-1.57 0 10.44 10.44 0 01-3.63-.84 4.21 4.21 0 01-.95-.69zM397.68 533.82l.33-.3c-.47-.5-.8-.86-1-1.08s-.48-.56-.91-1a7.12 7.12 0 01-.91-1.19 1.87 1.87 0 01.29-2.12c.57-.79 1.19-1 1.88-.74a7.25 7.25 0 011.2.72q.29.25 1.17.9a3.41 3.41 0 011.33.71l.68.33s.1.09.36.19l.86-.62a3.23 3.23 0 011.37-.89 8.5 8.5 0 011.74-1c.08-.09.93-.61 2.53-1.55a9.57 9.57 0 011.85.12c.56.14 1 .76 1.3 1.85a2 2 0 01.2 1.41c-.27 0-.65.3-1.12.84l-2.83 2.25-.9 1c.18.2.45.55.82 1s.82 1.09 1.35 1.77c1 1.32 1.36 2.49 1 3.51-.35.65-.71 1-1.07 1.08a2.71 2.71 0 01-1.68-.62c-.56-.45-1.28-1.06-2.15-1.82a10.1 10.1 0 00-2.1-1.51 12.42 12.42 0 00-1 1l-.52.52c-.16.17-1.06 1-2.72 2.44a17.92 17.92 0 00-3.37 3.11l-2.36 2.69a8.54 8.54 0 00-1 1.35 4.59 4.59 0 00-.82 1.3 16.33 16.33 0 00-1 1.57 2 2 0 01-2.39-.21 3.35 3.35 0 01-1.15-2.3l.11-.94c.1-.27.16-.45.19-.56a1.3 1.3 0 01.14-.33 5.69 5.69 0 00.4-1.28 1.22 1.22 0 01.16-.64c.09-.1.2-.22.32-.37a11.94 11.94 0 00.76-1.23c0-.23.28-.7.91-1.41a20.56 20.56 0 002-2.25c.13 0 .55-.47 1.26-1.37l.82-.72c.09-.09.46-.42 1.11-1a3 3 0 01.66-.83 6.31 6.31 0 01.9-.81 7.79 7.79 0 001-.97zM408 559.56l-1.81 1s-.86.26-2.46.65a1.83 1.83 0 01-1.91-.31 6 6 0 01-1.59-1.72 6.45 6.45 0 01-.9-2.47 7.68 7.68 0 01.47-2.88 8.43 8.43 0 011.28-2.69 20.12 20.12 0 011.17-1.71l.78-.89a7.49 7.49 0 011.46-1.45l.86-.61a11.82 11.82 0 013.47-2.18q3.72-1.5 5.22-.31l.19.16a.66.66 0 00.18.23l.48.42a11.73 11.73 0 011.4 1.61 4.76 4.76 0 00.83 1l.79 1a4.31 4.31 0 011 1.2c.35.56.51.9.48 1a9.4 9.4 0 01-.51 1l-.68 1.19c-.15.24-.31.48-.47.72a39.4 39.4 0 00-3.43 5.86c0 .09-.12.22-.22.39a10.59 10.59 0 00-.5 1.1c-.23.56-.44 1-.62 1.38a14.31 14.31 0 00-.63 1.53 12.46 12.46 0 00-.46 1.87c-.13 1.24-.93 1.58-2.4 1a3.77 3.77 0 01-.84-.6 3.66 3.66 0 01-.37-1 1.18 1.18 0 01-.35-1l-.23-.34a.94.94 0 00-.22-.64c0-.09.42-1.48 1.29-4.15a3.87 3.87 0 00-.75.64zm5-8a2.9 2.9 0 00.71-1.56 2.15 2.15 0 00-.78-1.56 4.37 4.37 0 00-1.76.63 10.67 10.67 0 00-2.49 1.77 23.08 23.08 0 00-3.47 3.22 6.85 6.85 0 00-1.73 3.17v.24c0 .02.54 0 1.24-.22a18.74 18.74 0 008.28-5.73zM416.12 566.48c.08-.09.43-.44 1-1a5.5 5.5 0 011.45-2.25c2.27-2.65 3.44-4 3.49-4s.11-.16.15-.36a1.18 1.18 0 01.27-.52l.35-.41a4.56 4.56 0 011.76-1.71 1 1 0 01.89-.2 1.13 1.13 0 011.06.27 3.39 3.39 0 01.71.82c.24.08.32.32.23.72a5.33 5.33 0 00.31.6l.06.31a.77.77 0 01.31.43 1.24 1.24 0 01-.28.58l-2.47 3.5-.55.62a6 6 0 01-.54.77l-1.48 1.76.12.17a12.07 12.07 0 011.8-1.06 6.84 6.84 0 001.14-.6 1.39 1.39 0 01.74-.32 2.1 2.1 0 00.77-.44 1.14 1.14 0 01.72-.22 6.59 6.59 0 011.66-.63l.37-.2.54-.17a4.41 4.41 0 001.11-.08h.48c.05 0 .16 0 .33-.07s.56.1 1.17.6a4.09 4.09 0 011.18 1 1.6 1.6 0 01.37.39v.41l.23.34a2.66 2.66 0 01-.58 2.29 24.76 24.76 0 00-2.72 3.48 22.52 22.52 0 00-2.42 4.52 8.08 8.08 0 00-.74 3.26 2.57 2.57 0 01-1.54 2.36 1.42 1.42 0 01-1.37-.15 2.81 2.81 0 01-.7-.68 1.2 1.2 0 01-.38-.53.88.88 0 01-.54-.8.75.75 0 01-.23-.78 26.53 26.53 0 01.35-3.41c.1-.39.16-.66.19-.81a1.43 1.43 0 01.09-.37l.18-.43a2.11 2.11 0 00.26-.85 1 1 0 01.17-.6 1.83 1.83 0 01.36-.72.57.57 0 01.11-.56c-.06-.19.05-.48.32-.89l.69-1.09v-.1a12.83 12.83 0 00-6.72 3.43 7.65 7.65 0 01-1 .83q-.45.14-.66 1.05l-.2.22c-.08.1-.38.17-.89.2l-.54-.41-.41-.36a1.19 1.19 0 00-.39-.14 1 1 0 00-.44-.25c-.14 0-.26-.17-.37-.4a3.81 3.81 0 01-.69-.77 2.17 2.17 0 00-.24-.4.9.9 0 01-.16-.56.37.37 0 01-.06-.45 3.47 3.47 0 01.46-2.46l.23-.26.22-.32a3.37 3.37 0 00.91-1.14z"/><path class="cls-2" d="M7.43 426C7 430.31 7 435.54 11 433.23c2.8-1.59 11-24.18 8-27.39-1.52-1.65-4 2.07-6 3.51z"/><path class="cls-2" d="M6.18 426c-.27 2.48-.95 7.22 1.78 8.68 2.05 1.1 4.19-.5 5.28-2.16a35.91 35.91 0 003-6.24 84.83 84.83 0 002.88-8.3 46 46 0 001.68-8c.16-1.6.32-3.79-.88-5.07s-2.59-.91-3.78-.09a14.22 14.22 0 00-1.91 1.65c-.67.64-1.52 1.23-2.13 1.91a3.71 3.71 0 00-.61 1.41l-.87 2.59-4.4 13.32c-.51 1.53 1.91 2.19 2.41.67l5.57-16.69-.57.75c1.5-1.11 2.69-2.92 4.38-3.72.14-.07.14 0 .2.16a2.8 2.8 0 01.19 1.06 26.25 26.25 0 01-1.25 7.9 81.3 81.3 0 01-3.15 9.35 26.14 26.14 0 01-3.31 6.62s-.58.49-.34.36c-.55.32-1.11.63-1.5 0a5.33 5.33 0 01-.42-2.6 28.23 28.23 0 01.25-3.56c.17-1.56-2.33-1.55-2.5 0z"/></g></g></svg>