<svg xmlns="http://www.w3.org/2000/svg" xmlns:xlink="http://www.w3.org/1999/xlink" viewBox="0 0 286.86 314.54"><defs><style>.cls-1{fill:url(#radial-gradient);}.cls-2{fill:#bcdff5;}.cls-3,.cls-5{fill:#231f20;}.cls-4{fill:#00729e;}.cls-11,.cls-5,.cls-8{stroke:#231f20;}.cls-11,.cls-5,.cls-6,.cls-8{stroke-miterlimit:10;}.cls-6{fill:#fff;stroke:#fff;}.cls-7{fill:#2e76bb;}.cls-8{fill:#9cd9e5;fill-opacity:0.43;stroke-width:8px;}.cls-9{opacity:0.75;}.cls-10{fill:#bde4ed;}.cls-11{fill:#fdffe9;stroke-width:3px;}.cls-12{fill:#8e8e8e;}</style><radialGradient id="radial-gradient" cx="147.11" cy="39.14" r="136.45" gradientTransform="translate(-9.92 115.07) scale(1.04 0.95)" gradientUnits="userSpaceOnUse"><stop offset="0" stop-color="#a7dbda"/><stop offset="0.78" stop-color="#bcdff5"/></radialGradient></defs><g id="Layer_2" data-name="Layer 2"><g id="Layer_1-2" data-name="Layer 1"><path class="cls-1" d="M280.33,142.61c0,77.62-53.76,143.31-139.24,143.31S6.71,220.23,6.71,142.61,55.62,17.75,141.09,17.75,280.33,65,280.33,142.61Z"/><path class="cls-2" d="M65.79,258.59,53.65,283.07c-1.34,2.71-2.7,5.48-3,8.48-.59,5.66,2.79,11.17,7.38,14.53s10.23,4.92,15.8,6.07c7.5,1.56,16.23,2.18,21.91-2.95,2.93-2.65,4.53-6.42,5.88-10.12A131.14,131.14,0,0,0,107.36,278Z"/><path class="cls-2" d="M64.72,258c-4.39,8.84-9,17.6-13.14,26.53-1.78,3.82-2.85,7.78-1.8,12A19.15,19.15,0,0,0,55.91,306c6.15,5.28,15,7.28,22.83,8.22,7.52.9,15.51-.27,20.21-6.81,2.82-3.92,4.27-8.87,5.71-13.41a134.53,134.53,0,0,0,3.91-15.71,1.28,1.28,0,0,0-.57-1.41l-14-6.53L71.62,259.93l-5.19-2.42c-1.45-.68-2.72,1.47-1.27,2.15l14,6.53,22.37,10.43,5.19,2.42-.57-1.42q-1.2,6.45-3,12.75A85.65,85.65,0,0,1,99,302.25c-1.55,3.38-3.7,6.34-7.08,8A20.52,20.52,0,0,1,81.83,312,56.39,56.39,0,0,1,71,310.25a36.92,36.92,0,0,1-11-4.29,18.22,18.22,0,0,1-7.18-8.16c-1.59-3.76-1.12-7.55.49-11.23,2-4.52,4.36-8.9,6.56-13.33l7-14C67.59,257.78,65.43,256.51,64.72,258Z"/><path class="cls-2" d="M154.05,263.43l-5.27,26.83c-.58,3-1.16,6-.67,9,.93,5.61,5.63,10,10.95,12.07s11.16,2.05,16.84,1.7c7.64-.48,16.23-2.17,20.36-8.63,2.12-3.32,2.68-7.38,3-11.31a131.15,131.15,0,0,0,0-21.89Z"/><path class="cls-2" d="M152.84,263.1,149.92,278c-.95,4.83-2,9.67-2.82,14.53-.69,4.18-.56,8.3,1.68,12a19.24,19.24,0,0,0,8,7.12c7.43,3.65,16.7,3.24,24.68,2,7.1-1.09,14.28-4.13,17.2-11.18,1.86-4.51,2-9.71,2.21-14.52a132.53,132.53,0,0,0-.34-16.79,1.26,1.26,0,0,0-.92-1.2l-15.23-2.61L160,263.2l-5.65-1c-1.57-.27-2.25,2.14-.66,2.41L169,267.25l24.32,4.16,5.65,1-.92-1.21a131.87,131.87,0,0,1,.44,13.63,76,76,0,0,1-1,12.78,15.15,15.15,0,0,1-5,9.24,21.42,21.42,0,0,1-9,3.93A55.74,55.74,0,0,1,173,311.89a36.51,36.51,0,0,1-12.31-1.35,18.12,18.12,0,0,1-8.67-5.77,13.43,13.43,0,0,1-2.63-10.58c.65-5.05,1.9-10.07,2.88-15.06l3-15.36C155.56,262.2,153.15,261.52,152.84,263.1Z"/><path class="cls-3" d="M118.79,6.13A86.35,86.35,0,0,1,125,17.56c1.12,2.29,2.21,4.6,3.19,7a23.61,23.61,0,0,1,1.7,5c.28,1.58,2.69.91,2.41-.67a24.48,24.48,0,0,0-1.74-5.09c-1-2.42-2.12-4.81-3.27-7.17A88.54,88.54,0,0,0,121,4.86c-.91-1.31-3.08-.06-2.16,1.27Z"/><path class="cls-3" d="M132.92,1.19c1,9.23,1.79,18.47,2.78,27.69.17,1.58,2.67,1.6,2.5,0-1-9.22-1.79-18.46-2.78-27.69-.17-1.58-2.67-1.6-2.5,0Z"/><path class="cls-3" d="M144.52,28.21a12.94,12.94,0,0,1,.22-4.94,64.34,64.34,0,0,1,1.75-7.35c.71-2.43,1.52-4.83,2.46-7.18a19.87,19.87,0,0,1,2.34-4.59c1-1.29-1.21-2.54-2.16-1.26a22.48,22.48,0,0,0-2.59,5.19A78.16,78.16,0,0,0,144,15.55a63,63,0,0,0-1.76,7.57,14.65,14.65,0,0,0-.13,5.75,1.25,1.25,0,0,0,2.41-.66Z"/><path class="cls-2" d="M91.28,35.18l-.4-11.39a15.19,15.19,0,0,0-.43-3.71,5.4,5.4,0,0,0-3.76-3.94,7.63,7.63,0,0,0-4.64.82,7.6,7.6,0,0,0-4.88,5.33,15,15,0,0,0,0,4.87,81.15,81.15,0,0,0,1.48,8.91Z"/><path class="cls-2" d="M92.53,35.18c-.14-3.91-.26-7.82-.41-11.73-.12-3-.74-6.25-3.58-7.9s-6.25-.4-8.75,1.18A8.7,8.7,0,0,0,75.71,24a35.12,35.12,0,0,0,.54,6.14q.45,3.17,1.16,6.28a1.24,1.24,0,0,0,1.2.91l12.67-.89c1.6-.11,1.61-2.61,0-2.5l-12.67.89,1.21.92q-.66-2.93-1.1-5.9A31,31,0,0,1,78.21,24c.13-3.34,2.41-5.29,5.4-6.31,1.52-.51,3.1-.63,4.33.53a6.43,6.43,0,0,1,1.65,4.55c.23,4.13.3,8.28.44,12.42C90.09,36.79,92.59,36.79,92.53,35.18Z"/><path class="cls-4" d="M89.23,36.51l-.3-8.42a11.74,11.74,0,0,0-.31-2.74,3.91,3.91,0,0,0-2.7-2.91,5.33,5.33,0,0,0-3.33.6A5.53,5.53,0,0,0,79.09,27a11.73,11.73,0,0,0,0,3.6,59.56,59.56,0,0,0,1.08,6.59Z"/><path class="cls-4" d="M90.48,36.51c-.1-2.89-.19-5.78-.31-8.67-.09-2.34-.57-4.82-2.75-6.12s-4.74-.36-6.63.86a6.8,6.8,0,0,0-3.1,5.65,26.54,26.54,0,0,0,.41,4.62c.22,1.56.5,3.1.83,4.64a1.28,1.28,0,0,0,1.21.92l9.09-.65c1.6-.12,1.61-2.62,0-2.5l-9.09.65,1.2.91a35.18,35.18,0,0,1-1.15-8.59c.09-2.27,1.57-3.63,3.62-4.34a2.5,2.5,0,0,1,2.76.31,4.47,4.47,0,0,1,1.08,3.13c.17,3.05.22,6.12.33,9.18C88,38.11,90.54,38.12,90.48,36.51Z"/><path class="cls-2" d="M185,37.13l.41-11.39a15.63,15.63,0,0,1,.42-3.71,5.41,5.41,0,0,1,3.76-3.94,7.61,7.61,0,0,1,4.64.82c2,.88,4.22,2.33,4.89,5.33a15.28,15.28,0,0,1,0,4.87A79.23,79.23,0,0,1,197.62,38Z"/><path class="cls-2" d="M186.2,37.13c.15-4.14.22-8.29.45-12.42a6.42,6.42,0,0,1,1.64-4.55c1.24-1.16,2.82-1,4.33-.53,3,1,5.27,3,5.41,6.31a31.89,31.89,0,0,1-.51,5.85q-.44,3-1.1,5.9l1.2-.92L185,35.88c-1.6-.11-1.59,2.39,0,2.5l12.67.89a1.25,1.25,0,0,0,1.21-.92,66.89,66.89,0,0,0,1.68-11c.16-3.12-.67-6.09-3.21-8.06-2.25-1.76-5.82-3.27-8.65-2.23s-4.2,4-4.45,7c-.38,4.34-.34,8.76-.5,13.11C183.65,38.74,186.15,38.74,186.2,37.13Z"/><path class="cls-4" d="M187,38.46,187.3,30a12.3,12.3,0,0,1,.31-2.74,3.94,3.94,0,0,1,2.7-2.91,5.17,5.17,0,0,1,3.33.6,5.54,5.54,0,0,1,3.51,3.93,11.73,11.73,0,0,1,0,3.6,61.39,61.39,0,0,1-1.07,6.58Z"/><path class="cls-4" d="M188.26,38.46c.1-3.06.15-6.13.32-9.18a4.52,4.52,0,0,1,1.08-3.13,2.5,2.5,0,0,1,2.77-.31c2,.71,3.53,2.07,3.62,4.34a35.19,35.19,0,0,1-1.16,8.59l1.21-.92L187,37.21c-1.61-.12-1.6,2.38,0,2.5l9.09.64a1.24,1.24,0,0,0,1.2-.91,50.81,50.81,0,0,0,1.23-8.22,7.11,7.11,0,0,0-2.38-6.17c-1.71-1.38-4.4-2.54-6.57-1.74s-3.27,3.17-3.46,5.46c-.28,3.21-.25,6.47-.36,9.69C185.7,40.06,188.2,40.06,188.26,38.46Z"/><ellipse class="cls-5" cx="128.95" cy="231.08" rx="10.18" ry="11.61"/><circle class="cls-6" cx="86.43" cy="129.72" r="47.11"/><circle class="cls-7" cx="79.48" cy="138.42" r="30.68"/><circle class="cls-5" cx="79.48" cy="138.97" r="23.98"/><circle class="cls-6" cx="206.43" cy="132.78" r="47.11"/><circle class="cls-7" cx="198.43" cy="142.1" r="30.68"/><circle class="cls-5" cx="198.43" cy="142.65" r="23.98"/><path class="cls-3" d="M139.05,131.27a8.47,8.47,0,0,1,1.5-.69c-.19,0-.32.13-.05,0l.37-.14a7.58,7.58,0,0,1,.77-.24,7.84,7.84,0,0,1,.81-.18c-.23,0-.28,0,0,0h.4c.08,0,.29.06.36,0-.09,0-.52-.07-.14,0l1.35.18h.09c-.4,0,0,0,.07,0l.68.14a13.56,13.56,0,0,1,1.41.44l.14,0c-.32-.13.07,0,.13.06.22.1.43.21.64.33s.39.25.59.36-.32-.31-.12-.1l.29.26a2.5,2.5,0,0,0,3.53-3.54,12.74,12.74,0,0,0-7.26-3c-.07,0-.5-.06-.16,0s-.16,0-.23,0c-.43-.06-.85-.14-1.28-.16a8.89,8.89,0,0,0-2.41.29,22.51,22.51,0,0,0-4,1.61,2.5,2.5,0,0,0-.89,3.42,2.57,2.57,0,0,0,3.42.89Z"/><path class="cls-3" d="M267.13,130.57a169.07,169.07,0,0,1,18.5-14.6,2.56,2.56,0,0,0,.89-3.42,2.53,2.53,0,0,0-3.42-.9A177.49,177.49,0,0,0,263.6,127a2.5,2.5,0,1,0,3.53,3.53Z"/><path class="cls-3" d="M23.26,123a178.6,178.6,0,0,0-19.5-15.38,2.52,2.52,0,0,0-3.42.9,2.56,2.56,0,0,0,.89,3.42,169.07,169.07,0,0,1,18.5,14.6A2.5,2.5,0,0,0,23.26,123Z"/><rect class="cls-8" x="20.38" y="74.32" width="112.88" height="112.88" rx="16.66" transform="translate(3.75 -2.13) rotate(1.63)"/><g class="cls-9"><path class="cls-10" d="M63.84,138.12A311.56,311.56,0,0,1,91,110.45c2.4-2.15-1.15-5.68-3.54-3.53a310,310,0,0,0-27.19,27.66,2.55,2.55,0,0,0,0,3.54,2.52,2.52,0,0,0,3.53,0Z"/></g><g class="cls-9"><path class="cls-10" d="M76.8,150.18c.21-.28.43-.56.64-.85l.27-.34.2-.26.21-.27.27-.35.63-.79c.9-1.13,1.81-2.24,2.75-3.32a59,59,0,0,1,5.74-5.88,2.52,2.52,0,0,0,0-3.54,2.57,2.57,0,0,0-3.54,0,86.21,86.21,0,0,0-11.49,13.08,2.51,2.51,0,0,0,.9,3.42,2.57,2.57,0,0,0,3.42-.9Z"/></g><rect class="cls-8" x="151.2" y="77.06" width="112.88" height="112.88" rx="16.66" transform="translate(3.88 -5.85) rotate(1.63)"/><g class="cls-9"><path class="cls-10" d="M194.66,140.85a308.74,308.74,0,0,1,27.2-27.66c2.39-2.16-1.15-5.68-3.54-3.54a311.56,311.56,0,0,0-27.2,27.67,2.56,2.56,0,0,0,0,3.53,2.52,2.52,0,0,0,3.54,0Z"/></g><g class="cls-9"><path class="cls-10" d="M207.62,152.92c.21-.29.42-.57.64-.85l.26-.34.21-.27.21-.27.27-.35.63-.79q1.33-1.68,2.75-3.32a60.12,60.12,0,0,1,5.74-5.88,2.51,2.51,0,0,0,0-3.53,2.55,2.55,0,0,0-3.54,0,84.58,84.58,0,0,0-11.49,13.07,2.51,2.51,0,0,0,.9,3.42,2.57,2.57,0,0,0,3.42-.89Z"/></g><polygon class="cls-11" points="183.51 296.15 61.77 304.64 51.01 163.01 172.76 154.52 183.51 296.15"/><path class="cls-12" d="M71.53,195.69c5.55,1.41,11.13.26,16.6-.95a141.16,141.16,0,0,1,16.22-2.61c11.25-1.15,22.58-1.27,33.87-1.58l19.46-.53c3.21-.09,3.22-5.09,0-5-11.41.31-22.81.57-34.22.95-11,.36-22.08,1-32.92,3.16-5.76,1.13-11.81,3.23-17.68,1.74-3.12-.79-4.45,4-1.33,4.82Z"/><path class="cls-12" d="M74.42,230.43c5.45-1.94,11.29-.77,16.88-.23a37.55,37.55,0,0,0,9,0,28.53,28.53,0,0,0,8.41-2.94,19.92,19.92,0,0,1,8.19-2c3.14-.13,6.29-.22,9.21-1.51,2.22-1,4.25-3.1,6.71-3.46a9,9,0,0,1,4.26.93c1.57.58,3.15,1.13,4.77,1.57a51.44,51.44,0,0,0,22.15,1,2.51,2.51,0,0,0,1.74-3.07,2.56,2.56,0,0,0-3.07-1.75,45.3,45.3,0,0,1-18.83-.81c-3.22-.83-6.33-2.5-9.65-2.83-3.11-.31-5.68,1.25-8.21,2.81a14.77,14.77,0,0,1-7.79,2.09,27.32,27.32,0,0,0-9.07,1.42c-2.75,1.09-5.28,2.7-8.18,3.39a26.47,26.47,0,0,1-8.19.34c-6.54-.51-13.26-2-19.65.28a2.55,2.55,0,0,0-1.75,3.07,2.52,2.52,0,0,0,3.08,1.75Z"/><path class="cls-12" d="M79.19,262.83c5.74.19,11.23,2.42,16.93,3.07a56.92,56.92,0,0,0,16.88-.81,93.36,93.36,0,0,0,16.53-4.89c2.64-1,5.26-2.13,7.84-3.29s5.1-2.52,7.78-3.4a11.37,11.37,0,0,1,8.23.45c2.77,1.08,5.35,2.27,8.36,2.53a2.52,2.52,0,0,0,2.5-2.5,2.55,2.55,0,0,0-2.5-2.5c-2.46-.22-4.76-1.47-7-2.35a15.49,15.49,0,0,0-7.92-1.13,29.14,29.14,0,0,0-8.19,2.87c-2.52,1.17-5,2.32-7.6,3.38-10.38,4.29-21.5,7.63-32.85,6.83-6.43-.45-12.5-3-19-3.26-3.22-.11-3.21,4.89,0,5Z"/><path class="cls-2" d="M211.18,245l-26.36,7.22a37.44,37.44,0,0,1-8.8,1.68c-5.49.13-9.78-2.46-11.7-5.79s-1.87-7.3-1.45-11.2c.56-5.26,2.33-11.32,8.71-15,3.28-1.9,7.27-2.83,11.12-3.59a191.36,191.36,0,0,1,21.46-3Z"/><path class="cls-2" d="M210.85,243.83l-23.48,6.44c-6.39,1.75-14.28,4.55-20-.41-2.52-2.18-3.42-5.34-3.49-8.59a30.34,30.34,0,0,1,1-8.58,16.1,16.1,0,0,1,3.88-7,19.82,19.82,0,0,1,9.09-4.91,108.06,108.06,0,0,1,12.46-2.47q6.89-1.08,13.81-1.63l-1.2-.92,6.14,25.93.88,3.71c.37,1.57,2.78.9,2.41-.66l-6.14-25.93-.88-3.71a1.25,1.25,0,0,0-1.21-.92A161,161,0,0,0,178.5,218a25.4,25.4,0,0,0-10.1,4.64,17.82,17.82,0,0,0-5.29,7.54,30.23,30.23,0,0,0-1.68,8.94c-.21,3.56.17,7.42,2.29,10.42a13.53,13.53,0,0,0,7.27,5c3.76,1.1,7.66.58,11.39-.35,9.76-2.41,19.43-5.3,29.14-8A1.25,1.25,0,0,0,210.85,243.83Z"/><path class="cls-2" d="M41.57,239.81,62,246.56a23.86,23.86,0,0,0,6.89,1.55,11.36,11.36,0,0,0,9.93-5.65c1.87-3.22,2.22-7,2.27-10.79.07-5-.74-10.86-5.48-14.35C73.12,215.52,70,214.66,67,214a122,122,0,0,0-16.88-2.69Z"/><path class="cls-2" d="M41.24,241c7.24,2.4,14.46,4.9,21.74,7.19,3,.95,6.12,1.57,9.23.73a12.68,12.68,0,0,0,6.69-4.46c3.54-4.54,3.84-11.35,3.21-16.86-.65-5.71-3.37-10.63-8.81-13a50.41,50.41,0,0,0-10.76-2.87q-6.16-1.17-12.41-1.72a1.26,1.26,0,0,0-1.21.91l-7.49,25-1.06,3.56a1.25,1.25,0,0,0,2.41.67l7.49-25,1.06-3.56-1.2.92a102.69,102.69,0,0,1,19.22,3.33,14.57,14.57,0,0,1,7.23,4.1,13.33,13.33,0,0,1,2.82,6.3,30.65,30.65,0,0,1,.34,7.16,18.17,18.17,0,0,1-2,8.41,10.25,10.25,0,0,1-5.43,4.5c-2.89,1-5.78.37-8.62-.52-7.27-2.3-14.49-4.79-21.73-7.19C40.37,238.1,39.72,240.51,41.24,241Z"/></g></g></svg>