<svg xmlns="http://www.w3.org/2000/svg" xmlns:xlink="http://www.w3.org/1999/xlink" viewBox="0 0 390.32 316.34"><defs><style>.cls-1,.cls-3{fill:#1b191d;}.cls-2{fill:#150e1d;}.cls-3{stroke:#150e1d;}.cls-10,.cls-13,.cls-14,.cls-15,.cls-3{stroke-miterlimit:10;}.cls-4{fill:#faaf40;}.cls-5{fill:url(#radial-gradient);}.cls-6{fill:#bcdff5;}.cls-7{fill:#231f20;}.cls-8{fill:#00729e;}.cls-9{fill:#4f9bc1;}.cls-10{fill:#9cd9e5;fill-opacity:0.43;stroke:#231f20;stroke-width:8px;}.cls-11{opacity:0.75;}.cls-12{fill:#bde4ed;}.cls-13{fill:#ef7a20;stroke:#ef7a20;}.cls-14{stroke:#000;}.cls-15{fill:none;stroke:#6ab2ce;}.cls-16{fill:#be1e2d;}.cls-17{fill:#ac1f29;}</style><radialGradient id="radial-gradient" cx="275.18" cy="-567.24" r="136.45" gradientTransform="matrix(0.72, 0.76, -0.69, 0.65, -414.43, 310.09)" gradientUnits="userSpaceOnUse"><stop offset="0" stop-color="#a7dbda"/><stop offset="0.78" stop-color="#bcdff5"/></radialGradient></defs><g id="Layer_2" data-name="Layer 2"><g id="Layer_1-2" data-name="Layer 1"><path class="cls-1" d="M253.21,231.54a87.62,87.62,0,0,0-12.13,31l-.09.3c8.18,8.06,17.05,15.75,27.64,20.19s22.34,5.38,33.85,5.74c5.49.18,11.06.23,16.39-1.12a62.62,62.62,0,0,0,11-4.3c6.78-3.2,13.75-6.68,18.37-12.58l.39.1a312.14,312.14,0,0,0-4.29-45.76"/><path class="cls-2" d="M251.05,230.28A91,91,0,0,0,243.17,246q-1.56,4-2.72,8.16c-.74,2.65-1.12,5.4-1.87,8a2.51,2.51,0,0,0,.65,2.43,120.48,120.48,0,0,0,18,15.08A63.93,63.93,0,0,0,279.42,289a136.46,136.46,0,0,0,24.71,2.38,65.16,65.16,0,0,0,12.87-.72,50.15,50.15,0,0,0,12.06-4.13c7.59-3.49,15.62-7.25,20.94-13.93l-2.43.64.39.11a2.52,2.52,0,0,0,3.16-2.42,319.83,319.83,0,0,0-4.38-46.42,2.52,2.52,0,0,0-3.07-1.75,2.57,2.57,0,0,0-1.75,3.08,311.26,311.26,0,0,1,4.2,45.09l3.17-2.41-.39-.1a2.47,2.47,0,0,0-2.44.64c-4.43,5.58-10.8,8.84-17.12,11.84a63.7,63.7,0,0,1-10.7,4.28A44.54,44.54,0,0,1,307,286.39c-15.42,0-31.41-1.34-44.88-9.49-7.16-4.33-13.38-9.95-19.32-15.8l.64,2.44c.71-2.5,1.07-5.1,1.76-7.61.75-2.77,1.65-5.5,2.67-8.18a86.15,86.15,0,0,1,7.53-14.95c1.72-2.73-2.6-5.24-4.31-2.52Z"/><polygon class="cls-3" points="298.29 253.88 219.78 213.04 294.93 185.15 383.33 223.85 298.29 253.88"/><path class="cls-4" d="M298.88,217.37c16.71-1.65,33.25,2.83,48.4,9.62a192.34,192.34,0,0,1,18.58,9.52c4.17,2.44,10.22,6.18,9.34,11.81-1.56,9.93-.18,19.87,1.2,29.73.22,1.59,2.63.91,2.41-.66-1.29-9.21-2.68-18.65-1.28-27.92.44-2.91.2-5.36-1.56-7.82a23.68,23.68,0,0,0-6.44-5.81c-2.32-1.53-4.78-2.83-7.23-4.14-3.58-1.91-7.18-3.8-10.86-5.53a132.71,132.71,0,0,0-24.17-8.9,83.1,83.1,0,0,0-28.39-2.4c-1.59.15-1.6,2.65,0,2.5Z"/><path class="cls-4" d="M375.91,245.83c4.47,2.48,7,7.17,8.65,11.81a54.22,54.22,0,0,1,3.26,17.74,1.25,1.25,0,0,0,2.5,0,56.25,56.25,0,0,0-3.66-19.24c-1.9-5-4.71-9.82-9.48-12.47-1.41-.78-2.67,1.38-1.27,2.16Z"/><path class="cls-4" d="M376.38,247.28a169.19,169.19,0,0,1,6,27.7c.2,1.58,2.7,1.6,2.5,0a173.06,173.06,0,0,0-6.06-28.37c-.47-1.53-2.89-.88-2.41.67Z"/><path class="cls-4" d="M377.37,249c-1.54,8.56-2.92,18.94,4.23,25.51,1.18,1.08,2.95-.68,1.76-1.77-6.42-5.91-4.95-15.41-3.58-23.07.28-1.58-2.12-2.25-2.41-.67Z"/><path class="cls-4" d="M378.31,249.94c5.57,6.49,10.38,15.62,6.62,24.21-.64,1.46,1.52,2.73,2.16,1.26,4.26-9.75-.61-19.77-7-27.24-1.05-1.22-2.81.55-1.77,1.77Z"/><path class="cls-4" d="M379.43,254.22a30.08,30.08,0,0,0,5.5,13.2,1.29,1.29,0,0,0,1.71.45,1.27,1.27,0,0,0,.45-1.71,28.44,28.44,0,0,1-5.25-12.61,1.26,1.26,0,0,0-1.54-.87,1.29,1.29,0,0,0-.87,1.54Z"/><path class="cls-5" d="M273.8,239.84c-56.2,53.53-140.85,59.92-199.8-2S28.88,95.25,85.09,41.72,209.22-9,268.18,52.9,330,186.3,273.8,239.84Z"/><path class="cls-6" d="M41.17,163.76l-26.11,8.1c-2.88.89-5.83,1.82-8.21,3.67-4.5,3.48-6.17,9.72-5.43,15.36s3.49,10.8,6.5,15.63c4.05,6.5,9.61,13.26,17.25,13.83,3.93.29,7.77-1.15,11.39-2.72a132,132,0,0,0,19.26-10.4Z"/><path class="cls-6" d="M40.84,162.56c-9.45,2.93-19,5.64-28.38,8.82-3.84,1.3-7.31,3.2-9.59,6.67A18.77,18.77,0,0,0,0,188.34c0,8.24,4.72,16.28,9.48,22.72,4.49,6.08,10.79,11.46,18.85,10.43,5-.63,9.69-3.05,14.15-5.23a134.76,134.76,0,0,0,14-8,1.27,1.27,0,0,0,.57-1.41l-4.93-14.64-7.88-23.39-1.83-5.43c-.51-1.51-2.93-.86-2.41.67l4.93,14.64,7.88,23.39,1.83,5.43.58-1.41c-3.65,2.37-7.41,4.58-11.27,6.58A83.49,83.49,0,0,1,32.18,218c-3.71,1.24-7.58,1.61-11.24,0a22.55,22.55,0,0,1-8-6.51,59.42,59.42,0,0,1-6.1-9.2A33.1,33.1,0,0,1,2.68,191a17.47,17.47,0,0,1,1.46-10.13c1.71-3.44,4.62-5.49,8.17-6.78,4.67-1.69,9.5-3,14.24-4.47l15-4.64C43,164.5,42.38,162.08,40.84,162.56Z"/><path class="cls-6" d="M98.53,231l-23,14.69c-2.55,1.62-5.15,3.29-7,5.7-3.43,4.54-3.39,11-1.2,16.25s6.22,9.5,10.39,13.37c5.62,5.2,12.77,10.25,20.29,8.79,3.87-.75,7.2-3.15,10.27-5.62a130.76,130.76,0,0,0,15.84-15.11Z"/><path class="cls-6" d="M97.9,229.93c-8.26,5.26-16.64,10.38-24.79,15.81-3.27,2.18-6.11,4.75-7.54,8.51a18.46,18.46,0,0,0-.28,11.34c2.16,7.8,8.62,14.17,14.75,19.1a30.32,30.32,0,0,0,10.8,6,16.42,16.42,0,0,0,11.55-1.07c4.33-2.07,8.08-5.52,11.64-8.68a132,132,0,0,0,11-11,1.29,1.29,0,0,0,.2-1.51l-8.62-12.83-13.76-20.48-3.2-4.76c-.89-1.33-3.06-.08-2.16,1.26l8.62,12.83L119.83,265l3.2,4.76.19-1.51a113.81,113.81,0,0,1-18.11,16.85c-3.2,2.3-6.74,4-10.77,3.73-3.79-.25-7.32-2.11-10.38-4.25a59.49,59.49,0,0,1-8.8-7.75,32.29,32.29,0,0,1-6.59-9.38,17.39,17.39,0,0,1-1.19-10.48c.85-3.83,3.31-6.51,6.48-8.67,4-2.75,8.2-5.27,12.31-7.88l13-8.28C100.51,231.23,99.26,229.06,97.9,229.93Z"/><path class="cls-7" d="M260.52,28a87.88,87.88,0,0,1-4,12.37c-.89,2.4-1.81,4.78-2.84,7.11a23.8,23.8,0,0,1-2.43,4.67c-.95,1.29,1.22,2.54,2.16,1.26a24.63,24.63,0,0,0,2.48-4.78c1.05-2.41,2-4.85,2.93-7.31a88.08,88.08,0,0,0,4.11-12.65c.33-1.57-2.08-2.24-2.41-.67Z"/><path class="cls-7" d="M273.82,34.86c-5,5.88-10.06,11.69-15.09,17.54L255.68,56c-1,1.22.73,3,1.77,1.77,5-5.89,10.06-11.7,15.08-17.55,1-1.19,2-2.37,3.05-3.56s-.72-3-1.76-1.77Z"/><path class="cls-7" d="M262.29,61.86A13.23,13.23,0,0,1,266,58.65a65.39,65.39,0,0,1,6.47-3.78,74.45,74.45,0,0,1,6.79-3.14,24,24,0,0,1,4.85-1.52c1.58-.19,1.6-2.69,0-2.5a22.06,22.06,0,0,0-5.51,1.61,80.74,80.74,0,0,0-7.39,3.39,63,63,0,0,0-6.86,4,14.24,14.24,0,0,0-4.19,3.84c-.86,1.36,1.3,2.62,2.16,1.26Z"/><path class="cls-6" d="M54,102.77l-27.25,2.15a37.79,37.79,0,0,0-8.85,1.41c-5.21,1.74-8.36,5.64-9,9.42s.72,7.51,2.44,11c2.31,4.76,6,9.86,13.28,11.16,3.73.66,7.8.18,11.68-.41a192.13,192.13,0,0,0,21.2-4.5Z"/><path class="cls-6" d="M54,101.52l-26.76,2.11c-3.89.31-7.87.58-11.47,2.21A14.71,14.71,0,0,0,8.92,112c-3.36,6.15-.2,13.77,3.45,19.09a19.34,19.34,0,0,0,6.34,6,20.3,20.3,0,0,0,10.51,2.36,85.87,85.87,0,0,0,14.09-1.92q7.32-1.38,14.51-3.34a1.26,1.26,0,0,0,.92-1.21l-3-26.47-.43-3.79c-.18-1.58-2.69-1.6-2.5,0l3,26.47.44,3.79.92-1.2A177,177,0,0,1,34,136.61c-3.75.49-7.65.73-11.29-.45a15.19,15.19,0,0,1-6.78-4.56,27.39,27.39,0,0,1-4.27-7.15c-1.36-3.14-2.32-6.75-1-10.07,2.53-6.6,10.05-7.72,16.21-8.21L54,104C55.62,103.89,55.63,101.39,54,101.52Z"/><path class="cls-6" d="M210.38,272l-5.68,26.74a37.46,37.46,0,0,1-2.55,8.59c-2.4,4.94-6.67,7.55-10.51,7.73s-7.35-1.69-10.62-3.85c-4.42-2.91-9-7.26-9.33-14.62-.18-3.79.83-7.76,1.92-11.53a191.42,191.42,0,0,1,7.22-20.43Z"/><path class="cls-6" d="M209.18,271.7,204,296c-1.34,6.35-2.5,14.14-9.2,17.07-5.71,2.5-12.27-1.63-16.42-5.41a16.29,16.29,0,0,1-4.75-7.09,20.29,20.29,0,0,1,0-10.55A148.47,148.47,0,0,1,182,265l-1.53.88,25.85,6.44,3.7.92c1.56.39,2.23-2,.67-2.41l-25.86-6.44-3.7-.93a1.31,1.31,0,0,0-1.54.88,159.85,159.85,0,0,0-8.2,24.1,25.09,25.09,0,0,0-.49,11.71,18,18,0,0,0,4.52,8.14,31,31,0,0,0,7.53,5.63c3.1,1.73,6.59,2.88,10.15,2.26a13.49,13.49,0,0,0,7.55-4.38c2.52-2.84,3.78-6.39,4.64-10,2.3-9.74,4.19-19.61,6.27-29.4C211.92,270.79,209.51,270.12,209.18,271.7Z"/><path class="cls-6" d="M220.51,28.13l8-8.14a15.7,15.7,0,0,0,2.39-2.87,5.4,5.4,0,0,0,.26-5.44,7.55,7.55,0,0,0-3.79-2.8,7.61,7.61,0,0,0-7.23.14,15.36,15.36,0,0,0-3.56,3.33,79.64,79.64,0,0,0-5.42,7.23Z"/><path class="cls-6" d="M221.39,29q4-4.08,8-8.15c2.24-2.29,4.37-5.11,3.41-8.51C232,9.51,229,8,226.34,7.19a8.81,8.81,0,0,0-8.75,2.21,53.13,53.13,0,0,0-7.54,9.54,1.26,1.26,0,0,0,.19,1.52L219.63,29c1.18,1.08,3-.68,1.76-1.77L212,18.69l.2,1.52a50.07,50.07,0,0,1,7.15-9A6.26,6.26,0,0,1,224,9.29a10,10,0,0,1,4.27,1.4,3.82,3.82,0,0,1,2.28,3.48c-.06,1.81-1.24,3.2-2.42,4.44-2.79,2.91-5.64,5.76-8.45,8.64C218.5,28.4,220.27,30.17,221.39,29Z"/><path class="cls-8" d="M218.14,27.56l5.88-6a11.79,11.79,0,0,0,1.78-2.11,4,4,0,0,0,.24-4,5.25,5.25,0,0,0-2.73-2,5.51,5.51,0,0,0-5.26.17,11.37,11.37,0,0,0-2.63,2.47,60,60,0,0,0-4,5.32Z"/><path class="cls-8" d="M219,28.45l5.89-6c1.72-1.77,3.35-3.94,2.64-6.56-.59-2.19-2.85-3.37-4.87-3.95A6.89,6.89,0,0,0,216,13.69a40.36,40.36,0,0,0-5.64,7.11,1.24,1.24,0,0,0,.19,1.51l6.74,6.14c1.19,1.08,3-.69,1.77-1.77l-6.74-6.14.19,1.52a37.66,37.66,0,0,1,5.26-6.6,4.29,4.29,0,0,1,3.12-1.32,6.55,6.55,0,0,1,2.92.92,2.32,2.32,0,0,1,1.44,2.21,5,5,0,0,1-1.72,3c-2.05,2.15-4.16,4.26-6.24,6.39C216.13,27.83,217.89,29.6,219,28.45Z"/><path class="cls-6" d="M283.71,97.3l8.52-7.56a15.45,15.45,0,0,1,3-2.25,5.38,5.38,0,0,1,5.45,0,7.66,7.66,0,0,1,2.61,3.93,7.61,7.61,0,0,1-.49,7.21,15.25,15.25,0,0,1-3.5,3.39,81.27,81.27,0,0,1-7.48,5.07Z"/><path class="cls-6" d="M284.59,98.19c3-2.68,6-5.38,9-8,1.29-1.13,2.76-2.23,4.57-2.16a4,4,0,0,1,3.4,2.63,9.48,9.48,0,0,1,1.09,4.51,6.51,6.51,0,0,1-2.27,4.3,52.31,52.31,0,0,1-9.25,6.56l1.51.2-8.09-9.79c-1-1.24-2.78.53-1.77,1.77l8.1,9.78a1.24,1.24,0,0,0,1.51.2,74.22,74.22,0,0,0,8.64-6c2.55-2.07,4.44-4.82,4.08-8.26-.3-2.75-1.57-6.21-4.09-7.66-3-1.74-6.38-.25-8.8,1.79-3.21,2.7-6.3,5.57-9.44,8.36C281.62,97.49,283.39,99.25,284.59,98.19Z"/><path class="cls-8" d="M284.16,99.7l6.3-5.59a12.89,12.89,0,0,1,2.2-1.67,4,4,0,0,1,4,0,5.28,5.28,0,0,1,1.86,2.83,5.52,5.52,0,0,1-.43,5.25,11.63,11.63,0,0,1-2.59,2.5,60.9,60.9,0,0,1-5.51,3.76Z"/><path class="cls-8" d="M285.05,100.59c2.22-2,4.43-4,6.68-5.93a4.8,4.8,0,0,1,3.11-1.53,2.44,2.44,0,0,1,2.16,1.7,6.4,6.4,0,0,1,.7,3.09,4.63,4.63,0,0,1-1.61,2.92,39.66,39.66,0,0,1-6.76,4.81l1.52.2-5.8-7a1.26,1.26,0,0,0-1.77,0,1.28,1.28,0,0,0,0,1.77l5.8,7a1.27,1.27,0,0,0,1.52.19,56.86,56.86,0,0,0,6.43-4.48c1.93-1.58,3.39-3.69,3.15-6.29-.2-2.1-1.14-4.74-3.08-5.83-2.38-1.33-5-.16-6.85,1.43-2.37,2-4.65,4.12-7,6.18C282.07,99.89,283.85,101.65,285.05,100.59Z"/><path class="cls-9" d="M120.59,66.46c8.39-2.52,16.32,3.16,22,8.69,6,5.85,12.23,12.47,15.29,20.43a24.48,24.48,0,0,1,1.48,14.06c-.51,2.35,3.1,3.36,3.62,1,2.1-9.53-1.77-19-7.42-26.61a98.27,98.27,0,0,0-9.53-10.76,44.08,44.08,0,0,0-11.27-8.6c-4.69-2.3-10.1-3.36-15.19-1.83-2.31.7-1.33,4.32,1,3.62Z"/><path class="cls-9" d="M206.69,156.08c8.39-2.52,16.32,3.16,22,8.69,6,5.84,12.23,12.46,15.29,20.43a24.46,24.46,0,0,1,1.48,14.06c-.52,2.35,3.1,3.36,3.62,1,2.1-9.53-1.77-19-7.42-26.61a97.35,97.35,0,0,0-9.53-10.76,43.85,43.85,0,0,0-11.27-8.6c-4.69-2.3-10.1-3.36-15.2-1.83-2.3.69-1.32,4.32,1,3.62Z"/><path class="cls-7" d="M170.59,133.42l.66.5c.28.22-.34-.27-.07-.06l.34.28a13.3,13.3,0,0,1,1.11,1l.3.34c.23.25,0,0,0-.07.18.07.37.55.46.72s.21.43.05.08,0,.08,0,.17l.27.76a11.47,11.47,0,0,1,.43,1.29c.06.25.12.5.17.75l.06.35c.07.38,0,.19,0-.06-.06.46.09,1,.08,1.48,0,.24-.05.5,0,.74,0-.21.1-.52,0-.14l-.09.35a2.5,2.5,0,1,0,4.82,1.33,12.63,12.63,0,0,0-.67-7.6,17.73,17.73,0,0,0-.81-2,9.09,9.09,0,0,0-1.39-1.87,22.38,22.38,0,0,0-3.17-2.65,2.46,2.46,0,0,0-1.93-.25,2.54,2.54,0,0,0-1.49,1.14,2.52,2.52,0,0,0-.25,1.93,2.94,2.94,0,0,0,1.15,1.5Z"/><path class="cls-7" d="M230.81,246.46a168.81,168.81,0,0,1,21.51,9.59c2.84,1.51,5.37-2.8,2.52-4.32a179,179,0,0,0-22.7-10.09,2.52,2.52,0,0,0-3.08,1.74,2.56,2.56,0,0,0,1.75,3.08Z"/><path class="cls-7" d="M124,27A179.23,179.23,0,0,0,128.54,2.5,2.52,2.52,0,0,0,126,0a2.55,2.55,0,0,0-2.5,2.5,169.83,169.83,0,0,1-4.35,23.13c-.8,3.11,4,4.44,4.83,1.32Z"/><rect class="cls-10" x="85.59" y="21.62" width="112.88" height="112.88" rx="16.66" transform="translate(149.66 -83.83) rotate(63.91)"/><g class="cls-11"><path class="cls-12" d="M129.56,70A312.44,312.44,0,0,1,166.7,81.22,2.5,2.5,0,1,0,168,76.4a310.6,310.6,0,0,0-37.14-11.21c-3.13-.73-4.47,4.09-1.33,4.82Z"/></g><g class="cls-11"><path class="cls-12" d="M124.28,87a82.77,82.77,0,0,1,16.29,4,2.51,2.51,0,0,0,3.08-1.74,2.59,2.59,0,0,0-1.75-3.08,83.6,83.6,0,0,0-16.3-4A2.5,2.5,0,0,0,124.28,87Z"/></g><rect class="cls-10" x="144.03" y="138.69" width="112.88" height="112.88" rx="16.66" transform="translate(287.53 -70.73) rotate(63.91)"/><g class="cls-11"><path class="cls-12" d="M188,187.09a311.84,311.84,0,0,1,37.14,11.2,2.52,2.52,0,0,0,3.08-1.75,2.56,2.56,0,0,0-1.75-3.07,311.88,311.88,0,0,0-37.14-11.21c-3.13-.73-4.46,4.09-1.33,4.83Z"/></g><g class="cls-11"><path class="cls-12" d="M182.71,204.06A81.93,81.93,0,0,1,199,208a2.51,2.51,0,0,0,3.08-1.75,2.57,2.57,0,0,0-1.75-3.07,82.1,82.1,0,0,0-16.29-4A2.57,2.57,0,0,0,181,201a2.54,2.54,0,0,0,1.75,3.08Z"/></g><path class="cls-13" d="M172.48,246.58v.15a.15.15,0,0,1-.1.15,5.56,5.56,0,0,1-1.24.49,12,12,0,0,1-1.45.23,2.42,2.42,0,0,1-.73.15,1,1,0,0,1-.36-.05c-.06,0-.15-.12-.26-.32a1,1,0,0,0-.12-.34.68.68,0,0,1-.12-.28c-.07-.26-.11-.44-.13-.54v-.17a.89.89,0,0,1,.26-.45l.06-.1a1.59,1.59,0,0,1,.28-.32l.59-.5a.61.61,0,0,1,.17-.14l.31-.24.44-.27a3.58,3.58,0,0,0,.38-.29l0,0s0-.08-.11-.08h-.29a5.08,5.08,0,0,1-1.15-.06.84.84,0,0,1-.3-.44s0-.06-.08-.12a.41.41,0,0,1-.09-.3c0-.1.1-.2.26-.29l.24-.09a3.06,3.06,0,0,1,.51-.11h.26a4.94,4.94,0,0,1,.68.08,3.54,3.54,0,0,1,.73.15h.2a.68.68,0,0,1,.43.21,2.79,2.79,0,0,1,.29.6,2,2,0,0,1,.16.58.34.34,0,0,1-.09.14l-.14.11a.47.47,0,0,1-.18.13,1.28,1.28,0,0,0-.37.23,5.69,5.69,0,0,0-.45.35,6.93,6.93,0,0,0-.78.54,3.26,3.26,0,0,0-.59.53,1.23,1.23,0,0,0-.22.27.5.5,0,0,0-.11.27c0,.08,0,.12.06.13a1.77,1.77,0,0,0,.82,0,.65.65,0,0,1,.35-.08,4.47,4.47,0,0,0,.7-.1,1.93,1.93,0,0,1,.4-.06,2.91,2.91,0,0,1,.5,0,.18.18,0,0,1,.11.05.27.27,0,0,0,.1.06A.52.52,0,0,1,172.48,246.58Z"/><path class="cls-13" d="M196.78,225.37v.29a.29.29,0,0,1-.19.24,9.76,9.76,0,0,1-2.19.69,20.66,20.66,0,0,1-2.51.18,3.41,3.41,0,0,1-1.26.14,1.8,1.8,0,0,1-.62-.14c-.09,0-.22-.23-.39-.62a1.86,1.86,0,0,0-.14-.63,1.29,1.29,0,0,1-.15-.52c-.07-.49-.12-.82-.13-1l0-.3a1.54,1.54,0,0,1,.51-.78.83.83,0,0,0,.12-.17,2.36,2.36,0,0,1,.53-.53l1.09-.8a.74.74,0,0,1,.31-.23l.57-.38.79-.42a6.41,6.41,0,0,0,.7-.47l.05-.07c0-.08,0-.13-.17-.14l-.49-.05a10.86,10.86,0,0,1-2-.29,1.55,1.55,0,0,1-.42-.85,1.28,1.28,0,0,0-.14-.22,1.09,1.09,0,0,1-.09-.57c0-.17.21-.33.5-.47l.43-.13a3.74,3.74,0,0,1,.87-.11,2.58,2.58,0,0,0,.43,0h0a11.34,11.34,0,0,1,1.14.25,4.87,4.87,0,0,1,1.21.39l.14,0a.65.65,0,0,0,.2,0,1.09,1.09,0,0,1,.69.45,4.9,4.9,0,0,1,.39,1.13,3.84,3.84,0,0,1,.17,1.06.62.62,0,0,1-.17.25l-.26.17a.63.63,0,0,1-.33.19,2.56,2.56,0,0,0-.67.36c-.37.24-.65.43-.83.57a16.21,16.21,0,0,0-1.4.84,5.68,5.68,0,0,0-1.1.87,2.15,2.15,0,0,0-.42.43,1,1,0,0,0-.23.48c0,.15,0,.23.08.25a2.75,2.75,0,0,0,1.4,0,1.16,1.16,0,0,1,.6-.09,6.86,6.86,0,0,0,1.21-.06,3.22,3.22,0,0,1,.7-.05,6.65,6.65,0,0,1,.85,0,.48.48,0,0,1,.17.12.44.44,0,0,0,.17.12A1.16,1.16,0,0,1,196.78,225.37Z"/><path class="cls-13" d="M233.78,235.84l0,.34a.33.33,0,0,1-.21.31,12.34,12.34,0,0,1-2.67,1.1,29.09,29.09,0,0,1-3.13.52,4.54,4.54,0,0,1-1.57.33,2.77,2.77,0,0,1-.79-.09c-.12,0-.31-.25-.57-.7a2.32,2.32,0,0,0-.26-.72,1.56,1.56,0,0,1-.26-.6c-.16-.57-.25-1-.29-1.16v-.36a1.87,1.87,0,0,1,.54-1,.43.43,0,0,0,.13-.22,4.26,4.26,0,0,1,.6-.69l1.26-1.09a1.23,1.23,0,0,1,.36-.31,8.26,8.26,0,0,0,.68-.52l.93-.6c.53-.4.81-.61.83-.64l.05-.09q0-.15-.24-.15h-.62a13.72,13.72,0,0,1-2.49-.1,1.86,1.86,0,0,1-.65-.95,1.18,1.18,0,0,0-.19-.25,1.14,1.14,0,0,1-.2-.66c0-.21.23-.41.57-.62l.52-.21a5.24,5.24,0,0,1,1.09-.24,4.87,4.87,0,0,0,.54,0h0a10.49,10.49,0,0,1,1.46.15,7.73,7.73,0,0,1,1.57.3l.18,0a1.14,1.14,0,0,0,.26,0,1.39,1.39,0,0,1,.93.44,5.75,5.75,0,0,1,.64,1.3,4,4,0,0,1,.35,1.24.65.65,0,0,1-.18.31l-.31.23a.84.84,0,0,1-.38.28,3.38,3.38,0,0,0-.79.5,12.17,12.17,0,0,0-1,.78,17.49,17.49,0,0,0-1.66,1.17,7.82,7.82,0,0,0-1.26,1.17,2.69,2.69,0,0,0-.48.57,1.14,1.14,0,0,0-.22.6c0,.17,0,.27.13.28a3.81,3.81,0,0,0,1.76-.13,1.49,1.49,0,0,1,.75-.18,9.71,9.71,0,0,0,1.52-.23,4,4,0,0,1,.86-.14,6.85,6.85,0,0,1,1.08-.08.61.61,0,0,1,.23.11.54.54,0,0,0,.22.12A1.28,1.28,0,0,1,233.78,235.84Z"/><path class="cls-13" d="M283.2,204.24l.08.56a.55.55,0,0,1-.31.53,20.07,20.07,0,0,1-4.3,2.06,46.79,46.79,0,0,1-5.12,1.16,8,8,0,0,1-2.56.69,4.66,4.66,0,0,1-1.31-.07c-.2,0-.54-.39-1-1.1a3.81,3.81,0,0,0-.5-1.18,2.4,2.4,0,0,1-.49-.95c-.31-.93-.5-1.56-.58-1.9l0-.6a3.17,3.17,0,0,1,.8-1.68.87.87,0,0,0,.2-.37,5.38,5.38,0,0,1,.91-1.2l2-1.92a1.75,1.75,0,0,1,.57-.54c.14-.1.49-.41,1.06-.93l1.48-1.07c.85-.71,1.28-1.08,1.31-1.13l.08-.15c0-.18-.09-.26-.4-.24l-1,.06a21.24,21.24,0,0,1-4.12.07,3,3,0,0,1-1.16-1.51,2.84,2.84,0,0,0-.34-.39,1.82,1.82,0,0,1-.39-1.07c0-.35.33-.71.88-1.08l.84-.4a10.5,10.5,0,0,1,1.77-.49,6.49,6.49,0,0,0,.89-.09h.05a19.53,19.53,0,0,1,2.43.12,11.22,11.22,0,0,1,2.62.36,1.22,1.22,0,0,1,.3,0,2.07,2.07,0,0,0,.43,0,2.34,2.34,0,0,1,1.58.63,10,10,0,0,1,1.18,2.08,7.54,7.54,0,0,1,.7,2,1.27,1.27,0,0,1-.27.53l-.49.42a1.38,1.38,0,0,1-.62.48,5.34,5.34,0,0,0-1.25.91q-1.05.88-1.53,1.38a30.2,30.2,0,0,0-2.63,2.09,12.44,12.44,0,0,0-2,2,4.72,4.72,0,0,0-.73,1,2,2,0,0,0-.31,1c0,.29.1.44.24.46a6.52,6.52,0,0,0,2.9-.39,2.44,2.44,0,0,1,1.22-.37,16.21,16.21,0,0,0,2.48-.51,6,6,0,0,1,1.42-.32,12.07,12.07,0,0,1,1.77-.24,1,1,0,0,1,.39.17.9.9,0,0,0,.38.17A2,2,0,0,1,283.2,204.24Z"/><path class="cls-13" d="M351.5,182.23l.08.92a.92.92,0,0,1-.56.86q-1,.86-7.3,3a75.8,75.8,0,0,1-8.59,1.47,12.93,12.93,0,0,1-4.3.92,7.18,7.18,0,0,1-2.16-.24c-.34,0-.86-.68-1.58-1.9a6,6,0,0,0-.72-2,4,4,0,0,1-.72-1.63c-.44-1.56-.71-2.63-.81-3.19v-1a5.16,5.16,0,0,1,1.47-2.71,1.42,1.42,0,0,0,.35-.61,10,10,0,0,1,1.63-1.89l3.46-3a2.9,2.9,0,0,1,1-.86c.24-.15.85-.62,1.84-1.44l2.55-1.65c1.46-1.09,2.21-1.68,2.26-1.75a2.8,2.8,0,0,0,.14-.25c.09-.29-.12-.43-.64-.42h-1.71q-6.26,0-6.82-.25a4.94,4.94,0,0,1-1.8-2.61,3.87,3.87,0,0,0-.53-.67,3.12,3.12,0,0,1-.55-1.81c.09-.57.61-1.14,1.56-1.72l1.41-.58a18.77,18.77,0,0,1,3-.66,9.89,9.89,0,0,0,1.5-.07H335a30.12,30.12,0,0,1,4,.4,19,19,0,0,1,4.31.82,4.28,4.28,0,0,1,.5.07,3.35,3.35,0,0,0,.71.06,3.85,3.85,0,0,1,2.56,1.2,16,16,0,0,1,1.77,3.54,11.7,11.7,0,0,1,1,3.4,1.94,1.94,0,0,1-.49.86l-.85.65a2.42,2.42,0,0,1-1.06.75,8.5,8.5,0,0,0-2.16,1.4,32.65,32.65,0,0,0-2.65,2.15,47.13,47.13,0,0,0-4.53,3.22,20.19,20.19,0,0,0-3.46,3.22,8,8,0,0,0-1.31,1.58,3.07,3.07,0,0,0-.59,1.63q0,.72.36.78a10.52,10.52,0,0,0,4.83-.39,4.13,4.13,0,0,1,2.06-.51,25.37,25.37,0,0,0,4.15-.63,10.47,10.47,0,0,1,2.38-.4,19,19,0,0,1,3-.23,1.64,1.64,0,0,1,.64.31,1.61,1.61,0,0,0,.6.32A3.24,3.24,0,0,1,351.5,182.23Z"/><circle class="cls-14" cx="143.13" cy="234.27" r="7.5"/><path class="cls-15" d="M137.85,243.31c-5-.83-8.42-5.85-7.54-11.2A9.55,9.55,0,0,1,141,223.92"/><path class="cls-16" d="M142.56,234.47c0-.38,0-.3-.27-.63a5,5,0,0,0-.69-.63,4.52,4.52,0,0,0-2.65-.55,3.16,3.16,0,0,0-1.13.53,2.29,2.29,0,0,0-.8,1,3.39,3.39,0,0,0-.21,1.38,5.39,5.39,0,0,0,.45,2,10.2,10.2,0,0,0,.73,1.23,5,5,0,0,0,1,1.2,4.26,4.26,0,0,0,1.44.69,12.94,12.94,0,0,0,3.81.58,2.18,2.18,0,0,0,1.94-.84,11.34,11.34,0,0,0,1.33-1.67,3.29,3.29,0,0,0,.47-1.69,8.31,8.31,0,0,0-.65-2,3.71,3.71,0,0,0-1.22-1,3.16,3.16,0,0,0-3-.17C142.54,234.21,142.56,234.47,142.56,234.47Z"/><path class="cls-17" d="M142.81,234.47c0-.82-.9-1.42-1.59-1.71a3.64,3.64,0,0,0-3.11,0,3,3,0,0,0-1.54,3.07,6.94,6.94,0,0,0,1.65,3.75,5.59,5.59,0,0,0,3.71,1.76c1.21.21,2.87.54,3.92-.25a6.53,6.53,0,0,0,2.29-3.21,4.18,4.18,0,0,0-.47-2.63,3.71,3.71,0,0,0-2.89-1.88,2.71,2.71,0,0,0-1.68.24c-.32.17-.78.49-.79.9s.48.33.5,0,.61-.53.88-.6a2.9,2.9,0,0,1,1.52,0,3.08,3.08,0,0,1,2,1.6,3.71,3.71,0,0,1,.41,2.11,5.75,5.75,0,0,1-1.68,2.61,2.13,2.13,0,0,1-1.56.76,9.77,9.77,0,0,1-1.79-.09,8.29,8.29,0,0,1-3.24-.93,6,6,0,0,1-1.92-2.55c-.49-1.09-.73-2.77.15-3.73a2.72,2.72,0,0,1,2.77-.69c.63.15,1.88.66,1.91,1.46A.25.25,0,0,0,142.81,234.47Z"/><path class="cls-17" d="M142.31,234.47c0,.66,0,1.32,0,2a4.29,4.29,0,0,1-.27,1.74c-.37.85-.74,1.71-1.16,2.54-.14.28.29.54.44.25.44-.88.84-1.79,1.21-2.68a4.53,4.53,0,0,0,.28-1.75c0-.69,0-1.38,0-2.08,0-.32-.51-.32-.5,0Z"/></g></g></svg>