<svg xmlns="http://www.w3.org/2000/svg" xmlns:xlink="http://www.w3.org/1999/xlink" viewBox="0 0 538.8 371.12"><defs><style>.cls-1{fill:url(#radial-gradient);}.cls-2{fill:#bbdef4;}.cls-3,.cls-8{fill:#221f1f;}.cls-4{fill:#bc202e;}.cls-5{fill:#ab1f29;}.cls-6{fill:#fff;stroke:#fff;}.cls-10,.cls-6,.cls-8{stroke-miterlimit:10;}.cls-7{fill:#2f76b9;}.cls-10,.cls-8{stroke:#221f1f;}.cls-9{fill:#00729e;}.cls-10{fill:#9cd9e4;fill-opacity:0.43;stroke-width:9px;}.cls-11{opacity:0.75;}.cls-12{fill:#bde3ec;}.cls-13{fill:#a47c52;}.cls-14{fill:#020202;}.cls-15{fill:#bd946b;}</style><radialGradient id="radial-gradient" cx="315.05" cy="-1655.41" r="155.34" gradientTransform="matrix(1.04, -0.02, 0.01, 0.95, -106.17, 1758.12)" gradientUnits="userSpaceOnUse"><stop offset="0" stop-color="#a7dbda"/><stop offset="0.78" stop-color="#bbdef4"/></radialGradient></defs><g id="Layer_2" data-name="Layer 2"><g id="Layer_1-2" data-name="Layer 1"><path class="cls-1" d="M354.56,172.29c1.32,88.35-58.76,164-156,165.5S44.43,265.29,43.11,176.94,96.66,34,194,32.53,353.24,83.94,354.56,172.29Z"/><path class="cls-2" d="M112.33,308,98.92,336c-1.48,3.1-3,6.28-3.28,9.7-.57,6.45,3.37,12.66,8.64,16.41s11.73,5.43,18.09,6.65c8.57,1.64,18.52,2.2,24.9-3.74,3.28-3.06,5-7.38,6.52-11.62A150,150,0,0,0,160,329.29Z"/><path class="cls-2" d="M111.25,307.32c-4.82,10.09-9.86,20.12-14.45,30.32-2,4.3-3.14,8.76-1.93,13.45a21.45,21.45,0,0,0,6.87,10.64,34.31,34.31,0,0,0,12.71,6.48A76.32,76.32,0,0,0,128,370.89c8.47.88,17.51-.53,22.7-8,3.09-4.43,4.66-10,6.2-15.09a151.75,151.75,0,0,0,4.26-18.21,1.27,1.27,0,0,0-.57-1.41L144.51,321l-25.66-11.49L113,306.87c-1.45-.66-2.73,1.5-1.26,2.16l16.1,7.21,25.66,11.49,5.89,2.64-.58-1.41a150.56,150.56,0,0,1-3.33,15,94.83,94.83,0,0,1-4.51,13.45c-1.76,3.92-4.27,7.31-8.19,9.25a24.06,24.06,0,0,1-11.46,2,64.8,64.8,0,0,1-12.39-1.84,41.07,41.07,0,0,1-12.72-4.88,20.79,20.79,0,0,1-8.08-9.11c-1.85-4.25-1.37-8.54.36-12.75,2.17-5.24,4.86-10.3,7.3-15.42l7.66-16C114.1,307.13,112,305.86,111.25,307.32Z"/><path class="cls-2" d="M212.87,312l-5.54,30.62c-.61,3.38-1.22,6.84-.61,10.22,1.15,6.37,6.58,11.33,12.66,13.56s12.75,2.14,19.2,1.64c8.7-.67,18.44-2.74,23-10.16,2.37-3.82,2.93-8.45,3.23-12.93a149.08,149.08,0,0,0-.38-24.91Z"/><path class="cls-2" d="M211.67,311.63c-2,11.05-4.25,22.08-6,33.17-.75,4.76-.66,9.45,1.87,13.68a21.47,21.47,0,0,0,9.16,8.11,34.09,34.09,0,0,0,14.16,3,74.85,74.85,0,0,0,13.94-1c8-1.35,16.1-4.9,19.31-12.94,2-5.14,2.09-11.06,2.25-16.51a151.44,151.44,0,0,0-.67-19.05,1.29,1.29,0,0,0-.92-1.21l-17.43-2.71-27.78-4.33-6.38-1c-1.57-.24-2.25,2.17-.66,2.41L230,315.89l27.78,4.33,6.37,1-.91-1.2a153.84,153.84,0,0,1,.73,15.63,86.25,86.25,0,0,1-.94,14.63,17.28,17.28,0,0,1-5.65,10.58,24.39,24.39,0,0,1-10.17,4.64,64.46,64.46,0,0,1-12,1.49A41.63,41.63,0,0,1,221,365.6,20.88,20.88,0,0,1,211,359c-2.84-3.49-3.6-7.65-3.1-12,.65-5.76,2-11.5,3-17.2l3.17-17.5C214.36,310.73,212,310.05,211.67,311.63Z"/><path d="M184.37,264.45c3.29,4.65,9.17,10.2,14.6,10.83,6.91.8,17.83-5.52,17.83-5.52-1.61,5.72-1.8,13.06-4.9,18.41a19,19,0,0,1-6.8,7.15,17.44,17.44,0,0,1-11.75,2.3c-5.81-.93-10.07-6.75-11.29-12.95S184.37,264.45,184.37,264.45Z"/><path class="cls-3" d="M182.21,265.71a37.1,37.1,0,0,0,6.89,7.43c2.58,2.06,5.55,4,8.88,4.51,5.51.88,11.23-1.43,16.14-3.71,1.33-.63,2.66-1.28,3.94-2l-3.68-2.82c-1.57,5.73-1.55,12.17-4.44,17.47-2.56,4.68-7,8.27-12.49,8.69a10.86,10.86,0,0,1-7.16-1.53,13.58,13.58,0,0,1-4.61-5.82,17.7,17.7,0,0,1-1.14-3.55c0-.19-.08-.38-.11-.58-.14-.73,0,.52,0-.26,0-.51-.08-1-.09-1.54a44.25,44.25,0,0,1,.46-6.51,95.54,95.54,0,0,1,2-10.35c.79-3.12-4-4.46-4.82-1.33a97.64,97.64,0,0,0-2,9.89c-.82,5.53-1.2,10.84,1.06,16.09,2.56,6,7.65,10.3,14.28,10.53a20.49,20.49,0,0,0,17.13-8.43c4.71-6.33,4.72-14.12,6.73-21.44a2.53,2.53,0,0,0-3.68-2.82,41,41,0,0,1-12.62,5,11.09,11.09,0,0,1-8.36-1.65,28.83,28.83,0,0,1-8-7.74,2.58,2.58,0,0,0-3.42-.9A2.52,2.52,0,0,0,182.21,265.71Z"/><path class="cls-4" d="M196.72,280.13c0-.88-.07-.7-.63-1.44a11.62,11.62,0,0,0-1.61-1.42,10.32,10.32,0,0,0-6.08-1.17,7.37,7.37,0,0,0-2.56,1.26,5.33,5.33,0,0,0-1.81,2.36,7.66,7.66,0,0,0-.42,3.15,11.87,11.87,0,0,0,1.1,4.5,19.66,19.66,0,0,0,1.72,2.8,11.38,11.38,0,0,0,2.3,2.72,9.69,9.69,0,0,0,3.31,1.52,29.69,29.69,0,0,0,8.74,1.19,6.37,6.37,0,0,0,2.3-.36,6.16,6.16,0,0,0,2.11-1.62,25,25,0,0,0,3-3.88,7.52,7.52,0,0,0,1-3.88,19.8,19.8,0,0,0-1.56-4.57,8.68,8.68,0,0,0-2.83-2.33c-2.09-1.17-5.11-1.43-6.87-.27C196.68,279.53,196.72,280.13,196.72,280.13Z"/><path class="cls-5" d="M197,280.13c-.08-1.61-1.79-2.86-3.17-3.46-2.21-.95-5-1.36-7.14-.13-2.56,1.45-3.5,3.89-3.27,6.76.26,3.16,1.83,5.84,3.75,8.3s5,3.26,8,3.79a29.73,29.73,0,0,0,5.16.46,6.14,6.14,0,0,0,3.88-1,15.59,15.59,0,0,0,2.94-3.18,11.5,11.5,0,0,0,2.07-3.77c.59-2.12-.15-4.17-1-6.13-1.05-2.37-4.08-3.83-6.55-4.07a6,6,0,0,0-3.8.74c-.53.34-1.35.95-1.36,1.66,0,.32.49.32.5,0,0-.75,1.35-1.42,1.92-1.63a6.78,6.78,0,0,1,3.79-.09c1.94.46,4.24,1.75,5.07,3.65.73,1.65,1.47,3.56,1.06,5.37-.54,2.41-2.36,4.58-4.06,6.29-2.06,2.07-5,1.75-7.69,1.45s-5.7-.77-7.87-2.26c-1.91-1.3-3.52-3.94-4.42-6-1.06-2.47-1.55-6,.2-8.31s4.3-2.61,6.83-2c1.61.36,4.57,1.59,4.67,3.6C196.48,280.45,197,280.45,197,280.13Z"/><path class="cls-5" d="M196.47,280.13c0,1.51.07,3,.06,4.52a10.52,10.52,0,0,1-.58,4.1c-.83,2-1.65,4-2.59,5.91-.13.29.3.54.44.25,1-2,1.82-4,2.65-6.08a10.41,10.41,0,0,0,.58-4c0-1.58,0-3.16-.06-4.74,0-.32-.51-.32-.5,0Z"/><path class="cls-3" d="M168.5,19.57a99.18,99.18,0,0,1,7.26,12.92c1.32,2.6,2.59,5.22,3.77,7.89a27,27,0,0,1,2,5.63c.3,1.58,2.71.92,2.41-.66a28.3,28.3,0,0,0-2.07-5.76c-1.18-2.74-2.49-5.42-3.83-8.09a100.26,100.26,0,0,0-7.4-13.19c-.92-1.3-3.09,0-2.16,1.26Z"/><path class="cls-3" d="M184.53,13.8c1.07,8.71,2,17.43,3,26.14.2,1.78.4,3.56.62,5.33.19,1.58,2.7,1.6,2.5,0-1.07-8.7-2-17.42-3-26.14-.2-1.77-.41-3.55-.63-5.33-.19-1.57-2.69-1.59-2.5,0Z"/><path class="cls-3" d="M197.87,44.45a15,15,0,0,1,.16-5.8,73.69,73.69,0,0,1,1.86-8.3c.75-2.74,1.62-5.46,2.63-8.11a23.13,23.13,0,0,1,2.64-5.43c1-1.3-1.22-2.55-2.16-1.26a24.88,24.88,0,0,0-2.79,5.78A83.92,83.92,0,0,0,197.4,30a70.94,70.94,0,0,0-1.89,8.77,16,16,0,0,0,0,6.36,1.25,1.25,0,0,0,2.41-.66Z"/><path class="cls-2" d="M51.24,175.82,20.4,171.71a42.81,42.81,0,0,0-10.19-.54c-6.21.69-6.3.59-8,4.64s-1,8.52.08,12.86c1.44,5.84,4.36,12.41,12.12,15.58a30.38,30.38,0,0,0,11.2,2.28c8.27.48,14.09,4.25,22.22,3.8Z"/><path class="cls-2" d="M51.24,174.57l-30.35-4c-2.33-.31-4.67-.64-7-.72a37.85,37.85,0,0,0-6.29.41c-2.2.28-4.22.68-5.41,2.74C-1.59,179.5.1,188,3,194.56c3.1,7,9.44,11.3,16.9,12.62,2.35.41,4.72.46,7.08.71a44.21,44.21,0,0,1,7,1.42c4.57,1.22,9.09,2.49,13.88,2.27a1.28,1.28,0,0,0,1.25-1.25l3-30.23.41-4.28c.16-1.6-2.34-1.59-2.5,0l-3,30.23-.42,4.28,1.25-1.25a37.09,37.09,0,0,1-11.49-1.71,58.14,58.14,0,0,0-11.63-2.15c-7.2-.48-14.37-2.87-18.27-9.35a29.07,29.07,0,0,1-3.21-8.66c-.93-4.09-1.17-8.07.56-12A4.66,4.66,0,0,1,5,173.43a5.92,5.92,0,0,1,2.65-.71,45.88,45.88,0,0,1,12.33.18l31.3,4.17C52.83,177.28,52.82,174.78,51.24,174.57Z"/><path class="cls-2" d="M332.75,182.1l27.95-13.67a43.15,43.15,0,0,1,9.5-3.75c6.11-1.31,11.45.68,14.31,4s3.64,7.77,4,12.22c.48,6-.21,13.16-6.56,18.63-3.27,2.81-7.54,4.7-11.69,6.36a217.56,217.56,0,0,1-23.37,7.87Z"/><path class="cls-2" d="M333.38,183.17,358.23,171c6.92-3.38,15.22-8.16,22.78-3.65,3.17,1.9,4.81,5.2,5.58,8.72a34.27,34.27,0,0,1,.69,10.15,18.46,18.46,0,0,1-3.16,9.07c-2.29,3.3-5.73,5.51-9.29,7.24A127.8,127.8,0,0,1,361.05,208q-7.17,2.52-14.5,4.53l1.42.58-12.39-27.74-1.75-3.93c-.65-1.46-2.81-.19-2.16,1.27l12.38,27.73,1.76,3.93a1.26,1.26,0,0,0,1.41.58,189.21,189.21,0,0,0,27.29-9.52c3.89-1.75,7.72-3.95,10.51-7.24a20.13,20.13,0,0,0,4.49-9.8,35.13,35.13,0,0,0-.05-10.34c-.53-3.93-1.72-8-4.6-10.85a15.26,15.26,0,0,0-9.65-4.15c-4.52-.34-8.79,1.27-12.81,3.15-10.16,4.78-20.19,9.86-30.28,14.8C330.67,181.72,331.94,183.88,333.38,183.17Z"/><circle class="cls-6" cx="131.44" cy="162.04" r="53.62"/><circle class="cls-7" cx="131.51" cy="166.96" r="34.92"/><circle class="cls-8" cx="131.52" cy="167.58" r="27.29"/><circle class="cls-6" cx="268.09" cy="163.49" r="53.62"/><circle class="cls-7" cx="268.17" cy="168.41" r="34.92"/><circle class="cls-8" cx="268.18" cy="169.03" r="27.29"/><path class="cls-2" d="M137.55,53.22l-.65-13a18.18,18.18,0,0,0-.55-4.21A6.13,6.13,0,0,0,132,31.63a8.6,8.6,0,0,0-5.27,1c-2.28,1-4.75,2.73-5.47,6.15a17.53,17.53,0,0,0,0,5.55,91.38,91.38,0,0,0,1.84,10.11Z"/><path class="cls-2" d="M138.8,53.22c-.22-4.39-.43-8.78-.66-13.17-.19-3.45-.88-7.26-4.24-9-3.06-1.61-6.79-.27-9.52,1.46a9.7,9.7,0,0,0-4.57,8.2,37.41,37.41,0,0,0,.71,7c.37,2.39.85,4.77,1.42,7.12a1.25,1.25,0,0,0,1.2.92l14.41-1.23c1.59-.13,1.6-2.64,0-2.5L123.14,53.2l1.21.92c-1-4.25-2.11-8.85-2-13.24.06-4,2.6-6.34,6.16-7.61,1.77-.63,3.63-.78,5.11.55s1.88,3.42,2,5.37c.31,4.67.47,9.36.71,14C136.38,54.82,138.88,54.83,138.8,53.22Z"/><path class="cls-9" d="M135.24,54.76l-.49-9.57a13.88,13.88,0,0,0-.39-3.12,4.5,4.5,0,0,0-3.13-3.26,6.06,6.06,0,0,0-3.78.73,6.35,6.35,0,0,0-3.92,4.54,13.13,13.13,0,0,0,0,4.1,68,68,0,0,0,1.34,7.48Z"/><path class="cls-9" d="M136.49,54.76c-.17-3.24-.32-6.48-.49-9.73-.14-2.64-.68-5.57-3.23-7-2.3-1.26-5.13-.27-7.18,1.07a7.52,7.52,0,0,0-3.45,6.33,29.85,29.85,0,0,0,.52,5.25q.42,2.66,1,5.27a1.28,1.28,0,0,0,1.21.92l10.34-.9c1.59-.13,1.6-2.63,0-2.5l-10.34.9,1.2.92a41.47,41.47,0,0,1-1.47-9.7c0-2.73,1.7-4.39,4.15-5.3a3,3,0,0,1,3.33.33,5.33,5.33,0,0,1,1.35,3.74c.23,3.45.35,6.91.53,10.36C134.07,56.37,136.57,56.38,136.49,54.76Z"/><path class="cls-2" d="M244.2,53.85l.27-13a18,18,0,0,1,.42-4.24,6.14,6.14,0,0,1,4.21-4.54,8.6,8.6,0,0,1,5.3.85c2.32,1,4.84,2.58,5.65,6a17.16,17.16,0,0,1,.13,5.55,89.65,89.65,0,0,1-1.54,10.17Z"/><path class="cls-2" d="M245.45,53.85c.1-4.72.11-9.44.3-14.15.08-1.93.38-3.93,1.83-5.34s3.43-1.3,5.29-.67c3.42,1.16,6,3.37,6.2,7.18a36.57,36.57,0,0,1-.47,6.61c-.29,2.29-.69,4.57-1.16,6.83l1.2-.91-14.44-.8c-1.6-.09-1.6,2.41,0,2.5l14.44.8a1.26,1.26,0,0,0,1.21-.92,76.39,76.39,0,0,0,1.73-12.51c.12-3.5-.84-6.8-3.7-9-2.51-1.91-6.49-3.54-9.61-2.43-3.34,1.18-4.74,4.58-5,7.87-.36,4.95-.23,10-.34,14.93A1.25,1.25,0,0,0,245.45,53.85Z"/><path class="cls-9" d="M246.56,55.32l.2-9.58a13.46,13.46,0,0,1,.3-3.13,4.48,4.48,0,0,1,3-3.36,6,6,0,0,1,3.8.63,6.28,6.28,0,0,1,4.05,4.42,13,13,0,0,1,.09,4.09,66.44,66.44,0,0,1-1.11,7.52Z"/><path class="cls-9" d="M247.81,55.32c.07-3.48.08-7,.22-10.45a5.36,5.36,0,0,1,1.21-3.71,3,3,0,0,1,3.31-.47c2.41.8,4.19,2.36,4.33,5a27.61,27.61,0,0,1-.34,4.89c-.2,1.66-.49,3.32-.82,5l1.2-.91-10.36-.59c-1.61-.09-1.6,2.41,0,2.5l10.36.59a1.28,1.28,0,0,0,1.21-.92,58.77,58.77,0,0,0,1.26-9.33c.09-2.67-.63-5.22-2.8-6.9-1.91-1.49-4.91-2.72-7.29-1.81-2.53,1-3.56,3.57-3.74,6.09-.26,3.66-.17,7.37-.25,11A1.25,1.25,0,0,0,247.81,55.32Z"/><path class="cls-3" d="M196.16,160.47l1.7-.81c.19-.08.26-.11,0,0l.42-.16c.28-.11.57-.2.86-.29l.93-.21c.18,0,.33,0,.07,0h.44c.2,0,.91.07.35,0,.48.05,1,.13,1.45.18l.39,0c.34,0-.47-.09-.12,0l.78.16a13,13,0,0,1,1.62.47l.4.15c.35.12-.35-.17,0,0s.49.23.74.37a6.58,6.58,0,0,1,.67.4c.05,0,.39.29.12.07s.13.13.15.15a2.5,2.5,0,1,0,3.54-3.54,14.11,14.11,0,0,0-8.07-3.23l-.45,0c-.35,0,.4.05-.08,0a12.78,12.78,0,0,0-1.37-.16,9.51,9.51,0,0,0-2.65.35,24.84,24.84,0,0,0-4.43,1.85,2.51,2.51,0,0,0-.9,3.42,2.57,2.57,0,0,0,3.42.89Z"/><path class="cls-3" d="M341.89,157.56a191,191,0,0,1,20.86-17,2.58,2.58,0,0,0,.9-3.42,2.52,2.52,0,0,0-3.42-.9A201.73,201.73,0,0,0,338.35,154c-2.35,2.2,1.19,5.73,3.54,3.53Z"/><path class="cls-3" d="M64.23,153.57a201.86,201.86,0,0,0-22.39-17.13c-2.69-1.78-5.2,2.55-2.52,4.32A192.29,192.29,0,0,1,60.69,157.1a2.55,2.55,0,0,0,3.54,0,2.52,2.52,0,0,0,0-3.53Z"/><rect class="cls-10" x="61.29" y="96.98" width="128.5" height="128.5" rx="16.66" transform="translate(2.19 -1.68) rotate(0.77)"/><g class="cls-11"><path class="cls-12" d="M110.61,169.6a355.22,355.22,0,0,1,30.49-31.95c2.37-2.19-1.17-5.72-3.54-3.53a353.77,353.77,0,0,0-30.48,31.95,2.55,2.55,0,0,0,0,3.53,2.5,2.5,0,0,0,3.53,0Z"/></g><g class="cls-11"><path class="cls-12" d="M125.52,183.2l1.33-1.8.76-1,.31-.41.28-.36c.8-1,2-2.47,2.92-3.63a68.81,68.81,0,0,1,6.43-6.79,2.5,2.5,0,0,0,0-3.53,2.54,2.54,0,0,0-3.53,0c-4.88,4.41-9,9.71-12.82,15a2.51,2.51,0,0,0,.9,3.42,2.57,2.57,0,0,0,3.42-.89Z"/></g><rect class="cls-10" x="210.24" y="97.87" width="128.5" height="128.5" rx="16.66" transform="matrix(1, 0.01, -0.01, 1, 2.21, -3.69)"/><g class="cls-11"><path class="cls-12" d="M259.56,170.49a356.62,356.62,0,0,1,30.49-32c2.37-2.19-1.17-5.72-3.53-3.53A353.88,353.88,0,0,0,256,167a2.56,2.56,0,0,0,0,3.53,2.5,2.5,0,0,0,3.53,0Z"/></g><g class="cls-11"><path class="cls-12" d="M274.47,184.09l1.33-1.8.76-1c.11-.14.21-.28.32-.41s.4-.52.27-.36c.81-1,2-2.47,2.93-3.63a66.54,66.54,0,0,1,6.43-6.79,2.51,2.51,0,0,0,0-3.53,2.55,2.55,0,0,0-3.54,0c-4.88,4.41-8.94,9.71-12.81,15a2.5,2.5,0,0,0,.89,3.42,2.56,2.56,0,0,0,3.42-.89Z"/></g><path class="cls-13" d="M385.7,230.8c1.82-.1,6.56.39,8.82.14,10.65-56.4,34.06-119.16,49.05-174.58,4-14.86,7.13-27.52,9.67-41.16a88.27,88.27,0,0,1-8-4.79L406.28,120.78Z"/><path class="cls-14" d="M385.7,233.3c2.93-.12,5.88.42,8.82.14a2.57,2.57,0,0,0,2.41-1.84c5.39-28.48,13.41-56.4,21.82-84.11,8.48-27.93,17.55-55.69,25.4-83.81,4.41-15.79,8.49-31.69,11.5-47.81A2.57,2.57,0,0,0,454.5,13a74.92,74.92,0,0,1-8-4.79,2.53,2.53,0,0,0-3.67,1.49l-3.73,10.58-9,25.43L419.09,77l-9.73,27.59-5.26,14.89a50.86,50.86,0,0,0-1.52,7.56L398,151.41l-6,32.28-5.5,29.44-3,16.24-.15.76a2.58,2.58,0,0,0,1.75,3.08,2.53,2.53,0,0,0,3.08-1.75L390.25,220l5.09-27.2,6.1-32.59L406.53,133l1.57-8.38c.2-1,.32-2.13.59-3.15s.66-1.86,1-2.78l2.7-7.65,8.94-25.36,11-31.21,9.75-27.65,5.3-15,.25-.71L444,12.57a74.79,74.79,0,0,0,8,4.79l-1.14-2.82c-5.29,28.36-13.64,56.11-22.09,83.66-8.69,28.31-17.8,56.49-25.58,85.07-4.22,15.53-8.06,31.18-11.05,47l2.41-1.83c-2.94.28-5.89-.26-8.82-.14C382.49,228.43,382.47,233.43,385.7,233.3Z"/><path class="cls-13" d="M385.7,230.8c10.74-57,34.69-122.72,49.78-178.77,4-15,7.18-27.83,9.73-41.62A233.24,233.24,0,0,0,409.4,4.49C394.51,76.31,379,153.3,364.12,225.13,371.22,227.93,375.72,228.28,385.7,230.8Z"/><path class="cls-14" d="M388.11,231.46c2.67-14.17,6-28.22,9.67-42.18,3.83-14.55,8-29,12.34-43.42,4.37-14.56,8.87-29.08,13.31-43.62,4.25-13.92,8.45-27.86,12.36-41.88,4-14.49,7.83-29.07,10.78-43.83q.54-2.73,1.05-5.46A2.54,2.54,0,0,0,445.88,8,237.24,237.24,0,0,0,409.4,2,2.5,2.5,0,0,0,407,3.82q-8.88,42.86-17.62,85.74-8.87,43.39-17.74,86.78-4.94,24.07-9.92,48.12a2.59,2.59,0,0,0,1.75,3.08c7,2.72,14.36,3.86,21.57,5.67,3.12.78,4.45-4,1.33-4.82-7.21-1.81-14.62-2.95-21.57-5.67l1.74,3.07q8.88-42.85,17.62-85.74,8.87-43.4,17.74-86.78,5-24.06,9.92-48.12L409.4,7a228.74,228.74,0,0,1,35.15,5.83L442.8,9.74C440,24.65,436.35,39.36,432.36,54c-3.8,13.93-7.92,27.77-12.12,41.58-4.41,14.51-8.91,29-13.3,43.51s-8.62,28.93-12.55,43.51c-3.78,14-7.26,28.17-10.11,42.44-.34,1.7-.67,3.41-1,5.11a2.57,2.57,0,0,0,1.75,3.08A2.52,2.52,0,0,0,388.11,231.46Z"/><path class="cls-15" d="M433,8.77c-10.85,26.76-11.59,56.14-17.45,84.12A167.07,167.07,0,0,1,410,113.41a181.13,181.13,0,0,1-9.25,21,199.9,199.9,0,0,0-9.18,20.82,192.36,192.36,0,0,0-6.33,21.57c-3.93,16.61-6.15,33.58-8.35,50.49-.2,1.59,2.3,1.58,2.5,0,2-15.19,4-30.41,7.25-45.39a186.4,186.4,0,0,1,14.41-42.46c3.39-6.94,7-13.79,9.77-21A148.64,148.64,0,0,0,417,98.16c3.24-13.94,5-28.17,7.17-42.3,2.41-15.75,5.29-31.6,11.3-46.43.61-1.49-1.81-2.14-2.41-.66Z"/><path class="cls-15" d="M371.07,226.6c2.58-12,5.35-23.88,8.14-35.79q5.42-23,11-46,6-24.9,12.13-49.77,5.76-23.53,11.53-47Q418.51,29,423.08,10.1c.3-1.23.6-2.46.89-3.69.37-1.57-2-2.23-2.41-.67q-4.35,18.17-8.82,36.3-5.65,23.15-11.34,46.28-6.09,24.89-12.14,49.78-5.67,23.4-11.23,46.83c-2.94,12.44-5.85,24.9-8.59,37.39l-.78,3.62c-.34,1.57,2.07,2.24,2.41.66Z"/><path class="cls-14" d="M388.11,231.46c2.67-14.17,6-28.22,9.67-42.18,3.83-14.55,8-29,12.34-43.42,4.37-14.56,8.87-29.08,13.31-43.62,4.25-13.92,8.45-27.86,12.36-41.88,4-14.49,7.83-29.07,10.78-43.83q.54-2.73,1.05-5.46A2.54,2.54,0,0,0,445.88,8,237.24,237.24,0,0,0,409.4,2,2.5,2.5,0,0,0,407,3.82q-8.88,42.86-17.62,85.74-8.87,43.39-17.74,86.78-4.94,24.07-9.92,48.12a2.59,2.59,0,0,0,1.75,3.08c7,2.72,14.36,3.86,21.57,5.67,3.12.78,4.45-4,1.33-4.82-7.21-1.81-14.62-2.95-21.57-5.67l1.74,3.07q8.88-42.85,17.62-85.74,8.87-43.4,17.74-86.78,5-24.06,9.92-48.12L409.4,7a228.74,228.74,0,0,1,35.15,5.83L442.8,9.74C440,24.65,436.35,39.36,432.36,54c-3.8,13.93-7.92,27.77-12.12,41.58-4.41,14.51-8.91,29-13.3,43.51s-8.62,28.93-12.55,43.51c-3.78,14-7.26,28.17-10.11,42.44-.34,1.7-.67,3.41-1,5.11a2.57,2.57,0,0,0,1.75,3.08A2.52,2.52,0,0,0,388.11,231.46Z"/><path class="cls-13" d="M307.54,106.86c.2,2,.89,6.67,2,8.3l.47.28A563.15,563.15,0,0,1,489.87,155.3s6.06-5.58,7.19-7.75L397,108.45Z"/><path class="cls-14" d="M305,106.86a37.43,37.43,0,0,0,1.24,6.89,8.42,8.42,0,0,0,1.33,2.92c1.05,1.28,2.53,1.27,4.07,1.36q9.93.56,19.84,1.47,19.47,1.8,38.78,5a564.23,564.23,0,0,1,76.94,18.27q21.27,6.64,42,15a2.48,2.48,0,0,0,2.43-.65c1.11-1,2.2-2.08,3.27-3.16a24.39,24.39,0,0,0,4.31-5.09,2.54,2.54,0,0,0-1.49-3.67l-8.48-3.31-20.84-8.14-26.3-10.28-24.87-9.72-16.53-6.46c-1-.38-2-.87-3-1.17a10.87,10.87,0,0,0-2.67-.15l-17.68-.31-27.48-.49-26.6-.47-15-.27h-.71c-3.22-.06-3.22,4.94,0,5l10.64.19,24.65.44,28.26.5,21,.37c1.52,0,3.06.12,4.58.08.73,0-.48-.2-.28,0a4.69,4.69,0,0,0,1,.41l13.6,5.31,23.42,9.15,26.47,10.35,22.8,8.91,12.11,4.73.55.21-1.5-3.67a6.81,6.81,0,0,1-.6.91c.31-.41-.12.14-.19.22s-.33.4-.5.59c-.78.88-1.6,1.73-2.43,2.56-1,1-2,2-3.08,3l2.44-.65a564.92,564.92,0,0,0-140-36.29q-20.2-2.55-40.54-3.65l1.26.34-.47-.28.89.9c-1.08-1.66-1.48-5-1.69-7a2.57,2.57,0,0,0-2.5-2.5A2.52,2.52,0,0,0,305,106.86Z"/><path class="cls-13" d="M317.44,3.06,311.55,83c-.62,8.49-1.27,17.11-4.14,25.12a623.5,623.5,0,0,1,189.48,41l39-109.78.36-.9C462.88,31.5,389.72,23.07,318.8,3.05Z"/><path class="cls-14" d="M314.94,3.06c-2,27.72-4,55.45-6.13,83.16-.57,7.19-1.4,14.37-3.81,21.21a2.52,2.52,0,0,0,2.41,3.16,618.51,618.51,0,0,1,74.93,8.88,624.76,624.76,0,0,1,73.48,18q20.44,6.33,40.4,14.06c1.33.51,2.66-.58,3.08-1.75l31.12-87.63c2.73-7.67,5.22-15.48,8.23-23.05.65-1.65-1-3-2.41-3.16-29.19-2.76-58.36-5.75-87.42-9.62s-57.76-8.63-86.27-14.9q-12-2.64-23.95-5.65-5.85-1.47-11.68-3c-3.09-.84-6.26-2.17-9.48-2.14s-3.22,5,0,5a8.51,8.51,0,0,1,1,0c.08,0,.5.1.15,0,.31.06.63.18.93.26l5.59,1.54q5.37,1.45,10.75,2.83,10.51,2.68,21.11,5.06,21.4,4.81,43,8.56c28.9,5.06,58,8.88,87.17,12.11,16.34,1.8,32.7,3.42,49.07,5l-2.41-3.17C531.18,44.39,529,51.24,526.6,58l-7.69,21.67-15.56,43.81-8.87,25,3.07-1.74A623.77,623.77,0,0,0,350,109.49q-21.22-2.68-42.6-3.9l2.41,3.17a80,80,0,0,0,3.73-19.52c.63-6.88,1.06-13.78,1.56-20.66l3.08-41.7,1.75-23.82a2.52,2.52,0,0,0-2.5-2.5A2.55,2.55,0,0,0,314.94,3.06Z"/><path class="cls-15" d="M526.57,66.21c-25.86-9.89-54.11-8.88-81.05-13.51A141.23,141.23,0,0,1,425.94,48a161.6,161.6,0,0,1-20.17-8.56,172.54,172.54,0,0,0-19.61-8.23,167.63,167.63,0,0,0-20.46-5.35c-16-3.18-32.25-4.54-48.47-5.86-1.6-.13-1.6,2.37,0,2.5,14.49,1.18,29,2.39,43.34,4.93A160.31,160.31,0,0,1,401.17,40c6.51,3.07,12.94,6.34,19.69,8.87a125.66,125.66,0,0,0,19.54,5.4C453.86,57,467.56,58,481.18,59.45c15.15,1.6,30.42,3.7,44.73,9.17,1.5.58,2.15-1.84.66-2.41Z"/><path class="cls-15" d="M311.31,91.86a264.51,264.51,0,0,1,80.76-7.06,251,251,0,0,1,37.5,5.5,307.93,307.93,0,0,1,36.19,10.86c14,5,28.29,10,43.31,10.19a1.25,1.25,0,0,0,0-2.5c-13.54-.14-26.52-4.38-39.15-8.86-12-4.24-24-8.38-36.35-11.33a256.58,256.58,0,0,0-76.78-6.39,273.56,273.56,0,0,0-46.14,7.18c-1.56.38-.9,2.79.66,2.41Z"/><path class="cls-15" d="M521.35,81.88c-11.46-.48-22.9-1.57-34.3-2.8-14.48-1.56-28.93-3.42-43.35-5.46q-23.31-3.28-46.53-7.17-22-3.68-43.86-8c-11.69-2.33-23.36-4.79-34.9-7.77L315,49.82a1.25,1.25,0,0,0-.67,2.41c11.08,3,22.31,5.42,33.56,7.71,14.32,2.91,28.71,5.54,43.12,8q23.29,4,46.68,7.34C452.44,77.4,467.18,79.35,482,81c11.9,1.34,23.83,2.54,35.79,3.19l3.61.17c1.61.07,1.6-2.43,0-2.5Z"/><path class="cls-15" d="M504.67,124.42a232.64,232.64,0,0,0-62.9-4.59c-5.92.38-11.83,1-17.71,1.82-1.59.22-.91,2.63.67,2.41a230,230,0,0,1,62-.22c5.81.77,11.59,1.78,17.32,3,1.57.33,2.24-2.08.66-2.41Z"/><path class="cls-15" d="M387.86,115.43c-7-7.85-17.17-10.91-27.31-12.26-10.89-1.45-21.95-1.18-32.81-2.87A53.58,53.58,0,0,1,310.47,95c-1.42-.76-2.69,1.39-1.27,2.16,9.56,5.11,20.57,6.23,31.21,6.94s21.58.74,31.75,4.18a32.38,32.38,0,0,1,13.94,8.94c1.07,1.2,2.84-.57,1.76-1.77Z"/><path class="cls-14" d="M314.75,2.5C312.82,30.23,311,58,309,85.69c-.53,7.19-1.33,14.37-3.71,21.22a2.53,2.53,0,0,0,2.41,3.17,617.63,617.63,0,0,1,75.14,8.59,624,624,0,0,1,73.51,17.67q20.4,6.22,40.34,13.85a2.54,2.54,0,0,0,3.07-1.75l30.75-87.76c2.69-7.68,5.15-15.51,8.13-23.09.65-1.64-1-3-2.41-3.16-29.27-2.64-58.51-5.51-87.66-9.27-28.84-3.73-57.59-8.36-86-14.48q-12-2.6-24-5.56-5.88-1.45-11.72-3c-3.09-.82-6.29-2.15-9.5-2.11s-3.23,5,0,5c.33,0,.67,0,1,0,.08,0,.51.1.15,0,.31.06.64.18.94.26,1.87.52,3.74,1,5.61,1.52q5.39,1.44,10.78,2.79,10.56,2.64,21.18,5,21.46,4.74,43.15,8.39c28.83,4.92,57.86,8.6,86.93,11.7,16.39,1.74,32.79,3.29,49.2,4.77l-2.41-3.16c-2.62,6.64-4.78,13.51-7.14,20.25L519,78.22l-15.38,43.89-8.76,25,3.07-1.74a621.71,621.71,0,0,0-72.81-22.83,632.33,632.33,0,0,0-74.78-13.73q-21.28-2.61-42.72-3.73l2.41,3.16a80.47,80.47,0,0,0,3.65-19.53c.6-6.88,1-13.78,1.47-20.67l2.9-41.71L319.75,2.5a2.5,2.5,0,0,0-5,0Z"/><path d="M403.61,88.16a5.08,5.08,0,0,1,4.22-1q4,.65,5.54,3.18a7.09,7.09,0,0,1,1.22,4.63c-.19,1.4-.7,2.07-1.51,2a3.18,3.18,0,0,1-2.14-.92c-.32,0-.67-.33-1.06-.92a3,3,0,0,1-.59-1.36L409,92.34c-.15-.68-.42-1.1-.82-1.25-.57.1-.93.57-1.1,1.4a7.91,7.91,0,0,0,1.39,5.15,8.46,8.46,0,0,0,.63,1.15q3.18,5.35,2.78,8.14-.36,1.77-1.2,2.19a7.75,7.75,0,0,1-6.38,1.57,7.83,7.83,0,0,1-5.46-3.44,1.8,1.8,0,0,1-.39-1.32,2.77,2.77,0,0,1,.06-1.34,7.58,7.58,0,0,1,.44-2.18c.44-1.07,1.37-1.47,2.79-1.22.52.11.79.48.8,1.14a11.83,11.83,0,0,0,.57,3.73,2.15,2.15,0,0,0,1.78,1.18,1.63,1.63,0,0,0,2-1.59,5,5,0,0,0-1-3.73,5.79,5.79,0,0,0-.82-1.17,5.89,5.89,0,0,1-.55-.62.72.72,0,0,0-.2-.37,20.46,20.46,0,0,1-2.06-3.28,6.56,6.56,0,0,1-1-3.93A6.05,6.05,0,0,1,403.61,88.16Z"/><path d="M431.28,82.26c-.26.85-.43,1.48-.51,1.87a9.57,9.57,0,0,1-.27,1.06l-.27,1.35-.13.35L429.88,88c-.06.31-.15.62-.24.93h1.89a13,13,0,0,0,1.56,0,11,11,0,0,1,2.41.24,2.12,2.12,0,0,1,1.36.74,1.68,1.68,0,0,1,.15,1.28,1.5,1.5,0,0,1-.61,1.12l-.27.27a2,2,0,0,1-1.37.64l-1.87-.11-2.46.09-1.5.24c-.15.87-.28,1.83-.4,2.89s-.23,1.79-.32,2.21l-.23,2q-.25,4.71-.13,9.71a8,8,0,0,1,.24,2.27l.19,1.17c-.1,1.21-.95,1.65-2.54,1.32a20,20,0,0,1-2-.63c-.31-.09-.69-.5-1.16-1.2a2.53,2.53,0,0,0-.44-.8l-.5-2.59a3.71,3.71,0,0,1-.06-1,5.44,5.44,0,0,1-.41-2.78,2.6,2.6,0,0,0,0-.54l.14-.73a4,4,0,0,1-.1-2.13c.12-1.13.21-2.19.27-3.19a25.15,25.15,0,0,0,.48-4l.12-1.16.1-.47c.1-.34.14-.51.1-.52l-.62-.13a4,4,0,0,1-1.3-.26,3.63,3.63,0,0,1-2.9-1.94c-.23-1-.12-1.63.32-1.83a8.45,8.45,0,0,1,3-.26,7,7,0,0,0,2.68-.16,3.51,3.51,0,0,1,.45-1.42,5.62,5.62,0,0,1,.65-1.47,2.26,2.26,0,0,0,.38-.65,15.08,15.08,0,0,1,1.63-3.51,6.71,6.71,0,0,1,.9-1.49c.58-.57,1.56-.59,2.93-.06a2.12,2.12,0,0,1,1.16.94C431.62,81,431.55,81.42,431.28,82.26Z"/><path d="M447.28,112.83l-1.2,1.86a22.94,22.94,0,0,1-2,1.93,2,2,0,0,1-2,.74,6.93,6.93,0,0,1-2.41-.76,7.13,7.13,0,0,1-2.17-1.85,8.27,8.27,0,0,1-1.1-3,9,9,0,0,1-.24-3.21,21.84,21.84,0,0,1,.18-2.23l.26-1.25a7.76,7.76,0,0,1,.6-2.15l.48-1a12.68,12.68,0,0,1,2.09-3.9q2.68-3.41,4.74-3.09l.26,0a.71.71,0,0,0,.3.12l.67.13A11.84,11.84,0,0,1,448,96a5.75,5.75,0,0,0,1.31.48l1.3.54a4.53,4.53,0,0,1,1.58.59c.63.34,1,.57,1,.69a9.48,9.48,0,0,1,.05,1.2c0,.68,0,1.18,0,1.48s0,.62-.06.94a43.11,43.11,0,0,0-.08,7.34c0,.11,0,.27,0,.49a10,10,0,0,0,.11,1.29c.09.65.14,1.19.16,1.63a13.2,13.2,0,0,0,.23,1.77,12.2,12.2,0,0,0,.57,2q.81,1.84-1.71,2.25a4,4,0,0,1-1.11-.11,4.76,4.76,0,0,1-.88-.72,1.35,1.35,0,0,1-.87-.78l-.39-.18c-.2-.3-.38-.46-.55-.49s-.4-1.62-1-4.59A3.85,3.85,0,0,0,447.28,112.83Zm.4-10.25a3,3,0,0,0-.17-1.85,2.38,2.38,0,0,0-1.57-1,5,5,0,0,0-1.31,1.55,11.21,11.21,0,0,0-1.39,3,24.66,24.66,0,0,0-1.54,4.88,7.4,7.4,0,0,0,.08,3.91c0,.15.1.21.17.19s.52-.25,1-.87A20.15,20.15,0,0,0,447.68,102.58Z"/><path d="M463.87,115c.46-.67,1-1.45,1.5-2.35l1.74-2.67.64-.79q-13.08,10.32.26-.22l1.92-2.53a1.39,1.39,0,0,0,.4-.62l1.76-1.75,1.23-.73a2.76,2.76,0,0,0,.78-.38c.06.08.35.07.87,0a18,18,0,0,1,1.84.54l1,.57,2.05,1.88a1.86,1.86,0,0,1,.31,1.68c-.12.41-.55,1.52-1.27,3.32q-.87,2.14-2.24,4.89a12.37,12.37,0,0,0-.95,3.33c0,.71-.06,1.12-.08,1.22s.06.54.1,1,0,.61-.05.63c.24.09.33.29.26.6a2.76,2.76,0,0,1,0,1.54,2.19,2.19,0,0,1-.85.72,3.16,3.16,0,0,1-2,.07,10.76,10.76,0,0,0-1.31-.38,2.78,2.78,0,0,1-1.14-.61,3.84,3.84,0,0,1-1.26-2.58,5.47,5.47,0,0,1-.09-1.15,3.76,3.76,0,0,1,.05-.53,9.2,9.2,0,0,1,.71-3.21,22,22,0,0,1,1-2.45,24.49,24.49,0,0,1,1.46-2.95,5.18,5.18,0,0,0,.19-1.21l-2.82,3.54a7.37,7.37,0,0,1-.83,1.13.86.86,0,0,0-.38.57,4.05,4.05,0,0,0-1.12,1.51,1.61,1.61,0,0,1-.16.5,4.73,4.73,0,0,1-.54.68,4.54,4.54,0,0,0-.7,1,2.93,2.93,0,0,1-.88,1,14.92,14.92,0,0,1-1.1,2c-.07.13-.46.18-1.17.14l-1-.3-1.61-.87a11.75,11.75,0,0,0-1.4-.71.32.32,0,0,1-.21-.15,1.59,1.59,0,0,1-.8-1.68l.17-.83c.22-.17.31-.57.3-1.19a11,11,0,0,0,.4-1.16c-.09-.09-.09-.21,0-.37.29-1.1.48-1.87.58-2.32l.25-1.25c.3-1.12.64-2.34,1-3.63s.59-2.13.67-2.51l.21-1a3.84,3.84,0,0,1,.19-1.21,3.46,3.46,0,0,0,0-1.27,1.08,1.08,0,0,1,0-.72l.54-.81a3.42,3.42,0,0,1,2.86.31,8.5,8.5,0,0,1,2.23,1.53c.05.12.17.38.38.78.21.05.27.36.19,1a6.16,6.16,0,0,0-.21.77,25,25,0,0,0-1.06,2.27q-2.61,7-2.74,7.61A2.64,2.64,0,0,0,463.87,115Z"/><path d="M339.16,41.34a5.19,5.19,0,0,0-.22.82,5,5,0,0,1-.32,1.07,3.23,3.23,0,0,0-.23,1.14,10.4,10.4,0,0,0,.42,2.47c0,.1.18.43.61,1l.42.19a2.29,2.29,0,0,1,.36.21,1.43,1.43,0,0,0,.74.1,2.49,2.49,0,0,0,.8-.11c.14-.06.43-.21.88-.45a3.08,3.08,0,0,1,1.44-.73,24.58,24.58,0,0,1,2.2-1.23,3.69,3.69,0,0,1,1.11.12,1.16,1.16,0,0,1,.49.53,2.28,2.28,0,0,1,0,2.21,7.16,7.16,0,0,1-2.12,2.44,2,2,0,0,1-.91.52,2.32,2.32,0,0,0-.41.4l-1.19.79a.41.41,0,0,0-.47.22c-.12.2-.62.37-1.51.51a11,11,0,0,1-2.69-.87,10.05,10.05,0,0,1-3.41-2.15l-.86-.83c0-.15-.33-.41-.87-.77l-.5-1-.61-1-.33-1a1.71,1.71,0,0,1,0-.84A5.7,5.7,0,0,0,332,44a6.13,6.13,0,0,0,.29-1.13,5.6,5.6,0,0,0,.33-1.12,2.61,2.61,0,0,0,.23-1.09l.14-.46.15-.73a7.87,7.87,0,0,1,.57-1.72c.26-.6.53-1.22.81-1.89a4.26,4.26,0,0,1,.4-1.16,7.33,7.33,0,0,1,.52-2.28l.06-.31a6.54,6.54,0,0,1,.22-.82l.08-.36.74-3.15a13.24,13.24,0,0,1,.54-1.3,7.19,7.19,0,0,1,.88-1.93,1.92,1.92,0,0,0,.49-.82,6.85,6.85,0,0,1,.36-1,2.9,2.9,0,0,0,.65-1.33,5.42,5.42,0,0,0,.5-1.09,2.43,2.43,0,0,1,.85-1.29q.17-.28,1.08-.54h.06a8.27,8.27,0,0,1,1.61.06,4.42,4.42,0,0,1,1.52.74,5,5,0,0,1,1.3,1.08c.32.57,0,1.65-1,3.25a4,4,0,0,1-.7,1.32,4.58,4.58,0,0,1-.38,1.06c-.06.31-.53,1.5-1.4,3.58A109.59,109.59,0,0,0,339.16,41.34Z"/><path d="M351.78,44.18l.75-2.61A12.77,12.77,0,0,1,356,35.88a6.38,6.38,0,0,1,5.43-1.17l.31.07c2,.41,3.37,1.13,4.1,2.18a8.12,8.12,0,0,1,1.65,2.93,16.09,16.09,0,0,1,.5,2.16,7.14,7.14,0,0,1-.1,1.87c-.24,1.51-.71,2.29-1.41,2.37Q366.17,51.38,364,54a15.09,15.09,0,0,1-2,2.29,3.37,3.37,0,0,1-2.8.51,22.8,22.8,0,0,1-3.21-.86,7.94,7.94,0,0,1-2.77-2,6.2,6.2,0,0,1-1.59-4.13A24.18,24.18,0,0,1,351.78,44.18Zm10.5-3c0-1.43-.5-2.21-1.63-2.33a2.13,2.13,0,0,0-1.87.92A9.61,9.61,0,0,0,357,44.35a28.87,28.87,0,0,0-.43,4.24,5.63,5.63,0,0,0,.57,2.41,1.28,1.28,0,0,0,1.11.93c1,.19,1.84-.47,2.62-2l.67-1.16a.4.4,0,0,0,.21-.5,9.38,9.38,0,0,0,1.2-2.95,1.59,1.59,0,0,1-.49-.8,4.69,4.69,0,0,1-.07-1.26,1.25,1.25,0,0,1-.21-1.07A6.92,6.92,0,0,0,362.28,41.22Z"/><path d="M377.81,54.49l1.47-3.76a1.21,1.21,0,0,1,.18-.47,1.39,1.39,0,0,0,.17-.48c.09-.27.27-.7.54-1.3a1,1,0,0,1,.34-.63,14.06,14.06,0,0,1,2-3,3,3,0,0,1,.93-1.11,1.26,1.26,0,0,1,.45-.66l.85-1a3.59,3.59,0,0,1,.52-.7.83.83,0,0,0,.53-.46,3.77,3.77,0,0,1,.85-1c.16-.29.62-.51,1.37-.64l.83.17,1.07.59.68.68a1.48,1.48,0,0,1,.21.8c.08-.06.12,0,.1,0a17.66,17.66,0,0,1-1.09,2.21c-.58,1.07-1,1.83-1.22,2.27s-.49.88-.76,1.33c0,0-.25.5-.72,1.4a9.9,9.9,0,0,1-1.12,1.8L384.24,54A10.56,10.56,0,0,0,383,56.25q-2.17,4.86-2.21,5.07a7,7,0,0,1-.68,1.21c-.19.54-.85.7-2,.47a2.73,2.73,0,0,0-.58-.61c-.13.12-.6,0-1.41-.23a6.23,6.23,0,0,1-3.67-1.4,6.65,6.65,0,0,1-.22-2.1,4.59,4.59,0,0,1-.36-2l-.33-1a3.35,3.35,0,0,0,0-1.3,3.75,3.75,0,0,1,0-1.2,2.08,2.08,0,0,1,0-.86,3.51,3.51,0,0,1,.08-.9,8,8,0,0,1,.26-2.09,18.69,18.69,0,0,0,.42-2.59,7.3,7.3,0,0,0,.17-1.1l.32-1.34a7,7,0,0,1,.3-1.18,6.31,6.31,0,0,1,.08-1.5l.15-1a6.42,6.42,0,0,0,.14-1.21,2.16,2.16,0,0,1,.34-1.12,3.49,3.49,0,0,1,.91-.52,1.87,1.87,0,0,1,1.88.33l1.19.83.39.46c.05.08,0,.25-.16.51l-.24,2.54a18.32,18.32,0,0,0-.31,3.11q-.06,1.9-.21,3.15c-.09.82-.19,2-.29,3.45s-.17,2.39-.21,2.74c-.13.66-.14,1,0,1.14A7.38,7.38,0,0,0,377.81,54.49Z"/><path d="M394.79,65.41l-.49-.21-.58-.88a.52.52,0,0,1-.42-.35c-.29-.53-.8-1.57-1.53-3.13l-.2-3a3.24,3.24,0,0,0,0-1.52c0-1.63-.06-2.56-.08-2.8a9.8,9.8,0,0,1,.25-1.92,11.16,11.16,0,0,1,.6-2.26,28.91,28.91,0,0,1,2.91-4.49,2.17,2.17,0,0,0,.83-1.13l1.07-1A7.69,7.69,0,0,1,400,41.2a6.83,6.83,0,0,1,1.87-.16,6.56,6.56,0,0,1,1.61.6q3,1.36,3.53,2.61l.1.29a8.49,8.49,0,0,1,.27,4.54c-.28.85-.52,1.56-.7,2.13a14.23,14.23,0,0,1-1.8,3,15.44,15.44,0,0,1-2,2,3.91,3.91,0,0,1-1.73.52,2.49,2.49,0,0,1-.9-.08l-1.2-.24a2.6,2.6,0,0,0-.66-.19,6.38,6.38,0,0,1-1.46-.57,12.34,12.34,0,0,0,0,3.38,8.74,8.74,0,0,0,.55,2.79A8.91,8.91,0,0,0,399,63.28a3.06,3.06,0,0,0,1.64.41,2.63,2.63,0,0,0,1.65-.39l1.69-1.39c1.1-1,2-.93,2.71.23a1.53,1.53,0,0,1,.23,1.42,15.06,15.06,0,0,1-1.59,2.36,11.1,11.1,0,0,1-2.08,1.74,8.36,8.36,0,0,1-2.09.44,5.35,5.35,0,0,1-1.43-.45,2.85,2.85,0,0,1-1.75-.42c0-.07-.08-.13-.26-.18a3.67,3.67,0,0,1-.72-.34l.12,0-.63-.13-1.29-1.07ZM403,45.61c0-.19-.25-.3-.66-.35a1.11,1.11,0,0,0-1,.44,14.63,14.63,0,0,0-3.75,6.75c1.12.52,2.23.2,3.33-.94C402.68,48.33,403.38,46.37,403,45.61Z"/><path d="M415.83,62.76a.92.92,0,0,1,.67,1.08c-.06.55-.18,1.28-.36,2.2a12.76,12.76,0,0,1-1.54,3.55,2.25,2.25,0,0,1-.8,1,8.48,8.48,0,0,1-.79,1.24A4,4,0,0,1,410.14,74a1.79,1.79,0,0,1-.8.21,2.39,2.39,0,0,1-1.91-.71c-.19-.15-.21-.28-.08-.4a2.82,2.82,0,0,1,.84-1.09,9.73,9.73,0,0,0,1-1,9.46,9.46,0,0,0,.68-1.24l.4-2a3.22,3.22,0,0,0-.32-2.69,2.42,2.42,0,0,1-.3-2.25,1.12,1.12,0,0,1,.11-.49,3.07,3.07,0,0,1,.57-1,2.57,2.57,0,0,1,1-.75l.77.21a4.39,4.39,0,0,1,1.88.6l.79.38A14.15,14.15,0,0,1,415.83,62.76Z"/></g></g></svg>