<svg xmlns="http://www.w3.org/2000/svg" viewBox="0 0 42.17 41.34">
  <defs>
    <style>
      .cls-1,.cls-2{fill:none;stroke:#fff;stroke-miterlimit:10}.cls-1{stroke-width:1.5px}.cls-2{stroke-width:3px}.cls-3{fill:#fff}
    </style>
  </defs>
  <g id="Ebene_2" data-name="Ebene 2">
    <g id="Ebene_2-2" data-name="Ebene 2">
      <path class="cls-1" d="M.75 4.48h40.67V40.6H.75zM.75 11h40.67"/>
      <path class="cls-2" d="M7.21 0v8.54M35.13 0v8.54"/>
      <path class="cls-3" d="M6.67 16.57h4.02v4.02H6.67zM14.86 16.57h4.02v4.02h-4.02zM23.02 16.57h4.02v4.02h-4.02zM31.21 16.57h4.02v4.02h-4.02zM6.67 24.01h4.02v4.02H6.67zM14.86 24.01h4.02v4.02h-4.02zM23.02 24.01h4.02v4.02h-4.02zM31.21 24.01h4.02v4.02h-4.02zM6.67 31.27h4.02v4.02H6.67zM14.86 31.27h4.02v4.02h-4.02zM23.02 31.27h4.02v4.02h-4.02zM31.21 31.27h4.02v4.02h-4.02z"/>
    </g>
  </g>
</svg>
