<svg version="1.1" id="Ebene_1" xmlns="http://www.w3.org/2000/svg" x="0" y="0" viewBox="0 0 1366 768" xml:space="preserve">
  <style>
    .st0{fill:#1d1d1b}
  </style>
  <path class="st0" d="M67.8 289c17-20.8 40.3-31.8 69.9-33.1 48.5-1.9 84.6 10.1 108.2 35.9 23.6 25.8 36.2 51.4 37.8 76.6 1.6 25.2-4.9 38.8-19.4 40.6-20.8.6-34.3-2.2-40.6-8.5-5.7.6-12.9-3.5-21.7-12.3-3.8-1.9-8.8-9.1-15.1-21.7l-10.4-23.6c-5-11.3-11.3-17.6-18.9-18.9-9.4 3.8-14.2 13.2-14.2 28.4 2.5 29.6 16.7 58 42.5 85.1 1.9 3.2 6.9 9.1 15.1 18 49.8 54.8 75.6 98.9 77.5 132.3 0 21.4-4.4 35.6-13.2 42.5-27.1 32.1-62.4 48.8-105.9 50.1-43.5 1.3-79.4-12.3-107.8-40.6-7.6-7.6-11.3-14.8-11.3-21.7-3.8-12-5-19.9-3.8-23.6-1.9-17.6-1.9-30.9 0-39.7 3.8-20.2 18.6-30.6 44.4-31.2 9.4 0 15.4 5.7 18 17 8.2 32.1 15.9 53.3 23.2 63.3 7.2 10.1 19 14.8 35.4 14.2 20.8-1.3 30.7-12.9 29.8-35-.9-22-11.5-42.5-31.7-61.4-6.3-7.6-12.5-13.4-18.4-17.5-6-4.1-9.9-7.1-11.8-9-.6-1.9-2.2-3.8-4.7-5.7-12.6-10.1-28.5-26.8-47.7-50.1-19.2-23.3-29.5-45-30.7-65.2-2.5-36 6-64.4 25.5-85.2zM517 94.2c-3.3 15.5-5.4 26.8-6.2 34-.8 7.2-1.9 13.6-3.1 19.1l-2.8 24.4-1.7 6.5L501 198c-.6 5.6-1.6 11.2-2.9 16.8l33.6-2.8c2.5.3 11.8-.2 27.8-1.6 16-1.4 30.4-1.1 43.2.6 12.8 1.8 21.3 5.4 25.4 11 4.1 5.5 5.7 13 4.6 22.4.4 7.7-2.6 14.6-9 20.9l-4.4 5.2c-5.9 7.6-13.7 12.1-23.4 13.5l-33.4 1-43.4 5.5-26.4 6.5c-1.2 15.7-2 33.1-2.6 52-.6 19-1.3 32.2-2.1 39.7l-1.1 35.1c1.9 56 6.2 113.6 12.8 172.7 3.1 6.1 5.7 19.4 7.8 39.9l5.3 20.6c.1 21.6-14.3 30.7-43.1 27.5-5-.6-17.4-3.2-37.1-8-5.6-1.3-13.1-7.8-22.5-19.7.1-1.3-2.8-5.7-8.9-13.4l-13-45.2c-1-2-1.9-8.1-2.7-18.4-6.1-7.7-10-24-11.6-48.9.1-1.2-.1-4.4-.8-9.6l1.5-13.2c-3.9-4.9-5.6-17.4-5.2-37.7.4-20.3.3-39.3-.2-57.1 2.8-24.4 3.5-48.1 2.3-71.1l.5-20.9 1-8.4c1.3-6.2 1.7-9.3 1.1-9.4l-11.3-1.3c-9.5.2-17.4-.7-23.5-2.7-27.6-3.1-45.8-13.1-54.6-30-5.6-17.8-4.7-28.7 2.8-33 7.5-4.2 24.9-7.3 52.4-9.3 11.9 1.3 27.7-1 47.4-7 1.8-15.6 3.7-24.3 5.8-26 3.5-14.2 6.6-23.2 9.2-27 2.7-3.8 4.5-7.9 5.7-12.2 2.3-15 10.2-36.6 23.5-64.9 5.4-14 9.9-23.3 13.6-27.9 9.5-11 26.8-12.8 52-5.5 10.4 3.1 17.8 8 22.1 14.9 1.8-.4 1.1 7.2-2.2 22.6zM799 578.7l-17.1 35.6c-.1 1.3-10.3 14-30.6 38.3-6.6 11.5-17.7 17.2-33.2 17.3-15.5 0-30.3-2.8-44.4-8.3-18.9-8.5-33-17.8-42.3-28.1-9.3-10.2-17.9-26.9-25.9-50s-11.7-41.9-11.1-56.4c-1.5-21-2-34.3-1.5-40l1.8-22.6c1.8-22.6 3.8-35.7 6-39.3.8-2.5 2.9-8.9 6.3-19.4 5.3-26.1 14.8-50.6 28.7-73.6 26.9-44 52.7-65.6 77.3-64.9l4.7.4c1.2.7 3.1 1.2 5.6 1.4l12.2 1c21.8 3.7 35.2 6.6 40.1 8.9 9.2 3.3 17.3 5.2 24.2 5.7l24.1 6.7c7.6 0 17.4 2.3 29.3 7.1 11.9 4.8 18.3 8.1 19.1 10.1.8 2 2 9 3.5 21.1 1.5 12.1 2.6 20.9 3.1 26.3.5 5.4.9 11 1 16.7 1.3 46.3 6.1 89.6 14.2 130.1.5 1.9.9 4.8 1.2 8.6.3 3.8 1.9 11.4 4.8 22.7 2.9 11.3 5 20.8 6.2 28.5 1.3 7.7 3.9 18 7.9 31 3 9.7 7.8 21.2 14.3 34.3 12.2 20.6 3.8 35.1-25.3 43.5-3.9 1-10.5 1.1-19.9.3-1.9-.2-7.6-3.8-17.1-10.9-6.3-.5-12-4.4-17.1-11.8l-7.4-2.5c-4.1-4.7-7.6-7.2-10.8-7.5-1.2-1.4-10.4-27.7-27.8-79-2.2 6.9-3.7 13.1-4.1 18.7zm-14.8-182.3c.5-13.9-1.8-24.6-6.9-32.3-5.1-7.7-15.1-12.7-30.1-15.2-4.7 2.8-11.3 12.8-20 30.2-8.7 17.3-14.7 36-18.3 55.9-8.7 29.6-14.3 59.5-16.7 89.7-1.9 30.8 1.4 53.9 9.6 69.1 1 2.6 2.2 3.7 3.5 3.1 3.1.3 8.7-5.6 16.6-17.6 38.4-57.7 59.1-118.7 62.3-182.9zM1117.8 416.2l19.9-53.1c1.7-2.1 2.9-6.3 3.6-12.7l21.1-38.9 17.3-18.7c3.6-2.2 7.4-5.7 11.4-10.5 1.4 1.2 6.3-.6 14.7-5.1 5.6-.5 17-.6 34.1-.3l19.4 4.9 44.7 21.6c9.6 8 14.2 17.1 13.9 27.2.1 7.6-1.5 28.6-4.7 63.1-2.6 27.5-7 59.2-13.2 95.2-2.5 28.7-2.2 49.2.8 61.6 3 12.4 4.6 19.5 4.8 21.4 1.6 3.7 3.8 8.8 6.6 15.5 2.8 6.7 3.6 10.4 2.4 11.2 4.4.2 6.9 3.2 7.4 8.8 6.2 12.7 8.7 21.5 7.6 26.4-1.2 4.8-4.7 10.4-10.8 16.6-6.1 6.2-17.6 10.1-34.5 11.7-10.2-.4-18.2-.2-24.2.3s-13.5-1-22.7-4.6c-19.4-11.5-31-24.1-34.7-37.7-3.9-8.5-6.4-14.9-7.4-19.2-1-4.3-1.6-7.5-1.8-9.3-4.9-18.5-6.3-38-4.4-58.4-.1-7.6 1.4-23.2 4.3-46.9 2.9-24.3 6.2-43.6 9.9-57.9-1.3-13.8-2.2-21-2.9-21.6l-30.2 74.9c-2.9 10.4-5.6 18.2-8.3 23.5-2.9 3.4-4.1 7.3-3.7 11.7-4.6 5.5-8.4 15.9-11.4 31.4.4 4.4.4 7.6-.1 9.5-.5 1.9-2.4 6.7-5.8 14.3-3.4 7.6-5.6 14.6-6.6 21s-4.3 13.7-9.9 21.8c.2 2.5-2.7 15.8-8.7 39.7-.4 2.6-6.8 5.4-19.2 8.4l-18-.3c-4.5-.9-15.2-3.1-31.9-6.6-16.8-3.5-25.9-5.2-27.5-5.1-1.6.1-3-.3-4.4-1.5-10.9-1.5-18.3-9.7-22.2-24.6l-1.4-15.1c2.8-4 2.4-11.3-1-21.7.7-6.4 1-13.7.9-21.9-2-1.1-2.5-3.2-1.5-6.5-.6-20.2-1.2-34.4-2-42.5l-2.1-22.6c-.6-20.8-1.1-43.2-1.4-67.3-.3-24-.7-39.5-1.4-46.4l-1.7-18.8c-1.6-3-2.5-10.2-2.9-21.6-2.3-11.8-4.6-19-6.7-21.7-2.1-2.7-3.2-6.8-3-12.5l5.1-16.6c9.3-9.1 26.1-12.2 50.4-9.3 10.8.9 26.2 5.9 46 14.8 1.4 1.8 4.9 5.6 10.5 11.4 3.8-.3 6.4 4.8 8 15.4-.1 5.7 0 10.4.3 14.2-.6.7-2.7 15.4-6.4 44.2-5.9 88.5-8.5 136.5-7.8 144 .7 7.5 1.8 12.8 3.3 15.8 4.4-13.7 9-29.6 13.7-47.8l15.9-54.6"/>
</svg>
